<?xml version="1.0" encoding="UTF-8" standalone="no"?>
<svg width="21px" height="28px" viewBox="0 0 21 28" version="1.1" xmlns="http://www.w3.org/2000/svg" xmlns:xlink="http://www.w3.org/1999/xlink">
    <!-- Generator: Sketch 45.1 (43504) - http://www.bohemiancoding.com/sketch -->
    <title>icon_text</title>
    <desc>Created with Sketch.</desc>
    <defs></defs>
    <g id="YCH-WORKS" stroke="none" stroke-width="1" fill="none" fill-rule="evenodd">
        <g id="troubleshooting02_1" transform="translate(-1082.000000, -349.000000)" fill-rule="nonzero" fill="#666666">
            <g id="BLOCKLY_troubleshooting02">
                <g id="Mid_interface">
                    <g id="bg">
                        <g id="icon_txt" transform="translate(1082.000000, 349.000000)">
                            <g id="icon_text" transform="translate(0.169179, 0.863316)">
                                <path d="M20.1354803,5.32803362 L20.1352989,5.32259045 C20.1340288,5.304628 20.1322144,5.2873913 20.1304,5.26997316 C20.1201809,5.18747533 20.0976115,5.10698377 20.0634491,5.03119953 L20.0630862,5.03011089 C20.0471367,4.99453335 20.0286424,4.96015223 20.0077473,4.92723502 L20.0010341,4.91634868 C19.9885452,4.89735598 19.9753515,4.8788363 19.9614804,4.86082837 C19.954159,4.85121485 19.9465347,4.8418358 19.9386191,4.83270533 C19.9331759,4.82581065 19.9273699,4.81927885 19.9215638,4.81274705 C19.9159721,4.80667163 19.9102863,4.80068342 19.9045086,4.7947846 C19.8985211,4.78843423 19.892715,4.78153955 19.8861832,4.77537063 L15.2819889,0.252460934 C15.1484374,0.116833091 14.9726206,0.0308128216 14.7835761,0.00860700934 L14.7817618,0.00860700934 C14.7628991,0.0063067667 14.743955,0.00473313201 14.7249714,0.0038895971 C14.7206168,0.00370815817 14.7162623,0.0038895971 14.7120892,0.00352671924 L14.6852362,0.00298240244 L0.847251773,0.00298240244 C0.624744053,0.00293424061 0.411338493,0.0913161785 0.254018788,0.248669914 C0.0966990821,0.406023649 0.00836330298,0.61944832 0.0084595902,0.841956024 L0.0084595902,26.0196923 C0.00831514155,26.2422314 0.0966296578,26.4557027 0.253954586,26.6130957 C0.411279515,26.7704887 0.624712598,26.8588956 0.847251773,26.8588474 L19.2979582,26.8588474 C19.5204974,26.8588956 19.7339305,26.7704887 19.8912554,26.6130957 C20.0485803,26.4557027 20.1368948,26.2422314 20.1367504,26.0196923 L20.1367504,5.37448198 C20.1368735,5.35898908 20.1364499,5.34349665 20.1354803,5.32803362 L20.1354803,5.32803362 Z M15.5240284,2.84268313 L17.2467911,4.53496405 L15.5240284,4.53496405 L15.5240284,2.84268313 L15.5240284,2.84268313 Z M18.4593475,25.1798115 L1.68568108,25.1798115 L1.68568108,1.68092965 L13.8462626,1.68092965 L13.8462626,5.37430055 C13.8463627,5.83756996 14.2217855,6.21315518 14.6850548,6.21345561 L18.459166,6.21345561 L18.459166,25.1798115 L18.4593475,25.1798115 Z M16.0950167,13.573163 L4.47203876,13.573163 C4.24953102,13.573163 4.03614456,13.6615911 3.87885888,13.8189788 C3.72157321,13.9763666 3.63328359,14.1898104 3.63342801,14.4123181 C3.63323544,14.6348739 3.72149801,14.8483829 3.87878369,15.0058388 C4.03606937,15.1632946 4.24948288,15.2517879 4.47203876,15.251836 L16.0950167,15.251836 C16.3175745,15.2517398 16.5309787,15.1632368 16.6882827,15.0057966 C16.8455868,14.8483564 16.9339052,14.6348758 16.9338089,14.4123181 C16.933809,13.9490072 16.5583276,13.5733634 16.0950167,13.573163 L16.0950167,13.573163 Z M3.63360945,10.8873225 C3.63336868,11.109893 3.72161575,11.3234301 3.87891188,11.4808964 C4.03620801,11.6383627 4.24964953,11.7268406 4.4722202,11.7268404 L16.0951982,11.7268404 C16.3177559,11.7267442 16.5311601,11.6382412 16.6884642,11.480801 C16.8457682,11.3233609 16.9340866,11.1098803 16.9339904,10.8873225 C16.9340385,10.6648129 16.845693,10.4513975 16.688389,10.2940254 C16.5310849,10.1366533 16.3177078,10.0482155 16.0951982,10.0481674 L4.4722202,10.0481674 C4.24971246,10.0481674 4.036326,10.1365955 3.87904032,10.2939832 C3.72175465,10.451371 3.63346503,10.6648148 3.63360945,10.8873225 L3.63360945,10.8873225 Z M16.0950167,17.0974328 L4.47203876,17.0974328 C4.24956247,17.0974328 4.03620354,17.185836 3.87892308,17.3431845 C3.72164262,17.500533 3.63333174,17.7139302 3.63342801,17.9364064 C3.63313904,18.1590084 3.72136484,18.3725921 3.87866619,18.5300977 C4.03596754,18.6876032 4.24943661,18.776106 4.47203876,18.7761058 L16.0950167,18.7761058 C16.317606,18.7760096 16.5310376,18.6874817 16.6883469,18.5300023 C16.8456562,18.3725229 16.9339533,18.1589956 16.9338089,17.9364064 C16.9337088,17.4731664 16.5582567,17.0976331 16.0950167,17.0974328 L16.0950167,17.0974328 Z" id="Shape"></path>
                            </g>
                        </g>
                    </g>
                </g>
            </g>
        </g>
    </g>
</svg>