<?xml version="1.0" encoding="UTF-8" standalone="no"?>
<svg width="28px" height="28px" viewBox="0 0 28 28" version="1.1" xmlns="http://www.w3.org/2000/svg" xmlns:xlink="http://www.w3.org/1999/xlink">
    <!-- Generator: Sketch 45.2 (43514) - http://www.bohemiancoding.com/sketch -->
    <title>icon_Save as</title>
    <desc>Created with Sketch.</desc>
    <defs></defs>
    <g id="YCH-WORKS" stroke="none" stroke-width="1" fill="none" fill-rule="evenodd">
        <g id="切图专用" transform="translate(-489.000000, -133.000000)" stroke="#FFFFFF">
            <g id="btn_Topright" transform="translate(438.000000, 133.000000)">
                <g id="icon_Save-as" transform="translate(56.000000, 4.000000)">
                    <g transform="translate(0.829868, 0.922075)" id="Combined-Shape">
                        <path d="M15.4347982,4.09111383 L13.5303623,4.09111383 L13.5303623,5.43738209 L15.4347982,5.43738209 L15.4347982,17.3394036 L5.38653044,17.3394036 L5.38653044,15.6502433 L4.04026218,15.6502433 L4.04026218,17.3394036 L4.0387485,17.3394036 L4.0387485,18.6737377 L16.7679767,18.6737377 L16.7679767,4.0891654 L15.4347982,4.0891654 L15.4347982,4.09111383 Z" stroke-width="0.1" fill="#FFFFFF"></path>
                        <path d="M4.95344023,0.75 L0.75,4.95344023 L0.75,14.7417587 L12.7710089,14.7417587 L12.7710089,0.75 L4.95344023,0.75 Z" stroke-width="1.5"></path>
                        <path d="M4.40911293,0.942135058 L5.43745583,0.942135058 L5.43745583,5.43996796 L1.24124801,5.43996796 L1.24124801,4.41331378 L4.40911293,4.41331378 L4.40911293,0.942135058 Z" stroke-width="0.5" fill="#FFFFFF"></path>
                    </g>
                </g>
            </g>
        </g>
    </g>
</svg>