<?xml version="1.0" encoding="UTF-8" standalone="no"?>
<svg width="18px" height="18px" viewBox="0 0 18 18" version="1.1" xmlns="http://www.w3.org/2000/svg" xmlns:xlink="http://www.w3.org/1999/xlink">
    <!-- Generator: Sketch 43.2 (39069) - http://www.bohemiancoding.com/sketch -->
    <title>icon_info</title>
    <desc>Created with Sketch.</desc>
    <defs></defs>
    <g id="YCH-WORKS" stroke="none" stroke-width="1" fill="none" fill-rule="evenodd">
        <g id="Setting_Studio" transform="translate(-386.000000, -666.000000)" fill-rule="nonzero" fill="#D95E2E">
            <g id="Popout_uArm-Firmware_latest" transform="translate(209.000000, 533.000000)">
                <g id="Icon_info" transform="translate(177.000000, 133.000000)">
                    <path d="M9,0 C4.05,0 0,4.05 0,9 C0,13.95 4.05,18 9,18 C13.95,18 18,13.95 18,9 C18,4.05 13.95,0 9,0 Z M9,17.2125 C4.5,17.2125 0.7875,13.5 0.7875,9 C0.7875,4.5 4.5,0.7875 9,0.7875 C13.5,0.7875 17.2125,4.5 17.2125,9 C17.2125,13.5 13.5,17.2125 9,17.2125 Z M10.575,11.8125 C10.125,11.7 9.675,13.275 9,13.05 L8.8875,13.05 C9.1125,10.8 10.0125,8.775 10.4625,6.525 L10.35,6.525 C9.45,6.8625 8.1,6.75 7.2,7.0875 L7.2,7.3125 C8.55,7.3125 8.2125,8.1 7.875,9 C7.5375,10.2375 6.975,11.7 6.8625,12.7125 C6.75,13.725 7.425,14.175 8.1,14.175 C9,14.175 9.7875,13.275 10.125,12.7125 C10.2375,12.7125 11.025,11.925 10.575,11.8125 Z M10.0125,3.15 C9.45,3.15 8.8875,3.6 8.8875,4.275 C8.8875,4.8375 9.3375,5.4 10.0125,5.4 C10.575,5.4 11.1375,4.95 11.1375,4.275 C11.1375,3.7125 10.575,3.15 10.0125,3.15 Z" id="icon_info"></path>
                </g>
            </g>
        </g>
    </g>
</svg>