<?xml version="1.0" encoding="UTF-8" standalone="no"?>
<svg width="13px" height="13px" viewBox="0 0 13 13" version="1.1" xmlns="http://www.w3.org/2000/svg" xmlns:xlink="http://www.w3.org/1999/xlink">
    <!-- Generator: Sketch 45.2 (43514) - http://www.bohemiancoding.com/sketch -->
    <title>icon_？</title>
    <desc>Created with Sketch.</desc>
    <defs></defs>
    <g id="YCH-WORKS" stroke="none" stroke-width="1" fill="none" fill-rule="evenodd">
        <g id="Blcokly_grove_color04_Edit--" transform="translate(-1034.000000, -332.000000)" stroke-width="0.7" stroke="#9FB0C4" fill="#4A90E2">
            <g id="BLOCKLY_Add-Grove_color04">
                <g id="Edit-color" transform="translate(605.000000, 326.000000)">
                    <g id="icon_？" transform="translate(430.000000, 7.000000)">
                        <g id="Combined-Shape">
                            <path d="M5.49354593,10.8249301 C2.54910378,10.8249301 0.162161793,8.43798808 0.162161793,5.49354593 C0.162161793,2.54910378 2.54910378,0.162161793 5.49354593,0.162161793 C8.43798808,0.162161793 10.8249301,2.54910378 10.8249301,5.49354593 C10.8249301,8.43798808 8.43798808,10.8249301 5.49354593,10.8249301 Z M5.48540029,10.6953112 C8.34805239,10.6953112 10.6686904,8.37467314 10.6686904,5.51202105 C10.6686904,2.64936895 8.34805239,0.328730915 5.48540029,0.328730915 C2.6227482,0.328730915 0.302110158,2.64936895 0.302110158,5.51202105 C0.302110158,8.37467314 2.6227482,10.6953112 5.48540029,10.6953112 Z M5.36389933,6.6573734 C5.34074229,6.60053339 5.32074333,6.52632671 5.30390184,6.43475114 C5.28706036,6.34317556 5.27863974,6.25107507 5.27863974,6.15844691 C5.27863974,6.05318763 5.29284953,5.95687683 5.32126954,5.86951163 C5.34968954,5.78214643 5.38968747,5.69951913 5.44126452,5.62162726 C5.49284156,5.5437354 5.55441732,5.46847614 5.62599363,5.39584724 C5.69756994,5.32321833 5.77651321,5.24901165 5.86282582,5.17322497 C5.93440213,5.10796422 6.00545108,5.03954671 6.0759748,4.9679704 C6.14649852,4.89639409 6.20912685,4.81955597 6.26386168,4.73745373 C6.3185965,4.65535149 6.36280474,4.56588245 6.39648771,4.46904391 C6.43017068,4.37220537 6.44701191,4.26589509 6.44701191,4.15010989 C6.44701191,4.02590394 6.42596037,3.91433077 6.38385666,3.81538705 C6.34175294,3.71644333 6.28280863,3.63223717 6.20702195,3.56276604 C6.13123527,3.49329492 6.04071364,3.44066607 5.93545436,3.40487791 C5.83019508,3.36908976 5.71335904,3.35119595 5.58494271,3.35119595 C5.37231897,3.35119595 5.17548707,3.38856243 4.99444111,3.46329652 C4.81339515,3.53803061 4.64393025,3.63960429 4.48604133,3.76802061 L4.48604133,3.40487791 C4.64603543,3.28277715 4.81550033,3.19172923 4.99444111,3.13173144 C5.17338188,3.07173366 5.37126636,3.04173521 5.58810048,3.04173521 C5.75651533,3.04173521 5.9133493,3.06594448 6.05860711,3.11436375 C6.20386491,3.16278302 6.32912158,3.23277939 6.43438086,3.32435496 C6.53964014,3.41593054 6.62226743,3.52855628 6.68226522,3.66223556 C6.74226301,3.79591485 6.77226146,3.94801223 6.77226146,4.11853226 C6.77226146,4.24694858 6.75436765,4.36483721 6.71857949,4.47220167 C6.68279134,4.57956614 6.63595166,4.67850838 6.57805906,4.76903136 C6.52016645,4.85955434 6.45332781,4.94481308 6.37754113,5.02481013 C6.30175445,5.10480718 6.2259689,5.1816453 6.15018222,5.2553268 C6.02808146,5.36900682 5.92913922,5.46531762 5.85335254,5.54426208 C5.77756586,5.62320654 5.71809525,5.69425549 5.67493895,5.75741106 C5.63178264,5.82056662 5.6017842,5.88266867 5.58494271,5.94371905 C5.56810123,6.00476943 5.55968061,6.07529209 5.55968061,6.15528914 C5.55968061,6.26054842 5.56862752,6.35580664 5.5865216,6.44106666 C5.60441567,6.52632668 5.62283577,6.5984282 5.64178244,6.6573734 L5.36389933,6.6573734 Z M5.62802438,8.25441289 C5.55013251,8.25441289 5.48592531,8.22809847 5.43540086,8.17546883 C5.3848764,8.12283919 5.35961456,8.05757941 5.35961456,7.97968755 C5.35961456,7.89969049 5.3848764,7.83443072 5.43540086,7.78390626 C5.48592531,7.73338181 5.55013251,7.70811996 5.62802438,7.70811996 C5.70802143,7.70811996 5.77486007,7.73338181 5.8285423,7.78390626 C5.88222454,7.83443072 5.90906525,7.89969049 5.90906525,7.97968755 C5.90906525,8.05757941 5.88222454,8.12283919 5.8285423,8.17546883 C5.77486007,8.22809847 5.70802143,8.25441289 5.62802438,8.25441289 Z"></path>
                        </g>
                    </g>
                </g>
            </g>
        </g>
    </g>
</svg>