<?xml version="1.0" encoding="UTF-8" standalone="no"?>
<svg width="16px" height="16px" viewBox="0 0 16 16" version="1.1" xmlns="http://www.w3.org/2000/svg" xmlns:xlink="http://www.w3.org/1999/xlink">
    <!-- Generator: Sketch 45.2 (43514) - http://www.bohemiancoding.com/sketch -->
    <title>icon_colors</title>
    <desc>Created with Sketch.</desc>
    <defs>
        <filter x="-10.7%" y="-10.7%" width="121.4%" height="121.4%" filterUnits="objectBoundingBox" id="filter-1">
            <feOffset dx="0" dy="0" in="SourceAlpha" result="shadowOffsetOuter1"></feOffset>
            <feGaussianBlur stdDeviation="0.5" in="shadowOffsetOuter1" result="shadowBlurOuter1"></feGaussianBlur>
            <feColorMatrix values="0 0 0 0 1   0 0 0 0 1   0 0 0 0 1  0 0 0 0.5 0" type="matrix" in="shadowBlurOuter1" result="shadowMatrixOuter1"></feColorMatrix>
            <feMerge>
                <feMergeNode in="shadowMatrixOuter1"></feMergeNode>
                <feMergeNode in="SourceGraphic"></feMergeNode>
            </feMerge>
        </filter>
    </defs>
    <g id="YCH-WORKS" stroke="none" stroke-width="1" fill="none" fill-rule="evenodd">
        <g id="Blcokly_grove_color03_Main---" transform="translate(-863.000000, -497.000000)">
            <g id="BLOCKLY_Add-Grove_color03">
                <g id="popout" transform="translate(617.000000, 315.000000)">
                    <g id="color-selections">
                        <g id="btn_check-colors-sheet" transform="translate(246.000000, 182.000000)">
                            <g id="color-shape">
                                <g id="icon_colors" filter="url(#filter-1)" transform="translate(1.000000, 1.000000)">
                                    <circle id="Oval-8" fill="#484848" cx="7" cy="7" r="7"></circle>
                                    <g id="color-shapes" transform="translate(2.667748, 2.534072)">
                                        <path d="M2.82904067,8.64878147 L2.82904067,5.90057054 C2.82904067,5.58808333 3.0823616,5.3347624 3.3948488,5.3347624 C3.70733601,5.3347624 3.96065694,5.58808333 3.96065694,5.90057054 L3.96065694,8.64878147 C3.96065694,8.96126868 3.70733601,9.21458961 3.3948488,9.21458961 C3.0823616,9.21458961 2.82904067,8.96126868 2.82904067,8.64878147 L2.82904067,8.64878147 Z" id="Rectangle-25" fill="#699CCC"></path>
                                        <path d="M6.20764188,8.72247299 L4.26436329,6.7791944 C4.04340147,6.55823258 4.04340147,6.19998269 4.26436329,5.97902087 C4.48532511,5.75805905 4.843575,5.75805905 5.06453682,5.97902087 L7.00781541,7.92229946 C7.22877723,8.14326128 7.22877723,8.50151117 7.00781541,8.72247299 C6.78685359,8.94343481 6.4286037,8.94343481 6.20764188,8.72247299 L6.20764188,8.72247299 Z" id="Rectangle-25" fill="#63C18F"></path>
                                        <path d="M8.64878147,6.38554894 L5.90057054,6.38554894 C5.58808333,6.38554894 5.3347624,6.13222801 5.3347624,5.8197408 C5.3347624,5.5072536 5.58808333,5.25393267 5.90057054,5.25393267 L8.64878147,5.25393267 C8.96126868,5.25393267 9.21458961,5.5072536 9.21458961,5.8197408 C9.21458961,6.13222801 8.96126868,6.38554894 8.64878147,6.38554894 Z" id="Rectangle-25" fill="#B8E986"></path>
                                        <path d="M8.72247299,3.00694773 L6.7791944,4.95022632 C6.55823258,5.17118814 6.19998269,5.17118814 5.97902087,4.95022632 C5.75805905,4.7292645 5.75805905,4.3710146 5.97902087,4.15005278 L7.92229946,2.20677419 C8.14326128,1.98581237 8.50151117,1.98581237 8.72247299,2.20677419 C8.94343481,2.42773602 8.94343481,2.78598591 8.72247299,3.00694773 Z" id="Rectangle-25" fill="#FFC667"></path>
                                        <path d="M6.38554894,0.565808134 L6.38554894,3.31401907 C6.38554894,3.62650627 6.13222801,3.8798272 5.8197408,3.8798272 C5.5072536,3.8798272 5.25393267,3.62650627 5.25393267,3.31401907 L5.25393267,0.565808134 C5.25393267,0.25332093 5.5072536,5.74029681e-17 5.8197408,0 C6.13222801,-5.74029681e-17 6.38554894,0.25332093 6.38554894,0.565808134 Z" id="Rectangle-25" fill="#F49A40"></path>
                                        <path d="M3.00694773,0.492116616 L4.95022632,2.4353952 C5.17118814,2.65635703 5.17118814,3.01460692 4.95022632,3.23556874 C4.7292645,3.45653056 4.3710146,3.45653056 4.15005278,3.23556874 L2.20677419,1.29229015 C1.98581237,1.07132833 1.98581237,0.713078437 2.20677419,0.492116616 C2.42773602,0.271154795 2.78598591,0.271154795 3.00694773,0.492116616 Z" id="Rectangle-25" fill="#EB616D"></path>
                                        <path d="M0.565808134,2.82904067 L3.31401907,2.82904067 C3.62650627,2.82904067 3.8798272,3.0823616 3.8798272,3.3948488 C3.8798272,3.70733601 3.62650627,3.96065694 3.31401907,3.96065694 L0.565808134,3.96065694 C0.25332093,3.96065694 3.82686454e-17,3.70733601 0,3.3948488 C-3.82686454e-17,3.0823616 0.25332093,2.82904067 0.565808134,2.82904067 Z" id="Rectangle-25" fill="#CD7BA7"></path>
                                        <path d="M0.492116616,6.20764188 L2.4353952,4.26436329 C2.65635703,4.04340147 3.01460692,4.04340147 3.23556874,4.26436329 C3.45653056,4.48532511 3.45653056,4.843575 3.23556874,5.06453682 L1.29229015,7.00781541 C1.07132833,7.22877723 0.713078437,7.22877723 0.492116616,7.00781541 C0.271154795,6.78685359 0.271154795,6.4286037 0.492116616,6.20764188 Z" id="Rectangle-25" fill="#9D86BC"></path>
                                    </g>
                                </g>
                            </g>
                        </g>
                    </g>
                </g>
            </g>
        </g>
    </g>
</svg>