<?xml version="1.0" encoding="UTF-8" standalone="no"?>
<svg width="1120px" height="574px" viewBox="0 0 1120 574" version="1.1" xmlns="http://www.w3.org/2000/svg" xmlns:xlink="http://www.w3.org/1999/xlink">
    <!-- Generator: Sketch 44.1 (41455) - http://www.bohemiancoding.com/sketch -->
    <title>半圆坐标</title>
    <desc>Created with Sketch.</desc>
    <defs>
        <path d="M1118,574 C1118,266.286796 871.254514,15 559.688642,15 C248.12277,15 0,266.286796 0,574 L1118,574 Z" id="path-1"></path>
        <path d="M832,574 C832,423.721459 711.496391,301 559.336314,301 C407.176237,301 286,423.721459 286,574 L832,574 Z" id="path-3"></path>
        <path d="M954,574 C954,356.564015 779.865663,179 559.985992,179 C340.10632,179 165,356.564015 165,574 L954,574 Z" id="path-5"></path>
        <path d="M459.012915,2.8313768 C459.012915,2.8313768 459.012749,6.06722295 459.0125,11.0018694 C459.012054,19.9004019 459.011557,30.0932095 459.011021,41.4184823 C459.009491,73.7764019 459.00796,108.722462 459.006532,144.962183 C459.004696,191.5397 459.003166,236.823149 459.002044,279.519283 C458.999978,358.152617 458.999403,423.677025 459.000665,471.722305 C459.001382,499.021427 459.002688,520.311897 459.004625,535.047541 C459.005647,542.825079 459.006843,548.759007 459.008219,552.781255 C459.008925,554.844212 459.009678,556.403545 459.010478,557.451151 C459.010885,557.982754 459.013061,558.80169 459.013061,558.80169 L459.5,558.80169 C459.5,558.80169 459.495862,554.836538 459.495157,552.775683 C459.493782,548.754818 459.492586,542.82189 459.491563,535.0454 C459.489627,520.310446 459.488321,499.020476 459.487604,471.721877 C459.486342,423.676942 459.486916,358.152784 459.488983,279.519711 C459.490105,236.823654 459.491635,191.540275 459.493471,144.962825 C459.494899,108.723149 459.496429,73.7771316 459.49796,41.4192526 C459.498495,30.0939958 459.498993,19.9012037 459.499439,11.0026864 C459.499688,6.06805044 459.499688,6.06805044 459.499853,2.83221412 C459.499974,0.486230163 459.499974,0.486230163 459.5,0.000855931204 L459.013061,0 C459.013036,0.485383269 459.012915,2.8313768 459.012915,2.8313768 Z" id="path-7"></path>
        <mask id="mask-8" maskContentUnits="userSpaceOnUse" maskUnits="objectBoundingBox" x="0" y="0" width="0.5" height="558.80169" fill="white">
            <use xlink:href="#path-7"></use>
        </mask>
    </defs>
    <g id="YCH-WORKS" stroke="none" stroke-width="1" fill="none" fill-rule="evenodd">
        <g id="uArm-Studio_画板Redesign" transform="translate(-197.000000, -245.000000)">
            <g id="画图" transform="translate(117.000000, 150.000000)">
                <g id="半圆坐标" transform="translate(81.000000, 94.000000)">
                    <g id="bg_半圆">
                        <g>
                            <g id="bg_XY">
                                <mask id="mask-2" fill="white">
                                    <use xlink:href="#path-1"></use>
                                </mask>
                                <use id="Mask" stroke="#A8A8A8" stroke-width="0.5" fill="#F5F5F5" stroke-dasharray="2,2" xlink:href="#path-1"></use>
                                <mask id="mask-4" fill="white">
                                    <use xlink:href="#path-3"></use>
                                </mask>
                                <use id="Mask" stroke="#A8A8A8" stroke-width="0.5" stroke-dasharray="2,2" xlink:href="#path-3"></use>
                                <mask id="mask-6" fill="white">
                                    <use xlink:href="#path-5"></use>
                                </mask>
                                <use id="Mask" stroke="#A8A8A8" stroke-width="0.5" stroke-dasharray="2,2" xlink:href="#path-5"></use>
                                <g id="swift_线框图" mask="url(#mask-6)" stroke-linejoin="bevel">
                                    <g transform="translate(407.000000, 432.000000)">
                                        <g>
                                            <path d="M25.7116209,62.4128356 L25.7116209,242.508693" id="Shape" stroke="#7F7F7F" stroke-width="0.5"></path>
                                            <path d="M279.025781,242.508923 L279.025781,62.4130655" id="Shape" stroke="#7F7F7F" stroke-width="0.5"></path>
                                            <path d="M242.575844,26.0271869 L62.1617873,26.0271869" id="Shape" stroke="#7F7F7F" stroke-width="0.5"></path>
                                            <path d="M277.183479,242.508923 L277.183479,62.4130655" id="Shape" stroke="#7F7F7F" stroke-width="0.5"></path>
                                            <path d="M279.025781,62.4128356 C279.02555,61.1431999 278.126277,59.6105797 277.676755,59.161851" id="Shape" stroke="#7F7F7F" stroke-width="0.5"></path>
                                            <path d="M25.7116209,62.4128356 C25.7118512,61.1431999 26.6111247,59.6105797 27.0606463,59.161851" id="Shape" stroke="#7F7F7F" stroke-width="0.5"></path>
                                            <path d="M277.678598,59.1623108 C267.063486,48.5659216 251.140935,32.6714528 245.833264,27.3731433" id="Shape" stroke="#7F7F7F" stroke-width="0.5"></path>
                                            <path d="M58.905289,27.3719939 C48.2901778,37.968383 32.3676261,53.8628518 27.0599554,59.1611613" id="Shape" stroke="#7F7F7F" stroke-width="0.5"></path>
                                            <path d="M242.575844,26.0271869 C243.847723,26.0271869 245.383051,26.9248743 245.832573,27.373603" id="Shape" stroke="#7F7F7F" stroke-width="0.5"></path>
                                            <path d="M58.905289,27.3719939 C59.8045625,26.4743065 61.525963,26.0255777 62.1620176,26.0255777" id="Shape" stroke="#7F7F7F" stroke-width="0.5"></path>
                                            <path d="M277.183479,62.4128356 C277.183479,61.6510082 276.643915,60.7314821 276.374248,60.4620609" id="Shape" stroke="#7F7F7F" stroke-width="0.5"></path>
                                            <path d="M244.530987,28.6731233 C243.991193,28.1345109 242.958352,27.8653196 242.576766,27.8653196" id="Shape" stroke="#7F7F7F" stroke-width="0.5"></path>
                                            <path d="M62.161557,27.8662392 C61.3983836,27.8662392 60.4772328,28.4048516 60.2073357,28.6740429" id="Shape" stroke="#7F7F7F" stroke-width="0.5"></path>
                                            <path d="M28.3622323,60.4634402 C27.8226682,61.0022825 27.5530013,62.0333012 27.5530013,62.4142149" id="Shape" stroke="#7F7F7F" stroke-width="0.5"></path>
                                            <path d="M27.5539225,62.4128356 L27.5539225,242.508693" id="Shape" stroke="#7F7F7F" stroke-width="0.5"></path>
                                            <path d="M276.375169,60.4634402 C265.760058,49.8672809 249.837506,33.9728121 244.530066,28.6745026" id="Shape" stroke="#7F7F7F" stroke-width="0.5"></path>
                                            <path d="M242.575844,27.8662392 L62.1617873,27.8662392" id="Shape" stroke="#7F7F7F" stroke-width="0.5"></path>
                                            <path d="M60.2087174,28.6731233 C49.5938365,39.2695125 33.6712848,55.1639813 28.363614,60.4620609" id="Shape" stroke="#7F7F7F" stroke-width="0.5"></path>
                                            <path d="M245.832112,27.3719939 C244.932839,26.4743065 243.211439,26.0253479 242.575384,26.0253479" id="Shape" stroke="#7F7F7F" stroke-width="0.5"></path>
                                            <path d="M58.905289,27.3719939 C59.8045625,26.4743065 61.525963,26.0253479 62.1620176,26.0253479" id="Shape" stroke="#7F7F7F" stroke-width="0.5"></path>
                                            <path d="M277.678598,59.1623108 C278.577871,60.0599981 279.027623,61.7783626 279.027623,62.4132954" id="Shape" stroke="#7F7F7F" stroke-width="0.5"></path>
                                            <path d="M58.905289,27.3719939 C48.2901778,37.968383 32.3676261,53.8628518 27.0599554,59.1611613" id="Shape" stroke="#7F7F7F" stroke-width="0.5"></path>
                                            <path d="M191.516457,5.1056688 C195.508264,5.10589868 197.503937,9.09043525 197.503937,11.0828185 C197.504167,15.0673551 193.512361,17.0597383 191.516457,17.0597383" id="Shape" stroke="#7F7F7F" stroke-width="0.5"></path>
                                            <path d="M113.220944,17.0618072 C109.229368,17.0618072 107.233464,13.0770408 107.233464,11.0848874 C107.233464,7.10012096 111.225271,5.10796761 113.220944,5.10796761" id="Shape" stroke="#7F7F7F" stroke-width="0.5"></path>
                                            <path d="M113.220944,5.10796761 C139.32037,5.10773773 178.469047,5.10773773 191.51853,5.10773773" id="Shape" stroke="#7F7F7F" stroke-width="0.5"></path>
                                            <path d="M191.516457,17.0618072 L113.218872,17.0618072" id="Shape" stroke="#7F7F7F" stroke-width="0.5"></path>
                                            <path d="M299.984264,113.382169 L299.984264,191.541889" id="Shape" stroke="#7F7F7F" stroke-width="0.5"></path>
                                            <path d="M288.009303,113.382169 C288.009303,109.397632 292.00111,107.405249 293.996784,107.405249 C297.98859,107.405249 299.984494,111.390015 299.984494,113.382169" id="Shape" stroke="#7F7F7F" stroke-width="0.5"></path>
                                            <path d="M288.009303,191.541889 L288.009303,113.382169" id="Shape" stroke="#7F7F7F" stroke-width="0.5"></path>
                                            <path d="M0.379974694,90.3940155 L0.379974694,214.529812" id="Shape" stroke="#7F7F7F" stroke-width="0.5"></path>
                                            <path d="M7.28860549,83.4975696 C2.68285163,83.4975696 0.379974694,88.0952002 0.379974694,90.3940155" id="Shape" stroke="#7F7F7F" stroke-width="0.5"></path>
                                            <path d="M25.7116209,62.4128356 C25.7116209,61.1431999 26.6108944,59.6105797 27.060416,59.161851" id="Shape" stroke="#7F7F7F" stroke-width="0.5"></path>
                                            <path d="M242.575844,26.0271869 L62.161557,26.0271869" id="Shape" stroke="#7F7F7F" stroke-width="0.5"></path>
                                            <path d="M25.7116209,62.4128356 L25.7116209,242.508923" id="Shape" stroke="#7F7F7F" stroke-width="0.5"></path>
                                            <path d="M277.185782,242.508923 L277.185782,62.4128356" id="Shape" stroke="#7F7F7F" stroke-width="0.5"></path>
                                            <path d="M277.185782,62.4128356 C277.185782,61.6510082 276.645988,60.7314821 276.376321,60.4620609" id="Shape" stroke="#7F7F7F" stroke-width="0.5"></path>
                                            <path d="M276.375169,60.4611414 C265.760058,49.8649821 249.837506,33.9705133 244.530066,28.6722038" id="Shape" stroke="#7F7F7F" stroke-width="0.5"></path>
                                            <path d="M244.530987,28.6731233 C243.991193,28.1345109 242.958352,27.8650897 242.576766,27.8650897" id="Shape" stroke="#7F7F7F" stroke-width="0.5"></path>
                                            <path d="M242.575844,27.8662392 L62.161557,27.8662392" id="Shape" stroke="#7F7F7F" stroke-width="0.5"></path>
                                            <path d="M62.161557,27.8662392 C61.3983836,27.8662392 60.4772328,28.4050815 60.2073357,28.6742727" id="Shape" stroke="#7F7F7F" stroke-width="0.5"></path>
                                            <path d="M60.2087174,28.6731233 C49.5938365,39.2695125 33.6712848,55.1639813 28.363614,60.4620609" id="Shape" stroke="#7F7F7F" stroke-width="0.5"></path>
                                            <path d="M28.3622323,60.4611414 C27.8226682,60.9999837 27.5530013,62.0310024 27.5530013,62.4119161" id="Shape" stroke="#7F7F7F" stroke-width="0.5"></path>
                                            <path d="M27.5539225,62.4128356 L27.5539225,242.508923" id="Shape" stroke="#7F7F7F" stroke-width="0.5"></path>
                                            <path d="M304.35973,214.530042 L304.35973,90.3942454" id="Shape" stroke="#7F7F7F" stroke-width="0.5"></path>
                                            <path d="M297.451099,83.4975696 L285.936484,83.4975696" id="Shape" stroke="#7F7F7F" stroke-width="0.5"></path>
                                            <path d="M285.934411,83.4975696 C281.429984,83.4975696 279.077595,79.0017765 279.027623,76.7539949" id="Shape" stroke="#7F7F7F" stroke-width="0.5"></path>
                                            <path d="M228.210498,26.0248881 C223.706992,25.9251195 221.455009,21.3785226 221.455009,19.1302812" id="Shape" stroke="#7F7F7F" stroke-width="0.5"></path>
                                            <path d="M221.453857,19.130741 L221.453857,7.63643457" id="Shape" stroke="#7F7F7F" stroke-width="0.5"></path>
                                            <path d="M221.453857,7.63666445 C221.453857,3.03903384 216.848103,0.740218529 214.545226,0.740218529" id="Shape" stroke="#7F7F7F" stroke-width="0.5"></path>
                                            <path d="M214.545226,0.740218529 C173.093442,0.740448411 110.915995,0.740448411 90.1901024,0.740448411" id="Shape" stroke="#7F7F7F" stroke-width="0.5"></path>
                                            <path d="M90.192175,0.740218529 C85.5864212,0.739988647 83.2835442,5.33784914 83.2835442,7.63666445" id="Shape" stroke="#7F7F7F" stroke-width="0.5"></path>
                                            <path d="M83.2835442,7.63666445 L83.2835442,19.130741" id="Shape" stroke="#7F7F7F" stroke-width="0.5"></path>
                                            <path d="M83.2835442,19.130741 C83.2837745,23.6272237 78.7800381,25.9754636 76.528285,26.0253479" id="Shape" stroke="#7F7F7F" stroke-width="0.5"></path>
                                            <path d="M25.7093181,76.7528455 C25.6093732,81.2484087 21.0547432,83.4964202 18.8022993,83.4964202" id="Shape" stroke="#7F7F7F" stroke-width="0.5"></path>
                                            <path d="M18.8029901,83.4975696 L7.28860549,83.4975696" id="Shape" stroke="#7F7F7F" stroke-width="0.5"></path>
                                            <path d="M4.75544086,191.541889 L4.75544086,113.382169" id="Shape" stroke="#7F7F7F" stroke-width="0.5"></path>
                                            <path d="M304.35973,90.3940155 C304.35973,85.796155 299.753976,83.4975696 297.451099,83.4975696" id="Shape" stroke="#7F7F7F" stroke-width="0.5"></path>
                                            <path d="M4.75544086,113.382169 C4.75544086,109.397632 8.74724774,107.405249 10.7429209,107.405249 C14.7347278,107.405249 16.7304009,111.390015 16.7304009,113.382169" id="Shape" stroke="#7F7F7F" stroke-width="0.5"></path>
                                            <path d="M16.7304009,113.382169 C16.7306312,139.435562 16.7306312,178.515192 16.7306312,191.541889" id="Shape" stroke="#7F7F7F" stroke-width="0.5"></path>
                                            <path d="M279.028083,242.508923 L279.028083,62.4128356" id="Shape" stroke="#7F7F7F" stroke-width="0.5"></path>
                                            <path d="M298.832825,113.382169 L298.832825,191.541889" id="Shape" stroke="#7F7F7F" stroke-width="0.5"></path>
                                            <path d="M5.90687933,191.541889 L5.90687933,113.382398" id="Shape" stroke="#7F7F7F" stroke-width="0.5"></path>
                                            <path d="M15.5789624,113.382169 L15.5789624,191.541659" id="Shape" stroke="#7F7F7F" stroke-width="0.5"></path>
                                            <path d="M5.90687933,113.382169 C5.90687933,110.163827 9.13090703,108.554656 10.7429209,108.554656 C13.9669486,108.554656 15.5789624,111.772998 15.5789624,113.381939" id="Shape" stroke="#7F7F7F" stroke-width="0.5"></path>
                                            <path d="M113.220944,15.9123996 C109.996917,15.9123996 108.384903,12.6940581 108.384903,11.0848874 C108.384903,7.86654598 111.608931,6.25737527 113.220944,6.25737527" id="Shape" stroke="#7F7F7F" stroke-width="0.5"></path>
                                            <path d="M289.160742,191.541889 L289.160742,113.382169" id="Shape" stroke="#7F7F7F" stroke-width="0.5"></path>
                                            <path d="M289.160742,113.382169 C289.160742,110.163827 292.38477,108.554886 293.996784,108.554886 C297.220811,108.554656 298.832825,111.772998 298.833055,113.382169" id="Shape" stroke="#7F7F7F" stroke-width="0.5"></path>
                                            <path d="M191.516457,6.25737527 C194.740485,6.25737527 196.352499,9.4757167 196.352499,11.0848874 C196.352499,14.3032288 193.128471,15.9123996 191.516457,15.9123996" id="Shape" stroke="#7F7F7F" stroke-width="0.5"></path>
                                            <path d="M191.516457,15.9123996 L113.218872,15.9123996" id="Shape" stroke="#7F7F7F" stroke-width="0.5"></path>
                                            <path d="M113.220944,6.25737527 L191.51853,6.25737527" id="Shape" stroke="#7F7F7F" stroke-width="0.5"></path>
                                            <path d="M277.678598,59.1623108 C267.063486,48.5659216 251.140935,32.6714528 245.833264,27.3731433" id="Shape" stroke="#7F7F7F" stroke-width="0.5"></path>
                                        </g>
                                    </g>
                                </g>
                                <g id="半圆线" transform="translate(99.720693, 14.948310)" stroke="#ABABAB" fill-rule="nonzero" stroke-width="2" stroke-dasharray="2,3">
                                    <use id="Combined-Shape" mask="url(#mask-8)" xlink:href="#path-7"></use>
                                </g>
                                <text id="A" font-family="Gotham-Book, Gotham" font-size="14" font-weight="300" letter-spacing="-0.99999994" fill="#ABABAB">
                                    <tspan x="562.731906" y="296.271967">A</tspan>
                                </text>
                                <text id="B" font-family="Gotham-Book, Gotham" font-size="14" font-weight="300" letter-spacing="-0.99999994" fill="#ABABAB">
                                    <tspan x="562.731906" y="173.467197">B</tspan>
                                </text>
                                <text id="C" font-family="Gotham-Book, Gotham" font-size="14" font-weight="300" letter-spacing="-0.99999994" fill="#ABABAB">
                                    <tspan x="561.592253" y="11">C</tspan>
                                </text>
                            </g>
                        </g>
                    </g>
                </g>
            </g>
        </g>
    </g>
</svg>