<?xml version="1.0" encoding="UTF-8" standalone="no"?>
<svg width="301px" height="201px" viewBox="0 0 301 201" version="1.1" xmlns="http://www.w3.org/2000/svg" xmlns:xlink="http://www.w3.org/1999/xlink">
    <!-- Generator: Sketch 43.1 (39012) - http://www.bohemiancoding.com/sketch -->
    <title>Drag_Pen up</title>
    <desc>Created with Sketch.</desc>
    <defs>
        <polygon id="path-1" points="119 185.704252 220.045676 173 302.889891 193.631808 201.844215 206.33606"></polygon>
        <filter x="0.0%" y="-0.0%" width="100.0%" height="100.0%" filterUnits="objectBoundingBox" id="filter-2">
            <feOffset dx="0" dy="0" in="SourceAlpha" result="shadowOffsetOuter1"></feOffset>
            <feColorMatrix values="0 0 0 0 0   0 0 0 0 0   0 0 0 0 0  0 0 0 0.5 0" type="matrix" in="shadowOffsetOuter1"></feColorMatrix>
        </filter>
        <linearGradient x1="0%" y1="50%" x2="100%" y2="50%" id="linearGradient-3">
            <stop stop-color="#EDC68C" offset="0%"></stop>
            <stop stop-color="#E99619" offset="100%"></stop>
        </linearGradient>
    </defs>
    <g id="YCH-WORKS" stroke="none" stroke-width="1" fill="none" fill-rule="evenodd">
        <g id="写字作图_插入文字" transform="translate(-2530.000000, -214.000000)">
            <g id="Popout_tips_pen-up" transform="translate(2384.000000, 150.000000)">
                <g id="Drag_Pen-up" transform="translate(144.000000, 58.000000)">
                    <g>
                        <g id="drag-uArm">
                            <g id="paper">
                                <use fill="black" fill-opacity="1" filter="url(#filter-2)" xlink:href="#path-1"></use>
                                <use fill="#ECECEC" fill-rule="evenodd" xlink:href="#path-1"></use>
                            </g>
                            <g id="Group-30" transform="translate(143.217600, 83.500000) scale(-1, 1) translate(-143.217600, -83.500000) translate(0.717600, 0.000000)">
                                <g id="Group" transform="translate(0.050742, 0.748750)">
                                    <path d="M223.629014,137.117414 C223.96722,137.171298 224.366471,137.231275 224.824729,137.295816 C226.13226,137.479969 227.651341,137.664026 229.365671,137.835752 C234.260919,138.326113 239.741323,138.620268 245.676525,138.620268 C251.610329,138.620268 257.089403,138.354241 261.983377,137.910777 C263.697175,137.755482 265.215739,137.589041 266.522767,137.42252 C266.980794,137.364166 267.379817,137.309942 267.717799,137.261231 C267.921391,137.231889 268.059863,137.210827 268.131175,137.199427 L268.490221,136.777109 L268.490221,124.382924 L267.917854,123.981289 C267.848324,124.006807 266.492076,122.739351 266.073494,122.814093 C265.35153,122.943006 264.736961,122.304879 263.35761,122.42639 C259.396836,122.775308 226.143356,122.942588 225.430001,122.814093 C225.017114,122.739721 223.581896,124.010292 223.515404,123.985371 L222.940315,124.383276 L222.862837,136.625107 L223.21501,137.048987 C223.286529,137.061625 223.425209,137.084944 223.629014,137.117414 Z" id="Path-12" fill="#666666" fill-rule="nonzero"></path>
                                    <rect id="Rectangle-12" fill="#383838" x="222.461277" y="121.652893" width="46.3048167" height="16.9256198"></rect>
                                    <path d="M277.913162,161.102489 L277.913162,135.71406 L214.77023,135.71406 L214.77023,161.102489 L209.848573,161.102489 L209.848573,165.333894 L283.515327,165.333894 L283.515327,161.102489 L277.913162,161.102489 Z" id="Combined-Shape" fill="#484848"></path>
                                    <path d="M215.714953,114.784556 C215.714953,115.020736 215.874558,115.212197 216.071441,115.212197 L232.978946,115.212197 C233.175829,115.212197 233.335434,115.020736 233.335434,114.784556 L233.335434,103.568137 C233.335434,103.331957 233.175829,103.140496 232.978946,103.140496 L216.071441,103.140496 C215.874558,103.140496 215.714953,103.331957 215.714953,103.568137 L215.714953,114.784556 Z" id="Path-18-Copy" fill="#474747" fill-rule="nonzero"></path>
                                    <path d="M249.460364,122.112934 C249.460364,121.340021 249.460364,123.036123 249.460364,119.944473 L249.460364,111.442435 L249.460364,100.033034 C249.460364,97.8928182 248.863989,96.3998695 247.876468,95.4789637 C247.533054,95.1587152 247.166909,94.9322994 246.800791,94.7825814 C246.579379,94.6920385 246.404264,94.6466259 246.297551,94.6309253 C246.253147,94.620586 246.138421,94.5951869 245.971906,94.5581901 C245.694322,94.4965161 245.372308,94.4246977 245.009568,94.3434669 C243.973109,94.111366 242.818175,93.8503958 241.574391,93.5664111 C238.020796,92.7550431 234.467234,91.9218591 231.150798,91.1137218 C230.923755,91.0583968 230.698438,91.0033358 230.474898,90.9485487 C226.573108,89.9922675 224.26571,91.1088302 223.234221,93.6094626 C222.988965,94.2040349 222.836588,94.8378466 222.758966,95.479395 C222.706821,95.9103733 222.694279,96.2874232 222.704252,96.5815334 C222.70649,96.6374499 222.706381,122.112934 222.706381,122.112934 L249.460364,122.112934 Z" id="Path-17-Copy" fill="#383838" fill-rule="nonzero"></path>
                                    <path d="M8.17761704,96 L18.8021651,98.7756697 C19.870774,99.0548444 21.6147472,99.122903 22.7017745,98.9269011 L35.9904353,96.5308218 C37.6163279,96.237657 40.2519087,96.2852886 41.8759043,96.6369358 L61.1618584,100.812965 C62.2436604,101.04721 63.9746973,101.537508 65.0081581,101.901015 L85.9571147,109.26954 C87.5216295,109.819838 88.4981961,111.57463 88.1373236,113.193526 L87.7228183,115.053023 C87.3623997,116.669883 85.7870583,117.584563 84.2020162,117.095345 L58.9099266,109.28903 L46.4246228,110.265942 C46.4246228,110.265942 57.3178714,112.10976 63.1206343,113.675301 C68.9233972,115.240843 85.9310001,120.831748 85.9310001,120.831748 C87.5099375,121.347928 88.5495492,123.085812 88.2516631,124.720966 L88.0502392,125.82662 C87.7529686,127.458396 86.2178196,128.409016 84.6302361,127.952434 L64.0768041,122.041365 C63.5487261,121.889492 62.6820199,121.699241 62.1297838,121.614717 L49.9378629,119.748635 C49.9378629,119.748635 59.7650122,122.768527 64.0232244,124.292359 C68.2814365,125.816191 80.0402058,129.237282 80.0402058,129.237282 C81.6312437,129.704413 82.3811027,131.317655 81.7206258,132.827839 L80.8633385,134.788031 C80.3100649,136.053094 78.7873975,136.731602 77.4824143,136.309998 L56.2882657,129.462751 L46.8686521,127.266039 L69.7600046,136.699539 C71.0316857,137.223597 71.6458354,138.687361 71.129363,139.974889 L70.780136,140.845487 C70.2647307,142.130354 68.7798802,142.803934 67.4813035,142.354862 C67.4813035,142.354862 56.8076032,138.68536 52.6167289,137.07863 C48.4258546,135.4719 43.8223749,133.593676 43.8223749,133.593676 L33.3646866,132.234514 C32.2681783,132.092004 30.567438,131.576228 29.5776613,131.088258 L13.3557855,123.0907 C11.8722382,122.359296 9.35988299,121.506722 7.72581341,121.182761 L0.492025421,119.748635" id="Path-2" stroke="#686868" fill="#FFF5F5" stroke-linejoin="round"></path>
                                    <path d="M243.127109,119.079975 L235.68377,119.079975 L183.056713,38.6484271 C183.056713,38.6484271 178.37133,31.3823834 181.650109,28.8272881 C184.928888,26.2721928 188.387987,26.3958046 188.387987,26.3958046 L238.008742,103.029383 L243.127109,119.079975 Z" id="Path-6" fill="#606060"></path>
                                    <path d="M180.500874,112.052769 L193.11785,116.190666 L243.648858,49.5570508 L243.367938,42.354641 L249.729503,33.1622083 C250.675151,31.7957504 250.32007,29.9490953 248.941398,29.040876 L246.556723,27.4699392 C245.175817,26.5602481 243.264298,26.8974548 242.273463,28.2417862 L180.500874,112.052769 Z" id="Combined-Shape" fill="#474747" fill-rule="nonzero" transform="translate(215.380076, 71.575275) rotate(-70.000000) translate(-215.380076, -71.575275) "></path>
                                    <g id="Group-7" transform="translate(188.282810, 22.326922) rotate(6.000000) translate(-188.282810, -22.326922) translate(168.282810, 8.826922)" fill-rule="nonzero">
                                        <path d="M23.470367,17.9394793 L23.0334921,18.8536161 L21.3656927,17.8903116 L19.4394044,18.3638633 L9.88764433,7.87071442 L3.94818407,3.42381059 L0.432483532,6.28035537 L18.1009031,23.586493 C18.153656,24.0961625 19.5634799,26.1782472 22.074034,26.1238498 C22.6496996,26.1113766 23.6135098,25.5955596 23.890847,24.3723017 C23.9340398,24.1817904 24.0636941,24.0447261 24.1016238,23.9555895 L23.936297,24.1473693 L37.8367632,13.3621916 L32.211135,10.6332522 L23.470367,17.9394793 Z" id="Path-20" fill="#474747"></path>
                                        <path d="M3.3774381,0.19790127 L1.86033638,4.03595609 L6.95417644,8.86214217 L8.7123024,6.55121183 L30.3330006,11.7694754 L30.2669526,14.1162237 C30.2669526,14.1162237 37.1117202,14.8701385 38.6425684,13.9071777 C39.9519135,13.0835506 37.2980505,8.44173328 37.2980505,8.44173328 L34.6667146,7.6537199 L3.3774381,0.19790127 Z" id="Path-21" fill="#474747"></path>
                                        <path d="M35.654079,11.7326358 C35.8582766,11.7572083 36.1372104,11.8175341 36.4077377,11.9310238 C36.7908853,12.0917593 36.9846506,12.2911892 36.9846506,12.5274855 C36.9846506,13.2011137 36.7531449,13.4207755 35.5880774,13.9575091 C35.3140531,14.0838079 35.3140531,14.0838079 35.0398316,14.2104253 C34.7462025,14.3461259 34.7462025,14.3461259 34.4528362,14.4819484 C32.1619615,15.5430341 29.7418053,16.6797955 27.3444154,17.8165418 C26.505352,18.214392 25.7290526,18.5838295 25.0345341,18.9153882 C24.7914283,19.0314453 24.2023286,19.3133563 24.1626917,19.3323759 L24.4886516,19.7078408 C24.3207355,19.4814398 23.120276,17.8928661 21.6789117,17.934509 C20.0249677,17.9822937 19.5612292,18.5904868 19.446426,18.6480503 L19.8922202,18.6011166 L10.2475677,8.65643354 C10.1626952,8.58249528 10.069642,8.48780355 9.97621924,8.35898554 C9.71376515,7.99709485 9.66046186,7.66144404 9.89807236,7.32845967 C10.0052844,7.17821401 10.1451328,7.08588838 10.3206116,7.03710132 C10.514704,6.98313926 10.7368022,6.98664105 10.9468568,7.0273205 C11.0030013,7.03819351 11.0412212,7.04823641 11.0557448,7.05288146 L35.654079,11.7326358 Z M11.1082892,6.18752786 C10.7801208,6.12397434 10.4325497,6.11849423 10.0931476,6.21285565 C9.73739017,6.31176423 9.43118325,6.51391714 9.20531814,6.83044167 C8.71707817,7.51465504 8.8312306,8.23347294 9.28729956,8.86233383 C9.4271322,9.05514519 9.56733437,9.1978161 9.66990724,9.2836672 L18.981906,18.856705 L19.1990684,19.0798806 L19.4771088,18.9404684 C19.5490225,18.9044101 19.6986542,18.8435951 19.9110924,18.7809763 C20.5376474,18.5962917 21.2300625,18.5448355 21.9352573,18.7068671 C22.4295792,18.8204467 22.8743304,19.0276655 23.268133,19.3020338 C23.4857744,19.4536679 23.6736354,19.6159173 23.8304807,19.7771337 C23.9215989,19.8707914 23.9800125,19.9402681 24.0047004,19.9735547 L24.2139983,20.2557506 L24.530221,20.1040119 C24.5695146,20.0851569 24.5695146,20.0851569 24.757143,19.995294 C25.0141825,19.8722946 25.157702,19.8036826 25.4005311,19.6877575 C26.0943979,19.35651 26.8700259,18.987392 27.7083869,18.5898748 C30.1036382,17.4541426 32.521571,16.3184255 34.809873,15.2585314 C35.1028531,15.1228877 35.1028531,15.1228877 35.3960769,14.9873744 C35.6699109,14.8609359 35.6699109,14.8609359 35.9435293,14.7348242 C37.3834425,14.0714722 37.8367632,13.6413437 37.8367632,12.5274855 C37.8367632,11.8689113 37.4015269,11.4209509 36.7363387,11.1418957 C36.3778644,10.9915111 36.0277968,10.915801 35.7817224,10.8875881 L11.2643872,6.22525605 C11.2695624,6.22361458 11.1993157,6.20515617 11.1082892,6.18752786 Z" id="Path-22" fill="#474747"></path>
                                        <path d="M24.0987066,21.9818616 C24.0987066,20.564785 23.3079139,19.4160174 22.3324216,19.4160174 C21.3569293,19.4160174 20.5661365,20.564785 20.5661365,21.9818616 C20.5661365,23.3989383 21.3569293,24.5477059 22.3324216,24.5477059 C23.3079139,24.5477059 24.0987066,23.3989383 24.0987066,21.9818616 Z M21.1548982,21.9818616 C21.1548982,21.0371439 21.6820934,20.2712988 22.3324216,20.2712988 C22.9827498,20.2712988 23.5099449,21.0371439 23.5099449,21.9818616 C23.5099449,22.9265794 22.9827498,23.6924245 22.3324216,23.6924245 C21.6820934,23.6924245 21.1548982,22.9265794 21.1548982,21.9818616 Z" id="Oval-2-Copy" fill="#FFFFFF" transform="translate(22.332422, 21.981862) rotate(-19.000000) translate(-22.332422, -21.981862) "></path>
                                    </g>
                                    <polygon id="Path-4" fill="#484848" transform="translate(230.558519, 63.610713) rotate(-11.000000) translate(-230.558519, -63.610713) " points="210.441561 20.5007351 246.045732 107.749548 250.675476 107.808762 214.793514 19.4126646"></polygon>
                                    <polygon id="Path-5" fill="#484848" transform="translate(216.174891, 43.924534) rotate(-7.000000) translate(-216.174891, -43.924534) " points="212.606272 34.9318278 210.741928 38.9271878 214.852866 48.6745335 221.607855 52.91724"></polygon>
                                    <path d="M210.426665,27.7480578 L206.508526,27.2879074 C206.508526,27.2879074 203.187891,26.5445741 203.849228,20.2839781 C195.743671,17.2757056 187.784613,14.0483637 187.784613,14.0483637 L188.558614,12.1004985 L206.508526,17.7990961 L207.302408,22.5068155 L210.426665,27.7480578 Z" id="Path-11" fill="#636363"></path>
                                    <path d="M189.157744,13.3841704 L207.828661,13.3841704 C207.828661,13.3841704 211.513378,13.4433962 212.8648,15.1986634 C214.216222,16.9539307 215.72683,22.5027219 213.335469,23.47052 C210.497314,24.6191379 208.927761,22.6276698 208.105471,21.9218427 C207.283181,21.2160155 205.979958,17.9849994 205.979958,17.9849994 L187.2622,18.3102673 L189.157744,13.3841704 Z" id="Rectangle-14" fill="#505050" transform="translate(200.928189, 18.602043) rotate(22.000000) translate(-200.928189, -18.602043) "></path>
                                    <path d="M208.933186,20.7654674 L215.269635,20.7654674 L215.269635,23.9390212 L208.933186,23.9390212 C208.933186,23.9390212 208.280148,23.5841714 208.280148,22.3522443 C208.280148,21.1203171 208.933186,20.7654674 208.933186,20.7654674 Z" id="Rectangle-10" fill="#4C4C4C"></path>
                                    <g id="Group-9" transform="translate(236.063280, 56.691016) rotate(-8.000000) translate(-236.063280, -56.691016) translate(213.063280, 12.191016)">
                                        <polygon id="Path-4" fill="#484848" points="3.4823025 7.94687224 40.5285318 88.3104503 45.9700367 88.3696652 8.5973089 6.8588017"></polygon>
                                        <path d="M6.50154535,12.8799492 C9.1261883,12.8799492 9.95957909,8.78798101 9.85341423,6.54903698 C9.74724938,4.31009294 8.01860762,1.88839894 5.75098917,1.89153808 C3.48337072,1.89467722 1.7492089,4.25899591 1.7492089,7.32623022 C1.7492089,10.3934645 3.87690241,12.8799492 6.50154535,12.8799492 Z" id="Oval-4" fill="#484848" transform="translate(5.805736, 7.385742) rotate(-17.000000) translate(-5.805736, -7.385742) "></path>
                                        <path d="M8.68255378,7.29339645 C8.68255378,5.8763198 7.89176102,4.72755219 6.91626871,4.72755219 C5.94077641,4.72755219 5.14998365,5.8763198 5.14998365,7.29339645 C5.14998365,8.7104731 5.94077641,9.8592407 6.91626871,9.8592407 C7.89176102,9.8592407 8.68255378,8.7104731 8.68255378,7.29339645 Z M5.73874534,7.29339645 C5.73874534,6.34867868 6.26594051,5.58283361 6.91626871,5.58283361 C7.56659692,5.58283361 8.09379209,6.34867868 8.09379209,7.29339645 C8.09379209,8.23811422 7.56659692,9.00395929 6.91626871,9.00395929 C6.26594051,9.00395929 5.73874534,8.23811422 5.73874534,7.29339645 Z" id="Oval-2-Copy-4" fill="#FFFFFF" fill-rule="nonzero" transform="translate(6.916269, 7.293396) rotate(-13.000000) translate(-6.916269, -7.293396) "></path>
                                    </g>
                                    <polygon id="Path-7" fill="#606060" points="187.774817 7.36045808 181.986145 8.76030364 111.511317 103.817994 120.095552 103.817994"></polygon>
                                    <path d="M121.228928,107.495118 L131.380789,110.498838 L186.395669,16.9663996 L185.284311,10.0247118 L187.655279,5.69892738 C187.922788,5.21086137 187.697189,4.756922 187.144625,4.68413432 L182.391197,4.05797943 C181.841661,3.98559071 181.172291,4.31228772 180.894097,4.79115337 L121.228928,107.495118 Z" id="Combined-Shape" fill="#474747" fill-rule="nonzero" transform="translate(154.498308, 57.273388) rotate(6.000000) translate(-154.498308, -57.273388) "></path>
                                    <path d="M266.235895,121.950523 C266.235895,121.177611 266.235895,122.873713 266.235895,119.782062 L266.235895,111.280024 L266.235895,99.8706235 C266.235895,97.7304075 265.63952,96.2374588 264.651999,95.316553 C264.308585,94.9963045 263.94244,94.7698888 263.576322,94.6201707 C263.35491,94.5296278 263.179795,94.4842152 263.073082,94.4685146 C263.028679,94.4581754 262.913952,94.4327762 262.747437,94.3957795 C262.469853,94.3341054 262.147839,94.2622871 261.785099,94.1810562 C260.74864,93.9489554 259.593706,93.6879851 258.349922,93.4040004 C254.796327,92.5926324 251.242765,91.7594484 247.926329,90.9513111 C247.699286,90.8959861 247.473969,90.8409251 247.250429,90.786138 C243.34864,89.8298568 241.041241,90.9464195 240.009752,93.4470519 C239.764496,94.0416242 239.612119,94.6754359 239.534497,95.3169843 C239.482353,95.7479626 239.46981,96.1250125 239.479783,96.4191227 C239.482021,96.4750392 239.481912,121.950523 239.481912,121.950523 L266.235895,121.950523 Z" id="Path-17" fill="#383838" fill-rule="nonzero"></path>
                                    <path d="M244.228972,114.784556 C244.228972,115.020736 244.388577,115.212197 244.58546,115.212197 L261.492965,115.212197 C261.689848,115.212197 261.849453,115.020736 261.849453,114.784556 L261.849453,103.568137 C261.849453,103.331957 261.689848,103.140496 261.492965,103.140496 L244.58546,103.140496 C244.388577,103.140496 244.228972,103.331957 244.228972,103.568137 L244.228972,114.784556 Z" id="Path-18-Copy" fill="#474747" fill-rule="nonzero"></path>
                                    <path d="M260.070093,114.784556 C260.070093,115.020736 260.232091,115.212197 260.431925,115.212197 L277.592888,115.212197 C277.792722,115.212197 277.95472,115.020736 277.95472,114.784556 L277.95472,103.568137 C277.95472,103.331957 277.792722,103.140496 277.592888,103.140496 L260.431925,103.140496 C260.232091,103.140496 260.070093,103.331957 260.070093,103.568137 L260.070093,114.784556 Z" id="Path-18" fill="#656565" fill-rule="nonzero"></path>
                                    <path d="M267.067671,109.37518 C267.067671,109.43727 267.146589,109.487603 267.243939,109.487603 L275.604018,109.487603 C275.701369,109.487603 275.780287,109.43727 275.780287,109.37518 L275.780287,106.426473 C275.780287,106.364383 275.701369,106.31405 275.604018,106.31405 L267.243939,106.31405 C267.146589,106.31405 267.067671,106.364383 267.067671,106.426473 L267.067671,109.37518 Z" id="Path-18" fill="#FF7439" fill-rule="nonzero"></path>
                                    <polygon id="Path-10" fill="#383838" points="94.4728479 110.92407 88.3545153 110.92407 88.3545153 105.252804 94.0070997 95.9519007"></polygon>
                                    <polygon id="Path-8" fill="#484848" points="103.743139 88.6875756 95.9005728 88.6875756 95.9005728 103.823571"></polygon>
                                    <path d="M120.524622,110.912144 L121.376253,110.912144 L121.766697,110.912144 L121.766697,110.422962 L121.766697,109.005646 L121.376253,109.494827 L122.65805,109.494827 C122.876635,109.504413 123.134299,109.491976 123.430917,109.443106 C123.877308,109.369561 124.319307,109.226491 124.736241,108.99575 C126.074347,108.25521 126.889353,106.776393 126.889353,104.458243 C126.889353,102.15071 126.097459,100.620078 124.793307,99.7748449 C124.342761,99.4828418 123.863812,99.2954982 123.385463,99.1903316 C123.097038,99.1269203 122.869277,99.1047149 122.730704,99.1039215 C122.290095,99.1039164 122.290095,99.1039164 120.534799,99.1039164 L115.707733,99.1039164 L113.391676,99.1039164 C111.728996,99.1039164 110.726192,98.5154185 110.202736,97.5558241 C109.908875,97.0171197 109.813341,96.4673461 109.819906,96.0890955 C109.819938,96.0876809 109.521779,85.6859504 109.521779,85.6859504 C109.521779,85.6859504 107.373575,87.424777 106.283571,87.5263677 C105.293864,87.6186106 103.282647,86.2674511 103.282647,86.2674511 L92.5446492,109.93378 L120.98581,110.422962 L121.376253,109.93378 L92.5446492,109.93378 L92.9350928,110.422962 L103.910635,86.2674511 L103.282647,85.6859504 L92.5446492,103.978522 L92.5446492,110.912144 L114.448691,110.912144 L114.448691,112.441961 L114.448691,112.869601 L114.874747,112.869601 L119.527616,112.869601 L119.63276,112.869601 L119.725833,112.820502 L120.296783,112.519306 L120.524622,112.399113 L120.524622,112.140765 L120.524622,110.912144 Z" id="Combined-Shape" fill="#474747" fill-rule="nonzero"></path>
                                    <polyline id="Path-9" fill="#656565" points="113.727233 88.6739317 92.337831 88.7917597 92.337831 104.477921 113.727233 104.477921"></polyline>
                                    <path d="M120.98581,110.422962 L92.5446492,104.458243 L95.787925,99.1903316 C95.787925,99.1903316 111.728996,99.1039164 113.391676,99.1039164 L115.707733,99.1039164 L120.534799,99.1039164 C122.290095,99.1039164 122.290095,99.1039164 122.730704,99.1039215 C122.869277,99.1047149 123.097038,99.1269203 123.385463,99.1903316 C123.863812,99.2954982 124.342761,99.4828418 124.793307,99.7748449 C126.097459,100.620078 126.889353,102.15071 126.889353,104.458243 C126.889353,106.776393 126.074347,108.25521 124.736241,108.99575 C124.319307,109.226491 123.877308,109.369561 123.430917,109.443106 C123.134299,109.491976 122.876635,109.504413 122.65805,109.494827 L121.376253,109.494827 L121.766697,109.005646 L92.9350928,110.422962 L92.5446492,109.93378 L121.376253,109.93378 L120.98581,110.422962 Z M114.448691,112.441961 L114.448691,110.818816 L120.524622,110.515864 L120.524622,112.140765 L120.524622,112.399113 L120.296783,112.519306 L119.725833,112.820502 L119.63276,112.869601 L119.527616,112.869601 L114.874747,112.869601 L114.448691,112.869601 L114.448691,112.441961 Z" id="Combined-Shape" fill="#474747" fill-rule="nonzero"></path>
                                    <path d="M101.610581,111.920881 L101.610581,110.00907 L106.974168,110.274275 L106.974168,111.920881 L111.72944,111.920881 L112.155496,111.920881 L112.155496,112.348521 L112.155496,113.849695 L112.155496,114.277336 L111.72944,114.277336 L92.5802619,114.277336 L92.1542056,114.277336 L92.1542056,113.849695 L92.1542056,112.348521 L92.1542056,111.920881 L92.5802619,111.920881 L101.610581,111.920881 Z" id="Combined-Shape" fill="#474747" fill-rule="nonzero"></path>
                                    <path d="M125.640726,104.306435 C125.640726,102.889359 124.647802,101.740591 123.422969,101.740591 C122.198136,101.740591 121.205212,102.889359 121.205212,104.306435 C121.205212,105.723512 122.198136,106.872279 123.422969,106.872279 C124.647802,106.872279 125.640726,105.723512 125.640726,104.306435 Z M121.944464,104.306435 C121.944464,103.361717 122.606413,102.595872 123.422969,102.595872 C124.239524,102.595872 124.901474,103.361717 124.901474,104.306435 C124.901474,105.251153 124.239524,106.016998 123.422969,106.016998 C122.606413,106.016998 121.944464,105.251153 121.944464,104.306435 Z" id="Oval-2-Copy-3" fill="#FFFFFF" fill-rule="nonzero"></path>
                                    <g id="Group-8" transform="translate(138.054490, 47.055077) rotate(-2.000000) translate(-138.054490, -47.055077) translate(99.554490, 6.555077)" fill-rule="nonzero" fill="#474747">
                                        <path d="M4.66308456,72.0760201 L5.04177332,71.9457314 C4.11014372,71.8625152 3.09435735,72.1133378 2.12716493,72.9530375 C1.88708865,73.1614676 1.66327017,73.4053821 1.44433996,73.6746339 C0.38290656,74.9800399 0.459734653,78.2329763 2.91865388,80.0841073 C4.82693976,81.5207088 7.58431061,80.7826403 8.69608464,79.4144418 C9.8245295,78.0257275 9.44802745,76.6358435 9.44802745,76.6358435 L72.8175712,8.28533547 C72.8175712,8.28533547 73.8291721,8.54718498 74.3795492,8.1759276 C74.7918224,7.89782837 75.1664222,7.55790809 75.4938126,7.15131159 C77.0596654,5.20662954 76.8732903,2.06191579 74.9883504,1.07405764 C73.1034105,0.0861994811 71.0389371,0.289515788 69.7314816,1.6181445 C69.3473714,2.00847516 68.9117229,2.75768702 68.9738221,3.53571632 C68.9777804,3.58530904 4.66308456,72.0760201 4.66308456,72.0760201 Z" id="Path-23"></path>
                                    </g>
                                </g>
                            </g>
                        </g>
                        <g id="pen-up" transform="translate(188.000000, 65.000000)">
                            <g id="Pencil" transform="translate(25.769688, 48.797521) scale(-1, 1) translate(-25.769688, -48.797521) translate(22.269688, 0.297521)">
                                <ellipse id="Oval" fill="#D65757" cx="3.1682243" cy="3.17355372" rx="3.1682243" ry="3.17355372"></ellipse>
                                <rect id="pencile" fill="url(#linearGradient-3)" x="4.20508073e-12" y="4.76033058" width="6.3364486" height="85.6859504"></rect>
                                <polygon id="Triangle" fill="#FCEBB7" transform="translate(3.168224, 93.619835) scale(1, -1) translate(-3.168224, -93.619835) " points="3.1682243 90.446281 6.3364486 96.7933884 4.20508073e-12 96.7933884"></polygon>
                                <polygon id="Triangle" fill="#4F4F4F" points="3.16820116 96.788852 3.96025723 95.2020751 2.37614508 95.2020751"></polygon>
                                <rect id="pencile" fill="#F3F3F3" x="4.20508073e-12" y="3.17355372" width="6.3364486" height="2.38016529"></rect>
                            </g>
                            <g id="cliper" transform="translate(27.615482, 57.834711) scale(-1, 1) translate(-27.615482, -57.834711) translate(0.615482, 50.834711)" fill="#484848">
                                <rect id="Rectangle" x="7.92056075" y="0.688326191" width="46.0239976" height="12.6942149" rx="1"></rect>
                                <rect id="Rectangle" x="0.309563118" y="4.47831751" width="7.60373862" height="6.04796098"></rect>
                            </g>
                            <rect id="screw" fill="#9E9E9E" x="2.15453241" y="49.9410338" width="1.58411215" height="1.58677686"></rect>
                        </g>
                        <path d="M235.913886,98 L246.769912,103.304289 C247.763933,103.789971 249.225311,104.791925 250.031839,105.540222 L260.891769,115.61605 C261.69926,116.365239 261.547934,117.362763 260.556229,117.842892 L259.170295,118.513885 C257.678407,119.236176 255.220741,119.33957 253.670699,118.740865 L240.045463,113.47811 C239.530087,113.279046 238.684915,113.237269 238.14363,113.388742 L227.266781,116.43251 C226.200916,116.730781 224.444671,116.888052 223.339976,116.783394 L217,116.182749" id="Path-3" stroke="#686868" fill="#FFF5F5" stroke-linecap="round" transform="translate(239.254875, 108.602931) scale(-1, 1) translate(-239.254875, -108.602931) "></path>
                        <path d="M110.202696,112.98644 L118.16882,112.98644 L118.16882,118.055792 L110.202696,118.055792 L110.202696,119.95008 C110.202696,120.503736 109.852275,120.660545 109.429432,120.308176 L104.458224,116.165503 C104.031161,115.809618 104.035381,115.229098 104.458224,114.876728 L109.429432,110.734055 C109.856494,110.37817 110.202696,110.52896 110.202696,111.092152 L110.202696,112.98644 Z M119.617206,112.98644 L121.065592,112.98644 L121.065592,118.055792 L119.617206,118.055792 L119.617206,112.98644 Z M122.513978,112.98644 L123.962364,112.98644 L123.962364,118.055792 L122.513978,118.055792 L122.513978,112.98644 Z M125.410751,112.98644 L126.859137,112.98644 L126.859137,118.055792 L125.410751,118.055792 L125.410751,112.98644 Z" id="Green-Arrow_forward" fill="#52BF53" transform="translate(115.434574, 115.521156) scale(-1, 1) translate(-115.434574, -115.521156) "></path>
                    </g>
                </g>
            </g>
        </g>
    </g>
</svg>