<?xml version="1.0" encoding="UTF-8" standalone="no"?>
<svg width="363px" height="195px" viewBox="0 0 363 195" version="1.1" xmlns="http://www.w3.org/2000/svg" xmlns:xlink="http://www.w3.org/1999/xlink">
    <!-- Generator: Sketch 43.1 (39012) - http://www.bohemiancoding.com/sketch -->
    <title>Drag_laser down</title>
    <desc>Created with Sketch.</desc>
    <defs>
        <polygon id="path-1" points="139.3 155.822935 262.575725 140.337278 363.645667 165.486109 240.369942 180.971766"></polygon>
        <filter x="0.0%" y="0.0%" width="100.0%" height="100.0%" filterUnits="objectBoundingBox" id="filter-2">
            <feOffset dx="0" dy="0" in="SourceAlpha" result="shadowOffsetOuter1"></feOffset>
            <feColorMatrix values="0 0 0 0 0   0 0 0 0 0   0 0 0 0 0  0 0 0 0.5 0" type="matrix" in="shadowOffsetOuter1"></feColorMatrix>
        </filter>
    </defs>
    <g id="YCH-WORKS" stroke="none" stroke-width="1" fill="none" fill-rule="evenodd">
        <g id="写字作图_插入文字" transform="translate(-1814.000000, -1116.000000)">
            <g id="Popout_tips_laser-head-down" transform="translate(1689.000000, 1029.000000)">
                <g id="Drag_laser-down" transform="translate(124.000000, 80.000000)">
                    <g>
                        <g id="drag-uArm">
                            <g id="paper" transform="translate(251.472834, 160.654522) rotate(-1.000000) translate(-251.472834, -160.654522) ">
                                <use fill="black" fill-opacity="1" filter="url(#filter-2)" xlink:href="#path-1"></use>
                                <use fill="#ECECEC" fill-rule="evenodd" xlink:href="#path-1"></use>
                            </g>
                            <g id="Group-30" transform="translate(182.075472, 101.000000) scale(-1, 1) translate(-182.075472, -101.000000) translate(0.575472, 0.000000)">
                                <g id="Group" transform="translate(0.061906, 0.912678)">
                                    <path d="M288.827397,166.137203 C289.240008,166.202884 289.727095,166.275992 290.286169,166.354663 C291.881358,166.579134 293.734636,166.803488 295.826118,167.01281 C301.798322,167.610529 308.484414,167.969084 315.72536,167.969084 C322.964601,167.969084 329.649072,167.644814 335.619719,167.10426 C337.710554,166.914966 339.563202,166.712085 341.157776,166.509108 C341.716569,166.437977 342.203377,166.371882 342.615715,166.312507 C342.864098,166.27674 343.033032,166.251067 343.120033,166.237172 L343.558069,165.722393 L343.558069,150.614688 L342.859782,150.125122 C342.774955,150.156226 341.120333,148.61128 340.609663,148.702385 C339.728866,148.859522 338.979092,148.081687 337.296284,148.229801 C332.46414,148.65511 291.894895,148.859013 291.024601,148.702385 C290.520879,148.61173 288.769913,150.160474 288.688793,150.130097 L287.987185,150.615118 L287.892661,165.537113 L288.322312,166.053794 C288.409565,166.0692 288.578755,166.097624 288.827397,166.137203 Z" id="Path-12" fill="#666666" fill-rule="nonzero"></path>
                                    <rect id="Rectangle-12" fill="#383838" x="287.402758" y="147.286958" width="56.4918763" height="20.6312289"></rect>
                                    <path d="M355.054057,195.373448 L355.054057,164.426605 L278.01968,164.426605 L278.01968,195.373448 L272.015259,195.373448 L272.015259,200.531256 L361.888699,200.531256 L361.888699,195.373448 L355.054057,195.373448 Z" id="Combined-Shape" fill="#484848"></path>
                                    <path d="M279.172243,138.914903 C279.172243,139.20279 279.366961,139.436169 279.607158,139.436169 L300.234315,139.436169 C300.474512,139.436169 300.66923,139.20279 300.66923,138.914903 L300.66923,125.242817 C300.66923,124.95493 300.474512,124.721551 300.234315,124.721551 L279.607158,124.721551 C279.366961,124.721551 279.172243,124.95493 279.172243,125.242817 L279.172243,138.914903 Z" id="Path-18-Copy" fill="#474747" fill-rule="nonzero"></path>
                                    <path d="M320.341644,147.847718 C320.341644,146.905588 320.341644,148.973026 320.341644,145.204506 L320.341644,134.841074 L320.341644,120.933758 C320.341644,118.324974 319.614066,116.505166 318.409291,115.382642 C317.990326,114.99228 317.543629,114.716294 317.096965,114.533797 C316.826842,114.423432 316.613202,114.368077 316.483012,114.348938 C316.42884,114.336336 316.288874,114.305376 316.085725,114.260279 C315.747073,114.185102 315.354216,114.097561 314.911673,113.998545 C313.647193,113.71563 312.238173,113.397524 310.720757,113.051365 C306.385371,112.06236 302.050025,111.046763 298.003973,110.061696 C297.726981,109.994259 297.452095,109.927143 297.179375,109.860361 C292.419192,108.694717 289.604166,110.055734 288.34575,113.103842 C288.046538,113.828587 287.860638,114.601162 287.765939,115.383168 C287.702322,115.908502 287.687021,116.368102 287.699187,116.726603 C287.701918,116.794761 287.701784,147.847718 287.701784,147.847718 L320.341644,147.847718 Z" id="Path-17-Copy" fill="#383838" fill-rule="nonzero"></path>
                                    <path d="M9.97669279,78.1360947 L23.3585975,81.6290733 C24.430365,81.9088288 26.1831992,81.9763614 27.2693711,81.7806846 L44.5518507,78.6672001 C46.1800336,78.3738787 48.805899,78.4186306 50.4370798,78.7715254 L75.04827,84.0959866 C76.1301427,84.3300423 77.8448153,84.8141543 78.8956381,85.183445 L105.489335,94.5292681 C107.054712,95.0793887 108.031979,96.8328901 107.671372,98.4491836 L106.878001,102.00519 C106.517729,103.619979 104.941595,104.533044 103.355627,104.043968 L71.8701104,94.3345578 L56.6380398,95.5253495 C56.6380398,95.5253495 69.9278031,97.7728436 77.0071738,99.6811367 C84.0865445,101.58943 105.476947,108.613271 105.476947,108.613271 C107.049166,109.127093 108.083512,110.860926 107.787154,112.48627 L107.301167,115.151616 C107.00484,116.776792 105.466845,117.721349 103.884312,117.266618 L77.9635542,109.818439 C77.4353599,109.666666 76.560237,109.475281 76.0253215,109.393479 L60.9241928,107.084135 C60.9241928,107.084135 72.9133149,110.765187 78.1083337,112.622639 C83.3033526,114.480091 98.2918169,118.83948 98.2918169,118.83948 C99.8778934,119.304334 100.628876,120.902897 99.9621069,122.426137 L98.4313499,125.923165 C97.8789209,127.185194 96.3734185,127.866865 95.0531182,127.440685 L68.6716841,118.92501 L57.1797555,116.247362 L85.6061153,127.951604 C86.882026,128.476946 87.4999169,129.940066 86.9860943,131.21987 L86.1434944,133.318576 C85.6297251,134.598248 84.1499633,135.269328 82.847042,134.819424 C82.847042,134.819424 69.3052759,130.166771 64.1924092,128.208271 C59.0795426,126.249772 53.4632974,123.960339 53.4632974,123.960339 L40.2673196,122.246785 C39.1712582,122.104457 37.4707014,121.589091 36.4859234,121.104009 L15.70881,110.869613 C14.222106,110.137292 11.6998532,109.282748 10.0743279,108.960763 L0.600271014,107.084135" id="Path-2" stroke="#686868" fill="#FFF5F5" stroke-linejoin="round"></path>
                                    <path d="M312.615073,144.150738 L303.534199,144.150738 L239.32919,46.109917 C239.32919,46.109917 233.613023,37.2530828 237.613133,34.1385879 C241.613243,31.024093 245.833345,31.1747677 245.833345,31.1747677 L306.370666,124.586112 L312.615073,144.150738 Z" id="Path-6" fill="#606060"></path>
                                    <path d="M236.008622,135.542848 L251.401332,140.586676 L313.049162,59.364636 L312.70644,50.5853672 L320.851988,38.8253613 C321.793359,37.4662721 321.433565,35.6254158 320.046658,34.7125694 L316.05616,32.0860696 C314.670017,31.1737265 312.753653,31.5086614 311.762539,32.8521979 L236.008622,135.542848 Z" id="Combined-Shape" fill="#474747" fill-rule="nonzero" transform="translate(278.692593, 86.079949) rotate(-70.000000) translate(-278.692593, -86.079949) "></path>
                                    <g id="Group-7" transform="translate(245.354845, 25.720128) rotate(6.000000) translate(-245.354845, -25.720128) translate(221.354845, 9.720128)" fill-rule="nonzero">
                                        <path d="M28.6338478,21.8670576 L28.1008604,22.9813309 L26.066145,21.8071253 L23.7160733,22.384354 L12.0629261,9.59388858 L4.81678457,4.17340226 L0.52762991,7.65534442 L22.0831018,28.7503997 C22.1474603,29.3716536 23.8674454,31.9095794 26.9303215,31.8432726 C27.6326335,31.8280685 28.8084819,31.1993211 29.1468334,29.7082494 C29.1995286,29.4760285 29.3577069,29.3089561 29.4039811,29.2003044 L29.2022823,29.4340714 L46.1608511,16.2876419 L39.2975847,12.9612423 L28.6338478,21.8670576 Z" id="Path-20" fill="#474747"></path>
                                        <path d="M4.12047449,0.241228767 L2.26961038,4.91956778 L8.48409526,10.8023745 L10.6290089,7.98550081 L37.0062607,14.3462245 L36.9256822,17.2067579 C36.9256822,17.2067579 45.2762986,18.125731 47.1439335,16.9519444 C48.7413345,15.9479966 45.5036216,10.2899234 45.5036216,10.2899234 L42.2933919,9.32938638 L4.12047449,0.241228767 Z" id="Path-21" fill="#474747"></path>
                                        <path d="M43.4979763,14.3013193 C43.7470975,14.3312717 44.0873967,14.4048048 44.4174399,14.5431414 C44.8848801,14.7390675 45.1212737,14.9821596 45.1212737,15.2701894 C45.1212737,16.0912984 44.8388367,16.3590517 43.4174545,17.0132951 C43.0831448,17.1672451 43.0831448,17.1672451 42.7485946,17.3215835 C42.390367,17.4869937 42.390367,17.4869937 42.0324602,17.6525525 C39.237593,18.9459469 36.2850024,20.3315851 33.3601868,21.7172047 C32.3365295,22.2021583 31.3894442,22.6524786 30.5421316,23.056627 C30.2455425,23.1980931 29.5268409,23.5417242 29.4784839,23.5649079 L29.876155,24.0225752 C29.6712973,23.7466071 28.2067367,21.8102391 26.4482723,21.8609991 C24.4304606,21.9192455 23.8646996,22.6605934 23.7246397,22.7307595 L24.2685086,22.6735504 L12.5020326,10.551629 C12.3984881,10.4615031 12.2849632,10.3460801 12.1709875,10.1890593 C11.8507935,9.7479381 11.7857635,9.33880161 12.0756483,8.93291534 C12.206447,8.74977566 12.377062,8.63723672 12.5911461,8.57776848 C12.8279389,8.51199223 13.0988986,8.51626069 13.3551653,8.56584629 C13.4236615,8.57909978 13.4702899,8.59134143 13.4880086,8.59700343 L43.4979763,14.3013193 Z M13.5521129,7.54219372 C13.1517474,7.46472612 12.7277107,7.45804622 12.3136401,7.57306665 C11.879616,7.69362977 11.5060436,7.94004101 11.2304881,8.32586381 C10.6348354,9.15987537 10.7741013,10.0360676 11.3305055,10.8026081 C11.5011013,11.0376326 11.6721479,11.2115392 11.7972868,11.3161861 L23.1579253,22.985096 L23.4228634,23.2571326 L23.7620727,23.0871981 C23.8498075,23.0432454 24.0323582,22.9691159 24.2915328,22.8927877 C25.0559298,22.6676692 25.9006763,22.6049474 26.7610139,22.8024534 C27.3640867,22.9408996 27.9066831,23.1934857 28.3871223,23.5279229 C28.6526447,23.712755 28.8818352,23.9105264 29.0731864,24.1070388 C29.1843506,24.2212013 29.2556153,24.3058889 29.2857345,24.3464632 L29.5410779,24.6904416 L29.9268696,24.5054819 C29.9748078,24.4824989 29.9748078,24.4824989 30.2037145,24.3729619 C30.5173027,24.2230337 30.6923964,24.1394 30.9886479,23.998095 C31.8351654,23.5943258 32.7814316,23.144395 33.804232,22.6598474 C36.7264386,21.2754637 39.6763166,19.8910986 42.4680451,18.5991566 C42.8254807,18.4338158 42.8254807,18.4338158 43.1832139,18.2686339 C43.5172913,18.1145136 43.5172913,18.1145136 43.8511057,17.9607916 C45.6077998,17.1522087 46.1608511,16.62791 46.1608511,15.2701894 C46.1608511,14.4674304 45.6298628,13.9213958 44.8183332,13.5812457 C44.3809946,13.3979366 43.953912,13.305651 43.6537014,13.2712612 L13.7425524,7.58818193 C13.7488661,7.58618109 13.6631652,7.56368148 13.5521129,7.54219372 Z" id="Path-22" fill="#474747"></path>
                                        <path d="M29.4004221,26.7944586 C29.4004221,25.0671344 28.4356549,23.6668614 27.2455543,23.6668614 C26.0554537,23.6668614 25.0906865,25.0671344 25.0906865,26.7944586 C25.0906865,28.5217828 26.0554537,29.9220557 27.2455543,29.9220557 C28.4356549,29.9220557 29.4004221,28.5217828 29.4004221,26.7944586 Z M25.8089758,26.7944586 C25.8089758,25.6429091 26.4521539,24.7093938 27.2455543,24.7093938 C28.0389547,24.7093938 28.6821328,25.6429091 28.6821328,26.7944586 C28.6821328,27.946008 28.0389547,28.8795233 27.2455543,28.8795233 C26.4521539,28.8795233 25.8089758,27.946008 25.8089758,26.7944586 Z" id="Oval-2-Copy" fill="#FFFFFF" transform="translate(27.245554, 26.794459) rotate(-19.000000) translate(-27.245554, -26.794459) "></path>
                                    </g>
                                    <polygon id="Path-4" fill="#484848" transform="translate(297.281393, 76.537319) rotate(-11.000000) translate(-297.281393, -76.537319) " points="272.738705 23.9890617 316.175793 130.339685 321.824081 130.411864 278.048087 22.6627745"></polygon>
                                    <polygon id="Path-5" fill="#484848" transform="translate(279.733367, 52.541148) rotate(-7.000000) translate(-279.733367, -52.541148) " points="275.379652 41.5796245 273.105152 46.4497082 278.120497 58.3310881 286.361583 63.5026712"></polygon>
                                    <path d="M272.720531,32.8230764 L267.940401,32.262183 C267.940401,32.262183 263.889227,31.3561081 264.696058,23.7248491 C254.807279,20.0579606 245.097228,16.124041 245.097228,16.124041 L246.041509,13.7497201 L267.940401,20.6959396 L268.908938,26.4343432 L272.720531,32.8230764 Z" id="Path-11" fill="#636363"></path>
                                    <path d="M246.772448,15.3144326 L269.550967,15.3144326 C269.550967,15.3144326 274.046322,15.386625 275.695056,17.5261815 C277.343791,19.665738 279.186733,26.4293533 276.269272,27.6090362 C272.806723,29.0091267 270.891869,26.5816567 269.888675,25.7212993 C268.885481,24.860942 267.295549,20.9225436 267.295549,20.9225436 L244.459884,21.319024 L246.772448,15.3144326 Z" id="Rectangle-14" fill="#505050" transform="translate(261.132391, 21.674679) rotate(22.000000) translate(-261.132391, -21.674679) "></path>
                                    <path d="M270.898487,24.3117532 L278.628954,24.3117532 L278.628954,28.1801086 L270.898487,28.1801086 C270.898487,28.1801086 270.101781,27.7475699 270.101781,26.2459309 C270.101781,24.7442919 270.898487,24.3117532 270.898487,24.3117532 Z" id="Rectangle-10" fill="#4C4C4C"></path>
                                    <g id="Group-9" transform="translate(304.468742, 68.296314) rotate(-8.000000) translate(-304.468742, -68.296314) translate(275.968742, 14.796314)">
                                        <polygon id="Path-4" fill="#484848" points="4.24840904 8.68672001 49.4448088 106.644691 56.0834447 106.71687 10.4887169 7.36043284"></polygon>
                                        <path d="M7.93188533,14.6998198 C11.1339497,14.6998198 12.1506865,9.71197685 12.0211654,6.98284981 C11.8916442,4.25372276 9.7827013,1.3018354 7.01620679,1.3056618 C4.24971228,1.30948821 2.13403486,4.1914388 2.13403486,7.93019778 C2.13403486,11.6689568 4.72982093,14.6998198 7.93188533,14.6998198 Z" id="Oval-4" fill="#484848" transform="translate(7.082998, 8.002739) rotate(-17.000000) translate(-7.082998, -8.002739) "></path>
                                        <path d="M10.5927156,7.89017555 C10.5927156,6.16285135 9.62794844,4.76257841 8.43784783,4.76257841 C7.24774722,4.76257841 6.28298006,6.16285135 6.28298006,7.89017555 C6.28298006,9.61749976 7.24774722,11.0177727 8.43784783,11.0177727 C9.62794844,11.0177727 10.5927156,9.61749976 10.5927156,7.89017555 Z M7.00126931,7.89017555 C7.00126931,6.73862608 7.64444742,5.80511079 8.43784783,5.80511079 C9.23124824,5.80511079 9.87442635,6.73862608 9.87442635,7.89017555 C9.87442635,9.04172502 9.23124824,9.97524031 8.43784783,9.97524031 C7.64444742,9.97524031 7.00126931,9.04172502 7.00126931,7.89017555 Z" id="Oval-2-Copy-4" fill="#FFFFFF" fill-rule="nonzero" transform="translate(8.437848, 7.890176) rotate(-13.000000) translate(-8.437848, -7.890176) "></path>
                                    </g>
                                    <polygon id="Path-7" fill="#606060" points="245.085276 7.97191932 238.023097 9.67823994 152.043806 125.547378 162.516573 125.547378"></polygon>
                                    <path d="M163.894604,130.039004 L176.279326,133.699083 L243.40866,19.6805616 L242.053715,11.2191293 L245.053397,5.7516399 C245.320954,5.26396712 245.095542,4.81046138 244.545505,4.73812511 L238.303382,3.91721306 C237.755324,3.84513708 237.087209,4.17161537 236.812956,4.64324219 L163.894604,130.039004 Z" id="Combined-Shape" fill="#474747" fill-rule="nonzero" transform="translate(204.530267, 68.803162) rotate(6.000000) translate(-204.530267, -68.803162) "></path>
                                    <path d="M340.807792,147.64975 C340.807792,146.70762 340.807792,148.775058 340.807792,145.006538 L340.807792,134.643106 L340.807792,120.73579 C340.807792,118.127006 340.080214,116.307198 338.875439,115.184674 C338.456474,114.794312 338.009777,114.518326 337.563113,114.335829 C337.29299,114.225464 337.07935,114.170108 336.94916,114.15097 C336.894988,114.138368 336.755022,114.107408 336.551873,114.062311 C336.213221,113.987134 335.820364,113.899593 335.377821,113.800577 C334.113341,113.517662 332.704321,113.199556 331.186904,112.853397 C326.851519,111.864392 322.516173,110.848795 318.470121,109.863728 C318.193129,109.796291 317.918242,109.729175 317.645523,109.662393 C312.88534,108.496749 310.070314,109.857766 308.811898,112.905874 C308.512685,113.630619 308.326786,114.403194 308.232087,115.1852 C308.16847,115.710534 308.153168,116.170134 308.165335,116.528635 C308.168066,116.596793 308.167932,147.64975 308.167932,147.64975 L340.807792,147.64975 Z" id="Path-17" fill="#383838" fill-rule="nonzero"></path>
                                    <path d="M313.959346,138.914903 C313.959346,139.20279 314.154064,139.436169 314.394261,139.436169 L335.021417,139.436169 C335.261614,139.436169 335.456333,139.20279 335.456333,138.914903 L335.456333,125.242817 C335.456333,124.95493 335.261614,124.721551 335.021417,124.721551 L314.394261,124.721551 C314.154064,124.721551 313.959346,124.95493 313.959346,125.242817 L313.959346,138.914903 Z" id="Path-18-Copy" fill="#474747" fill-rule="nonzero"></path>
                                    <path d="M333.285514,138.914903 C333.285514,139.20279 333.483151,139.436169 333.726949,139.436169 L354.663323,139.436169 C354.907121,139.436169 355.104758,139.20279 355.104758,138.914903 L355.104758,125.242817 C355.104758,124.95493 354.907121,124.721551 354.663323,124.721551 L333.726949,124.721551 C333.483151,124.721551 333.285514,124.95493 333.285514,125.242817 L333.285514,138.914903 Z" id="Path-18" fill="#656565" fill-rule="nonzero"></path>
                                    <path d="M341.822558,132.321225 C341.822558,132.396909 341.918838,132.458262 342.037606,132.458262 L352.236903,132.458262 C352.35567,132.458262 352.451951,132.396909 352.451951,132.321225 L352.451951,128.726943 C352.451951,128.65126 352.35567,128.589907 352.236903,128.589907 L342.037606,128.589907 C341.918838,128.589907 341.822558,128.65126 341.822558,128.726943 L341.822558,132.321225 Z" id="Path-18" fill="#FF7439" fill-rule="nonzero"></path>
                                    <polygon id="Path-10" fill="#383838" points="131.256874 134.209221 123.792509 134.209221 123.792509 127.296318 130.688662 115.959122"></polygon>
                                    <polygon id="Path-8" fill="#484848" points="142.56663 107.104382 132.998699 107.104382 132.998699 125.554176"></polygon>
                                    <path d="M132.577901,109.478703 C132.577901,109.478703 127.651321,105.5288 123.547822,106.553779 C119.444323,107.578758 117.937901,113.135508 117.937901,113.135508" id="Line" stroke="#B50B0B" stroke-linecap="square" transform="translate(125.257901, 109.759737) rotate(21.000000) translate(-125.257901, -109.759737) "></path>
                                    <polyline id="pCB" fill="#000000" points="136.767173 112.304176 128.24 112.011224 128.24 124.758155 136.767173 125.146857"></polyline>
                                    <rect id="Rectangle-55" fill="#4A4A4A" transform="translate(132.399459, 116.647854) rotate(3.000000) translate(-132.399459, -116.647854) " x="131.899459" y="114.819452" width="1" height="3.65680473"></rect>
                                    <ellipse id="Oval-8" fill="#383838" cx="130.07" cy="116.627219" rx="1" ry="1"></ellipse>
                                    <g id="Group-5" transform="translate(132.819688, 113.329865) rotate(2.000000) translate(-132.819688, -113.329865) translate(129.319688, 112.329865)" fill="#7E5C16">
                                        <rect id="Rectangle-54" x="5.06881337" y="0.181065501" width="1" height="1"></rect>
                                        <rect id="Rectangle-54" x="3.84881337" y="0.181065501" width="1" height="1"></rect>
                                        <rect id="Rectangle-54" x="2.62881337" y="0.181065501" width="1" height="1"></rect>
                                        <rect id="Rectangle-54" x="1.40881337" y="0.181065501" width="1" height="1"></rect>
                                        <rect id="Rectangle-54" x="0.188813366" y="0.181065501" width="1" height="1"></rect>
                                    </g>
                                    <path d="M163.040039,134.194684 L164.079029,134.194684 L164.55537,134.194684 L164.55537,133.598403 L164.55537,131.870787 L164.079029,132.467068 L165.642821,132.467068 C165.909495,132.478752 166.223845,132.463592 166.585719,132.404023 C167.130316,132.314376 167.669555,132.139983 168.178214,131.858725 C169.810703,130.956055 170.805011,129.153473 170.805011,126.327799 C170.805011,123.515067 169.8389,121.649326 168.247835,120.619042 C167.698168,120.263109 167.113851,120.034749 166.530265,119.906558 C166.178386,119.829264 165.900518,119.802197 165.731458,119.80123 C165.193916,119.801223 165.193916,119.801223 163.052454,119.801223 L157.163435,119.801223 L154.337844,119.801223 C152.309375,119.801223 151.085954,119.083883 150.447338,117.9142 C150.088827,117.257554 149.972276,116.587416 149.980286,116.126353 C149.980325,116.124629 149.616571,103.445596 149.616571,103.445596 C149.616571,103.445596 146.995761,105.565113 145.665957,105.688945 C144.458514,105.801383 142.004829,104.154408 142.004829,104.154408 L128.904472,133.002123 L163.602688,133.598403 L164.079029,133.002123 L128.904472,133.002123 L129.380813,133.598403 L142.770975,104.154408 L142.004829,103.445596 L128.904472,125.743051 L128.904472,134.194684 L155.627403,134.194684 L155.627403,136.059431 L155.627403,136.580698 L156.147192,136.580698 L161.823691,136.580698 L161.951968,136.580698 L162.065516,136.520849 L162.762075,136.153711 L163.040039,136.007203 L163.040039,135.692293 L163.040039,134.194684 Z" id="Combined-Shape" fill="#474747" fill-rule="nonzero"></path>
                                    <path d="M163.602688,133.598403 L128.904472,126.327799 L132.861269,119.906558 C132.861269,119.906558 152.309375,119.801223 154.337844,119.801223 L157.163435,119.801223 L163.052454,119.801223 C165.193916,119.801223 165.193916,119.801223 165.731458,119.80123 C165.900518,119.802197 166.178386,119.829264 166.530265,119.906558 C167.113851,120.034749 167.698168,120.263109 168.247835,120.619042 C169.8389,121.649326 170.805011,123.515067 170.805011,126.327799 C170.805011,129.153473 169.810703,130.956055 168.178214,131.858725 C167.669555,132.139983 167.130316,132.314376 166.585719,132.404023 C166.223845,132.463592 165.909495,132.478752 165.642821,132.467068 L164.079029,132.467068 L164.55537,131.870787 L129.380813,133.598403 L128.904472,133.002123 L164.079029,133.002123 L163.602688,133.598403 Z M155.627403,136.059431 L155.627403,134.080924 L163.040039,133.711645 L163.040039,135.692293 L163.040039,136.007203 L162.762075,136.153711 L162.065516,136.520849 L161.951968,136.580698 L161.823691,136.580698 L156.147192,136.580698 L155.627403,136.580698 L155.627403,136.059431 Z" id="Combined-Shape" fill="#474747" fill-rule="nonzero"></path>
                                    <path d="M169.281686,126.142755 C169.281686,124.415431 168.070319,123.015158 166.576022,123.015158 C165.081725,123.015158 163.870359,124.415431 163.870359,126.142755 C163.870359,127.870079 165.081725,129.270352 166.576022,129.270352 C168.070319,129.270352 169.281686,127.870079 169.281686,126.142755 Z M164.772246,126.142755 C164.772246,124.991206 165.579824,124.057691 166.576022,124.057691 C167.57222,124.057691 168.379798,124.991206 168.379798,126.142755 C168.379798,127.294305 167.57222,128.22782 166.576022,128.22782 C165.579824,128.22782 164.772246,127.294305 164.772246,126.142755 Z" id="Oval-2-Copy-3" fill="#FFFFFF" fill-rule="nonzero"></path>
                                    <g id="Group-8" transform="translate(184.461106, 56.489084) rotate(-2.000000) translate(-184.461106, -56.489084) translate(137.461106, 6.989084)" fill-rule="nonzero" fill="#474747">
                                        <path d="M5.68896316,87.8559771 L6.15096345,87.6971637 C5.01437534,87.5957286 3.77511597,87.9014651 2.59514122,88.9250043 C2.30224816,89.179067 2.02918961,89.4763829 1.76209475,89.8045833 C0.467146004,91.3957882 0.560876277,95.360906 3.56075773,97.6173142 C5.88886651,99.3684379 9.25285894,98.4687805 10.6092233,96.8010356 C11.985926,95.1082832 11.5265935,93.4141051 11.5265935,93.4141051 L88.8374369,10.0992847 C88.8374369,10.0992847 90.07159,10.4184622 90.7430501,9.96592358 C91.2460234,9.62693872 91.7030351,9.21259802 92.1024514,8.71698335 C94.0127918,6.34654251 93.7854142,2.51334114 91.4857875,1.30920635 C89.1861608,0.105071557 86.6675033,0.352900901 85.0724076,1.97241282 C84.6037931,2.44820049 84.0723019,3.36144099 84.1480629,4.30980806 C84.152892,4.37025836 5.68896316,87.8559771 5.68896316,87.8559771 Z" id="Path-23"></path>
                                    </g>
                                </g>
                            </g>
                        </g>
                        <path d="M302.729109,80.5739645 L316.36786,87.2320846 C317.362746,87.7177645 318.828491,88.7225859 319.632207,89.4676208 L333.522931,102.344166 C334.330894,103.093139 334.176249,104.091937 333.192697,104.567703 L330.50016,105.870144 C329.012404,106.589805 326.545149,106.686496 325.016279,106.096485 L307.568357,99.3630984 C307.050759,99.1633506 306.198843,99.1222976 305.667237,99.270932 L291.753004,103.16128 C290.688274,103.458973 288.940325,103.616548 287.839929,103.512388 L279.654168,102.737551" id="Path-3" stroke="#686868" fill="#FFF5F5" stroke-linecap="round" transform="translate(306.848031, 93.527930) scale(-1, 1) translate(-306.848031, -93.527930) "></path>
                        <path d="M137.898956,110.983382 L147.617627,110.983382 L147.617627,117.162591 L137.898956,117.162591 L137.898956,119.698329 C137.898956,120.247984 137.557284,120.40909 137.13652,120.058759 L130.709753,114.707796 C130.288671,114.3572 130.288989,113.788509 130.709753,113.438177 L137.13652,108.087214 C137.557602,107.736619 137.898956,107.892962 137.898956,108.447644 L137.898956,110.983382 Z M149.384658,110.983382 L151.151689,110.983382 L151.151689,117.162591 L149.384658,117.162591 L149.384658,110.983382 Z M152.91872,110.983382 L154.685751,110.983382 L154.685751,117.162591 L152.91872,117.162591 L152.91872,110.983382 Z M156.452782,110.983382 L158.219813,110.983382 L158.219813,117.162591 L156.452782,117.162591 L156.452782,110.983382 Z" id="Green-Arrow_forward" fill="#52BF53" transform="translate(144.306937, 114.072306) scale(-1, 1) rotate(-90.000000) translate(-144.306937, -114.072306) "></path>
                        <g id="Laser-body" transform="translate(239.340000, 105.047337)">
                            <g id="Laser-head">
                                <rect id="Rectangle-53" fill="#868686" x="10.98" y="51.1952663" width="6.1" height="4.87573964"></rect>
                                <path d="M7.32,1.21893491 L19.52,1.21893491 L19.52,3.65680473 L7.32,3.65680473 L7.32,1.21893491 Z M4.88,0 L7.32,0 L7.32,3.65680473 L4.88,3.65680473 L4.88,0 Z M19.52,0 L21.96,0 L21.96,3.65680473 L19.52,3.65680473 L19.52,0 Z" id="Combined-Shape" fill="#363636"></path>
                                <rect id="Rectangle-49" fill="#484848" x="2.44" y="3.65680473" width="21.96" height="47.5384615"></rect>
                                <rect id="Rectangle-50" fill="#1F0E00" x="0" y="32.9112426" width="2.44" height="6.09467456"></rect>
                            </g>
                        </g>
                        <g id="big-screw" transform="translate(232.020000, 145.272189)">
                            <rect id="Rectangle-46" fill="#595959" x="0" y="2.43786982" width="7.32" height="1.21893491"></rect>
                            <rect id="Rectangle-44" fill="#636363" x="2.44" y="0" width="2.44" height="2.43786982"></rect>
                            <rect id="lines" fill="#868686" x="0.858588803" y="2.43786982" width="1" height="1.21893491"></rect>
                            <rect id="lines" fill="#868686" x="2.0785888" y="2.43786982" width="1" height="1.21893491"></rect>
                            <rect id="lines" fill="#868686" x="3.2985888" y="2.43786982" width="1" height="1.21893491"></rect>
                            <rect id="lines" fill="#868686" x="4.5185888" y="2.43786982" width="1" height="1.21893491"></rect>
                            <rect id="lines" fill="#868686" x="5.7385888" y="2.43786982" width="1" height="1.21893491"></rect>
                        </g>
                        <polygon id="Path-15" fill="#484848" points="221.895064 135.234973 221.895064 139.497448 225.29056 145.662584 239.741455 145.660208 239.741455 135.276018"></polygon>
                    </g>
                </g>
            </g>
        </g>
    </g>
</svg>