<?xml version="1.0" encoding="UTF-8" standalone="no"?>
<svg width="394px" height="153px" viewBox="0 0 394 153" version="1.1" xmlns="http://www.w3.org/2000/svg" xmlns:xlink="http://www.w3.org/1999/xlink">
    <!-- Generator: Sketch 43.1 (39012) - http://www.bohemiancoding.com/sketch -->
    <title>uArm_Pen own</title>
    <desc>Created with Sketch.</desc>
    <defs>
        <polygon id="path-1" points="0 160.045294 119.866651 144.948387 218.141599 169.465886 98.274948 184.562793"></polygon>
        <filter x="0.0%" y="0.0%" width="100.0%" height="100.0%" filterUnits="objectBoundingBox" id="filter-2">
            <feOffset dx="0" dy="0" in="SourceAlpha" result="shadowOffsetOuter1"></feOffset>
            <feColorMatrix values="0 0 0 0 0   0 0 0 0 0   0 0 0 0 0  0 0 0 0.5 0" type="matrix" in="shadowOffsetOuter1"></feColorMatrix>
        </filter>
        <linearGradient x1="0%" y1="50%" x2="100%" y2="50%" id="linearGradient-3">
            <stop stop-color="#EDC68C" offset="0%"></stop>
            <stop stop-color="#E99619" offset="100%"></stop>
        </linearGradient>
    </defs>
    <g id="YCH-WORKS" stroke="none" stroke-width="1" fill="none" fill-rule="evenodd">
        <g id="写字作图_插入文字" transform="translate(-2519.000000, -696.000000)">
            <g id="Popout_Pen-down" transform="translate(2391.000000, 632.000000)">
                <g id="uArm_pen-down" transform="translate(324.000000, 124.500000) scale(-1, 1) translate(-324.000000, -124.500000) translate(126.000000, 32.000000)">
                    <g id="uArm_Pen-own" transform="translate(1.000000, 0.000000)">
                        <g id="paper">
                            <use fill="black" fill-opacity="1" filter="url(#filter-2)" xlink:href="#path-1"></use>
                            <use fill="#ECECEC" fill-rule="evenodd" xlink:href="#path-1"></use>
                        </g>
                        <g id="Group" transform="translate(52.108590, 1.595740)">
                            <path d="M286.361888,115.551549 C286.705368,115.605737 287.110844,115.666053 287.576247,115.730958 C288.904166,115.916152 290.446932,116.101248 292.187992,116.273944 C297.159568,116.767075 302.725422,117.062891 308.753166,117.062891 C314.77949,117.062891 320.343995,116.795362 325.314275,116.349392 C327.054796,116.19322 328.597037,116.025839 329.924444,115.858378 C330.389613,115.799694 330.794858,115.745164 331.13811,115.696178 C331.344876,115.66667 331.485507,115.645489 331.557931,115.634025 L331.922575,115.209321 L331.922575,102.745129 L331.341284,102.341226 C331.270669,102.366888 329.893275,101.092274 329.468166,101.167437 C328.734945,101.297079 328.110794,100.655347 326.709936,100.777545 C322.687405,101.128434 288.915435,101.296658 288.190957,101.167437 C287.771632,101.092645 286.314036,102.370393 286.246507,102.345331 L285.662452,102.745484 L285.583766,115.056461 L285.94143,115.482735 C286.014064,115.495445 286.154906,115.518895 286.361888,115.551549 Z" id="Path-12" fill="#666666" fill-rule="nonzero"></path>
                            <rect id="Rectangle-12" fill="#383838" x="285.175945" y="99.9996781" width="47.0268048" height="17.0212218"></rect>
                            <path d="M309.055842,143.927406 L341.492439,143.927406 L341.492439,114.140268 L277.364978,114.140268 L277.364978,139.6721 L265.931336,139.6721 L265.931336,143.927406 L309.055842,143.927406 Z" id="Combined-Shape" fill="#484848"></path>
                            <path d="M207.635114,115.702267 L222.080282,119.810696 L272.777538,52.3485462 L272.697551,46.325041 L278.857702,37.1267387 C279.78013,35.749375 279.419577,33.8828484 278.046328,32.9536368 L274.66315,30.6644025 C273.292612,29.7370256 271.37715,30.0659651 270.387863,31.3950548 L207.635114,115.702267 Z" id="Combined-Shape" fill="#474747" fill-rule="nonzero" transform="translate(243.501773, 74.974005) rotate(-106.000000) translate(-243.501773, -74.974005) "></path>
                            <g id="Group-7" transform="translate(199.282665, 47.499602) rotate(-8.000000) translate(-199.282665, -47.499602) translate(175.282665, 33.499602)" fill-rule="nonzero">
                                <path d="M24.35242,19.3634498 L22.720502,19.3634498 L20.6546589,18.3947041 L18.2380224,18.754409 L8.29084135,9.01128227 L4.44947282,4.96326202 L0.166785272,7.82968801 L15.4810319,23.4508544 L15.3629303,23.2060766 C15.4282734,23.7186249 15.6680021,24.4551405 16.2008376,25.1936539 C16.8443295,26.0855376 17.7766745,26.7293007 19.0311366,27.010231 C20.6058532,27.3628807 21.9506881,26.8510323 23.0328932,25.799641 C23.3236699,25.5171437 23.5732223,25.2154723 23.7824766,24.9133069 C23.9096164,24.7297156 23.996576,24.583881 24.0435581,24.494241 L23.8387737,24.687104 L33.8950164,20.1465421 L46.3810814,14.0486147 L38.8755373,12.0628444 L24.35242,19.3634498 Z" id="Path-20" fill="#474747"></path>
                                <path d="M2.18904313,0.199019087 L0.280531139,4.05875262 L6.68857531,8.91219873 L8.90029548,6.58821542 L36.0991057,11.8359537 L36.0160174,14.1959572 C36.0160174,14.1959572 44.6267261,14.9541304 46.5525312,13.9857304 C48.1996856,13.1574512 46.734896,8.8059196 46.734896,8.8059196 L41.5509123,7.69695085 L2.18904313,0.199019087 Z" id="Path-21" fill="#474747"></path>
                                <path d="M34.6011883,11.7989059 C34.8085698,11.8236173 35.0918528,11.8842837 35.366598,11.9984145 C35.7557198,12.1600579 35.9525062,12.3606142 35.9525062,12.5982452 C35.9525062,13.2756783 35.7173909,13.4965808 34.5341576,14.0363461 C34.2558607,14.1633583 34.2558607,14.1633583 33.9773635,14.2906909 C33.6791561,14.427158 33.6791561,14.427158 33.3812157,14.5637476 C31.0546214,15.6308268 28.5967299,16.774009 26.1619598,17.917176 C25.3098137,18.3172734 24.5214102,18.6887976 23.8160627,19.0222291 C23.5691663,19.1389417 23.4232574,19.2080132 23.1618144,19.3318948 C22.9708814,19.422445 22.9708814,19.422445 22.9306264,19.4415721 L23.464341,19.5727661 C23.2938067,19.3450863 22.9775192,19.0231671 22.5155908,18.7044855 C22.0289378,18.3687466 21.4770932,18.1141482 20.8615713,17.9741054 C19.986508,17.7750119 19.1373632,17.8374976 18.3688917,18.061796 C18.1007866,18.1400494 17.9018379,18.2201167 17.7852447,18.2780053 L18.2881687,18.3622418 L8.79853677,8.70532818 C8.71234091,8.63097229 8.61783681,8.5357457 8.52295744,8.40620008 C8.25641115,8.04226531 8.20227675,7.70471862 8.44359209,7.36985344 C8.55247583,7.21875914 8.69450468,7.12591202 8.87271956,7.0768494 C9.06983831,7.02258253 9.29539944,7.0261041 9.50872925,7.06701333 C9.56574912,7.07794775 9.60456503,7.08804738 9.61931504,7.09271866 L34.6011883,11.7989059 Z M9.67267877,6.22247724 C9.33939354,6.15856474 8.98640307,6.15305368 8.641709,6.24794809 C8.28040453,6.34741534 7.96942321,6.55071008 7.7400364,6.86902245 C7.24418375,7.5571005 7.36011606,8.27997855 7.82329608,8.91239147 C7.965309,9.1062919 8.10769721,9.24976867 8.21186941,9.33610468 L17.6690615,18.9632144 L17.8896099,19.1876506 L18.1719856,19.0474509 C18.2450206,19.011189 18.3969854,18.9500304 18.6127359,18.887058 C19.2490602,18.7013303 19.9522715,18.6495833 20.6684617,18.8125302 C21.1704911,18.9267514 21.6221769,19.1351406 22.0221197,19.4110587 C22.2431546,19.5635492 22.4339448,19.726715 22.5932355,19.8888421 C22.6857745,19.9830288 22.7450989,20.0528979 22.7701717,20.0863725 L22.982733,20.3701624 L23.3038863,20.2175665 C23.3437926,20.198605 23.3437926,20.198605 23.5343465,20.1082346 C23.7953938,19.9845405 23.941151,19.9155409 24.1877663,19.798961 C24.8924519,19.4658425 25.6801735,19.0946396 26.5316063,18.6948771 C28.9642046,17.5527298 31.419838,16.4105978 33.7438194,15.3447171 C34.0413676,15.2083072 34.0413676,15.2083072 34.3391634,15.0720285 C34.617267,14.9448758 34.617267,14.9448758 34.8951517,14.8180518 C36.3575161,14.1509529 36.817905,13.7183949 36.817905,12.5982452 C36.817905,11.9359512 36.3758825,11.4854605 35.7003227,11.2048292 C35.336259,11.0535951 34.9807331,10.9774574 34.7308219,10.9490851 L9.83121061,6.26041852 C9.8364665,6.25876779 9.76512455,6.24020512 9.67267877,6.22247724 Z" id="Path-22" fill="#474747"></path>
                                <path d="M22.4097126,24.1584328 C22.4097126,22.733352 21.2473559,21.5780958 19.8135162,21.5780958 C18.3796765,21.5780958 17.2173197,22.733352 17.2173197,24.1584328 C17.2173197,25.5835136 18.3796765,26.7387699 19.8135162,26.7387699 C21.2473559,26.7387699 22.4097126,25.5835136 22.4097126,24.1584328 Z M18.0827185,24.1584328 C18.0827185,23.208379 18.857623,22.4382081 19.8135162,22.4382081 C20.7694093,22.4382081 21.5443138,23.208379 21.5443138,24.1584328 C21.5443138,25.1084867 20.7694093,25.8786575 19.8135162,25.8786575 C18.857623,25.8786575 18.0827185,25.1084867 18.0827185,24.1584328 Z" id="Oval-2-Copy" fill="#FFFFFF"></path>
                            </g>
                            <polygon id="Rectangle-14" fill="#585858" points="204.319091 41.4892282 222.214312 41.4892282 222.214312 46.2764468 204.319091 46.2764468"></polygon>
                            <g id="Group-9" transform="translate(268.857884, 60.363909) rotate(-47.000000) translate(-268.857884, -60.363909) translate(244.357884, 10.363909)">
                                <path d="M10.1206211,7.20490361 C9.81700343,6.46924129 9.81700343,6.46924129 9.75314079,6.31442473 L9.72946469,6.68801874 C10.0298844,6.16097338 10.2456032,5.27638722 10.0376286,4.14214921 C9.94497368,3.63683383 9.76710698,3.12340927 9.49466878,2.60655458 C8.38521261,0.501755726 5.99127616,-0.253579964 3.98122098,0.4534768 C1.93082071,1.17472535 0.428466868,3.54422935 1.14058333,5.80307068 C1.65725795,7.44196833 2.6201652,8.41864636 3.61189403,8.89171528 C3.67607851,8.9223322 8.71062979,21.0538513 8.71062979,21.0538513 C8.72846053,21.1043444 8.13105071,22.8084785 8.13105071,22.8084785 L10.8485165,30.7586168 C10.8485165,30.7586168 12.8460607,31.5226727 13.1204303,31.7734447 C13.3733038,32.0045694 42.2818658,98.0529186 42.2818658,98.0529186 C42.9878474,99.6655169 44.8814726,100.366907 46.471626,99.6377545 C48.079585,98.900437 48.8171753,96.9900997 48.1195172,95.3718972 C48.1195172,95.3718972 10.4203032,7.93093221 10.1206211,7.20490361 Z" id="Path-19" fill="#474747" fill-rule="nonzero"></path>
                                <polygon id="Path-152" fill="#484848" points="5.89696587 11.3509096 42.3038021 97.3901555 46.3275379 92.2818554 10.1744911 11.3509096"></polygon>
                                <path d="M8.14601104,4.6540057 C8.14601104,3.22892489 6.9836543,2.07366864 5.54981459,2.07366864 C4.11597488,2.07366864 2.95361813,3.22892489 2.95361813,4.6540057 C2.95361813,6.07908651 4.11597488,7.23434277 5.54981459,7.23434277 C6.9836543,7.23434277 8.14601104,6.07908651 8.14601104,4.6540057 Z M3.81901695,4.6540057 C3.81901695,3.70395183 4.59392145,2.93378099 5.54981459,2.93378099 C6.50570773,2.93378099 7.28061223,3.70395183 7.28061223,4.6540057 C7.28061223,5.60405957 6.50570773,6.37423041 5.54981459,6.37423041 C4.59392145,6.37423041 3.81901695,5.60405957 3.81901695,4.6540057 Z" id="Oval-2" fill="#FFFFFF" fill-rule="nonzero"></path>
                            </g>
                            <path d="M117.374571,117.199469 L129.009466,119.498961 L142.305667,96.7747184 L183.656661,26.0676593 L182.536487,19.0870739 L186.620579,11.3134194 C187.135127,10.3340293 186.709634,9.86168344 185.674651,10.256712 L179.537222,12.5992227 C179.017198,12.7977034 178.373955,13.3360581 178.084764,13.8284622 L117.374571,117.199469 Z" id="Combined-Shape" fill="#474747" fill-rule="nonzero" transform="translate(152.106852, 64.808076) rotate(38.000000) translate(-152.106852, -64.808076) "></path>
                            <path d="M328.376041,100.055169 C328.376041,99.2778907 328.376041,100.983573 328.376041,97.8744598 L328.376041,89.3243988 L328.376041,77.8505541 C328.376041,75.6982493 327.504067,74.196868 326.060189,73.2707606 C325.558075,72.9487032 325.022725,72.7210085 324.487415,72.5704448 C324.163683,72.4793905 323.907644,72.4337214 323.751615,72.4179321 C323.686692,72.4075344 323.518948,72.3819918 323.275482,72.3447861 C322.86962,72.2827637 322.398796,72.2105397 321.868424,72.1288501 C320.352993,71.8954382 318.664335,71.6329939 316.845767,71.3474051 C311.649969,70.5314542 306.45422,69.6935642 301.605178,68.8808622 C301.273213,68.8252247 300.943771,68.7698527 300.616927,68.7147561 C294.912026,67.7530735 291.538323,68.8759429 290.030157,71.3906998 C289.671563,71.9886305 289.448769,72.6260221 289.335276,73.2711943 C289.259033,73.7046069 289.240695,74.0837865 289.255276,74.3795579 C289.258549,74.4357902 289.258389,100.055169 289.258389,100.055169 L328.376041,100.055169 Z" id="Path-17" fill="#383838" fill-rule="nonzero"></path>
                            <path d="M297.932803,92.8480642 C297.932803,93.0855777 298.126529,93.2781204 298.365503,93.2781204 L318.887562,93.2781204 C319.126535,93.2781204 319.320262,93.0855777 319.320262,92.8480642 L319.320262,81.56829 C319.320262,81.3307766 319.126535,81.1382339 318.887562,81.1382339 L298.365503,81.1382339 C298.126529,81.1382339 297.932803,81.3307766 297.932803,81.56829 L297.932803,92.8480642 Z" id="Path-18" fill="#585858" fill-rule="nonzero"></path>
                            <path d="M297.932803,92.8480642 C297.932803,93.0855777 298.126529,93.2781204 298.365503,93.2781204 L318.887562,93.2781204 C319.126535,93.2781204 319.320262,93.0855777 319.320262,92.8480642 L319.320262,81.56829 C319.320262,81.3307766 319.126535,81.1382339 318.887562,81.1382339 L298.365503,81.1382339 C298.126529,81.1382339 297.932803,81.3307766 297.932803,81.56829 L297.932803,92.8480642 Z" id="Path-18" fill="#585858" fill-rule="nonzero"></path>
                            <path d="M302.2833,87.6526166 C302.2833,87.715057 302.392594,87.7656749 302.527414,87.7656749 L314.105273,87.7656749 C314.240094,87.7656749 314.349388,87.715057 314.349388,87.6526166 L314.349388,84.6872542 C314.349388,84.6248138 314.240094,84.5741958 314.105273,84.5741958 L302.527414,84.5741958 C302.392594,84.5741958 302.2833,84.6248138 302.2833,84.6872542 L302.2833,87.6526166 Z" id="Path-18" fill="#FF7439" fill-rule="nonzero"></path>
                            <path d="M99.6004868,93.9854802 L99.9547011,93.9854802 L100.387401,93.9854802 L100.387401,93.5554241 L100.387401,92.3094133 L99.9547011,92.7394695 L101.375221,92.7394695 C101.617462,92.7478968 101.903012,92.7369629 102.231731,92.6939998 C102.726433,92.6293432 103.216268,92.5035661 103.678324,92.3007139 C105.161247,91.6496803 106.064457,90.349602 106.064457,88.3116373 C106.064457,86.2830075 105.186861,84.9373766 103.741566,84.1943037 C103.24226,83.9375939 102.711477,83.7728939 102.181358,83.6804383 C101.861718,83.6246913 101.609308,83.6051697 101.455737,83.6044722 C100.967444,83.6044677 100.967444,83.6044677 99.0221802,83.6044677 L93.6727048,83.6044677 L91.1059916,83.6044677 C89.2633684,83.6044677 88.1520357,83.0870993 87.5719289,82.2434874 C87.2462641,81.7698941 87.1403911,81.2865695 87.1476669,80.9540366 C87.1477023,80.952793 86.8172752,71.8082795 86.8172752,71.8082795 C86.8172752,71.8082795 84.436581,73.3369408 83.2286112,73.4262527 C82.1317931,73.5073465 79.9029115,72.3194964 79.9029115,72.3194964 L68.3507689,88.3116373 L68.0027926,93.1253679 L99.5220017,93.5554241 L99.9547011,93.1253679 L68.0027926,93.1253679 L68.435492,93.5554241 L68.435492,88.5349173 L68.3507689,88.7905258 L80.598864,72.3194964 L79.9029115,71.8082795 L67.6548163,88.2793088 L67.5700932,88.3932431 L67.5700932,88.5349173 L67.5700932,93.5554241 L67.5700932,93.9854802 L68.0027926,93.9854802 L93.4298194,93.9854802 L93.4298194,95.5239383 L93.4298194,95.9539944 L93.8625188,95.9539944 L98.5879352,95.9539944 L98.6947191,95.9539944 L98.7892428,95.9046181 L99.3690951,95.6017207 L99.6004868,95.4808486 L99.6004868,95.2210409 L99.6004868,93.9854802 Z" id="Combined-Shape" fill="#474747" fill-rule="nonzero"></path>
                            <path d="M80.3915364,94.9999149 L80.3915364,93.0773055 L85.8387533,93.3440088 L85.8387533,94.9999149 L90.6681693,94.9999149 L91.1008687,94.9999149 L91.1008687,95.429971 L91.1008687,96.9396239 L91.1008687,97.3696801 L90.6681693,97.3696801 L71.2204161,97.3696801 L70.7877167,97.3696801 L70.7877167,96.9396239 L70.7877167,95.429971 L70.7877167,94.9999149 L71.2204161,94.9999149 L80.3915364,94.9999149 Z" id="Combined-Shape" fill="#474747" fill-rule="nonzero"></path>
                            <polygon id="Path-54" fill="#575757" fill-rule="nonzero" points="339.179151 114.490218 340.04455 114.490218 340.04455 112.488479 340.04455 112.308235 339.915247 112.181853 339.017063 111.303955 338.890782 111.180526 338.713667 111.180526 334.754933 111.180526 334.582496 111.180526 334.457323 111.298403 333.525096 112.176301 333.390006 112.303517 333.390006 114.728151"></polygon>
                            <path d="M96.4608463,89.839189 C96.4608463,88.4141082 95.2984896,87.258852 93.8646499,87.258852 C92.4308102,87.258852 91.2684534,88.4141082 91.2684534,89.839189 C91.2684534,91.2642699 92.4308102,92.4195261 93.8646499,92.4195261 C95.2984896,92.4195261 96.4608463,91.2642699 96.4608463,89.839189 Z M92.1338522,89.839189 C92.1338522,88.8891352 92.9087567,88.1189643 93.8646499,88.1189643 C94.820543,88.1189643 95.5954475,88.8891352 95.5954475,89.839189 C95.5954475,90.7892429 94.820543,91.5594138 93.8646499,91.5594138 C92.9087567,91.5594138 92.1338522,90.7892429 92.1338522,89.839189 Z" id="Oval-2-Copy-3" fill="#FFFFFF" fill-rule="nonzero"></path>
                        </g>
                        <g id="Group-8" transform="translate(181.035567, 53.781742) rotate(26.000000) translate(-181.035567, -53.781742) translate(142.035567, 13.781742)" fill-rule="nonzero">
                            <path d="M68.7046707,4.85676576 L4.9348389,70.6144356 L5.3194322,70.483411 C4.37327657,70.3997248 3.34165198,70.6519641 2.35937903,71.4964067 C2.11555946,71.7060141 1.883857,71.9474426 1.6659074,72.2220789 C0.208391849,74.0586807 0.411948163,76.8811711 2.14930414,78.4717997 C3.97592781,80.1441569 6.9025073,80.2373643 8.86027682,78.2482126 C9.20684722,77.8960868 9.47684255,77.4781099 9.67902926,77.0097904 C10.0283489,76.2006711 10.1369119,75.3820636 10.1218119,74.7456444 C10.1211393,74.7216914 10.0045824,75.0263226 10.0045824,75.0263226 L73.5724982,9.52354782 L73.2670108,9.65976823 C73.4424731,9.6555012 73.7289864,9.62218957 74.090768,9.53577395 C74.6880203,9.39311351 75.2851599,9.14799053 75.8441186,8.77463615 C76.26282,8.49496612 76.6432605,8.15312585 76.9757556,7.74423274 C78.5660233,5.78856643 77.9700557,3.0823608 76.4624122,1.63265229 C74.9068226,0.136840032 72.3891273,-0.0456726171 70.5536966,1.21630906 C70.0247028,1.58002772 69.6062933,2.00527702 69.2902765,2.47930334 C68.6885145,3.3819486 68.5178217,4.3198696 68.5808891,5.10229349 C68.5849091,5.15216633 68.7046707,4.85676576 68.7046707,4.85676576 Z" id="Path-23" fill="#474747"></path>
                            <path d="M75.8362755,4.89483751 C75.8362755,3.4697567 74.6739187,2.31450045 73.240079,2.31450045 C71.8062393,2.31450045 70.6438826,3.4697567 70.6438826,4.89483751 C70.6438826,6.31991832 71.8062393,7.47517458 73.240079,7.47517458 C74.6739187,7.47517458 75.8362755,6.31991832 75.8362755,4.89483751 Z M71.5092814,4.89483751 C71.5092814,3.94478364 72.2841859,3.1746128 73.240079,3.1746128 C74.1959722,3.1746128 74.9708767,3.94478364 74.9708767,4.89483751 C74.9708767,5.84489139 74.1959722,6.61506222 73.240079,6.61506222 C72.2841859,6.61506222 71.5092814,5.84489139 71.5092814,4.89483751 Z" id="Oval-2-Copy-2" fill="#FFFFFF"></path>
                            <path d="M8.02537273,75.1635582 C8.02537273,73.7384774 6.86301598,72.5832211 5.42917627,72.5832211 C3.99533656,72.5832211 2.83297982,73.7384774 2.83297982,75.1635582 C2.83297982,76.588639 3.99533656,77.7438953 5.42917627,77.7438953 C6.86301598,77.7438953 8.02537273,76.588639 8.02537273,75.1635582 Z M3.69837864,75.1635582 C3.69837864,74.2135043 4.47328313,73.4433335 5.42917627,73.4433335 C6.38506941,73.4433335 7.15997391,74.2135043 7.15997391,75.1635582 C7.15997391,76.1136121 6.38506941,76.8837829 5.42917627,76.8837829 C4.47328313,76.8837829 3.69837864,76.1136121 3.69837864,75.1635582 Z" id="Oval-2-Copy-2" fill="#FFFFFF"></path>
                        </g>
                        <g id="hand" transform="translate(10.727847, 76.914136)" stroke="#686868" fill="#FFF5F5" stroke-linejoin="round">
                            <path d="M9.86556866,0.132213889 L23.6862237,3.74310378 C24.7529764,4.02181174 26.4984653,4.08893707 27.583404,3.89329896 L45.4806833,0.666029079 C47.115638,0.37121109 49.7444736,0.414469576 51.3772092,0.768032355 L76.8203753,6.27765461 C77.900273,6.51150242 79.6202847,6.99816357 80.6694335,7.36721215 L108.141553,17.0308052 C109.703883,17.5803704 110.679518,19.3308897 110.317419,20.9553938 L109.466522,24.7728157 C109.10589,26.3907409 107.535653,27.3078879 105.953159,26.8194245 L73.4945873,16.8005477 L57.8353824,18.0258809 C57.8353824,18.0258809 71.4978143,20.3385683 78.7757031,22.3022154 C86.0535918,24.2658626 108.119154,31.518027 108.119154,31.518027 C109.693855,32.0331778 110.730446,33.768038 110.432233,35.4050925 L109.905769,38.2951453 C109.608546,39.9267615 108.072644,40.8770003 106.489589,40.4216914 L79.741784,32.7286485 C79.2082322,32.5751915 78.3334591,32.3830963 77.7909424,32.3000539 L62.2417267,29.9199532 C62.2417267,29.9199532 74.5670451,33.7077821 79.9077414,35.6191136 C85.2484378,37.5304451 100.741322,42.0410615 100.741322,42.0410615 C102.325419,42.5057165 103.067938,44.1209474 102.405983,45.6346088 L100.770514,49.374363 C100.219238,50.6349402 98.7026088,51.3112164 97.4028196,50.8912629 L70.2064715,42.1042979 L58.3922888,39.3489789 L87.6800863,51.419232 C88.9562571,51.9451748 89.574765,53.408743 89.057726,54.6977676 L88.1449464,56.973409 C87.629625,58.2581514 86.1446688,58.9316523 84.8521733,58.484965 C84.8521733,58.484965 70.8578302,53.6721497 65.6015897,51.6568398 C60.3453493,49.64153 54.5716146,47.2856872 54.5716146,47.2856872 L40.941896,45.5141488 C39.8502809,45.3722649 38.1595095,44.8599304 37.1800312,44.3770057 L15.6729008,33.7730707 C14.1917405,33.0427953 11.6730424,32.1894784 10.0464904,31.8669872 L0.22621542,29.9199532" id="Path-2"></path>
                        </g>
                        <g id="pencil-" transform="translate(100.343566, 108.570084) scale(-1, 1) translate(-100.343566, -108.570084) translate(73.343566, 61.070084)">
                            <g id="pencil">
                                <g id="Pencil" transform="translate(24.956152, 47.500000) scale(-1, 1) translate(-24.956152, -47.500000) translate(21.456152, 0.000000)">
                                    <ellipse id="Oval" fill="#D65757" cx="3.10465059" cy="3.10777198" rx="3.10465059" ry="3.10777198"></ellipse>
                                    <rect id="pencile" fill="url(#linearGradient-3)" x="2.37010411e-12" y="4.66165798" width="6.20930118" height="83.9098436"></rect>
                                    <polygon id="Triangle" fill="#FCEBB7" transform="translate(3.104651, 91.679274) scale(1, -1) translate(-3.104651, -91.679274) " points="3.10465059 88.5715015 6.20930118 94.7870455 2.37010411e-12 94.7870455"></polygon>
                                    <polygon id="Triangle" fill="#4F4F4F" points="3.10462791 94.7826031 3.88079056 93.2287171 2.32846527 93.2287171"></polygon>
                                    <rect id="pencile" fill="#F3F3F3" x="2.37010411e-12" y="3.10777198" width="6.20930118" height="2.33082899"></rect>
                                </g>
                                <g id="cliper" transform="translate(26.793356, 45.847150) scale(-1, 1) translate(-26.793356, -45.847150) translate(0.293356, 38.847150)" fill="#484848">
                                    <rect id="Rectangle" x="7.76162647" y="0.674058498" width="45.1004783" height="12.4310879" rx="1"></rect>
                                    <rect id="Rectangle" x="0.303351413" y="4.38549051" width="7.45116171" height="5.92259825"></rect>
                                </g>
                                <rect id="screw" fill="#9E9E9E" x="1.88508967" y="37.971997" width="1.55232529" height="1.55388599"></rect>
                            </g>
                        </g>
                        <path d="M75.0748765,80.6689746 L86.8657837,86.4304254 C87.8629325,86.9176672 89.3266917,87.9207834 90.131705,88.6677224 L102.019362,99.6977943 C102.825932,100.446177 102.679073,101.440548 101.685004,101.921853 L99.8570985,102.806883 C98.3661916,103.528745 95.9051629,103.630155 94.3659889,103.035609 L79.4356647,97.2683871 C78.9249738,97.0711196 78.0840268,97.0306879 77.5399618,97.1829485 L65.6465349,100.511412 C64.5780109,100.810447 62.8202802,100.968394 61.7240788,100.864534 L54.7553704,100.20428" id="Path-3" stroke="#686868" fill="#FFF5F5" stroke-linecap="round"></path>
                        <path d="M215.439254,89.1200384 L224.815969,89.1200384 L224.815969,95.087039 L215.439254,95.087039 L215.439254,97.4934239 C215.439254,98.0475475 215.089675,98.2054375 214.675599,97.8603745 L208.531051,92.7399177 C208.109296,92.3884553 208.116975,91.8122227 208.531051,91.4671596 L214.675599,86.3467029 C215.097354,85.9952404 215.439254,86.1653996 215.439254,86.7136535 L215.439254,89.1200384 Z M226.520826,89.1200384 L228.225684,89.1200384 L228.225684,95.087039 L226.520826,95.087039 L226.520826,89.1200384 Z M229.930541,89.1200384 L231.635398,89.1200384 L231.635398,95.087039 L229.930541,95.087039 L229.930541,89.1200384 Z M233.340256,89.1200384 L235.045113,89.1200384 L235.045113,95.087039 L233.340256,95.087039 L233.340256,89.1200384 Z" id="Combined-Shape_Green-Arrow" fill="#52BF53" transform="translate(221.631360, 92.102838) rotate(-23.000000) translate(-221.631360, -92.102838) "></path>
                    </g>
                </g>
            </g>
        </g>
    </g>
</svg>