<?xml version="1.0" encoding="UTF-8" standalone="no"?>
<svg width="13px" height="13px" viewBox="0 0 13 13" version="1.1" xmlns="http://www.w3.org/2000/svg" xmlns:xlink="http://www.w3.org/1999/xlink">
    <!-- Generator: Sketch 43.1 (39012) - http://www.bohemiancoding.com/sketch -->
    <title>Icon_warning</title>
    <desc>Created with Sketch.</desc>
    <defs></defs>
    <g id="YCH-WORKS" stroke="none" stroke-width="1" fill="none" fill-rule="evenodd">
        <g id="写字作图_插入文字" transform="translate(-2568.000000, -893.000000)">
            <g id="Popout_Pen-down" transform="translate(2391.000000, 632.000000)">
                <g id="icon_warning" transform="translate(177.000000, 261.000000)">
                    <g id="Icon_warning" transform="translate(1.000000, 1.000000)">
                        <circle id="Oval-18" stroke="#DE5151" stroke-width="0.8" cx="5.5" cy="5.5" r="5.5"></circle>
                        <path d="M5.2,1.86 L5.36,7.08 L5.98,7.08 L6.13,1.86 L5.2,1.86 Z M5.66,7.81 C5.49,7.81 5.35,7.86 5.24,7.98 C5.12,8.09 5.06,8.23 5.06,8.4 C5.06,8.57 5.12,8.71 5.24,8.83 C5.35,8.94 5.49,9 5.66,9 C5.83,9 5.98,8.94 6.1,8.83 C6.21,8.72 6.27,8.58 6.27,8.4 C6.27,8.23 6.21,8.09 6.1,7.98 C5.98,7.86 5.84,7.81 5.66,7.81 Z" id="!" fill="#DE5151"></path>
                    </g>
                </g>
            </g>
        </g>
    </g>
</svg>