<?xml version="1.0" encoding="UTF-8" standalone="no"?>
<svg width="242px" height="160px" viewBox="0 0 242 160" version="1.1" xmlns="http://www.w3.org/2000/svg" xmlns:xlink="http://www.w3.org/1999/xlink">
    <!-- Generator: Sketch 43.1 (39012) - http://www.bohemiancoding.com/sketch -->
    <title>Pro_suction cup</title>
    <desc>Created with Sketch.</desc>
    <defs></defs>
    <g id="YCH-WORKS" stroke="none" stroke-width="1" fill="none" fill-rule="evenodd">
        <g id="uArm-Studio_画板Redesign" transform="translate(-3377.000000, -270.000000)">
            <g id="Popout_tips_hardware-installation-guide" transform="translate(3347.000000, 163.000000)">
                <g id="Pro_suction-cup" transform="translate(6.000000, 83.000000)">
                    <g transform="translate(0.000000, 2.000000)">
                        <g id="Pro" transform="translate(0.500000, 0.759486)">
                            <g id="Group-30" transform="translate(101.561290, 90.500000) scale(-1, 1) translate(-101.561290, -90.500000) translate(0.561290, 0.000000)">
                                <g id="Group" transform="translate(0.047945, 0.705796)">
                                    <path d="M127.219664,153.183157 C127.539224,153.233949 127.916463,153.290486 128.349455,153.351324 C129.584898,153.524913 131.020226,153.698411 132.640038,153.860285 C137.265394,154.322515 142.443643,154.599794 148.051615,154.599794 C153.658266,154.599794 158.835259,154.349029 163.45941,153.931005 C165.07872,153.78462 166.51356,153.627727 167.748527,153.47076 C168.181301,153.415753 168.558325,153.36464 168.877672,153.318723 C169.07004,153.291065 169.200877,153.271211 169.268257,153.260465 L169.607508,152.862374 L169.607508,141.179223 L169.066698,140.800629 C169.001001,140.824683 167.719528,139.629939 167.324024,139.700393 C166.641864,139.821911 166.061178,139.220392 164.757876,139.334933 C161.015474,139.663834 129.595382,139.821517 128.921357,139.700393 C128.531234,139.630287 127.175144,140.827968 127.112318,140.804477 L126.568937,141.179555 L126.49573,152.719093 L126.828487,153.118655 C126.896062,153.130568 127.027096,153.152549 127.219664,153.183157 Z" id="Path-12" fill="#666666" fill-rule="nonzero"></path>
                                    <rect id="Rectangle-12" fill="#383838" x="126.116309" y="138.605809" width="43.751861" height="15.9546255"></rect>
                                    <path d="M148.333213,179.780905 L178.510927,179.780905 L178.510927,151.86031 L118.849298,151.86031 L118.849298,175.792249 L108.211894,175.792249 L108.211894,179.780905 L148.333213,179.780905 Z" id="Combined-Shape" fill="#484848"></path>
                                    <path d="M91.3115915,123.384536 L106.251936,126.944464 L148.723634,68.2519856 L148.649217,62.6059298 L154.272061,54.1469676 C155.190072,52.7659188 154.821718,50.8879036 153.455993,49.9568524 L150.647446,48.0421916 C149.278733,47.1091036 147.376269,47.4269278 146.389442,48.7639019 L91.3115915,123.384536 Z" id="Combined-Shape" fill="#474747" fill-rule="nonzero" transform="translate(122.757570, 87.511761) rotate(-57.000000) translate(-122.757570, -87.511761) "></path>
                                    <polygon id="Rectangle-14" fill="#585858" points="114.937152 23.1364357 131.586151 23.1364357 131.586151 27.6236742 114.937152 27.6236742"></polygon>
                                    <path d="M175.592684,34.4220086 C176.028181,33.8172087 176.028181,33.8172087 176.119845,33.6899569 L175.810995,33.8568586 C176.378347,33.8319336 177.188347,33.5626312 177.988046,32.8352632 C178.34432,32.5112128 178.665035,32.1159495 178.941852,31.6444176 C180.069142,29.7241878 179.489728,27.4615079 177.936309,26.2278879 C176.35171,24.9695071 173.726195,24.9619426 172.280477,26.6454056 C171.231539,27.8668386 170.929365,29.1111698 171.041999,30.1280761 C171.049289,30.1938901 163.881343,40.1892569 163.881343,40.1892569 C163.849969,40.2283961 162.199877,40.6038351 162.199877,40.6038351 L157.215666,46.6953537 C157.215666,46.6953537 157.592715,48.6498303 157.528506,48.9907183 C157.469328,49.3048986 118.623055,105.718717 118.623055,105.718717 C117.997793,106.626876 118.238676,107.851861 119.167978,108.459306 L120.808566,109.531688 C121.734781,110.137115 122.998597,109.891636 123.628967,108.986859 C123.628967,108.986859 175.16291,35.0189203 175.592684,34.4220086 Z" id="Path-19" fill="#474747" fill-rule="nonzero" transform="translate(149.098789, 67.408738) rotate(-58.000000) translate(-149.098789, -67.408738) "></path>
                                    <polygon id="Path-152" fill="#484848" transform="translate(149.754244, 71.007982) scale(-1, 1) translate(-149.754244, -71.007982) " points="168.830323 33.6386047 135.596763 110.653988 130.678165 107.221567 164.313516 31.3619753"></polygon>
                                    <rect id="Rectangle-13" fill="#484848" transform="translate(161.817632, 115.554664) rotate(-39.000000) translate(-161.817632, -115.554664) " x="154.333761" y="112.563171" width="14.9677419" height="5.98298456"></rect>
                                    <path d="M133.307756,25.0847177 C133.307756,23.7489364 132.226345,22.6660716 130.892358,22.6660716 C129.558371,22.6660716 128.476961,23.7489364 128.476961,25.0847177 C128.476961,26.4204991 129.558371,27.5033638 130.892358,27.5033638 C132.226345,27.5033638 133.307756,26.4204991 133.307756,25.0847177 Z M129.282093,25.0847177 C129.282093,24.1941968 130.003033,23.472287 130.892358,23.472287 C131.781683,23.472287 132.502623,24.1941968 132.502623,25.0847177 C132.502623,25.9752386 131.781683,26.6971485 130.892358,26.6971485 C130.003033,26.6971485 129.282093,25.9752386 129.282093,25.0847177 Z" id="Oval-2" fill="#FFFFFF" fill-rule="nonzero"></path>
                                    <g id="Group-8" transform="translate(52.169695, 53.781643) rotate(12.000000) translate(-52.169695, -53.781643) translate(15.498728, 16.387990)" fill-rule="nonzero">
                                        <path d="M63.9200817,4.55242753 L4.59117703,66.1895419 L4.94898727,66.0667277 C4.06872186,65.9882855 3.10893955,66.2247188 2.19507202,67.0162463 C1.96823203,67.2127191 1.75266532,67.4390191 1.54989371,67.6964459 C0.193879453,69.4179612 0.383260119,72.0635866 1.99962673,73.5545421 C3.69904445,75.1221048 6.42181712,75.2094716 8.24324769,73.3449656 C8.56568295,73.014905 8.81687582,72.6231196 9.00498226,72.1841463 C9.32997528,71.4257286 9.43097797,70.6584173 9.41692958,70.0618778 C9.41630375,70.0394258 9.30786392,70.324968 9.30786392,70.324968 L68.448914,8.92677627 L68.1647007,9.05446073 C68.3279438,9.05046108 68.5945044,9.01923685 68.9310916,8.93823627 C69.4867513,8.80451532 70.0423061,8.57475242 70.5623389,8.22479345 C70.9518819,7.9626483 71.3058286,7.64222868 71.6151688,7.25895794 C73.0946904,5.42583903 72.5402259,2.88921164 71.1375746,1.53034583 C69.6903161,0.128265261 67.347953,-0.042810646 65.6403415,1.1400918 C65.1481869,1.48101886 64.7589154,1.87962087 64.464906,2.32394341 C63.9050507,3.17002645 63.7462448,4.04917476 63.8049202,4.78256982 C63.8086603,4.82931749 63.9200817,4.55242753 63.9200817,4.55242753 Z" id="Path-23" fill="#474747"></path>
                                        <path d="M70.555042,4.58811361 C70.555042,3.25233226 69.4736317,2.16946752 68.1396445,2.16946752 C66.8056573,2.16946752 65.724247,3.25233226 65.724247,4.58811361 C65.724247,5.92389495 66.8056573,7.00675969 68.1396445,7.00675969 C69.4736317,7.00675969 70.555042,5.92389495 70.555042,4.58811361 Z M66.5293795,4.58811361 C66.5293795,3.69759271 67.2503197,2.97568288 68.1396445,2.97568288 C69.0289693,2.97568288 69.7499095,3.69759271 69.7499095,4.58811361 C69.7499095,5.4786345 69.0289693,6.20054433 68.1396445,6.20054433 C67.2503197,6.20054433 66.5293795,5.4786345 66.5293795,4.58811361 Z" id="Oval-2-Copy-2" fill="#FFFFFF"></path>
                                        <path d="M7.46648627,70.453604 C7.46648627,69.1178227 6.38507598,68.0349579 5.05108878,68.0349579 C3.71710157,68.0349579 2.63569128,69.1178227 2.63569128,70.453604 C2.63569128,71.7893854 3.71710157,72.8722501 5.05108878,72.8722501 C6.38507598,72.8722501 7.46648627,71.7893854 7.46648627,70.453604 Z M3.44082378,70.453604 C3.44082378,69.5630831 4.16176397,68.8411733 5.05108878,68.8411733 C5.94041358,68.8411733 6.66135377,69.5630831 6.66135377,70.453604 C6.66135377,71.3441249 5.94041358,72.0660348 5.05108878,72.0660348 C4.16176397,72.0660348 3.44082378,71.3441249 3.44082378,70.453604 Z" id="Oval-2-Copy-2" fill="#FFFFFF"></path>
                                    </g>
                                    <g id="Group-7" transform="translate(112.127017, 36.621958) rotate(-2.000000) translate(-112.127017, -36.621958) translate(89.675404, 23.908116)" fill-rule="nonzero">
                                        <path d="M22.656519,18.1500831 L21.1382476,18.1500831 L19.2162698,17.2420417 L16.9679276,17.5792064 L7.71346768,8.44661067 L4.13961181,4.65225044 L0.155170356,7.33905834 L14.4029338,21.9813597 L14.2930568,21.7519203 C14.3538494,22.2323509 14.5768834,22.9227145 15.0726123,23.6149506 C15.6712915,24.4509465 16.538708,25.0543696 17.7058094,25.317696 C19.1708628,25.6482477 20.4220436,25.1684731 21.428884,24.182965 C21.699411,23.9181697 21.9315846,23.6354018 22.1262664,23.352171 C22.2445522,23.180084 22.325456,23.0433878 22.3691663,22.9593648 L22.178643,23.1401425 L31.5345695,18.8841046 L43.1511058,13.1682901 L36.1682473,11.3069536 L22.656519,18.1500831 Z" id="Path-20" fill="#474747"></path>
                                        <path d="M2.03659831,0.186548007 L3.51662758,4.06726261 L6.22278334,8.35373598 L8.28047946,6.17537982 L33.5851662,11.0942804 L33.5078642,13.3063997 C33.5078642,13.3063997 41.5189237,14.0170637 43.3106159,13.1093463 C44.8430625,12.3329693 43.4802808,8.25411659 43.4802808,8.25411659 L38.6573094,7.21463886 L2.03659831,0.186548007 Z" id="Path-21" fill="#474747"></path>
                                        <path d="M32.1915637,11.0595542 C32.3845031,11.0827171 32.6480583,11.139582 32.9036704,11.246561 C33.2656937,11.3980754 33.4487759,11.5860643 33.4487759,11.8088047 C33.4487759,12.443788 33.230034,12.6508481 32.129201,13.1567902 C31.8702847,13.2758435 31.8702847,13.2758435 31.611182,13.3951971 C31.3337418,13.5231128 31.3337418,13.5231128 31.0565499,13.6511433 C28.8919795,14.6513564 26.6052555,15.7229037 24.3400426,16.7944367 C23.5472398,17.169463 22.8137407,17.5177065 22.1575135,17.8302442 C21.9278111,17.9396433 21.7920632,18.0043865 21.548827,18.1205054 C21.3711906,18.2053815 21.3711906,18.2053815 21.3337391,18.22331 L21.8302857,18.3462831 C21.6716274,18.1328703 21.3773662,17.8311234 20.9476064,17.5324113 C20.4948439,17.2177107 19.9814297,16.9790661 19.4087728,16.8477988 C18.5946488,16.661181 17.8046384,16.7197512 17.0896832,16.9299944 C16.8402489,17.0033443 16.655155,17.0783944 16.5466814,17.1326555 L17.0145818,17.2116135 L8.18580722,8.1598285 C8.10561403,8.09013195 8.0176912,8.00087253 7.92941921,7.87944459 C7.68143519,7.53831497 7.63107071,7.22191988 7.85558087,6.90803826 C7.95688195,6.76641194 8.08901992,6.67938288 8.25482393,6.63339466 C8.43821534,6.5825283 8.6480684,6.5858292 8.84654194,6.62417494 C8.89959095,6.63442419 8.93570372,6.64389094 8.94942654,6.64826951 L32.1915637,11.0595542 Z M8.99907402,5.83255979 C8.68899876,5.77265223 8.36059052,5.76748651 8.03990092,5.85643457 C7.70375768,5.94966893 7.41443308,6.14022467 7.20102075,6.43859071 C6.73969925,7.08355191 6.84755803,7.76113244 7.27848223,8.35391664 C7.41060538,8.53566674 7.54307768,8.67015286 7.63999533,8.75107883 L16.4385892,17.7749275 L16.6437786,17.9853 L16.9064896,17.8538855 C16.9744385,17.8198959 17.1158205,17.7625697 17.3165461,17.7035433 C17.9085568,17.5294538 18.5627965,17.4809494 19.2291113,17.6336856 C19.6961795,17.7407493 20.1164099,17.9360803 20.4885007,18.1947086 C20.6941427,18.3376437 20.8716462,18.4905851 21.019844,18.6425528 C21.1059385,18.7308375 21.1611316,18.7963284 21.1844584,18.8277055 L21.3822169,19.0937123 L21.6810051,18.9506785 C21.7181323,18.9329052 21.7181323,18.9329052 21.8954161,18.8481976 C22.138284,18.7322545 22.2738907,18.6675786 22.5033317,18.558304 C23.1589431,18.2460595 23.8918079,17.8981172 24.6839469,17.5234049 C26.9471392,16.4528278 29.2317624,15.3822649 31.3939019,14.3831751 C31.6707289,14.2553131 31.6707289,14.2553131 31.9477862,14.1275739 C32.2065227,14.008389 32.2065227,14.008389 32.4650555,13.8895121 C33.825581,13.2642155 34.2539084,12.8587627 34.2539084,11.8088047 C34.2539084,11.1880118 33.8426683,10.7657502 33.2141544,10.5027039 C32.8754442,10.3609466 32.544677,10.2895799 32.3121697,10.2629854 L9.14656572,5.86812357 C9.15145559,5.86657628 9.08508188,5.84917679 8.99907402,5.83255979 Z" id="Path-22" fill="#474747"></path>
                                        <path d="M20.8491016,22.6445993 C20.8491016,21.308818 19.7676913,20.2259533 18.4337041,20.2259533 C17.0997169,20.2259533 16.0183066,21.308818 16.0183066,22.6445993 C16.0183066,23.9803807 17.0997169,25.0632454 18.4337041,25.0632454 C19.7676913,25.0632454 20.8491016,23.9803807 20.8491016,22.6445993 Z M16.8234391,22.6445993 C16.8234391,21.7540784 17.5443793,21.0321686 18.4337041,21.0321686 C19.3230289,21.0321686 20.0439691,21.7540784 20.0439691,22.6445993 C20.0439691,23.5351202 19.3230289,24.2570301 18.4337041,24.2570301 C17.5443793,24.2570301 16.8234391,23.5351202 16.8234391,22.6445993 Z" id="Oval-2-Copy" fill="#FFFFFF"></path>
                                    </g>
                                    <path d="M40.330341,108.164418 L51.1581287,110.329398 L63.5105826,89.0426957 L101.926506,22.8085605 L100.878334,16.2651756 L104.616808,9.08859632 C105.125161,8.11273431 104.708004,7.63981066 103.667641,8.03897626 L98.1458105,10.157587 C97.6269566,10.3566604 96.9771827,10.9114693 96.7059956,11.3770511 L40.330341,108.164418 Z" id="Combined-Shape" fill="#474747" fill-rule="nonzero" transform="translate(72.403985, 59.257554) rotate(21.000000) translate(-72.403985, -59.257554) "></path>
                                    <polygon id="Path-36" fill="#474747" fill-rule="nonzero" points="5.03117316 83.3767432 4.06295114 83.3767432 4.06295114 83.8231789 4.06295114 93.6554765 5.99939519 93.6554765 11.2588501 94.0719898 21.0696697 94.0719898 21.0696697 84.2696146 21.0696697 83.3767432"></polygon>
                                    <path d="M166.307954,138.657823 C166.307954,137.929251 166.307954,139.52805 166.307954,136.613763 L166.307954,128.599472 L166.307954,117.84461 C166.307954,115.827174 165.496704,114.419873 164.153378,113.551798 C163.686231,113.249922 163.188163,113.036495 162.690132,112.895366 C162.388944,112.810018 162.150735,112.76721 162.005573,112.752411 C161.945171,112.742664 161.789109,112.718722 161.562597,112.683848 C161.184999,112.625712 160.746964,112.558014 160.253527,112.481443 C158.84363,112.262658 157.27257,112.016659 155.580648,111.748966 C150.746685,110.984145 145.912767,110.198759 141.401412,109.436983 C141.092565,109.384832 140.786066,109.33293 140.481983,109.281286 C135.174371,108.379865 132.035612,109.432372 130.632475,111.789547 C130.298853,112.35001 130.091575,112.947461 129.985985,113.552205 C129.915052,113.958459 129.897991,114.313878 129.911557,114.591116 C129.914602,114.643824 129.914453,138.657823 129.914453,138.657823 L166.307954,138.657823 Z" id="Path-17" fill="#383838" fill-rule="nonzero"></path>
                                    <path d="M137.984781,131.902335 C137.984781,132.124965 138.165016,132.305442 138.387348,132.305442 L157.480252,132.305442 C157.702583,132.305442 157.882818,132.124965 157.882818,131.902335 L157.882818,121.329382 C157.882818,121.106752 157.702583,120.926274 157.480252,120.926274 L138.387348,120.926274 C138.165016,120.926274 137.984781,121.106752 137.984781,121.329382 L137.984781,131.902335 Z" id="Path-18" fill="#585858" fill-rule="nonzero"></path>
                                    <path d="M137.984781,131.902335 C137.984781,132.124965 138.165016,132.305442 138.387348,132.305442 L157.480252,132.305442 C157.702583,132.305442 157.882818,132.124965 157.882818,131.902335 L157.882818,121.329382 C157.882818,121.106752 157.702583,120.926274 157.480252,120.926274 L138.387348,120.926274 C138.165016,120.926274 137.984781,121.106752 137.984781,121.329382 L137.984781,131.902335 Z" id="Path-18" fill="#585858" fill-rule="nonzero"></path>
                                    <path d="M142.03231,127.032448 C142.03231,127.090976 142.133992,127.138422 142.259424,127.138422 L153.031002,127.138422 C153.156433,127.138422 153.258116,127.090976 153.258116,127.032448 L153.258116,124.252903 C153.258116,124.194376 153.156433,124.14693 153.031002,124.14693 L142.259424,124.14693 C142.133992,124.14693 142.03231,124.194376 142.03231,124.252903 L142.03231,127.032448 Z" id="Path-18" fill="#FF7439" fill-rule="nonzero"></path>
                                    <path d="M29.878911,101.475674 L30.2084578,101.475674 L30.611024,101.475674 L30.611024,101.072566 L30.611024,99.9046337 L30.2084578,100.307741 L31.5300526,100.307741 C31.7554245,100.315641 32.021088,100.305392 32.3269159,100.265121 C32.7871666,100.204516 33.2428891,100.08662 33.6727677,99.8964794 C35.0524197,99.2862413 35.8927308,98.0676295 35.8927308,96.1573692 C35.8927308,94.2558589 35.0762501,92.994549 33.731606,92.298039 C33.2670711,92.0574154 32.7732516,91.9030359 32.2800507,91.8163738 C31.9826703,91.7641201 31.7478379,91.7458218 31.6049618,91.745168 C31.1506733,91.7451638 31.1506733,91.7451638 29.3408775,91.7451638 L24.3639393,91.7451638 L21.9759719,91.7451638 C20.2616688,91.7451638 19.2277292,91.2602151 18.6880211,90.4694663 C18.3850356,90.0255496 18.2865356,89.5725114 18.2933046,89.260816 C18.2933376,89.2596502 17.9859214,80.688157 17.9859214,80.688157 C17.9859214,80.688157 15.7710186,82.1210282 14.6471718,82.2047435 C13.626736,82.2807558 11.5530735,81.1673396 11.5530735,81.1673396 L0.80542145,96.1573692 L0.48167822,100.669458 L29.8058915,101.072566 L30.2084578,100.669458 L0.48167822,100.669458 L0.88424447,101.072566 L0.88424447,96.3666579 L0.80542145,96.6062492 L12.20056,81.1673396 L11.5530735,80.688157 L0.157934991,96.1270666 L0.0791119708,96.2338614 L0.0791119708,96.3666579 L0.0791119708,101.072566 L0.0791119708,101.475674 L0.48167822,101.475674 L24.1379684,101.475674 L24.1379684,102.917728 L24.1379684,103.320835 L24.5405347,103.320835 L28.9368734,103.320835 L29.0362209,103.320835 L29.124162,103.274553 L29.6636333,102.990636 L29.878911,102.877338 L29.878911,102.633811 L29.878911,101.475674 Z" id="Combined-Shape" fill="#474747" fill-rule="nonzero"></path>
                                    <path d="M34.3626739,96.1755888 C34.3626739,94.8398075 33.2812636,93.7569427 31.9472764,93.7569427 C30.6132892,93.7569427 29.5318789,94.8398075 29.5318789,96.1755888 C29.5318789,97.5113702 30.6132892,98.5942349 31.9472764,98.5942349 C33.2812636,98.5942349 34.3626739,97.5113702 34.3626739,96.1755888 Z M30.3370114,96.1755888 C30.3370114,95.2850679 31.0579516,94.5631581 31.9472764,94.5631581 C32.8366012,94.5631581 33.5575414,95.2850679 33.5575414,96.1755888 C33.5575414,97.0661097 32.8366012,97.7880195 31.9472764,97.7880195 C31.0579516,97.7880195 30.3370114,97.0661097 30.3370114,96.1755888 Z" id="Oval-2-Copy-3" fill="#FFFFFF" fill-rule="nonzero"></path>
                                </g>
                            </g>
                        </g>
                        <g id="接头" transform="translate(178.922174, 102.551408)">
                            <g id="big-screw" transform="translate(12.489923, 9.193511)">
                                <rect id="Rectangle-46" fill="#595959" x="0" y="3.64643438" width="10.9563871" height="1.82321719"></rect>
                                <rect id="Rectangle-44" fill="#636363" x="4.49032258" y="0" width="2.03350066" height="3.64643438"></rect>
                                <rect id="lines" fill="#4C4C4C" x="1.28511356" y="3.64643438" width="1" height="1.82321719"></rect>
                                <rect id="lines" fill="#4C4C4C" x="3.11117808" y="3.64643438" width="1" height="1.82321719"></rect>
                                <rect id="lines" fill="#4C4C4C" x="4.9372426" y="3.64643438" width="1" height="1.82321719"></rect>
                                <rect id="lines" fill="#4C4C4C" x="6.76330711" y="3.64643438" width="1" height="1.82321719"></rect>
                                <rect id="lines" fill="#4C4C4C" x="8.58937163" y="3.64643438" width="1" height="1.82321719"></rect>
                            </g>
                            <polygon id="Path-15" fill="#484848" points="0.0763982449 0.482249657 0.0763982449 4.76766031 4.61833821 10.9659691 23.9483871 10.9635808 23.9483871 0.523515225"></polygon>
                        </g>
                        <g id="Arrow" transform="translate(192.410086, 137.581151) rotate(-31.000000) translate(-192.410086, -137.581151) translate(179.910086, 124.581151)" fill="#484848">
                            <polygon id="Triangle-3" stroke="#484848" stroke-width="0.5" transform="translate(21.351672, 3.862934) rotate(45.000000) translate(-21.351672, -3.862934) " points="21.3516718 1.65753026 23.5570756 6.06833781 19.146268 6.06833781"></polygon>
                            <rect id="Rectangle-34" transform="translate(10.199988, 15.501695) rotate(-45.000000) translate(-10.199988, -15.501695) " x="-3.72497318" y="15.0016954" width="27.8499215" height="1"></rect>
                        </g>
                        <path d="M206.636364,119.620705 C208.727767,119.028649 210,118.23207 210,117.307222 C210,115.646418 205.897362,114.399248 200.315718,114.007296 L200.315718,114.707345 C205.010366,115.070374 208.363636,116.065593 208.363636,117.062236 C208.363636,117.494374 207.733211,117.926244 206.636364,118.306428 L206.636364,117.100342 L200.909091,119.550171 L206.636364,122 L206.636364,119.620705 Z M196.909091,119.559453 L196.909091,120.735552 C196.773205,120.736504 196.636831,120.736983 196.5,120.736983 C189.07634,120.736983 183,119.328416 183,117.307222 C183,115.638589 187.089145,114.390663 192.818182,114 L192.818182,114.695274 C187.957066,115.054138 184.636364,116.097247 184.636364,117.062236 C184.636364,118.312771 189.915711,119.561062 196.5,119.561062 C196.63694,119.561062 196.773316,119.560522 196.909091,119.559453 Z" id="Spin-Arrows" fill="#E89494" fill-rule="nonzero"></path>
                        <path d="M249.192686,106.568733 L257.15881,106.568733 L257.15881,111.638085 L249.192686,111.638085 L249.192686,113.532373 C249.192686,114.086029 248.842264,114.242839 248.419421,113.890469 L243.448213,109.747796 C243.021151,109.391911 243.02537,108.811391 243.448213,108.459022 L248.419421,104.316348 C248.846484,103.960463 249.192686,104.111254 249.192686,104.674445 L249.192686,106.568733 Z M258.607196,106.568733 L260.055582,106.568733 L260.055582,111.638085 L258.607196,111.638085 L258.607196,106.568733 Z M261.503968,106.568733 L262.952354,106.568733 L262.952354,111.638085 L261.503968,111.638085 L261.503968,106.568733 Z M264.40074,106.568733 L265.849126,106.568733 L265.849126,111.638085 L264.40074,111.638085 L264.40074,106.568733 Z" id="Green-Arrow_forward" fill="#52BF53" transform="translate(254.424563, 109.103449) scale(-1, 1) translate(-254.424563, -109.103449) "></path>
                        <g id="suction-cup" transform="translate(200.080645, 103.965969)">
                            <path d="M19.0160671,21.713303 L19.0160671,21.4094558 L17.4567611,21.4094558 L17.0541948,21.4094558 L17.0541948,21.0063481 L17.0541948,12.8784683 L10.1939026,12.8784683 L9.79133638,12.8784683 L9.79133638,12.4753607 L9.79133638,11.0603067 L9.79133638,10.6571991 L10.1939026,10.6571991 L18.7263467,10.6571991 L18.7263467,9.85926096 L23.7942197,10.1092519 L23.7942197,10.6571991 L28.2873155,10.6571991 L28.6898817,10.6571991 L28.6898817,11.0603067 L28.6898817,12.4753607 L28.6898817,12.8784683 L28.2873155,12.8784683 L25.4353056,12.8784683 L25.4353056,14.1930969 L29.5988955,14.1930969 L30.0014618,14.1930969 L30.0014618,14.5962046 L30.0014618,19.0993118 L30.0014618,19.5009845 L29.6003311,19.5024169 L26.2059171,19.5145382 L26.6069534,19.120162 L26.5767998,20.5142158 L26.5682693,20.9085945 L26.1743279,20.9085945 L25.4353056,20.9085945 L25.4353056,21.0063481 L25.4353056,21.4094558 L25.0327394,21.4094558 L23.7942197,21.4094558 L23.7942197,21.713303 L26.7977974,21.713303 L27.1998912,21.713303 L27.2003633,22.1159374 L27.2060886,26.9986961 L27.2065618,27.4022771 L26.8035226,27.4022771 L15.8389316,27.4022771 L15.4363654,27.4022771 L15.4363654,26.9991694 L15.4363654,22.1164107 L15.4363654,21.713303 L15.8389316,21.713303 L19.0160671,21.713303 Z" id="Combined-Shape" fill="#474747" fill-rule="nonzero"></path>
                            <path d="M16.0204798,31.9728276 C16.0204798,32.0987709 16.0792637,32.2174766 16.1793819,32.2937073 L17.0999109,32.9946044 L17.0995854,32.3530931 L15.6769751,33.4385646 C15.4614329,33.6030264 15.4664502,33.9294532 15.6869448,34.0871948 L17.2636537,35.2151706 L17.1922933,34.6245171 L15.4282845,36.6809933 C15.222663,36.9207063 15.3599135,37.2933425 15.6717328,37.3419571 C15.7732273,37.3577807 15.9592636,37.3851916 16.2151856,37.4203263 C16.6408233,37.4787606 17.1069335,37.5371707 17.5989107,37.5916902 C18.5035331,37.6919379 19.3911028,37.7674836 20.2243876,37.8082776 C20.6702097,37.8301031 21.0930681,37.8415166 21.4895278,37.8415166 C22.632322,37.8415166 23.7264207,37.786036 24.7343607,37.6935238 C25.0876532,37.6610975 25.4052,37.6263176 25.6822979,37.5914779 C25.8497446,37.5704247 25.967278,37.553901 26.0301865,37.5441969 C26.221445,37.5146938 26.3646784,37.3530992 26.3712295,37.1594354 L26.4243234,35.5898643 C26.4283802,35.4699382 26.3788701,35.3544368 26.2892575,35.2747705 L25.5799837,34.6442206 L25.63401,35.1885402 L26.7510847,33.7067831 C26.8955038,33.5152167 26.8417825,33.2405035 26.6358733,33.1176297 L25.2982974,32.3194476 L25.2744734,33.0251555 L26.4646749,32.419996 C26.5998321,32.3512752 26.6849808,32.212356 26.6849808,32.0605693 L26.6849808,26.9603286 L16.8256123,27.1122611 L16.0204798,27.1122611 L16.0204798,31.9728276 Z" id="Path-51" fill="#DDDDDD" fill-rule="nonzero"></path>
                            <rect id="Rectangle-50" fill="#484848" x="0.306045014" y="3.56842375" width="10.4774194" height="4.48723842"></rect>
                            <rect id="Rectangle-17" fill="#484848" x="9.47741935" y="0" width="26.9419355" height="10.470223"></rect>
                        </g>
                    </g>
                </g>
            </g>
        </g>
    </g>
</svg>