<?xml version="1.0" encoding="UTF-8" standalone="no"?>
<svg width="205px" height="150px" viewBox="0 0 205 150" version="1.1" xmlns="http://www.w3.org/2000/svg" xmlns:xlink="http://www.w3.org/1999/xlink">
    <!-- Generator: Sketch 43.1 (39012) - http://www.bohemiancoding.com/sketch -->
    <title>Pro_laser</title>
    <desc>Created with Sketch.</desc>
    <defs></defs>
    <g id="YCH-WORKS" stroke="none" stroke-width="1" fill="none" fill-rule="evenodd">
        <g id="uArm-Studio_画板Redesign" transform="translate(-931.000000, -1286.000000)">
            <g id="Popout_tips_hardware-installation-guide" transform="translate(382.000000, 1169.000000)">
                <g id="Drag_laser-down" transform="translate(547.000000, 111.000000)">
                    <g id="Pro_laser" transform="translate(0.000000, 1.000000)">
                        <g id="Arrow_btm" transform="translate(153.547656, 130.757892) rotate(20.000000) translate(-153.547656, -130.757892) translate(141.047656, 117.757892)" fill="#484848">
                            <polygon id="Triangle-3" stroke="#484848" stroke-width="0.5" transform="translate(21.351672, 3.862934) rotate(45.000000) translate(-21.351672, -3.862934) " points="21.3516718 1.65753026 23.5570756 6.06833781 19.146268 6.06833781"></polygon>
                            <rect id="Rectangle-34" transform="translate(10.199988, 15.501695) rotate(-45.000000) translate(-10.199988, -15.501695) " x="-3.72497318" y="15.0016954" width="27.8499215" height="1"></rect>
                        </g>
                        <g id="Arrow_top" transform="translate(190.410086, 60.581151) rotate(-210.000000) translate(-190.410086, -60.581151) translate(177.910086, 47.581151)" fill="#484848">
                            <polygon id="Triangle-3" stroke="#484848" stroke-width="0.5" transform="translate(21.351672, 3.862934) rotate(45.000000) translate(-21.351672, -3.862934) " points="21.3516718 1.65753026 23.5570756 6.06833781 19.146268 6.06833781"></polygon>
                            <rect id="Rectangle-34" transform="translate(10.199988, 15.501695) rotate(-45.000000) translate(-10.199988, -15.501695) " x="-3.72497318" y="15.0016954" width="27.8499215" height="1"></rect>
                        </g>
                        <path d="M178.602694,120.916163 C173.795087,120.809788 170,119.852452 170,118.51249 C170,117.338267 172.877546,116.460096 176.909091,116.185185 L176.909091,116.674452 C173.488306,116.926986 171.151515,117.661026 171.151515,118.340092 C171.151515,119.162493 174.396155,119.983516 178.602694,120.087479 L178.602694,119.366907 L182.632997,121.090861 L178.602694,122.814815 L178.602694,120.916163 Z M185.632876,119.499221 C187.009986,119.175881 187.848485,118.758165 187.848485,118.340092 C187.848485,117.63875 185.488776,116.938411 182.185135,116.682946 L182.185135,116.190319 C186.112959,116.466138 189,117.343776 189,118.51249 C189,119.230249 187.911086,119.838222 186.160923,120.264428 L185.632876,119.499221 Z" id="Spin-Arrows" fill="#E89494" fill-rule="nonzero"></path>
                        <g id="Drag_laser-down">
                            <g id="drag-uArm">
                                <g id="Group-30" transform="translate(96.379908, 77.500000) scale(-1, 1) translate(-96.379908, -77.500000) translate(0.879908, 0.000000)">
                                    <g id="Group" transform="translate(0.047443, 0.700322)">
                                        <path d="M133.684163,127.481517 C134.000378,127.531916 134.373669,127.588013 134.802129,127.64838 C136.024642,127.820623 137.444947,127.992775 139.047806,128.153394 C143.624752,128.612039 148.748803,128.887168 154.298081,128.887168 C159.846052,128.887168 164.968861,128.638348 169.544614,128.223566 C171.146976,128.078315 172.566799,127.92264 173.78884,127.76689 C174.217084,127.712309 174.590162,127.661592 174.906167,127.616032 C175.096522,127.588588 175.225989,127.568888 175.292664,127.558226 L175.628364,127.163222 L175.628364,115.570676 L175.093215,115.195019 C175.028205,115.218886 173.760145,114.033408 173.36878,114.103316 C172.69376,114.223891 172.119152,113.627037 170.82949,113.740689 C167.126258,114.06704 136.035016,114.2235 135.368045,114.103316 C134.982005,114.033754 133.640109,115.222146 133.577941,115.198837 L133.040246,115.571006 L132.967806,127.021052 L133.29708,127.417516 C133.363948,127.429336 133.493611,127.451147 133.684163,127.481517 Z" id="Path-12" fill="#666666" fill-rule="nonzero"></path>
                                        <rect id="Rectangle-12" fill="#383838" x="132.592356" y="113.01722" width="43.2939427" height="15.8308935"></rect>
                                        <path d="M184.438598,149.91527 L184.438598,126.16893 L125.401403,126.16893 L125.401403,149.91527 L120.799767,149.91527 L120.799767,153.872993 L189.676494,153.872993 L189.676494,149.91527 L184.438598,149.91527 Z" id="Combined-Shape" fill="#484848"></path>
                                        <path d="M126.284698,106.593119 C126.284698,106.814022 126.433925,106.9931 126.618006,106.9931 L142.426136,106.9931 C142.610217,106.9931 142.759444,106.814022 142.759444,106.593119 L142.759444,96.1021618 C142.759444,95.8812582 142.610217,95.7021804 142.426136,95.7021804 L126.618006,95.7021804 C126.433925,95.7021804 126.284698,95.8812582 126.284698,96.1021618 L126.284698,106.593119 Z" id="Path-18-Copy" fill="#474747" fill-rule="nonzero"></path>
                                        <path d="M157.835884,113.447507 C157.835884,112.724585 157.835884,114.310985 157.835884,111.419299 L157.835884,103.467161 L157.835884,92.7957052 C157.835884,90.7939154 157.278287,89.3975287 156.354978,88.5361858 C156.033893,88.2366506 155.691556,88.0248791 155.349244,87.8848446 C155.142229,87.8001579 154.978501,87.7576825 154.878726,87.7429974 C154.83721,87.7333269 154.729944,87.7095705 154.574255,87.6749666 C154.314721,87.6172816 154.013646,87.5501083 153.674492,87.4741314 C152.705427,87.2570425 151.625589,87.0129515 150.46268,86.7473345 C147.14015,85.9884447 143.817651,85.20915 140.716859,84.4532819 C140.504579,84.4015352 140.293913,84.3500355 140.084908,84.298792 C136.436824,83.4043618 134.27946,84.4487066 133.315041,86.7876015 C133.085733,87.3437177 132.943264,87.9365353 132.870689,88.5365892 C132.821935,88.9396924 132.810208,89.2923552 132.819532,89.5674428 C132.821625,89.6197426 132.821522,113.447507 132.821522,113.447507 L157.835884,113.447507 Z" id="Path-17-Copy" fill="#383838" fill-rule="nonzero"></path>
                                        <path d="M151.914436,110.610715 L144.955084,110.610715 L95.7499921,35.381372 C95.7499921,35.381372 91.3692664,28.5852863 94.4348492,26.1954511 C97.5004321,23.8056159 100.734611,23.9212326 100.734611,23.9212326 L147.12888,95.5982545 L151.914436,110.610715 Z" id="Path-6" fill="#606060"></path>
                                        <path d="M93.4216293,104.047293 L105.218212,107.917557 L152.463547,45.5937138 L152.200894,38.8571461 L158.046206,30.4075854 C158.987033,29.0475946 158.624922,27.2038529 157.237268,26.2893808 L155.357017,25.0502838 C153.969426,24.135853 152.049476,24.473704 151.066152,25.8083364 L93.4216293,104.047293 Z" id="Combined-Shape" fill="#474747" fill-rule="nonzero" transform="translate(125.995611, 66.226929) rotate(-70.000000) translate(-125.995611, -66.226929) "></path>
                                        <g id="Group-7" transform="translate(100.451040, 19.968513) rotate(6.000000) translate(-100.451040, -19.968513) translate(81.951040, 7.468513)" fill-rule="nonzero">
                                            <path d="M21.9442554,16.7791779 L21.5357874,17.6341895 L19.9764331,16.7331902 L18.1753977,17.1761132 L9.24472091,7.36164718 L3.69146165,3.20236312 L0.404362194,5.87415042 L16.9239297,22.0609503 C16.9732524,22.537655 18.2914055,24.4850733 20.6387161,24.4341943 C21.1769502,24.4225278 22.0780906,23.9400731 22.3373946,22.795934 C22.3777789,22.6177447 22.4990027,22.4895455 22.5344661,22.4061742 L22.3798893,22.5855499 L35.3765067,12.497943 L30.1166732,9.94550771 L21.9442554,16.7791779 Z" id="Path-20" fill="#474747"></path>
                                            <path d="M3.15782725,0.185101281 L1.73937189,3.77491587 L6.50199564,8.28895071 L8.14580314,6.12748824 L28.3606606,11.0082416 L28.2989072,13.2032053 C28.2989072,13.2032053 34.6986081,13.9083579 36.1299161,13.0076801 C37.3541238,12.2373241 34.8728227,7.89573331 34.8728227,7.89573331 L32.4125839,7.15868757 L3.15782725,0.185101281 Z" id="Path-21" fill="#474747"></path>
                                            <path d="M33.335747,10.9737846 C33.5266671,10.9967679 33.7874638,11.0531918 34.0404006,11.1593412 C34.3986349,11.3096805 34.5798009,11.4962116 34.5798009,11.7172246 C34.5798009,12.3472834 34.3633484,12.5527377 33.274037,13.0547561 C33.0178306,13.1728861 33.0178306,13.1728861 32.7614398,13.2913141 C32.4869033,13.4182377 32.4869033,13.4182377 32.2126125,13.5452754 C30.0706971,14.5377316 27.8079065,15.6009687 25.5664019,16.6641918 C24.7818969,17.0363096 24.0560747,17.3818524 23.4067158,17.6919663 C23.1794175,17.800517 22.6286227,18.0641943 22.5915632,18.0819838 L22.8963282,18.4331641 C22.7393305,18.2214064 21.6169283,16.7355795 20.2692858,16.774529 C18.722886,16.819223 18.2893011,17.3880791 18.1819628,17.4419194 L18.5987701,17.3980214 L9.581241,8.09654704 C9.50188714,8.02739101 9.41488452,7.93882381 9.32753642,7.81833758 C9.08214786,7.47985349 9.03231051,7.16591212 9.25447088,6.85446474 C9.35471172,6.71393677 9.4854667,6.62758263 9.64953536,6.58195106 C9.83100735,6.53147919 10.038664,6.53475449 10.2350603,6.57280285 C10.2875541,6.58297261 10.3232889,6.59236595 10.3368681,6.59671055 L33.335747,10.9737846 Z M10.3859959,5.78732687 C10.079166,5.7278839 9.75419498,5.72275824 9.4368618,5.81101649 C9.10423671,5.9035278 8.81794026,6.09260573 8.60676156,6.38865787 C8.15026837,7.02861724 8.25699828,7.70094296 8.68341231,8.28912998 C8.81415263,8.46947056 8.94523843,8.60291371 9.04114173,8.68321207 L17.7476472,17.6370786 L17.9506891,17.8458196 L18.2106505,17.7154243 C18.2778882,17.6816982 18.4177904,17.6248166 18.6164152,17.566248 C19.2022298,17.3935086 19.849622,17.3453804 20.508963,17.496932 C20.9711427,17.6031655 21.3869749,17.7969816 21.7551713,18.0536042 C21.958661,18.1954308 22.1343067,18.3471861 22.2809534,18.4979753 C22.3661469,18.5855753 22.4207623,18.6505583 22.4438449,18.681692 L22.6395336,18.9456359 L22.9351946,18.8037114 C22.9719333,18.7860759 22.9719333,18.7860759 23.1473615,18.7020252 C23.3876876,18.5869813 23.521875,18.522807 23.7489146,18.4143798 C24.3976642,18.1045569 25.1228586,17.759313 25.9067069,17.3875066 C28.146212,16.3252321 30.4069238,15.2629717 32.5464337,14.2716301 C32.8203634,14.1447597 32.8203634,14.1447597 33.094521,14.0180112 C33.3505495,13.8997505 33.3505495,13.8997505 33.6063764,13.7817956 C34.9526622,13.1613483 35.3765067,12.7590399 35.3765067,11.7172246 C35.3765067,11.1012461 34.9695707,10.6822591 34.347635,10.4212529 C34.0124698,10.2805949 33.6851645,10.2097817 33.4550907,10.1833935 L10.531944,5.82261484 C10.5367826,5.82107955 10.4711036,5.803815 10.3859959,5.78732687 Z" id="Path-22" fill="#474747"></path>
                                            <path d="M22.5317386,20.5601043 C22.5317386,19.2346823 21.7923655,18.1602155 20.8803025,18.1602155 C19.9682396,18.1602155 19.2288664,19.2346823 19.2288664,20.5601043 C19.2288664,21.8855264 19.9682396,22.9599932 20.8803025,22.9599932 C21.7923655,22.9599932 22.5317386,21.8855264 22.5317386,20.5601043 Z M19.7793451,20.5601043 C19.7793451,19.6764897 20.2722605,18.9601784 20.8803025,18.9601784 C21.4883445,18.9601784 21.9812599,19.6764897 21.9812599,20.5601043 C21.9812599,21.443719 21.4883445,22.1600303 20.8803025,22.1600303 C20.2722605,22.1600303 19.7793451,21.443719 19.7793451,20.5601043 Z" id="Oval-2-Copy" fill="#FFFFFF" transform="translate(20.880303, 20.560104) rotate(-19.000000) translate(-20.880303, -20.560104) "></path>
                                        </g>
                                        <polygon id="Path-4" fill="#484848" transform="translate(140.163092, 58.729131) rotate(-11.000000) translate(-140.163092, -58.729131) " points="121.354197 18.4074483 154.643281 100.013125 158.971986 100.06851 125.423173 17.3897527"></polygon>
                                        <polygon id="Path-5" fill="#484848" transform="translate(126.714729, 40.316227) rotate(-7.000000) translate(-126.714729, -40.316227) " points="123.378152 31.9051574 121.635033 35.6421029 125.478667 44.7590033 131.794426 48.7272972"></polygon>
                                        <path d="M121.340269,25.186024 L117.676899,24.7556355 C117.676899,24.7556355 114.572182,24.06038 115.190517,18.2047109 C107.612007,15.3910094 100.17047,12.3724077 100.17047,12.3724077 L100.894143,10.5505278 L117.676899,15.8805477 L118.419161,20.2837782 L121.340269,25.186024 Z" id="Path-11" fill="#636363"></path>
                                        <path d="M101.454316,11.7511735 L118.911196,11.7511735 C118.911196,11.7511735 122.356322,11.8065687 123.61987,13.4483076 C124.883418,15.0900465 126.295803,20.2799493 124.059934,21.1851515 C121.406325,22.2594784 119.938829,20.3968158 119.170007,19.7366406 C118.401184,19.0764654 117.182701,16.054427 117.182701,16.054427 L99.6820253,16.358657 L101.454316,11.7511735 Z" id="Rectangle-14" fill="#505050" transform="translate(112.459413, 16.631561) rotate(22.000000) translate(-112.459413, -16.631561) "></path>
                                        <path d="M119.943901,18.6550582 L125.868335,18.6550582 L125.868335,21.6233507 L119.943901,21.6233507 C119.943901,21.6233507 119.333326,21.2914522 119.333326,20.1392044 C119.333326,18.9869567 119.943901,18.6550582 119.943901,18.6550582 Z" id="Rectangle-10" fill="#4C4C4C"></path>
                                        <g id="Group-9" transform="translate(145.325711, 52.401663) rotate(-8.000000) translate(-145.325711, -52.401663) translate(123.825711, 11.401663)">
                                            <polygon id="Path-4" fill="#484848" points="3.25587305 6.66555248 37.8932487 81.8313222 42.9809311 81.8867072 8.03828685 5.64785688"></polygon>
                                            <path d="M6.07879595,11.2795647 C8.53277697,11.2795647 9.31197826,7.45225947 9.21271656,5.35812733 C9.11345485,3.26399519 7.49721441,0.998933103 5.37704311,1.00186921 C3.25687182,1.00480531 1.63547025,3.21620304 1.63547025,6.08505275 C1.63547025,8.95390247 3.62481493,11.2795647 6.07879595,11.2795647 Z" id="Oval-4" fill="#484848" transform="translate(5.428230, 6.140716) rotate(-17.000000) translate(-5.428230, -6.140716) "></path>
                                            <path d="M8.11798885,6.05434263 C8.11798885,4.72892059 7.37861574,3.65445373 6.46655279,3.65445373 C5.55448983,3.65445373 4.81511672,4.72892059 4.81511672,6.05434263 C4.81511672,7.37976466 5.55448983,8.45423152 6.46655279,8.45423152 C7.37861574,8.45423152 8.11798885,7.37976466 8.11798885,6.05434263 Z M5.36559541,6.05434263 C5.36559541,5.17072794 5.85851082,4.4544167 6.46655279,4.4544167 C7.07459476,4.4544167 7.56751017,5.17072794 7.56751017,6.05434263 C7.56751017,6.93795732 7.07459476,7.65426856 6.46655279,7.65426856 C5.85851082,7.65426856 5.36559541,6.93795732 5.36559541,6.05434263 Z" id="Oval-2-Copy-4" fill="#FFFFFF" fill-rule="nonzero" transform="translate(6.466553, 6.054343) rotate(-13.000000) translate(-6.466553, -6.054343) "></path>
                                        </g>
                                        <polygon id="Path-7" fill="#606060" points="100.16131 6.1170668 94.749035 7.42637223 28.8566853 96.3358592 36.8827486 96.3358592"></polygon>
                                        <path d="M37.9440265,99.7723449 L47.4359605,102.582196 L98.8699995,15.1020791 L97.8306102,8.60935949 L100.022834,4.60803327 C100.286411,4.1269433 100.046638,3.67717072 99.5149161,3.60708032 L95.1801843,3.03568532 C94.636092,2.96396424 93.9683766,3.2961087 93.6915427,3.77282805 L37.9440265,99.7723449 Z" id="Combined-Shape" fill="#474747" fill-rule="nonzero" transform="translate(69.037262, 52.804069) rotate(6.000000) translate(-69.037262, -52.804069) "></path>
                                        <path d="M173.520621,113.2956 C173.520621,112.572679 173.520621,114.159079 173.520621,111.267393 L173.520621,103.315255 L173.520621,92.643799 C173.520621,90.6420093 172.963024,89.2456225 172.039715,88.3842797 C171.718631,88.0847444 171.376294,87.8729729 171.033981,87.7329384 C170.826966,87.6482517 170.663238,87.6057763 170.563463,87.5910912 C170.521947,87.5814207 170.414681,87.5576643 170.258993,87.5230605 C169.999458,87.4653754 169.698383,87.3982022 169.359229,87.3222253 C168.390164,87.1051363 167.310326,86.8610453 166.147417,86.5954283 C162.824887,85.8365386 159.502388,85.0572438 156.401596,84.3013757 C156.189316,84.249629 155.97865,84.1981293 155.769645,84.1468858 C152.121562,83.2524556 149.964197,84.2968005 148.999778,86.6356953 C148.77047,87.1918115 148.628001,87.7846291 148.555426,88.384683 C148.506672,88.7877862 148.494945,89.1404491 148.504269,89.4155366 C148.506362,89.4678365 148.50626,113.2956 148.50626,113.2956 L173.520621,113.2956 Z" id="Path-17" fill="#383838" fill-rule="nonzero"></path>
                                        <path d="M152.944652,106.593119 C152.944652,106.814022 153.093879,106.9931 153.27796,106.9931 L169.08609,106.9931 C169.270171,106.9931 169.419398,106.814022 169.419398,106.593119 L169.419398,96.1021618 C169.419398,95.8812582 169.270171,95.7021804 169.08609,95.7021804 L153.27796,95.7021804 C153.093879,95.7021804 152.944652,95.8812582 152.944652,96.1021618 L152.944652,106.593119 Z" id="Path-18-Copy" fill="#474747" fill-rule="nonzero"></path>
                                        <path d="M167.755738,106.593119 C167.755738,106.814022 167.907202,106.9931 168.094043,106.9931 L184.139149,106.9931 C184.325989,106.9931 184.477454,106.814022 184.477454,106.593119 L184.477454,96.1021618 C184.477454,95.8812582 184.325989,95.7021804 184.139149,95.7021804 L168.094043,95.7021804 C167.907202,95.7021804 167.755738,95.8812582 167.755738,96.1021618 L167.755738,106.593119 Z" id="Path-18" fill="#656565" fill-rule="nonzero"></path>
                                        <path d="M174.298312,101.533613 C174.298312,101.591687 174.372099,101.638765 174.46312,101.638765 L182.279602,101.638765 C182.370623,101.638765 182.444409,101.591687 182.444409,101.533613 L182.444409,98.7756248 C182.444409,98.717551 182.370623,98.6704729 182.279602,98.6704729 L174.46312,98.6704729 C174.372099,98.6704729 174.298312,98.717551 174.298312,98.7756248 L174.298312,101.533613 Z" id="Path-18" fill="#FF7439" fill-rule="nonzero"></path>
                                        <polygon id="Path-10" fill="#383838" points="12.9261073 102.982323 7.20560652 102.982323 7.20560652 97.6778677 12.4906434 88.9785339"></polygon>
                                        <polygon id="Path-8" fill="#484848" points="21.5936176 82.1840556 14.2609974 82.1840556 14.2609974 96.3410753"></polygon>
                                        <path d="M12.4265042,84.0032313 C12.4265042,84.0032313 9.88093224,79.6588218 5.50608071,81.7588584 C1.13122919,83.8588951 3.18649556,95.4130133 3.18649556,95.4130133" id="Line" stroke="#B50B0B" stroke-linecap="square" transform="translate(7.565348, 88.299250) rotate(21.000000) translate(-7.565348, -88.299250) "></path>
                                        <polyline id="pCB" fill="#000000" points="17.1490609 86.1739964 10.6140512 85.9492064 10.6140512 95.7302677 17.1490609 96.0285291"></polyline>
                                        <rect id="Rectangle-55" fill="#4A4A4A" transform="translate(13.918408, 89.513135) rotate(3.000000) translate(-13.918408, -89.513135) " x="13.4184078" y="88.1101529" width="1" height="2.80596403"></rect>
                                        <ellipse id="Oval-8" fill="#383838" cx="12.0165168" cy="89.4911828" rx="1" ry="1"></ellipse>
                                        <g id="Group-5" transform="translate(13.933493, 87.187206) rotate(2.000000) translate(-13.933493, -87.187206) translate(11.433493, 86.187206)" fill="#7E5C16">
                                            <rect id="Rectangle-54" x="3.88461014" y="0.138936399" width="1" height="1"></rect>
                                            <rect id="Rectangle-54" x="2.94963305" y="0.138936399" width="1" height="1"></rect>
                                            <rect id="Rectangle-54" x="2.01465596" y="0.138936399" width="1" height="1"></rect>
                                            <rect id="Rectangle-54" x="1.07967887" y="0.138936399" width="1" height="1"></rect>
                                            <rect id="Rectangle-54" x="0.14470178" y="0.138936399" width="1" height="1"></rect>
                                        </g>
                                        <path d="M37.2839194,102.971168 L38.0801748,102.971168 L38.4452306,102.971168 L38.4452306,102.513626 L38.4452306,101.18798 L38.0801748,101.645522 L39.2786257,101.645522 C39.4829978,101.654488 39.7239073,101.642855 40.0012386,101.597147 C40.4186039,101.528358 40.831863,101.394542 41.2216863,101.178725 C42.4727847,100.486082 43.234797,99.1029128 43.234797,96.9346971 C43.234797,94.7764128 42.4943946,93.3447796 41.2750421,92.5542152 C40.8537918,92.2810985 40.4059855,92.105872 39.9587403,92.0075074 C39.6890693,91.9481975 39.4761181,91.9274283 39.346555,91.9266862 C38.9345963,91.9266814 38.9345963,91.9266814 37.2934342,91.9266814 L32.7802386,91.9266814 L30.6147779,91.9266814 C29.0602107,91.9266814 28.1226118,91.3762468 27.6331927,90.4787177 C27.3584389,89.9748559 27.2691169,89.4606409 27.2752553,89.1068551 C27.2752851,89.105532 26.9965135,79.3765715 26.9965135,79.3765715 C26.9965135,79.3765715 24.9879915,81.0029331 23.9688628,81.0979531 C23.0435095,81.1842297 21.1630674,79.9204614 21.1630674,79.9204614 L11.1232857,102.056084 L37.715119,102.513626 L38.0801748,102.056084 L11.1232857,102.056084 L11.4883416,102.513626 L21.7502221,79.9204614 L21.1630674,79.3765715 L11.1232857,96.4860044 L11.1232857,102.971168 L31.603063,102.971168 L31.603063,104.402039 L31.603063,104.80202 L32.0014159,104.80202 L36.3517414,104.80202 L36.4500491,104.80202 L36.5370697,104.756097 L37.0708949,104.474382 L37.2839194,104.361963 L37.2839194,104.120324 L37.2839194,102.971168 Z" id="Combined-Shape" fill="#474747" fill-rule="nonzero"></path>
                                        <path d="M37.715119,102.513626 L11.1232857,96.9346971 L14.1556743,92.0075074 C14.1556743,92.0075074 29.0602107,91.9266814 30.6147779,91.9266814 L32.7802386,91.9266814 L37.2934342,91.9266814 C38.9345963,91.9266814 38.9345963,91.9266814 39.346555,91.9266862 C39.4761181,91.9274283 39.6890693,91.9481975 39.9587403,92.0075074 C40.4059855,92.105872 40.8537918,92.2810985 41.2750421,92.5542152 C42.4943946,93.3447796 43.234797,94.7764128 43.234797,96.9346971 C43.234797,99.1029128 42.4727847,100.486082 41.2216863,101.178725 C40.831863,101.394542 40.4186039,101.528358 40.0012386,101.597147 C39.7239073,101.642855 39.4829978,101.654488 39.2786257,101.645522 L38.0801748,101.645522 L38.4452306,101.18798 L11.4883416,102.513626 L11.1232857,102.056084 L38.0801748,102.056084 L37.715119,102.513626 Z M31.603063,104.402039 L31.603063,102.883877 L37.2839194,102.60052 L37.2839194,104.120324 L37.2839194,104.361963 L37.0708949,104.474382 L36.5370697,104.756097 L36.4500491,104.80202 L36.3517414,104.80202 L32.0014159,104.80202 L31.603063,104.80202 L31.603063,104.402039 Z" id="Combined-Shape" fill="#474747" fill-rule="nonzero"></path>
                                        <path d="M42.0673592,96.7927083 C42.0673592,95.4672862 41.1389983,94.3928194 39.9938072,94.3928194 C38.8486161,94.3928194 37.9202553,95.4672862 37.9202553,96.7927083 C37.9202553,98.1181303 38.8486161,99.1925972 39.9938072,99.1925972 C41.1389983,99.1925972 42.0673592,98.1181303 42.0673592,96.7927083 Z M38.6114393,96.7927083 C38.6114393,95.9090936 39.2303465,95.1927823 39.9938072,95.1927823 C40.757268,95.1927823 41.3761752,95.9090936 41.3761752,96.7927083 C41.3761752,97.6763229 40.757268,98.3926342 39.9938072,98.3926342 C39.2303465,98.3926342 38.6114393,97.6763229 38.6114393,96.7927083 Z" id="Oval-2-Copy-3" fill="#FFFFFF" fill-rule="nonzero"></path>
                                        <g id="Group-8" transform="translate(53.681496, 43.363587) rotate(-2.000000) translate(-53.681496, -43.363587) translate(17.681496, 5.363587)" fill-rule="nonzero" fill="#474747">
                                            <path d="M4.35987723,67.4142399 L4.71394254,67.2923781 C3.84289021,67.2145442 2.89315323,67.449144 1.98885048,68.234533 C1.76438466,68.4294821 1.5551195,68.6576205 1.35042477,68.9094575 C0.358008861,70.1304316 0.429841367,73.1729724 2.72887451,74.9043747 C4.51307809,76.2480588 7.09115665,75.5577276 8.1306399,74.2780224 C9.18570999,72.9791282 8.8336892,71.6791401 8.8336892,71.6791401 L68.0827607,7.7494511 C68.0827607,7.7494511 69.0285844,7.99436453 69.5431744,7.64711958 C69.9286404,7.38700743 70.2788826,7.06907274 70.5849852,6.68877435 C72.0490217,4.86987173 71.8747652,1.92855385 70.1123896,1.00458903 C68.3500139,0.0806242144 66.4197786,0.270790295 65.1973377,1.51348508 C64.8382034,1.87856968 64.4308821,2.57932353 64.4889434,3.30703094 C64.4926443,3.35341607 4.35987723,67.4142399 4.35987723,67.4142399 Z" id="Path-23"></path>
                                        </g>
                                    </g>
                                </g>
                            </g>
                            <g id="Laser-body" transform="translate(183.334826, 91.605630)">
                                <g id="Laser-head">
                                    <rect id="Rectangle-53" fill="#868686" x="12.4147938" y="39.2834964" width="4.67488544" height="3.74128537"></rect>
                                    <path d="M9.60986253,0.935321343 L18.9596334,0.935321343 L18.9596334,2.80596403 L9.60986253,2.80596403 L9.60986253,0.935321343 Z M7.73990836,0 L9.60986253,0 L9.60986253,2.80596403 L7.73990836,2.80596403 L7.73990836,0 Z M18.9596334,0 L20.8295876,0 L20.8295876,2.80596403 L18.9596334,2.80596403 L18.9596334,0 Z" id="Combined-Shape" fill="#363636"></path>
                                    <rect id="Rectangle-49" fill="#484848" x="5.86995418" y="2.80596403" width="16.8295876" height="36.4775324"></rect>
                                    <rect id="Rectangle-50" fill="#484848" x="0" y="14.1243189" width="5.86995418" height="2.80596403"></rect>
                                </g>
                            </g>
                            <g id="big-screw" transform="translate(176.087445, 111.152475)">
                                <rect id="Rectangle-46" fill="#595959" x="0" y="2.2681656" width="6.80199234" height="1.1340828"></rect>
                                <rect id="Rectangle-44" fill="#636363" x="2.26733078" y="0" width="2.26733078" height="2.2681656"></rect>
                                <rect id="lines" fill="#868686" x="0.797829845" y="2.2681656" width="1" height="1.1340828"></rect>
                                <rect id="lines" fill="#868686" x="1.93149524" y="2.2681656" width="1" height="1.1340828"></rect>
                                <rect id="lines" fill="#868686" x="3.06516063" y="2.2681656" width="1" height="1.1340828"></rect>
                                <rect id="lines" fill="#868686" x="4.19882602" y="2.2681656" width="1" height="1.1340828"></rect>
                                <rect id="lines" fill="#868686" x="5.33249141" y="2.2681656" width="1" height="1.1340828"></rect>
                            </g>
                            <polygon id="Path-15" fill="#484848" points="165.642491 103.76941 165.642491 107.040121 169.257475 111.770794 184.642491 111.768971 184.642491 103.800905"></polygon>
                        </g>
                    </g>
                </g>
            </g>
        </g>
    </g>
</svg>