<?xml version="1.0" encoding="UTF-8" standalone="no"?>
<svg width="52px" height="14px" viewBox="0 0 52 14" version="1.1" xmlns="http://www.w3.org/2000/svg" xmlns:xlink="http://www.w3.org/1999/xlink">
    <!-- Generator: Sketch 43.2 (39069) - http://www.bohemiancoding.com/sketch -->
    <title>插入图片</title>
    <desc>Created with Sketch.</desc>
    <defs></defs>
    <g id="YCH-WORKS" stroke="none" stroke-width="1" fill="none" fill-rule="evenodd">
        <g id="uArm-Studio_画板Redesign" transform="translate(-1473.000000, -418.000000)" fill="#D95E2E">
            <g id="画图" transform="translate(117.000000, 150.000000)">
                <g id="1st#FDFDFD-Right-pullout_Control-Panel_Redesign" transform="translate(1308.000000, 0.000000)">
                    <g id="my-projects&amp;-missions" transform="translate(12.000000, 25.000000)">
                        <g id="Missions" transform="translate(15.000000, 240.000000)">
                            <g id="标题_插入图片" transform="translate(21.000000, 3.000000)">
                                <g id="插入图片">
                                    <path d="M12.628,0.898 C10.64,1.248 8.134,1.43 5.11,1.43 L5.432,2.354 C6.58,2.354 7.644,2.326 8.638,2.27 L8.638,3.74 L5.194,3.74 L5.194,4.664 L8.638,4.664 L8.638,11.72 L6.23,11.72 L6.23,9.746 L7.966,9.746 L7.966,8.878 L6.23,8.878 L6.23,7.17 C6.944,6.974 7.602,6.736 8.218,6.456 L7.63,5.658 C6.916,6.05 6.146,6.344 5.32,6.54 L5.32,13.302 L6.23,13.302 L6.23,12.616 L11.928,12.616 L11.928,13.414 L12.866,13.414 L12.866,6.134 L10.276,6.134 L10.276,7.03 L11.928,7.03 L11.928,8.864 L10.248,8.864 L10.248,9.732 L11.928,9.732 L11.928,11.72 L9.576,11.72 L9.576,4.664 L13.384,4.664 L13.384,3.74 L9.576,3.74 L9.576,2.214 C10.92,2.102 12.096,1.948 13.118,1.738 L12.628,0.898 Z M4.76,6.274 C4.354,6.526 3.948,6.75 3.528,6.974 L3.528,4.104 L4.76,4.104 L4.76,3.138 L3.528,3.138 L3.528,0.576 L2.548,0.576 L2.548,3.138 L0.77,3.138 L0.77,4.104 L2.548,4.104 L2.548,7.436 C1.932,7.688 1.316,7.912 0.686,8.094 L0.91,9.046 C1.456,8.85 2.002,8.64 2.548,8.402 L2.548,11.86 C2.548,12.224 2.38,12.406 2.058,12.406 C1.722,12.406 1.372,12.378 1.008,12.336 L1.218,13.288 L2.394,13.288 C3.15,13.288 3.528,12.896 3.528,12.112 L3.528,7.94 C3.934,7.73 4.34,7.506 4.76,7.268 L4.76,6.274 Z M19.384,3.81 C18.488,7.534 16.542,10.39 13.546,12.35 L14.148,13.204 C17.088,11.3 19.02,8.556 19.944,4.986 C20.014,5.154 20.084,5.35 20.168,5.574 C21.61,9.27 23.458,11.818 25.726,13.19 L26.356,12.378 C24.144,10.992 22.394,8.626 21.078,5.28 C20.21,3.012 19.16,1.43 17.914,0.562 L17.074,1.094 C17.97,1.738 18.74,2.634 19.384,3.81 Z M31.656,2.382 L32.552,2.494 C32.44,2.76 32.328,3.012 32.188,3.264 L35.884,3.264 L35.884,3.964 C35.492,4.706 34.904,5.364 34.106,5.924 C35.044,6.372 36.108,6.75 37.312,7.03 L36.78,7.786 C35.422,7.422 34.26,6.974 33.28,6.428 C32.202,7.002 30.872,7.464 29.276,7.814 L28.828,7.002 C30.27,6.75 31.488,6.386 32.468,5.924 C31.922,5.56 31.446,5.168 31.054,4.748 C30.634,5.14 30.158,5.504 29.626,5.84 L29.066,5.112 C30.34,4.356 31.208,3.446 31.656,2.382 Z M33.28,5.49 C33.966,5.07 34.498,4.58 34.876,4.02 L31.698,4.02 C31.642,4.076 31.6,4.132 31.572,4.188 C32.062,4.664 32.636,5.098 33.28,5.49 Z M30.508,9.256 C32.37,9.606 34.162,10.11 35.87,10.754 L35.534,11.566 C33.798,10.894 31.992,10.376 30.116,10.012 L30.508,9.256 Z M31.964,7.296 C33.056,7.66 34.064,8.108 34.974,8.612 L34.498,9.34 C33.532,8.752 32.538,8.304 31.502,7.968 L31.964,7.296 Z M38.712,1.178 L38.712,13.4 L37.732,13.4 L37.732,12.826 L28.268,12.826 L28.268,13.4 L27.288,13.4 L27.288,1.178 L38.712,1.178 Z M28.268,11.93 L37.732,11.93 L37.732,2.074 L28.268,2.074 L28.268,11.93 Z M43.214,5.224 L51.166,5.224 L51.166,4.258 L48.324,4.258 L48.324,0.562 L47.316,0.562 L47.316,4.258 L43.214,4.258 L43.214,0.954 L42.206,0.954 L42.206,6.12 C42.178,9.144 41.492,11.342 40.148,12.714 L40.918,13.386 C42.01,12.266 42.724,10.656 43.032,8.556 L48.618,8.556 L48.618,13.428 L49.64,13.428 L49.64,7.576 L43.144,7.576 C43.172,7.114 43.2,6.624 43.214,6.12 L43.214,5.224 Z"></path>
                                </g>
                            </g>
                        </g>
                    </g>
                </g>
            </g>
        </g>
    </g>
</svg>