<?xml version="1.0" encoding="UTF-8" standalone="no"?>
<svg width="70px" height="26px" viewBox="0 0 70 26" version="1.1" xmlns="http://www.w3.org/2000/svg" xmlns:xlink="http://www.w3.org/1999/xlink">
    <!-- Generator: Sketch 43.1 (39012) - http://www.bohemiancoding.com/sketch -->
    <title>Insert Patterns</title>
    <desc>Created with Sketch.</desc>
    <defs></defs>
    <g id="YCH-WORKS" stroke="none" stroke-width="1" fill="none" fill-rule="evenodd">
        <g id="写字作图_插入文字" transform="translate(-1474.000000, -419.000000)" fill="#D95E2E">
            <g id="画图" transform="translate(117.000000, 150.000000)">
                <g id="1st#FDFDFD-Right-pullout_Control-Panel_Redesign" transform="translate(1308.000000, 0.000000)">
                    <g id="my-projects&amp;-missions" transform="translate(12.000000, 25.000000)">
                        <g id="Missions" transform="translate(15.000000, 244.000000)">
                            <g id="Title_insert-Patterns" transform="translate(22.000000, 0.000000)">
                                <path d="M0.05,11 L2.808,11 L2.808,0.5 L0.05,0.5 L0.05,11 Z M12.77,11 L12.77,0.5 L10.012,0.5 L10.012,5.456 L5.042,0.5 L3.922,0.5 L3.922,11 L6.68,11 L6.68,6.03 L11.636,11 L12.77,11 Z M20.184,3.72 C20.184,1.928 18.742,0.5 16.95,0.5 C15.158,0.5 13.73,1.942 13.73,3.734 C13.73,5.526 15.158,6.954 16.95,6.954 C17.384,6.954 17.748,7.318 17.748,7.752 C17.748,8.186 17.384,8.536 16.95,8.536 C16.516,8.536 16.166,8.186 16.166,7.738 L13.716,7.738 C13.716,9.586 15.158,11 16.95,11 C18.742,11 20.184,9.572 20.184,7.78 C20.184,7.01 19.932,6.31 19.484,5.75 C18.896,4.994 17.972,4.504 16.95,4.504 C16.516,4.504 16.166,4.154 16.166,3.72 C16.166,3.286 16.516,2.922 16.95,2.922 C17.384,2.922 17.748,3.286 17.748,3.72 L20.184,3.72 Z M21.144,11 L27.668,11 L27.668,8.746 L23.902,8.746 L23.902,6.814 L27.234,6.814 L27.234,4.49 L23.902,4.49 L23.902,2.782 L27.668,2.782 L27.668,0.5 L21.144,0.5 L21.144,11 Z M37.91,11 L34.732,11 L33.108,8.214 L31.4,8.214 L31.4,11 L28.642,11 L28.642,0.5 L33.066,0.5 C35.194,0.5 36.93,2.236 36.93,4.364 C36.93,5.484 36.44,6.492 35.684,7.192 L37.91,11 Z M31.4,2.824 L31.4,5.834 L33.108,5.834 C33.948,5.834 34.62,5.176 34.62,4.336 C34.62,3.496 33.948,2.824 33.108,2.824 L31.4,2.824 Z M38.044,3.23 L40.774,3.23 L40.774,11 L43.532,11 L43.532,3.23 L46.318,3.23 L46.318,0.486 L38.044,0.486 L38.044,3.23 Z M2.822,17.824 L2.822,20.834 L4.53,20.834 C5.37,20.834 6.042,20.176 6.042,19.336 C6.042,18.496 5.37,17.824 4.53,17.824 L2.822,17.824 Z M0.064,26 L0.064,15.5 L4.488,15.5 C6.616,15.5 8.352,17.236 8.352,19.364 C8.352,21.478 6.63,23.214 4.544,23.214 L2.822,23.214 L2.822,26 L0.064,26 Z M10.334,26 L7.576,26 L12.476,15.5 L13.722,15.5 L18.664,26 L15.906,26 L15.262,24.628 L10.964,24.628 L10.334,26 Z M13.12,19.994 L12.042,22.304 L14.184,22.304 L13.12,19.994 Z M18.14,18.23 L18.14,15.486 L26.414,15.486 L26.414,18.23 L23.628,18.23 L23.628,26 L20.87,26 L20.87,18.23 L18.14,18.23 Z M27.094,18.23 L29.824,18.23 L29.824,26 L32.582,26 L32.582,18.23 L35.368,18.23 L35.368,15.486 L27.094,15.486 L27.094,18.23 Z M36.272,26 L42.796,26 L42.796,23.746 L39.03,23.746 L39.03,21.814 L42.362,21.814 L42.362,19.49 L39.03,19.49 L39.03,17.782 L42.796,17.782 L42.796,15.5 L36.272,15.5 L36.272,26 Z M53.038,26 L49.86,26 L48.236,23.214 L46.528,23.214 L46.528,26 L43.77,26 L43.77,15.5 L48.194,15.5 C50.322,15.5 52.058,17.236 52.058,19.364 C52.058,20.484 51.568,21.492 50.812,22.192 L53.038,26 Z M46.528,17.824 L46.528,20.834 L48.236,20.834 C49.076,20.834 49.748,20.176 49.748,19.336 C49.748,18.496 49.076,17.824 48.236,17.824 L46.528,17.824 Z M62.244,26 L62.244,15.5 L59.486,15.5 L59.486,20.456 L54.516,15.5 L53.396,15.5 L53.396,26 L56.154,26 L56.154,21.03 L61.11,26 L62.244,26 Z M69.658,18.72 C69.658,16.928 68.216,15.5 66.424,15.5 C64.632,15.5 63.204,16.942 63.204,18.734 C63.204,20.526 64.632,21.954 66.424,21.954 C66.858,21.954 67.222,22.318 67.222,22.752 C67.222,23.186 66.858,23.536 66.424,23.536 C65.99,23.536 65.64,23.186 65.64,22.738 L63.19,22.738 C63.19,24.586 64.632,26 66.424,26 C68.216,26 69.658,24.572 69.658,22.78 C69.658,22.01 69.406,21.31 68.958,20.75 C68.37,19.994 67.446,19.504 66.424,19.504 C65.99,19.504 65.64,19.154 65.64,18.72 C65.64,18.286 65.99,17.922 66.424,17.922 C66.858,17.922 67.222,18.286 67.222,18.72 L69.658,18.72 Z" id="Insert-Patterns"></path>
                            </g>
                        </g>
                    </g>
                </g>
            </g>
        </g>
    </g>
</svg>