<?xml version="1.0" encoding="UTF-8" standalone="no"?>
<svg width="111px" height="16px" viewBox="0 0 111 16" version="1.1" xmlns="http://www.w3.org/2000/svg" xmlns:xlink="http://www.w3.org/1999/xlink">
    <!-- Generator: Sketch 43.2 (39069) - http://www.bohemiancoding.com/sketch -->
    <title>title_Drawlaser</title>
    <desc>Created with Sketch.</desc>
    <defs></defs>
    <g id="YCH-WORKS" stroke="none" stroke-width="1" fill="none" fill-rule="evenodd">
        <g id="uArm-Studio_画板Redesign" transform="translate(-194.000000, -174.000000)" fill="#FFFFFF">
            <g id="画图" transform="translate(117.000000, 150.000000)">
                <g id="Top-Navi">
                    <g id="Title_Drawlaser" transform="translate(77.000000, 24.000000)">
                        <g id="title_Drawlaser">
                            <path d="M0.796875,13 L0.796875,0.8984375 L4.9765625,0.8984375 C9.27345898,0.8984375 11.421875,2.86456367 11.421875,6.796875 C11.421875,8.66667602 10.8203185,10.1679631 9.6171875,11.3007812 C8.41405648,12.4335994 6.86198867,13 4.9609375,13 L0.796875,13 Z M3.375,3.0078125 L3.375,10.890625 L4.78125,10.890625 C6.00521445,10.890625 6.96614234,10.5260453 7.6640625,9.796875 C8.36198266,9.06770469 8.7109375,8.08073539 8.7109375,6.8359375 C8.7109375,5.63280648 8.34635781,4.69401379 7.6171875,4.01953125 C6.88801719,3.34504871 5.94011,3.0078125 4.7734375,3.0078125 L3.375,3.0078125 Z M23.4453125,13 L20.4765625,13 L18.578125,9.8515625 C18.187498,9.20051758 17.8671887,8.78125094 17.6171875,8.59375 C17.3671863,8.40624906 17.1015639,8.3125 16.8203125,8.3125 L16.0390625,8.3125 L16.0390625,13 L13.4609375,13 L13.4609375,0.8984375 L17.703125,0.8984375 C20.5833477,0.8984375 22.0234375,1.99217656 22.0234375,4.1796875 C22.0234375,5.00260828 21.7825545,5.70833039 21.3007812,6.296875 C20.819008,6.88541961 20.1562542,7.29947797 19.3125,7.5390625 L19.3125,7.5703125 C19.8697945,7.75781344 20.4869758,8.37239063 21.1640625,9.4140625 L23.4453125,13 Z M16.0390625,2.859375 L16.0390625,6.34375 L17.3046875,6.34375 C17.9088572,6.34375 18.3945294,6.16797051 18.7617188,5.81640625 C19.1289081,5.46484199 19.3125,5.0260443 19.3125,4.5 C19.3125,3.40624453 18.6588607,2.859375 17.3515625,2.859375 L16.0390625,2.859375 Z M35.1328125,13 L32.3203125,13 L31.4140625,10.2265625 L27.015625,10.2265625 L26.125,13 L23.328125,13 L27.7578125,0.8984375 L30.7890625,0.8984375 L35.1328125,13 Z M30.8046875,8.234375 L29.4296875,4.0390625 C29.3411454,3.77343617 29.278646,3.42187719 29.2421875,2.984375 L29.171875,2.984375 C29.1406248,3.33854344 29.070313,3.67968586 28.9609375,4.0078125 L27.578125,8.234375 L30.8046875,8.234375 Z M51.7578125,0.8984375 L48.53125,13 L45.6640625,13 L43.6015625,5.109375 C43.492187,4.68228953 43.4270834,4.23698148 43.40625,3.7734375 L43.375,3.7734375 C43.3229164,4.31510687 43.2500005,4.76041492 43.15625,5.109375 L41.046875,13 L38.0703125,13 L34.84375,0.8984375 L37.671875,0.8984375 L39.46875,9.1015625 C39.5468754,9.4609393 39.6015623,9.91405977 39.6328125,10.4609375 L39.6875,10.4609375 C39.7135418,10.033852 39.7942702,9.56771086 39.9296875,9.0625 L42.1796875,0.8984375 L44.921875,0.8984375 L46.96875,9.1640625 C47.0520838,9.49218914 47.1171873,9.9192682 47.1640625,10.4453125 L47.203125,10.4453125 C47.2239584,9.99218523 47.2838537,9.54948133 47.3828125,9.1171875 L49.140625,0.8984375 L51.7578125,0.8984375 Z M59.6640625,0.8984375 L53.78125,15.0078125 L51.5234375,15.0078125 L57.3828125,0.8984375 L59.6640625,0.8984375 Z M67.9765625,13 L60.875,13 L60.875,0.8984375 L63.453125,0.8984375 L63.453125,10.890625 L67.9765625,10.890625 L67.9765625,13 Z M80.5234375,13 L77.7109375,13 L76.8046875,10.2265625 L72.40625,10.2265625 L71.515625,13 L68.71875,13 L73.1484375,0.8984375 L76.1796875,0.8984375 L80.5234375,13 Z M76.1953125,8.234375 L74.8203125,4.0390625 C74.7317704,3.77343617 74.669271,3.42187719 74.6328125,2.984375 L74.5625,2.984375 C74.5312498,3.33854344 74.460938,3.67968586 74.3515625,4.0078125 L72.96875,8.234375 L76.1953125,8.234375 Z M81.5,9.953125 C82.4739632,10.7604207 83.580723,11.1640625 84.8203125,11.1640625 C85.523441,11.1640625 86.0520816,11.04297 86.40625,10.8007812 C86.7604184,10.5585925 86.9375,10.2473977 86.9375,9.8671875 C86.9375,9.53906086 86.7968764,9.22916812 86.515625,8.9375 C86.2343736,8.64583187 85.4921935,8.2500025 84.2890625,7.75 C82.398428,6.94791266 81.453125,5.78125766 81.453125,4.25 C81.453125,3.12499437 81.8815061,2.2513052 82.7382812,1.62890625 C83.5950564,1.0065073 84.7291596,0.6953125 86.140625,0.6953125 C87.3229226,0.6953125 88.3151002,0.848956797 89.1171875,1.15625 L89.1171875,3.578125 C88.3046834,3.02603891 87.3541721,2.75 86.265625,2.75 C85.6302052,2.75 85.1223977,2.86588426 84.7421875,3.09765625 C84.3619773,3.32942824 84.171875,3.64062305 84.171875,4.03125 C84.171875,4.34375156 84.302082,4.6315091 84.5625,4.89453125 C84.822918,5.1575534 85.4661407,5.51301859 86.4921875,5.9609375 C87.6953185,6.47656508 88.5221332,7.02083047 88.9726562,7.59375 C89.4231793,8.16666953 89.6484375,8.84895437 89.6484375,9.640625 C89.6484375,10.8020891 89.2369833,11.687497 88.4140625,12.296875 C87.5911417,12.906253 86.4218826,13.2109375 84.90625,13.2109375 C83.5208264,13.2109375 82.3854211,12.9869814 81.5,12.5390625 L81.5,9.953125 Z M98.84375,13 L91.6796875,13 L91.6796875,0.8984375 L98.5625,0.8984375 L98.5625,3.0078125 L94.2578125,3.0078125 L94.2578125,5.859375 L98.2578125,5.859375 L98.2578125,7.9609375 L94.2578125,7.9609375 L94.2578125,10.890625 L98.84375,10.890625 L98.84375,13 Z M110.8125,13 L107.84375,13 L105.945313,9.8515625 C105.554686,9.20051758 105.234376,8.78125094 104.984375,8.59375 C104.734374,8.40624906 104.468751,8.3125 104.1875,8.3125 L103.40625,8.3125 L103.40625,13 L100.828125,13 L100.828125,0.8984375 L105.070313,0.8984375 C107.950535,0.8984375 109.390625,1.99217656 109.390625,4.1796875 C109.390625,5.00260828 109.149742,5.70833039 108.667969,6.296875 C108.186196,6.88541961 107.523442,7.29947797 106.679688,7.5390625 L106.679688,7.5703125 C107.236982,7.75781344 107.854163,8.37239063 108.53125,9.4140625 L110.8125,13 Z M103.40625,2.859375 L103.40625,6.34375 L104.671875,6.34375 C105.276045,6.34375 105.761717,6.16797051 106.128906,5.81640625 C106.496096,5.46484199 106.679688,5.0260443 106.679688,4.5 C106.679688,3.40624453 106.026048,2.859375 104.71875,2.859375 L103.40625,2.859375 Z" id="DRAW/LASER"></path>
                        </g>
                    </g>
                </g>
            </g>
        </g>
    </g>
</svg>