<?xml version="1.0" encoding="UTF-8" standalone="no"?>
<svg width="71px" height="17px" viewBox="0 0 71 17" version="1.1" xmlns="http://www.w3.org/2000/svg" xmlns:xlink="http://www.w3.org/1999/xlink">
    <!-- Generator: Sketch 43.2 (39069) - http://www.bohemiancoding.com/sketch -->
    <title>画画雕刻</title>
    <desc>Created with Sketch.</desc>
    <defs></defs>
    <g id="YCH-WORKS" stroke="none" stroke-width="1" fill="none" fill-rule="evenodd">
        <g id="uArm-Studio_画板Redesign" transform="translate(-193.000000, -172.000000)" fill="#FFFFFF">
            <g id="画图" transform="translate(117.000000, 150.000000)">
                <g id="Top-Navi">
                    <g id="title_画画雕刻" transform="translate(76.000000, 22.000000)">
                        <g id="画画雕刻">
                            <path d="M0.671875,1.5078125 L15.75,1.5078125 L15.75,3.2265625 L0.671875,3.2265625 L0.671875,1.5078125 Z M4.125,4.2421875 L12.34375,4.2421875 L12.34375,12.5859375 L4.125,12.5859375 L4.125,4.2421875 Z M10.4375,5.7421875 L9.109375,5.7421875 L9.109375,7.7421875 L10.4375,7.7421875 L10.4375,5.7421875 Z M6.03125,7.7421875 L7.359375,7.7421875 L7.359375,5.7421875 L6.03125,5.7421875 L6.03125,7.7421875 Z M10.4375,11.0859375 L10.4375,9.0859375 L9.109375,9.0859375 L9.109375,11.0859375 L10.4375,11.0859375 Z M6.03125,11.0859375 L7.359375,11.0859375 L7.359375,9.0859375 L6.03125,9.0859375 L6.03125,11.0859375 Z M15.34375,4.6484375 L15.34375,16.1015625 L13.375,16.1015625 L13.375,15.2578125 L1.125,15.2578125 L1.125,4.6484375 L3.09375,4.6484375 L3.09375,13.5546875 L13.375,13.5546875 L13.375,4.6484375 L15.34375,4.6484375 Z M16.671875,1.5078125 L31.75,1.5078125 L31.75,3.2265625 L16.671875,3.2265625 L16.671875,1.5078125 Z M20.125,4.2421875 L28.34375,4.2421875 L28.34375,12.5859375 L20.125,12.5859375 L20.125,4.2421875 Z M26.4375,5.7421875 L25.109375,5.7421875 L25.109375,7.7421875 L26.4375,7.7421875 L26.4375,5.7421875 Z M22.03125,7.7421875 L23.359375,7.7421875 L23.359375,5.7421875 L22.03125,5.7421875 L22.03125,7.7421875 Z M26.4375,11.0859375 L26.4375,9.0859375 L25.109375,9.0859375 L25.109375,11.0859375 L26.4375,11.0859375 Z M22.03125,11.0859375 L23.359375,11.0859375 L23.359375,9.0859375 L22.03125,9.0859375 L22.03125,11.0859375 Z M31.34375,4.6484375 L31.34375,16.1015625 L29.375,16.1015625 L29.375,15.2578125 L17.125,15.2578125 L17.125,4.6484375 L19.09375,4.6484375 L19.09375,13.5546875 L29.375,13.5546875 L29.375,4.6484375 L31.34375,4.6484375 Z M39.96875,1.8984375 L34.0859375,16.0078125 L31.828125,16.0078125 L37.6875,1.8984375 L39.96875,1.8984375 Z M49.71875,0.6015625 L51.46875,1.0078125 C51.3124992,1.74739953 51.1250011,2.46614234 50.90625,3.1640625 L52.40625,3.1640625 C52.2187491,2.72656031 51.9166687,2.09635828 51.5,1.2734375 L53,0.6015625 C53.4895858,1.49740031 53.864582,2.21614312 54.125,2.7578125 L53.265625,3.1640625 L55.40625,3.1640625 L55.40625,4.8203125 L53.609375,4.8203125 L53.609375,6.5546875 L55.21875,6.5546875 L55.21875,8.1796875 L53.609375,8.1796875 L53.609375,9.9296875 L55.21875,9.9296875 L55.21875,11.5546875 L53.609375,11.5546875 L53.609375,13.3515625 L55.5,13.3515625 L55.5,15.0078125 L50.578125,15.0078125 L50.578125,16.0859375 L48.90625,16.0859375 L48.90625,7.8359375 L48.65625,8.2734375 C48.4791658,7.86718547 48.2500014,7.38281531 47.96875,6.8203125 L47.96875,13.9921875 C47.96875,15.1796934 47.4114639,15.8307286 46.296875,15.9453125 C45.6927053,15.9973961 45.1354192,16.0286458 44.625,16.0390625 C44.5729164,15.3723925 44.4895839,14.7317739 44.375,14.1171875 C44.5729177,14.1588544 44.9843719,14.1848958 45.609375,14.1953125 C46.0052103,14.1848958 46.203125,13.8776072 46.203125,13.2734375 L46.203125,3.0859375 L42.421875,3.0859375 L42.421875,8.3046875 C42.4322917,12.0547063 42.0937534,14.7057214 41.40625,16.2578125 C41.0624983,15.830727 40.5677116,15.2890658 39.921875,14.6328125 C40.4114608,13.3723895 40.65625,11.3307433 40.65625,8.5078125 L40.65625,1.2734375 L47.96875,1.2734375 L47.96875,6.0859375 C48.7500039,4.45051266 49.3333314,2.62240594 49.71875,0.6015625 Z M42.8125,14.0859375 L42.8125,9.0390625 L45.828125,9.0390625 L45.828125,13.3203125 L43.9375,13.3203125 L43.9375,14.0859375 L42.8125,14.0859375 Z M42.625,6.7421875 L43.609375,6.7421875 L43.609375,5.8359375 L42.765625,5.8359375 L42.765625,4.3671875 L43.609375,4.3671875 L43.609375,3.3984375 L45.046875,3.3984375 L45.046875,4.3671875 L45.875,4.3671875 L45.875,5.8359375 L45.046875,5.8359375 L45.046875,6.7421875 L45.984375,6.7421875 L45.984375,8.2109375 L42.625,8.2109375 L42.625,6.7421875 Z M50.578125,13.3515625 L51.921875,13.3515625 L51.921875,11.5546875 L50.578125,11.5546875 L50.578125,13.3515625 Z M50.578125,9.9296875 L51.921875,9.9296875 L51.921875,8.1796875 L50.578125,8.1796875 L50.578125,9.9296875 Z M50.578125,6.5546875 L51.921875,6.5546875 L51.921875,4.8203125 L50.578125,4.8203125 L50.578125,6.5546875 Z M44.65625,11.8515625 L44.65625,10.5078125 L43.9375,10.5078125 L43.9375,11.8515625 L44.65625,11.8515625 Z M65,4.1171875 L61.1171875,4.1171875 C60.544268,4.950525 59.9375032,5.76301687 59.296875,6.5546875 C60.0000035,6.53906242 60.7447877,6.51302102 61.53125,6.4765625 C61.9322937,5.95572656 62.3020816,5.40885703 62.640625,4.8359375 L64.390625,5.8515625 C62.5885327,8.69532672 60.2708475,10.9661373 57.4375,12.6640625 C56.9895811,11.9765591 56.5260441,11.3619819 56.046875,10.8203125 C57.5000073,10.1119756 58.7786403,9.25521336 59.8828125,8.25 C58.6484313,8.36458391 57.7760442,8.47656195 57.265625,8.5859375 L56.578125,6.8359375 C57.2552117,6.39843531 57.9895794,5.49219438 58.78125,4.1171875 L56.359375,4.1171875 L56.359375,2.3046875 L59.9296875,2.3046875 C59.7578116,1.85676859 59.5729177,1.40885641 59.375,0.9609375 L61.578125,0.5390625 C61.7968761,0.997398125 62.0520819,1.58593391 62.34375,2.3046875 L65,2.3046875 L65,4.1171875 Z M68.625,0.8359375 L70.734375,0.8359375 L70.734375,13.5859375 C70.734375,14.3203162 70.5898452,14.8854147 70.3007812,15.28125 C70.0117173,15.6770853 69.6015652,15.9049476 69.0703125,15.9648437 C68.5390598,16.0247399 67.6406313,16.0598958 66.375,16.0703125 C66.1874991,15.2161416 66.0104175,14.4713573 65.84375,13.8359375 C67.1458398,13.8671877 67.833333,13.8828125 67.90625,13.8828125 C68.3854191,13.8828125 68.625,13.5494825 68.625,12.8828125 L68.625,0.8359375 Z M65.484375,2.3671875 L67.53125,2.3671875 L67.53125,12.3515625 L65.484375,12.3515625 L65.484375,2.3671875 Z M63.546875,8.3046875 L65.328125,9.3203125 C64.7083302,10.3619844 63.9895874,11.3203081 63.171875,12.1953125 C64.0312543,12.8463574 64.8541627,13.5078091 65.640625,14.1796875 L64.25,15.7890625 C63.4739545,15.0494755 62.6406295,14.3020871 61.75,13.546875 C60.5572857,14.5572967 59.1979243,15.4401004 57.671875,16.1953125 C57.2343728,15.5598927 56.7604192,14.9348989 56.25,14.3203125 C59.4791828,12.893222 61.9114502,10.8880337 63.546875,8.3046875 Z" id="画画/雕刻"></path>
                        </g>
                    </g>
                </g>
            </g>
        </g>
    </g>
</svg>