<?xml version="1.0" encoding="UTF-8" standalone="no"?>
<svg width="129px" height="17px" viewBox="0 0 129 17" version="1.1" xmlns="http://www.w3.org/2000/svg" xmlns:xlink="http://www.w3.org/1999/xlink">
    <!-- Generator: Sketch 41.2 (35397) - http://www.bohemiancoding.com/sketch -->
    <title>WRITE / DRAW</title>
    <desc>Created with Sketch.</desc>
    <defs></defs>
    <g id="Page-1" stroke="none" stroke-width="1" fill="none" fill-rule="evenodd">
        <g id="写字作图" transform="translate(-199.000000, -72.000000)" fill="#FFFFFF">
            <g id="Group-12" transform="translate(110.000000, 50.000000)">
                <g id="title">
                    <path d="M89.09,24.148 L92.78,37 L94.076,37 L97.226,25.696 L97.28,25.696 L100.43,37 L101.726,37 L105.416,24.148 L104.174,24.148 L101.096,35.524 L101.042,35.524 L97.892,24.148 L96.614,24.148 L93.464,35.524 L93.41,35.524 L90.332,24.148 L89.09,24.148 Z M106.82,24.148 L106.82,37 L107.918,37 L107.918,31.294 L112.166,31.294 C112.994,31.294 113.66,31.456 114.128,31.78 C114.632,32.122 114.938,32.698 115.01,33.49 L115.172,35.254 C115.244,35.974 115.406,36.568 115.676,37 L116.882,37 C116.522,36.532 116.324,35.902 116.252,35.11 L116.072,33.184 C115.928,31.888 115.208,31.096 113.912,30.808 L113.912,30.772 C114.686,30.592 115.298,30.214 115.73,29.638 C116.126,29.08 116.342,28.432 116.342,27.676 C116.342,26.524 115.964,25.66 115.244,25.048 C114.524,24.436 113.516,24.148 112.256,24.148 L106.82,24.148 Z M107.918,25.12 L112.13,25.12 C113.21,25.12 114.002,25.336 114.506,25.786 C114.992,26.218 115.244,26.848 115.244,27.712 C115.244,28.504 114.992,29.116 114.488,29.584 C113.93,30.07 113.156,30.322 112.148,30.322 L107.918,30.322 L107.918,25.12 Z M118.952,24.148 L118.952,37 L120.05,37 L120.05,24.148 L118.952,24.148 Z M121.85,24.148 L121.85,25.12 L126.566,25.12 L126.566,37 L127.664,37 L127.664,25.12 L132.38,25.12 L132.38,24.148 L121.85,24.148 Z M134.018,24.148 L134.018,37 L143.342,37 L143.342,36.028 L135.116,36.028 L135.116,30.844 L142.604,30.844 L142.604,29.854 L135.116,29.854 L135.116,25.12 L143.036,25.12 L143.036,24.148 L134.018,24.148 Z M157.346,22.24 L150.884,38.8 L151.874,38.8 L158.336,22.24 L157.346,22.24 Z M166.418,24.148 L166.418,37 L170.756,37 C172.736,37 174.266,36.406 175.346,35.218 C176.372,34.084 176.894,32.536 176.894,30.574 C176.894,28.576 176.426,27.028 175.508,25.948 C174.5,24.742 172.988,24.148 170.99,24.148 L166.418,24.148 Z M167.516,25.12 L170.828,25.12 C172.556,25.12 173.852,25.588 174.68,26.56 C175.436,27.442 175.814,28.774 175.814,30.574 C175.814,32.302 175.382,33.634 174.518,34.57 C173.618,35.542 172.304,36.028 170.594,36.028 L167.516,36.028 L167.516,25.12 Z M178.982,24.148 L178.982,37 L180.08,37 L180.08,31.294 L184.328,31.294 C185.156,31.294 185.822,31.456 186.29,31.78 C186.794,32.122 187.1,32.698 187.172,33.49 L187.334,35.254 C187.406,35.974 187.568,36.568 187.838,37 L189.044,37 C188.684,36.532 188.486,35.902 188.414,35.11 L188.234,33.184 C188.09,31.888 187.37,31.096 186.074,30.808 L186.074,30.772 C186.848,30.592 187.46,30.214 187.892,29.638 C188.288,29.08 188.504,28.432 188.504,27.676 C188.504,26.524 188.126,25.66 187.406,25.048 C186.686,24.436 185.678,24.148 184.418,24.148 L178.982,24.148 Z M180.08,25.12 L184.292,25.12 C185.372,25.12 186.164,25.336 186.668,25.786 C187.154,26.218 187.406,26.848 187.406,27.712 C187.406,28.504 187.154,29.116 186.65,29.584 C186.092,30.07 185.318,30.322 184.31,30.322 L180.08,30.322 L180.08,25.12 Z M194.786,24.148 L189.638,37 L190.844,37 L192.338,33.166 L198.53,33.166 L200.024,37 L201.23,37 L196.082,24.148 L194.786,24.148 Z M192.698,32.23 L195.416,25.336 L195.47,25.336 L198.17,32.23 L192.698,32.23 Z M201.32,24.148 L205.01,37 L206.306,37 L209.456,25.696 L209.51,25.696 L212.66,37 L213.956,37 L217.646,24.148 L216.404,24.148 L213.326,35.524 L213.272,35.524 L210.122,24.148 L208.844,24.148 L205.694,35.524 L205.64,35.524 L202.562,24.148 L201.32,24.148 Z" id="WRITE-/-DRAW"></path>
                </g>
            </g>
        </g>
    </g>
</svg>