<?xml version="1.0" encoding="UTF-8" standalone="no"?>
<svg width="129px" height="15px" viewBox="0 0 129 15" version="1.1" xmlns="http://www.w3.org/2000/svg" xmlns:xlink="http://www.w3.org/1999/xlink">
    <!-- Generator: Sketch 41.2 (35397) - http://www.bohemiancoding.com/sketch -->
    <title>TEACH &amp; PLAY</title>
    <desc>Created with Sketch.</desc>
    <defs></defs>
    <g id="YCH-WORKS" stroke="none" stroke-width="1" fill="none" fill-rule="evenodd">
        <g id="YCH-Teach&amp;Play界面" transform="translate(-1961.000000, -137.000000)" fill="#555555">
            <g id="teach&amp;play(Redesign)" transform="translate(1876.000000, 110.000000)">
                <g id="TEZCH&amp;PLAY" transform="translate(85.000000, 23.000000)">
                    <path d="M10.359375,7.38330078 L6.69042969,7.38330078 L6.69042969,18 L3.94287109,18 L3.94287109,7.38330078 L0.282226562,7.38330078 L0.282226562,5.14208984 L10.359375,5.14208984 L10.359375,7.38330078 Z M19.730957,18 L12.1191406,18 L12.1191406,5.14208984 L19.4321289,5.14208984 L19.4321289,7.38330078 L14.8583984,7.38330078 L14.8583984,10.4130859 L19.1083984,10.4130859 L19.1083984,12.6459961 L14.8583984,12.6459961 L14.8583984,15.7587891 L19.730957,15.7587891 L19.730957,18 Z M32.9956055,18 L30.0073242,18 L29.0444336,15.0532227 L24.3710938,15.0532227 L23.4248047,18 L20.453125,18 L25.159668,5.14208984 L28.3803711,5.14208984 L32.9956055,18 Z M28.3969727,12.9365234 L26.9360352,8.47900391 C26.8419592,8.19677593 26.7755536,7.82324451 26.7368164,7.35839844 L26.6621094,7.35839844 C26.6289061,7.7347024 26.5541998,8.09716623 26.4379883,8.44580078 L24.96875,12.9365234 L28.3969727,12.9365234 Z M43.7949219,17.5351562 C42.8596958,17.9944684 41.6394932,18.2241211 40.1342773,18.2241211 C38.1974187,18.2241211 36.6604061,17.6444557 35.5231934,16.4851074 C34.3859806,15.3257592 33.8173828,13.7804459 33.8173828,11.8491211 C33.8173828,9.81818646 34.4523862,8.15666336 35.7224121,6.86450195 C36.992438,5.57234054 38.6318259,4.92626953 40.640625,4.92626953 C41.8968162,4.92626953 42.948238,5.0895166 43.7949219,5.41601562 L43.7949219,8.06396484 C42.9261024,7.55484771 41.9410862,7.30029297 40.8398438,7.30029297 C39.5836526,7.30029297 38.5792681,7.70149338 37.8266602,8.50390625 C37.0740522,9.30631912 36.6977539,10.354974 36.6977539,11.6499023 C36.6977539,12.9116274 37.0546839,13.9270795 37.7685547,14.6962891 C38.4824254,15.4654986 39.4480733,15.8500977 40.6655273,15.8500977 C41.8110409,15.8500977 42.854162,15.5734077 43.7949219,15.0200195 L43.7949219,17.5351562 Z M57.0263672,18 L54.2871094,18 L54.2871094,12.6958008 L48.8085938,12.6958008 L48.8085938,18 L46.0693359,18 L46.0693359,5.14208984 L48.8085938,5.14208984 L48.8085938,10.3300781 L54.2871094,10.3300781 L54.2871094,5.14208984 L57.0263672,5.14208984 L57.0263672,18 Z M73.7856445,16.5722656 C72.4464451,17.6624403 70.8942146,18.2075195 69.1289062,18.2075195 C67.6568937,18.2075195 66.4892621,17.8602737 65.6259766,17.1657715 C64.762691,16.4712693 64.3310547,15.5153056 64.3310547,14.2978516 C64.3310547,12.6155515 65.3658751,11.3704467 67.4355469,10.5625 C66.3951771,9.74901937 65.875,8.85531086 65.875,7.88134766 C65.875,6.97932492 66.219479,6.26131452 66.9084473,5.72729492 C67.5974156,5.19327532 68.5312441,4.92626953 69.7099609,4.92626953 C70.7890679,4.92626953 71.6675585,5.18635808 72.345459,5.70654297 C73.0233595,6.22672786 73.3623047,6.89631752 73.3623047,7.71533203 C73.3623047,9.02132814 72.5958735,9.99527674 71.0629883,10.637207 C72.247239,11.1684597 73.2820594,12.0898372 74.1674805,13.4013672 C75.0861049,12.2447859 75.5454102,10.839201 75.5454102,9.18457031 C75.5454102,8.72525812 75.4873053,8.31299011 75.3710938,7.94775391 L77.6787109,7.94775391 C77.7949225,8.27425293 77.8530273,8.67268645 77.8530273,9.14306641 C77.8530273,11.3400175 77.0257244,13.3266513 75.3710938,15.1030273 C76.0185579,15.7947626 76.6328096,16.140625 77.2138672,16.140625 C77.7949248,16.140625 78.3289364,16.0216483 78.815918,15.7836914 L78.815918,17.8339844 C78.207191,18.0830091 77.5486689,18.2075195 76.840332,18.2075195 C75.7556912,18.2075195 74.7374722,17.6624403 73.7856445,16.5722656 Z M69.4194336,9.62451172 C70.4598034,9.24267387 70.9799805,8.66992569 70.9799805,7.90625 C70.9799805,7.55761544 70.8540865,7.2753917 70.6022949,7.05957031 C70.3505033,6.84374892 70.0530616,6.73583984 69.7099609,6.73583984 C69.3004537,6.73583984 68.9601251,6.85343307 68.6889648,7.08862305 C68.4178046,7.32381302 68.2822266,7.61295401 68.2822266,7.95605469 C68.2822266,8.62565439 68.6612918,9.18180117 69.4194336,9.62451172 Z M72.6152344,14.8623047 C71.6634067,13.3404872 70.4570386,12.2779978 68.9960938,11.6748047 C67.7011654,12.2724639 67.0537109,13.1108344 67.0537109,14.1899414 C67.0537109,14.7820668 67.257078,15.2593569 67.6638184,15.6218262 C68.0705587,15.9842954 68.6031868,16.1655273 69.2617188,16.1655273 C70.4902405,16.1655273 71.6080679,15.7311241 72.6152344,14.8623047 Z M88.3867188,13.5175781 L88.3867188,18 L85.6474609,18 L85.6474609,5.14208984 L90.0717773,5.14208984 C93.270361,5.14208984 94.8696289,6.49787056 94.8696289,9.20947266 C94.8696289,10.5265365 94.386805,11.5821087 93.4211426,12.3762207 C92.4554802,13.1703327 91.2477286,13.5507814 89.7978516,13.5175781 L88.3867188,13.5175781 Z M88.3867188,7.26708984 L88.3867188,11.4174805 L89.5737305,11.4174805 C91.1840901,11.4174805 91.9892578,10.7174549 91.9892578,9.31738281 C91.9892578,7.950514 91.1923908,7.26708984 89.5986328,7.26708984 L88.3867188,7.26708984 Z M104.365723,18 L96.8203125,18 L96.8203125,5.14208984 L99.5595703,5.14208984 L99.5595703,15.7587891 L104.365723,15.7587891 L104.365723,18 Z M117.273438,18 L114.285156,18 L113.322266,15.0532227 L108.648926,15.0532227 L107.702637,18 L104.730957,18 L109.4375,5.14208984 L112.658203,5.14208984 L117.273438,18 Z M112.674805,12.9365234 L111.213867,8.47900391 C111.119791,8.19677593 111.053386,7.82324451 111.014648,7.35839844 L110.939941,7.35839844 C110.906738,7.7347024 110.832032,8.09716623 110.71582,8.44580078 L109.246582,12.9365234 L112.674805,12.9365234 Z M128.45459,5.14208984 L124.254395,13.409668 L124.254395,18 L121.515137,18 L121.515137,13.4594727 L117.431152,5.14208984 L120.560547,5.14208984 L122.71875,10.0561523 C122.763021,10.1557622 122.865396,10.4933239 123.025879,11.0688477 L123.059082,11.0688477 C123.125489,10.6814759 123.216796,10.3522149 123.333008,10.0810547 L125.549316,5.14208984 L128.45459,5.14208984 Z" id="TEACH-&amp;-PLAY"></path>
                </g>
            </g>
        </g>
    </g>
</svg>