<?xml version="1.0" encoding="UTF-8" standalone="no"?>
<svg width="68px" height="18px" viewBox="0 0 68 18" version="1.1" xmlns="http://www.w3.org/2000/svg" xmlns:xlink="http://www.w3.org/1999/xlink">
    <!-- Generator: Sketch 43.2 (39069) - http://www.bohemiancoding.com/sketch -->
    <title>手持示教</title>
    <desc>Created with Sketch.</desc>
    <defs></defs>
    <g id="YCH-WORKS" stroke="none" stroke-width="1" fill="none" fill-rule="evenodd">
        <g id="YCH-Teach&amp;Play界面" transform="translate(-1961.000000, -136.000000)" fill="#555555">
            <g id="teach&amp;play(Redesign)" transform="translate(1876.000000, 110.000000)">
                <g id="TEZCH&amp;PLAY" transform="translate(85.000000, 23.000000)">
                    <path d="M0.282226562,12.9780273 L7.60351562,12.9780273 L7.60351562,10.9858398 L1.49414062,10.9858398 L1.49414062,8.79443359 L7.60351562,8.79443359 L7.60351562,6.84375 L1.80957031,7.03466797 C1.68782491,6.44807649 1.50520955,5.70101365 1.26171875,4.79345703 C7.29364995,4.71598269 11.886703,4.55550252 15.0410156,4.31201172 L15.7714844,6.50341797 L10.1103516,6.75244141 L10.1103516,8.79443359 L15.5390625,8.79443359 L15.5390625,10.9858398 L10.1103516,10.9858398 L10.1103516,12.9780273 L16.734375,12.9780273 L16.734375,15.2192383 L10.1103516,15.2192383 L10.1103516,17.2280273 C10.1103516,17.75928 10.0093597,18.2324198 9.80737305,18.6474609 C9.60538636,19.0625021 9.30656122,19.3751617 8.91088867,19.5854492 C8.51521612,19.7957367 8.18042129,19.9243976 7.90649414,19.9714355 C7.63256699,20.0184735 6.44695059,20.0613605 4.34960938,20.1000977 C4.15038963,19.1593377 3.96224047,18.3237341 3.78515625,17.5932617 C4.92513591,17.6818038 5.80500992,17.7260742 6.42480469,17.7260742 C7.21061591,17.7260742 7.60351562,17.3165731 7.60351562,16.4975586 L7.60351562,15.2192383 L0.282226562,15.2192383 L0.282226562,12.9780273 Z M17.3652344,6.83544922 L19.0917969,6.83544922 L19.0917969,3.97998047 L21.3828125,3.97998047 L21.3828125,6.83544922 L22.8769531,6.83544922 L22.8769531,8.91064453 L21.3828125,8.91064453 L21.3828125,11.4506836 L22.6113281,11.2182617 C22.6113281,11.7163111 22.6445309,12.4467725 22.7109375,13.409668 L21.3828125,13.6503906 L21.3828125,17.9418945 C21.3828125,18.5782909 21.2569186,19.0694156 21.005127,19.4152832 C20.7533353,19.7611508 20.3701198,19.9645179 19.8554688,20.0253906 C19.3408177,20.0862633 18.6546267,20.1166992 17.796875,20.1166992 C17.6640618,19.3972946 17.5146493,18.6612993 17.3486328,17.9086914 C17.9407582,17.9418947 18.3613269,17.9584961 18.6103516,17.9584961 C18.9313167,17.9584961 19.0917969,17.7371441 19.0917969,17.2944336 L19.0917969,14.1069336 L17.4150391,14.472168 L17.2822266,12.1147461 C17.8411486,12.0372717 18.4443327,11.9459641 19.0917969,11.8408203 L19.0917969,8.91064453 L17.3652344,8.91064453 L17.3652344,6.83544922 Z M22.8769531,9.22607422 L27.0439453,9.22607422 L27.0439453,7.86474609 L23.7236328,7.86474609 L23.7236328,5.87255859 L27.0439453,5.87255859 L27.0439453,3.97998047 L29.3349609,3.97998047 L29.3349609,5.87255859 L32.7382812,5.87255859 L32.7382812,7.86474609 L29.3349609,7.86474609 L29.3349609,9.22607422 L33.7841797,9.22607422 L33.7841797,11.2182617 L22.8769531,11.2182617 L22.8769531,9.22607422 Z M23.6738281,15.3686523 L24.7280273,14.5717773 L22.9765625,14.5717773 L22.9765625,12.5795898 L29.3681641,12.5795898 L29.3681641,11.550293 L31.6591797,11.550293 L31.6591797,12.5795898 L33.6015625,12.5795898 L33.6015625,14.5717773 L31.6591797,14.5717773 L31.6591797,17.1118164 C31.6591797,18.0415086 31.4627298,18.7553686 31.0698242,19.253418 C30.6769186,19.7514673 30.1415236,20.036458 29.463623,20.1083984 C28.7857225,20.1803389 27.8186912,20.2218424 26.5625,20.2329102 C26.4186191,19.4470989 26.2636727,18.7221713 26.0976562,18.0581055 C26.8945352,18.1023765 27.6139291,18.1245117 28.2558594,18.1245117 C28.9973995,18.1245117 29.3681641,17.6707402 29.3681641,16.7631836 L29.3681641,14.5717773 L25.5913086,14.5717773 C26.2553744,15.2856481 26.8336564,15.9718392 27.3261719,16.6303711 L25.5830078,17.8588867 C25.0960262,17.1505498 24.4596393,16.32048 23.6738281,15.3686523 Z M36.0419922,4.81005859 L49.0576172,4.81005859 L49.0576172,7.16748047 L36.0419922,7.16748047 L36.0419922,4.81005859 Z M34.5478516,9.34228516 L50.4853516,9.34228516 L50.4853516,11.699707 L44.0771484,11.699707 L44.0771484,17.1948242 C44.0771484,18.1134486 43.9166683,18.7622865 43.5957031,19.1413574 C43.274738,19.5204283 42.8859886,19.7694493 42.4294434,19.8884277 C41.9728981,20.0074062 40.8011162,20.0668945 38.9140625,20.0668945 C38.7259105,19.1150669 38.5377614,18.284997 38.3496094,17.5766602 C39.1962933,17.6652023 39.8990857,17.7094727 40.4580078,17.7094727 C41.199548,17.7094727 41.5703125,17.4106475 41.5703125,16.8129883 L41.5703125,11.699707 L34.5478516,11.699707 L34.5478516,9.34228516 Z M37.8183594,12.4135742 L39.9599609,13.5424805 C38.6207615,15.7006944 37.3645892,17.499179 36.1914062,18.9379883 C35.6380181,18.48421 34.9850298,17.9972357 34.2324219,17.4770508 C35.582689,15.8832928 36.7779896,14.1954842 37.8183594,12.4135742 Z M46.9326172,12.496582 C48.2386133,14.0792722 49.5224546,15.7338781 50.7841797,17.4604492 C50.1865204,17.8478209 49.4671266,18.3292614 48.6259766,18.9047852 C47.6298778,17.2778239 46.4511787,15.5512787 45.0898438,13.7250977 L46.9326172,12.496582 Z M59.1347656,11.3842773 L59.1347656,13.0942383 L57.1259766,14.5219727 L57.1259766,15.1694336 C58.1110075,15.0919592 59.0738885,15.0089523 60.0146484,14.9204102 C59.9703774,15.7283569 59.9427084,16.3536762 59.9316406,16.7963867 C58.9466097,16.8849288 58.0113977,16.9734696 57.1259766,17.0620117 L57.1259766,18.190918 C57.103841,19.2866266 56.6168667,19.8898106 55.6650391,20.0004883 C55.0673798,20.0558271 54.1985734,20.0834961 53.0585938,20.0834961 C52.9479161,19.4526336 52.8206387,18.8217805 52.6767578,18.190918 C53.3850947,18.2241213 53.9440084,18.2407227 54.3535156,18.2407227 C54.8626328,18.2296549 55.1171875,17.9861677 55.1171875,17.5102539 L55.1171875,17.2612305 C53.877598,17.3829759 52.7321016,17.5047194 51.6806641,17.6264648 L51.3984375,15.6176758 C51.7083349,15.606608 52.0126938,15.5900066 52.3115234,15.5678711 C51.9794905,14.9702119 51.664064,14.4389672 51.3652344,13.9741211 C51.8411482,13.6531559 52.2506493,13.3432632 52.59375,13.0444336 L51.5146484,13.0444336 L51.5146484,11.3842773 L54.2871094,11.3842773 C54.5638035,11.0965155 54.8570948,10.7755552 55.1669922,10.4213867 L51.4648438,10.4213867 L51.4648438,8.69482422 L54.2539062,8.69482422 L54.2539062,7.46630859 L52.0791016,7.46630859 L52.0791016,5.73974609 L54.2539062,5.73974609 L54.2539062,3.97998047 L56.2792969,3.97998047 L56.2792969,5.73974609 L58.0390625,5.73974609 L58.0390625,6.96826172 C58.3489599,6.5476867 58.6865216,6.0551786 59.0517578,5.49072266 L60.6455078,6.50341797 C60.1031874,7.32243248 59.5774765,8.05289393 59.0683594,8.69482422 L59.6826172,8.69482422 L59.6826172,10.3383789 C60.6344449,8.32404592 61.3427711,6.20460097 61.8076172,3.97998047 L64.015625,4.19580078 C63.8053375,5.03695082 63.5895193,5.83381785 63.3681641,6.58642578 L67.6347656,6.58642578 L67.6347656,8.61181641 L66.9541016,8.61181641 C66.7327463,11.4562317 66.0852918,13.8579004 65.0117188,15.8168945 C65.7753944,16.7133834 66.694005,17.4438448 67.7675781,18.0083008 C67.3691386,18.4620791 66.8876981,19.1980743 66.3232422,20.2163086 C65.3160757,19.5190395 64.4362017,18.7055711 63.6835938,17.7758789 C62.7760371,18.8605197 61.680345,19.7514614 60.3964844,20.4487305 C59.898435,19.7403936 59.3395213,19.0763377 58.7197266,18.456543 C60.2028069,17.7703416 61.4202426,16.8572648 62.3720703,15.7172852 C61.8408177,14.6879831 61.4257827,13.5480206 61.1269531,12.2973633 C60.9388011,12.6625995 60.7451182,13.0001612 60.5458984,13.3100586 C60.1806622,12.6459928 59.7324245,11.9708693 59.2011719,11.284668 C59.3450528,11.0079739 59.4889316,10.7202163 59.6328125,10.4213867 L57.6572266,10.4213867 C57.3805325,10.7534196 57.1149101,11.07438 56.8603516,11.3842773 L59.1347656,11.3842773 Z M62.421875,9.39208984 C62.654298,11.0301189 63.0693329,12.4689066 63.6669922,13.7084961 C64.3753291,12.2586191 64.7958978,10.5597428 64.9287109,8.61181641 L62.7041016,8.61181641 C62.6155595,8.87744273 62.5214849,9.13753128 62.421875,9.39208984 Z M57.7070312,7.46630859 L56.2792969,7.46630859 L56.2792969,8.69482422 L56.7109375,8.69482422 C57.0429704,8.31852025 57.3749983,7.90901914 57.7070312,7.46630859 Z M52.7265625,15.534668 L55.1171875,15.3520508 L55.1171875,14.090332 L56.6279297,13.0444336 L55.3994141,13.0444336 C54.5250607,13.9851935 53.6341191,14.8152633 52.7265625,15.534668 Z" id="手持示教"></path>
                </g>
            </g>
        </g>
    </g>
</svg>