<?xml version="1.0" encoding="UTF-8" standalone="no"?>
<svg width="58px" height="16px" viewBox="0 0 58 16" version="1.1" xmlns="http://www.w3.org/2000/svg" xmlns:xlink="http://www.w3.org/1999/xlink">
    <!-- Generator: Sketch 43.2 (39069) - http://www.bohemiancoding.com/sketch -->
    <title>我的项目</title>
    <desc>Created with Sketch.</desc>
    <defs></defs>
    <g id="YCH-WORKS" stroke="none" stroke-width="1" fill="none" fill-rule="evenodd">
        <g id="REDESIGN_Blocky-" transform="translate(-1259.000000, -69.000000)" fill="#D95E2E">
            <g id="No1#FDFDFD-Right-pullout_Control-Panel_Redesign" transform="translate(1211.000000, 47.000000)">
                <g id="my-projects&amp;-missions" transform="translate(12.000000, 22.000000)">
                    <g id="My-Projects">
                        <path d="M49.488,6.32 L46.096,6.32 C46.272,7.92 46.544,9.088 47.008,10.288 C47.968,9.184 48.656,8.048 48.944,7.072 L49.936,7.616 C49.744,7.888 49.6,8.112 49.424,8.432 C48.864,9.472 48.208,10.416 47.472,11.248 C48.192,12.64 49.152,13.76 49.6,13.76 C49.904,13.76 50.144,12.992 50.4,11.248 C50.736,11.6 50.928,11.744 51.264,11.936 C50.848,14.208 50.464,14.896 49.664,14.896 C48.832,14.896 47.744,13.808 46.736,11.984 C45.52,13.12 44.4,13.84 42.64,14.656 C42.432,14.304 42.288,14.112 41.904,13.776 C43.776,13.056 45.04,12.272 46.288,11.072 C45.696,9.68 45.28,8.08 45.072,6.32 L41.216,6.32 L41.216,8.912 C42.4,8.608 42.832,8.48 44.08,8.048 L44.128,8.992 C42.592,9.488 42.08,9.648 41.216,9.872 L41.216,13.712 C41.216,14.544 40.88,14.816 39.808,14.816 C39.28,14.816 38.688,14.784 38.032,14.736 C38,14.32 37.936,14.032 37.776,13.632 C38.672,13.76 39.232,13.808 39.776,13.808 C40.128,13.808 40.208,13.744 40.208,13.456 L40.208,10.112 C38.64,10.496 38.464,10.544 37.952,10.64 C37.584,10.72 37.408,10.752 37.12,10.864 L36.848,9.76 C37.392,9.76 38.144,9.616 40.208,9.152 L40.208,6.32 L38.528,6.32 C37.856,6.32 37.344,6.352 36.88,6.416 L36.88,5.312 C37.296,5.376 37.808,5.408 38.528,5.408 L40.208,5.408 L40.208,2.912 C39.04,3.216 38.608,3.312 37.536,3.488 C37.424,3.168 37.296,2.912 37.088,2.608 C39.536,2.32 42.384,1.504 43.296,0.816 L43.904,1.712 L43.616,1.808 C43.552,1.824 43.552,1.824 43.2,1.952 C42.448,2.24 41.808,2.464 41.216,2.64 L41.216,5.408 L44.992,5.408 C44.896,4.208 44.88,4 44.848,2.144 C44.832,1.552 44.816,1.344 44.752,0.96 L45.968,0.96 C45.888,1.328 45.872,1.616 45.872,2.496 C45.872,3.456 45.904,4.336 46,5.408 L49.536,5.408 C50.208,5.408 50.672,5.376 51.136,5.312 L51.136,6.416 C50.672,6.352 50.16,6.32 49.488,6.32 Z M46.992,1.824 L47.712,1.296 C48.704,2.144 49.36,2.832 50.144,3.872 L49.376,4.528 C48.592,3.456 48.128,2.912 46.992,1.824 Z M54.9851428,3.168 L56.0251428,3.168 C56.8251428,3.152 57.2891428,3.136 57.4331428,3.12 C57.4011428,3.536 57.3851428,3.952 57.3851428,4.528 L57.3851428,12.672 C57.3851428,13.392 57.4171428,13.936 57.4651428,14.32 L56.4091428,14.32 L56.4091428,13.296 L53.2891428,13.296 L53.2891428,14.704 L52.2171428,14.704 C52.2811428,14.288 52.2971428,13.696 52.2971428,12.752 L52.2971428,4.64 C52.2971428,3.888 52.2811428,3.52 52.2331428,3.12 C52.5691428,3.152 52.8571428,3.168 53.6571428,3.168 L53.9771428,3.168 C54.2971428,2.384 54.5371428,1.584 54.6651428,0.752 L55.8011428,0.976 C55.5131428,1.84 55.2251428,2.64 54.9851428,3.168 Z M53.2891428,4.048 L53.2891428,7.616 L56.4091428,7.616 L56.4091428,4.048 L53.2891428,4.048 Z M53.2891428,8.496 L53.2891428,12.4 L56.4091428,12.4 L56.4091428,8.496 L53.2891428,8.496 Z M60.4731428,3.152 L64.3451428,3.152 C64.9851428,3.152 65.4331428,3.136 65.7531428,3.088 C65.7051428,3.376 65.7051428,3.504 65.6891428,4.096 C65.5451428,10.432 65.3371428,12.576 64.7611428,13.856 C64.4411428,14.592 63.9291428,14.88 62.9691428,14.88 C62.3931428,14.88 61.9291428,14.848 60.9371428,14.768 C60.9051428,14.304 60.8411428,14.032 60.6651428,13.632 C61.6411428,13.824 62.3611428,13.904 62.9371428,13.904 C63.5291428,13.904 63.7371428,13.76 63.9451428,13.248 C64.2171428,12.512 64.4251428,10.976 64.5371428,8.832 C64.6171428,7.552 64.6331428,6.448 64.6491428,4.096 L60.0411428,4.096 C59.4971428,5.2 59.0331428,5.936 58.2011428,7.008 C57.9931428,6.736 57.7051428,6.464 57.4331428,6.288 C58.4091428,5.248 59.1931428,3.888 59.7851428,2.256 C60.0091428,1.648 60.1691428,1.056 60.2011428,0.704 L61.3051428,0.912 C61.2571428,1.008 61.1771428,1.232 61.0811428,1.52 C60.8891428,2.08 60.7291428,2.512 60.4731428,3.152 Z M62.7131428,10.128 L61.8011428,10.688 C60.9051428,8.768 60.2971428,7.76 59.3691428,6.64 L60.1851428,6.144 C61.1931428,7.36 61.8651428,8.416 62.7131428,10.128 Z M68.5462856,3.28 L67.8742856,3.28 C67.3782856,3.28 66.9942856,3.312 66.6582856,3.36 L66.6582856,2.288 C67.0262856,2.352 67.3942856,2.368 67.9542856,2.368 L70.0502856,2.368 C70.6102856,2.368 70.9622856,2.352 71.3462856,2.288 L71.3462856,3.36 C70.9782856,3.296 70.6262856,3.28 70.1622856,3.28 L69.5702856,3.28 L69.5702856,10.368 C70.4022856,10.032 70.7062856,9.888 71.6022856,9.392 L71.6022856,10.4 C70.6422856,10.896 69.7462856,11.28 68.4822856,11.712 C68.0022856,11.888 67.6662856,12 67.5382856,12.048 C67.3942856,12.096 67.3942856,12.096 67.1222856,12.176 C67.0262856,12.208 66.8342856,12.304 66.6742856,12.384 L66.3702856,11.216 C66.8022856,11.184 67.7622856,10.96 68.5462856,10.72 L68.5462856,3.28 Z M75.6822856,2.192 L73.0742856,2.192 C72.2902856,2.192 71.9382856,2.208 71.5702856,2.256 L71.5702856,1.2 C72.0342856,1.28 72.3542856,1.296 73.1062856,1.296 L79.4902856,1.296 C80.2262856,1.296 80.6582856,1.264 81.0102856,1.2 L81.0102856,2.272 C80.5462856,2.208 80.1782856,2.192 79.5222856,2.192 L76.7542856,2.192 C76.6262856,2.576 76.4022856,3.168 76.0822856,3.984 L78.4982856,3.968 C79.3462856,3.968 79.6182856,3.952 80.0662856,3.92 C80.0182856,4.288 80.0022856,4.56 80.0022856,5.04 L80.0022856,9.936 C80.0022856,10.64 80.0342856,11.056 80.0982856,11.552 L78.9142856,11.552 C78.9782856,11.056 79.0102856,10.64 79.0102856,9.936 L79.0102856,4.832 L73.2342856,4.832 L73.2342856,9.952 C73.2342856,10.64 73.2662856,11.056 73.3302856,11.552 L72.1622856,11.552 C72.2262856,11.056 72.2582856,10.64 72.2582856,9.952 L72.2582856,5.136 C72.2582856,4.64 72.2422856,4.256 72.1942856,3.936 C72.6422856,3.968 72.9942856,3.984 73.6022856,3.984 L75.0422856,3.984 C75.3462856,3.312 75.5542856,2.752 75.6822856,2.192 Z M76.7062856,12.48 L77.2662856,11.776 C78.9462856,12.832 80.2102856,13.68 81.2342856,14.448 L80.5782856,15.216 C79.3782856,14.24 78.2582856,13.44 76.7062856,12.48 Z M75.5382856,5.872 L76.7382856,5.872 C76.6742856,6.192 76.6422856,6.656 76.6422856,7.328 L76.6422856,9.072 C76.6422856,10.448 76.5942856,11.024 76.4342856,11.552 C76.1462856,12.448 75.4422856,13.312 74.5302856,13.856 C73.7942856,14.32 73.1702856,14.576 71.4902856,15.152 C71.2182856,14.672 71.0902856,14.512 70.7062856,14.224 C72.4822856,13.792 73.4422856,13.408 74.3382856,12.768 C74.8982856,12.368 75.2822856,11.84 75.4742856,11.184 C75.5862856,10.768 75.6342856,10.176 75.6342856,9.072 L75.6342856,7.312 C75.6342856,6.688 75.6022856,6.24 75.5382856,5.872 Z M84.9874284,1.52 L92.1554284,1.52 C92.9074284,1.52 93.3554284,1.504 93.8194284,1.44 C93.7554284,1.904 93.7394284,2.32 93.7394284,2.912 L93.7394284,13.36 C93.7394284,14.112 93.7714284,14.576 93.8354284,15.056 L92.6674284,15.056 L92.6674284,14 L84.4274284,14 L84.4274284,15.056 L83.2594284,15.056 C83.3234284,14.592 83.3554284,14.128 83.3554284,13.424 L83.3554284,3.024 C83.3554284,2.352 83.3394284,1.92 83.2754284,1.44 C83.7874284,1.504 84.2514284,1.52 84.9874284,1.52 Z M84.4274284,5.264 L92.6674284,5.264 L92.6674284,2.512 L84.4274284,2.512 L84.4274284,5.264 Z M84.4274284,6.224 L84.4274284,9.088 L92.6674284,9.088 L92.6674284,6.224 L84.4274284,6.224 Z M84.4274284,10.048 L84.4274284,13.024 L92.6674284,13.024 L92.6674284,10.048 L84.4274284,10.048 Z" id="我的项目"></path>
                    </g>
                </g>
            </g>
        </g>
    </g>
</svg>