<?xml version="1.0" encoding="UTF-8" standalone="no"?>
<svg width="117px" height="13px" viewBox="0 0 117 13" version="1.1" xmlns="http://www.w3.org/2000/svg" xmlns:xlink="http://www.w3.org/1999/xlink">
    <!-- Generator: Sketch 46 (44423) - http://www.bohemiancoding.com/sketch -->
    <title>TEACH &amp; PLAY</title>
    <desc>Created with Sketch.</desc>
    <defs></defs>
    <g id="---" stroke="none" stroke-width="1" fill="none" fill-rule="evenodd">
        <g id="top_navi_teach&amp;play" transform="translate(-56.000000, -24.000000)" fill="#FFFFFF">
            <g id="top_navi">
                <g id="title_teach&amp;play" transform="translate(56.000000, 24.000000)">
                    <path d="M3.952,12 L6.416,12 L6.416,3.072 L9.824,3.072 L9.824,0.8 L0.544,0.8 L0.544,3.072 L3.952,3.072 L3.952,12 Z M11.212,12 L19.74,12 L19.74,9.808 L13.66,9.808 L13.66,7.456 L18.94,7.456 L18.94,5.264 L13.66,5.264 L13.66,2.992 L19.66,2.992 L19.66,0.8 L11.212,0.8 L11.212,12 Z M20.472,12 L25.272,0.72 L27.544,0.72 L32.344,12 L29.768,12 L28.744,9.488 L24.008,9.488 L22.984,12 L20.472,12 Z M24.888,7.312 L27.864,7.312 L26.376,3.68 L24.888,7.312 Z M38.1,12.192 C40.26,12.192 41.54,11.424 42.692,10.192 L41.124,8.608 C40.244,9.408 39.46,9.92 38.18,9.92 C36.26,9.92 34.932,8.32 34.932,6.4 L34.932,6.368 C34.932,4.448 36.292,2.88 38.18,2.88 C39.3,2.88 40.18,3.36 41.044,4.144 L42.612,2.336 C41.572,1.312 40.308,0.608 38.196,0.608 C34.756,0.608 32.356,3.216 32.356,6.4 L32.356,6.432 C32.356,9.648 34.804,12.192 38.1,12.192 Z M44.16,12 L46.624,12 L46.624,7.504 L51.168,7.504 L51.168,12 L53.632,12 L53.632,0.8 L51.168,0.8 L51.168,5.232 L46.624,5.232 L46.624,0.8 L44.16,0.8 L44.16,12 Z M67.656,12.224 L66.36,10.912 C65.448,11.664 64.376,12.16 63.08,12.16 C60.936,12.16 59.32,10.912 59.32,8.928 L59.32,8.896 C59.32,7.472 60.088,6.464 61.496,5.824 C60.952,5.056 60.712,4.352 60.712,3.584 L60.712,3.552 C60.712,2.016 61.944,0.608 64.104,0.608 C66.008,0.608 67.256,1.856 67.256,3.424 L67.256,3.456 C67.256,4.96 66.296,5.84 64.904,6.384 L66.392,7.872 C66.76,7.296 67.128,6.64 67.48,5.952 L69.288,6.944 C68.856,7.728 68.376,8.56 67.816,9.312 L69.464,10.96 L67.656,12.224 Z M63.624,5.088 C64.6,4.72 65.112,4.304 65.112,3.6 L65.112,3.568 C65.112,2.928 64.68,2.528 64.056,2.528 C63.4,2.528 62.968,2.992 62.968,3.664 L62.968,3.696 C62.968,4.192 63.16,4.56 63.624,5.088 Z M63.368,10.144 C63.928,10.144 64.472,9.904 64.984,9.504 L62.84,7.328 C62.104,7.712 61.8,8.256 61.8,8.8 L61.8,8.832 C61.8,9.616 62.456,10.144 63.368,10.144 Z M75.056,12 L75.056,0.8 L79.632,0.8 C82.304,0.8 83.92,2.384 83.92,4.672 L83.92,4.704 C83.92,7.296 81.904,8.64 79.392,8.64 L77.52,8.64 L77.52,12 L75.056,12 Z M77.52,6.448 L79.472,6.448 C80.704,6.448 81.424,5.712 81.424,4.752 L81.424,4.72 C81.424,3.616 80.656,3.024 79.424,3.024 L77.52,3.024 L77.52,6.448 Z M85.244,12 L93.292,12 L93.292,9.76 L87.708,9.76 L87.708,0.8 L85.244,0.8 L85.244,12 Z M93.688,12 L98.488,0.72 L100.76,0.72 L105.56,12 L102.984,12 L101.96,9.488 L97.224,9.488 L96.2,12 L93.688,12 Z M98.104,7.312 L101.08,7.312 L99.592,3.68 L98.104,7.312 Z M109.94,12 L112.404,12 L112.404,7.536 L116.708,0.8 L113.908,0.8 L111.188,5.296 L108.516,0.8 L105.636,0.8 L109.94,7.584 L109.94,12 Z" id="TEACH-&amp;-PLAY"></path>
                </g>
            </g>
        </g>
    </g>
</svg>