<?xml version="1.0" encoding="UTF-8" standalone="no"?>
<svg width="75px" height="7px" viewBox="0 0 75 7" version="1.1" xmlns="http://www.w3.org/2000/svg" xmlns:xlink="http://www.w3.org/1999/xlink">
    <!-- Generator: Sketch 40.3 (33839) - http://www.bohemiancoding.com/sketch -->
    <title>uarmswift</title>
    <desc>Created with Sketch.</desc>
    <defs></defs>
    <g id="Page-1" stroke="none" stroke-width="1" fill="none" fill-rule="evenodd">
        <g id="us首页" transform="translate(-666.000000, -250.000000)">
            <g id="Group" transform="translate(63.000000, 56.000000)">
                <g id="硬件状态-copy-4" transform="translate(530.000000, 0.000000)">
                    <g id="uarmswift" transform="translate(73.000000, 194.000000)">
                        <path d="M6.14,5.8 C6.14,6.2800024 6.04200098,6.5999992 5.846,6.76 C5.64999902,6.9200008 5.30400248,7 4.808,7 L1.448,7 C0.95199752,7 0.60800096,6.9200008 0.416,6.76 C0.22399904,6.5999992 0.128,6.2800024 0.128,5.8 L0.128,1.924 L1.364,1.924 L1.364,6.052 L4.892,6.052 L4.892,1.924 L6.14,1.924 L6.14,5.8 Z M16.112,7 L14.492,7 L13.748,5.644 L9.824,5.644 L9.104,7 L7.664,7 L11.168,0.808 L12.56,0.808 L16.112,7 Z M13.148,4.528 L11.816,2.008 L10.436,4.528 L13.148,4.528 Z M23.936,7 L22.16,7 L20.036,5.08 L18.872,5.08 L18.872,7 L17.648,7 L17.648,1.924 L22.22,1.924 C23.012004,1.924 23.408,2.25199672 23.408,2.908 L23.408,4.108 C23.408,4.60400248 23.1960021,4.90799944 22.772,5.02 C22.6279993,5.0600002 22.2120034,5.08 21.524,5.08 L23.936,7 Z M22.256,3.796 L22.256,3.208 C22.256,2.93599864 22.0680019,2.8 21.692,2.8 L18.872,2.8 L18.872,4.204 L21.692,4.204 C22.0680019,4.204 22.256,4.06800136 22.256,3.796 L22.256,3.796 Z M32.396,7 L31.244,7 L31.244,3.508 L28.976,6.388 L28.736,6.388 L26.444,3.592 L26.444,7 L25.448,7 L25.448,1.924 L26.444,1.924 L28.928,4.936 L31.4,1.924 L32.396,1.924 L32.396,7 Z" id="uArm" fill="#E95516"></path>
                        <path d="M46.728,5.536 C46.728,6.11200288 46.6160011,6.499999 46.392,6.7 C46.1679989,6.900001 45.7640029,7 45.18,7 L41.352,7 C40.7199968,7 40.304001,6.88800112 40.104,6.664 C39.903999,6.43999888 39.804,6.0080032 39.804,5.368 L41.076,5.104 L41.076,5.836 L45.456,5.836 L45.456,4.42 L41.592,4.42 C41.0079971,4.42 40.6060011,4.320001 40.386,4.12 C40.1659989,3.919999 40.056,3.53200288 40.056,2.956 L40.056,2.272 C40.056,1.69599712 40.1659989,1.308001 40.386,1.108 C40.6060011,0.907999 41.0079971,0.808 41.592,0.808 L45.108,0.808 C45.700003,0.808 46.1039989,0.90999898 46.32,1.114 C46.5360011,1.31800102 46.644,1.71199708 46.644,2.296 L45.372,2.596 L45.372,1.888 L41.316,1.888 L41.316,3.22 L45.18,3.22 C45.7640029,3.22 46.1679989,3.319999 46.392,3.52 C46.6160011,3.720001 46.728,4.10799712 46.728,4.684 L46.728,5.536 Z M57.312,1.924 L55.272,7 L54.432,7 L52.968,3.412 L51.48,7 L50.628,7 L48.564,1.924 L49.86,1.924 L51.192,5.464 L52.62,1.924 L53.472,1.924 L54.888,5.464 L56.196,1.924 L57.312,1.924 Z M59.964,7 L58.728,7 L58.728,1.924 L59.964,1.924 L59.964,7 Z M67.608,2.836 L63.468,2.836 L63.468,4.156 L65.7,4.156 L65.7,5.104 L63.468,5.104 L63.468,7 L62.22,7 L62.22,1.924 L67.608,1.924 L67.608,2.836 Z M74.532,2.836 L72.072,2.836 L72.072,7 L70.836,7 L70.836,2.836 L68.388,2.836 L68.388,1.924 L74.532,1.924 L74.532,2.836 Z" id="Swift" fill="#555555"></path>
                    </g>
                </g>
            </g>
        </g>
    </g>
</svg>