<?xml version="1.0" encoding="UTF-8" standalone="no"?>
<svg width="23px" height="23px" viewBox="0 0 23 23" version="1.1" xmlns="http://www.w3.org/2000/svg" xmlns:xlink="http://www.w3.org/1999/xlink">
    <!-- Generator: Sketch 43.1 (39012) - http://www.bohemiancoding.com/sketch -->
    <title>Shape_a~~~</title>
    <desc>Created with Sketch.</desc>
    <defs></defs>
    <g id="YCH-WORKS" stroke="none" stroke-width="1" fill="none" fill-rule="evenodd">
        <g id="写字作图_插入文字" transform="translate(-1452.000000, -475.000000)" fill-rule="nonzero" fill="#000000">
            <g id="画图" transform="translate(117.000000, 150.000000)">
                <g id="1st#FDFDFD-Right-pullout_Control-Panel_Redesign" transform="translate(1308.000000, 0.000000)">
                    <g id="震惊-1" transform="translate(27.000000, 325.000000)">
                        <g id="Shape_a~~~">
                            <path d="M21.8704844,6.52737305 C21.8616797,6.50868555 21.8526055,6.49008789 21.8435313,6.47149023 C21.7693203,6.31889063 21.6929531,6.1672793 21.6118691,6.01804883 C21.5752384,5.95044459 21.5217597,5.89345321 21.4566191,5.85260156 C20.7875527,4.98695703 19.7401094,4.42794922 18.5639199,4.42794922 C16.5485,4.42794922 14.9088516,6.06759766 14.9088516,8.0830625 C14.9088516,10.0984824 16.5485,11.7381309 18.5639199,11.7381309 C20.0636367,11.7381309 21.3546016,10.8299902 21.9175176,9.53511719 C22.0394887,10.1829555 22.100937,10.8407347 22.1010684,11.4999551 C22.1010684,17.3453691 17.3455488,22.1007988 11.5002246,22.1007988 C5.65490039,22.1007988 0.899111328,17.3454141 0.899111328,11.5 C0.899111328,5.65458594 5.65467578,0.899111328 11.5000449,0.899111328 C13.1081582,0.899111328 14.6526621,1.24995117 16.0904316,1.94174805 C16.3141426,2.04929102 16.5827754,1.95531445 16.690498,1.73155859 C16.7981309,1.50784766 16.7040645,1.23916992 16.4803086,1.13149219 C14.9198574,0.380757813 13.2442715,0 11.5000449,0 C5.15887305,0 4.49218751e-05,5.15882813 4.49218751e-05,11.5 C4.49218751e-05,17.841082 5.15887305,23 11.5000449,23 C17.841127,23 23,17.8411719 23,11.5000449 C23.0000449,9.77733594 22.6100781,8.07034961 21.8704844,6.52737305 L21.8704844,6.52737305 Z M18.563875,10.8391094 C17.0442129,10.8391094 15.807918,9.60276953 15.807918,8.08315234 C15.807918,6.56353516 17.0442578,5.32710547 18.563875,5.32710547 C19.6451445,5.32710547 20.5824844,5.95331641 21.0336348,6.86181641 C21.0424395,6.87991992 21.0511992,6.89802344 21.0598691,6.91612695 C21.2313811,7.2812555 21.3201634,7.67974791 21.319877,8.08315234 C21.3199219,9.60285937 20.0835371,10.8391094 18.563875,10.8391094 L18.563875,10.8391094 Z" id="Shape"></path>
                            <path d="M16.5781484,14.5903555 L11.6374609,14.5903555 C10.4807227,14.5903555 9.53956445,15.5314687 9.53956445,16.688252 C9.53956445,17.8450352 10.4806777,18.7861484 11.6374609,18.7861484 L16.5781035,18.7861484 C17.7348867,18.7861484 18.676,17.8450352 18.676,16.688252 C18.676,15.5314687 17.7349316,14.5903555 16.5781484,14.5903555 L16.5781484,14.5903555 Z M16.5781484,17.887082 L11.6374609,17.887082 C10.9764355,17.887082 10.4386758,17.3493223 10.4386758,16.6882969 C10.4386758,16.0272715 10.9764355,15.4895117 11.6374609,15.4895117 L16.5781035,15.4895117 C17.2391289,15.4895117 17.7768887,16.0272715 17.7768887,16.6882969 C17.7769336,17.3492773 17.2391289,17.887082 16.5781484,17.887082 Z M9.57442383,4.42799414 C7.55895898,4.42799414 5.91931055,6.06764258 5.91931055,8.08310742 C5.91931055,10.0985273 7.55895898,11.7381758 9.57442383,11.7381758 C11.5898438,11.7381758 13.2294922,10.0985273 13.2294922,8.08310742 C13.2295371,6.06764258 11.5897988,4.42799414 9.57442383,4.42799414 L9.57442383,4.42799414 Z M9.57442383,10.8391543 C8.0547168,10.8391543 6.81837695,9.60285937 6.81837695,8.08319727 C6.81837695,6.56353516 8.05476172,5.32715039 9.57442383,5.32715039 C11.0940859,5.32715039 12.3303809,6.56353516 12.3303809,8.08319727 C12.3303809,9.60285937 11.0941309,10.8391543 9.57442383,10.8391543 L9.57442383,10.8391543 Z" id="Shape"></path>
                            <path d="M9.66413281,8.08288281 C9.66413281,8.33115315 9.86539568,8.53241602 10.113666,8.53241602 C10.3619363,8.53241602 10.5631992,8.33115315 10.5631992,8.08288281 C10.5631992,7.83461248 10.3619363,7.63334961 10.113666,7.63334961 C9.86539568,7.63334961 9.66413281,7.83461248 9.66413281,8.08288281 L9.66413281,8.08288281 Z" id="Shape"></path>
                            <path d="M18.7857891,8.08288281 C18.7857891,8.33115315 18.9870519,8.53241602 19.2353223,8.53241602 C19.4835926,8.53241602 19.6848555,8.33115315 19.6848555,8.08288281 C19.6848555,7.83461248 19.4835926,7.63334961 19.2353223,7.63334961 C18.9870519,7.63334961 18.7857891,7.83461248 18.7857891,8.08288281 L18.7857891,8.08288281 Z" id="Shape"></path>
                            <path d="M17.1242637,2.25143945 C17.1242637,2.49970979 17.3255265,2.70097266 17.5737969,2.70097266 C17.8220672,2.70097266 18.0233301,2.49970979 18.0233301,2.25143945 C18.0233301,2.00316912 17.8220672,1.80190625 17.5737969,1.80190625 C17.3255265,1.80190625 17.1242637,2.00316912 17.1242637,2.25143945 L17.1242637,2.25143945 Z" id="Shape"></path>
                        </g>
                    </g>
                </g>
            </g>
        </g>
    </g>
</svg>