<?xml version="1.0" encoding="UTF-8" standalone="no"?>
<svg width="24px" height="24px" viewBox="0 0 24 24" version="1.1" xmlns="http://www.w3.org/2000/svg" xmlns:xlink="http://www.w3.org/1999/xlink">
    <!-- Generator: Sketch 43.1 (39012) - http://www.bohemiancoding.com/sketch -->
    <title>Shape_black a~~</title>
    <desc>Created with Sketch.</desc>
    <defs></defs>
    <g id="YCH-WORKS" stroke="none" stroke-width="1" fill="none" fill-rule="evenodd">
        <g id="写字作图_插入文字" transform="translate(-1485.000000, -475.000000)" fill-rule="nonzero">
            <g id="画图" transform="translate(117.000000, 150.000000)">
                <g id="1st#FDFDFD-Right-pullout_Control-Panel_Redesign" transform="translate(1308.000000, 0.000000)">
                    <g id="震惊-1-(1)" transform="translate(60.000000, 325.000000)">
                        <g id="Shape_black-a~~">
                            <path d="M6.23460933,21.9861589 C9.8023035,24.0459681 14.197884,24.0459681 17.7655782,21.9861589 C21.3332723,19.9263497 23.5310626,16.1196653 23.5310625,12.0000469 C23.5310625,5.63166868 18.3684719,0.469078125 12.0000937,0.469078125 C5.63171556,0.469078125 0.469125,5.63166868 0.469125,12.0000469 C0.469124939,16.1196653 2.66691515,19.9263497 6.23460933,21.9861589 Z" id="Shape" fill="#2B2B2B"></path>
                            <path d="M17.2989375,19.1338594 L12.1435312,19.1338594 C11.1935625,19.1338594 10.4235,18.3637969 10.4235,17.4138281 C10.4235,16.4638594 11.1935625,15.6937969 12.1435312,15.6937969 L17.2989375,15.6937969 C18.2489062,15.6937969 19.0189687,16.4638594 19.0189687,17.4138281 C19.0189219,18.3637969 18.2488594,19.1338594 17.2989375,19.1338594 Z" id="Shape" fill="#FFFFFF"></path>
                            <path d="M6.6455625,8.4343125 C6.64556248,9.62934916 7.28310694,10.7336086 8.31803905,11.3311269 C9.35297115,11.9286453 10.6280601,11.9286453 11.6629922,11.3311269 C12.6979243,10.7336086 13.3354688,9.62934916 13.3354688,8.4343125 C13.3354688,7.23927584 12.6979243,6.13501641 11.6629922,5.53749808 C10.6280601,4.93997974 9.35297115,4.93997974 8.31803905,5.53749808 C7.28310694,6.13501641 6.64556248,7.23927584 6.6455625,8.4343125 L6.6455625,8.4343125 Z" id="Shape" fill="#FFFFFF"></path>
                            <path d="M16.0261875,8.4343125 C16.0261875,10.2816791 17.523774,11.7792656 19.3711406,11.7792656 C21.2185072,11.7792656 22.7160937,10.2816791 22.7160937,8.4343125 C22.7160937,6.5869459 21.2185072,5.08935937 19.3711406,5.08935937 C17.523774,5.08935937 16.0261875,6.5869459 16.0261875,8.4343125 L16.0261875,8.4343125 Z" id="Shape" fill="#FFFFFF"></path>
                            <path d="M10,8.5 C10,8.77614237 10.2238576,9 10.5,9 C10.7761424,9 11,8.77614237 11,8.5 C11,8.22385763 10.7761424,8 10.5,8 C10.2238576,8 10,8.22385763 10,8.5 Z" id="Shape" fill="#000000"></path>
                            <path d="M20,8.50000003 C20,8.7761424 20.2238576,9.00000003 20.5,9.00000003 C20.7761424,9.00000003 21,8.7761424 21,8.50000003 C21,8.32136723 20.9047006,8.15630371 20.75,8.0669873 C20.5952995,7.9776709 20.4047005,7.9776709 20.25,8.0669873 C20.0952994,8.15630371 20,8.32136723 20,8.50000003 L20,8.50000003 Z" id="Shape" fill="#000000"></path>
                            <path d="M22.8213281,6.81117188 C22.8121406,6.79167188 22.8026719,6.77226562 22.7932031,6.75285937 C22.7157656,6.593625 22.6360781,6.43542188 22.5514688,6.27970313 C22.5132454,6.20915958 22.4574415,6.14969031 22.3894687,6.1070625 C21.6913125,5.20378125 20.5983281,4.62046875 19.371,4.62046875 C17.2679531,4.62046875 15.5570156,6.33140625 15.5570156,8.4345 C15.5570156,10.5375469 17.2679531,12.2484844 19.371,12.2484844 C20.935875,12.2484844 22.2830156,11.3008594 22.8704062,9.9496875 C22.9976805,10.6256927 23.0618004,11.312071 23.0619375,11.9999531 C23.0619375,18.0995156 18.0996562,23.0617031 12.0001875,23.0617031 C5.90071875,23.0617031 0.93815625,18.0995625 0.93815625,12 C0.93815625,5.9004375 5.90048438,0.938203125 12,0.938203125 C13.6780312,0.938203125 15.2896875,1.30429687 16.7899687,2.02617188 C17.0234063,2.13839062 17.3037188,2.04032813 17.416125,1.80684375 C17.5284375,1.57340625 17.4302813,1.29304687 17.1967969,1.1806875 C15.5685,0.3973125 13.8200625,0 12,0 C5.383125,0 0,5.383125 0,12 C0,18.6167813 5.383125,24 12,24 C18.6167812,24 23.9999531,18.616875 23.9999531,12.0000469 C24,10.2024375 23.5930781,8.42123437 22.8213281,6.81117187 L22.8213281,6.81117188 Z M22.2468281,8.43454688 C22.2468281,10.0203281 20.9566875,11.3103281 19.3709531,11.3103281 C17.7852188,11.3103281 16.4951719,10.0202344 16.4951719,8.43454688 C16.4951719,6.84885938 17.7852656,5.55867188 19.3709531,5.55867188 C20.4992344,5.55867188 21.4773281,6.21210938 21.9480938,7.16010938 C21.9572813,7.179 21.9664219,7.19789063 21.9754688,7.21678125 C22.1544642,7.59777774 22.2471231,8.0135984 22.2468281,8.43454688 L22.2468281,8.43454688 Z" id="Shape" fill="#000000"></path>
                            <path d="M9.95432813,17.4138281 C9.95432813,18.6209062 10.9363594,19.6029375 12.1434375,19.6029375 L17.2988906,19.6029375 C18.5059688,19.6029375 19.488,18.6209062 19.488,17.4138281 C19.488,16.20675 18.5059688,15.2247187 17.2988906,15.2247187 L12.1434375,15.2247187 C10.9364531,15.2247656 9.95432813,16.2067969 9.95432813,17.4138281 Z M18.5498437,17.4138281 C18.5498437,18.1035937 17.9887031,18.6647344 17.2989375,18.6647344 L12.1434375,18.6647344 C11.4536719,18.6647344 10.8925312,18.1035937 10.8925312,17.4138281 C10.8925312,16.7240625 11.4536719,16.1629219 12.1434375,16.1629219 L17.2988906,16.1629219 C17.9887031,16.1629219 18.5498437,16.7241094 18.5498437,17.4138281 Z M9.99070313,4.62051562 C7.88760938,4.62051562 6.17667188,6.33145312 6.17667188,8.43454687 C6.17667188,10.5375937 7.88760938,12.2485312 9.99070313,12.2485312 C12.09375,12.2485312 13.8046875,10.5375937 13.8046875,8.43454687 C13.8047344,6.33145312 12.0937031,4.62051562 9.99070313,4.62051562 L9.99070313,4.62051562 Z M9.99070312,11.3104219 C8.40492187,11.3104219 7.11482812,10.0203281 7.11482812,8.43464062 C7.11482812,6.84895312 8.40496875,5.55876562 9.99070312,5.55876562 C11.5764375,5.55876562 12.8664844,6.84890625 12.8664844,8.43464062 C12.8664844,10.020375 11.5764844,11.3104219 9.99070312,11.3104219 L9.99070312,11.3104219 Z" id="Shape" fill="#000000"></path>
                            <path d="M17.8687969,2.34932812 C17.8687969,2.60839282 18.0788103,2.81840625 18.337875,2.81840625 C18.5969397,2.81840625 18.8069531,2.60839282 18.8069531,2.34932812 C18.8069531,2.09026343 18.5969397,1.88025 18.337875,1.88025 C18.0788103,1.88025 17.8687969,2.09026343 17.8687969,2.34932812 L17.8687969,2.34932812 Z" id="Shape" fill="#000000"></path>
                        </g>
                    </g>
                </g>
            </g>
        </g>
    </g>
</svg>