<?xml version="1.0" encoding="UTF-8" standalone="no"?>
<svg width="119px" height="112px" viewBox="0 0 119 112" version="1.1" xmlns="http://www.w3.org/2000/svg" xmlns:xlink="http://www.w3.org/1999/xlink">
    <!-- Generator: Sketch 43.2 (39069) - http://www.bohemiancoding.com/sketch -->
    <title>icon_teach&amp;play</title>
    <desc>Created with Sketch.</desc>
    <defs></defs>
    <g id="YCH-WORKS" stroke="none" stroke-width="1" fill="none" fill-rule="evenodd">
        <g id="uArm-Studio_Getting-started" transform="translate(-4814.000000, -2110.000000)">
            <g id="6th" transform="translate(4688.000000, 1862.000000)">
                <g id="Icon_Teach&amp;Play" transform="translate(126.000000, 248.000000)">
                    <g id="icon_teach&amp;play" transform="translate(1.000000, 1.000000)">
                        <path d="M24.0169051,7.89683758 C24.0169051,7.89683758 47.4400045,0.143023384 65.7410949,5.55773262 C83.5508733,10.8270783 94.4607169,20.9145202 99.0967228,26.7821018" id="Path-80" stroke="#BFBFBF" stroke-width="1.125" stroke-dasharray="1.125,1.125"></path>
                        <path d="M94.3178703,40.8322289 L42.9909401,65.9340929" id="Path-81" stroke="#91B4DD" stroke-width="1.125" stroke-dasharray="2.25"></path>
                        <path d="M39.5265115,65.9340929 L78.0380276,105.815077" id="Path-82" stroke="#91B4DD" stroke-width="1.125"></path>
                        <ellipse id="Oval-13" stroke="#BFBFBF" stroke-width="1.125" cx="12.1255002" cy="12.1826119" rx="12.1255002" ry="12.1826119"></ellipse>
                        <path d="M105.103538,47.8542654 C111.800267,47.8542654 117.229038,42.3999242 117.229038,35.6716535 C117.229038,28.9433827 111.800267,23.4890416 105.103538,23.4890416 C98.4068089,23.4890416 92.9780376,28.9433827 92.9780376,35.6716535 C92.9780376,42.3999242 98.4068089,47.8542654 105.103538,47.8542654 Z" id="Oval-13-Copy" stroke="#BFBFBF" stroke-width="1.125"></path>
                        <path d="M40.62932,79.3948075 C47.3260489,79.3948075 52.7548202,73.9404664 52.7548202,67.2121956 C52.7548202,60.4839248 47.3260489,55.0295837 40.62932,55.0295837 C33.9325912,55.0295837 28.5038198,60.4839248 28.5038198,67.2121956 C28.5038198,73.9404664 33.9325912,79.3948075 40.62932,79.3948075 Z" id="Oval-13-Copy-2" stroke="#91B4DD" stroke-width="1.125" fill="#3C3C3C"></path>
                        <path d="M40.6469953,74.3423555 C44.4736975,74.3423555 47.5758526,71.2255892 47.5758526,67.380863 C47.5758526,63.5361369 44.4736975,60.4193705 40.6469953,60.4193705 C36.8202931,60.4193705 33.7181381,63.5361369 33.7181381,67.380863 C33.7181381,71.2255892 36.8202931,74.3423555 40.6469953,74.3423555 Z" id="Oval-13-Copy-2" fill="#7DB2F0"></path>
                        <path d="M12.0282436,19.19237 C15.8549458,19.19237 18.9571009,16.0756036 18.9571009,12.2308774 C18.9571009,8.38615128 15.8549458,5.26938492 12.0282436,5.26938492 C8.20154141,5.26938492 5.09938635,8.38615128 5.09938635,12.2308774 C5.09938635,16.0756036 8.20154141,19.19237 12.0282436,19.19237 Z" id="Oval-13-Copy-2" fill="#BFBFBF"></path>
                        <polygon id="Path-83" fill="#91B4DD" transform="translate(76.507600, 104.373962) rotate(-90.000000) translate(-76.507600, -104.373962) " points="73.7418919 97.8686079 70.1221822 110.879315 82.8930172 107.073064"></polygon>
                    </g>
                </g>
            </g>
        </g>
    </g>
</svg>