<?xml version="1.0" encoding="UTF-8" standalone="no"?>
<svg width="102px" height="102px" viewBox="0 0 102 102" version="1.1" xmlns="http://www.w3.org/2000/svg" xmlns:xlink="http://www.w3.org/1999/xlink">
    <!-- Generator: Sketch 43.2 (39069) - http://www.bohemiancoding.com/sketch -->
    <title>icon_save</title>
    <desc>Created with Sketch.</desc>
    <defs></defs>
    <g id="YCH-WORKS" stroke="none" stroke-width="1" fill="none" fill-rule="evenodd">
        <g id="uArm-Studio_Getting-started" transform="translate(-429.000000, -2886.000000)" fill="#D95E2E">
            <g id="8th" transform="translate(200.000000, 2644.000000)">
                <g id="icon_save" transform="translate(229.000000, 242.000000)">
                    <g>
                        <path d="M92.7272727,9.27272727 L92.7272727,92.7272727 L9.27272727,92.7272727 L9.27272727,9.27272727 L92.7272727,9.27272727 Z M0,0 L0,4.63636364 L0,97.3636364 L0,102 L4.63636364,102 L97.3636364,102 L102,102 L102,97.3636364 L102,4.63636364 L102,0 L97.3636364,0 L4.63636364,0 L0,0 Z" id="Rectangle-28" fill-rule="nonzero"></path>
                        <path d="M74.5714286,9.55192679 L74.5714286,47.7596339 L27.4285714,47.7596339 L27.4285714,9.55192679 L74.5714286,9.55192679 Z M18,0 L18,4.77596339 L18,52.5355973 L18,57.3115607 L22.7142857,57.3115607 L79.2857143,57.3115607 L84,57.3115607 L84,52.5355973 L84,4.77596339 L84,0 L79.2857143,0 L22.7142857,0 L18,0 Z" id="Rectangle-28-Copy" fill-rule="nonzero"></path>
                        <rect id="Rectangle-29" x="58.8771073" y="19.1038536" width="4.99054671" height="19.1038536"></rect>
                    </g>
                </g>
            </g>
        </g>
    </g>
</svg>