<?xml version="1.0" encoding="UTF-8" standalone="no"?>
<svg width="119px" height="93px" viewBox="0 0 119 93" version="1.1" xmlns="http://www.w3.org/2000/svg" xmlns:xlink="http://www.w3.org/1999/xlink">
    <!-- Generator: Sketch 43.2 (39069) - http://www.bohemiancoding.com/sketch -->
    <title>icon_leapmotion</title>
    <desc>Created with Sketch.</desc>
    <defs>
        <path d="M10.9447305,66.0418125 C10.9447305,63.8075446 12.75038,61.9963126 14.9854707,61.9963126 L106.058213,61.9963126 C108.289852,61.9963126 110.098953,63.8104616 110.098953,66.0418125 L110.098953,73.4397015 C110.098953,75.9286827 108.084656,77.9464007 105.597145,77.9464007 L15.4465391,77.9464007 C12.9602589,77.9464007 10.9447305,75.926311 10.9447305,73.4397015 L10.9447305,66.0418125 Z" id="path-1"></path>
        <linearGradient x1="50%" y1="-14.4549256%" x2="50%" y2="100%" id="linearGradient-2">
            <stop stop-color="#383838" stop-opacity="0" offset="0%"></stop>
            <stop stop-color="#83F167" stop-opacity="0.404891304" offset="100%"></stop>
        </linearGradient>
    </defs>
    <g id="YCH-WORKS" stroke="none" stroke-width="1" fill="none" fill-rule="evenodd">
        <g id="uArm-Studio_Getting-started" transform="translate(-4813.000000, -1361.000000)">
            <g id="4th" transform="translate(4688.000000, 1080.000000)">
                <g id="icon_leap-motion" transform="translate(125.000000, 281.000000)">
                    <g id="icon_leapmotion">
                        <path d="M9.71009146,65.8570669 C9.71009146,63.3750318 11.7185662,61.3629448 14.2108783,61.3629448 L106.901189,61.3629448 C109.386905,61.3629448 111.401976,63.3789077 111.401976,65.8570669 L111.401976,87.4406043 C111.401976,90.1076957 109.23095,92.2698005 106.565577,92.2698005 L14.5464901,92.2698005 C11.8754209,92.2698005 9.71009146,90.0964904 9.71009146,87.4406043 L9.71009146,65.8570669 Z" id="Rectangle-17" fill="#D3D3D3"></path>
                        <rect id="Rectangle-18" fill="#79AA44" x="86.855659" y="86.8156494" width="8.76654177" height="1.81805033" rx="0.909025167"></rect>
                        <rect id="Rectangle-17-Copy" fill="#E5E5E5" x="9.71009146" y="61.3629448" width="101.691885" height="18.1805033" rx="4.5"></rect>
                        <g id="Rectangle-17-Copy">
                            <use fill="#3E3E3E" fill-rule="evenodd" xlink:href="#path-1"></use>
                            <path stroke="#2B2B2B" stroke-width="0.675" d="M11.2822305,66.0418125 C11.2822305,63.9926132 12.9381019,62.3338126 14.9854707,62.3338126 L106.058213,62.3338126 C108.102324,62.3338126 109.761453,63.9957238 109.761453,66.0418125 L109.761453,73.4397015 C109.761453,75.7428085 107.897738,77.6089007 105.597145,77.6089007 L15.4465391,77.6089007 C13.1475825,77.6089007 11.2822305,75.7408434 11.2822305,73.4397015 L11.2822305,66.0418125 Z"></path>
                        </g>
                        <path d="M11.697096,70.5749521 L0.0359722544,0.358294089 L118.727698,0.358294089 L109.220072,70.5749521 C109.220072,70.5749521 108.509085,76.7164082 103.602348,76.7164082 C85.8546928,76.7164082 42.0250187,76.7164082 19.2227501,76.7164082 C12.1749857,76.7164082 11.697096,70.5749521 11.697096,70.5749521 Z" id="Path-58" fill="url(#linearGradient-2)"></path>
                    </g>
                </g>
            </g>
        </g>
    </g>
</svg>