<?xml version="1.0" encoding="UTF-8" standalone="no"?>
<svg width="93px" height="97px" viewBox="0 0 93 97" version="1.1" xmlns="http://www.w3.org/2000/svg" xmlns:xlink="http://www.w3.org/1999/xlink">
    <!-- Generator: Sketch 43.2 (39069) - http://www.bohemiancoding.com/sketch -->
    <title>icon_control</title>
    <desc>Created with Sketch.</desc>
    <defs>
        <radialGradient cx="50%" cy="0%" fx="50%" fy="0%" r="100%" gradientTransform="translate(0.500000,0.000000),scale(0.999926,1.000000),rotate(90.000000),translate(-0.500000,-0.000000)" id="radialGradient-1">
            <stop stop-color="#C76E6E" offset="0%"></stop>
            <stop stop-color="#9C4343" offset="100%"></stop>
        </radialGradient>
    </defs>
    <g id="YCH-WORKS" stroke="none" stroke-width="1" fill="none" fill-rule="evenodd">
        <g id="uArm-Studio_Getting-started" transform="translate(-3338.000000, -1356.000000)">
            <g id="3rd" transform="translate(3200.000000, 1080.000000)">
                <g id="Icon_control" transform="translate(138.000000, 271.000000)">
                    <g id="icon_control">
                        <path d="M92.3071449,76.0109181 C92.3071449,61.7493987 71.5474457,50.9359801 46.3330368,50.9359801 C21.118628,50.9359801 0.358928744,61.7493987 0.358928744,76.0109181 C0.358928744,90.2724375 21.118628,101.085856 46.3330368,101.085856 C71.5474457,101.085856 92.3071449,90.2724375 92.3071449,76.0109181 Z M5.19830854,73.6228288 C5.19830854,62.8251471 23.4385638,53.3240695 46.3330368,53.3240695 C69.2275099,53.3240695 87.4677651,62.8251471 87.4677651,73.6228288 C87.4677651,84.4205104 69.2275099,93.9215881 46.3330368,93.9215881 C23.4385638,93.9215881 5.19830854,84.4205104 5.19830854,73.6228288 Z" id="Oval-10" fill="#979797" fill-rule="nonzero" opacity="0.5"></path>
                        <path d="M0.358928744,77.4039702 C0.358928744,64.806675 20.7450964,53.7220844 46.3330368,53.7220844 C71.9209773,53.7220844 92.3071449,64.806675 92.3071449,77.4039702 C92.3071449,90.0012655 71.9209773,101.085856 46.3330368,101.085856 C20.7450964,101.085856 0.358928744,90.0012655 0.358928744,77.4039702 Z" id="Oval-10" fill="#506A81" fill-rule="nonzero" opacity="0.300000012"></path>
                        <ellipse id="Oval-10" fill="#959595" cx="46.3330368" cy="71.8317618" rx="29.2562506" ry="15.3235732"></ellipse>
                        <path d="M64.3228945,83.9168049 C67.7807352,82.5026886 70.6160187,80.690333 72.57738,78.6113959 C61.12879,68.2599799 57.2598751,68.6560726 57.2598751,68.6560726 L54.5232243,70.7742288 C54.5232243,70.7742288 59.1828545,71.637551 64.3228945,83.9168049 Z" id="Oval-10" fill="#FFFFFF" opacity="0.400000006"></path>
                        <ellipse id="Oval-10" fill="#6B6B6B" cx="46.3330368" cy="66.2595533" rx="18.1110123" ry="6.96526055"></ellipse>
                        <ellipse id="Oval-10" fill="#404040" cx="46.3330368" cy="69.0456576" rx="9.75208353" ry="4.17915633"></ellipse>
                        <g id="Group-12" transform="translate(53.790569, 39.178294) rotate(-345.000000) translate(-53.790569, -39.178294) translate(32.290569, 4.678294)">
                            <path d="M17.5359562,19.5027295 L25.8948849,19.5027295 L25.8948849,65.5624189 C25.8948849,65.5624189 25.9800746,66.8373045 21.3359104,68.0816128 C18.40657,68.8664693 17.4840464,67.2641581 17.4840464,67.2641581 L17.5359562,19.5027295 Z" id="Rectangle-12" fill="#CFCFCF"></path>
                            <ellipse id="Oval-9" fill="url(#radialGradient-1)" cx="21.1875021" cy="21.3320759" rx="20.8973219" ry="20.8957816"></ellipse>
                            <ellipse id="Oval-11" fill="#FFFFFF" opacity="0.400000006" transform="translate(30.765642, 13.109653) rotate(-308.000000) translate(-30.765642, -13.109653) " cx="30.7656418" cy="13.1096531" rx="5.57261916" ry="3.95843461"></ellipse>
                        </g>
                    </g>
                </g>
            </g>
        </g>
    </g>
</svg>