<?xml version="1.0" encoding="UTF-8" standalone="no"?>
<svg width="128px" height="132px" viewBox="0 0 128 132" version="1.1" xmlns="http://www.w3.org/2000/svg" xmlns:xlink="http://www.w3.org/1999/xlink">
    <!-- Generator: Sketch 43.2 (39069) - http://www.bohemiancoding.com/sketch -->
    <title>last page_control</title>
    <desc>Created with Sketch.</desc>
    <defs>
        <filter x="-1.6%" y="-0.7%" width="103.1%" height="102.9%" filterUnits="objectBoundingBox" id="filter-1">
            <feOffset dx="0" dy="1" in="SourceAlpha" result="shadowOffsetOuter1"></feOffset>
            <feGaussianBlur stdDeviation="0.5" in="shadowOffsetOuter1" result="shadowBlurOuter1"></feGaussianBlur>
            <feColorMatrix values="0 0 0 0 0   0 0 0 0 0   0 0 0 0 0  0 0 0 0.5 0" type="matrix" in="shadowBlurOuter1" result="shadowMatrixOuter1"></feColorMatrix>
            <feMerge>
                <feMergeNode in="shadowMatrixOuter1"></feMergeNode>
                <feMergeNode in="SourceGraphic"></feMergeNode>
            </feMerge>
        </filter>
        <radialGradient cx="50%" cy="0%" fx="50%" fy="0%" r="100%" gradientTransform="translate(0.500000,0.000000),scale(0.997747,1.000000),rotate(90.000000),translate(-0.500000,-0.000000)" id="radialGradient-2">
            <stop stop-color="#C76E6E" offset="0%"></stop>
            <stop stop-color="#9C4343" offset="100%"></stop>
        </radialGradient>
    </defs>
    <g id="YCH-WORKS" stroke="none" stroke-width="1" fill="none" fill-rule="evenodd">
        <g id="uArm-Studio_Getting-started" transform="translate(-2401.000000, -2876.000000)">
            <g id="9th" transform="translate(1735.000000, 2644.000000)">
                <g id="Icon_control" filter="url(#filter-1)" transform="translate(666.000000, 225.000000)">
                    <g id="last-page_control">
                        <path d="M127.455444,104.444961 C127.455444,84.8024747 98.8005221,69.9090807 63.9966986,69.9090807 C29.1928752,69.9090807 0.537953636,84.8024747 0.537953636,104.444961 C0.537953636,124.087447 29.1928752,138.980841 63.9966986,138.980841 C98.8005221,138.980841 127.455444,124.087447 127.455444,104.444961 Z M7.21782153,101.15583 C7.21782153,86.2841102 32.3951171,73.1982122 63.9966986,73.1982122 C95.5982802,73.1982122 120.775576,86.2841102 120.775576,101.15583 C120.775576,116.027549 95.5982802,129.113447 63.9966986,129.113447 C32.3951171,129.113447 7.21782153,116.027549 7.21782153,101.15583 Z" id="Oval-10" fill="#979797" fill-rule="nonzero" opacity="0.5"></path>
                        <path d="M0.537953636,106.363621 C0.537953636,89.0132818 28.6772839,73.7464007 63.9966986,73.7464007 C99.3161133,73.7464007 127.455444,89.0132818 127.455444,106.363621 C127.455444,123.71396 99.3161133,138.980841 63.9966986,138.980841 C28.6772839,138.980841 0.537953636,123.71396 0.537953636,106.363621 Z" id="Oval-10" fill="#506A81" fill-rule="nonzero" opacity="0.300000012"></path>
                        <ellipse id="Oval-10" fill="#959595" cx="63.9966986" cy="98.688981" rx="40.3828377" ry="21.1052602"></ellipse>
                        <path d="M88.8283667,115.333792 C93.6012755,113.38612 97.5148596,110.889951 100.222156,108.026617 C84.4194967,93.7695418 79.079176,94.315083 79.079176,94.315083 L75.3017362,97.2324337 C75.3017362,97.2324337 81.733493,98.4214932 88.8283667,115.333792 Z" id="Oval-10" fill="#FFFFFF" opacity="0.400000006"></path>
                        <ellipse id="Oval-10" fill="#6B6B6B" cx="63.9966986" cy="91.0143409" rx="24.9988995" ry="9.59330009"></ellipse>
                        <ellipse id="Oval-10" fill="#404040" cx="63.9966986" cy="94.851661" rx="13.4609459" ry="5.75598006"></ellipse>
                        <g id="Group-12" transform="translate(74.590375, 53.542351) rotate(-345.000000) translate(-74.590375, -53.542351) translate(44.668711, 6.269630)">
                            <path d="M24.2051411,26.8612403 L35.7430947,26.8612403 L35.7430947,90.2995595 C35.7430947,90.2995595 35.8606833,92.055468 29.4502744,93.7692622 C25.4068623,94.8502504 24.1334892,92.6433764 24.1334892,92.6433764 L24.2051411,26.8612403 Z" id="Rectangle-12" fill="#CFCFCF"></path>
                            <ellipse id="Oval-9" fill="url(#radialGradient-2)" cx="29.2454242" cy="29.3808113" rx="28.8448841" ry="28.7799003"></ellipse>
                            <ellipse id="Oval-11" fill="#FFFFFF" opacity="0.400000006" transform="translate(42.466273, 18.056013) rotate(-308.000000) translate(-42.466273, -18.056013) " cx="42.4662728" cy="18.0560132" rx="7.69196909" ry="5.45197855"></ellipse>
                        </g>
                    </g>
                </g>
            </g>
        </g>
    </g>
</svg>