<?xml version="1.0" encoding="UTF-8" standalone="no"?>
<svg width="40px" height="40px" viewBox="0 0 40 40" version="1.1" xmlns="http://www.w3.org/2000/svg" xmlns:xlink="http://www.w3.org/1999/xlink">
    <!-- Generator: Sketch 46.1 (44463) - http://www.bohemiancoding.com/sketch -->
    <title>alien</title>
    <desc>Created with Sketch.</desc>
    <defs></defs>
    <g id="Page-1" stroke="none" stroke-width="1" fill="none" fill-rule="evenodd">
        <g id="30-Universe-Element-Icons" transform="translate(-482.000000, -690.000000)" fill="#000000">
            <g id="alien" transform="translate(482.000000, 690.000000)">
                <g transform="translate(6.000000, 4.000000)" id="Shape">
                    <path d="M14.4870392,33 C13.6506859,33 12.8143967,32.7647461 12.0833975,32.2940449 C10.0613921,30.991834 7.12995265,28.8201504 4.64707067,25.8690352 C1.56363113,22.2038437 0,18.3303398 0,14.3561602 C0,6.44015625 6.50539847,0 14.5015399,0 C22.4960131,0 29,6.44015625 29,14.3561602 C29,18.5919551 27.1908846,22.7257852 23.6227643,26.6425371 C23.270065,27.0295781 22.6719457,27.0561973 22.2865879,26.7020273 C21.9012943,26.3477285 21.8747312,25.7468965 22.2273663,25.359791 C25.4662706,21.8043633 27.1085645,18.1021758 27.1085645,14.3560957 C27.1085004,7.48790625 21.4529935,1.90007812 14.5015399,1.90007812 C7.54835391,1.90007812 1.89156379,7.48790625 1.89156379,14.3561602 C1.89156379,22.5849551 9.73294615,28.5233437 13.1043453,30.6945762 C13.9501305,31.2392051 15.0414001,31.2357246 15.8844263,30.6856172 C16.8295345,30.0688652 17.7569339,29.3988105 18.6408956,28.6937578 C19.0499292,28.3674961 19.6447763,28.4361387 19.9696933,28.8470918 C20.2944821,29.2579805 20.2260852,29.8556543 19.8170516,30.181916 C18.8864441,30.9240937 17.9100248,31.6296621 16.9149343,32.2790273 C16.1782247,32.7595254 15.332632,33 14.4870392,33 L14.4870392,33 Z"></path>
                    <path d="M9.41065588,19 C8.04460575,19 6.87384811,18.687807 5.930859,18.0721318 C3.4366877,16.4485453 3.04205099,13.0498747 3.00521159,12.6676895 C2.95229,12.0891121 3.30684593,11.5645669 3.8670418,11.388094 C3.9965719,11.3477069 5.15218237,11 6.58555325,11 C7.95116705,11 9.12242336,11.3120103 10.0669708,11.9274418 C12.5650068,13.554135 12.9578982,16.9505517 12.9945506,17.3323714 C13.0487812,17.910096 12.6937266,18.4354331 12.131349,18.6116623 C12.0854712,18.6262212 10.8941433,19 9.41065588,19 L9.41065588,19 Z M4.91001469,12.978116 C5.07825422,13.8478097 5.58453116,15.6887435 6.95083063,16.5782348 C7.58726102,16.9938627 8.41449585,17.2042656 9.41065588,17.2042656 C10.08698,17.2042656 10.6936771,17.1060086 11.0900592,17.0216403 C10.9219443,16.1513375 10.4159167,14.3125357 9.0479342,13.4216434 C8.41044414,13.0062591 7.58208729,12.7957344 6.58574025,12.7957344 C5.91334314,12.7957953 5.30733176,12.8937478 4.91001469,12.978116 L4.91001469,12.978116 Z"></path>
                    <path d="M19.589373,19 C18.1992541,19 17.0833318,18.678002 16.8737107,18.6134318 C16.3052467,18.4340364 15.9510786,17.9083987 16.0054941,17.3332369 C16.019394,17.1830808 16.3787979,13.5906647 18.9331461,11.927252 C19.8773449,11.3120079 21.0486177,11 22.4143649,11 C23.846433,11 25.0028708,11.3475824 25.1300273,11.3872383 C25.6934424,11.5648671 26.0478598,12.089652 25.9947533,12.6643265 C25.9805417,12.8174065 25.6175849,16.413112 23.0679739,18.072809 C22.1261437,18.6878093 20.955432,19 19.589373,19 L19.589373,19 Z M17.9089136,17.0215335 C18.3056541,17.1059621 18.912826,17.2042793 19.5893107,17.2042793 C20.5855564,17.2042793 21.4126964,16.993878 22.0480422,16.5791061 C23.421581,15.684992 23.9245968,13.8480926 24.0908975,12.9784665 C23.69397,12.8941598 23.086985,12.7958425 22.4142403,12.7958425 C21.41787,12.7958425 20.5894832,13.0064266 19.9522052,13.421564 C18.5775445,14.3167136 18.0749649,16.152943 17.9089136,17.0215335 L17.9089136,17.0215335 Z"></path>
                    <path d="M17,26 L12,26 C11.4476934,26 11,25.5523066 11,25 C11,24.4476934 11.4476934,24 12,24 L17,24 C17.5523066,24 18,24.4476934 18,25 C18,25.5523066 17.5523066,26 17,26 L17,26 Z"></path>
                </g>
            </g>
        </g>
    </g>
</svg>