<?xml version="1.0" encoding="UTF-8" standalone="no"?>
<svg width="40px" height="40px" viewBox="0 0 40 40" version="1.1" xmlns="http://www.w3.org/2000/svg" xmlns:xlink="http://www.w3.org/1999/xlink">
    <!-- Generator: Sketch 46.1 (44463) - http://www.bohemiancoding.com/sketch -->
    <title>ambulance</title>
    <desc>Created with Sketch.</desc>
    <defs></defs>
    <g id="Icons" stroke="none" stroke-width="1" fill="none" fill-rule="evenodd">
        <g id="Automotive" transform="translate(-179.000000, -79.000000)" fill="#231F20">
            <g id="Ambulance" transform="translate(181.000000, 88.000000)">
                <g>
                    <path d="M22.2656365,18.6875 L11.3929165,18.6875 C11.0581165,17.0494688 9.60371648,15.8125 7.86563648,15.8125 C5.88059648,15.8125 4.26563648,17.4246562 4.26563648,19.40625 C4.26563648,21.3878438 5.88059648,23 7.86563648,23 C9.60371648,23 11.0581165,21.7630312 11.3929165,20.125 L22.2656365,20.125 C22.6630765,20.125 22.9856365,19.803 22.9856365,19.40625 C22.9856365,19.0095 22.6630765,18.6875 22.2656365,18.6875 L22.2656365,18.6875 Z M7.86563648,21.5625 C6.67475648,21.5625 5.70563648,20.5950625 5.70563648,19.40625 C5.70563648,18.2174375 6.67475648,17.25 7.86563648,17.25 C9.05651648,17.25 10.0256365,18.2174375 10.0256365,19.40625 C10.0256365,20.5950625 9.05651648,21.5625 7.86563648,21.5625 L7.86563648,21.5625 Z M34.6121965,12.9540312 L24.1390765,4.47278125 C24.0109165,4.36928125 23.8510765,4.3125 23.6854765,4.3125 L16.5056365,4.3125 L16.5056365,2.15625 C16.5056365,1.76021875 16.8289165,1.4375 17.2256365,1.4375 C17.6223565,1.4375 17.9456365,1.76021875 17.9456365,2.15625 L17.9456365,2.875 C17.9456365,3.27175 18.2681965,3.59375 18.6656365,3.59375 C19.0630765,3.59375 19.3856365,3.27175 19.3856365,2.875 L19.3856365,2.15625 C19.3856365,0.9674375 18.4165165,0 17.2256365,0 C16.0347565,0 15.0656365,0.9674375 15.0656365,2.15625 L15.0656365,4.3125 L3.49307648,4.3125 C3.19859648,4.3125 2.93363648,4.49146875 2.82419648,4.763875 L0.258116479,11.157875 C-0.00180352109,11.8061875 -0.0673235211,12.5112812 0.0701964789,13.1976875 L1.34459648,19.547125 C1.41299648,19.88925 1.71323648,20.125 2.04947648,20.125 C2.09627648,20.125 2.14451648,20.1206875 2.19203648,20.1113437 C2.58155648,20.033 2.83427648,19.6542188 2.75651648,19.265375 L1.48211648,12.9159375 C1.40003648,12.5048125 1.43891648,12.0814687 1.59515648,11.692625 L3.97979648,5.75 L23.4305965,5.75 L33.7049965,14.07025 C34.2133165,14.481375 34.5041965,15.090875 34.5041965,15.7435 L34.5041965,17.96875 C34.5041965,18.3647812 34.1801965,18.6875 33.7820365,18.6875 L31.5529165,18.6875 C31.2181165,17.0494688 29.7637165,15.8125 28.0256365,15.8125 C26.0405965,15.8125 24.4256365,17.4246562 24.4256365,19.40625 C24.4256365,21.3878438 26.0405965,23 28.0256365,23 C29.7637165,23 31.2181165,21.7630312 31.5529165,20.125 L33.7820365,20.125 C34.9743565,20.125 35.9441965,19.1575625 35.9441965,17.96875 L35.9441965,15.7435 C35.9441965,14.6560313 35.4589165,13.639 34.6121965,12.9540312 L34.6121965,12.9540312 Z M28.0256365,21.5625 C26.8347565,21.5625 25.8656365,20.5950625 25.8656365,19.40625 C25.8656365,18.2174375 26.8347565,17.25 28.0256365,17.25 C29.2165165,17.25 30.1856365,18.2174375 30.1856365,19.40625 C30.1856365,20.5950625 29.2165165,21.5625 28.0256365,21.5625 L28.0256365,21.5625 Z M22.9856365,7.90625 L22.9856365,11.5 L27.3056365,11.5 C27.7030765,11.5 28.0256365,11.822 28.0256365,12.21875 C28.0256365,12.6155 27.7030765,12.9375 27.3056365,12.9375 L22.2656365,12.9375 C21.8681965,12.9375 21.5456365,12.6155 21.5456365,12.21875 L21.5456365,7.90625 C21.5456365,7.5095 21.8681965,7.1875 22.2656365,7.1875 C22.6630765,7.1875 22.9856365,7.5095 22.9856365,7.90625 L22.9856365,7.90625 Z M14.3456365,8.625 L14.3456365,10.0625 L15.7856365,10.0625 C16.1830765,10.0625 16.5056365,10.3845 16.5056365,10.78125 C16.5056365,11.178 16.1830765,11.5 15.7856365,11.5 L14.3456365,11.5 L14.3456365,12.9375 C14.3456365,13.33425 14.0230765,13.65625 13.6256365,13.65625 C13.2281965,13.65625 12.9056365,13.33425 12.9056365,12.9375 L12.9056365,11.5 L11.4656365,11.5 C11.0681965,11.5 10.7456365,11.178 10.7456365,10.78125 C10.7456365,10.3845 11.0681965,10.0625 11.4656365,10.0625 L12.9056365,10.0625 L12.9056365,8.625 C12.9056365,8.22825 13.2281965,7.90625 13.6256365,7.90625 C14.0230765,7.90625 14.3456365,8.22825 14.3456365,8.625 L14.3456365,8.625 Z"></path>
                </g>
            </g>
        </g>
    </g>
</svg>