<?xml version="1.0" encoding="UTF-8" standalone="no"?>
<svg width="40px" height="40px" viewBox="0 0 40 40" version="1.1" xmlns="http://www.w3.org/2000/svg" xmlns:xlink="http://www.w3.org/1999/xlink">
    <!-- Generator: Sketch 46.1 (44463) - http://www.bohemiancoding.com/sketch -->
    <title>angry</title>
    <desc>Created with Sketch.</desc>
    <defs></defs>
    <g id="Page-1" stroke="none" stroke-width="1" fill="none" fill-rule="evenodd">
        <g id="50-Emoji-Icons" transform="translate(-320.000000, -2400.000000)" fill="#000000">
            <g id="angry" transform="translate(326.000000, 2406.000000)">
                <path d="M13.9998108,0 C6.28032432,0 0,6.28032432 0,13.9998108 C0,21.7192973 6.28032432,27.9996216 13.9998108,27.9996216 C21.7192973,27.9996216 27.9996216,21.7192973 27.9996216,13.9998108 C27.9996216,6.28032432 21.7192973,0 13.9998108,0 L13.9998108,0 Z M13.9998108,26.4861081 C10.5700946,26.4861081 7.45925676,25.0959459 5.20033784,22.8498919 C4.29828378,21.9529459 3.53254054,20.9192162 2.93631081,19.7831351 C2.0282973,18.0530946 1.51351351,16.085527 1.51351351,13.9998108 C1.51351351,7.11483784 7.11483784,1.51351351 13.9998108,1.51351351 C17.2655,1.51351351 20.2418243,2.77427027 22.4691486,4.83397297 C23.6239595,5.90175676 24.5775676,7.18408108 25.2651757,8.61737838 C26.047473,10.2480946 26.4861081,12.0736757 26.4861081,13.9998108 C26.4861081,20.8847838 20.8847838,26.4861081 13.9998108,26.4861081 L13.9998108,26.4861081 Z" id="Shape"></path>
                <circle id="Oval" cx="9.33327027" cy="10.8781892" r="1.51351351"></circle>
                <circle id="Oval" cx="18.6981351" cy="10.8781892" r="1.51351351"></circle>
                <path d="M20.2666081,19.1770676 C20.3826757,19.3829054 20.4896622,19.5968784 20.5847297,19.8131216 L21.9703514,19.2043108 C21.8551351,18.9421892 21.7254459,18.6828108 21.5848784,18.4335541 C19.9746892,15.5778378 16.8174054,13.8415541 13.5430135,14.0118243 C10.2905676,14.1801081 7.34110811,16.2182432 6.02889189,19.2043108 L7.41451351,19.8133108 C8.49866216,17.3462838 10.9348514,15.6624054 13.6211486,15.5233514 C16.324,15.3827838 18.9359459,16.8172162 20.2666081,19.1770676 L20.2666081,19.1770676 Z" id="Shape"></path>
                <rect id="Rectangle-path" transform="translate(10.720299, 7.189032) rotate(215.866038) translate(-10.720299, -7.189032) " x="9.20676472" y="6.43221731" width="3.02706785" height="1.51362852"></rect>
                <rect id="Rectangle-path" transform="translate(17.278661, 7.188955) rotate(234.133962) translate(-17.278661, -7.188955) " x="16.5218464" y="5.67542071" width="1.51362852" height="3.02706785"></rect>
            </g>
        </g>
    </g>
</svg>