<?xml version="1.0" encoding="UTF-8" standalone="no"?>
<svg width="40px" height="40px" viewBox="0 0 40 40" version="1.1" xmlns="http://www.w3.org/2000/svg" xmlns:xlink="http://www.w3.org/1999/xlink">
    <!-- Generator: Sketch 46.1 (44463) - http://www.bohemiancoding.com/sketch -->
    <title>astronaut</title>
    <desc>Created with Sketch.</desc>
    <defs></defs>
    <g id="Page-1" stroke="none" stroke-width="1" fill="none" fill-rule="evenodd">
        <g id="30-Universe-Element-Icons" transform="translate(-945.000000, -900.000000)" fill="#000000">
            <g id="astronaut" transform="translate(945.000000, 900.000000)">
                <g transform="translate(6.000000, 4.000000)" id="Shape">
                    <path d="M24.147945,9.90019336 C23.6352752,9.90019336 23.219578,9.48305273 23.219578,8.96845898 L23.219578,2.446125 C23.219578,1.93153125 23.6353394,1.51439063 24.147945,1.51439063 C24.6605505,1.51439063 25.0763119,1.93153125 25.0763119,2.446125 L25.0763119,8.96845898 C25.0763119,9.48305273 24.6606789,9.90019336 24.147945,9.90019336 L24.147945,9.90019336 Z"></path>
                    <path d="M4.73045872,17.1603867 C4.3969633,17.1603867 4.07483486,16.9797246 3.90844037,16.6631953 C3.05681651,15.0429727 2.60676147,13.2126328 2.60676147,11.3700469 C2.60676147,5.1005625 7.68888991,0 13.9356514,0 C20.1824128,0 25.2645413,5.1005625 25.2645413,11.3699824 C25.2645413,13.1738965 24.8551376,14.8993066 24.0476972,16.4983887 C23.8158624,16.9574883 23.2572752,17.1409219 22.7999633,16.9082461 C22.3426514,16.6755703 22.1597523,16.114957 22.3915872,15.6559863 C23.0659633,14.3205176 23.4078716,12.8784434 23.4078716,11.3699824 C23.4078716,6.12807422 19.1586147,1.8635332 13.9357156,1.8635332 C8.71281651,1.8635332 4.46355963,6.12807422 4.46355963,11.3699824 C4.46355963,12.9107344 4.83956881,14.4404004 5.55080734,15.7937227 C5.79002752,16.2488906 5.61637615,16.8125332 5.16285321,17.0525566 C5.02465138,17.1257109 4.87643119,17.1603867 4.73045872,17.1603867 L4.73045872,17.1603867 Z"></path>
                    <path d="M4.05126606,15.5531836 L3.43777064,15.5531836 C1.5476422,15.5531836 0.00988990826,14.009918 0.00988990826,12.1128691 C0.00988990826,10.2158203 1.54757798,8.67255469 3.43777064,8.67255469 L3.68405505,8.67255469 C3.95744037,8.67255469 4.21701835,8.79359766 4.39355963,9.00326367 C4.56997248,9.21299414 4.64523853,9.49007812 4.59938532,9.7607168 C4.50934862,10.2915527 4.46362385,10.832959 4.46362385,11.3700469 C4.46362385,12.3809297 4.6216055,13.3771172 4.93345872,14.3311523 C5.02619266,14.6149395 4.97783486,14.926248 4.80322018,15.1681406 C4.6286055,15.4100332 4.34886239,15.5531836 4.05126606,15.5531836 L4.05126606,15.5531836 Z M2.62281651,10.7651543 C2.16974312,11.0420449 1.86655963,11.5425879 1.86655963,12.1128691 C1.86655963,12.7615898 2.25900917,13.3201406 2.81804587,13.5618398 C2.67746789,12.8426074 2.60676147,12.1093887 2.60676147,11.3699824 C2.60676147,11.1686953 2.61215596,10.966957 2.62281651,10.7651543 L2.62281651,10.7651543 Z"></path>
                    <path d="M24.4337248,15.5531836 L23.8202294,15.5531836 C23.5225688,15.5531836 23.2429541,15.4099688 23.0683394,15.1680762 C22.8937248,14.9261836 22.845367,14.614875 22.9381009,14.3310879 C23.2498257,13.3770527 23.4079358,12.3808008 23.4079358,11.3699824 C23.4079358,10.8328945 23.3622752,10.2914883 23.2721743,9.76065234 C23.2263211,9.49007813 23.3015872,9.21299414 23.478,9.00319922 C23.6544128,8.7935332 23.9139908,8.67249023 24.1875046,8.67249023 L24.433789,8.67249023 C26.3239174,8.67249023 27.8616697,10.2158848 27.8616697,12.1128047 C27.8616697,14.0097246 26.323789,15.5531836 24.4337248,15.5531836 L24.4337248,15.5531836 Z M25.2485505,10.7651543 C25.259211,10.9668926 25.2646055,11.1686953 25.2646055,11.3699824 C25.2646055,12.1094531 25.1937706,12.8426074 25.0533211,13.5618398 C25.612422,13.3201406 26.0048073,12.7616543 26.0048073,12.1128691 C26.0047431,11.5426523 25.7016239,11.0421094 25.2485505,10.7651543 L25.2485505,10.7651543 Z"></path>
                    <path d="M26.560633,32.2623984 C26.0479633,32.2623984 25.6322661,31.8452578 25.6322661,31.3306641 L25.6322661,26.5944551 C25.6322661,23.5768887 23.1861193,21.1218691 20.1795229,21.1218691 L7.69190826,21.1218691 C4.68524771,21.1218691 2.23916514,23.5768887 2.23916514,26.5944551 L2.23916514,31.3306641 C2.23916514,31.8452578 1.82340367,32.2623984 1.31079817,32.2623984 C0.798192661,32.2623984 0.382431193,31.8452578 0.382431193,31.3306641 L0.382431193,26.5944551 C0.382431193,22.5493125 3.66138532,19.2583359 7.69190826,19.2583359 L20.1795229,19.2583359 C24.2100459,19.2583359 27.489,22.5493125 27.489,26.5944551 L27.489,31.3306641 C27.4890642,31.8452578 27.0733028,32.2623984 26.560633,32.2623984 L26.560633,32.2623984 Z"></path>
                    <path d="M19.010844,33 L8.8603945,33 C7.56353211,33 6.50852294,31.9410352 6.50852294,30.6395977 L6.50852294,25.7401289 C6.50852294,24.4385625 7.56353211,23.3797266 8.8603945,23.3797266 L19.010844,23.3797266 C20.3077064,23.3797266 21.3627156,24.4386914 21.3627156,25.7401289 L21.3627156,30.6395977 C21.3627798,31.9410352 20.3077706,33 19.010844,33 L19.010844,33 Z M8.8603945,25.2431309 C8.58745872,25.2431309 8.36525688,25.4660742 8.36525688,25.7400645 L8.36525688,30.6395332 C8.36525688,30.9135879 8.5873945,31.1364668 8.8603945,31.1364668 L19.010844,31.1364668 C19.2837798,31.1364668 19.5059817,30.9135234 19.5059817,30.6395332 L19.5059817,25.74 C19.5059817,25.4659453 19.283844,25.2430664 19.010844,25.2430664 L8.8603945,25.2430664 L8.8603945,25.2431309 Z"></path>
                    <path d="M13.9356514,17.3542617 C10.3522294,17.3542617 7.43688991,14.4283477 7.43688991,10.8319277 C7.43688991,7.23550781 10.3522294,4.3096582 13.9356514,4.3096582 C17.5190734,4.3096582 20.4344128,7.23557227 20.4344128,10.8319922 C20.4344128,14.4284121 17.5190734,17.3542617 13.9356514,17.3542617 L13.9356514,17.3542617 Z M13.9356514,6.17319141 C11.3760917,6.17319141 9.29368807,8.26314844 9.29368807,10.8319922 C9.29368807,13.4008359 11.3760917,15.490793 13.9356514,15.490793 C16.495211,15.490793 18.5776147,13.4008359 18.5776147,10.8319922 C18.5776147,8.26314844 16.4952752,6.17319141 13.9356514,6.17319141 L13.9356514,6.17319141 Z"></path>
                </g>
            </g>
        </g>
    </g>
</svg>