<?xml version="1.0" encoding="UTF-8" standalone="no"?>
<svg width="40px" height="40px" viewBox="0 0 40 40" version="1.1" xmlns="http://www.w3.org/2000/svg" xmlns:xlink="http://www.w3.org/1999/xlink">
    <!-- Generator: Sketch 46.1 (44463) - http://www.bohemiancoding.com/sketch -->
    <title>axe</title>
    <desc>Created with Sketch.</desc>
    <defs></defs>
    <g id="Page-1" stroke="none" stroke-width="1" fill="none" fill-rule="evenodd">
        <g id="Artboard-1-Copy-7" transform="translate(-815.000000, -559.000000)" stroke="#000000">
            <g id="icons" transform="translate(331.000000, 269.000000)">
                <g id="axe" transform="translate(504.000000, 310.500000) scale(-1, 1) translate(-504.000000, -310.500000) translate(494.000000, 296.000000)">
                    <path d="M17.5,7.50650102 L13.410431,7.50065233 L11.5021588,28.1039823 C11.4804746,28.3381028 11.6225718,28.5 11.8285041,28.5 L17.0885258,28.5 C17.309226,28.5 17.5,28.3018018 17.5,28.0506543 L17.5,7.50650102 Z" id="base"></path>
                    <path d="M0.5,0.5 L0.5,8.09730184 C0.5,10.6125875 1.68007594,12.9223781 3.62414416,14.3755409 C3.70031323,14.3157387 3.78270653,14.251193 3.87105648,14.1821421 C4.30373388,13.8439779 4.79026365,13.4672559 5.31984249,13.0615957 C6.8330722,11.9024538 8.38855794,10.7432466 9.9001559,9.66076701 C10.332675,9.3510331 10.7562676,9.05147454 11.1697108,8.76318554 C11.7186433,8.38042146 12.2474053,8.01911023 12.7536406,7.68137111 L12.8796516,7.59730184 L16.3522865,7.59730184 C18.088482,7.59730184 19.5,6.1847897 19.5,4.45134171 L19.5,3.64596013 C19.5,1.91020236 18.0888827,0.5 16.3549474,0.5 L0.5,0.5 Z" id="blade"></path>
                    <path d="M4.27995656,0.784953245 C4.27995656,0.784953245 2.85241369,10.6699467 7.04572423,11.7849532" id="detail" stroke-linecap="round"></path>
                </g>
            </g>
        </g>
    </g>
</svg>