<?xml version="1.0" encoding="UTF-8" standalone="no"?>
<svg width="40px" height="40px" viewBox="0 0 40 40" version="1.1" xmlns="http://www.w3.org/2000/svg" xmlns:xlink="http://www.w3.org/1999/xlink">
    <!-- Generator: Sketch 46.1 (44463) - http://www.bohemiancoding.com/sketch -->
    <title>bigtruck</title>
    <desc>Created with Sketch.</desc>
    <defs></defs>
    <g id="Icons" stroke="none" stroke-width="1" fill="none" fill-rule="evenodd">
        <g id="Automotive" transform="translate(-352.000000, -1445.000000)" fill="#231F20">
            <g id="Truck" transform="translate(354.000000, 1457.000000)">
                <g>
                    <path d="M33.5740741,7.48 C33.5740741,7.85536 33.2671111,8.16 32.8888889,8.16 L28.7777778,8.16 C28.3995556,8.16 28.0925926,7.85536 28.0925926,7.48 L28.0925926,6.12 C28.0925926,5.74396 28.3995556,5.44 28.7777778,5.44 C29.156,5.44 29.462963,5.74396 29.462963,6.12 L29.462963,6.8 L32.8888889,6.8 C33.2671111,6.8 33.5740741,7.10396 33.5740741,7.48 L33.5740741,7.48 Z M36.8848889,7.1026 L34.1441481,3.0226 C34.0167037,2.83356 33.8029259,2.72 33.5740741,2.72 L27.4074074,2.72 C27.0291852,2.72 26.7222222,3.02396 26.7222222,3.4 C26.7222222,3.77536 27.0291852,4.08 27.4074074,4.08 L33.2075,4.08 L35.6296296,7.68536 L35.6296296,12.24 L34.2592593,12.24 C33.881037,12.24 33.5740741,12.54396 33.5740741,12.92 C33.5740741,13.29536 33.881037,13.6 34.2592593,13.6 L36.3148148,13.6 C36.693037,13.6 37,13.29536 37,12.92 L37,7.48 C37,7.34536 36.9595741,7.21412 36.8848889,7.1026 L36.8848889,7.1026 Z M10.962963,14.28 C10.962963,15.78008 9.73305556,17 8.22222222,17 C6.7107037,17 5.48148148,15.78008 5.48148148,14.28 C5.48148148,12.77992 6.7107037,11.56 8.22222222,11.56 C9.73305556,11.56 10.962963,12.77992 10.962963,14.28 L10.962963,14.28 Z M9.59259259,14.28 C9.59259259,13.52996 8.97798148,12.92 8.22222222,12.92 C7.46646296,12.92 6.85185185,13.52996 6.85185185,14.28 C6.85185185,15.02936 7.46646296,15.64 8.22222222,15.64 C8.97798148,15.64 9.59259259,15.02936 9.59259259,14.28 L9.59259259,14.28 Z M32.8888889,14.28 C32.8888889,15.78008 31.6596667,17 30.1481481,17 C28.6366296,17 27.4074074,15.78008 27.4074074,14.28 C27.4074074,12.77992 28.6366296,11.56 30.1481481,11.56 C31.6596667,11.56 32.8888889,12.77992 32.8888889,14.28 L32.8888889,14.28 Z M31.5185185,14.28 C31.5185185,13.52996 30.9039074,12.92 30.1481481,12.92 C29.3923889,12.92 28.7777778,13.52996 28.7777778,14.28 C28.7777778,15.02936 29.3923889,15.64 30.1481481,15.64 C30.9039074,15.64 31.5185185,15.02936 31.5185185,14.28 L31.5185185,14.28 Z M26.0281296,0.68 L26.0281296,12.92544 C26.0281296,13.10632 25.9561852,13.27904 25.8273704,13.40688 C25.6992407,13.53404 25.5245185,13.60544 25.3429444,13.60544 L17.0323333,13.6 C17.0892037,13.81896 17.1296296,14.04404 17.1296296,14.28 C17.1296296,15.78008 15.9004074,17 14.3888889,17 C12.8773704,17 11.6481481,15.78008 11.6481481,14.28 C11.6481481,12.77992 12.8773704,11.56 14.3888889,11.56 C15.0781852,11.56 15.7010185,11.8218 16.1827037,12.24 L24.6577593,12.24544 L24.6577593,1.36 L1.37037037,1.36 L1.37037037,12.24476 L3.42387037,12.24 L3.42592593,12.24 C3.80346296,12.24 4.11042593,12.54328 4.11111111,12.91864 C4.1117963,13.29332 3.8062037,13.59932 3.4272963,13.6 L0.686555556,13.60544 L0.685185185,13.60544 C0.503611111,13.60544 0.329574074,13.53404 0.200759259,13.40688 C0.0719444444,13.27972 0,13.10632 0,12.92544 L0,0.68 C0,0.30396 0.306962963,0 0.685185185,0 L25.3429444,0 C25.7218519,0 26.0281296,0.30396 26.0281296,0.68 L26.0281296,0.68 Z M15.7592593,14.28 C15.7592593,13.52996 15.1446481,12.92 14.3888889,12.92 C13.6331296,12.92 13.0185185,13.52996 13.0185185,14.28 C13.0185185,15.02936 13.6331296,15.64 14.3888889,15.64 C15.1446481,15.64 15.7592593,15.02936 15.7592593,14.28 L15.7592593,14.28 Z"></path>
                </g>
            </g>
        </g>
    </g>
</svg>