<?xml version="1.0" encoding="UTF-8" standalone="no"?>
<svg width="40px" height="40px" viewBox="0 0 40 40" version="1.1" xmlns="http://www.w3.org/2000/svg" xmlns:xlink="http://www.w3.org/1999/xlink">
    <!-- Generator: Sketch 46.1 (44463) - http://www.bohemiancoding.com/sketch -->
    <title>boat</title>
    <desc>Created with Sketch.</desc>
    <defs></defs>
    <g id="Icons" stroke="none" stroke-width="1" fill="none" fill-rule="evenodd">
        <g id="Automotive" transform="translate(-352.000000, -79.000000)" fill="#231F20">
            <g id="Boat" transform="translate(354.000000, 88.000000)">
                <g>
                    <path d="M11.3770992,11.1518014 L10.7924992,8.83313469 C10.7023537,8.47646802 10.9216628,8.11446802 11.2815719,8.02446802 C11.6421537,7.93513469 12.0074446,8.15246802 12.0975901,8.50980135 L12.529481,10.2198014 L18.212681,9.17513469 C18.5786446,9.10913469 18.9291355,9.34713469 18.997081,9.70913469 C19.0650264,10.0711347 18.8241901,10.4191347 18.4588992,10.486468 L12.1527537,11.6451347 C12.1117173,11.6531347 12.0700082,11.656468 12.0296446,11.656468 C11.7262446,11.656468 11.4537901,11.452468 11.3770992,11.1518014 L11.3770992,11.1518014 Z M12.2287719,3.03713469 C12.3586082,3.22980135 12.5718628,3.33380135 12.7891537,3.33380135 C12.9169719,3.33380135 13.0468082,3.29780135 13.1618446,3.22180135 C13.4706264,3.01780135 13.5540446,2.60380135 13.3481901,2.29780135 L12.0027355,0.297801354 C11.7962082,-0.00886531287 11.3791173,-0.0928653129 11.0696628,0.11246802 C10.760881,0.31646802 10.6774628,0.73046802 10.8833173,1.03713469 L12.2287719,3.03713469 L12.2287719,3.03713469 Z M36.7759173,6.55580135 C36.4691537,6.12246802 35.9538446,5.91446802 35.4291173,6.00980135 L22.2476992,8.43380135 L17.302481,3.53246802 C17.1275719,3.35846802 16.8699173,3.29446802 16.6331173,3.36513469 L3.17857189,7.36580135 C2.83480825,7.46846802 2.63231734,7.82046802 2.71977189,8.16646802 L3.20817189,10.1031347 C3.29831734,10.460468 3.66360825,10.6778014 4.02419007,10.588468 C4.38409916,10.4991347 4.60340825,10.1371347 4.5132628,9.77980135 L4.18093552,8.46046802 L16.6351355,4.75646802 L21.5460446,9.62446802 C21.7027901,9.78046802 21.9254628,9.84846802 22.1447719,9.80913469 L35.6746628,7.32380135 L29.7997355,17.2378014 C22.8538264,20.4531347 11.3757537,21.610468 3.87349916,19.8611347 L1.57613552,13.5898014 L4.59802643,13.034468 L4.59869916,13.034468 L9.16382643,12.1951347 C9.52911734,12.1278014 9.7699537,11.7798014 9.70268098,11.4178014 C9.63473552,11.0558014 9.28424461,10.8178014 8.91760825,10.8838014 L4.31279007,11.730468 L4.31211734,11.7311347 L0.550226432,12.422468 C0.35580825,12.4578014 0.186953705,12.576468 0.0887355227,12.746468 C-0.00948265913,12.9171347 -0.0269735682,13.1211347 0.040299159,13.3051347 L2.73188098,20.6518014 C2.80789916,20.8598014 2.98348098,21.0171347 3.20009916,21.0711347 C5.72484461,21.700468 8.71511734,21.9991347 11.8520446,21.9991347 C18.4252628,21.9991347 25.6416082,20.686468 30.5646264,18.354468 C30.6857173,18.2971347 30.7866264,18.2051347 30.8545719,18.090468 L36.8344446,7.99846802 C37.104881,7.54180135 37.082681,6.98913469 36.7759173,6.55580135 L36.7759173,6.55580135 Z"></path>
                </g>
            </g>
        </g>
    </g>
</svg>