<?xml version="1.0" encoding="UTF-8" standalone="no"?>
<svg width="40px" height="40px" viewBox="0 0 40 40" version="1.1" xmlns="http://www.w3.org/2000/svg" xmlns:xlink="http://www.w3.org/1999/xlink">
    <!-- Generator: Sketch 46.2 (44496) - http://www.bohemiancoding.com/sketch -->
    <title>bonnet</title>
    <desc>Created with Sketch.</desc>
    <defs></defs>
    <g id="Page-1" stroke="none" stroke-width="1" fill="none" fill-rule="evenodd">
        <path d="M9.50177963,27.0274644 L9.50177963,35.9605225 C9.50177963,35.9645329 9.50173241,35.9685322 9.50163851,35.97252 C9.66585095,35.990678 9.83272666,36 10.0017796,36 L12.5033152,36 C12.5022979,35.9869746 12.5017796,35.9738091 12.5017796,35.9605225 L12.5017796,27 L10.0017796,27 C9.83277508,27 9.66594655,27.0093167 9.50177963,27.0274644 L9.50177963,27.0274644 Z M8.50177963,27.2560586 C6.75399107,27.8738132 5.50177963,29.5406718 5.50177963,31.5 C5.50177963,33.4593282 6.75399107,35.1261868 8.50177963,35.7439414 L8.50177963,27.2560586 L8.50177963,27.2560586 Z M13.5017796,27 L13.5017796,35.9605225 C13.5017796,35.9738091 13.5012614,35.9869746 13.500244,36 L17.5033152,36 C17.5022979,35.9869746 17.5017796,35.9738091 17.5017796,35.9605225 L17.5017796,27 L13.5017796,27 Z M18.5017796,27 L18.5017796,35.9605225 C18.5017796,35.9738091 18.5012614,35.9869746 18.500244,36 L21.5033152,36 C21.5022979,35.9869746 21.5017796,35.9738091 21.5017796,35.9605225 L21.5017796,27 L18.5017796,27 L18.5017796,27 Z M22.5017796,27 L22.5017796,35.9605225 C22.5017796,35.9738091 22.5012614,35.9869746 22.500244,36 L25.5033152,36 C25.5022979,35.9869746 25.5017796,35.9738091 25.5017796,35.9605225 L25.5017796,27 L22.5017796,27 Z M26.5017796,27 L26.5017796,35.9605225 C26.5017796,35.9738091 26.5012614,35.9869746 26.500244,36 L30.0017796,36 C30.1708326,36 30.3377083,35.990678 30.5019207,35.97252 C30.5018268,35.9685322 30.5017796,35.9645329 30.5017796,35.9605225 L30.5017796,27.0274644 C30.3376127,27.0093167 30.1707842,27 30.0017796,27 L26.5017796,27 L26.5017796,27 Z M31.5017796,27.2560586 L31.5017796,35.7439414 C33.2495682,35.1261868 34.5017796,33.4593282 34.5017796,31.5 C34.5017796,29.5406718 33.2495682,27.8738132 31.5017796,27.2560586 L31.5017796,27.2560586 Z M19.7338629,11.0028143 C12.954007,11.1453743 7.50177963,16.6859692 7.50177963,23.5 C7.50177963,24.5116869 7.62196677,25.4953026 7.84884187,26.4373478 C8.51007709,26.1557941 9.23773452,26 10.0017796,26 L30.0017796,26 C30.7658247,26 31.4934822,26.1557941 32.1547174,26.4373478 C32.3815925,25.4953026 32.5017796,24.5116869 32.5017796,23.5 C32.5017796,16.6880188 27.0528318,11.1487076 20.2758142,11.0029444 C20.1865822,11.0088919 20.0965494,11.0119133 20.005811,11.0119133 C19.9144133,11.0119133 19.8237315,11.0088479 19.7338629,11.0028143 Z M17.6055597,10.2120174 C16.6341453,9.48224077 16.005811,8.32045469 16.005811,7.01191328 C16.005811,4.80277428 17.796672,3.01191328 20.005811,3.01191328 C22.21495,3.01191328 24.005811,4.80277428 24.005811,7.01191328 C24.005811,8.32115267 23.3768063,9.48348014 22.4045076,10.2131849 C28.7140568,11.3466264 33.5017796,16.8641969 33.5017796,23.5 C33.5017796,24.6850315 33.3490927,25.8344011 33.0623188,26.9295087 C34.5335048,27.9166108 35.5017796,29.595229 35.5017796,31.5 C35.5017796,34.5375661 33.0393458,37 30.0017796,37 L10.0017796,37 C6.9642135,37 4.50177963,34.5375661 4.50177963,31.5 C4.50177963,29.595229 5.47005441,27.9166108 6.94124042,26.9295087 C6.65446654,25.8344011 6.50177963,24.6850315 6.50177963,23.5 C6.50177963,16.8619156 11.292795,11.3428327 17.6055597,10.2120174 Z M20.0109167,9.96005021 C21.667771,9.96005021 23.0109167,8.61690446 23.0109167,6.96005021 C23.0109167,5.30319596 21.667771,3.96005021 20.0109167,3.96005021 C18.3540625,3.96005021 17.0109167,5.30319596 17.0109167,6.96005021 C17.0109167,8.61690446 18.3540625,9.96005021 20.0109167,9.96005021 Z" id="Combined-Shape" fill="#000000"></path>
    </g>
</svg>