<?xml version="1.0" encoding="UTF-8" standalone="no"?>
<svg width="40px" height="40px" viewBox="0 0 40 40" version="1.1" xmlns="http://www.w3.org/2000/svg" xmlns:xlink="http://www.w3.org/1999/xlink">
    <!-- Generator: Sketch 46.1 (44463) - http://www.bohemiancoding.com/sketch -->
    <title>brochette</title>
    <desc>Created with Sketch.</desc>
    <defs></defs>
    <g id="Page-1" stroke="none" stroke-width="1" fill="none" fill-rule="evenodd">
        <g id="30-Fast-Food-Icons" transform="translate(-1404.000000, -790.000000)" fill="#000000">
            <g id="brochette" transform="translate(1404.000000, 790.000000)">
                <path d="M32.1851547,9.63006524 L32.0780916,9.63006524 C31.4224511,9.62919402 30.9981676,9.6169002 30.6909179,9.30926427 C30.3832809,9.00162834 30.3682765,8.58141199 30.3701158,7.92209534 L30.3701158,7.81503262 C30.3701158,6.66154309 29.7085704,6 28.5550769,6 C27.7142541,6 27.1937493,6.94197773 27.1937493,7.81503262 C27.1937493,8.29100677 27.2595747,8.74481333 27.3833846,9.17809791 L27.0607433,8.85545772 C26.5457562,8.34047246 25.5728954,8.34047246 25.0578116,8.85545772 C24.5427277,9.37044297 24.5428245,10.3433005 25.0578116,10.8583825 L25.7402662,11.5408348 C25.4775453,11.4800433 25.2057251,11.4450979 24.9249023,11.4450979 C22.9233258,11.4450979 21.2948245,13.0735935 21.2948245,15.0751631 C21.2948245,15.1695448 21.3020847,15.2625713 21.3088608,15.3551137 L20.9349144,14.9812654 C20.4199274,14.4662802 19.4470665,14.4662802 18.9319827,14.9812654 C18.4168989,15.4962507 18.4169957,16.4691081 18.9319827,16.9841902 L19.3059291,17.3580385 C19.2133863,17.3512624 19.1203595,17.3440023 19.0259775,17.3440023 C17.024401,17.3440023 15.3958997,18.9724979 15.3958997,20.9740675 C15.3958997,21.2549862 15.4308453,21.5267086 15.491637,21.7894286 L14.8091824,21.1069763 C14.2941953,20.591991 13.3213345,20.591991 12.8062506,21.1069763 C12.2912636,21.6219615 12.2912636,22.594819 12.8062506,23.1099011 L13.128892,23.4325413 C12.6955091,23.3086351 12.2417977,23.2429067 11.7658219,23.2429067 C10.5742852,23.2429067 9.95078305,23.9275854 9.95078305,24.6042295 C9.95078305,25.80854 10.5615073,26.4192622 11.7658219,26.4192622 L11.872885,26.4192622 C12.280325,26.4179069 12.5989006,26.4233278 12.8562005,26.5023181 L6,33.3583981 L6.64160415,34 L13.4979015,27.1437264 C13.5764079,27.3991862 13.5818289,27.7167927 13.5809576,28.1270385 L13.5809576,28.2341012 C13.5809576,29.3875907 14.242503,30.0491338 15.3959965,30.0491338 C16.2368193,30.0491338 16.7573241,29.1071561 16.7573241,28.2341012 C16.7573241,27.758127 16.6914987,27.3043205 16.5676888,26.8710359 L16.8903301,27.1936761 C17.1476301,27.4509751 17.5197372,27.5798182 17.8917476,27.5798182 C18.263758,27.5798182 18.6359619,27.4513623 18.8931651,27.1936761 C19.4081521,26.6786908 19.4081521,25.7058333 18.8931651,25.1907513 L18.2107104,24.508299 C18.4734313,24.5690905 18.7452515,24.6040359 19.0260743,24.6040359 C21.0276508,24.6040359 22.6561521,22.9755403 22.6561521,20.9739707 C22.6561521,20.879589 22.6488919,20.7865625 22.6421158,20.6940201 L23.0160622,21.0679652 C23.2733621,21.3252642 23.6454693,21.4541073 24.0174797,21.4541073 C24.38949,21.4541073 24.7615972,21.3256514 25.0188971,21.0679652 C25.5338842,20.5529799 25.5338842,19.5801225 25.0188971,19.0650404 L24.6449507,18.6910953 C24.7374935,18.6978714 24.8305203,18.7051315 24.9249023,18.7051315 C26.9264788,18.7051315 28.5549801,17.0766359 28.5549801,15.0750663 C28.5549801,14.7941476 28.5200345,14.5224252 28.4592428,14.2597052 L29.1416975,14.9421575 C29.3989974,15.1994565 29.7711045,15.3282996 30.1431149,15.3282996 C30.5151253,15.3282996 30.8873293,15.1998437 31.1445324,14.9421575 C31.6595194,14.4271722 31.6595194,13.4543148 31.1445324,12.9392327 L30.8218911,12.6165925 C31.2552739,12.7404987 31.7089853,12.8062271 32.1849611,12.8062271 C33.3764978,12.8062271 34,12.1215484 34,11.4449043 C34.0001936,10.2407874 33.3893725,9.63006524 32.1851547,9.63006524 L32.1851547,9.63006524 L32.1851547,9.63006524 Z M15.3959965,29.1417143 C14.6427796,29.1417143 14.4884771,28.7787078 14.4884771,28.234198 L14.4884771,28.1288777 C14.4903163,27.4536856 14.4916716,26.6886614 13.9017597,26.0987516 C13.3418565,25.5378823 12.6226171,25.5115523 11.9723976,25.5115523 L11.8707554,25.5115523 L11.7659187,25.5115523 C11.2994296,25.5115523 10.8583993,25.5115523 10.8583993,24.6040359 C10.8583993,24.3843928 11.1764909,24.1502294 11.7659187,24.1502294 C12.8775938,24.1502294 13.8155091,24.5481813 14.6331962,25.3663496 C15.4517545,26.1845179 15.8497078,27.1228172 15.8497078,28.2341012 C15.8498047,28.6752267 15.6164149,29.1417143 15.3959965,29.1417143 L15.3959965,29.1417143 L15.3959965,29.1417143 Z M18.2515609,25.83245 C18.4098323,25.9907209 18.4098323,26.3937065 18.2515609,26.5520742 C18.0936767,26.7099578 17.6898185,26.7099578 17.5319343,26.5520742 L13.4480484,22.4682024 C13.2896802,22.3098347 13.2896802,21.9069459 13.4480484,21.7485782 C13.5270389,21.669588 13.6672083,21.6301897 13.8078617,21.6301897 C13.9485151,21.6301897 14.0887813,21.6696848 14.167675,21.7485782 L18.2515609,25.83245 L18.2515609,25.83245 L18.2515609,25.83245 Z M19.0260743,23.6966164 C17.5245773,23.6966164 16.303516,22.4755593 16.303516,20.9740675 C16.303516,19.4725757 17.5245773,18.2515186 19.0260743,18.2515186 C20.5275713,18.2515186 21.7486326,19.4725757 21.7486326,20.9740675 C21.7486326,22.4755593 20.5275713,23.6966164 19.0260743,23.6966164 L19.0260743,23.6966164 L19.0260743,23.6966164 Z M24.3771962,20.4263633 C24.219312,20.5842469 23.8154537,20.5842469 23.6575695,20.4263633 L19.5736836,16.3425883 C19.4153154,16.1842206 19.4153154,15.7813318 19.5736836,15.6229641 C19.6526741,15.5439739 19.7928435,15.5045756 19.933497,15.5045756 C20.0741504,15.5045756 20.2144166,15.5440707 20.2933103,15.6229641 L24.3771962,19.7068359 C24.5355644,19.86501 24.5355644,20.2679956 24.3771962,20.4263633 L24.3771962,20.4263633 L24.3771962,20.4263633 Z M24.9249991,17.797712 C23.4235021,17.797712 22.2024408,16.5766549 22.2024408,15.0751631 C22.2024408,13.5736713 23.4235021,12.3526142 24.9249991,12.3526142 C26.4264961,12.3526142 27.6475574,13.5736713 27.6475574,15.0751631 C27.6475574,16.5766549 26.4263993,17.797712 24.9249991,17.797712 L24.9249991,17.797712 L24.9249991,17.797712 Z M30.503025,14.3005556 C30.3451408,14.4584392 29.9412826,14.4584392 29.7833984,14.3005556 L25.6994157,10.2166838 C25.5410475,10.0583161 25.5410475,9.65542729 25.6994157,9.49705965 C25.7784062,9.41806943 25.9185756,9.37867112 26.059229,9.37867112 C26.1998824,9.37867112 26.3401486,9.41816623 26.4190423,9.49705965 L30.5029282,13.5809314 C30.6612964,13.7392991 30.6612964,14.1422847 30.503025,14.3005556 L30.503025,14.3005556 L30.503025,14.3005556 Z M32.1851547,11.8989044 C31.0734796,11.8989044 30.1355644,11.5009525 29.3178772,10.6827842 C28.4993189,9.86461585 28.1013656,8.92631659 28.1013656,7.81503262 C28.1013656,7.37400389 28.3345618,6.90751631 28.5551737,6.90751631 C29.3083906,6.90751631 29.4626931,7.27052283 29.4626931,7.81503262 L29.4626931,7.92025611 C29.4608539,8.59544824 29.4594987,9.3609564 30.0494105,9.9508662 C30.6388383,10.540776 31.3979602,10.5498754 32.0804148,10.5375815 L32.1852515,10.5375815 C32.6517407,10.5375815 33.0927709,10.5375815 33.0927709,11.4450979 C33.0926741,11.664741 32.7744857,11.8989044 32.1851547,11.8989044 L32.1851547,11.8989044 Z M17.6648435,20.9740675 L16.7573241,20.9740675 C16.7573241,22.2250364 17.7751011,23.2429067 19.0260743,23.2429067 L19.0260743,22.3353904 C18.275471,22.3352936 17.6648435,21.7245714 17.6648435,20.9740675 L17.6648435,20.9740675 Z M23.5636715,15.0751631 L22.6561521,15.0751631 C22.6561521,16.326132 23.6739291,17.3440023 24.9249991,17.3440023 L24.9249991,16.436486 C24.174299,16.436486 23.5636715,15.825667 23.5636715,15.0751631 L23.5636715,15.0751631 Z"></path>
            </g>
        </g>
    </g>
</svg>