<?xml version="1.0" encoding="UTF-8" standalone="no"?>
<svg width="40px" height="40px" viewBox="0 0 40 40" version="1.1" xmlns="http://www.w3.org/2000/svg" xmlns:xlink="http://www.w3.org/1999/xlink">
    <!-- Generator: Sketch 46.1 (44463) - http://www.bohemiancoding.com/sketch -->
    <title>bus</title>
    <desc>Created with Sketch.</desc>
    <defs></defs>
    <g id="Icons" stroke="none" stroke-width="1" fill="none" fill-rule="evenodd">
        <g id="Automotive" transform="translate(-697.000000, -239.000000)" fill="#231F20">
            <g id="Double-Decker-Bus" transform="translate(700.000000, 250.000000)">
                <g>
                    <path d="M24.2857143,11.5151515 L21.8571429,11.5151515 C21.522,11.5151515 21.25,11.2436364 21.25,10.9090909 C21.25,10.5745455 21.522,10.3030303 21.8571429,10.3030303 L24.2857143,10.3030303 C24.6208571,10.3030303 24.8928571,10.5745455 24.8928571,10.9090909 C24.8928571,11.2436364 24.6208571,11.5151515 24.2857143,11.5151515 L24.2857143,11.5151515 Z M16.3928571,11.5151515 L18.8214286,11.5151515 C19.1565714,11.5151515 19.4285714,11.2436364 19.4285714,10.9090909 C19.4285714,10.5745455 19.1565714,10.3030303 18.8214286,10.3030303 L16.3928571,10.3030303 C16.0577143,10.3030303 15.7857143,10.5745455 15.7857143,10.9090909 C15.7857143,11.2436364 16.0577143,11.5151515 16.3928571,11.5151515 L16.3928571,11.5151515 Z M10.9285714,11.5151515 L13.3571429,11.5151515 C13.6922857,11.5151515 13.9642857,11.2436364 13.9642857,10.9090909 C13.9642857,10.5745455 13.6922857,10.3030303 13.3571429,10.3030303 L10.9285714,10.3030303 C10.5934286,10.3030303 10.3214286,10.5745455 10.3214286,10.9090909 C10.3214286,11.2436364 10.5934286,11.5151515 10.9285714,11.5151515 L10.9285714,11.5151515 Z M5.46428571,11.5151515 L7.89285714,11.5151515 C8.228,11.5151515 8.5,11.2436364 8.5,10.9090909 C8.5,10.5745455 8.228,10.3030303 7.89285714,10.3030303 L5.46428571,10.3030303 C5.12914286,10.3030303 4.85714286,10.5745455 4.85714286,10.9090909 C4.85714286,11.2436364 5.12914286,11.5151515 5.46428571,11.5151515 L5.46428571,11.5151515 Z M21.8571429,6.06060606 L24.2857143,6.06060606 C24.6208571,6.06060606 24.8928571,5.78909091 24.8928571,5.45454545 C24.8928571,5.12 24.6208571,4.84848485 24.2857143,4.84848485 L21.8571429,4.84848485 C21.522,4.84848485 21.25,5.12 21.25,5.45454545 C21.25,5.78909091 21.522,6.06060606 21.8571429,6.06060606 L21.8571429,6.06060606 Z M16.3928571,6.06060606 L18.8214286,6.06060606 C19.1565714,6.06060606 19.4285714,5.78909091 19.4285714,5.45454545 C19.4285714,5.12 19.1565714,4.84848485 18.8214286,4.84848485 L16.3928571,4.84848485 C16.0577143,4.84848485 15.7857143,5.12 15.7857143,5.45454545 C15.7857143,5.78909091 16.0577143,6.06060606 16.3928571,6.06060606 L16.3928571,6.06060606 Z M10.9285714,6.06060606 L13.3571429,6.06060606 C13.6922857,6.06060606 13.9642857,5.78909091 13.9642857,5.45454545 C13.9642857,5.12 13.6922857,4.84848485 13.3571429,4.84848485 L10.9285714,4.84848485 C10.5934286,4.84848485 10.3214286,5.12 10.3214286,5.45454545 C10.3214286,5.78909091 10.5934286,6.06060606 10.9285714,6.06060606 L10.9285714,6.06060606 Z M5.46428571,6.06060606 L7.89285714,6.06060606 C8.228,6.06060606 8.5,5.78909091 8.5,5.45454545 C8.5,5.12 8.228,4.84848485 7.89285714,4.84848485 L5.46428571,4.84848485 C5.12914286,4.84848485 4.85714286,5.12 4.85714286,5.45454545 C4.85714286,5.78909091 5.12914286,6.06060606 5.46428571,6.06060606 L5.46428571,6.06060606 Z M27.3214286,6.06060606 L29.75,6.06060606 C30.0851429,6.06060606 30.3571429,5.78909091 30.3571429,5.45454545 C30.3571429,5.12 30.0851429,4.84848485 29.75,4.84848485 L27.3214286,4.84848485 C26.9862857,4.84848485 26.7142857,5.12 26.7142857,5.45454545 C26.7142857,5.78909091 26.9862857,6.06060606 27.3214286,6.06060606 L27.3214286,6.06060606 Z M30.9642857,9.08484848 L30.9642857,10.6187879 L32.8664643,12.1460606 C33.5871429,12.7242424 34,13.5848485 34,14.5078788 L34,16.3636364 C34,17.3660606 33.1827857,18.1818182 32.1785714,18.1818182 L28.8854286,18.1818182 C28.4155,19.250303 27.34875,20 26.1071429,20 C24.43325,20 23.0714286,18.6406061 23.0714286,16.969697 C23.0714286,15.2987879 24.43325,13.9393939 26.1071429,13.9393939 C27.7810357,13.9393939 29.1428571,15.2987879 29.1428571,16.969697 L32.1785714,16.969697 C32.5131071,16.969697 32.7857143,16.6975758 32.7857143,16.3636364 L32.7857143,14.5078788 C32.7857143,13.9539394 32.538,13.4375758 32.1057143,13.0909091 L30.1434286,11.5151515 L27.3214286,11.5151515 C26.9862857,11.5151515 26.7142857,11.2436364 26.7142857,10.9090909 C26.7142857,10.5745455 26.9862857,10.3030303 27.3214286,10.3030303 L29.75,10.3030303 L29.75,8.48484848 C29.75,8.15272727 30.01775,7.88242424 30.3504643,7.87878788 L32.7857143,7.85333333 L32.7857143,5.56424242 L31.8889643,3.17757576 C31.4475714,2.00181818 30.3055357,1.21212121 29.0481429,1.21212121 L4.95185714,1.21212121 C3.69446429,1.21212121 2.55242857,2.00181818 2.11103571,3.17757576 L1.21428571,5.56424242 L1.21428571,16.969697 L2.42857143,16.969697 C2.76371429,16.969697 3.03571429,17.2412121 3.03571429,17.5757576 C3.03571429,17.910303 2.76371429,18.1818182 2.42857143,18.1818182 L0.607142857,18.1818182 C0.272,18.1818182 0,17.910303 0,17.5757576 L0,5.45454545 C0,5.38181818 0.01275,5.30969697 0.03825,5.24181818 L0.973857143,2.75212121 C1.59253571,1.10606061 3.19114286,0 4.95185714,0 L29.0481429,0 C30.8088571,0 32.4074643,1.10606061 33.0261429,2.75212121 L33.9611429,5.24181818 C33.9866429,5.30969697 34,5.38181818 34,5.45454545 L34,8.45272727 C34,8.78545455 33.7316429,9.05575758 33.3995357,9.05878788 L30.9642857,9.08484848 L30.9642857,9.08484848 Z M27.9285714,16.969697 C27.9285714,15.9672727 27.1113571,15.1515152 26.1071429,15.1515152 C25.1029286,15.1515152 24.2857143,15.9672727 24.2857143,16.969697 C24.2857143,17.9721212 25.1029286,18.7878788 26.1071429,18.7878788 C27.1113571,18.7878788 27.9285714,17.9721212 27.9285714,16.969697 L27.9285714,16.969697 Z M21.8571429,17.5757576 C21.8571429,17.910303 21.5851429,18.1818182 21.25,18.1818182 L10.064,18.1818182 C9.59407143,19.250303 8.52732143,20 7.28571429,20 C5.61182143,20 4.25,18.6406061 4.25,16.969697 C4.25,15.2987879 5.61182143,13.9393939 7.28571429,13.9393939 C8.95960714,13.9393939 10.3214286,15.2987879 10.3214286,16.969697 L21.25,16.969697 C21.5851429,16.969697 21.8571429,17.2412121 21.8571429,17.5757576 L21.8571429,17.5757576 Z M9.10714286,16.969697 C9.10714286,15.9672727 8.28992857,15.1515152 7.28571429,15.1515152 C6.2815,15.1515152 5.46428571,15.9672727 5.46428571,16.969697 C5.46428571,17.9721212 6.2815,18.7878788 7.28571429,18.7878788 C8.28992857,18.7878788 9.10714286,17.9721212 9.10714286,16.969697 L9.10714286,16.969697 Z"></path>
                </g>
            </g>
        </g>
    </g>
</svg>