<?xml version="1.0" encoding="UTF-8" standalone="no"?>
<svg width="40px" height="40px" viewBox="0 0 40 40" version="1.1" xmlns="http://www.w3.org/2000/svg" xmlns:xlink="http://www.w3.org/1999/xlink">
    <!-- Generator: Sketch 46.1 (44463) - http://www.bohemiancoding.com/sketch -->
    <title>candy</title>
    <desc>Created with Sketch.</desc>
    <defs></defs>
    <g id="Page-1" stroke="none" stroke-width="1" fill="none" fill-rule="evenodd">
        <g id="30-Fast-Food-Icons" transform="translate(-1150.000000, -791.000000)" fill="#000000">
            <g id="candy" transform="translate(1150.000000, 791.000000)">
                <path d="M33.9656351,13.9560292 C33.895593,13.7871399 33.7307484,13.6774052 33.5483691,13.6774052 L32.1934829,13.6774052 L32.1934829,12.3225334 C32.1934829,12.0728124 31.9920275,11.8709738 31.7423038,11.8709738 L30.3870322,11.8709738 L30.3870322,10.0645423 C30.3870322,9.81482121 30.1860586,9.61288626 29.9363348,9.61288626 L28.1290171,9.61288626 L28.1290171,8.25811083 C28.1290171,8.00838975 27.9280434,7.8064548 27.6783197,7.8064548 L26.3225664,7.8064548 L26.3225664,6.45167937 C26.3225664,6.26920571 26.2133123,6.10397745 26.0444212,6.03441779 C25.8755301,5.96437642 25.6817822,6.003299 25.5525849,6.13239863 C24.3219825,7.36298792 23.6142392,9.12471622 23.6106745,10.9668909 C23.6093257,11.551693 23.7244568,12.1265718 23.9358356,12.6712951 C23.3270376,12.4368926 22.7277777,12.3226298 22.2572335,12.3226298 L22.2495259,12.3226298 C21.2473553,12.3226298 20.2024079,12.8365234 19.2273099,13.8111293 L13.808825,19.2295566 C12.8360392,20.2018503 12.3216584,21.2490988 12.3216584,22.2580028 C12.3216584,22.6639923 12.3808137,23.2786607 12.6432548,23.9627924 C11.9934143,23.7234764 11.2748805,23.5983268 10.5134736,23.606516 C8.95771007,23.6137417 7.36080768,24.3223445 6.13242122,25.551585 C6.00322387,25.680781 5.96439722,25.8749121 6.03443933,26.0438014 C6.10448145,26.2126907 6.26932609,26.3224254 6.45170535,26.3224254 L7.80659153,26.3224254 L7.80659153,27.6772972 C7.80659153,27.9270183 8.00843229,28.1289532 8.25825237,28.1289532 L9.6130422,28.1289532 L9.6130422,29.9353847 C9.6130422,30.1851058 9.81449758,30.3870407 10.0642213,30.3870407 L11.8711537,30.3870407 L11.8711537,31.7419125 C11.8711537,31.9916336 12.0721274,32.1935685 12.3218511,32.1935685 L13.6776044,32.1935685 L13.6776044,33.5484403 C13.6776044,33.730914 13.7868585,33.8961422 13.9557496,33.9657019 C14.0117255,33.9892096 14.0704954,34 14.1286872,34 C14.2461305,34 14.3612617,33.953948 14.4479713,33.867721 C15.6785737,32.6371318 16.386317,30.8754035 16.3903634,29.0332287 C16.3917122,28.4669245 16.2833252,27.9105436 16.0846638,27.3812351 C16.6054033,27.5744992 17.1572619,27.6774899 17.7407214,27.6774899 C18.7343175,27.6774899 19.8095169,27.1495302 20.7691998,26.1903392 L26.1876848,20.7710448 C27.1604705,19.7982694 27.6748513,18.7505392 27.6748513,17.7416351 C27.6748513,17.3342969 27.6156961,16.7142333 27.351039,16.0273076 C27.9946172,16.263926 28.7049617,16.3872451 29.4564452,16.3872451 L29.4866972,16.3872451 C31.0420753,16.3872451 32.6389777,15.6745958 33.8673642,14.4453554 C33.9967542,14.3159667 34.0355809,14.1249185 33.9656351,13.9560292 L33.9656351,13.9560292 Z M14.5805407,32.25465 L14.5805407,31.7416235 C14.5805407,31.4919024 14.3777365,31.2899674 14.1280128,31.2899674 L12.77409,31.2899674 L12.77409,29.9350957 C12.77409,29.6853746 12.5712858,29.4834396 12.3215621,29.4834396 L10.5160749,29.4834396 L10.5160749,27.6770082 C10.5160749,27.4272871 10.3137524,27.2253521 10.0640286,27.2253521 L8.70962418,27.2253521 L8.70962418,25.8704804 C8.70962418,25.6207593 8.50778342,25.4188243 8.25796334,25.4188243 L7.70832061,25.4188243 C8.57994511,24.8367199 9.56082374,24.5156086 10.517809,24.5156086 L10.5444963,24.5156086 C11.6811633,24.5156086 12.7009649,24.8402846 13.4691159,25.442332 L12.4543242,26.4557642 L13.0928924,27.0934586 L14.1283981,26.0574822 L14.2606785,26.1897611 C15.0651512,26.9948033 15.489643,27.9771167 15.4869454,29.0311092 C15.4842477,30.1944511 15.0322015,31.3189667 14.5805407,32.25465 L14.5805407,32.25465 Z M15.1631331,20.5838503 C14.2513331,21.4961223 14.0964119,22.3008755 14.6265931,23.3630572 L15.4345342,22.9588982 C15.0764234,22.2422026 15.1554256,21.8686807 15.8017013,21.2220264 L17.1565875,19.8671547 L16.5180193,19.2285932 L15.1631331,20.5838503 L15.1631331,20.5838503 Z M25.5489238,20.1321943 L24.7391522,20.9419573 L23.4782978,19.6806346 L22.8397295,20.3191961 L24.1006803,21.5805188 L22.0300542,23.6516045 L19.8659745,21.487066 L19.2274062,22.1256275 L21.391486,24.290166 L20.9014802,24.7806482 L20.317539,24.1967132 L19.6789707,24.8352747 L20.2629119,25.4192097 L20.1306316,25.5514887 C19.3529425,26.3286877 18.4822815,26.7739851 17.7407214,26.7739851 C16.650974,26.7739851 15.7215431,26.3738726 14.8991504,25.5514887 L14.4474896,25.0998326 C13.3839478,24.0363021 13.2249801,22.8625552 13.2249801,22.2579065 C13.2249801,21.2918751 13.889754,20.424788 14.4474896,19.86754 L17.2890606,17.0256139 L18.3241809,18.0611086 L18.9627492,17.4225471 L17.9276288,16.3870524 L19.0950295,15.2191824 L20.5821961,16.7063331 L21.2207643,16.0677717 L19.7335978,14.5806209 L19.8658782,14.4496908 C20.6679423,13.6481169 21.4921655,13.2258455 22.2495259,13.2258455 L22.2545358,13.2258455 C23.0606464,13.2258455 24.2962586,13.6485987 25.0974556,14.4496908 L25.5491165,14.9008651 C26.6126583,15.9639139 26.771626,17.1371791 26.771626,17.7419242 C26.7714333,18.7068958 26.1066594,19.5744646 25.5489238,20.1321943 L25.5489238,20.1321943 Z M29.4824581,15.4838367 L29.4557708,15.4838367 C28.3181404,15.4838367 27.2970863,15.158679 26.528839,14.5553791 L27.993461,13.0921214 L27.3548928,12.454427 L25.8699421,13.9397472 L25.739396,13.8096842 C24.9355013,13.0054127 24.5105278,12.022714 24.51284,10.9686251 C24.5160194,9.80528325 24.9675839,8.68076762 25.4192447,7.7450843 L25.4192447,8.25811083 C25.4192447,8.50783192 25.6224343,8.70976687 25.8722544,8.70976687 L27.2256954,8.70976687 L27.2256954,10.0646386 C27.2256954,10.3143597 27.4284996,10.5162947 27.6782233,10.5162947 L29.4838069,10.5162947 L29.4838069,12.3227261 C29.4838069,12.5724472 29.6866111,12.7743822 29.9363348,12.7743822 L31.2902576,12.7743822 L31.2902576,14.1292539 C31.2902576,14.378975 31.4925801,14.58091 31.7423038,14.58091 L32.2914648,14.58091 C31.4198403,15.1627254 30.4389617,15.4838367 29.4824581,15.4838367 L29.4824581,15.4838367 Z M21.9366021,18.0619805 L21.0337943,17.1586714 L21.6726456,16.5201882 L22.5754534,17.4234973 L21.9366021,18.0619805 L21.9366021,18.0619805 Z"></path>
            </g>
        </g>
    </g>
</svg>