<?xml version="1.0" encoding="UTF-8" standalone="no"?>
<svg width="40px" height="40px" viewBox="0 0 40 40" version="1.1" xmlns="http://www.w3.org/2000/svg" xmlns:xlink="http://www.w3.org/1999/xlink">
    <!-- Generator: Sketch 46.1 (44463) - http://www.bohemiancoding.com/sketch -->
    <title>caravan</title>
    <desc>Created with Sketch.</desc>
    <defs></defs>
    <g id="Icons" stroke="none" stroke-width="1" fill="none" fill-rule="evenodd">
        <g id="Automotive" transform="translate(-1042.000000, -1256.000000)" fill="#231F20">
            <g id="RV-Car" transform="translate(1043.000000, 1267.000000)">
                <g>
                    <path d="M15.0689655,6.66666667 C15.0689655,7.03466667 14.7761034,7.33333333 14.4137931,7.33333333 L10.4827586,7.33333333 C10.1204483,7.33333333 9.82758621,7.03466667 9.82758621,6.66666667 C9.82758621,6.298 10.1204483,6 10.4827586,6 L14.4137931,6 C14.7761034,6 15.0689655,6.298 15.0689655,6.66666667 L15.0689655,6.66666667 Z M22.9310345,14 C23.2933448,14 23.5862069,13.7013333 23.5862069,13.3333333 L23.5862069,6.66666667 C23.5862069,6.298 23.2933448,6 22.9310345,6 L19,6 C18.6376897,6 18.3448276,6.298 18.3448276,6.66666667 L18.3448276,13.3333333 C18.3448276,13.7013333 18.6376897,14 19,14 C19.3623103,14 19.6551724,13.7013333 19.6551724,13.3333333 L19.6551724,7.33333333 L22.2758621,7.33333333 L22.2758621,13.3333333 C22.2758621,13.7013333 22.5687241,14 22.9310345,14 L22.9310345,14 Z M38,12 L38,16 C38,16.368 37.7071379,16.6666667 37.3448276,16.6666667 L34.3598621,16.6666667 C33.9051724,17.4593333 33.0691724,18 32.1034483,18 C31.1377241,18 30.3017241,17.4593333 29.8470345,16.6666667 L15.3598621,16.6666667 C14.9051724,17.4593333 14.0691724,18 13.1034483,18 C12.1377241,18 11.3017241,17.4593333 10.8470345,16.6666667 L5.89655172,16.6666667 C5.795,16.6666667 5.69410345,16.6426667 5.60368966,16.596 L0.362310345,13.9293333 C0.140206897,13.816 0,13.586 0,13.3333333 L0,2.66666667 C0,2.298 0.292862069,2 0.655172414,2 L14.4137931,2 C14.7761034,2 15.0689655,2.298 15.0689655,2.66666667 C15.0689655,3.03466667 14.7761034,3.33333333 14.4137931,3.33333333 L1.31034483,3.33333333 L1.31034483,12.9213333 L6.05117241,15.3333333 L10.4827586,15.3333333 C10.4827586,13.8626667 11.6581379,12.6666667 13.1034483,12.6666667 C14.5487586,12.6666667 15.7241379,13.8626667 15.7241379,15.3333333 L29.4827586,15.3333333 C29.4827586,13.8626667 30.6581379,12.6666667 32.1034483,12.6666667 C33.5487586,12.6666667 34.7241379,13.8626667 34.7241379,15.3333333 L36.6896552,15.3333333 L36.6896552,12.462 L31.8728276,10.624 C31.7352414,10.5713333 31.6179655,10.472 31.5413103,10.3426667 L29.7671034,7.33333333 L28.1724138,7.33333333 L28.1724138,10.6666667 C28.1724138,11.0346667 27.8795517,11.3333333 27.5172414,11.3333333 C27.154931,11.3333333 26.862069,11.0346667 26.862069,10.6666667 L26.862069,6.66666667 C26.862069,6.298 27.154931,6 27.5172414,6 L34.0689655,6 L34.0689655,5.60933333 L31.8322069,3.33333333 L19,3.33333333 C18.8257241,3.33333333 18.6593103,3.26266667 18.5367931,3.138 L16.7632414,1.33333333 L12.4482759,1.33333333 C12.0859655,1.33333333 11.7931034,1.03466667 11.7931034,0.666666667 C11.7931034,0.298 12.0859655,0 12.4482759,0 L17.0344828,0 C17.2087586,0 17.3745172,0.07 17.4976897,0.195333333 L19.2712414,2 L32.1034483,2 C32.2777241,2 32.4434828,2.07 32.5666552,2.19533333 L35.1873448,4.862 C35.3098621,4.98666667 35.3793103,5.156 35.3793103,5.33333333 L35.3793103,6.66666667 C35.3793103,7.03466667 35.0864483,7.33333333 34.7241379,7.33333333 L31.2956207,7.33333333 L32.5476552,9.45733333 L37.5754483,11.3753333 C37.8303103,11.4733333 38,11.722 38,12 L38,12 Z M14.4137931,15.3333333 C14.4137931,14.598 13.8254483,14 13.1034483,14 C12.3807931,14 11.7931034,14.598 11.7931034,15.3333333 C11.7931034,16.068 12.3807931,16.6666667 13.1034483,16.6666667 C13.8254483,16.6666667 14.4137931,16.068 14.4137931,15.3333333 L14.4137931,15.3333333 Z M33.4137931,15.3333333 C33.4137931,14.598 32.8254483,14 32.1034483,14 C31.3807931,14 30.7931034,14.598 30.7931034,15.3333333 C30.7931034,16.068 31.3807931,16.6666667 32.1034483,16.6666667 C32.8254483,16.6666667 33.4137931,16.068 33.4137931,15.3333333 L33.4137931,15.3333333 Z"></path>
                </g>
            </g>
        </g>
    </g>
</svg>