<?xml version="1.0" encoding="UTF-8" standalone="no"?>
<svg width="40px" height="40px" viewBox="0 0 40 40" version="1.1" xmlns="http://www.w3.org/2000/svg" xmlns:xlink="http://www.w3.org/1999/xlink">
    <!-- Generator: Sketch 46.1 (44463) - http://www.bohemiancoding.com/sketch -->
    <title>chasis</title>
    <desc>Created with Sketch.</desc>
    <defs></defs>
    <g id="Icons" stroke="none" stroke-width="1" fill="none" fill-rule="evenodd">
        <g id="Automotive" transform="translate(-697.000000, -79.000000)" fill="#231F20">
            <g id="Car-chassis" transform="translate(705.000000, 85.000000)">
                <g>
                    <path d="M22.7941176,20.0769231 C21.5779412,20.0769231 20.5882353,21.0777949 20.5882353,22.3076923 L20.5882353,23.7948718 L4.41176471,23.7948718 L4.41176471,22.3076923 C4.41176471,21.0777949 3.42205882,20.0769231 2.20588235,20.0769231 C0.989705882,20.0769231 0,21.0777949 0,22.3076923 L0,26.7692308 C0,27.9991282 0.989705882,29 2.20588235,29 C3.42205882,29 4.41176471,27.9991282 4.41176471,26.7692308 L4.41176471,25.2820513 L20.5882353,25.2820513 L20.5882353,26.7692308 C20.5882353,27.9991282 21.5779412,29 22.7941176,29 C24.0102941,29 25,27.9991282 25,26.7692308 L25,22.3076923 C25,21.0777949 24.0102941,20.0769231 22.7941176,20.0769231 L22.7941176,20.0769231 Z M2.94117647,26.7692308 C2.94117647,27.1789487 2.61102941,27.5128205 2.20588235,27.5128205 C1.80073529,27.5128205 1.47058824,27.1789487 1.47058824,26.7692308 L1.47058824,22.3076923 C1.47058824,21.8979744 1.80073529,21.5641026 2.20588235,21.5641026 C2.61102941,21.5641026 2.94117647,21.8979744 2.94117647,22.3076923 L2.94117647,26.7692308 L2.94117647,26.7692308 Z M23.5294118,26.7692308 C23.5294118,27.1789487 23.1992647,27.5128205 22.7941176,27.5128205 C22.3889706,27.5128205 22.0588235,27.1789487 22.0588235,26.7692308 L22.0588235,22.3076923 C22.0588235,21.8979744 22.3889706,21.5641026 22.7941176,21.5641026 C23.1992647,21.5641026 23.5294118,21.8979744 23.5294118,22.3076923 L23.5294118,26.7692308 L23.5294118,26.7692308 Z M22.7941176,0.743589744 C21.5779412,0.743589744 20.5882353,1.74446154 20.5882353,2.97435897 L20.5882353,4.46153846 L4.41176471,4.46153846 L4.41176471,2.97435897 C4.41176471,1.74446154 3.42205882,0.743589744 2.20588235,0.743589744 C0.989705882,0.743589744 0,1.74446154 0,2.97435897 L0,7.43589744 C0,8.66579487 0.989705882,9.66666667 2.20588235,9.66666667 C3.42205882,9.66666667 4.41176471,8.66579487 4.41176471,7.43589744 L4.41176471,5.94871795 L20.5882353,5.94871795 L20.5882353,7.43589744 C20.5882353,8.66579487 21.5779412,9.66666667 22.7941176,9.66666667 C24.0102941,9.66666667 25,8.66579487 25,7.43589744 L25,2.97435897 C25,1.74446154 24.0102941,0.743589744 22.7941176,0.743589744 L22.7941176,0.743589744 Z M2.94117647,7.43589744 C2.94117647,7.84561538 2.61102941,8.17948718 2.20588235,8.17948718 C1.80073529,8.17948718 1.47058824,7.84561538 1.47058824,7.43589744 L1.47058824,2.97435897 C1.47058824,2.56464103 1.80073529,2.23076923 2.20588235,2.23076923 C2.61102941,2.23076923 2.94117647,2.56464103 2.94117647,2.97435897 L2.94117647,7.43589744 L2.94117647,7.43589744 Z M23.5294118,7.43589744 C23.5294118,7.84561538 23.1992647,8.17948718 22.7941176,8.17948718 C22.3889706,8.17948718 22.0588235,7.84561538 22.0588235,7.43589744 L22.0588235,2.97435897 C22.0588235,2.56464103 22.3889706,2.23076923 22.7941176,2.23076923 C23.1992647,2.23076923 23.5294118,2.56464103 23.5294118,2.97435897 L23.5294118,7.43589744 L23.5294118,7.43589744 Z M5.88235294,2.97435897 L5.88235294,0.743589744 C5.88235294,0.333128205 6.21176471,0 6.61764706,0 C7.02352941,0 7.35294118,0.333128205 7.35294118,0.743589744 L7.35294118,2.97435897 C7.35294118,3.38482051 7.02352941,3.71794872 6.61764706,3.71794872 C6.21176471,3.71794872 5.88235294,3.38482051 5.88235294,2.97435897 L5.88235294,2.97435897 Z M17.6470588,2.97435897 L17.6470588,0.743589744 C17.6470588,0.333128205 17.9764706,0 18.3823529,0 C18.7882353,0 19.1176471,0.333128205 19.1176471,0.743589744 L19.1176471,2.97435897 C19.1176471,3.38482051 18.7882353,3.71794872 18.3823529,3.71794872 C17.9764706,3.71794872 17.6470588,3.38482051 17.6470588,2.97435897 L17.6470588,2.97435897 Z M15.4411765,12.6410256 L15.4411765,17.1025641 C15.4411765,17.5122821 15.7713235,17.8461538 16.1764706,17.8461538 L16.9117647,17.8461538 C18.1279412,17.8461538 19.1176471,18.8470256 19.1176471,20.0769231 L19.1176471,22.3076923 C19.1176471,22.7181538 18.7882353,23.0512821 18.3823529,23.0512821 C17.9764706,23.0512821 17.6470588,22.7181538 17.6470588,22.3076923 L17.6470588,20.0769231 C17.6470588,19.6672051 17.3169118,19.3333333 16.9117647,19.3333333 L16.1764706,19.3333333 C14.9602941,19.3333333 13.9705882,18.3324615 13.9705882,17.1025641 L13.9705882,12.6410256 C13.9705882,11.4111282 14.9602941,10.4102564 16.1764706,10.4102564 L16.9117647,10.4102564 C17.3169118,10.4102564 17.6470588,10.0763846 17.6470588,9.66666667 L17.6470588,7.43589744 C17.6470588,7.0254359 17.9764706,6.69230769 18.3823529,6.69230769 C18.7882353,6.69230769 19.1176471,7.0254359 19.1176471,7.43589744 L19.1176471,9.66666667 C19.1176471,10.8965641 18.1279412,11.8974359 16.9117647,11.8974359 L16.1764706,11.8974359 C15.7713235,11.8974359 15.4411765,12.2313077 15.4411765,12.6410256 L15.4411765,12.6410256 Z M9.55882353,17.1025641 L9.55882353,12.6410256 C9.55882353,12.2313077 9.22867647,11.8974359 8.82352941,11.8974359 L8.08823529,11.8974359 C6.87205882,11.8974359 5.88235294,10.8965641 5.88235294,9.66666667 L5.88235294,7.43589744 C5.88235294,7.0254359 6.21176471,6.69230769 6.61764706,6.69230769 C7.02352941,6.69230769 7.35294118,7.0254359 7.35294118,7.43589744 L7.35294118,9.66666667 C7.35294118,10.0763846 7.68308824,10.4102564 8.08823529,10.4102564 L8.82352941,10.4102564 C10.0397059,10.4102564 11.0294118,11.4111282 11.0294118,12.6410256 L11.0294118,17.1025641 C11.0294118,18.3324615 10.0397059,19.3333333 8.82352941,19.3333333 L8.08823529,19.3333333 C7.68308824,19.3333333 7.35294118,19.6672051 7.35294118,20.0769231 L7.35294118,22.3076923 C7.35294118,22.7181538 7.02352941,23.0512821 6.61764706,23.0512821 C6.21176471,23.0512821 5.88235294,22.7181538 5.88235294,22.3076923 L5.88235294,20.0769231 C5.88235294,18.8470256 6.87205882,17.8461538 8.08823529,17.8461538 L8.82352941,17.8461538 C9.22867647,17.8461538 9.55882353,17.5122821 9.55882353,17.1025641 L9.55882353,17.1025641 Z"></path>
                </g>
            </g>
        </g>
    </g>
</svg>