<?xml version="1.0" encoding="UTF-8" standalone="no"?>
<svg width="40px" height="40px" viewBox="0 0 40 40" version="1.1" xmlns="http://www.w3.org/2000/svg" xmlns:xlink="http://www.w3.org/1999/xlink">
    <!-- Generator: Sketch 46.1 (44463) - http://www.bohemiancoding.com/sketch -->
    <title>chicken</title>
    <desc>Created with Sketch.</desc>
    <defs></defs>
    <g id="Page-1" stroke="none" stroke-width="1" fill="none" fill-rule="evenodd">
        <g id="30-Fast-Food-Icons" transform="translate(-455.000000, -790.000000)" fill="#000000">
            <g id="chicken" transform="translate(455.000000, 790.000000)">
                <path d="M31.4921634,25.75816 C30.9470486,25.4450037 30.7759415,24.7998862 30.4968327,23.5918396 C30.1202237,21.9595774 29.6058426,19.7512227 27.4258649,17.3582485 C27.8382176,16.6702117 28.3282237,15.9328398 28.9202581,15.1560883 L29.0323062,15.0098528 L29.0323062,14.8149459 C29.0323062,14.7153908 29.0178546,14.6287778 29.0119776,14.5344216 L31.0256654,12.2223083 L31.7418873,12.2223083 C33.2403269,12.2223083 34,11.349652 34,9.6296706 C34,8.50912194 33.2372439,7.84132803 32.6032034,7.62971801 C32.4605178,6.86026722 31.9424757,6 30.8387578,6 C29.3403183,6 28.5806452,6.87265631 28.5806452,8.59263766 L28.5806452,9.93364569 L26.6187905,12.1860259 C26.3998004,12.1968664 26.2507561,12.2290559 26.2339923,12.2327062 L26.0998813,12.2637896 L26.0032482,12.3747383 C25.0092662,13.5159723 24.0156697,14.2766843 23.1282443,14.7920482 C22.6703209,14.6681574 21.1890305,14.2963741 19.9999518,14.2963741 C12.011871,14.2963741 6,21.8459739 6,26.7407694 C6,33.9170374 13.1535484,34 13.2258065,34 L23.1612903,34 C25.8529514,34 28.6362357,34 30.4968327,33.4659419 C32.1221574,32.9992494 33.5483389,31.0683217 33.5483389,29.3334071 C33.5484353,27.8337745 32.7797058,26.4976336 31.4921634,25.75816 L31.4921634,25.75816 L31.4921634,25.75816 Z M29.483871,10.3629497 L29.483871,8.59274828 C29.483871,7.44421355 29.8384172,7.03714356 30.8387578,7.03714356 C31.6638486,7.03714356 31.7388043,7.83358485 31.7419837,8.0741765 L31.7419837,8.59274828 L32.1936447,8.59274828 C32.411286,8.59274828 33.0968705,8.90490902 33.0968705,9.62978122 C33.0968705,10.7783159 32.7423243,11.1853859 31.7419837,11.1853859 L30.651754,11.1853859 L28.7396129,13.3807985 C28.6231329,13.1350079 28.4826632,12.9125574 28.2947923,12.7362341 C28.1195424,12.5713044 27.9276249,12.4551567 27.7343587,12.3717516 L29.483871,10.3629497 L29.483871,10.3629497 L29.483871,10.3629497 Z M26.533526,13.2303596 C26.7814194,13.2023735 27.3464774,13.1836793 27.722123,13.5378744 C27.9627905,13.7649708 28.0978649,14.131002 28.1245523,14.6277822 C25.0206348,18.7608701 24.5414194,21.8574781 24.5225359,21.9891121 L24.5161772,22.0741765 C24.5161772,24.9332901 22.4902538,27.2593412 20.0000482,27.2593412 C17.5098426,27.2593412 15.4839191,24.9332901 15.4839191,22.0741765 C15.4839191,19.2150629 17.5098426,16.8890118 20.0000482,16.8890118 C20.1350262,16.8890118 23.3138994,16.8469774 26.533526,13.2303596 L26.533526,13.2303596 L26.533526,13.2303596 Z M30.2773609,32.4599923 C28.5250546,32.9629671 25.798228,32.9629671 23.1612903,32.9629671 L13.2258065,32.9629671 C12.967508,32.9629671 6.90322581,32.891951 6.90322581,26.7407694 C6.90322581,22.2358983 12.7705806,15.3334071 20.0000482,15.3334071 C20.5036387,15.3334071 21.0789092,15.4106176 21.5942538,15.5039783 C20.6395802,15.8358288 20.013151,15.8518682 20.0000482,15.8518682 C17.0117437,15.8518682 14.5806933,18.6430631 14.5806933,22.0740659 C14.5806933,25.5050686 17.0117437,28.2962635 20.0000482,28.2962635 C22.9735157,28.2962635 25.3955097,25.5326122 25.419403,22.124839 C25.4641067,21.8784953 25.7712516,20.3893713 26.9245867,18.240086 C28.8199639,20.3768716 29.2639174,22.2964057 29.6243406,23.858205 C29.9079776,25.0876006 30.1531733,26.1495224 31.0884817,26.6862353 C31.5563286,26.954813 32.6452095,27.7502588 32.6452095,29.3332965 C32.6452095,30.6141289 31.5165385,32.1043591 30.2773609,32.4599923 L30.2773609,32.4599923 Z M29.3411854,30.3973199 C28.1556714,30.8510702 26.3076955,30.8889012 24.5161772,30.8889012 L24.5161772,31.9259341 C26.3817841,31.9259341 28.3133867,31.8838997 29.6266529,31.3809249 C30.6685178,30.9827043 31.2904189,30.023435 31.2904189,28.8148353 L30.3871931,28.8148353 C30.3870968,29.5776491 30.015883,30.1391402 29.3411854,30.3973199 L29.3411854,30.3973199 Z M21.8064998,30.8889012 L23.1613867,30.8889012 L23.1613867,31.9259341 L21.8064998,31.9259341 L21.8064998,30.8889012 L21.8064998,30.8889012 Z M16.3871449,22.0741765 L17.2903708,22.0741765 C17.2903708,20.3583986 18.5056551,18.9630777 20.0000482,18.9630777 L20.0000482,17.9260447 C18.0079415,17.9260447 16.3871449,19.786952 16.3871449,22.0741765 L16.3871449,22.0741765 Z"></path>
            </g>
        </g>
    </g>
</svg>