<?xml version="1.0" encoding="UTF-8" standalone="no"?>
<svg width="40px" height="40px" viewBox="0 0 40 40" version="1.1" xmlns="http://www.w3.org/2000/svg" xmlns:xlink="http://www.w3.org/1999/xlink">
    <!-- Generator: Sketch 46.1 (44463) - http://www.bohemiancoding.com/sketch -->
    <title>comet</title>
    <desc>Created with Sketch.</desc>
    <defs></defs>
    <g id="Page-1" stroke="none" stroke-width="1" fill="none" fill-rule="evenodd">
        <g id="30-Universe-Element-Icons" transform="translate(-714.000000, -900.000000)" fill="#000000">
            <g id="comet" transform="translate(714.000000, 900.000000)">
                <g transform="translate(4.000000, 4.000000)" id="Shape">
                    <path d="M11.7509648,20.7829746 C11.5577988,20.7829746 11.3628281,20.7243223 11.1942188,20.6025703 L0.753328125,13.0598789 C0.171316406,12.6432539 -0.104736328,11.9442598 0.0363515625,11.2382402 C0.177439453,10.5322207 0.700863281,9.99294141 1.40243555,9.83109961 L8.25019336,8.25090234 L9.83039063,1.40314453 C9.99236133,0.701572266 10.5314473,0.178148437 11.2375313,0.0370605469 C11.9434863,-0.104220703 12.6424805,0.171960937 13.0615547,0.757453125 L20.6019258,11.1948633 C20.9096895,11.6210918 20.8139766,12.2161875 20.3876836,12.5240801 C19.9612617,12.8319727 19.3662305,12.736002 19.0583379,12.3099023 L11.6379141,2.03839453 L10.0920059,8.7378457 C9.93757617,9.40654687 9.40577344,9.93834961 8.73713672,10.0927148 L2.03775,11.6386875 L12.3093223,19.0591113 C12.7355508,19.3670039 12.8313926,19.9620996 12.5235645,20.3883281 C12.3372949,20.6459473 12.0462891,20.7829746 11.7509648,20.7829746 L11.7509648,20.7829746 Z"></path>
                    <path d="M20.4728262,32.9994844 C19.5602988,32.9994844 18.796916,32.3469609 18.6579551,31.4477754 L18.035209,27.4222266 L14.0097891,26.7994805 C13.2821133,26.6869453 12.7118965,26.175252 12.5212441,25.4641406 C12.3307207,24.7529648 12.568875,24.0246445 13.1426367,23.563418 L16.3174043,21.0113965 L14.8440059,17.2138828 C14.625252,16.6501113 14.697375,16.0171816 15.0371719,15.520957 C15.3810293,15.0186738 15.945123,14.7187734 16.5462773,14.7187734 C16.7730234,14.7187734 16.9974492,14.761248 17.2129805,14.8449082 L21.0104941,16.3183066 L23.5626445,13.1435391 C23.9123027,12.7084805 24.4303125,12.458918 24.9839648,12.458918 C25.8964277,12.458918 26.6596816,13.1114414 26.7988359,14.0105625 L27.4216465,18.0361113 L31.4470664,18.6588574 C32.1746133,18.7713926 32.744959,19.2830859 32.9354824,19.9942617 C33.1260703,20.7054375 32.8879805,21.4337578 32.3140898,21.8949844 L29.1393867,24.4469414 L30.6128496,28.2444551 C30.8316035,28.8082266 30.7593516,29.4411562 30.4195547,29.9374453 C30.0756973,30.4397285 29.5116035,30.7396289 28.9105781,30.7396289 C28.6837031,30.7396289 28.4594063,30.6971543 28.2437461,30.6134941 L24.4462324,29.1400312 L21.894082,32.3147988 C21.5443594,32.7499219 21.0263496,32.9993555 20.4728262,32.9994844 L20.4728262,32.9994844 Z M14.4652148,24.943166 L19.0150254,25.6469941 C19.4251406,25.7104805 19.7469551,26.032166 19.810377,26.4423457 L20.5142051,30.9922207 L23.3988047,27.4038574 C23.6587441,27.0805605 24.09825,26.9626113 24.4851621,27.1127227 L28.777418,28.778127 L27.1120137,24.4858711 C26.9619668,24.0990879 27.0797227,23.6595176 27.4031484,23.3995137 L30.9915117,20.515043 L26.4417012,19.8112148 C26.0315859,19.7477285 25.7097715,19.426043 25.6463496,19.0158633 L24.9425215,14.4659238 L22.0579219,18.0542871 C21.7981113,18.3777129 21.3586699,18.4956621 20.9715645,18.3454219 L16.679373,16.680082 L18.3447129,20.9722734 C18.4947598,21.3590566 18.3770039,21.798627 18.0535781,22.0586309 L14.4652148,24.943166 L14.4652148,24.943166 Z"></path>
                </g>
            </g>
        </g>
    </g>
</svg>