<?xml version="1.0" encoding="UTF-8" standalone="no"?>
<svg width="40px" height="40px" viewBox="0 0 40 40" version="1.1" xmlns="http://www.w3.org/2000/svg" xmlns:xlink="http://www.w3.org/1999/xlink">
    <!-- Generator: Sketch 46.1 (44463) - http://www.bohemiancoding.com/sketch -->
    <title>compass</title>
    <desc>Created with Sketch.</desc>
    <defs></defs>
    <g id="Page-1" stroke="none" stroke-width="1" fill="none" fill-rule="evenodd">
        <g id="Artboard-1-Copy-7" transform="translate(-654.000000, -269.000000)" stroke="#000000">
            <g id="icons" transform="translate(331.000000, 269.000000)">
                <g id="Compass" transform="translate(328.000000, 5.000000)">
                    <path d="M15,4 L15,5.17948718 M26.025641,15.5 L24.8461538,15.5 M15,27 L15,25.8205128 M3.97435897,15.5 L5.15384615,15.5" id="Line" stroke-linecap="round"></path>
                    <circle id="base" cx="15.5" cy="15.5" r="15"></circle>
                    <g id="direction" transform="translate(15.500000, 16.500000) rotate(45.000000) translate(-15.500000, -16.500000) translate(12.000000, 7.000000)">
                        <path d="M3.51620581,1.69536825 C3.37055069,1.29276951 3.49856435,1.29278142 3.35291355,1.69536825 L1.02199673,8.1381506 C0.756981117,8.87066835 0.756965945,10.1159136 1.02199673,10.8484733 L3.35291355,17.2912557 C3.49856866,17.6938544 3.370555,17.6938425 3.51620581,17.2912557 L5.84712262,10.8484733 C6.11213824,10.1159556 6.11215341,8.87071029 5.84712262,8.1381506 L3.51620581,1.69536825 Z" id="Path-5"></path>
                        <path d="M0.948318304,9.48585082 L5.7605727,9.48585082" id="Line" stroke-linecap="round"></path>
                    </g>
                </g>
            </g>
        </g>
    </g>
</svg>