<?xml version="1.0" encoding="UTF-8" standalone="no"?>
<svg width="40px" height="40px" viewBox="0 0 40 40" version="1.1" xmlns="http://www.w3.org/2000/svg" xmlns:xlink="http://www.w3.org/1999/xlink">
    <!-- Generator: Sketch 46.1 (44463) - http://www.bohemiancoding.com/sketch -->
    <title>construction_block</title>
    <desc>Created with Sketch.</desc>
    <defs></defs>
    <g id="Icons" stroke="none" stroke-width="1" fill="none" fill-rule="evenodd">
        <g id="Automotive" transform="translate(-1042.000000, -79.000000)" fill="#231F20">
            <g id="Construction-Roadblock" transform="translate(1045.000000, 85.000000)">
                <g>
                    <path d="M30.3043478,17.8461538 L30.3043478,28.2564103 C30.3043478,28.6668718 29.9739565,29 29.5652174,29 L26.6086957,29 C26.1999565,29 25.8695652,28.6668718 25.8695652,28.2564103 L25.8695652,25.2820513 L8.13043478,25.2820513 L8.13043478,28.2564103 C8.13043478,28.6668718 7.80004348,29 7.39130435,29 L4.43478261,29 C4.02604348,29 3.69565217,28.6668718 3.69565217,28.2564103 L3.69565217,17.8461538 C3.69565217,17.4356923 4.02604348,17.1025641 4.43478261,17.1025641 C4.84352174,17.1025641 5.17391304,17.4356923 5.17391304,17.8461538 L5.17391304,27.5128205 L6.65217391,27.5128205 L6.65217391,24.5384615 C6.65217391,24.128 6.98256522,23.7948718 7.39130435,23.7948718 L26.6086957,23.7948718 C27.0174348,23.7948718 27.3478261,24.128 27.3478261,24.5384615 L27.3478261,27.5128205 L28.826087,27.5128205 L28.826087,17.8461538 C28.826087,17.4356923 29.1564783,17.1025641 29.5652174,17.1025641 C29.9739565,17.1025641 30.3043478,17.4356923 30.3043478,17.8461538 L30.3043478,17.8461538 Z M7.39130435,17.1025641 C6.98256522,17.1025641 6.65217391,17.4356923 6.65217391,17.8461538 L6.65217391,21.5641026 C6.65217391,21.9745641 6.98256522,22.3076923 7.39130435,22.3076923 L26.6086957,22.3076923 C27.0174348,22.3076923 27.3478261,21.9745641 27.3478261,21.5641026 L27.3478261,17.8461538 C27.3478261,17.4356923 27.0174348,17.1025641 26.6086957,17.1025641 C26.1999565,17.1025641 25.8695652,17.4356923 25.8695652,17.8461538 L25.8695652,20.8205128 L8.13043478,20.8205128 L8.13043478,17.8461538 C8.13043478,17.4356923 7.80004348,17.1025641 7.39130435,17.1025641 L7.39130435,17.1025641 Z M34,10.4102564 L34,14.8717949 C34,15.6919744 33.3362609,16.3589744 32.5217391,16.3589744 L1.47826087,16.3589744 C0.663,16.3589744 0,15.6919744 0,14.8717949 L0,10.4102564 C0,9.59007692 0.663,8.92307692 1.47826087,8.92307692 L32.5217391,8.92307692 C33.3362609,8.92307692 34,9.59007692 34,10.4102564 L34,10.4102564 Z M25.5635652,14.8717949 L29.9983478,10.4102564 L26.1755652,10.4102564 L21.7407826,14.8717949 L25.5635652,14.8717949 L25.5635652,14.8717949 Z M19.6505217,14.8717949 L24.0853043,10.4102564 L20.2625217,10.4102564 L15.8277391,14.8717949 L19.6505217,14.8717949 L19.6505217,14.8717949 Z M13.7374783,14.8717949 L18.1722609,10.4102564 L14.3494783,10.4102564 L9.91469565,14.8717949 L13.7374783,14.8717949 L13.7374783,14.8717949 Z M7.82443478,14.8717949 L12.2592174,10.4102564 L8.43643478,10.4102564 L4.00165217,14.8717949 L7.82443478,14.8717949 L7.82443478,14.8717949 Z M1.47826087,14.8717949 L1.9113913,14.8717949 L6.34617391,10.4102564 L1.47826087,10.4102564 L1.47826087,14.8717949 L1.47826087,14.8717949 Z M32.5224783,14.8717949 L32.5217391,10.4102564 L32.0886087,10.4102564 L27.6538261,14.8717949 L32.5224783,14.8717949 L32.5224783,14.8717949 Z M2.2173913,3.71794872 C2.2173913,1.66787179 3.87526087,0 5.91304348,0 C7.95082609,0 9.60869565,1.66787179 9.60869565,3.71794872 C9.60869565,5.76802564 7.95082609,7.43589744 5.91304348,7.43589744 C3.87526087,7.43589744 2.2173913,5.76802564 2.2173913,3.71794872 L2.2173913,3.71794872 Z M3.69565217,3.71794872 C3.69565217,4.94784615 4.69052174,5.94871795 5.91304348,5.94871795 C7.13556522,5.94871795 8.13043478,4.94784615 8.13043478,3.71794872 C8.13043478,2.48805128 7.13556522,1.48717949 5.91304348,1.48717949 C4.69052174,1.48717949 3.69565217,2.48805128 3.69565217,3.71794872 L3.69565217,3.71794872 Z M24.3913043,3.71794872 C24.3913043,1.66787179 26.0491739,0 28.0869565,0 C30.1247391,0 31.7826087,1.66787179 31.7826087,3.71794872 C31.7826087,5.76802564 30.1247391,7.43589744 28.0869565,7.43589744 C26.0491739,7.43589744 24.3913043,5.76802564 24.3913043,3.71794872 L24.3913043,3.71794872 Z M25.8695652,3.71794872 C25.8695652,4.94784615 26.8644348,5.94871795 28.0869565,5.94871795 C29.3094783,5.94871795 30.3043478,4.94784615 30.3043478,3.71794872 C30.3043478,2.48805128 29.3094783,1.48717949 28.0869565,1.48717949 C26.8644348,1.48717949 25.8695652,2.48805128 25.8695652,3.71794872 L25.8695652,3.71794872 Z"></path>
                </g>
            </g>
        </g>
    </g>
</svg>