<?xml version="1.0" encoding="UTF-8" standalone="no"?>
<svg width="40px" height="40px" viewBox="0 0 40 40" version="1.1" xmlns="http://www.w3.org/2000/svg" xmlns:xlink="http://www.w3.org/1999/xlink">
    <!-- Generator: Sketch 46.1 (44463) - http://www.bohemiancoding.com/sketch -->
    <title>construction_cone</title>
    <desc>Created with Sketch.</desc>
    <defs></defs>
    <g id="Icons" stroke="none" stroke-width="1" fill="none" fill-rule="evenodd">
        <g id="Automotive" transform="translate(-869.000000, -79.000000)" fill="#231F20">
            <g id="Construction-Cone" transform="translate(878.000000, 87.000000)">
                <g>
                    <path d="M22.28125,21.1764706 L19.2395,21.1764706 L13.6318125,0.523764706 C13.5484375,0.215294118 13.2630937,0 12.9375,0 L10.0625,0 C9.73690625,0 9.4515625,0.215294118 9.3681875,0.523764706 L3.7605,21.1764706 L0.71875,21.1764706 C0.32128125,21.1764706 0,21.4927059 0,21.8823529 L0,23.2941176 C0,23.6837647 0.32128125,24 0.71875,24 C1.11621875,24 1.4375,23.6837647 1.4375,23.2941176 L1.4375,22.5882353 L18.684625,22.5882353 C18.6853437,22.5882353 18.6860625,22.5889412 18.6867812,22.5889412 C18.6875,22.5889412 18.6882187,22.5882353 18.6896562,22.5882353 L21.5625,22.5882353 L21.5625,23.2941176 C21.5625,23.6837647 21.8837813,24 22.28125,24 C22.6787187,24 23,23.6837647 23,23.2941176 L23,21.8823529 C23,21.4927059 22.6787187,21.1764706 22.28125,21.1764706 L22.28125,21.1764706 Z M10.6152187,1.41176471 L12.3847812,1.41176471 L13.9185937,7.05882353 L11.5,7.05882353 C11.1025313,7.05882353 10.78125,7.37505882 10.78125,7.76470588 C10.78125,8.15435294 11.1025313,8.47058824 11.5,8.47058824 L14.3016875,8.47058824 L15.8355,14.1176471 L10.0625,14.1176471 C9.66503125,14.1176471 9.34375,14.4338824 9.34375,14.8235294 C9.34375,15.2131765 9.66503125,15.5294118 10.0625,15.5294118 L16.2185937,15.5294118 L17.7524062,21.1764706 L5.24759375,21.1764706 L10.6152187,1.41176471 L10.6152187,1.41176471 Z"></path>
                </g>
            </g>
        </g>
    </g>
</svg>