<?xml version="1.0" encoding="UTF-8" standalone="no"?>
<svg width="40px" height="40px" viewBox="0 0 40 40" version="1.1" xmlns="http://www.w3.org/2000/svg" xmlns:xlink="http://www.w3.org/1999/xlink">
    <!-- Generator: Sketch 46.1 (44463) - http://www.bohemiancoding.com/sketch -->
    <title>crazy</title>
    <desc>Created with Sketch.</desc>
    <defs></defs>
    <g id="Page-1" stroke="none" stroke-width="1" fill="none" fill-rule="evenodd">
        <g id="50-Emoji-Icons" transform="translate(-1385.000000, -1180.000000)" fill="#000000">
            <g id="laughing-1" transform="translate(1391.000000, 1186.000000)">
                <path d="M13.9998108,0 C6.28032432,0 0,6.28032432 0,13.9998108 C0,21.7192973 6.28032432,27.9996216 13.9998108,27.9996216 C21.7192973,27.9996216 27.9996216,21.7192973 27.9996216,13.9998108 C27.9996216,6.28032432 21.7192973,0 13.9998108,0 L13.9998108,0 Z M13.9998108,26.4861081 C10.5700946,26.4861081 7.45925676,25.0959459 5.20043243,22.8498919 C4.29837838,21.9529459 3.53263514,20.9192162 2.93640541,19.7831351 C2.0282973,18.0530946 1.51351351,16.0856216 1.51351351,13.9998108 C1.51351351,7.11483784 7.11483784,1.51351351 13.9998108,1.51351351 C17.2655,1.51351351 20.2418243,2.77427027 22.4691486,4.83397297 C23.6239595,5.90175676 24.5775676,7.18408108 25.2651757,8.61747297 C26.047473,10.2480946 26.4861081,12.0736757 26.4861081,13.9998108 C26.4861081,20.8847838 20.8847838,26.4861081 13.9998108,26.4861081 L13.9998108,26.4861081 Z" id="Shape"></path>
                <polygon id="Shape" points="10.1312703 13.9955541 12.8984459 11.2281892 10.1311757 8.46101351 9.06102703 9.53135135 10.7581486 11.2281892 9.06093243 12.9253108"></polygon>
                <polygon id="Shape" points="18.9385 12.9253108 17.2413784 11.2281892 18.9384054 9.53135135 17.8683514 8.46101351 15.1009865 11.2281892 17.8682568 13.9955541"></polygon>
                <path d="M21.7831486,15.6078243 L6.21628378,15.6078243 C6.21628378,18.3997838 7.68713514,20.8471351 9.89535135,22.2206486 C10.0806622,23.3415 10.7065,24.3128919 11.5867027,24.9477162 C12.267973,25.4390405 13.1006892,25.7294459 13.9998108,25.7294459 C15.3753108,25.7294459 16.596527,25.0517703 17.3547973,24.0102838 C17.7326081,23.4912432 17.9949189,22.8818649 18.1042703,22.2206486 C20.3122973,20.8471351 21.7831486,18.3997838 21.7831486,15.6078243 L21.7831486,15.6078243 Z M13.9682162,24.2159324 C12.4829865,24.2159324 11.3195676,23.0347297 11.3195676,21.5267027 L11.3195676,20.2429595 L16.6168649,20.2429595 L16.6168649,21.5267027 C16.6168649,23.0347297 15.4534459,24.2159324 13.9682162,24.2159324 L13.9682162,24.2159324 Z M20.0537703,17.1213378 L20.0693784,17.1213378 C19.761,18.3609054 19.0763243,19.4547973 18.1303784,20.2807027 L18.1303784,18.7294459 L9.80605405,18.7294459 L9.80605405,20.2947027 C8.9547027,19.4671892 8.22452703,18.3679054 7.91444595,17.1213378 L20.0537703,17.1213378 L20.0537703,17.1213378 Z" id="Shape"></path>
            </g>
        </g>
    </g>
</svg>