<?xml version="1.0" encoding="UTF-8" standalone="no"?>
<svg width="40px" height="40px" viewBox="0 0 40 40" version="1.1" xmlns="http://www.w3.org/2000/svg" xmlns:xlink="http://www.w3.org/1999/xlink">
    <!-- Generator: Sketch 46.1 (44463) - http://www.bohemiancoding.com/sketch -->
    <title>crying01</title>
    <desc>Created with Sketch.</desc>
    <defs></defs>
    <g id="Page-1" stroke="none" stroke-width="1" fill="none" fill-rule="evenodd">
        <g id="50-Emoji-Icons" transform="translate(-1740.000000, -259.000000)" fill="#000000">
            <g id="crying-1" transform="translate(1746.000000, 265.000000)">
                <path d="M13.9998108,0 C6.28032432,0 0,6.28032432 0,13.9998108 C0,21.7192973 6.28032432,27.9996216 13.9998108,27.9996216 C21.7192973,27.9996216 27.9996216,21.7192973 27.9996216,13.9998108 C27.9996216,6.28032432 21.7193919,0 13.9998108,0 L13.9998108,0 Z M13.9998108,26.4861081 C10.5701892,26.4861081 7.45925676,25.0959459 5.20043243,22.8498919 C4.29837838,21.9529459 3.53263514,20.9192162 2.93640541,19.7831351 C2.0282973,18.0530946 1.51351351,16.085527 1.51351351,13.9998108 C1.51351351,7.11483784 7.11483784,1.51351351 13.9998108,1.51351351 C17.2655,1.51351351 20.2418243,2.77427027 22.4691486,4.83397297 C23.6239595,5.90175676 24.5775676,7.18408108 25.2651757,8.61737838 C26.047473,10.2480946 26.4861081,12.0736757 26.4861081,13.9998108 C26.4861081,20.8847838 20.8847838,26.4861081 13.9998108,26.4861081 L13.9998108,26.4861081 Z" id="Shape"></path>
                <circle id="Oval" cx="9.31728378" cy="10.8781892" r="1.51351351"></circle>
                <circle id="Oval" cx="18.6821486" cy="10.8781892" r="1.51351351"></circle>
                <path d="M13.0912297,18.9735946 C13.8772162,18.8705811 14.6842027,18.8950811 15.4791757,19.0613784 C17.1396892,19.4086351 18.6312568,20.3421892 19.6791757,21.6900676 L20.874,20.7611486 C19.6062432,19.1303378 17.8002432,18.0005 15.788973,17.5798378 C14.6765405,17.3473243 13.5443378,17.3424054 12.4552703,17.5422838 C12.1936216,17.111973 11.861027,16.6492162 11.4527568,16.149473 C10.6567432,15.1751486 9.87094595,14.4278514 9.83802703,14.3965405 L9.31737838,13.9030405 L8.79682432,14.3964459 C8.76371622,14.4278514 7.97791892,15.1750541 7.18190541,16.149473 C6.02444595,17.5662162 5.4617027,18.693027 5.4617027,19.5942297 C5.4617027,21.7202432 7.19136486,23.4499054 9.31737838,23.4499054 C11.4432973,23.4499054 13.1728649,21.7202432 13.1728649,19.5942297 C13.1728649,19.3984189 13.1445811,19.1913514 13.0912297,18.9735946 L13.0912297,18.9735946 Z M9.31737838,21.9362973 C8.02597297,21.9362973 6.97521622,20.8856351 6.97521622,19.5941351 C6.97521622,18.7737162 8.2145,17.1655135 9.31766216,16.0140135 C10.4205405,17.1643784 11.6593514,18.7717297 11.6593514,19.5941351 C11.6593514,20.8856351 10.6086892,21.9362973 9.31737838,21.9362973 L9.31737838,21.9362973 Z" id="Shape"></path>
            </g>
        </g>
    </g>
</svg>