<?xml version="1.0" encoding="UTF-8" standalone="no"?>
<svg width="40px" height="40px" viewBox="0 0 40 40" version="1.1" xmlns="http://www.w3.org/2000/svg" xmlns:xlink="http://www.w3.org/1999/xlink">
    <!-- Generator: Sketch 46.1 (44463) - http://www.bohemiancoding.com/sketch -->
    <title>crying</title>
    <desc>Created with Sketch.</desc>
    <defs></defs>
    <g id="Page-1" stroke="none" stroke-width="1" fill="none" fill-rule="evenodd">
        <g id="50-Emoji-Icons" transform="translate(-320.000000, -259.000000)" fill="#000000">
            <g id="crying" transform="translate(326.000000, 265.000000)">
                <path d="M13.9998108,0 C6.28032432,0 0,6.28032432 0,13.9998108 C0,21.7192973 6.28032432,27.9996216 13.9998108,27.9996216 C21.7192973,27.9996216 27.9996216,21.7192973 27.9996216,13.9998108 C27.9996216,6.28032432 21.7192973,0 13.9998108,0 L13.9998108,0 Z M8.38713514,25.1670811 L8.38713514,12.4862027 L9.99524324,12.4862027 L9.99524324,25.8378514 C9.42767568,25.6513108 8.9547027,25.4263649 8.38713514,25.1670811 L8.38713514,25.1670811 Z M11.5087568,24.9445946 L11.5087568,19.3523514 C12.4547027,18.679973 13.674973,18.4098108 14.8432162,18.6539595 C15.4163649,18.7739054 15.9547027,19.0126622 16.4276757,19.3486622 L16.4276757,24.3352162 L16.4276757,26.2423378 C15.6709189,26.4018243 14.8099189,26.4861081 13.9683108,26.4861081 C13.1266081,26.4861081 12.3601081,26.4018243 11.5087568,26.2423378 C11.5087568,26.2423378 11.5087568,24.9445946 11.5087568,24.9445946 L11.5087568,24.9445946 Z M17.9411892,25.8379459 L17.9411892,12.4862027 L19.5492973,12.4862027 L19.5492973,25.1671757 C19.0763243,25.4264595 18.5087568,25.6514054 17.9411892,25.8379459 L17.9411892,25.8379459 Z M21.0628108,24.2688108 L21.0628108,21.7112568 L21.0628108,12.4862973 L21.6303784,12.4862973 L21.6303784,10.9727838 L21.0943108,10.9727838 L16.4591757,10.9727838 L15.7655135,10.9727838 L15.7655135,12.4862973 L16.4276757,12.4862973 L16.4276757,17.601973 C16.0492973,17.4107973 15.5958108,17.2652162 15.1530135,17.1726081 C13.9086216,16.912473 12.6438919,17.0832162 11.5087568,17.6098243 L11.5087568,12.4862973 L12.1709189,12.4862973 L12.1709189,10.9727838 L11.5402568,10.9727838 L6.90512162,10.9727838 L6.30605405,10.9727838 L6.30605405,12.4862973 L6.87362162,12.4862973 L6.87362162,23.7849595 L6.87362162,24.2687162 C6.30605405,23.8461622 5.70906757,23.3713919 5.18463514,22.8498919 C4.28258108,21.9529459 3.52468919,20.9192162 2.92855405,19.7831351 C2.02044595,18.0530946 1.50963514,16.085527 1.50963514,13.9998108 C1.50954054,7.11483784 7.11285135,1.51351351 13.9978243,1.51351351 C17.2635135,1.51351351 20.2408784,2.77427027 22.4682027,4.83397297 C23.6230135,5.90175676 24.5770946,7.18408108 25.2647027,8.61737838 C26.047,10.2480946 26.4701216,12.0736757 26.4701216,13.9998108 C26.4701216,18.2514595 24.3736216,22.0129189 21.0628108,24.2688108 L21.0628108,24.2688108 Z" id="Shape"></path>
            </g>
        </g>
    </g>
</svg>