<?xml version="1.0" encoding="UTF-8" standalone="no"?>
<svg width="40px" height="40px" viewBox="0 0 40 40" version="1.1" xmlns="http://www.w3.org/2000/svg" xmlns:xlink="http://www.w3.org/1999/xlink">
    <!-- Generator: Sketch 46.1 (44463) - http://www.bohemiancoding.com/sketch -->
    <title>dead</title>
    <desc>Created with Sketch.</desc>
    <defs></defs>
    <g id="Page-1" stroke="none" stroke-width="1" fill="none" fill-rule="evenodd">
        <g id="50-Emoji-Icons" transform="translate(-675.000000, -259.000000)" fill="#000000">
            <g id="dead" transform="translate(681.000000, 265.000000)">
                <path d="M13.9998108,0 C6.28032432,0 0,6.28032432 0,13.9998108 C0,21.7192973 6.28032432,27.9996216 13.9998108,27.9996216 C21.7192973,27.9996216 27.9996216,21.7192973 27.9996216,13.9998108 C27.9996216,6.28032432 21.7192973,0 13.9998108,0 L13.9998108,0 Z M13.9998108,26.4861081 C10.5700946,26.4861081 7.45925676,25.0959459 5.20043243,22.8498919 C4.29837838,21.9529459 3.53263514,20.9192162 2.93640541,19.7831351 C2.0282973,18.0530946 1.51351351,16.0856216 1.51351351,13.9998108 C1.51351351,7.11483784 7.11483784,1.51351351 13.9998108,1.51351351 C17.2655,1.51351351 20.2418243,2.77427027 22.4691486,4.83397297 C23.6239595,5.90175676 24.5775676,7.18408108 25.2651757,8.61737838 C26.047473,10.2480946 26.4861081,12.0736757 26.4861081,13.9998108 C26.4861081,20.8847838 20.8847838,26.4861081 13.9998108,26.4861081 L13.9998108,26.4861081 Z" id="Shape"></path>
                <polygon id="Shape" points="7.55971622 13.9955541 9.26913514 12.2860405 10.9786486 13.9955541 12.0488919 12.9253108 10.3517703 11.2281892 12.0487973 9.53135135 10.9787432 8.46101351 9.26913514 10.170527 7.55962162 8.46101351 6.48956757 9.53135135 8.18659459 11.2281892 6.48947297 12.9253108"></polygon>
                <polygon id="Shape" points="17.0191757 13.9955541 18.7285946 12.2860405 20.4381081 13.9955541 21.5083514 12.9253108 19.8112297 11.2281892 21.5082568 9.53135135 20.4382027 8.46101351 18.7285946 10.170527 17.0190811 8.46101351 15.949027 9.53135135 17.6460541 11.2281892 15.9489324 12.9253108"></polygon>
                <path d="M21.5357838,19.4862027 L21.5357838,18.256473 L21.5357838,17.9726892 L6.40064865,17.9726892 L6.40064865,19.4862027 L15.2925405,19.4862027 L15.2925405,20.6213378 C15.2925405,22.2018243 16.4892568,23.5108243 18.0148784,23.7144865 C18.1507162,23.7326486 18.2970541,23.7429595 18.4378108,23.7429595 C19.9033649,23.7429595 21.1238243,22.7275811 21.4577432,21.3634324 C21.5160135,21.1253378 21.5357838,20.877027 21.5357838,20.6213378 L21.5357838,19.4862027 L21.5357838,19.4862027 L21.5357838,19.4862027 Z M16.8060541,19.4862027 L20.0222703,19.4862027 L20.0222703,20.6213378 C20.0222703,21.5080676 19.3008919,22.2294459 18.4141622,22.2294459 C17.5274324,22.2294459 16.8060541,21.5080676 16.8060541,20.6213378 L16.8060541,19.4862027 L16.8060541,19.4862027 Z" id="Shape"></path>
            </g>
        </g>
    </g>
</svg>