<?xml version="1.0" encoding="UTF-8" standalone="no"?>
<svg width="40px" height="40px" viewBox="0 0 40 40" version="1.1" xmlns="http://www.w3.org/2000/svg" xmlns:xlink="http://www.w3.org/1999/xlink">
    <!-- Generator: Sketch 46.1 (44463) - http://www.bohemiancoding.com/sketch -->
    <title>defroster</title>
    <desc>Created with Sketch.</desc>
    <defs></defs>
    <g id="Icons" stroke="none" stroke-width="1" fill="none" fill-rule="evenodd">
        <g id="Automotive" transform="translate(-524.000000, -79.000000)" fill="#231F20">
            <g id="Defroster" transform="translate(530.000000, 89.000000)">
                <g>
                    <path d="M19.6607441,19.0371429 C19.8670903,19.2708571 19.8503595,19.6325714 19.6222633,19.8445714 C19.5151864,19.944 19.3813403,19.9925714 19.2474941,19.9925714 C19.0952441,19.9925714 18.9446672,19.9297143 18.8342441,19.8051429 C17.8415518,18.6834286 17.295571,17.196 17.295571,15.6165714 C17.295571,15.5537143 17.3017057,15.4914286 17.3039364,15.4285714 L15.6224941,15.4285714 C15.3140903,15.4285714 15.0648018,15.1725714 15.0648018,14.8571429 C15.0648018,14.5417143 15.3140903,14.2857143 15.6224941,14.2857143 L17.4338787,14.2857143 C17.6513787,13.2137143 18.1270903,12.2274286 18.8342441,11.428 C19.6161287,10.5451429 20.0533595,9.37485714 20.0790133,8.12342857 L20.0444364,8.21257143 C19.9301095,8.50514286 19.6021864,8.64628571 19.3194364,8.53085714 C19.0333403,8.41314286 18.8939172,8.08114286 19.0082441,7.788 L20.1236287,4.93085714 C20.2089557,4.71371429 20.4136287,4.57142857 20.6417249,4.57142857 C20.869821,4.57142857 21.0744941,4.71371429 21.159821,4.93085714 L22.2752057,7.788 C22.3895326,8.08114286 22.2501095,8.41314286 21.9640133,8.53085714 C21.8965326,8.55828571 21.8262633,8.572 21.7571095,8.572 C21.5357057,8.572 21.3260133,8.43542857 21.2390133,8.21257143 L21.1955133,8.1 C21.174321,9.64514286 20.6333595,11.0965714 19.6607441,12.196 C18.8548787,13.1062857 18.4109557,14.3211429 18.4109557,15.6165714 C18.4109557,16.912 18.8548787,18.1268571 19.6607441,19.0371429 L19.6607441,19.0371429 Z M13.3917249,15.6165714 C13.3917249,14.3211429 13.835648,13.1062857 14.6415133,12.196 C15.6141287,11.0965714 16.1550903,9.64514286 16.1762826,8.1 L16.2197826,8.21257143 C16.3067826,8.43542857 16.5164749,8.572 16.7378787,8.572 C16.8070326,8.572 16.8773018,8.55828571 16.9447826,8.53085714 C17.2308787,8.41314286 17.3703018,8.08114286 17.2559749,7.788 L16.1405903,4.93085714 C16.0552633,4.71371429 15.8505903,4.57142857 15.6224941,4.57142857 C15.394398,4.57142857 15.1897249,4.71371429 15.104398,4.93085714 L13.9890133,7.788 C13.8746864,8.08114286 14.0141095,8.41314286 14.3002057,8.53085714 C14.584071,8.64628571 14.9108787,8.50514286 15.0252057,8.21257143 L15.0597826,8.12342857 C15.0341287,9.37485714 14.596898,10.5451429 13.8150133,11.428 C13.1078595,12.2274286 12.632148,13.2137143 12.414648,14.2857143 L10.6032633,14.2857143 C10.2948595,14.2857143 10.045571,14.5417143 10.045571,14.8571429 C10.045571,15.1725714 10.2948595,15.4285714 10.6032633,15.4285714 L12.2847057,15.4285714 C12.2824749,15.4914286 12.2763403,15.5537143 12.2763403,15.6165714 C12.2763403,17.196 12.822321,18.6834286 13.8150133,19.8051429 C13.9254364,19.9297143 14.0760133,19.9925714 14.2282633,19.9925714 C14.3621095,19.9925714 14.4959557,19.944 14.6030326,19.8445714 C14.8311287,19.6325714 14.8478595,19.2708571 14.6415133,19.0371429 C13.835648,18.1268571 13.3917249,16.912 13.3917249,15.6165714 L13.3917249,15.6165714 Z M28.9530133,4.60971429 C28.8319941,4.156 28.5308403,3.76628571 28.125398,3.54057143 C23.9717057,1.224 19.2619941,0 14.5059941,0 C9.75055181,0 5.04084027,1.224 0.887147963,3.54057143 C0.481705655,3.76628571 0.179994117,4.156 0.0595325783,4.60971429 C-0.0609289602,5.06285714 0.00264796288,5.53485714 0.239109501,5.93714286 L5.64537873,15.1514286 C5.74687873,15.3234286 5.92812873,15.4285714 6.12387873,15.4285714 L7.26547489,15.4285714 C7.26324412,15.4914286 7.2571095,15.5537143 7.2571095,15.6165714 C7.2571095,17.196 7.80309027,18.6834286 8.79578258,19.8051429 C8.90620566,19.9297143 9.05678258,19.9925714 9.20903258,19.9925714 C9.34287873,19.9925714 9.47672489,19.944 9.58380181,19.8445714 C9.81189796,19.6325714 9.82862873,19.2708571 9.62228258,19.0371429 C8.81641719,18.1268571 8.37249412,16.912 8.37249412,15.6165714 C8.37249412,14.3211429 8.81641719,13.1062857 9.62228258,12.196 C10.594898,11.0965714 11.1358595,9.64514286 11.1570518,8.1 L11.2005518,8.21257143 C11.2875518,8.43542857 11.4972441,8.572 11.718648,8.572 C11.7878018,8.572 11.858071,8.55828571 11.9255518,8.53085714 C12.211648,8.41314286 12.351071,8.08114286 12.2367441,7.788 L11.1213595,4.93085714 C11.0360326,4.71371429 10.8313595,4.57142857 10.6032633,4.57142857 C10.3751672,4.57142857 10.1704941,4.71371429 10.0851672,4.93085714 L8.96978258,7.788 C8.85545566,8.08114286 8.99487873,8.41314286 9.28097489,8.53085714 C9.56428258,8.64628571 9.89109027,8.50514286 10.0059749,8.21257143 L10.0405518,8.12342857 C10.014898,9.37485714 9.57766719,10.5451429 8.79578258,11.428 C8.08862873,12.2274286 7.61291719,13.2137143 7.39541719,14.2857143 L6.43897489,14.2857143 L1.19555181,5.34857143 C1.11691719,5.21542857 1.09572489,5.05942857 1.13587873,4.90971429 C1.17770566,4.75314286 1.27809027,4.62342857 1.41974412,4.544 C5.41059027,2.31885714 9.93626335,1.14285714 14.5059941,1.14285714 C19.0762826,1.14285714 23.6019557,2.31885714 27.5928018,4.544 C27.7344557,4.62342857 27.8348403,4.75314286 27.8766672,4.90971429 C27.916821,5.05942857 27.8956287,5.21542857 27.8169941,5.34857143 L22.573571,14.2857143 L20.6528787,14.2857143 C20.3450326,14.2857143 20.0951864,14.5417143 20.0951864,14.8571429 C20.0951864,15.1725714 20.3450326,15.4285714 20.6528787,15.4285714 L22.8886672,15.4285714 C23.0844172,15.4285714 23.2656672,15.3234286 23.3671672,15.1514286 L28.7734364,5.93714286 C29.009898,5.53485714 29.0734749,5.06285714 28.9530133,4.60971429 L28.9530133,4.60971429 Z"></path>
                </g>
            </g>
        </g>
    </g>
</svg>