<?xml version="1.0" encoding="UTF-8" standalone="no"?>
<svg width="40px" height="40px" viewBox="0 0 40 40" version="1.1" xmlns="http://www.w3.org/2000/svg" xmlns:xlink="http://www.w3.org/1999/xlink">
    <!-- Generator: Sketch 46.1 (44463) - http://www.bohemiancoding.com/sketch -->
    <title>dice</title>
    <desc>Created with Sketch.</desc>
    <defs></defs>
    <g id="Icons" stroke="none" stroke-width="1" fill="none" fill-rule="evenodd">
        <g id="Automotive" transform="translate(-1042.000000, -389.000000)" fill="#231F20">
            <g id="Fuzzy-Dice" transform="translate(1047.000000, 395.000000)">
                <g>
                    <path d="M13.912478,12.3000465 C13.829978,12.6001628 13.5545235,12.797093 13.2552053,12.797093 C13.1952053,12.797093 13.1352053,12.7896744 13.0752053,12.7734884 L8.15315986,11.4455581 L5.05770531,14.5067442 C4.92475077,14.6389302 4.75020531,14.7043488 4.57565986,14.7043488 C4.4011144,14.7043488 4.22725077,14.6389302 4.0936144,14.5067442 C3.82770531,14.2437209 3.82770531,13.816814 4.0936144,13.5531163 L7.18906895,10.4919302 L5.84656895,5.62397674 C5.74770531,5.26451163 5.96179622,4.8935814 6.32588713,4.7957907 C6.68520531,4.698 7.0636144,4.90909302 7.16247804,5.26855814 L8.50634168,10.1425814 L13.4338417,11.4718605 C13.7972508,11.5696512 14.0113417,11.9405814 13.912478,12.3000465 L13.912478,12.3000465 Z M15.7752053,13.4445349 L11.2247508,17.9456047 C10.8313417,18.3340698 10.2906599,18.5573023 9.74043258,18.5573023 C9.5686144,18.5573023 9.39679622,18.5357209 9.23043258,18.493907 L3.09270531,16.9312791 C2.38088713,16.7505349 1.82520531,16.2008837 1.64247804,15.4967907 L0.0633871303,9.42567442 C-0.117294688,8.72697674 0.0947507667,7.97162791 0.617023494,7.45367442 L5.16747804,2.95260465 C5.68429622,2.44206977 6.46565986,2.22827907 7.16179622,2.40430233 L13.2995235,3.96693023 C14.0106599,4.14767442 14.5670235,4.69732558 14.7504326,5.40074419 L16.3295235,11.4718605 C16.5108871,12.1712326 16.2988417,12.9272558 15.7752053,13.4445349 L15.7752053,13.4445349 Z M15.0081599,11.8077209 L13.4297508,5.73727907 C13.3697508,5.50595349 13.1938417,5.33195349 12.959978,5.27327907 L6.82225077,3.71065116 C6.76702349,3.69716279 6.70975077,3.68974419 6.65179622,3.68974419 C6.46088713,3.68974419 6.27134168,3.76865116 6.13225077,3.90623256 L1.58179622,8.40730233 C1.39770531,8.58872093 1.32270531,8.85106977 1.38475077,9.09048837 L2.96384168,15.1609302 C3.02384168,15.3922558 3.19906895,15.5655814 3.43225077,15.6249302 L9.56997804,17.1875581 C9.80656895,17.2455581 10.0786144,17.1706977 10.2606599,16.9919767 L14.8111144,12.490907 C14.9945235,12.308814 15.0708871,12.0471395 15.0081599,11.8077209 L15.0081599,11.8077209 Z M26.9447508,17.623907 L22.5102053,20.1300465 L18.0756599,17.623907 C17.7483871,17.4384419 17.3317962,17.5510698 17.1456599,17.8747907 C16.9581599,18.1985116 17.0720235,18.609907 17.3992962,18.7946977 L21.8283871,21.2981395 L21.8283871,25.627907 C21.8283871,26.000186 22.1331599,26.3023256 22.5102053,26.3023256 C22.8872508,26.3023256 23.1920235,26.000186 23.1920235,25.627907 L23.1920235,21.2981395 L27.6211144,18.7946977 C27.9477053,18.609907 28.0615689,18.1985116 27.8747508,17.8747907 C27.6879326,17.5510698 27.2706599,17.4384419 26.9447508,17.623907 L26.9447508,17.623907 Z M30.0108871,17.3811163 L30.0108871,23.7462791 C30.0108871,24.4786977 29.6208871,25.1612093 28.9922508,25.528093 L23.5356599,28.7167442 C23.2247508,28.8988372 22.8695235,28.9952791 22.5102053,28.9952791 C22.1508871,28.9952791 21.7956599,28.8988372 21.4847508,28.7174186 L16.0281599,25.528093 C15.3995235,25.1612093 15.0095235,24.4786977 15.0095235,23.7462791 L15.0095235,17.3811163 C15.0095235,16.6493721 15.3995235,15.966186 16.0281599,15.5986279 L21.4840689,12.4106512 C22.1072508,12.0464651 22.9138417,12.0464651 23.5356599,12.4106512 L28.9922508,15.5986279 C29.6208871,15.966186 30.0108871,16.6493721 30.0108871,17.3811163 L30.0108871,17.3811163 Z M28.6472508,17.3811163 C28.6472508,17.1234884 28.5136144,16.8854186 28.2981599,16.7599767 L22.8415689,13.5713256 C22.7406599,13.5119767 22.6261144,13.4809535 22.5102053,13.4809535 C22.3942962,13.4809535 22.2790689,13.5126512 22.177478,13.572 L16.7222508,16.7599767 C16.5067962,16.8854186 16.3731599,17.1234884 16.3731599,17.3811163 L16.3731599,23.7462791 C16.3731599,24.0032326 16.5067962,24.2413023 16.7222508,24.3674186 L22.1781599,27.5560698 C22.3806599,27.6734186 22.6390689,27.674093 22.8415689,27.5560698 L28.2981599,24.3674186 C28.5136144,24.2413023 28.6472508,24.0032326 28.6472508,23.7462791 L28.6472508,17.3811163 L28.6472508,17.3811163 Z M15.7077053,4.19286047 C15.6265689,3.82934884 15.8583871,3.4692093 16.2258871,3.38827907 L19.792478,2.60460465 C19.8436144,1.16134884 21.0381599,0 22.5102053,0 C24.0142962,0 25.237478,1.2105814 25.237478,2.69767442 C25.237478,3.95074419 24.3647508,4.99811628 23.1920235,5.2995814 L23.1920235,10.1162791 C23.1920235,10.4885581 22.8872508,10.7906977 22.5102053,10.7906977 C22.1331599,10.7906977 21.8283871,10.4885581 21.8283871,10.1162791 L21.8283871,5.2995814 C21.0688417,5.10467442 20.4436144,4.59616279 20.092478,3.91972093 L16.5217962,4.70474419 C16.1556599,4.785 15.7902053,4.55704651 15.7077053,4.19286047 L15.7077053,4.19286047 Z M21.1465689,2.69767442 C21.1465689,3.44155814 21.7581599,4.04651163 22.5102053,4.04651163 C23.2615689,4.04651163 23.8738417,3.44155814 23.8738417,2.69767442 C23.8738417,1.9537907 23.2615689,1.34883721 22.5102053,1.34883721 C21.7581599,1.34883721 21.1465689,1.9537907 21.1465689,2.69767442 L21.1465689,2.69767442 Z"></path>
                </g>
            </g>
        </g>
    </g>
</svg>