<?xml version="1.0" encoding="UTF-8" standalone="no"?>
<svg width="40px" height="40px" viewBox="0 0 40 40" version="1.1" xmlns="http://www.w3.org/2000/svg" xmlns:xlink="http://www.w3.org/1999/xlink">
    <!-- Generator: Sketch 46.1 (44463) - http://www.bohemiancoding.com/sketch -->
    <title>doors_open</title>
    <desc>Created with Sketch.</desc>
    <defs></defs>
    <g id="Icons" stroke="none" stroke-width="1" fill="none" fill-rule="evenodd">
        <g id="Automotive" transform="translate(-524.000000, -239.000000)" fill="#231F20">
            <g id="Doors-Open" transform="translate(533.000000, 243.000000)">
                <g>
                    <path d="M6.46892969,24.7518182 L6.46892969,20.3881818 C6.46892969,19.9867273 6.79092969,19.6609091 7.18767969,19.6609091 C7.58442969,19.6609091 7.90642969,19.9867273 7.90642969,20.3881818 L7.90642969,24.7518182 C7.90642969,25.1525455 8.22914844,25.4790909 8.62517969,25.4790909 L14.3751797,25.4790909 C14.7712109,25.4790909 15.0939297,25.1525455 15.0939297,24.7518182 L15.0939297,20.3881818 C15.0939297,19.9867273 15.4159297,19.6609091 15.8126797,19.6609091 C16.2094297,19.6609091 16.5314297,19.9867273 16.5314297,20.3881818 L16.5314297,24.7518182 C16.5314297,25.9547273 15.5639922,26.9336364 14.3751797,26.9336364 L8.62517969,26.9336364 C7.43636719,26.9336364 6.46892969,25.9547273 6.46892969,24.7518182 L6.46892969,24.7518182 Z M15.4324609,9.41654545 C15.5208672,9.45290909 15.6121484,9.46963636 15.7019922,9.46963636 C15.9866172,9.46963636 16.2554297,9.29872727 16.3682734,9.01509091 C16.5177734,8.64345455 16.3402422,8.21945455 15.9722422,8.06818182 C13.4027109,7.01436364 9.37699219,7.01509091 6.80889844,8.06818182 C6.44017969,8.21945455 6.26336719,8.64345455 6.41214844,9.01509091 C6.56092969,9.38745455 6.97996094,9.56781818 7.34867969,9.41654545 C9.57824219,8.50236364 13.2036172,8.50236364 15.4324609,9.41654545 L15.4324609,9.41654545 Z M6.46892969,11.6609091 L6.46892969,17.4790909 C6.46892969,17.8805455 6.79092969,18.2063636 7.18767969,18.2063636 C7.58442969,18.2063636 7.90642969,17.8805455 7.90642969,17.4790909 L7.90642969,11.6609091 C7.90642969,11.2594545 7.58442969,10.9336364 7.18767969,10.9336364 C6.79092969,10.9336364 6.46892969,11.2594545 6.46892969,11.6609091 L6.46892969,11.6609091 Z M16.5314297,11.6609091 C16.5314297,11.2594545 16.2094297,10.9336364 15.8126797,10.9336364 C15.4159297,10.9336364 15.0939297,11.2594545 15.0939297,11.6609091 L15.0939297,17.4790909 C15.0939297,17.8805455 15.4159297,18.2063636 15.8126797,18.2063636 C16.2094297,18.2063636 16.5314297,17.8805455 16.5314297,17.4790909 L16.5314297,11.6609091 L16.5314297,11.6609091 Z M19.4064297,20.0870909 L19.4064297,16.7518182 C19.4064297,16.3503636 19.0844297,16.0245455 18.6876797,16.0245455 C18.2909297,16.0245455 17.9689297,16.3503636 17.9689297,16.7518182 L17.9689297,20.3881818 C17.9689297,20.5809091 18.0443984,20.7663636 18.1795234,20.9023636 L21.7732734,24.5387273 C21.9134297,24.6812727 22.0974297,24.7518182 22.2814297,24.7518182 C22.4654297,24.7518182 22.6494297,24.6812727 22.7895859,24.5387273 C23.0706172,24.2550909 23.0706172,23.7947273 22.7895859,23.5103636 L19.4064297,20.0870909 L19.4064297,20.0870909 Z M1.22708594,16.5387273 L4.82083594,12.9023636 C4.95596094,12.7663636 5.03142969,12.5809091 5.03142969,12.3881818 L5.03142969,8.84418182 L7.04896094,2.03472727 C9.59261719,1.26236364 13.4077422,1.26236364 15.9513984,2.03472727 L17.9689297,8.84418182 L17.9689297,12.3881818 C17.9689297,12.5809091 18.0443984,12.7663636 18.1795234,12.9023636 L21.7732734,16.5387273 C21.9134297,16.6812727 22.0974297,16.7518182 22.2814297,16.7518182 C22.4654297,16.7518182 22.6494297,16.6812727 22.7895859,16.5387273 C23.0706172,16.2550909 23.0706172,15.7947273 22.7895859,15.5103636 L19.4064297,12.0870909 L19.4064297,9.47181818 L20.1179922,9.47909091 L20.1251797,9.47909091 C20.5190547,9.47909091 20.8403359,9.15836364 20.8439297,8.75909091 C20.8475234,8.35763636 20.5291172,8.02890909 20.1323672,8.02454545 L19.2245859,8.01581818 L17.2199922,1.25145455 C17.1531484,1.02745455 16.9842422,0.848545455 16.7657422,0.772909091 C13.8131172,-0.257636364 9.18724219,-0.257636364 6.23461719,0.772909091 C6.01611719,0.848545455 5.84721094,1.02745455 5.78036719,1.25145455 L3.77577344,8.01581818 L2.86799219,8.02454545 C2.47124219,8.02890909 2.15283594,8.35763636 2.15642969,8.75909091 C2.16002344,9.15836364 2.48130469,9.47909091 2.87517969,9.47909091 L2.88236719,9.47909091 L3.59392969,9.47181818 L3.59392969,12.0870909 L0.210773437,15.5103636 C-0.0702578125,15.7947273 -0.0702578125,16.2550909 0.210773437,16.5387273 C0.491085937,16.8230909 0.946054687,16.8230909 1.22708594,16.5387273 L1.22708594,16.5387273 Z M18.6876797,24.0245455 C18.2909297,24.0245455 17.9689297,24.3503636 17.9689297,24.7518182 L17.9689297,27.4594545 L16.3337734,30.218 C16.2043984,30.4361818 15.9686484,30.5714545 15.7178047,30.5714545 L7.28255469,30.5714545 C7.03171094,30.5714545 6.79596094,30.4361818 6.66658594,30.2172727 L5.03142969,27.4594545 L5.03142969,24.7518182 C5.03142969,24.3503636 4.70942969,24.0245455 4.31267969,24.0245455 C3.91592969,24.0245455 3.59392969,24.3503636 3.59392969,24.7518182 L3.59392969,27.6609091 C3.59392969,27.7925455 3.62914844,27.922 3.69671094,28.0354545 L5.43392969,30.9656364 C5.82133594,31.6194545 6.52930469,32.026 7.28255469,32.026 L15.7178047,32.026 C16.4710547,32.026 17.1790234,31.6194545 17.5664297,30.9663636 L19.3036484,28.0354545 C19.3712109,27.922 19.4064297,27.7925455 19.4064297,27.6609091 L19.4064297,24.7518182 C19.4064297,24.3503636 19.0844297,24.0245455 18.6876797,24.0245455 L18.6876797,24.0245455 Z M5.03142969,20.3881818 L5.03142969,16.7518182 C5.03142969,16.3503636 4.70942969,16.0245455 4.31267969,16.0245455 C3.91592969,16.0245455 3.59392969,16.3503636 3.59392969,16.7518182 L3.59392969,20.0870909 L0.210773437,23.5103636 C-0.0702578125,23.7947273 -0.0702578125,24.2550909 0.210773437,24.5387273 C0.350929687,24.6812727 0.534929687,24.7518182 0.718929687,24.7518182 C0.902929687,24.7518182 1.08692969,24.6812727 1.22708594,24.5387273 L4.82083594,20.9023636 C4.95596094,20.7663636 5.03142969,20.5809091 5.03142969,20.3881818 L5.03142969,20.3881818 Z"></path>
                </g>
            </g>
        </g>
    </g>
</svg>