<?xml version="1.0" encoding="UTF-8" standalone="no"?>
<svg width="40px" height="40px" viewBox="0 0 40 40" version="1.1" xmlns="http://www.w3.org/2000/svg" xmlns:xlink="http://www.w3.org/1999/xlink">
    <!-- Generator: Sketch 46.1 (44463) - http://www.bohemiancoding.com/sketch -->
    <title>e_car</title>
    <desc>Created with Sketch.</desc>
    <defs></defs>
    <g id="Icons" stroke="none" stroke-width="1" fill="none" fill-rule="evenodd">
        <g id="Automotive" transform="translate(-1042.000000, -239.000000)" fill="#231F20">
            <g id="Electric-Car" transform="translate(1044.000000, 250.000000)">
                <g>
                    <path d="M13.9245283,11.7692308 C12.2393208,11.7692308 10.8679245,13.167 10.8679245,14.8846154 C10.8679245,15.003 10.8896604,15.1158462 10.9018868,15.2307692 L5.43396226,15.2307692 C4.68475472,15.2307692 4.0754717,14.6097692 4.0754717,13.8461538 L4.0754717,11.0769231 C4.0754717,10.6947692 3.77184906,10.3846154 3.39622642,10.3846154 C3.02060377,10.3846154 2.71698113,10.6947692 2.71698113,11.0769231 L2.71698113,13.8461538 C2.71698113,15.3733846 3.93554717,16.6153846 5.43396226,16.6153846 L11.3855094,16.6153846 C11.9343396,17.4496154 12.8669434,18 13.9245283,18 C15.6097358,18 16.9811321,16.6029231 16.9811321,14.8846154 C16.9811321,13.167 15.6097358,11.7692308 13.9245283,11.7692308 L13.9245283,11.7692308 Z M13.9245283,16.6153846 C12.9878491,16.6153846 12.2264151,15.8393077 12.2264151,14.8846154 C12.2264151,13.9306154 12.9878491,13.1538462 13.9245283,13.1538462 C14.8612075,13.1538462 15.6226415,13.9306154 15.6226415,14.8846154 C15.6226415,15.8393077 14.8612075,16.6153846 13.9245283,16.6153846 L13.9245283,16.6153846 Z M6.79245283,6.23076923 L6.79245283,3.46153846 C6.79245283,3.07938462 6.48883019,2.76923077 6.11320755,2.76923077 L5.43396226,2.76923077 L5.43396226,0.692307692 C5.43396226,0.310153846 5.13033962,0 4.75471698,0 C4.37909434,0 4.0754717,0.310153846 4.0754717,0.692307692 L4.0754717,2.76923077 L2.71698113,2.76923077 L2.71698113,0.692307692 C2.71698113,0.310153846 2.41335849,0 2.03773585,0 C1.66211321,0 1.35849057,0.310153846 1.35849057,0.692307692 L1.35849057,2.76923077 L0.679245283,2.76923077 C0.303622642,2.76923077 0,3.07938462 0,3.46153846 L0,6.23076923 C0,8.13946154 1.52354717,9.69230769 3.39622642,9.69230769 C5.26890566,9.69230769 6.79245283,8.13946154 6.79245283,6.23076923 L6.79245283,6.23076923 Z M1.35849057,6.23076923 L1.35849057,4.15384615 L5.43396226,4.15384615 L5.43396226,6.23076923 C5.43396226,7.37584615 4.51969811,8.30769231 3.39622642,8.30769231 C2.27275472,8.30769231 1.35849057,7.37584615 1.35849057,6.23076923 L1.35849057,6.23076923 Z M34.0634717,9.96992308 L28.8876226,8.38730769 L25.5301132,4.96523077 C25.0247547,4.44946154 24.3244528,4.15384615 23.6092075,4.15384615 L13.0700377,4.15384615 C12.3547925,4.15384615 11.6544906,4.44946154 11.1491321,4.96523077 L7.67071698,8.51053846 C7.54301887,8.64069231 7.47169811,8.81653846 7.47169811,9 L7.47169811,13.1538462 C7.47169811,13.536 7.77532075,13.8461538 8.1509434,13.8461538 C8.52656604,13.8461538 8.83018868,13.536 8.83018868,13.1538462 L8.83018868,9.28661538 L12.1095849,5.94415385 C12.3622642,5.68661538 12.7127547,5.53846154 13.0700377,5.53846154 L23.6092075,5.53846154 C23.9664906,5.53846154 24.3169811,5.68661538 24.5696604,5.94415385 L28.0480755,9.48946154 C28.1275472,9.57046154 28.2253585,9.63 28.3333585,9.66323077 L33.6735849,11.2956923 C34.2523019,11.4729231 34.6415094,12.006 34.6415094,12.6221538 L34.6415094,15.2307692 L31.8898868,15.2307692 C31.9027925,15.1158462 31.9245283,15.003 31.9245283,14.8846154 C31.9245283,13.167 30.5531321,11.7692308 28.8679245,11.7692308 C27.182717,11.7692308 25.8113208,13.167 25.8113208,14.8846154 C25.8113208,15.003 25.8330566,15.1158462 25.845283,15.2307692 L19.0188679,15.2307692 C18.6432453,15.2307692 18.3396226,15.5409231 18.3396226,15.9230769 C18.3396226,16.3052308 18.6432453,16.6153846 19.0188679,16.6153846 L26.3289057,16.6153846 C26.8777358,17.4496154 27.8103396,18 28.8679245,18 C29.9255094,18 30.8581132,17.4496154 31.4069434,16.6153846 L35.3207547,16.6153846 C35.6963774,16.6153846 36,16.3052308 36,15.9230769 L36,12.6221538 C36,11.3898462 35.2215849,10.3243846 34.0634717,9.96992308 L34.0634717,9.96992308 Z M28.8679245,16.6153846 C27.9312453,16.6153846 27.1698113,15.8393077 27.1698113,14.8846154 C27.1698113,13.9306154 27.9312453,13.1538462 28.8679245,13.1538462 C29.8046038,13.1538462 30.5660377,13.9306154 30.5660377,14.8846154 C30.5660377,15.8393077 29.8046038,16.6153846 28.8679245,16.6153846 L28.8679245,16.6153846 Z"></path>
                </g>
            </g>
        </g>
    </g>
</svg>