<?xml version="1.0" encoding="UTF-8" standalone="no"?>
<svg width="40px" height="40px" viewBox="0 0 40 40" version="1.1" xmlns="http://www.w3.org/2000/svg" xmlns:xlink="http://www.w3.org/1999/xlink">
    <!-- Generator: Sketch 46.1 (44463) - http://www.bohemiancoding.com/sketch -->
    <title>earth</title>
    <desc>Created with Sketch.</desc>
    <defs>
        <circle id="path-1" cx="16.5" cy="16.5" r="16.5"></circle>
    </defs>
    <g id="Page-1" stroke="none" stroke-width="1" fill="none" fill-rule="evenodd">
        <g id="Artboard-1-Copy-7" transform="translate(-653.000000, -699.000000)">
            <g id="icons" transform="translate(331.000000, 269.000000)">
                <g id="earth" transform="translate(326.000000, 434.000000)">
                    <mask id="mask-2" fill="white">
                        <use xlink:href="#path-1"></use>
                    </mask>
                    <circle stroke="#000000" cx="16.5" cy="16.5" r="16"></circle>
                    <path d="M26.2444187,7.11679086 C29.1504414,7.95735233 38.6631442,12.2143273 42.7555034,20.5840545 C46.8478627,28.9537817 39.5368484,36.5798502 39.5368484,36.5798502 L39.7239766,46 C39.7239766,46 32.8711401,43.3545706 31.7326671,40.2255057 C30.594194,37.0964407 24.2550034,28.2050898 25.6845531,25.5906841 C27.1141028,22.9762783 27.6273515,21.5969059 26.8374551,19.8807458 C26.0475586,18.1645857 25.1830583,14.919679 24.0657299,15.8285883 C22.9484014,16.7374976 21.8706236,18.7217076 20.8807528,19.3352968 C19.8908821,19.948886 18.0736639,18.1699695 16.4876723,16.8932599 C14.9016807,15.6165503 15.9247707,12.6195902 16.4876723,10.7717769 C17.050574,8.92396356 18.0431505,8.74651075 19.9990474,6.52595099 C21.9549444,4.30539123 23.3383961,6.27622939 26.2444187,7.11679086 Z M2.4677467,4.92289148 C4.02993729,4.47605517 11.3210926,3.09091501 12.4452994,4.92289148 C13.5695061,6.75486795 9.46188325,12.1551941 7.29788151,12.7939467 C5.13387977,13.4326992 4.37219977,15.423095 4.08150541,16.5614009 C3.79081105,17.6997068 9.96219953,23.3311795 9.06787592,24.6442808 C8.1735523,25.9573821 6.10652866,25.8151127 4.08150541,23.3002022 C2.05648217,20.7852918 -6.36501147,24.0978363 -5.98771171,22.0562361 C-5.61041196,20.0146359 -2.19323852,8.88199735 -2.19323852,8.88199735 C-2.19323852,8.88199735 0.905556109,5.3697278 2.4677467,4.92289148 Z" id="details" stroke="#000000" stroke-linecap="round" mask="url(#mask-2)"></path>
                </g>
            </g>
        </g>
    </g>
</svg>