<?xml version="1.0" encoding="UTF-8" standalone="no"?>
<svg width="40px" height="40px" viewBox="0 0 40 40" version="1.1" xmlns="http://www.w3.org/2000/svg" xmlns:xlink="http://www.w3.org/1999/xlink">
    <!-- Generator: Sketch 46.1 (44463) - http://www.bohemiancoding.com/sketch -->
    <title>embarrassed</title>
    <desc>Created with Sketch.</desc>
    <defs></defs>
    <g id="Page-1" stroke="none" stroke-width="1" fill="none" fill-rule="evenodd">
        <g id="50-Emoji-Icons" transform="translate(-1740.000000, -569.000000)" fill="#000000">
            <g id="embarrassed" transform="translate(1746.000000, 575.000000)">
                <path d="M26.9988108,8.80268919 C27.1714459,8.36528378 27.2674595,7.88956757 27.2674595,7.39152703 C27.2674595,6.49032432 26.7048108,5.36341892 25.5473514,3.94677027 C24.7513378,2.97244595 23.9655405,2.22514865 23.9326216,2.19383784 L23.411973,1.70033784 L22.8914189,2.19374324 C22.8742027,2.21010811 22.6522838,2.42143243 22.3319865,2.75658108 C20.0022162,1.0255 17.1186892,0 13.9998108,0 C6.28032432,0 0,6.28032432 0,13.9998108 C0,21.7192973 6.28032432,27.9996216 13.9998108,27.9996216 C21.7192973,27.9996216 27.9996216,21.7192973 27.9996216,13.9998108 C27.9996216,12.1642973 27.6438514,10.4104189 26.9988108,8.80268919 L26.9988108,8.80268919 Z M13.9998108,26.4861081 C10.5701892,26.4861081 7.45925676,25.0959459 5.20043243,22.8498919 C4.29837838,21.9529459 3.53263514,20.9192162 2.93640541,19.7831351 C2.0282973,18.0530946 1.51351351,16.0856216 1.51351351,13.9998108 C1.51351351,7.11483784 7.11483784,1.51351351 13.9998108,1.51351351 C16.7329324,1.51351351 19.2632432,2.39693243 21.3216216,3.89218919 C21.3065811,3.91044595 21.2915405,3.92832432 21.2764054,3.94677027 C21.2252297,4.00939189 21.1766081,4.07087838 21.1277973,4.13236486 C20.0717432,5.46208108 19.5562973,6.53014865 19.5562973,7.39152703 C19.5562973,9.51754054 21.2859595,11.2472027 23.411973,11.2472027 C24.2168784,11.2472027 24.9645541,10.9988919 25.5834865,10.5753919 C25.7038108,10.493 25.8189324,10.4035135 25.9290405,10.3083514 C26.2908649,11.4755541 26.4861081,12.7153108 26.4861081,13.9998108 C26.4861081,20.8847838 20.8847838,26.4861081 13.9998108,26.4861081 L13.9998108,26.4861081 Z M26.1077333,7.24719121 C26.1077333,8.53859661 24.9000959,9.58935337 23.4156132,9.58935337 C21.9311304,9.58935337 20.7232756,8.53869121 20.7232756,7.24719121 C20.7232756,6.42677229 22.147844,4.81856959 23.4159394,3.66706959 C24.6837085,4.81743445 26.1077333,6.4247858 26.1077333,7.24719121 L26.1077333,7.24719121 Z" id="Shape"></path>
                <path d="M10.6898514,15.0972973 L12.2033649,15.0972973 C12.2033649,11.907121 10.8625811,9.4972973 9.21445946,9.4972973 C7.56633784,9.4972973 6.22555405,11.907121 6.22555405,15.0972973 L7.73906757,15.0972973 C7.73906757,13.5022092 8.40104054,11.3330095 9.21445946,11.3330095 C10.027973,11.3330095 10.6898514,13.5022092 10.6898514,15.0972973 Z" id="Shape"></path>
                <path d="M20.2603649,15.0972973 L21.7738784,15.0972973 C21.7738784,11.907121 20.4330946,9.4972973 18.784973,9.4972973 C17.1368514,9.4972973 15.7960676,11.907121 15.7960676,15.0972973 L17.3095811,15.0972973 C17.3095811,13.5022092 17.9714595,11.3330095 18.784973,11.3330095 C19.5984865,11.3330095 20.2603649,13.5022092 20.2603649,15.0972973 Z" id="Shape"></path>
                <path d="M21.7831486,15.6078243 L6.21628378,15.6078243 C6.21628378,19.9064865 9.70105405,23.3913514 13.9998108,23.3913514 C18.298473,23.3913514 21.7831486,19.9065811 21.7831486,15.6078243 L21.7831486,15.6078243 Z M20.0537703,17.1213378 L20.0693784,17.1213378 C19.3905676,19.8500135 16.9276081,21.8778378 13.9920541,21.8778378 C11.0563108,21.8778378 8.59325676,19.8499189 7.91444595,17.1213378 L20.0537703,17.1213378 L20.0537703,17.1213378 Z" id="Shape"></path>
            </g>
        </g>
    </g>
</svg>