<?xml version="1.0" encoding="UTF-8" standalone="no"?>
<svg width="40px" height="40px" viewBox="0 0 40 40" version="1.1" xmlns="http://www.w3.org/2000/svg" xmlns:xlink="http://www.w3.org/1999/xlink">
    <!-- Generator: Sketch 46.1 (44463) - http://www.bohemiancoding.com/sketch -->
    <title>embarrassed01</title>
    <desc>Created with Sketch.</desc>
    <defs></defs>
    <g id="Page-1" stroke="none" stroke-width="1" fill="none" fill-rule="evenodd">
        <g id="50-Emoji-Icons" transform="translate(-1385.000000, -259.000000)" fill="#000000">
            <g id="embarrassed01" transform="translate(1391.000000, 265.000000)">
                <path d="M9.25475168,13.8241074 C9.6672349,13.8241074 10.0406309,13.6577047 10.3122685,13.388698 C10.5874765,13.1163087 10.7581074,12.7384966 10.7581074,12.3207517 C10.7581074,11.4905235 10.0849799,10.817396 9.25475168,10.817396 C8.42452349,10.817396 7.75139597,11.4905235 7.75139597,12.3207517 C7.75139597,12.516094 7.7898255,12.7021342 7.85766443,12.8734228 C8.07809396,13.4299463 8.61986577,13.8241074 9.25475168,13.8241074 L9.25475168,13.8241074 Z" id="Shape"></path>
                <path d="M19.9538523,12.8734228 C20.0216913,12.7022282 20.0601208,12.516094 20.0601208,12.3207517 C20.0601208,11.4905235 19.3869933,10.817396 18.5567651,10.817396 C17.7265369,10.817396 17.0534094,11.4905235 17.0534094,12.3207517 C17.0534094,12.7384966 17.2240403,13.1163087 17.4992483,13.3887919 C17.7708859,13.6577047 18.1442819,13.8241074 18.5567651,13.8241074 C19.191651,13.8241074 19.7334228,13.4299463 19.9538523,12.8734228 L19.9538523,12.8734228 Z" id="Shape"></path>
                <rect id="Rectangle-path" x="10.7737987" y="19.3676376" width="6.20134228" height="1.5033557"></rect>
                <path d="M27.8361342,7.16621477 C27.8361342,6.2710604 27.2772617,5.15181208 26.1275705,3.74457718 C25.3368993,2.77679195 24.5563758,2.03451007 24.5236779,2.0034094 L24.0065235,1.51322148 L23.4894631,2.00331544 C23.4655973,2.02586577 23.0480403,2.4234094 22.5191409,3.00868456 C20.1489128,1.13334228 17.1559195,0.0122147651 13.9058523,0.0122147651 C6.2381745,0.0122147651 0,6.2502953 0,13.9180671 C0,21.585745 6.2381745,27.8239195 13.9058523,27.8239195 C21.5735302,27.8239195 27.8117047,21.585745 27.8117047,13.9180671 C27.8117047,12.3570201 27.5530336,10.8550738 27.0764698,9.45310067 C27.5534094,8.81455034 27.8361342,8.02275168 27.8361342,7.16621477 L27.8361342,7.16621477 Z M26.308349,13.9180671 C26.308349,20.7568322 20.7446174,26.3205638 13.9058523,26.3205638 C10.4992483,26.3205638 7.40919463,24.9397315 5.1655302,22.7087517 C4.2695302,21.8178255 3.50892617,20.7910336 2.91669799,19.6625772 C2.01468456,17.9441477 1.5033557,15.9898792 1.5033557,13.9180671 C1.5033557,7.07930201 7.06708725,1.51557047 13.9058523,1.51557047 C16.7898523,1.51557047 19.4471275,2.5050604 21.5559597,4.16232215 C21.513302,4.21832215 21.471396,4.27385235 21.4307114,4.32872483 C20.5889262,5.4658255 20.1767248,6.39865772 20.1767248,7.16612081 C20.1767248,9.27786577 21.8947785,10.9959195 24.0065235,10.9959195 C24.5089262,10.9959195 24.9884966,10.8976376 25.4285101,10.7210872 C25.5690738,10.6645235 25.7058792,10.6009128 25.8376107,10.5287517 C26.1442013,11.6064698 26.308349,12.7434765 26.308349,13.9180671 L26.308349,13.9180671 Z M24.0065235,9.49256376 C22.7237852,9.49256376 21.6800805,8.44895302 21.6800805,7.16612081 C21.6800805,6.35120805 22.911047,4.75379866 24.0068054,3.61002685 C25.1022819,4.75267114 26.3327785,6.3492349 26.3327785,7.16612081 C26.3327785,8.44895302 25.2891678,9.49256376 24.0065235,9.49256376 L24.0065235,9.49256376 Z" id="Shape"></path>
            </g>
        </g>
    </g>
</svg>