<?xml version="1.0" encoding="UTF-8" standalone="no"?>
<svg width="40px" height="40px" viewBox="0 0 40 40" version="1.1" xmlns="http://www.w3.org/2000/svg" xmlns:xlink="http://www.w3.org/1999/xlink">
    <!-- Generator: Sketch 46.1 (44463) - http://www.bohemiancoding.com/sketch -->
    <title>engine</title>
    <desc>Created with Sketch.</desc>
    <defs></defs>
    <g id="Icons" stroke="none" stroke-width="1" fill="none" fill-rule="evenodd">
        <g id="Automotive" transform="translate(-179.000000, -389.000000)" fill="#231F20">
            <g id="Engine" transform="translate(184.000000, 399.000000)">
                <g>
                    <path d="M18.3810638,10.8211765 C18.5355319,11.0094118 18.5534043,11.2641176 18.426383,11.4682353 L15.8731915,15.5858824 C15.7557447,15.7764706 15.5406383,15.8823529 15.3185106,15.8823529 C15.2112766,15.8823529 15.1021277,15.8576471 15.0025532,15.8047059 C14.6961702,15.6435294 14.5895745,15.2847059 14.7651064,15.0023529 L16.5759574,12.0817647 L12.9204255,12.9235294 C12.6734043,12.9805882 12.4110638,12.8964706 12.257234,12.7082353 C12.102766,12.5205882 12.0848936,12.2658824 12.2119149,12.0611765 L14.7651064,7.94352941 C14.9393617,7.66176471 15.3293617,7.56352941 15.6357447,7.72470588 C15.9414894,7.88588235 16.0480851,8.24529412 15.8731915,8.52705882 L14.0623404,11.4482353 L17.7178723,10.6058824 C17.9629787,10.5488235 18.2265957,10.6335294 18.3810638,10.8211765 L18.3810638,10.8211765 Z M28.6519149,19.68 C28.5414894,19.8717647 28.3251064,19.9923529 28.0895745,19.9929412 L25.5338298,20 L25.5319149,20 C25.362766,20 25.2006383,19.9382353 25.0812766,19.8282353 C24.9606383,19.7182353 24.893617,19.5682353 24.893617,19.4117647 L24.893617,17.0588235 L23.6170213,17.0588235 L23.6170213,19.4117647 C23.6170213,19.7364706 23.3317021,20 22.9787234,20 L12.1276596,20 C11.9578723,20 11.7957447,19.9382353 11.676383,19.8276471 L5.29340426,13.9452941 C5.17340426,13.8352941 5.10638298,13.6852941 5.10638298,13.5294118 L5.10638298,11.1764706 L3.82978723,11.1764706 L3.82978723,13.5294118 C3.82978723,13.8541176 3.54446809,14.1176471 3.19148936,14.1176471 L0.638297872,14.1176471 C0.285319149,14.1176471 0,13.8541176 0,13.5294118 L0,5.29411765 C0,4.96941176 0.285319149,4.70588235 0.638297872,4.70588235 L3.19148936,4.70588235 C3.54446809,4.70588235 3.82978723,4.96941176 3.82978723,5.29411765 L3.82978723,7.64705882 L5.10638298,7.64705882 L5.10638298,5.29411765 C5.10638298,4.96941176 5.39170213,4.70588235 5.74468085,4.70588235 L10.8510638,4.70588235 L10.8510638,3.52941176 L8.29787234,3.52941176 C7.94489362,3.52941176 7.65957447,3.26588235 7.65957447,2.94117647 L7.65957447,0.588235294 C7.65957447,0.263529412 7.94489362,0 8.29787234,0 L17.2340426,0 C17.5870213,0 17.8723404,0.263529412 17.8723404,0.588235294 L17.8723404,2.94117647 C17.8723404,3.26588235 17.5870213,3.52941176 17.2340426,3.52941176 L14.6808511,3.52941176 L14.6808511,4.70588235 L19.1489362,4.70588235 C19.3187234,4.70588235 19.4802128,4.76823529 19.6002128,4.87823529 L23.43,8.40764706 C23.5493617,8.51823529 23.6170213,8.66764706 23.6170213,8.82352941 L23.6170213,11.1764706 L24.893617,11.1764706 L24.893617,8.82352941 C24.893617,8.66764706 24.9606383,8.51823529 25.0806383,8.40764706 C25.2,8.29764706 25.3621277,8.23529412 25.5319149,8.23529412 L28.0876596,8.23588235 C28.3244681,8.23588235 28.5414894,8.35647059 28.6519149,8.54941176 C30.4417021,11.67 30.4417021,16.5594118 28.6519149,19.68 L28.6519149,19.68 Z M27.6925532,9.41235294 L26.1702128,9.41235294 L26.1702128,11.7647059 C26.1702128,12.0894118 25.8848936,12.3529412 25.5319149,12.3529412 L22.9787234,12.3529412 C22.6257447,12.3529412 22.3404255,12.0894118 22.3404255,11.7647059 L22.3404255,9.06705882 L18.8846809,5.88235294 L14.0425532,5.88235294 C13.6895745,5.88235294 13.4042553,5.61882353 13.4042553,5.29411765 L13.4042553,2.94117647 C13.4042553,2.61647059 13.6895745,2.35294118 14.0425532,2.35294118 L16.5957447,2.35294118 L16.5957447,1.17647059 L8.93617021,1.17647059 L8.93617021,2.35294118 L11.4893617,2.35294118 C11.8423404,2.35294118 12.1276596,2.61647059 12.1276596,2.94117647 L12.1276596,5.29411765 C12.1276596,5.61882353 11.8423404,5.88235294 11.4893617,5.88235294 L6.38297872,5.88235294 L6.38297872,8.23529412 C6.38297872,8.56 6.09765957,8.82352941 5.74468085,8.82352941 L3.19148936,8.82352941 C2.83851064,8.82352941 2.55319149,8.56 2.55319149,8.23529412 L2.55319149,5.88235294 L1.27659574,5.88235294 L1.27659574,12.9411765 L2.55319149,12.9411765 L2.55319149,10.5882353 C2.55319149,10.2635294 2.83851064,10 3.19148936,10 L5.74468085,10 C6.09765957,10 6.38297872,10.2635294 6.38297872,10.5882353 L6.38297872,13.2858824 L12.3919149,18.8235294 L22.3404255,18.8235294 L22.3404255,16.4705882 C22.3404255,16.1458824 22.6257447,15.8823529 22.9787234,15.8823529 L25.5319149,15.8823529 C25.8848936,15.8823529 26.1702128,16.1458824 26.1702128,16.4705882 L26.1702128,18.8217647 L27.6919149,18.8176471 C29.0534043,16.1423529 29.0534043,12.0882353 27.6925532,9.41235294 L27.6925532,9.41235294 Z"></path>
                </g>
            </g>
        </g>
    </g>
</svg>