<?xml version="1.0" encoding="UTF-8" standalone="no"?>
<svg width="40px" height="40px" viewBox="0 0 40 40" version="1.1" xmlns="http://www.w3.org/2000/svg" xmlns:xlink="http://www.w3.org/1999/xlink">
    <!-- Generator: Sketch 46.1 (44463) - http://www.bohemiancoding.com/sketch -->
    <title>evil</title>
    <desc>Created with Sketch.</desc>
    <defs></defs>
    <g id="Page-1" stroke="none" stroke-width="1" fill="none" fill-rule="evenodd">
        <g id="50-Emoji-Icons" transform="translate(-320.000000, -569.000000)" fill="#000000">
            <g id="evil" transform="translate(326.000000, 575.000000)">
                <path d="M13.9998108,0 C6.28032432,0 0,6.28032432 0,13.9998108 C0,21.7192973 6.28032432,27.9996216 13.9998108,27.9996216 C21.7192973,27.9996216 27.9996216,21.7192973 27.9996216,13.9998108 C27.9996216,6.28032432 21.7192973,0 13.9998108,0 L13.9998108,0 Z M13.9998108,26.4861081 C10.5700946,26.4861081 7.45925676,25.0959459 5.20043243,22.8498919 C4.29837838,21.9529459 3.53263514,20.9192162 2.93640541,19.7831351 C2.0282973,18.0530946 1.51351351,16.0856216 1.51351351,13.9998108 C1.51351351,7.11483784 7.11483784,1.51351351 13.9998108,1.51351351 C17.2655,1.51351351 20.2418243,2.77427027 22.4691486,4.83397297 C23.6239595,5.90175676 24.5775676,7.18408108 25.2651757,8.61747297 C26.047473,10.2480946 26.4861081,12.0736757 26.4861081,13.9998108 C26.4861081,20.8847838 20.8847838,26.4861081 13.9998108,26.4861081 L13.9998108,26.4861081 Z" id="Shape"></path>
                <path d="M22.5129459,15.9997162 L5.48648649,15.9997162 C5.48648649,20.7014459 9.29798649,24.5130405 13.9998108,24.5130405 C18.7014459,24.5130405 22.5129459,20.7014459 22.5129459,15.9997162 L22.5129459,15.9997162 Z M20.810527,17.5132297 L20.8226351,17.5132297 C20.1290676,20.648 17.3339865,22.999527 13.9938514,22.999527 C10.653527,22.999527 7.85835135,20.648 7.16487838,17.5132297 L20.810527,17.5132297 L20.810527,17.5132297 Z" id="Shape"></path>
                <circle id="Oval" cx="9.30377027" cy="12.6214324" r="1.5"></circle>
                <circle id="Oval" cx="18.6686351" cy="12.6214324" r="1.5"></circle>
                <rect id="Rectangle-path" transform="translate(9.809926, 6.855820) rotate(215.866038) translate(-9.809926, -6.855820) " x="7.00992561" y="5.45405938" width="5.6" height="2.80352054"></rect>
                <rect id="Rectangle-path" transform="translate(17.747306, 6.934509) rotate(234.133962) translate(-17.747306, -6.934509) " x="16.2786651" y="4.13450907" width="2.93728184" height="5.6"></rect>
            </g>
        </g>
    </g>
</svg>