<?xml version="1.0" encoding="UTF-8" standalone="no"?>
<svg width="40px" height="40px" viewBox="0 0 40 40" version="1.1" xmlns="http://www.w3.org/2000/svg" xmlns:xlink="http://www.w3.org/1999/xlink">
    <!-- Generator: Sketch 46.1 (44463) - http://www.bohemiancoding.com/sketch -->
    <title>firetruck</title>
    <desc>Created with Sketch.</desc>
    <defs></defs>
    <g id="Icons" stroke="none" stroke-width="1" fill="none" fill-rule="evenodd">
        <g id="Automotive" transform="translate(-352.000000, -389.000000)" fill="#231F20">
            <g id="Fire-Truck" transform="translate(355.000000, 397.000000)">
                <g>
                    <path d="M33.9313061,11.3698286 C33.9285306,11.3636571 33.9299184,11.3568 33.926449,11.3506286 L30.4570612,4.49348571 C30.3397959,4.26102857 30.0997143,4.11428571 29.8367347,4.11428571 L24.2857143,4.11428571 L24.2857143,2.85394286 L24.786,1.37142857 L26.5609388,1.37142857 L27.0966122,2.96022857 C27.2173469,3.31954286 27.6093878,3.51428571 27.9743673,3.3936 C28.3379592,3.2736 28.5343265,2.88548571 28.4135918,2.52617143 L27.7197143,0.469028571 C27.6246531,0.189257143 27.3602857,0 27.0612245,0 L24.2857143,0 C23.9866531,0 23.7215918,0.189257143 23.6272245,0.469028571 L22.9333469,2.52617143 C22.9097551,2.59611429 22.8979592,2.66948571 22.8979592,2.74285714 L22.8979592,4.11428571 L19.4285714,4.11428571 L19.4285714,1.37142857 L20.122449,1.37142857 C20.5054694,1.37142857 20.8163265,1.06422857 20.8163265,0.685714286 C20.8163265,0.3072 20.5054694,0 20.122449,0 L0.693877551,0 C0.310857143,0 0,0.3072 0,0.685714286 C0,1.06422857 0.310857143,1.37142857 0.693877551,1.37142857 L1.3877551,1.37142857 L1.3877551,4.11428571 L0.693877551,4.11428571 C0.310857143,4.11428571 0,4.42148571 0,4.8 L0,19.2 C0,19.5785143 0.310857143,19.8857143 0.693877551,19.8857143 C1.07689796,19.8857143 1.3877551,19.5785143 1.3877551,19.2 L1.3877551,5.48571429 L19.4285714,5.48571429 L19.4285714,16.4571429 C19.4285714,16.8356571 19.7394286,17.1428571 20.122449,17.1428571 C20.5054694,17.1428571 20.8163265,16.8356571 20.8163265,16.4571429 L20.8163265,12.3428571 L24.2857143,12.3428571 C24.6687347,12.3428571 24.9795918,12.0356571 24.9795918,11.6571429 C24.9795918,11.2786286 24.6687347,10.9714286 24.2857143,10.9714286 L20.8163265,10.9714286 L20.8163265,5.48571429 L29.4079184,5.48571429 L32.1834286,10.9714286 L27.755102,10.9714286 L27.755102,7.54285714 C27.755102,7.16434286 27.4442449,6.85714286 27.0612245,6.85714286 C26.6782041,6.85714286 26.3673469,7.16434286 26.3673469,7.54285714 L26.3673469,11.6571429 C26.3673469,12.0356571 26.6782041,12.3428571 27.0612245,12.3428571 L32.6122449,12.3428571 L32.6122449,20.5714286 L31.7920816,20.5714286 C31.8718776,20.2409143 31.9183673,19.8973714 31.9183673,19.5428571 C31.9183673,17.0852571 29.8950204,15.0857143 27.4081633,15.0857143 C24.9213061,15.0857143 22.8979592,17.0852571 22.8979592,19.5428571 C22.8979592,19.8973714 22.944449,20.2409143 23.0242449,20.5714286 L20.8163265,20.5714286 L20.8163265,19.2 C20.8163265,18.8214857 20.5054694,18.5142857 20.122449,18.5142857 L12.4897959,18.5142857 C12.1067755,18.5142857 11.7959184,18.8214857 11.7959184,19.2 C11.7959184,19.5785143 12.1067755,19.8857143 12.4897959,19.8857143 L19.4285714,19.8857143 L19.4285714,21.2571429 C19.4285714,21.6356571 19.7394286,21.9428571 20.122449,21.9428571 L23.6140408,21.9428571 C24.4161633,23.1778286 25.8157143,24 27.4081633,24 C29.0006122,24 30.3994694,23.1778286 31.2022857,21.9428571 L33.3061224,21.9428571 C33.6891429,21.9428571 34,21.6356571 34,21.2571429 L34,11.6571429 C34,11.5536 33.9729388,11.4576 33.9313061,11.3698286 L33.9313061,11.3698286 Z M2.7755102,1.37142857 L4.16326531,1.37142857 L4.16326531,4.11428571 L2.7755102,4.11428571 L2.7755102,1.37142857 Z M5.55102041,1.37142857 L6.93877551,1.37142857 L6.93877551,4.11428571 L5.55102041,4.11428571 L5.55102041,1.37142857 Z M8.32653061,1.37142857 L9.71428571,1.37142857 L9.71428571,4.11428571 L8.32653061,4.11428571 L8.32653061,1.37142857 Z M11.1020408,1.37142857 L12.4897959,1.37142857 L12.4897959,4.11428571 L11.1020408,4.11428571 L11.1020408,1.37142857 Z M13.877551,1.37142857 L15.2653061,1.37142857 L15.2653061,4.11428571 L13.877551,4.11428571 L13.877551,1.37142857 Z M16.6530612,1.37142857 L18.0408163,1.37142857 L18.0408163,4.11428571 L16.6530612,4.11428571 L16.6530612,1.37142857 Z M27.4081633,22.6285714 C25.6866531,22.6285714 24.2857143,21.2448 24.2857143,19.5428571 C24.2857143,17.8416 25.6866531,16.4571429 27.4081633,16.4571429 C29.1296735,16.4571429 30.5306122,17.8416 30.5306122,19.5428571 C30.5306122,21.2448 29.1296735,22.6285714 27.4081633,22.6285714 L27.4081633,22.6285714 Z M7.63265306,19.5428571 C7.63265306,20.1113143 7.16636735,20.5714286 6.59183673,20.5714286 C6.01730612,20.5714286 5.55102041,20.1113143 5.55102041,19.5428571 C5.55102041,18.9750857 6.01730612,18.5142857 6.59183673,18.5142857 C7.16636735,18.5142857 7.63265306,18.9750857 7.63265306,19.5428571 L7.63265306,19.5428571 Z M6.59183673,15.0857143 C4.10497959,15.0857143 2.08163265,17.0852571 2.08163265,19.5428571 C2.08163265,22.0004571 4.10497959,24 6.59183673,24 C9.07869388,24 11.1020408,22.0004571 11.1020408,19.5428571 C11.1020408,17.0852571 9.07869388,15.0857143 6.59183673,15.0857143 L6.59183673,15.0857143 Z M6.59183673,22.6285714 C4.87032653,22.6285714 3.46938776,21.2448 3.46938776,19.5428571 C3.46938776,17.8416 4.87032653,16.4571429 6.59183673,16.4571429 C8.31334694,16.4571429 9.71428571,17.8416 9.71428571,19.5428571 C9.71428571,21.2448 8.31334694,22.6285714 6.59183673,22.6285714 L6.59183673,22.6285714 Z M28.4489796,19.5428571 C28.4489796,20.1113143 27.9826939,20.5714286 27.4081633,20.5714286 C26.8336327,20.5714286 26.3673469,20.1113143 26.3673469,19.5428571 C26.3673469,18.9750857 26.8336327,18.5142857 27.4081633,18.5142857 C27.9826939,18.5142857 28.4489796,18.9750857 28.4489796,19.5428571 L28.4489796,19.5428571 Z"></path>
                </g>
            </g>
        </g>
    </g>
</svg>