<?xml version="1.0" encoding="UTF-8" standalone="no"?>
<svg width="40px" height="40px" viewBox="0 0 40 40" version="1.1" xmlns="http://www.w3.org/2000/svg" xmlns:xlink="http://www.w3.org/1999/xlink">
    <!-- Generator: Sketch 46.1 (44463) - http://www.bohemiancoding.com/sketch -->
    <title>flag</title>
    <desc>Created with Sketch.</desc>
    <defs></defs>
    <g id="Page-1" stroke="none" stroke-width="1" fill="none" fill-rule="evenodd">
        <g id="30-Universe-Element-Icons" transform="translate(-945.000000, -374.000000)" fill="#000000">
            <g id="flag" transform="translate(945.000000, 374.000000)">
                <g transform="translate(6.000000, 4.000000)" id="Shape">
                    <path d="M27.0541805,31.999941 L23.0227407,31.999941 C22.4998509,31.999941 22.0757536,31.6019745 22.0757536,31.111039 C22.0757536,30.6201034 22.499788,30.222137 23.0227407,30.222137 L27.0541805,30.222137 C27.0753099,30.222137 27.0880127,30.222137 27.1010299,30.1924459 C27.1137327,30.1634632 27.105369,30.1557305 27.0903394,30.1416819 C24.1457433,27.4091597 19.4390431,25.777686 14.4999194,25.777686 C9.56079566,25.777686 4.85415828,27.4091597 1.90949929,30.1417409 C1.89446974,30.1557895 1.88610602,30.1635222 1.89880882,30.1925049 C1.91176315,30.222196 1.92459172,30.222196 1.94565824,30.222196 L16.3938308,30.222196 C16.9167206,30.222196 17.3408179,30.6201625 17.3408179,31.111098 C17.3408179,31.6020335 16.9167835,32 16.3938308,32 L1.94572112,32 C1.15406025,32 0.447986035,31.5557556 0.147017813,30.868198 C-0.153824637,30.1811125 0.0153992412,29.3996414 0.578095364,28.8775391 C3.91817604,25.777804 8.99256565,24 14.4999822,24 C20.0073988,24 25.0817885,25.777804 28.421932,28.8775982 C28.9845024,29.3997595 29.153852,30.1811716 28.8530096,30.868257 C28.5520413,31.5556966 27.8459671,31.999941 27.0541805,31.999941 L27.0541805,31.999941 Z"></path>
                    <path d="M6.00014609,27 C5.80982548,27 5.62036816,26.9497248 5.45581321,26.8510181 C5.17159402,26.6803404 5,26.388154 5,26.0745177 L5,6.31382876 C5,5.03795628 6.1214705,4 7.5,4 C8.8785295,4 10,5.03795628 10,6.31382876 L10,25.088619 C10,25.5064935 9.69751906,25.8725563 9.26169416,25.9818342 C8.2733684,26.2298915 7.31319893,26.5453717 6.40768189,26.9196088 C6.27745903,26.9733873 6.13860334,27 6.00014609,27 L6.00014609,27 Z M7.50006641,5.8510876 C7.22434723,5.8510876 7.00009297,6.05870344 7.00009297,6.31382876 L7.00009297,24.7036877 C7.32920286,24.5932419 7.66289479,24.4896799 8.00010625,24.3933702 L8.00010625,6.31382876 C8.00010625,6.05870344 7.77578559,5.8510876 7.50006641,5.8510876 L7.50006641,5.8510876 Z"></path>
                    <path d="M13.5166194,13 L7.03450235,13 C5.9126857,13 5,12.1044094 5,11.0036049 L5,2.92497533 C5,1.82417087 5.9126857,0.928580238 7.03450235,0.928580238 L9.81246274,0.928580238 C10.0077061,0.388167381 10.5339897,0 11.1508883,0 L21.3868683,0 C21.9610986,0 22.4789617,0.289260236 22.7721723,0.773806587 C23.065383,1.25835294 23.0761286,1.84297803 22.8012043,2.33763708 L20.7454621,6.03574071 L22.8012043,9.73378268 C23.0761286,10.2285034 23.0653201,10.8130668 22.7721723,11.2976132 C22.4790245,11.7821595 21.9610986,12.0714814 21.3868683,12.0714814 L14.8550449,12.0714814 C14.6597387,12.6118326 14.1334552,13 13.5166194,13 L13.5166194,13 Z M7.03450235,2.78567905 C6.95626676,2.78567905 6.89254717,2.84814348 6.89254717,2.92497533 L6.89254717,11.0035432 C6.89254717,11.0803134 6.95620392,11.1428395 7.03450235,11.1428395 L13.124436,11.1428395 C13.3196794,10.6024267 13.8459629,10.2142593 14.4628615,10.2142593 L20.912239,10.2142593 L19.010203,6.79265169 C18.746967,6.31852635 18.746967,5.75283175 19.0100145,5.27907639 L20.912239,1.85709881 L11.5428831,1.85709881 C11.3476398,2.39751167 10.8213562,2.78567905 10.2044576,2.78567905 L7.03450235,2.78567905 L7.03450235,2.78567905 Z"></path>
                </g>
            </g>
        </g>
    </g>
</svg>