<?xml version="1.0" encoding="UTF-8" standalone="no"?>
<svg width="40px" height="40px" viewBox="0 0 40 40" version="1.1" xmlns="http://www.w3.org/2000/svg" xmlns:xlink="http://www.w3.org/1999/xlink">
    <!-- Generator: Sketch 46.1 (44463) - http://www.bohemiancoding.com/sketch -->
    <title>flattire</title>
    <desc>Created with Sketch.</desc>
    <defs></defs>
    <g id="Icons" stroke="none" stroke-width="1" fill="none" fill-rule="evenodd">
        <g id="Automotive" transform="translate(-524.000000, -389.000000)" fill="#231F20">
            <g id="Flat-Tire" transform="translate(527.000000, 394.000000)">
                <g>
                    <path d="M17,5.71052632 C10.7504762,5.71052632 5.66666667,10.8336842 5.66666667,17.1315789 C5.66666667,23.4294737 10.7504762,28.5526316 17,28.5526316 C23.2495238,28.5526316 28.3333333,23.4294737 28.3333333,17.1315789 C28.3333333,10.8336842 23.2495238,5.71052632 17,5.71052632 L17,5.71052632 Z M24.4111905,23.4466053 L23.2640952,22.2914474 C24.2468571,21.0824474 24.8920476,19.5854737 25.0539524,17.9473684 L26.673,17.9473684 C26.501381,20.0341579 25.6805238,21.9349474 24.4111905,23.4466053 L24.4111905,23.4466053 Z M7.327,17.9473684 L8.94604762,17.9473684 C9.10795238,19.5854737 9.75314286,21.0824474 10.7359048,22.2914474 L9.58880952,23.4466053 C8.31947619,21.9349474 7.49861905,20.0341579 7.327,17.9473684 L7.327,17.9473684 Z M9.58880952,10.8173684 L10.7359048,11.9725263 C9.75314286,13.1815263 9.10795238,14.6776842 8.94604762,16.3157895 L7.327,16.3157895 C7.49861905,14.2298158 8.31947619,12.3282105 9.58880952,10.8173684 L9.58880952,10.8173684 Z M17,23.6578947 C13.4291905,23.6578947 10.5238095,20.7300263 10.5238095,17.1315789 C10.5238095,13.5331316 13.4291905,10.6052632 17,10.6052632 C20.5708095,10.6052632 23.4761905,13.5331316 23.4761905,17.1315789 C23.4761905,20.7300263 20.5708095,23.6578947 17,23.6578947 L17,23.6578947 Z M22.1194286,10.819 C20.9197143,9.82944737 19.4350476,9.17844737 17.8095238,9.01528947 L17.8095238,7.38371053 C19.8802857,7.55665789 21.7664762,8.38386842 23.2657143,9.66384211 L22.1194286,10.819 L22.1194286,10.819 Z M16.1904762,9.01528947 C14.5649524,9.17844737 13.0794762,9.82944737 11.8805714,10.819 L10.7334762,9.66384211 C12.2335238,8.38386842 14.1197143,7.55665789 16.1904762,7.38371053 L16.1904762,9.01528947 L16.1904762,9.01528947 Z M11.8805714,23.4441579 C13.0794762,24.4345263 14.5649524,25.0847105 16.1904762,25.2486842 L16.1904762,26.8802632 C14.1197143,26.7065 12.2335238,25.8792895 10.7334762,24.6001316 L11.8805714,23.4441579 L11.8805714,23.4441579 Z M17.8095238,25.2486842 C19.4350476,25.0847105 20.9197143,24.4345263 22.1194286,23.4441579 L23.2657143,24.6001316 C21.7664762,25.8792895 19.8802857,26.7065 17.8095238,26.8802632 L17.8095238,25.2486842 L17.8095238,25.2486842 Z M25.0539524,16.3157895 C24.8920476,14.6776842 24.2468571,13.1815263 23.2640952,11.9725263 L24.4111905,10.8173684 C25.6805238,12.3282105 26.501381,14.2298158 26.673,16.3157895 L25.0539524,16.3157895 L25.0539524,16.3157895 Z M17,0 C7.62571429,0 0,7.68555263 0,17.1315789 C0,20.9698684 1.2377619,24.5993158 3.58052381,27.6258947 C5.21495238,29.7387895 7.81838095,31 10.5448571,31 L23.4551429,31 C26.181619,31 28.7850476,29.7387895 30.4202857,27.6258947 C32.7622381,24.5985 34,20.9698684 34,17.1315789 C34,7.68555263 26.3734762,0 17,0 L17,0 Z M29.1428571,26.6224737 C27.8128095,28.3421579 25.6861905,29.3684211 23.4551429,29.3684211 L10.5448571,29.3684211 C8.31380952,29.3684211 6.18719048,28.3421579 4.85714286,26.6224737 C2.73861905,23.8855 1.61904762,20.6035789 1.61904762,17.1315789 C1.61904762,8.58536842 8.51861905,1.63157895 17,1.63157895 C25.4805714,1.63157895 32.3809524,8.58536842 32.3809524,17.1315789 C32.3809524,20.6027632 31.261381,23.8846842 29.1428571,26.6224737 L29.1428571,26.6224737 Z"></path>
                </g>
            </g>
        </g>
    </g>
</svg>