<?xml version="1.0" encoding="UTF-8" standalone="no"?>
<svg width="40px" height="40px" viewBox="0 0 40 40" version="1.1" xmlns="http://www.w3.org/2000/svg" xmlns:xlink="http://www.w3.org/1999/xlink">
    <!-- Generator: Sketch 46.1 (44463) - http://www.bohemiancoding.com/sketch -->
    <title>forklifts</title>
    <desc>Created with Sketch.</desc>
    <defs></defs>
    <g id="Icons" stroke="none" stroke-width="1" fill="none" fill-rule="evenodd">
        <g id="Automotive" transform="translate(-697.000000, -389.000000)" fill="#231F20">
            <g id="Forklifts" transform="translate(700.000000, 395.000000)">
                <g>
                    <path d="M2.64150943,17.3333333 L9.24528302,17.3333333 C9.60981132,17.3333333 9.90566038,17.0346667 9.90566038,16.6666667 L9.90566038,10 C9.90566038,9.632 9.60981132,9.33333333 9.24528302,9.33333333 L2.64150943,9.33333333 C2.27698113,9.33333333 1.98113208,9.632 1.98113208,10 L1.98113208,16.6666667 C1.98113208,17.0346667 2.27698113,17.3333333 2.64150943,17.3333333 L2.64150943,17.3333333 Z M6.60377358,10.6666667 L8.58490566,10.6666667 L8.58490566,12.6666667 L6.60377358,12.6666667 L6.60377358,10.6666667 Z M6.60377358,14 L8.58490566,14 L8.58490566,16 L6.60377358,16 L6.60377358,14 Z M3.30188679,10.6666667 L5.28301887,10.6666667 L5.28301887,12.6666667 L3.30188679,12.6666667 L3.30188679,10.6666667 Z M3.30188679,14 L5.28301887,14 L5.28301887,16 L3.30188679,16 L3.30188679,14 Z M12.5471698,1.33333333 L12.5471698,16.6666667 C12.5471698,18.5046667 11.0659434,20 9.24528302,20 L0.660377358,20 C0.295849057,20 0,19.7013333 0,19.3333333 C0,18.9653333 0.295849057,18.6666667 0.660377358,18.6666667 L9.24528302,18.6666667 C10.3375472,18.6666667 11.2264151,17.7693333 11.2264151,16.6666667 L11.2264151,1.33333333 C11.2264151,0.965333333 11.5222642,0.666666667 11.8867925,0.666666667 C12.2513208,0.666666667 12.5471698,0.965333333 12.5471698,1.33333333 L12.5471698,1.33333333 Z M19.6178302,11.5286667 L21.5989623,13.5286667 C21.8571698,13.7893333 21.8571698,14.2113333 21.5989623,14.4713333 C21.4701887,14.602 21.3011321,14.6666667 21.1320755,14.6666667 C20.9630189,14.6666667 20.7939623,14.602 20.6651887,14.4713333 L20.1415094,13.9426667 L18.2970755,15.8046667 C18.1683019,15.9353333 17.9992453,16 17.8301887,16 C17.6611321,16 17.4920755,15.9353333 17.3633019,15.8046667 C17.1050943,15.5446667 17.1050943,15.1226667 17.3633019,14.862 L19.2077358,13 L18.6840566,12.4713333 C18.4258491,12.2113333 18.4258491,11.7893333 18.6840566,11.5286667 C18.9416038,11.2686667 19.3596226,11.2686667 19.6178302,11.5286667 L19.6178302,11.5286667 Z M24.4339623,13.3333333 C24.4339623,12.9653333 24.7298113,12.6666667 25.0943396,12.6666667 L27.7358491,12.6666667 L27.7358491,8.66666667 C27.7358491,8.29866667 28.0316981,8 28.3962264,8 C28.7607547,8 29.0566038,8.29866667 29.0566038,8.66666667 L29.0566038,13.3333333 C29.0566038,13.7013333 28.7607547,14 28.3962264,14 L25.0943396,14 C24.7298113,14 24.4339623,13.7013333 24.4339623,13.3333333 L24.4339623,13.3333333 Z M34.3396226,15.3333333 L31.6981132,15.3333333 L31.6981132,0.666666667 C31.6981132,0.298666667 31.4022642,0 31.0377358,0 L20.6116981,0 C18.6781132,0 17.0357547,1.39666667 16.7068868,3.32066667 L13.8778302,19.8866667 C13.8751887,19.902 13.8804717,19.916 13.8784906,19.9313333 C13.8765094,19.9546667 13.8679245,19.9766667 13.8679245,20 L13.8679245,24.6666667 C13.8679245,26.5046667 15.3491509,28 17.1698113,28 C18.7639623,28 20.0979245,26.8526667 20.405,25.3333333 L27.7358491,25.3333333 C27.7358491,26.804 28.920566,28 30.3773585,28 C31.8334906,28 33.0188679,26.804 33.0188679,25.3333333 C33.0188679,23.8633333 31.8334906,22.6666667 30.3773585,22.6666667 C29.4039623,22.6666667 28.5613208,23.2066667 28.1030189,24 L20.405,24 C20.0979245,22.4806667 18.7639623,21.3333333 17.1698113,21.3333333 C16.4235849,21.3333333 15.7420755,21.594 15.1886792,22.0173333 L15.1886792,20.4886667 L27.1771698,16.6666667 L33.6792453,16.6666667 L33.6792453,22 C33.6792453,22.368 33.9750943,22.6666667 34.3396226,22.6666667 C34.7041509,22.6666667 35,22.368 35,22 L35,16 C35,15.632 34.7041509,15.3333333 34.3396226,15.3333333 L34.3396226,15.3333333 Z M30.3773585,24 C31.1057547,24 31.6981132,24.598 31.6981132,25.3333333 C31.6981132,26.0686667 31.1057547,26.6666667 30.3773585,26.6666667 C29.6489623,26.6666667 29.0566038,26.0686667 29.0566038,25.3333333 C29.0566038,24.598 29.6489623,24 30.3773585,24 L30.3773585,24 Z M17.1698113,22.6666667 C18.2620755,22.6666667 19.1509434,23.564 19.1509434,24.6666667 C19.1509434,25.7693333 18.2620755,26.6666667 17.1698113,26.6666667 C16.0775472,26.6666667 15.1886792,25.7693333 15.1886792,24.6666667 C15.1886792,23.564 16.0775472,22.6666667 17.1698113,22.6666667 L17.1698113,22.6666667 Z M30.3773585,15.3333333 L27.0754717,15.3333333 C27.0081132,15.3333333 26.9407547,15.344 26.8766981,15.3646667 L15.3630189,19.0346667 L18.0084906,3.54733333 C18.2277358,2.26466667 19.3226415,1.33333333 20.6116981,1.33333333 L30.3773585,1.33333333 L30.3773585,15.3333333 L30.3773585,15.3333333 Z"></path>
                </g>
            </g>
        </g>
    </g>
</svg>