<?xml version="1.0" encoding="UTF-8" standalone="no"?>
<svg width="40px" height="40px" viewBox="0 0 40 40" version="1.1" xmlns="http://www.w3.org/2000/svg" xmlns:xlink="http://www.w3.org/1999/xlink">
    <!-- Generator: Sketch 46.1 (44463) - http://www.bohemiancoding.com/sketch -->
    <title>freeze</title>
    <desc>Created with Sketch.</desc>
    <defs></defs>
    <g id="Page-1" stroke="none" stroke-width="1" fill="none" fill-rule="evenodd">
        <g id="50-Emoji-Icons" transform="translate(-675.000000, -2100.000000)" fill="#000000">
            <g id="surprised" transform="translate(681.000000, 2106.000000)">
                <path d="M13.9998108,0 C6.28032432,0 0,6.28032432 0,13.9998108 C0,21.7192973 6.28032432,27.9996216 13.9998108,27.9996216 C21.7192973,27.9996216 27.9996216,21.7192973 27.9996216,13.9998108 C27.9996216,6.28032432 21.7192973,0 13.9998108,0 L13.9998108,0 Z M13.9998108,26.4861081 C10.5700946,26.4861081 7.45925676,25.0959459 5.20043243,22.8498919 C4.29837838,21.9529459 3.53263514,20.9192162 2.93640541,19.7831351 C2.0282973,18.0530946 1.51351351,16.0856216 1.51351351,13.9998108 C1.51351351,7.11483784 7.11483784,1.51351351 13.9998108,1.51351351 C17.2655,1.51351351 20.2418243,2.77427027 22.4691486,4.83397297 C23.6239595,5.90175676 24.5775676,7.18408108 25.2651757,8.61737838 C26.047473,10.2480946 26.4861081,12.0736757 26.4861081,13.9998108 C26.4861081,20.8847838 20.8847838,26.4861081 13.9998108,26.4861081 L13.9998108,26.4861081 Z" id="Shape"></path>
                <path d="M21.724973,17.8463108 C21.724973,16.5577432 20.6847162,15.5132297 19.4016351,15.5132297 L8.53489189,15.5132297 C7.25171622,15.5132297 6.21145946,16.5577432 6.21145946,17.8463108 L6.21145946,17.9098784 C6.21145946,19.1984459 7.25171622,20.2429595 8.53489189,20.2429595 L19.4016351,20.2429595 C20.6848108,20.2429595 21.724973,19.1984459 21.724973,17.9098784 L21.724973,17.8463108 L21.724973,17.8463108 Z M7.72497297,17.9098784 L7.72497297,17.8778108 C7.72497297,17.4259324 8.11441892,17.0267432 8.5662973,17.0267432 L19.3916081,17.0267432 L19.4330405,17.0267432 C19.8849189,17.0267432 20.2114595,17.4259324 20.2114595,17.8778108 L20.2114595,17.9098784 C20.2114595,18.3617568 19.8850135,18.7294459 19.4330405,18.7294459 L8.56639189,18.7294459 C8.11441892,18.7294459 7.72497297,18.3617568 7.72497297,17.9098784 L7.72497297,17.9098784 Z" id="Shape"></path>
                <circle id="Oval" cx="9.33327027" cy="10.8781892" r="1.51351351"></circle>
                <circle id="Oval" cx="18.6981351" cy="10.8781892" r="1.51351351"></circle>
            </g>
        </g>
    </g>
</svg>