<?xml version="1.0" encoding="UTF-8" standalone="no"?>
<svg width="40px" height="40px" viewBox="0 0 40 40" version="1.1" xmlns="http://www.w3.org/2000/svg" xmlns:xlink="http://www.w3.org/1999/xlink">
    <!-- Generator: Sketch 46.1 (44463) - http://www.bohemiancoding.com/sketch -->
    <title>fried_egg</title>
    <desc>Created with Sketch.</desc>
    <defs></defs>
    <g id="Page-1" stroke="none" stroke-width="1" fill="none" fill-rule="evenodd">
        <g id="30-Fast-Food-Icons" transform="translate(-222.000000, -642.000000)" fill="#000000">
            <g id="fried_egg" transform="translate(222.000000, 642.000000)">
                <path d="M32.0640619,16.0705236 C31.0452232,15.0340575 30.8388542,14.4795029 30.8388542,12.7742184 C30.8388542,10.9126644 29.3530357,9.61289079 27.225951,9.61289079 C25.4863622,9.61289079 24.0894692,8.91516932 23.0729428,7.53822438 C22.2661574,6.44578255 21.375649,6 20.0000482,6 C18.6239656,6 17.7338426,6.44578255 16.9268645,7.53822438 C15.9111088,8.91516932 14.5139269,9.61289079 12.7742417,9.61289079 C10.647157,9.61289079 9.16133849,10.9126644 9.16133849,12.7742184 C9.16133849,14.4795029 8.95496946,15.0340575 7.93613075,16.0705236 C6.66939871,17.3580616 6,18.8731634 6,20.4515632 C6,22.2580086 6.87345548,23.8345778 8.45899011,24.8918541 C9.72890151,25.7386194 10.516129,26.5754612 10.516129,28.1290043 C10.516129,29.9606917 12.0353789,31.2903319 14.1290323,31.2903319 C15.8365385,31.2903319 17.0126108,31.80606 17.8304757,32.9134351 C18.3403286,33.6039308 19.1311209,34 20.0000482,34 C20.8689755,34 21.6597677,33.6039308 22.170006,32.9134351 C22.9870039,31.80606 24.1629798,31.2903319 25.8709677,31.2903319 C27.9646211,31.2903319 29.483871,29.9607881 29.483871,28.1290043 C29.483871,26.5754612 30.2710022,25.7386194 31.5410099,24.8918541 C33.1266409,23.8346741 34,22.2580086 34,20.4515632 C34,18.8731634 33.330794,17.3580616 32.0640619,16.0705236 L32.0640619,16.0705236 Z M29.0323062,13.2257816 C29.0323062,12.2914399 28.5947114,11.6253191 27.8309918,11.3990077 L27.5740422,12.2647526 C27.9420766,12.3740065 28.1290804,12.6974324 28.1290804,13.2257816 C28.1290804,14.5833614 28.1290804,16.1224529 29.6162477,17.6096151 L30.2548163,16.9710487 C29.0323062,15.7484465 29.0323062,14.5232429 29.0323062,13.2257816 L29.0323062,13.2257816 Z M31.1287535,17.8471025 L30.5488585,18.5394287 C31.2136327,19.0962956 31.3080499,19.7940171 31.2696086,20.2813238 C31.1946529,21.2396551 30.550689,22.2643673 29.7029574,22.7742184 L30.1681067,23.5482441 C31.2677781,22.8875187 32.0725402,21.6026784 32.1701368,20.3522328 C32.2474047,19.3640349 31.8774434,18.4743966 31.1287535,17.8471025 L31.1287535,17.8471025 Z M8.71873376,20.4560913 C8.72412903,19.9064502 8.8158486,19.1888819 9.48332043,18.5101402 L8.83935656,17.876969 C7.93564903,18.7959921 7.82234839,19.7840936 7.81550796,20.4471314 C7.80462108,21.5441014 8.60947957,22.5837468 9.36231226,23.0854087 L9.86310882,22.3339275 C9.30306065,21.9604027 8.71150796,21.1754901 8.71873376,20.4560913 L8.71873376,20.4560913 Z M11.2848585,11.941423 C10.8775157,12.4386531 10.7740422,13.2041042 10.9763647,14.2180259 L11.8619596,14.0405607 C11.7210082,13.337444 11.7607983,12.7990751 11.9740077,12.5258442 C12.1225703,12.3352763 12.3244112,12.3226552 12.3330822,12.3226552 L12.322677,11.4194325 C12.2603424,11.4193362 11.7011613,11.4337878 11.2848585,11.941423 L11.2848585,11.941423 Z M26.8215948,27.8791849 C27.0338409,28.3036755 26.7538649,28.5322029 26.5678245,28.6301845 L26.7741935,29.0321306 L26.9760344,29.4362927 C27.5016877,29.1734669 28.1091372,28.4346067 27.6295363,27.4754083 L26.8215948,27.8791849 L26.8215948,27.8791849 Z M20.0000482,15.4838865 C16.5135484,15.4838865 13.6774675,18.320054 13.6774675,21.8064454 C13.6774675,25.2928368 16.5136447,28.1290043 20.0000482,28.1290043 C23.4864516,28.1290043 26.3226288,25.2928368 26.3226288,21.8064454 C26.3226288,18.320054 23.4864516,15.4838865 20.0000482,15.4838865 L20.0000482,15.4838865 Z M20.0000482,27.2257816 C17.0117437,27.2257816 14.5806933,24.7947396 14.5806933,21.8064454 C14.5806933,18.8181512 17.0117437,16.3871092 20.0000482,16.3871092 C22.9883527,16.3871092 25.419403,18.8181512 25.419403,21.8064454 C25.419403,24.7947396 22.988449,27.2257816 20.0000482,27.2257816 L20.0000482,27.2257816 Z M17.2903708,21.8064454 L16.3871449,21.8064454 C16.3871449,23.7985452 18.0079415,25.4193362 20.0000482,25.4193362 L20.0000482,24.5161135 C18.5056551,24.5161135 17.2903708,23.300737 17.2903708,21.8064454 L17.2903708,21.8064454 Z M31.0396353,24.1402765 C29.7624981,24.9915699 28.5806452,26.0641649 28.5806452,28.1289079 C28.5806452,29.4584518 27.4665222,30.3870129 25.8709677,30.3870129 C23.8798245,30.3870129 22.4314839,31.0378149 21.4433789,32.3768004 C21.1051148,32.8342406 20.5794615,33.096681 20.0000482,33.096681 C19.4211166,33.096681 18.8949815,32.8343369 18.5571028,32.3768004 C17.5685161,31.0378149 16.1201755,30.3870129 14.1290323,30.3870129 C12.5334778,30.3870129 11.4193548,29.4585481 11.4193548,28.1289079 C11.4193548,26.0641649 10.2375019,24.9915699 8.96036473,24.1402765 C7.63389935,23.2560335 6.90322581,21.9459512 6.90322581,20.4515632 C6.90322581,19.0962956 7.46732043,17.8349631 8.58009462,16.7035984 C9.75924989,15.5046004 10.0645643,14.6966617 10.0645643,12.7741221 C10.0645643,11.2142203 11.4257135,10.5160171 12.7742417,10.5160171 C14.7875441,10.5160171 16.4747217,9.6714678 17.6534916,8.07457007 C18.2017858,7.33253047 18.7612559,6.90312635 20.0000482,6.90312635 C21.2388404,6.90312635 21.7984069,7.33262681 22.3462194,8.07457007 C23.5253746,9.6714678 25.2126486,10.5160171 27.2258546,10.5160171 C28.5743828,10.5160171 29.935532,11.2142203 29.935532,12.7741221 C29.935532,14.6966617 30.2408465,15.5046004 31.4200017,16.7035984 C32.5327759,17.8348668 33.0968705,19.0961992 33.0968705,20.4515632 C33.0967742,21.9459512 32.366197,23.2560335 31.0396353,24.1402765 L31.0396353,24.1402765 Z" id="fried-egg"></path>
            </g>
        </g>
    </g>
</svg>