<?xml version="1.0" encoding="UTF-8" standalone="no"?>
<svg width="40px" height="40px" viewBox="0 0 40 40" version="1.1" xmlns="http://www.w3.org/2000/svg" xmlns:xlink="http://www.w3.org/1999/xlink">
    <!-- Generator: Sketch 46.1 (44463) - http://www.bohemiancoding.com/sketch -->
    <title>fries</title>
    <desc>Created with Sketch.</desc>
    <defs></defs>
    <g id="Page-1" stroke="none" stroke-width="1" fill="none" fill-rule="evenodd">
        <g id="30-Fast-Food-Icons" transform="translate(-690.000000, -642.000000)" fill="#000000">
            <g id="fries" transform="translate(690.000000, 642.000000)">
                <path d="M19.9988651,26.7096774 C18.1418752,26.7096774 16.6309803,28.0985738 16.6309803,29.8064516 C16.6309803,31.5143295 18.1379328,32.9032258 19.9909803,32.9032258 C21.8440277,32.9032258 23.3509803,31.5143295 23.3509803,29.8064516 C23.3509803,28.0985738 21.8474923,26.7096774 19.9988651,26.7096774 L19.9988651,26.7096774 L19.9988651,26.7096774 Z M34,6.58070022 C34,5.66196301 33.6539051,5.14324645 32.9885952,5.04260817 L30.1713323,4.52851613 C29.8118571,4.47489376 29.4192896,4.59557161 29.0653099,4.87227183 C28.6660523,5.18398624 28.4207872,5.60878108 28.4011947,6.01705978 L27.4934869,10.6147097 L27.3126144,10.5728688 L27.8322944,7.6980714 L27.8401792,7.61295828 C27.8401792,6.44912172 27.2969643,6.12859871 26.8198144,6.07178323 L24.6162517,5.56396731 L24.4801792,5.54844215 C23.618944,5.54844215 22.8713216,6.3552 22.803584,7.04006882 L22.8002389,7.06946753 L22.8002389,5.54844215 C22.8,4.83923957 21.8894251,4 21.1200597,4 L18.8800597,4 C18.1105749,4 17.2,4.83923957 17.2,5.54844215 L17.2,7.07045849 L17.1977301,7.04975828 C17.1287979,6.35508989 16.3812949,5.54833204 15.5199403,5.54833204 L13.1803051,6.07167312 C12.7031552,6.1284886 12.1599403,6.44901161 12.1599403,7.61284817 L12.6879829,10.5738598 L12.5065131,10.6151501 L11.598208,6.01639914 C11.5786155,5.60812043 11.3333504,5.18387613 10.9340928,4.87161118 C10.5807104,4.59502108 10.1876651,4.47159054 9.81074773,4.53093849 L7.02872747,5.03952516 C6.34609493,5.14324645 6,5.66196301 6,6.58070022 L7.67778987,15.9015226 C7.0074624,16.3779578 6.56005973,17.1154581 6.56005973,17.9355389 L9.92065707,33.4730323 C9.953152,34.849046 11.2221269,36 12.7201195,36 L27.28,36 C28.7779925,36 30.0469675,34.849046 30.0794624,33.4730323 L33.4288299,18.0366176 L33.4400597,17.9354288 C33.4400597,17.115348 32.9926571,16.3777376 32.3223296,15.9014125 L33.9922347,6.6652628 L34,6.58070022 L34,6.58070022 Z M27.2929024,11.6321032 L27.2895573,11.6501609 L27.5890603,11.7001497 L27.7407829,11.735274 C27.797888,11.8101471 27.8612053,12.0212232 27.8443605,12.1946426 L26.7243605,20.4527071 L26.7535104,20.4557901 C25.9045803,21.5153548 24.7733504,22.3680275 23.4585003,22.9187854 L25.0316373,11.3187372 C25.1072597,11.2686383 25.3189547,11.2108318 25.5121323,11.2217325 L27.2929024,11.6321032 L27.2929024,11.6321032 Z M22.8001195,16.4145135 L23.9177301,7.14379011 C23.9373227,6.94923011 24.2196224,6.62760602 24.4346624,6.58532473 L26.6326101,7.07310108 C26.6365525,7.07728516 26.7149227,7.17120688 26.7199403,7.57166796 L26.22272,10.3216034 L25.7361323,10.2096241 L25.6504747,10.196191 C24.9801472,10.143009 23.9995648,10.4083682 23.9245397,11.1623845 L22.8001195,19.4519398 L22.8001195,16.4145135 L22.8001195,16.4145135 L22.8001195,16.4145135 Z M18.32,5.55152516 C18.3362475,5.39153892 18.7097003,5.04668215 18.8800597,5.03225806 L21.1167147,5.03225806 C21.2902997,5.04668215 21.6643499,5.39153892 21.6801195,5.54844215 L21.6801195,23.4571011 C21.1369045,23.5587303 20.5752917,23.6130133 20.0000597,23.6130133 C19.4248277,23.6130133 18.8632149,23.5588404 18.32,23.4566606 L18.32,5.55152516 L18.32,5.55152516 L18.32,5.55152516 Z M13.3383595,7.09424172 L15.5671296,6.58587527 C15.7821696,6.62969806 16.0626773,6.95022108 16.0834645,7.15414022 L17.2001195,16.4145135 L17.2001195,19.4529308 L16.0778496,11.1783501 C16.0016299,10.4078176 15.0188971,10.1424585 14.3502421,10.1956404 L13.779072,10.3256774 L13.2800597,7.57166796 C13.28448,7.22229677 13.3438549,7.1071243 13.3383595,7.09424172 L13.3383595,7.09424172 Z M12.2590976,11.7346133 L12.4108203,11.699489 L12.7109205,11.6493901 L12.7075755,11.6313325 L14.4878677,11.2211819 C14.6766251,11.2119329 14.8916651,11.2686383 14.9677653,11.3181867 L16.5407829,22.9150417 C15.2309504,22.3642839 14.1042603,21.5121617 13.2586752,20.4541385 L13.27552,20.4520465 L12.1571925,12.2110486 C12.1386752,12.0221041 12.2019925,11.8094865 12.2590976,11.7346133 L12.2590976,11.7346133 Z M7.12,6.53940989 C7.12561493,6.14093075 7.20733013,6.0568086 7.2285952,6.05427613 L9.99556267,5.54800172 C10.1478827,5.55780129 10.48,5.8592757 10.48,6.06980129 L11.4504277,11.025631 C11.1216555,11.3616791 11.0018304,11.8984533 11.0438827,12.3221471 L11.4554453,15.3549488 L9.36,15.3549488 C9.14269013,15.3549488 8.93266773,15.3848981 8.7277824,15.4308129 L7.12,6.53940989 L7.12,6.53940989 Z M19.9910997,31.8709677 C18.77696,31.8709677 17.7510997,30.9253643 17.7510997,29.8064516 C17.7510997,28.6875389 18.7804245,27.7419355 19.9989845,27.7419355 C21.2091819,27.7419355 22.2316971,28.6875389 22.2316971,29.8064516 C22.2316971,30.9253643 21.20512,31.8709677 19.9910997,31.8709677 L19.9910997,31.8709677 Z M28.9711701,33.3182211 L28.9599403,33.4194099 C28.9599403,34.2442254 28.1748053,34.967852 27.2798805,34.967852 L12.72,34.967852 C11.8250752,34.967852 11.0399403,34.2442254 11.0399403,33.4194099 L7.6805376,17.8880826 C7.71016533,17.0834168 8.48251733,16.3872069 9.36,16.3872069 L10.5124949,16.3872069 C10.8031573,20.9859578 14.9476949,24.6452714 20.0000597,24.6452714 C25.0613845,24.6452714 29.2126123,20.9859578 29.503872,16.3872069 L30.6401195,16.3872069 C31.5176021,16.3872069 32.2898347,17.0834168 32.3195819,17.8880826 L28.9711701,33.3182211 L28.9711701,33.3182211 Z M31.2722176,15.4307028 C31.0672128,15.384788 30.8573099,15.3548387 30.64,15.3548387 L28.5439573,15.3548387 L28.9571925,12.3050804 C28.9980501,11.8931682 28.8782251,11.3611286 28.5500501,11.0260714 L29.5104427,6.16152086 L29.52,6.06969118 C29.52,5.85905548 29.8521173,5.55769118 29.9713451,5.5432671 L32.7898027,6.05317505 C32.7931477,6.0568086 32.8743851,6.14093075 32.88,6.53940989 L31.2722176,15.4307028 L31.2722176,15.4307028 Z"></path>
            </g>
        </g>
    </g>
</svg>