<?xml version="1.0" encoding="UTF-8" standalone="no"?>
<svg width="40px" height="40px" viewBox="0 0 40 40" version="1.1" xmlns="http://www.w3.org/2000/svg" xmlns:xlink="http://www.w3.org/1999/xlink">
    <!-- Generator: Sketch 46.1 (44463) - http://www.bohemiancoding.com/sketch -->
    <title>fuel</title>
    <desc>Created with Sketch.</desc>
    <defs></defs>
    <g id="Icons" stroke="none" stroke-width="1" fill="none" fill-rule="evenodd">
        <g id="Automotive" transform="translate(-869.000000, -389.000000)" fill="#231F20">
            <g id="Fuel" transform="translate(876.561402, 394.782895)">
                <g>
                    <path d="M8.55263158,6 L8.55263158,7.33333333 C8.55263158,7.70133333 8.25855263,8 7.89473684,8 C7.53092105,8 7.23684211,7.70133333 7.23684211,7.33333333 L7.23684211,6 C7.23684211,5.632 7.53092105,5.33333333 7.89473684,5.33333333 C8.25855263,5.33333333 8.55263158,5.632 8.55263158,6 L8.55263158,6 Z M9.86842105,5.33333333 C9.50460526,5.33333333 9.21052632,5.632 9.21052632,6 L9.21052632,7.33333333 C9.21052632,7.70133333 9.50460526,8 9.86842105,8 C10.2322368,8 10.5263158,7.70133333 10.5263158,7.33333333 L10.5263158,6 C10.5263158,5.632 10.2322368,5.33333333 9.86842105,5.33333333 L9.86842105,5.33333333 Z M11.8421053,5.33333333 C11.4782895,5.33333333 11.1842105,5.632 11.1842105,6 L11.1842105,7.33333333 C11.1842105,7.70133333 11.4782895,8 11.8421053,8 C12.2059211,8 12.5,7.70133333 12.5,7.33333333 L12.5,6 C12.5,5.632 12.2059211,5.33333333 11.8421053,5.33333333 L11.8421053,5.33333333 Z M25,7.33333333 L25,18 C25,19.838 23.5243421,21.3333333 21.7105263,21.3333333 C19.8967105,21.3333333 18.4210526,19.838 18.4210526,18 L18.4210526,12.6666667 C18.4210526,11.7986667 17.8697368,11.066 17.1052632,10.79 L17.1052632,24.6666667 C17.1052632,25.0346667 16.8111842,25.3333333 16.4473684,25.3333333 C16.0835526,25.3333333 15.7894737,25.0346667 15.7894737,24.6666667 L15.7894737,2 C15.7894737,1.63266667 15.4947368,1.33333333 15.1315789,1.33333333 L4.60526316,1.33333333 C4.24210526,1.33333333 3.94736842,1.63266667 3.94736842,2 L3.94736842,24.6666667 C3.94736842,25.0346667 3.65328947,25.3333333 3.28947368,25.3333333 C2.92565789,25.3333333 2.63157895,25.0346667 2.63157895,24.6666667 L2.63157895,2 C2.63157895,0.897333333 3.51710526,0 4.60526316,0 L15.1315789,0 C16.2197368,0 17.1052632,0.897333333 17.1052632,2 L17.1052632,9.40066667 C18.6046053,9.71066667 19.7368421,11.0573333 19.7368421,12.6666667 L19.7368421,18 C19.7368421,19.1026667 20.6223684,20 21.7105263,20 C22.7986842,20 23.6842105,19.1026667 23.6842105,18 L23.6842105,10.9426667 L21.2453947,8.47133333 C21.1217105,8.34666667 21.0526316,8.17666667 21.0526316,8 L21.0526316,5.33333333 C21.0526316,5.22066667 21.0868421,5.12 21.1355263,5.02666667 L18.6138158,2.47133333 C18.3565789,2.21133333 18.3565789,1.78933333 18.6138158,1.52866667 C18.8703947,1.26866667 19.2868421,1.26866667 19.5440789,1.52866667 L24.8072368,6.862 C24.9302632,6.98733333 25,7.15666667 25,7.33333333 L25,7.33333333 Z M23.6842105,9.05733333 L23.6842105,7.60933333 L22.3684211,6.276 L22.3684211,7.724 L23.6842105,9.05733333 L23.6842105,9.05733333 Z M19.0789474,26.6666667 L0.657894737,26.6666667 C0.294078947,26.6666667 0,26.9653333 0,27.3333333 C0,27.7013333 0.294078947,28 0.657894737,28 L19.0789474,28 C19.4427632,28 19.7368421,27.7013333 19.7368421,27.3333333 C19.7368421,26.9653333 19.4427632,26.6666667 19.0789474,26.6666667 L19.0789474,26.6666667 Z M5.92105263,10.6666667 C5.55723684,10.6666667 5.26315789,10.368 5.26315789,10 L5.26315789,3.33333333 C5.26315789,2.96533333 5.55723684,2.66666667 5.92105263,2.66666667 L13.8157895,2.66666667 C14.1796053,2.66666667 14.4736842,2.96533333 14.4736842,3.33333333 L14.4736842,10 C14.4736842,10.368 14.1796053,10.6666667 13.8157895,10.6666667 L5.92105263,10.6666667 L5.92105263,10.6666667 Z M6.57894737,9.33333333 L13.1578947,9.33333333 L13.1578947,4 L6.57894737,4 L6.57894737,9.33333333 Z"></path>
                </g>
            </g>
        </g>
    </g>
</svg>