<?xml version="1.0" encoding="UTF-8" standalone="no"?>
<svg width="40px" height="40px" viewBox="0 0 40 40" version="1.1" xmlns="http://www.w3.org/2000/svg" xmlns:xlink="http://www.w3.org/1999/xlink">
    <!-- Generator: Sketch 46.1 (44463) - http://www.bohemiancoding.com/sketch -->
    <title>gear</title>
    <desc>Created with Sketch.</desc>
    <defs></defs>
    <g id="Icons" stroke="none" stroke-width="1" fill="none" fill-rule="evenodd">
        <g id="Automotive" transform="translate(-524.000000, -539.000000)" fill="#231F20">
            <g id="Gears" transform="translate(529.000000, 546.000000)">
                <g>
                    <path d="M16.1236167,14.0478 C16.7394833,13.14248 17.1827833,12.10976 17.4044333,10.99696 C18.1014167,10.7744 18.6,10.11504 18.6,9.36 C18.6,8.60496 18.1014167,7.9456 17.4044333,7.72304 C17.1827833,6.61024 16.7394833,5.57752 16.1236167,4.67272 C16.3313167,4.06432 16.1949167,3.367 15.72475,2.8938 C15.2649167,2.431 14.56225,2.2932 13.9603333,2.49444 C13.0603,1.87356 12.0331667,1.42688 10.9264667,1.2038 C10.7048167,0.50232 10.0496833,0 9.3,0 C8.55031667,0 7.89518333,0.5018 7.67353333,1.2038 C6.56631667,1.42688 5.5397,1.87356 4.63915,2.49444 C4.03723333,2.29372 3.33456667,2.43152 2.87525,2.8938 C2.40508333,3.367 2.26868333,4.06432 2.47638333,4.6722 C1.86051667,5.57752 1.41721667,6.61024 1.19556667,7.72304 C0.498583333,7.9456 0,8.60496 0,9.36 C0,10.11504 0.498583333,10.7744 1.19556667,10.99696 C1.41721667,12.10976 1.86051667,13.14248 2.47638333,14.0478 C2.26868333,14.65568 2.40508333,15.353 2.87525,15.8262 C3.19765,16.15068 3.627,16.32956 4.08321667,16.32956 C4.27851667,16.32956 4.46761667,16.29524 4.64741667,16.2318 C5.54538333,16.84956 6.56993333,17.29416 7.67353333,17.51672 C7.89518333,18.2182 8.5498,18.72 9.3,18.72 C10.0496833,18.72 10.7048167,18.2182 10.9264667,17.51672 C12.0300667,17.29416 13.0541,16.84956 13.9525833,16.2318 C14.1318667,16.29524 14.3214833,16.32956 14.5167833,16.32956 C14.9724833,16.32956 15.40235,16.15068 15.72475,15.8262 C16.1949167,15.353 16.3313167,14.65568 16.1236167,14.0478 L16.1236167,14.0478 Z M9.3,16.64 C5.31133333,16.64 2.06666667,13.3744 2.06666667,9.36 C2.06666667,5.3456 5.31133333,2.08 9.3,2.08 C13.2886667,2.08 16.5333333,5.3456 16.5333333,9.36 C16.5333333,13.3744 13.2886667,16.64 9.3,16.64 L9.3,16.64 Z M29.7548333,16.5464 C29.5931167,15.90264 29.3409833,15.29684 29.0103167,14.74148 C29.3792167,14.08004 29.2784667,13.23088 28.7328667,12.68176 C28.1986333,12.14356 27.33735,12.04112 26.6868667,12.40304 C26.13455,12.06972 25.5326333,11.81596 24.8935167,11.6532 C24.6884,10.92416 24.0208667,10.39584 23.25,10.39584 C22.4791333,10.39584 21.8116,10.92416 21.6064833,11.6532 C20.9673667,11.81596 20.36545,12.07024 19.8131333,12.40304 C19.1616167,12.04164 18.3013667,12.14408 17.7671333,12.68176 C17.2210167,13.23088 17.1207833,14.08056 17.4896833,14.742 C17.1590167,15.29736 16.9068833,15.90316 16.7451667,16.5464 C16.0208,16.75232 15.4958667,17.42416 15.4958667,18.2 C15.4958667,18.97584 16.0208,19.64768 16.7451667,19.8536 C16.9068833,20.49736 17.1590167,21.10316 17.4896833,21.65852 C17.1207833,22.31996 17.2210167,23.16912 17.7671333,23.71824 C18.0910833,24.04428 18.5219833,24.2242 18.9792333,24.2242 C19.27735,24.2242 19.5615167,24.14464 19.81675,23.99956 C20.3675167,24.33132 20.9684,24.58456 21.6064833,24.7468 C21.8116,25.47584 22.47965,26.00416 23.25,26.00416 C24.02035,26.00416 24.6884,25.47584 24.8935167,24.7468 C25.5316,24.58456 26.1324833,24.33132 26.68325,23.99956 C26.9384833,24.14464 27.22265,24.2242 27.5207667,24.2242 C27.9780167,24.2242 28.4089167,24.04428 28.7328667,23.71824 C29.2789833,23.16912 29.3792167,22.31944 29.0108333,21.658 C29.3409833,21.10264 29.5931167,20.49684 29.7548333,19.8536 C30.4792,19.64768 31.0041333,18.97584 31.0041333,18.2 C31.0041333,17.42416 30.4792,16.75232 29.7548333,16.5464 L29.7548333,16.5464 Z M23.25,23.92 C20.1164167,23.92 17.5666667,21.35432 17.5666667,18.2 C17.5666667,15.0462 20.1164167,12.48 23.25,12.48 C26.3835833,12.48 28.9333333,15.0462 28.9333333,18.2 C28.9333333,21.35432 26.3835833,23.92 23.25,23.92 L23.25,23.92 Z M9.3,6.24 C7.59035,6.24 6.2,7.63984 6.2,9.36 C6.2,11.08068 7.59035,12.48 9.3,12.48 C11.00965,12.48 12.4,11.08068 12.4,9.36 C12.4,7.63984 11.00965,6.24 9.3,6.24 L9.3,6.24 Z M9.3,11.44 C8.16023333,11.44 7.23333333,10.50712 7.23333333,9.36 C7.23333333,8.2134 8.16023333,7.28 9.3,7.28 C10.4397667,7.28 11.3666667,8.2134 11.3666667,9.36 C11.3666667,10.50712 10.4397667,11.44 9.3,11.44 L9.3,11.44 Z M23.25,15.6 C21.82555,15.6 20.6666667,16.76636 20.6666667,18.2 C20.6666667,19.63364 21.82555,20.8 23.25,20.8 C24.67445,20.8 25.8333333,19.63364 25.8333333,18.2 C25.8333333,16.76636 24.67445,15.6 23.25,15.6 L23.25,15.6 Z M23.25,19.76 C22.3954333,19.76 21.7,19.06008 21.7,18.2 C21.7,17.33992 22.3954333,16.64 23.25,16.64 C24.1045667,16.64 24.8,17.33992 24.8,18.2 C24.8,19.06008 24.1045667,19.76 23.25,19.76 L23.25,19.76 Z"></path>
                </g>
            </g>
        </g>
    </g>
</svg>