<?xml version="1.0" encoding="UTF-8" standalone="no"?>
<svg width="40px" height="40px" viewBox="0 0 40 40" version="1.1" xmlns="http://www.w3.org/2000/svg" xmlns:xlink="http://www.w3.org/1999/xlink">
    <!-- Generator: Sketch 46.1 (44463) - http://www.bohemiancoding.com/sketch -->
    <title>guards</title>
    <desc>Created with Sketch.</desc>
    <defs></defs>
    <g id="Page-1" stroke="none" stroke-width="1" fill="none" fill-rule="evenodd">
        <g id="Star-Wars-Icons" transform="translate(-303.000000, -132.000000)" fill="#244356">
            <g id="Group" transform="translate(310.000000, 138.000000)">
                <path d="M13,28 C11.345752,28 10,26.72205 10,25.1511467 C10,23.7257458 11.168359,21 13,21 C14.831641,21 16,23.7257458 16,25.1511467 C16,26.72205 14.654248,28 13,28 L13,28 Z M13,22.1395442 C12.205615,22.1395442 11.2,24.0067396 11.2,25.1511496 C11.2,26.0937183 12.007423,26.8604615 13,26.8604615 C13.992577,26.8604615 14.8,26.0937183 14.8,25.1511496 C14.8,24.0067367 13.794385,22.1395442 13,22.1395442 L13,22.1395442 Z" id="Shape"></path>
                <path d="M20,25 C19.46582,25 18.9634486,24.7919914 18.5857971,24.4142029 C18.2080057,24.0365514 18,23.53418 18,23 C18,22.46582 18.2080086,21.9634486 18.5857971,21.5857971 C18.9634486,21.2080057 19.46582,21 20,21 C20.53418,21 21.0365514,21.2080086 21.4142029,21.5857971 C21.7919943,21.9634486 22,22.46582 22,23 C22,23.53418 21.7919914,24.0365514 21.4142029,24.4142029 C21.0365514,24.7919914 20.53418,25 20,25 L20,25 Z M20,22.1428571 C19.7710657,22.1428571 19.5558029,22.2320029 19.3938343,22.3938343 C19.2320029,22.5558029 19.1428571,22.7710657 19.1428571,23 C19.1428571,23.2289343 19.2320029,23.4441971 19.3938343,23.6061657 C19.7177743,23.9298257 20.2822286,23.9298257 20.6061657,23.6061657 C20.7679971,23.4441971 20.8571429,23.2289343 20.8571429,23 C20.8571429,22.7710657 20.7679971,22.5558029 20.6061657,22.3938343 C20.4441971,22.2320029 20.2289343,22.1428571 20,22.1428571 L20,22.1428571 Z" id="Shape"></path>
                <path d="M7,25 C6.46582,25 5.96344857,24.7919914 5.58579714,24.4142029 C5.20800571,24.0365514 5,23.53418 5,23 C5,22.46582 5.20800857,21.9634486 5.58579714,21.5857971 C5.96344857,21.2080057 6.46582,21 7,21 C7.53418,21 8.03655143,21.2080086 8.41420286,21.5857971 C8.79199429,21.9634486 9,22.46582 9,23 C9,23.53418 8.79199143,24.0365514 8.41420286,24.4142029 C8.03655143,24.7919914 7.53418,25 7,25 L7,25 Z M7,22.1428571 C6.77106571,22.1428571 6.55580286,22.2320029 6.39383429,22.3938343 C6.23200286,22.5558029 6.14285714,22.7710657 6.14285714,23 C6.14285714,23.2289343 6.23200286,23.4441971 6.39383429,23.6061657 C6.71777429,23.9298257 7.28222857,23.9298257 7.60616571,23.6061657 C7.76799714,23.4441971 7.85714286,23.2289343 7.85714286,23 C7.85714286,22.7710657 7.76799714,22.5558029 7.60616571,22.3938343 C7.44419714,22.2320029 7.22893429,22.1428571 7,22.1428571 L7,22.1428571 Z" id="Shape"></path>
                <path d="M19.0228332,29 C17.9228962,29 16.8228088,28.5877024 15.9854973,27.7632582 C15.6867683,27.4692679 15.3305074,26.9832144 15.1188201,26.5812428 C14.9628635,26.28489 15.0804676,25.9202404 15.3812953,25.7666805 C15.6813744,25.6129725 16.0524638,25.7287693 16.2085707,26.0251221 C16.3634779,26.3197045 16.6407848,26.699547 16.8532208,26.9088664 C18.0493397,28.0864561 19.996026,28.0864561 21.1924456,26.9088664 L22.7265451,25.3983421 C23.3920221,24.7430918 23.7121733,23.8385476 23.6052067,22.916451 C23.587678,22.7664318 23.6279788,22.6153794 23.7181655,22.4930903 C24.571358,21.3348264 25.7728708,19.4016785 25.7728708,18.7304982 C25.7728708,17.7309571 24.9470927,16.917869 23.9319514,16.917869 C23.5930719,16.917869 23.3183117,16.6473311 23.3183117,16.3136593 C23.3183117,15.9799875 23.5930719,15.7094496 23.9319514,15.7094496 L24.4640937,15.7094496 L24.0038639,12.0841913 L23.9319514,12.0841913 C23.5930719,12.0841943 23.3159062,11.8136564 23.3159062,11.4799846 L23.3159062,7.85472632 C23.3159062,4.18993457 20.2902632,1.20841943 16.5682741,1.20841943 L10.4318763,1.20841943 C6.70988713,1.20841943 3.67943322,4.18993457 3.67943322,7.85472632 L3.67943322,11.4799846 C3.67943322,11.8136564 3.40708147,12.0841943 3.0681989,12.0841943 L2.99628646,12.0841943 L2.53605662,15.7094526 L3.0681989,15.7094526 C3.4070784,15.7094526 3.68183868,15.9799906 3.68183868,16.3136623 C3.68183868,16.6473341 3.4070784,16.9178721 3.0681989,16.9178721 C2.05305768,16.9178721 1.22727956,17.7309601 1.22727956,18.7305012 C1.22727956,19.4016815 2.42879239,21.3348294 3.28198487,22.4930934 C3.37217457,22.6153824 3.4124723,22.7664348 3.39494368,22.916454 C3.28797706,23.8385536 3.60812827,24.7430978 4.27360527,25.3983452 L5.80770472,26.9088694 C7.00382366,28.0864591 8.95050995,28.0864591 10.1469296,26.9088694 C10.3593655,26.6995501 10.6366724,26.3197045 10.7915796,26.0251251 C10.9476865,25.7289204 11.3181777,25.6135677 11.618855,25.7666835 C11.9196827,25.9202434 12.0372868,26.284893 11.8813302,26.5812458 C11.6696429,26.9832175 11.3133852,27.4692679 11.014653,27.7632613 C9.34002701,29.4121526 6.61460422,29.4121526 4.93997819,27.7632613 L3.40587874,26.252737 C2.53201274,25.3923 2.08331626,24.2248883 2.15463041,23.0185323 C1.58563599,22.2277184 -2.84217094e-14,19.9169425 -2.84217094e-14,18.7305012 C-2.84217094e-14,17.7442346 0.482403709,16.8668314 1.22727956,16.3151366 C1.22727956,16.2897659 1.22877684,16.264244 1.23207209,16.2387252 L1.84450913,11.4050475 C1.88286469,11.1026496 2.14533376,10.8757749 2.45215365,10.8757749 L2.45215365,7.85472632 C2.45215365,3.52362116 6.03317746,0 10.4318763,0 L16.5682741,0 C20.966976,0 24.5431858,3.52362116 24.5431858,7.85472632 L24.5431858,10.8757749 C24.8500056,10.8757749 25.1148771,11.1026496 25.1532296,11.4050475 L25.7674769,16.2387252 C25.7707721,16.264244 25.7725701,16.2897659 25.7725701,16.3151366 C26.5174459,16.8668314 27,17.7442346 27,18.7305012 C27,19.9169425 25.4144407,22.2277184 24.8454432,23.0185323 C24.9167543,24.2248853 24.4680977,25.392297 23.5942317,26.252737 L22.0601507,27.7632613 C21.2228392,28.5877054 20.1227702,29 19.0228332,29 L19.0228332,29 Z" id="Shape"></path>
                <path d="M19.9589728,16 C18.0081162,16 15,14.1213375 15,11.625 C15,11.2798469 15.2618234,11 15.5840454,11 L21.4188107,11 C21.7410327,11 22,11.2798469 22,11.625 L22,13.8125 C22,15.0187062 21.0850417,16 19.9589728,16 L19.9589728,16 Z M16.276212,12.25 C16.7559843,13.63855 18.7125299,14.75 19.9589699,14.75 C20.4415925,14.75 20.833044,14.3294688 20.833044,13.8125 L20.833044,12.25 L16.276212,12.25 L16.276212,12.25 Z" id="Shape"></path>
                <path d="M7.04230878,16 C5.9167925,16 5,15.0187062 5,13.8125 L5,11.625 C5,11.2798469 5.26341244,11 5.58547631,11 L11.4173784,11 C11.7394423,11 12,11.2798469 12,11.625 C12,14.1213375 8.99220816,16 7.04230878,16 L7.04230878,16 Z M6.16638042,12.25 L6.16638042,13.8125 C6.16638042,14.3294688 6.559923,14.75 7.04230878,14.75 C8.2881372,14.75 10.2460146,13.63855 10.7255515,12.25 L6.16638042,12.25 L6.16638042,12.25 Z" id="Shape"></path>
                <path d="M19.4090909,21 C18.5710548,21 17.755095,20.4614267 16.6259327,19.7159833 C16.326005,19.5180667 16.0021307,19.3042 15.649547,19.0821933 C15.0319495,18.6931967 14.3440959,18.3333333 13.5,18.3333333 C12.6559041,18.3333333 11.9680505,18.6931967 11.350453,19.0821933 C10.9978693,19.3042 10.673995,19.5180667 10.3740673,19.7159833 C9.244905,20.4614267 8.42894227,21 7.59090909,21 C7.2645825,21 7,20.7014967 7,20.3333333 C7,19.96517 7.2645825,19.6666667 7.59090909,19.6666667 C8.10867545,19.6666667 8.84500432,19.1806633 9.77724318,18.5652667 C10.0835173,18.3629567 10.414317,18.1446933 10.774547,17.9178067 C11.4951518,17.46403 12.3826677,17 13.5,17 C14.6173323,17 15.5048482,17.46403 16.225453,17.9178067 C16.585683,18.1446933 16.9164827,18.3629567 17.2227568,18.5652667 C18.1549957,19.1806633 18.8913245,19.6666667 19.4090909,19.6666667 C19.7354175,19.6666667 20,19.96517 20,20.3333333 C20,20.7014967 19.7354205,21 19.4090909,21 L19.4090909,21 Z" id="Shape"></path>
                <path d="M23.4166667,9 L3.58333333,9 C3.26119042,9 3,8.7761225 3,8.5 C3,8.2238775 3.26119042,8 3.58333333,8 L23.4166667,8 C23.7388096,8 24,8.2238775 24,8.5 C24,8.7761225 23.7388125,9 23.4166667,9 L23.4166667,9 Z" id="Shape"></path>
                <path d="M23.4153463,7 L3.58465368,7 C3.26178161,7 3,6.7761225 3,6.5 C3,6.2238775 3.26178161,6 3.58465368,6 L23.4153463,6 C23.7382184,6 24,6.2238775 24,6.5 C24,6.7761225 23.7382184,7 23.4153463,7 L23.4153463,7 Z" id="Shape"></path>
            </g>
        </g>
    </g>
</svg>