<?xml version="1.0" encoding="UTF-8" standalone="no"?>
<svg width="40px" height="40px" viewBox="0 0 40 40" version="1.1" xmlns="http://www.w3.org/2000/svg" xmlns:xlink="http://www.w3.org/1999/xlink">
    <!-- Generator: Sketch 46.1 (44463) - http://www.bohemiancoding.com/sketch -->
    <title>guards02</title>
    <desc>Created with Sketch.</desc>
    <defs></defs>
    <g id="Page-1" stroke="none" stroke-width="1" fill="none" fill-rule="evenodd">
        <g id="Star-Wars-Icons" transform="translate(-443.000000, -132.000000)" fill="#244356">
            <g id="Group" transform="translate(450.000000, 137.000000)">
                <path d="M19.2743987,25 C19.1230813,25 18.969937,24.97162 18.8210546,24.9126667 C18.4371259,24.7602628 18.0997819,24.5048457 17.7088541,24.2091319 C17.3206635,23.9156146 16.8807162,23.5827416 16.2440858,23.2183512 C15.4186853,22.7464006 14.736387,22.5450783 13.9627464,22.5450783 C13.1139039,22.5450783 12.4928028,22.8026918 11.7657437,23.2183512 C11.1291134,23.5827416 10.689166,23.9156146 10.3009755,24.2091319 C9.91004454,24.5048457 9.57270053,24.7602628 9.18877502,24.9126667 C8.61547133,25.1398611 7.97244662,24.9104703 7.66006911,24.3660827 L4.32133513,18.5374266 C3.96298408,17.9706157 3.61802665,16.5030259 4.97988597,15.1756087 C5.23015275,14.9324228 5.62443212,14.9427691 5.8616077,15.2006942 C6.09817532,15.4583077 6.0872135,15.8647158 5.83725226,16.1085312 C4.88093655,17.0403586 5.36046307,17.8280894 5.38116769,17.8611737 L8.73390947,23.7128762 C8.96865012,23.6233464 9.2307922,23.4251582 9.56265531,23.1739765 C9.95997755,22.8734011 10.4544254,22.4992939 11.1604743,22.0953904 C12.0367182,21.5942795 12.8487189,21.2606229 13.9627464,21.2606229 C15.2271777,21.2606229 16.1694887,21.7067014 16.8493553,22.0953937 C17.5554042,22.4992939 18.049852,22.8734043 18.4471743,23.1739797 C18.7790374,23.4251646 19.0411794,23.6233496 19.2698312,23.7141349 L22.6143517,17.8848526 C22.6271404,17.8625866 22.6411451,17.8412647 22.6563688,17.8208803 C22.6929051,17.7638088 23.0719608,17.1149951 22.0824572,16.1010075 C21.8385817,15.8507634 21.8373658,15.4440407 22.0803247,15.1927016 C22.3232867,14.9412053 22.718174,14.9404218 22.962352,15.1903511 C24.3756657,16.6389695 24.0571994,18.0076241 23.6726628,18.564869 L20.3497605,24.3654566 C20.1183682,24.7690421 19.7058223,25 19.2743987,25 L19.2743987,25 Z" id="Shape"></path>
                <path d="M20.0001223,27 C19.7443632,27 19.4886016,26.9028986 19.2937956,26.7085781 C19.1043524,26.5196374 19,26.2679577 19,26.000016 C19,25.7320742 19.1043524,25.4803945 19.2940378,25.2913311 C19.6831629,24.9029305 20.3168346,24.9028078 20.7064491,25.2914538 C20.8958923,25.48064 21,25.732197 21,26.000016 C21,26.267835 20.8958923,26.5193919 20.7064491,26.7085781 C20.5116431,26.9029011 20.255884,27 20.0001223,27 L20.0001223,27 Z" id="Shape"></path>
                <path d="M5.39399481,23 C5.18726675,23 4.98557315,22.8995193 4.87214022,22.7186529 L3.0853334,19.8701931 C2.91414678,19.5969968 3.00862469,19.2438379 3.2962073,19.0811008 C3.58467852,18.9183637 3.95667013,19.0083047 4.12785978,19.2813599 L5.9146666,22.1298198 C6.08585322,22.403016 5.99137531,22.7561749 5.7037927,22.918912 C5.60634871,22.973861 5.49943327,23 5.39399481,23 L5.39399481,23 Z" id="Shape"></path>
                <path d="M22.6059831,23 C22.5005599,23 22.3936569,22.9738619 22.2962331,22.918774 C22.008395,22.7561839 21.9142249,22.402897 22.0853898,22.1298518 L23.8722349,19.2814966 C24.0433967,19.0084514 24.4153375,18.9180906 24.7037669,19.0813859 C24.991605,19.243976 25.0857751,19.5972629 24.9146102,19.8703081 L23.1277651,22.7186633 C23.0143456,22.899523 22.8126812,23 22.6059831,23 L22.6059831,23 Z" id="Shape"></path>
                <path d="M14.0090566,30 C12.3276746,30 11.0350531,29.4108547 10.2468435,28.9167298 C9.96175204,28.7378834 9.91704665,28.4134183 10.1470625,28.1917813 C10.3777252,27.9701442 10.7946703,27.9356586 11.0800836,28.1142524 C11.7020976,28.5041651 12.715138,28.9689621 14.0090566,28.9689621 C15.0130271,28.9689621 16.048095,28.6708015 16.9231278,28.1293571 C17.209513,27.9518948 17.6274302,27.9887725 17.855502,28.2115437 C18.083899,28.4343149 18.0362742,28.7585273 17.749889,28.9358632 C16.6406306,29.6220447 15.3120483,30 14.0090566,30 L14.0090566,30 Z" id="Shape"></path>
                <path d="M20.0021459,30 C18.6042882,30 17.1686932,29.229719 16.4393634,28.838399 L16.274327,28.7501829 C14.9989745,28.0734598 13.5487004,28.1302347 13.5337239,28.1305411 L13.50497,28.1317632 L13.4750169,28.130391 C13.4612396,28.1300847 11.9906001,28.0711749 10.7158457,28.7475917 L10.5948403,28.8119964 C9.33566051,29.4842934 5.99212501,31.269809 4.31871177,28.3822149 C2.95589848,26.0291001 0.907485847,21.9028319 0.734962694,21.5543963 C0.502833943,21.160482 -1.43924922,17.564114 2.13072254,13.1835777 L2.13072254,9.98173663 C2.13072254,4.47775451 6.54533698,-1.42108547e-14 11.9717315,-1.42108547e-14 L15.0474957,-1.42108547e-14 C20.4738871,-1.42108547e-14 24.8885046,4.47775451 24.8885046,9.98173663 L24.8885046,13.1822055 C26.7985399,15.5102898 27.0845817,17.6323352 26.9818469,19.016763 C26.8761155,20.4388866 26.3498601,21.3906355 26.2327498,21.5867534 C26.0530374,21.9515175 24.0157062,26.0756509 22.6555888,28.4241865 C21.967591,29.6117338 20.9941556,30 20.0021459,30 L20.0021459,30 Z M13.6385566,26.878439 C14.1117976,26.878439 15.5246288,26.9425406 16.8410188,27.6412403 L17.010846,27.7322039 C18.8418089,28.7143219 20.6649814,29.4009658 21.5988822,27.7886725 C22.9943415,25.3795455 25.1269209,21.0447973 25.1484855,21.0013003 L25.1832294,20.9393367 C25.2626023,20.8123558 27.1330999,17.7161285 23.8120307,13.8226081 L23.6616733,13.6461789 L23.6616733,9.98174288 C23.6616733,5.16715219 19.7972743,1.25027975 15.0474957,1.25027975 L11.9717315,1.25027975 C7.22195285,1.25027975 3.35755385,5.16715219 3.35755385,9.98174288 L3.35755385,13.6446535 L3.20899071,13.8206264 C-0.0863211218,17.7181165 1.7128914,20.7893133 1.79106509,20.9181258 L1.81922087,20.9689495 C1.8407855,21.0122933 3.97965547,25.3369706 5.37541531,27.7467071 C6.32429265,29.3847904 8.17112769,28.6946363 10.0257531,27.7044322 L10.1491539,27.6386522 C11.6335708,26.8508205 13.2575672,26.8726471 13.5055681,26.8804301 C13.5334264,26.879508 13.5783529,26.878439 13.6385566,26.878439 L13.6385566,26.878439 Z" id="Shape"></path>
                <path d="M24.3783784,13 L2.62162162,13 C2.27833419,13 2,12.7761225 2,12.5 C2,12.2238775 2.27833419,12 2.62162162,12 L24.3783784,12 C24.7216658,12 25,12.2238775 25,12.5 C25,12.7761225 24.7216689,13 24.3783784,13 L24.3783784,13 Z" id="Shape"></path>
                <path d="M24.3783784,11 L2.62162162,11 C2.27833419,11 2,10.7761225 2,10.5 C2,10.2238775 2.27833419,10 2.62162162,10 L24.3783784,10 C24.7216658,10 25,10.2238775 25,10.5 C25,10.7761225 24.7216689,11 24.3783784,11 L24.3783784,11 Z" id="Shape"></path>
                <path d="M20.2566342,17 C18.6256388,17 17.359363,16.3329159 16.2419691,15.7444314 C15.4052245,15.3037105 14.6828163,14.9231538 14.0001534,14.9231538 C13.3168769,14.9231538 12.5926374,15.3038539 11.7537514,15.7447182 C10.6342194,16.3330593 9.36519191,17 7.73450013,17 C5.23557679,17 4.09433766,14.8019706 3.41259199,13.4888103 C3.2930557,13.258303 3.18330545,13.0465178 3.07813831,12.868457 C2.91091147,12.5853596 3.02096851,12.2293844 3.32362849,12.0730456 C3.62659213,11.9168502 4.00690499,12.0193142 4.1744355,12.302552 C4.29213729,12.502048 4.41197725,12.7329827 4.53915517,12.9776377 C5.34899915,14.5378793 6.14875029,15.8293176 7.73450013,15.8293176 C9.03715582,15.8293176 10.1062455,15.2675569 11.1401794,14.7242285 C12.0909568,14.2244876 12.9891507,13.7524714 14.0001534,13.7524714 C15.0111561,13.7524714 15.9075155,14.2246311 16.8564584,14.7245154 C17.8879442,15.2677003 18.9539785,15.8293176 20.2566342,15.8293176 C21.8463567,15.8293176 22.6497799,14.534736 23.4639034,12.9706341 C23.5932226,12.722549 23.7121453,12.4947576 23.8255645,12.3026925 C23.9930981,12.0197386 24.3734079,11.9169907 24.6763715,12.0731861 C24.9790315,12.2295248 25.0890885,12.585503 24.9218617,12.8685974 C24.8176118,13.0450866 24.7087788,13.25487 24.589853,13.4829481 C23.9050519,14.7983971 22.7586161,17 20.2566342,17 L20.2566342,17 Z" id="Shape"></path>
            </g>
        </g>
    </g>
</svg>