<?xml version="1.0" encoding="UTF-8" standalone="no"?>
<svg width="40px" height="40px" viewBox="0 0 40 40" version="1.1" xmlns="http://www.w3.org/2000/svg" xmlns:xlink="http://www.w3.org/1999/xlink">
    <!-- Generator: Sketch 46.1 (44463) - http://www.bohemiancoding.com/sketch -->
    <title>handicapcar</title>
    <desc>Created with Sketch.</desc>
    <defs></defs>
    <g id="Icons" stroke="none" stroke-width="1" fill="none" fill-rule="evenodd">
        <g id="Automotive" transform="translate(-697.000000, -689.000000)" fill="#231F20">
            <g id="Handicap-Car" transform="translate(702.000000, 697.000000)">
                <g>
                    <path d="M7.15384615,20.4011414 C7.15384615,21.0641414 6.62028846,21.6011414 5.96153846,21.6011414 C5.30278846,21.6011414 4.76923077,21.0641414 4.76923077,20.4011414 C4.76923077,19.7381414 5.30278846,19.2011414 5.96153846,19.2011414 C6.62028846,19.2011414 7.15384615,19.7381414 7.15384615,20.4011414 L7.15384615,20.4011414 Z M25.0384615,19.2011414 C24.3797115,19.2011414 23.8461538,19.7381414 23.8461538,20.4011414 C23.8461538,21.0641414 24.3797115,21.6011414 25.0384615,21.6011414 C25.6972115,21.6011414 26.2307692,21.0641414 26.2307692,20.4011414 C26.2307692,19.7381414 25.6972115,19.2011414 25.0384615,19.2011414 L25.0384615,19.2011414 Z M5.36538462,14.4011414 L7.75,14.4011414 C8.07967308,14.4011414 8.34615385,14.1323414 8.34615385,13.8011414 C8.34615385,13.4699414 8.07967308,13.2011414 7.75,13.2011414 L5.36538462,13.2011414 C5.03571154,13.2011414 4.76923077,13.4699414 4.76923077,13.8011414 C4.76923077,14.1323414 5.03571154,14.4011414 5.36538462,14.4011414 L5.36538462,14.4011414 Z M7.75,11.4011414 C7.75,11.7323414 8.01648077,12.0011414 8.34615385,12.0011414 C13.1738077,12.0011414 17.8267885,12.3809414 22.1763269,13.1291414 C22.2103077,13.1345414 22.2436923,13.1375414 22.2770769,13.1375414 C22.4428077,13.1375414 22.6031731,13.0679414 22.7170385,12.9425414 C22.8541538,12.7913414 22.9054231,12.5807414 22.8535577,12.3833414 C21.4257692,6.96654136 16.0287885,3.60174136 8.76763462,3.60174136 C8.29488462,3.60174136 7.81080769,3.61554136 7.32076923,3.64254136 C7.10019231,3.65454136 6.90405769,3.78894136 6.81165385,3.99114136 C5.76719231,6.28014136 5.11976923,8.77194136 4.88846154,11.3963414 C4.85925,11.7269414 5.10188462,12.0179414 5.42976923,12.0473414 C5.75467308,12.0743414 6.04738462,11.8325414 6.076,11.5025414 C6.28405769,9.14154136 6.84623077,6.89574136 7.74761538,4.82274136 C14.6546538,4.54614136 19.7005,7.16274136 21.4156346,11.7869414 C17.2783269,11.1323414 12.8870577,10.8011414 8.34615385,10.8011414 C8.01648077,10.8011414 7.75,11.0699414 7.75,11.4011414 L7.75,11.4011414 Z M31,18.6149414 L31,20.0213414 C31,20.2439414 30.8771923,20.4485414 30.6816538,20.5523414 L28.3441346,21.7913414 C28.34175,21.7925414 28.3387692,21.7925414 28.3363846,21.7937414 C27.7944808,23.0897414 26.5205,24.0011414 25.0384615,24.0011414 C23.0657885,24.0011414 21.4615385,22.3865414 21.4615385,20.4011414 C21.4615385,18.4163414 23.0657885,16.8011414 25.0384615,16.8011414 C26.9747692,16.8011414 28.5527885,18.3587414 28.6100192,20.2943414 L29.8076923,19.6595414 L29.8076923,18.6149414 C29.8076923,17.6561414 29.4130385,16.7213414 28.7244808,16.0505414 L25.7115192,13.1123414 C25.6220962,13.0253414 25.5624808,12.9119414 25.5404231,12.7889414 C24.0643462,4.67034136 16.2040577,0.21474136 5.47686538,1.38534136 C3.56917308,4.83414136 2.50861538,8.74314136 2.40607692,12.7103414 C2.40071154,12.9119414 2.29638462,13.0913414 2.13721154,13.1963414 C1.52675,13.8395414 1.19230769,14.6759414 1.19230769,15.5639414 L1.19230769,20.4137414 C1.19230769,20.7449414 0.925826923,21.0137414 0.596153846,21.0137414 C0.266480769,21.0137414 0,20.7449414 0,20.4137414 L0,15.5639414 C0,14.3909414 0.432807692,13.2839414 1.22211538,12.4241414 C1.37115385,8.24514136 2.53365385,4.13634136 4.59098077,0.52494136 C4.68457692,0.35994136 4.85090385,0.25014136 5.03809615,0.22794136 C10.9078269,-0.46745864 16.0729038,0.43554136 19.9759231,2.83734136 C23.5260192,5.02254136 25.8999038,8.40654136 26.6772885,12.3827414 L29.5543269,15.1883414 C30.473,16.0847414 31,17.3333414 31,18.6149414 L31,18.6149414 Z M27.4230769,20.4011414 C27.4230769,19.0781414 26.3535769,18.0011414 25.0384615,18.0011414 C23.7233462,18.0011414 22.6538462,19.0781414 22.6538462,20.4011414 C22.6538462,21.7247414 23.7233462,22.8011414 25.0384615,22.8011414 C26.3535769,22.8011414 27.4230769,21.7247414 27.4230769,20.4011414 L27.4230769,20.4011414 Z M20.2692308,21.6011414 C20.2692308,21.9323414 20.00275,22.2011414 19.6730769,22.2011414 L9.05438462,22.2011414 C8.43498077,23.2757414 7.28201923,24.0011414 5.96153846,24.0011414 C3.98886538,24.0011414 2.38461538,22.3865414 2.38461538,20.4011414 C2.38461538,18.4163414 3.98886538,16.8011414 5.96153846,16.8011414 C7.93421154,16.8011414 9.53846154,18.4163414 9.53846154,20.4011414 C9.53846154,20.6063414 9.51759615,20.8055414 9.48480769,21.0011414 L19.6730769,21.0011414 C20.00275,21.0011414 20.2692308,21.2699414 20.2692308,21.6011414 L20.2692308,21.6011414 Z M8.34615385,20.4011414 C8.34615385,19.0781414 7.27665385,18.0011414 5.96153846,18.0011414 C4.64642308,18.0011414 3.57692308,19.0781414 3.57692308,20.4011414 C3.57692308,21.7247414 4.64642308,22.8011414 5.96153846,22.8011414 C7.27665385,22.8011414 8.34615385,21.7247414 8.34615385,20.4011414 L8.34615385,20.4011414 Z"></path>
                </g>
            </g>
        </g>
    </g>
</svg>