<?xml version="1.0" encoding="UTF-8" standalone="no"?>
<svg width="40px" height="40px" viewBox="0 0 40 40" version="1.1" xmlns="http://www.w3.org/2000/svg" xmlns:xlink="http://www.w3.org/1999/xlink">
    <!-- Generator: Sketch 46.1 (44463) - http://www.bohemiancoding.com/sketch -->
    <title>happy</title>
    <desc>Created with Sketch.</desc>
    <defs></defs>
    <g id="Page-1" stroke="none" stroke-width="1" fill="none" fill-rule="evenodd">
        <g id="50-Emoji-Icons" transform="translate(-675.000000, -869.000000)" fill="#000000">
            <g id="happy" transform="translate(681.000000, 875.000000)">
                <path d="M13.9998108,0 C6.28032432,0 0,6.28032432 0,13.9998108 C0,21.7192973 6.28032432,27.9996216 13.9998108,27.9996216 C21.7192973,27.9996216 27.9996216,21.7192973 27.9996216,13.9998108 C27.9996216,6.28032432 21.7192973,0 13.9998108,0 L13.9998108,0 Z M13.9998108,26.4861081 C10.5700946,26.4861081 7.45925676,25.0959459 5.20043243,22.8498919 C4.29837838,21.9529459 3.53263514,20.9192162 2.93640541,19.7831351 C2.0282973,18.0530946 1.51351351,16.085527 1.51351351,13.9998108 C1.51351351,7.11483784 7.11483784,1.51351351 13.9998108,1.51351351 C17.2655,1.51351351 20.2418243,2.77427027 22.4691486,4.83397297 C23.6239595,5.90175676 24.5775676,7.18408108 25.2651757,8.61737838 C26.047473,10.2480946 26.4861081,12.0736757 26.4861081,13.9998108 C26.4861081,20.8847838 20.8847838,26.4861081 13.9998108,26.4861081 L13.9998108,26.4861081 Z" id="Shape"></path>
                <path d="M22.7023243,13.9997162 L21.1888108,13.9997162 C21.1888108,17.9726892 17.9637973,21.1887162 13.9998108,21.1887162 C10.0358243,21.1887162 6.81081081,17.9726892 6.81081081,13.9997162 L5.2972973,13.9997162 C5.2972973,18.8240405 9.20131081,22.7022297 13.9998108,22.7022297 C18.7984054,22.7022297 22.7023243,18.8240405 22.7023243,13.9997162 L22.7023243,13.9997162 Z" id="Shape"></path>
                <circle id="Oval" cx="9.33327027" cy="10.8781892" r="1.51351351"></circle>
                <circle id="Oval" cx="18.6981351" cy="10.8781892" r="1.51351351"></circle>
            </g>
        </g>
    </g>
</svg>