<?xml version="1.0" encoding="UTF-8" standalone="no"?>
<svg width="40px" height="40px" viewBox="0 0 40 40" version="1.1" xmlns="http://www.w3.org/2000/svg" xmlns:xlink="http://www.w3.org/1999/xlink">
    <!-- Generator: Sketch 46.1 (44463) - http://www.bohemiancoding.com/sketch -->
    <title>happy01</title>
    <desc>Created with Sketch.</desc>
    <defs></defs>
    <g id="Page-1" stroke="none" stroke-width="1" fill="none" fill-rule="evenodd">
        <g id="50-Emoji-Icons" transform="translate(-1740.000000, -869.000000)" fill="#000000">
            <g id="happy-1" transform="translate(1747.000000, 875.000000)">
                <path d="M13.9998108,0 C6.28032432,0 0,6.28032432 0,13.9998108 C0,21.7192973 6.28032432,27.9996216 13.9998108,27.9996216 C21.7192973,27.9996216 27.9996216,21.7192973 27.9996216,13.9998108 C27.9996216,6.28032432 21.7193919,0 13.9998108,0 L13.9998108,0 Z M13.9998108,26.4861081 C10.5701892,26.4861081 7.45925676,25.0959459 5.20043243,22.8498919 C4.29837838,21.9529459 3.53263514,20.9192162 2.93640541,19.7831351 C2.0282973,18.0530946 1.51351351,16.085527 1.51351351,13.9998108 C1.51351351,7.11483784 7.11483784,1.51351351 13.9998108,1.51351351 C17.2655,1.51351351 20.2418243,2.77427027 22.4691486,4.83397297 C23.6239595,5.90175676 24.5775676,7.18408108 25.2651757,8.61737838 C26.047473,10.2480946 26.4861081,12.0736757 26.4861081,13.9998108 C26.4861081,20.8847838 20.8847838,26.4861081 13.9998108,26.4861081 L13.9998108,26.4861081 Z" id="Shape"></path>
                <path d="M22.5129459,13.9997162 L5.48648649,13.9997162 C5.48648649,18.7014459 9.29798649,22.5130405 13.9998108,22.5130405 C18.7014459,22.5130405 22.5129459,18.7014459 22.5129459,13.9997162 L22.5129459,13.9997162 Z M20.810527,15.5132297 L20.8226351,15.5132297 C20.1290676,18.648 17.3339865,20.999527 13.9938514,20.999527 C10.653527,20.999527 7.85835135,18.648 7.16487838,15.5132297 L20.810527,15.5132297 L20.810527,15.5132297 Z" id="Shape"></path>
                <circle id="Oval" cx="9.31728378" cy="10.216027" r="1.51351351"></circle>
                <circle id="Oval" cx="18.6821486" cy="10.216027" r="1.51351351"></circle>
            </g>
        </g>
    </g>
</svg>