<?xml version="1.0" encoding="UTF-8" standalone="no"?>
<svg width="40px" height="40px" viewBox="0 0 40 40" version="1.1" xmlns="http://www.w3.org/2000/svg" xmlns:xlink="http://www.w3.org/1999/xlink">
    <!-- Generator: Sketch 46.1 (44463) - http://www.bohemiancoding.com/sketch -->
    <title>happy02</title>
    <desc>Created with Sketch.</desc>
    <defs></defs>
    <g id="Page-1" stroke="none" stroke-width="1" fill="none" fill-rule="evenodd">
        <g id="50-Emoji-Icons" transform="translate(-320.000000, -869.000000)" fill="#000000">
            <g id="happy-2" transform="translate(326.000000, 875.000000)">
                <path d="M13.9998108,0 C6.28032432,0 0,6.28032432 0,13.9998108 C0,21.7192973 6.28032432,27.9996216 13.9998108,27.9996216 C21.7192973,27.9996216 27.9996216,21.7192973 27.9996216,13.9998108 C27.9996216,6.28032432 21.7193919,0 13.9998108,0 L13.9998108,0 Z M13.9998108,26.4861081 C10.5701892,26.4861081 7.45925676,25.0959459 5.20043243,22.8498919 C4.29837838,21.9529459 3.53263514,20.9192162 2.93640541,19.7831351 C2.0282973,18.0530946 1.51351351,16.0856216 1.51351351,13.9998108 C1.51351351,7.11483784 7.11483784,1.51351351 13.9998108,1.51351351 C17.2655,1.51351351 20.2418243,2.77427027 22.4691486,4.83397297 C23.6239595,5.90175676 24.5775676,7.18408108 25.2651757,8.61747297 C26.047473,10.2480946 26.4861081,12.0736757 26.4861081,13.9998108 C26.4861081,20.8847838 20.8847838,26.4861081 13.9998108,26.4861081 L13.9998108,26.4861081 Z" id="Shape"></path>
                <path d="M10.3642568,11.8748378 C10.6512568,11.5993784 10.8307973,11.2127703 10.8307973,10.7835946 C10.8307973,9.94775676 10.1531216,9.27008108 9.31728378,9.27008108 C8.48144595,9.27008108 7.80377027,9.94775676 7.80377027,10.7835946 C7.80377027,11.2127703 7.98321622,11.599473 8.27040541,11.8748378 C8.54227027,12.1359189 8.91071622,12.2971081 9.31728378,12.2971081 C9.72385135,12.2971081 10.0922973,12.1359189 10.3642568,11.8748378 L10.3642568,11.8748378 Z" id="Shape"></path>
                <path d="M19.7292162,11.8748378 C20.0162162,11.5993784 20.1957568,11.2127703 20.1957568,10.7835946 C20.1957568,9.94775676 19.5180811,9.27008108 18.6822432,9.27008108 C17.8464054,9.27008108 17.1687297,9.94775676 17.1687297,10.7835946 C17.1687297,11.2127703 17.3482703,11.599473 17.6353649,11.8748378 C17.9072297,12.1359189 18.2756757,12.2971081 18.6822432,12.2971081 C19.0888108,12.2971081 19.4572568,12.1359189 19.7292162,11.8748378 L19.7292162,11.8748378 Z" id="Shape"></path>
                <path d="M18.0357838,17.8780946 L18.0357838,17.1213378 L9.90064865,17.1213378 L9.90064865,17.8780946 C9.90064865,20.1099595 11.7363514,21.9256081 13.9682162,21.9256081 C16.2000811,21.9256081 18.0357838,20.1099595 18.0357838,17.8780946 L18.0357838,17.8780946 Z M16.4068649,18.6348514 C16.0842973,19.6636622 15.1220811,20.4120946 13.9882703,20.4120946 C12.8544595,20.4120946 11.8922432,19.6636622 11.5696757,18.6348514 L16.4068649,18.6348514 L16.4068649,18.6348514 Z" id="Shape"></path>
            </g>
        </g>
    </g>
</svg>