<?xml version="1.0" encoding="UTF-8" standalone="no"?>
<svg width="40px" height="40px" viewBox="0 0 40 40" version="1.1" xmlns="http://www.w3.org/2000/svg" xmlns:xlink="http://www.w3.org/1999/xlink">
    <!-- Generator: Sketch 46.1 (44463) - http://www.bohemiancoding.com/sketch -->
    <title>happiness</title>
    <desc>Created with Sketch.</desc>
    <defs></defs>
    <g id="Page-1" stroke="none" stroke-width="1" fill="none" fill-rule="evenodd">
        <g id="50-Emoji-Icons" transform="translate(-1385.000000, -569.000000)" fill="#000000">
            <g id="happiness" transform="translate(1391.000000, 575.000000)">
                <path d="M13.9998108,0 C6.28032432,0 0,6.28032432 0,13.9998108 C0,21.7192973 6.28032432,27.9996216 13.9998108,27.9996216 C21.7192973,27.9996216 27.9996216,21.7192973 27.9996216,13.9998108 C27.9996216,6.28032432 21.7193919,0 13.9998108,0 L13.9998108,0 Z M13.9998108,26.4861081 C10.5700946,26.4861081 7.45925676,25.0959459 5.20033784,22.8498919 C4.29828378,21.9529459 3.53254054,20.9192162 2.93631081,19.7831351 C2.0282973,18.0530946 1.51351351,16.085527 1.51351351,13.9998108 C1.51351351,7.11483784 7.11483784,1.51351351 13.9998108,1.51351351 C17.2655,1.51351351 20.2418243,2.77427027 22.4691486,4.83397297 C23.6239595,5.90175676 24.5775676,7.18408108 25.2651757,8.61737838 C26.047473,10.2480946 26.4861081,12.0736757 26.4861081,13.9998108 C26.4861081,20.8847838 20.8847838,26.4861081 13.9998108,26.4861081 L13.9998108,26.4861081 Z" id="Shape"></path>
                <path d="M10.6898514,14.9081081 L12.2033649,14.9081081 C12.2033649,11.7179318 10.8625811,9.30810811 9.21445946,9.30810811 C7.56633784,9.30810811 6.22555405,11.7179318 6.22555405,14.9081081 L7.73906757,14.9081081 C7.73906757,13.31302 8.40104054,11.1438204 9.21445946,11.1438204 C10.027973,11.1438204 10.6898514,13.31302 10.6898514,14.9081081 Z" id="Shape"></path>
                <path d="M20.2603649,14.9081081 L21.7738784,14.9081081 C21.7738784,11.7179318 20.4330946,9.30810811 18.784973,9.30810811 C17.1368514,9.30810811 15.7960676,11.7179318 15.7960676,14.9081081 L17.3095811,14.9081081 C17.3095811,13.31302 17.9714595,11.1438204 18.784973,11.1438204 C19.5984865,11.1438204 20.2603649,13.31302 20.2603649,14.9081081 Z" id="Shape"></path>
                <path d="M13.9730405,22.5511622 C16.9011216,22.5511622 19.7072703,20.8060197 21.3139595,17.90851 L20.0427027,16.9511622 C18.5674054,19.6118705 15.8678649,21.0968401 13.1663378,20.7333698 C11.060473,20.4503767 9.11305405,19.0364034 7.95682432,16.9511622 L6.68566216,17.90851 C8.08471622,20.4318559 10.4425811,22.1428231 12.9928514,22.4855677 C13.3202432,22.5296648 13.6471622,22.5511622 13.9730405,22.5511622 L13.9730405,22.5511622 Z" id="Shape"></path>
            </g>
        </g>
    </g>
</svg>