<?xml version="1.0" encoding="UTF-8" standalone="no"?>
<svg width="40px" height="40px" viewBox="0 0 40 40" version="1.1" xmlns="http://www.w3.org/2000/svg" xmlns:xlink="http://www.w3.org/1999/xlink">
    <!-- Generator: Sketch 46.1 (44463) - http://www.bohemiancoding.com/sketch -->
    <title>happiness01</title>
    <desc>Created with Sketch.</desc>
    <defs></defs>
    <g id="Page-1" stroke="none" stroke-width="1" fill="none" fill-rule="evenodd">
        <g id="50-Emoji-Icons" transform="translate(-1030.000000, -569.000000)" fill="#000000">
            <g id="happiness-1" transform="translate(1036.000000, 575.000000)">
                <path d="M13.9998108,0 C6.28032432,0 0,6.28032432 0,13.9998108 C0,21.7192973 6.28032432,27.9996216 13.9998108,27.9996216 C21.7192973,27.9996216 27.9996216,21.7192973 27.9996216,13.9998108 C27.9996216,6.28032432 21.7193919,0 13.9998108,0 L13.9998108,0 Z M13.9998108,26.4861081 C10.5701892,26.4861081 7.45925676,25.0959459 5.20043243,22.8498919 C4.29837838,21.9529459 3.53263514,20.9192162 2.93640541,19.7831351 C2.0282973,18.0530946 1.51351351,16.085527 1.51351351,13.9998108 C1.51351351,7.11483784 7.11483784,1.51351351 13.9998108,1.51351351 C17.2655,1.51351351 20.2418243,2.77427027 22.4691486,4.83397297 C23.6239595,5.90175676 24.5775676,7.18408108 25.2651757,8.61737838 C26.047473,10.2480946 26.4861081,12.0736757 26.4861081,13.9998108 C26.4861081,20.8847838 20.8847838,26.4861081 13.9998108,26.4861081 L13.9998108,26.4861081 Z" id="Shape"></path>
                <circle id="Oval" cx="9.41435135" cy="10.8646757" r="1.5"></circle>
                <circle id="Oval" cx="18.7792162" cy="10.8646757" r="1.5"></circle>
                <path d="M13.9730405,22.5511622 C16.9011216,22.5511622 19.7072703,20.8060197 21.3139595,17.90851 L20.0427027,16.9511622 C18.5673108,19.6118705 15.8686216,21.0967298 13.1663378,20.7333698 C11.060473,20.4503767 9.11305405,19.0364034 7.95682432,16.9511622 L6.68566216,17.90851 C8.08471622,20.4318559 10.4425811,22.1428231 12.9928514,22.485678 C13.3202432,22.5296648 13.6471622,22.5511622 13.9730405,22.5511622 L13.9730405,22.5511622 Z" id="Shape"></path>
            </g>
        </g>
    </g>
</svg>