<?xml version="1.0" encoding="UTF-8" standalone="no"?>
<svg width="40px" height="40px" viewBox="0 0 40 40" version="1.1" xmlns="http://www.w3.org/2000/svg" xmlns:xlink="http://www.w3.org/1999/xlink">
    <!-- Generator: Sketch 46.1 (44463) - http://www.bohemiancoding.com/sketch -->
    <title>headlight</title>
    <desc>Created with Sketch.</desc>
    <defs></defs>
    <g id="Icons" stroke="none" stroke-width="1" fill="none" fill-rule="evenodd">
        <g id="Automotive" transform="translate(-352.000000, -539.000000)" fill="#231F20">
            <g id="Headlight" transform="translate(356.000000, 548.000000)">
                <g>
                    <path d="M6.48837209,5.75 C6.48837209,6.14675 6.16539535,6.46875 5.76744186,6.46875 L1.44186047,6.46875 C1.04390698,6.46875 0.720930233,6.14675 0.720930233,5.75 C0.720930233,5.35325 1.04390698,5.03125 1.44186047,5.03125 L5.76744186,5.03125 C6.16539535,5.03125 6.48837209,5.35325 6.48837209,5.75 L6.48837209,5.75 Z M5.04651163,12.21875 C5.44446512,12.21875 5.76744186,11.89675 5.76744186,11.5 C5.76744186,11.10325 5.44446512,10.78125 5.04651163,10.78125 L0.720930233,10.78125 C0.322976744,10.78125 0,11.10325 0,11.5 C0,11.89675 0.322976744,12.21875 0.720930233,12.21875 L5.04651163,12.21875 L5.04651163,12.21875 Z M5.76744186,16.53125 L1.44186047,16.53125 C1.04390698,16.53125 0.720930233,16.85325 0.720930233,17.25 C0.720930233,17.64675 1.04390698,17.96875 1.44186047,17.96875 L5.76744186,17.96875 C6.16539535,17.96875 6.48837209,17.64675 6.48837209,17.25 C6.48837209,16.85325 6.16539535,16.53125 5.76744186,16.53125 L5.76744186,16.53125 Z M15.8604651,3.59375 C15.4625116,3.59375 15.1395349,3.91575 15.1395349,4.3125 L15.1395349,18.6875 C15.1395349,19.08425 15.4625116,19.40625 15.8604651,19.40625 C16.2584186,19.40625 16.5813953,19.08425 16.5813953,18.6875 L16.5813953,4.3125 C16.5813953,3.91575 16.2584186,3.59375 15.8604651,3.59375 L15.8604651,3.59375 Z M31,11.5 C31,17.8415312 24.2088372,23 15.8604651,23 C14.0667907,23 12.2853721,22.75275 10.5652326,22.2661562 C10.3583256,22.2072187 10.188186,22.059875 10.1016744,21.8629375 C8.66125581,18.581125 7.93023256,15.0944687 7.93023256,11.5 C7.93023256,7.90553125 8.66125581,4.418875 10.1016744,1.1370625 C10.188186,0.940125 10.3583256,0.79278125 10.5652326,0.73384375 C12.2846512,0.24725 14.0660698,0 15.8604651,0 C24.2088372,0 31,5.1591875 31,11.5 L31,11.5 Z M29.5581395,11.5 C29.5581395,5.95196875 23.4129302,1.4375 15.8604651,1.4375 C14.3126279,1.4375 12.7763256,1.635875 11.2876047,2.02759375 C10.0166047,5.03484375 9.37209302,8.219625 9.37209302,11.5 C9.37209302,14.780375 10.0166047,17.9651563 11.2876047,20.9724062 C12.7770465,21.364125 14.3140698,21.5625 15.8604651,21.5625 C23.4129302,21.5625 29.5581395,17.04875 29.5581395,11.5 L29.5581395,11.5 Z"></path>
                </g>
            </g>
        </g>
    </g>
</svg>