<?xml version="1.0" encoding="UTF-8" standalone="no"?>
<svg width="40px" height="40px" viewBox="0 0 40 40" version="1.1" xmlns="http://www.w3.org/2000/svg" xmlns:xlink="http://www.w3.org/1999/xlink">
    <!-- Generator: Sketch 46.1 (44463) - http://www.bohemiancoding.com/sketch -->
    <title>hilarious</title>
    <desc>Created with Sketch.</desc>
    <defs></defs>
    <g id="Page-1" stroke="none" stroke-width="1" fill="none" fill-rule="evenodd">
        <g id="50-Emoji-Icons" transform="translate(-1030.000000, -869.000000)" fill="#000000">
            <g id="hilarious" transform="translate(1036.000000, 875.000000)">
                <path d="M27.7061879,15.638094 C27.7769396,15.0707651 27.8138658,14.4931007 27.8138658,13.9069799 C27.8138658,6.23930201 21.5756913,0.00112751678 13.9080134,0.00112751678 C6.24024161,0.00112751678 0.00216107383,6.23930201 0.00216107383,13.9069799 C0.00216107383,14.4198121 0.0310067114,14.9259732 0.0853154362,15.4245235 C-0.147704698,16.5133289 0.0963087248,17.6839732 0.817825503,18.5996107 C2.74719463,23.9651812 7.88641611,27.8128322 13.9080134,27.8128322 C19.9717987,27.8128322 25.1407114,23.9110604 27.0381342,18.4864832 C27.6376913,17.649302 27.8602819,16.6190336 27.7061879,15.638094 L27.7061879,15.638094 Z M13.9080134,26.3094765 C10.5014094,26.3094765 7.4113557,24.9286443 5.16769128,22.6976644 C4.36302013,21.8974094 3.6675302,20.9877852 3.10508725,19.9932215 C3.34055034,20.0379463 3.58174497,20.0614362 3.82669799,20.0614362 C4.8498255,20.0614362 5.81150336,19.6631409 6.53489933,18.939745 C6.71530201,18.7592483 6.87634899,18.5328054 7.01973154,18.2617315 C8.29861745,20.7670738 10.9019597,22.483906 13.9080134,22.483906 C16.8855973,22.483906 19.4684564,20.799396 20.7600268,18.3323893 C20.8967383,18.5828859 21.049047,18.7937315 21.2184564,18.9631409 C21.6140268,19.3586174 22.0811946,19.6632349 22.5903624,19.8587651 C23.0123356,20.0208456 23.4630604,20.1082282 23.9266577,20.1082282 L23.9269396,20.1082282 C24.1867383,20.1082282 24.4424966,20.080698 24.6914899,20.0282685 C22.5553154,23.7765101 18.522094,26.3094765 13.9080134,26.3094765 L13.9080134,26.3094765 Z M25.5714228,17.9001745 C25.1321611,18.3395302 24.5481074,18.6048725 23.9268456,18.6048725 L23.9266577,18.6048725 C23.3051141,18.6048725 22.7208725,18.3395302 22.2815168,17.8999866 C21.7049799,17.3235436 21.431557,15.325396 21.3843893,13.7602148 C23.4589262,13.7842685 25.088,14.1149128 25.5713289,14.5983356 C26.4785101,15.5056107 26.4785101,16.9932752 25.5714228,17.9001745 L25.5714228,17.9001745 Z M25.0977718,8.5607651 C25.7845235,9.99214765 26.2044295,11.5749933 26.2927517,13.2442819 C26.0415973,13.0731812 25.743557,12.9303624 25.4135705,12.8114094 C24.2521342,12.3926309 22.6922148,12.2697315 21.3624966,12.2574228 L21.3622148,12.2439866 C21.3568591,10.6082416 20.0290201,9.27034899 18.3976913,9.27034899 C16.7629799,9.27034899 15.4331678,10.6183893 15.4331678,12.2157047 L16.9365235,12.2157047 C16.9365235,11.4640268 17.5919866,10.7737047 18.3976913,10.7737047 C19.203396,10.7737047 19.8588591,11.4656242 19.8588591,12.2769664 L19.8752081,12.9673826 L19.8774631,12.9673826 L19.8761477,13.0202819 C19.875396,13.0574899 19.8626174,13.7921611 19.9356242,14.7527114 L7.81679195,14.7527114 C7.89073826,13.7881208 7.87786577,13.0518523 7.87720805,13.0144564 L7.87598658,12.9674765 L7.87814765,12.9674765 L7.89430872,12.2910604 L7.89449664,12.2611812 C7.89449664,11.4498389 8.54995973,10.7774631 9.35566443,10.7774631 C10.1613691,10.7774631 10.8168322,11.4642148 10.8168322,12.2158926 L12.3201879,12.2158926 C12.3201879,10.6185772 10.9746846,9.27053691 9.34006711,9.27053691 C7.70873826,9.27053691 6.35994631,10.6172617 6.35994631,12.2530067 L6.35994631,12.2568591 C5.23242953,12.2672886 3.95288591,12.3576779 2.87685906,12.6407785 C2.35519463,12.7779597 1.89319463,12.9607114 1.51838926,13.2015302 C1.88530201,6.68965101 7.3021745,1.50448322 13.9040671,1.50448322 C17.1478389,1.50448322 20.1061611,2.75677852 22.3185369,4.80265772 C23.4656913,5.86327517 24.4147785,7.13689933 25.0977718,8.5607651 L25.0977718,8.5607651 Z M19.9369396,16.2558792 C19.2626846,18.9662416 16.816255,20.9804564 13.9004027,20.9804564 C10.9843624,20.9804564 8.53783893,18.9661477 7.86358389,16.2558792 L19.9214362,16.2558792 L19.9369396,16.2558792 L19.9369396,16.2558792 Z M2.18183893,14.5866846 C2.66516779,14.1031678 4.29442953,13.7841745 6.36915436,13.7601208 C6.32283221,15.3245503 6.04959732,17.2986443 5.47165101,17.8765906 C5.0322953,18.3160403 4.44795973,18.5579866 3.82651007,18.5579866 C3.20515436,18.5579866 2.62100671,18.3161342 2.18174497,17.8767785 C1.27475168,16.9697852 1.27475168,15.4938658 2.18183893,14.5866846 L2.18183893,14.5866846 Z" id="Shape"></path>
            </g>
        </g>
    </g>
</svg>