<?xml version="1.0" encoding="UTF-8" standalone="no"?>
<svg width="40px" height="40px" viewBox="0 0 40 40" version="1.1" xmlns="http://www.w3.org/2000/svg" xmlns:xlink="http://www.w3.org/1999/xlink">
    <!-- Generator: Sketch 46.1 (44463) - http://www.bohemiancoding.com/sketch -->
    <title>hot_dog</title>
    <desc>Created with Sketch.</desc>
    <defs></defs>
    <g id="Page-1" stroke="none" stroke-width="1" fill="none" fill-rule="evenodd">
        <g id="30-Fast-Food-Icons" transform="translate(-455.000000, -642.000000)" fill="#000000">
            <g id="hot_dog" transform="translate(455.000000, 642.000000)">
                <path d="M33.4395389,12.0291714 L33.4159348,12.003255 C33.1914543,11.7787749 32.9571468,11.6275157 32.7182148,11.5330991 L32.9643726,11.2869417 C33.6516874,10.6000131 33.999873,9.88466316 33.999873,9.1612204 C33.999873,7.44784896 32.5520222,6 30.8386484,6 C30.1152047,6 29.3998539,6.34818513 28.7129243,7.03549911 L28.46773,7.28069312 C28.3702303,7.03906382 28.2116488,6.79974675 27.971368,6.55994797 C27.3679684,6.04335454 26.5709182,6 25.8708859,6 C25.8704042,6 25.8708859,6 25.8704042,6 C22.511868,6 18.1917269,8.5444298 13.3784994,13.3576509 C12.4969559,14.2391932 11.699424,15.0972277 10.9781962,15.9354155 L10.9677911,15.9354155 L10.9677911,15.9466877 C7.64528739,19.8084211 6.01274592,23.2221576 6.00002857,26.3201767 C5.99733095,26.9785877 6.18568259,27.5341039 6.560459,27.9708286 L6.58435221,27.9965523 C6.80883268,28.2205507 7.04179138,28.3731587 7.2798563,28.4684424 L7.03552905,28.7127693 C6.34821416,29.3996979 6.00002857,30.1150478 6.00002857,30.8385869 C6.00002857,32.5519584 7.44787945,33.9999037 9.1613495,33.9999037 C9.88479323,33.9999037 10.6001441,33.6517185 11.2870736,32.9644045 L11.5322679,32.7192105 C11.629864,32.9608398 11.7883491,33.2006386 12.0286299,33.4399557 C12.6315479,33.9565491 13.4290798,34 14.129112,34 L14.1295937,34 C18.3896165,34 23.2851214,29.9987613 26.6414417,26.6423491 C31.5775071,21.7062902 33.9846508,17.4661198 33.9999694,13.6798233 C34.0027633,13.0214123 33.8143154,12.4658961 33.4395389,12.0291714 L33.4395389,12.0291714 L33.4395389,12.0291714 Z M7.23524924,27.3702237 C7.00990167,27.1010402 6.90151517,26.758732 6.9033457,26.3243195 C6.9146179,23.6020397 8.31285185,20.5739659 11.1467011,17.1367216 C11.3666534,17.9757765 11.8575238,19.0868089 12.9544914,19.9091963 L13.4964239,19.1866207 C12.2802793,18.2743448 11.9744848,16.8784249 11.8973137,16.2547939 C12.5422374,15.5199827 13.2440038,14.768504 14.0166791,13.9958297 C14.9827159,13.0297942 15.9234143,12.1645339 16.838389,11.3905109 L16.838389,11.4194139 C16.8501429,11.4194139 18.0148401,11.4284702 18.7771103,12.190354 L19.4156753,11.5517898 C18.8981178,11.0337512 18.2613833,10.7754544 17.7497027,10.6458725 C20.8586127,8.18863354 23.6220348,6.90341228 25.8705969,6.90341228 L25.8710786,6.90341228 C26.5580081,6.90341228 27.0507091,6.96073661 27.357756,7.22269438 C27.5700008,7.43493894 27.6775202,7.63138318 27.6775202,7.80663187 C27.6775202,7.98188055 27.5700008,8.17832479 27.3582377,8.39056936 L8.39040841,27.3579881 C7.96996515,27.777082 7.65434368,27.7816101 7.23524924,27.3702237 L7.23524924,27.3702237 L7.23524924,27.3702237 Z M12.0032916,30.9708664 L10.6485086,32.325744 C10.136828,32.8374239 9.63641955,33.0966841 9.1613495,33.0966841 C7.95830758,33.0966841 6.9033457,32.0417236 6.9033457,30.8385869 C6.9033457,30.3635175 7.1626062,29.8631098 7.6742868,29.3514298 L9.02916615,27.9965523 L27.99661,9.02894088 L29.3514894,7.67406332 C29.86317,7.1623834 30.3635784,6.90312325 30.8386484,6.90312325 C32.0416904,6.90312325 33.0967486,7.95808373 33.0967486,9.16112405 C33.0967486,9.63619347 32.8374881,10.1366012 32.3258075,10.6482811 L30.9709281,12.0031587 L12.0032916,30.9708664 L12.0032916,30.9708664 L12.0032916,30.9708664 Z M26.003262,26.0032069 C24.9916547,27.0148128 23.8382297,28.0874041 22.6093677,29.0835951 L22.599926,29.0456358 C22.5841257,29.0496822 21.0228785,29.416847 19.4160607,27.8095497 L18.7774957,28.4481139 C19.7642463,29.4348632 20.7578373,29.8070379 21.5133635,29.9307428 C19.0986087,31.7227305 16.4842301,33.0964914 14.129112,33.096106 C13.4417971,33.096106 12.9490962,33.0387817 12.641953,32.7773056 C12.4301898,32.5650611 12.3226704,32.3686168 12.3226704,32.1933681 C12.3226704,32.0181194 12.4301898,31.8211935 12.6424347,31.6094306 L31.6099749,12.6418192 C31.8213527,12.4300564 32.0177972,12.3225371 32.1934315,12.3225371 C32.365501,12.3225371 32.5578991,12.4259136 32.7647487,12.6291983 C32.9900963,12.8987671 33.0984828,13.2411717 33.0966523,13.6755842 C33.0822007,17.2121585 30.7618626,21.2441308 26.003262,26.0032069 L26.003262,26.0032069 Z M15.9354573,24.0643918 L13.6774535,24.0643918 L13.6774535,26.322489 L11.4193533,26.322489 L11.4193533,28.5804898 L9.1613495,28.5804898 L9.1613495,31.2901485 L10.0645703,31.2901485 L10.0645703,29.4837094 L12.3225741,29.4837094 L12.3225741,27.2257086 L14.5806742,27.2257086 L14.5806742,24.9676114 L16.838678,24.9676114 L16.838678,22.7096106 L18.6451196,22.7096106 L18.6451196,21.806391 L15.9354573,21.806391 L15.9354573,24.0643918 L15.9354573,24.0643918 Z M24.9676651,15.0321959 L22.7096613,15.0321959 L22.7096613,17.2902931 L20.4515612,17.2902931 L20.4515612,19.5482939 L18.1935574,19.5482939 L18.1935574,20.9031714 L19.0967782,20.9031714 L19.0967782,20.4515135 L21.354782,20.4515135 L21.354782,18.1935126 L23.6128821,18.1935126 L23.6128821,15.9354155 L25.8708859,15.9354155 L25.8708859,13.6774147 L26.7741067,13.6774147 L26.7741067,12.7741951 L24.9676651,12.7741951 L24.9676651,15.0321959 L24.9676651,15.0321959 Z M29.4837691,10.516098 L27.2257653,10.516098 L27.2257653,13.2257567 L28.1289861,13.2257567 L28.1289861,11.4193175 L30.3869899,11.4193175 L30.3869899,8.70965877 L29.4837691,8.70965877 L29.4837691,10.516098 L29.4837691,10.516098 Z M19.8677404,12.003198 L20.7707991,12.9062555 L20.1321317,13.5449221 L19.229073,12.6418646 L19.8677404,12.003198 L19.8677404,12.003198 Z M14.2050951,14.3174558 L14.8437625,14.9561224 L14.0534499,15.746434 L13.4147825,15.1077674 L14.2050951,14.3174558 L14.2050951,14.3174558 Z M16.5193621,12.4547719 L17.1580295,13.0934385 L16.2549708,13.996496 L15.6163034,13.3578294 L16.5193621,12.4547719 L16.5193621,12.4547719 Z M10.1406784,19.7367587 L10.7793458,20.3754252 L9.98903318,21.1657368 L9.35036576,20.5270702 L10.1406784,19.7367587 L10.1406784,19.7367587 Z M20.5275744,8.89813467 L21.1662418,9.53680124 L20.3759292,10.3271128 L19.7372618,9.68844623 L20.5275744,8.89813467 L20.5275744,8.89813467 Z M23.4808018,27.9967297 L22.8421343,27.3580632 L23.745193,26.4550057 L24.3838605,27.0936722 L23.4808018,27.9967297 L23.4808018,27.9967297 Z M26.1904487,24.8354886 L25.5517813,24.196822 L26.45484,23.2937645 L27.0935074,23.9324311 L26.1904487,24.8354886 L26.1904487,24.8354886 Z M28.8999341,21.222703 L28.2612667,20.5840364 L29.1643254,19.6809789 L29.8029928,20.3196455 L28.8999341,21.222703 L28.8999341,21.222703 Z"></path>
            </g>
        </g>
    </g>
</svg>