<?xml version="1.0" encoding="UTF-8" standalone="no"?>
<svg width="40px" height="40px" viewBox="0 0 40 40" version="1.1" xmlns="http://www.w3.org/2000/svg" xmlns:xlink="http://www.w3.org/1999/xlink">
    <!-- Generator: Sketch 46.1 (44463) - http://www.bohemiancoding.com/sketch -->
    <title>ice-cream</title>
    <desc>Created with Sketch.</desc>
    <defs></defs>
    <g id="Page-1" stroke="none" stroke-width="1" fill="none" fill-rule="evenodd">
        <g id="30-Fast-Food-Icons" transform="translate(-1404.000000, -642.000000)" fill="#000000">
            <g id="ice-cream" transform="translate(1404.000000, 642.000000)">
                <path d="M33,15.9354359 C33,15.8524427 32.9857371,15.7722984 32.9739835,15.6921542 C32.7208178,12.420857 30.1709359,9.69000709 26.7717537,9.05653314 C26.7959213,8.83641519 26.8095238,8.61295273 26.8095238,8.38701286 C26.8095238,4.86549724 23.754499,2 20.000066,2 C16.2457651,2 13.1904762,4.86549724 13.1904762,8.38713673 C13.1904762,8.59263796 13.2028902,8.79529017 13.2232279,8.9957127 C9.74229841,9.27615561 7,12.0185255 7,15.3548547 L7,22.9032778 C7,24.184223 8.1105219,25.2258504 9.47619048,25.2258504 C10.841859,25.2258504 11.952381,24.184223 11.952381,22.9032778 C11.952381,22.676223 12.0247517,22.4660147 12.1449295,22.2872695 L18.8120229,37.0675026 C18.9506895,37.3699944 19.2385879,38 19.999934,38 C20.76128,38 21.0491784,37.3699944 21.1816381,37.0808806 L28.047487,23.0298734 L28.047487,22.9892439 C30.9403378,21.9370875 32.9998679,19.3055817 32.9998679,16.2259123 C32.9998679,16.1284262 32.9899632,16.0325504 32.9856051,15.9355598 L33,15.9354359 L33,15.9354359 L33,15.9354359 L33,15.9354359 Z M31.3991263,14.217847 C31.3150019,14.2068225 31.2307454,14.1934445 31.1427911,14.1934445 C30.1189029,14.1934445 29.2855822,14.9749437 29.2855822,15.9354359 C29.2855822,16.5758466 28.7302552,17.0967222 28.047487,17.0967222 C27.3647187,17.0967222 26.8093917,16.5758466 26.8093917,15.9354359 L26.8093917,14.1935684 C26.8093917,13.2651587 26.1791848,12.5636798 25.4616838,12.1851314 C25.9327543,11.5911722 26.2980419,10.9210325 26.52704,10.1941602 C28.8232279,10.6207703 30.6562692,12.1885998 31.3991263,14.217847 L31.3991263,14.217847 L31.3991263,14.217847 Z M20.000066,3.16128633 C23.0723911,3.16128633 25.5715606,5.50590794 25.5715606,8.38713673 C25.5715606,11.2683655 23.0725232,13.6128633 20.000066,13.6128633 C16.927741,13.6128633 14.4285714,11.2682417 14.4285714,8.38701286 C14.4285714,5.50578407 16.9276089,3.16128633 20.000066,3.16128633 L20.000066,3.16128633 L20.000066,3.16128633 Z M15.5124165,26.7720025 L17.2141867,25.1758067 L18.5055035,26.3870129 L16.2801016,28.4744792 L15.5124165,26.7720025 L15.5124165,26.7720025 L15.5124165,26.7720025 Z M16.8006959,29.6280856 L16.9047619,29.5305995 L18.1960787,30.7418056 L17.568381,31.3305623 L16.8006959,29.6280856 L16.8006959,29.6280856 L16.8006959,29.6280856 Z M20.0502502,36.6098009 C20.0316292,36.6498111 20.0149892,36.6847426 20.000066,36.7143476 C19.9858032,36.6853619 19.9691632,36.6516692 19.9512025,36.6127738 L18.0891073,32.4850358 L19.0715276,31.5635628 L20.1815213,32.6046947 L21.0568381,31.7836807 L19.9468444,30.7420534 L21.6758197,29.1203402 L20.8005029,28.2993263 L19.0715276,29.9210394 L17.7802108,28.7098333 L22.2949333,24.4751949 L21.4196165,23.654181 L19.3810844,25.5662467 L18.0897676,24.3550405 L19.1997613,23.3139086 L18.3244444,22.4928946 L17.2144508,23.5340265 L16.1044571,22.4928946 L15.2291403,23.3139086 L16.339134,24.3550405 L14.9920863,25.61852 L13.2332648,21.7189515 C13.4239644,21.7340637 13.6158527,21.7422392 13.8095898,21.7422392 C15.6877968,21.7422392 17.3907556,21.0251526 18.6239644,19.8673347 C19.9926705,22.0888289 22.5041219,23.4841067 25.2620038,23.4841067 C25.6890971,23.4841067 26.1057575,23.4428578 26.5148902,23.3801793 L20.0502502,36.6098009 L20.0502502,36.6098009 L20.0502502,36.6098009 Z M25.2618717,22.3225727 C22.7925486,22.3225727 20.5571098,20.9858856 19.4731327,18.8944554 C20.1961803,17.8806989 20.6190476,16.6636708 20.6190476,15.3548547 L19.3809524,15.3548547 C19.3809524,18.2359596 16.8819149,20.5807051 13.8094578,20.5807051 C12.5923606,20.5807051 11.436673,20.2194986 10.4671949,19.5361048 L9.72314921,20.4645145 C10.2381968,20.8274552 10.7984102,21.1113665 11.3871492,21.3220703 C10.9729981,21.7372843 10.7142857,22.2906141 10.7142857,22.9031539 C10.7142857,23.5435646 10.1589587,24.0644402 9.47619048,24.0644402 C8.79342222,24.0644402 8.23809524,23.5435646 8.23809524,22.9031539 L8.23809524,15.3547308 C8.23809524,12.58449 10.5502629,10.3165443 13.4590933,10.1457268 C14.2756419,12.8137744 16.8960457,14.7740257 19.999934,14.7740257 C21.7716978,14.7740257 23.3830044,14.1306421 24.5950832,13.0866612 C24.9937829,13.2156104 25.5712965,13.5877175 25.5712965,14.1933206 L25.5712965,15.9354359 C25.5712965,17.2163812 26.6818184,18.2580086 28.047487,18.2580086 C29.4131556,18.2580086 30.5238095,17.2163812 30.5238095,15.9354359 C30.5238095,15.6154783 30.8011429,15.3547308 31.1429232,15.3547308 C31.45248,15.3547308 31.6975898,15.5718759 31.7434159,15.8499652 C31.7514717,15.9748268 31.7620368,16.0990689 31.7620368,16.2256646 C31.7619048,19.587635 28.846207,22.3225727 25.2618717,22.3225727 L25.2618717,22.3225727 Z M19.3809524,3.74199143 L20.6190476,3.74199143 L20.6190476,4.90327775 L19.3809524,4.90327775 L19.3809524,3.74199143 L19.3809524,3.74199143 Z M16.9047619,4.90327775 L18.1428571,4.90327775 L18.1428571,6.06456408 L16.9047619,6.06456408 L16.9047619,4.90327775 L16.9047619,4.90327775 Z M22.4762565,6.64514531 L23.7143517,6.64514531 L23.7143517,7.80643163 L22.4762565,7.80643163 L22.4762565,6.64514531 L22.4762565,6.64514531 Z M10.0953041,13.032282 L11.3333994,13.032282 L11.3333994,14.1935684 L10.0953041,14.1935684 L10.0953041,13.032282 L10.0953041,13.032282 Z M11.952381,11.2902906 L13.1904762,11.2902906 L13.1904762,12.4515769 L11.952381,12.4515769 L11.952381,11.2902906 L11.952381,11.2902906 Z M28.047619,12.4515769 L29.2857143,12.4515769 L29.2857143,13.6128633 L28.047619,13.6128633 L28.047619,12.4515769 L28.047619,12.4515769 Z M21.8571429,15.9354359 L23.0952381,15.9354359 L23.0952381,17.0967222 L21.8571429,17.0967222 L21.8571429,15.9354359 L21.8571429,15.9354359 Z"></path>
            </g>
        </g>
    </g>
</svg>