<?xml version="1.0" encoding="UTF-8" standalone="no"?>
<svg width="40px" height="40px" viewBox="0 0 40 40" version="1.1" xmlns="http://www.w3.org/2000/svg" xmlns:xlink="http://www.w3.org/1999/xlink">
    <!-- Generator: Sketch 46.1 (44463) - http://www.bohemiancoding.com/sketch -->
    <title>indifferent</title>
    <desc>Created with Sketch.</desc>
    <defs></defs>
    <g id="Page-1" stroke="none" stroke-width="1" fill="none" fill-rule="evenodd">
        <g id="50-Emoji-Icons" transform="translate(-675.000000, -1180.000000)" fill="#000000">
            <g id="indifferent" transform="translate(681.000000, 1186.000000)">
                <path d="M13.9998108,0 C6.28032432,0 0,6.28032432 0,13.9998108 C0,21.7192973 6.28032432,27.9996216 13.9998108,27.9996216 C21.7192973,27.9996216 27.9996216,21.7192973 27.9996216,13.9998108 C27.9996216,6.28032432 21.7192973,0 13.9998108,0 L13.9998108,0 Z M13.9998108,26.4861081 C10.5700946,26.4861081 7.45925676,25.0959459 5.20033784,22.8498919 C4.29828378,21.9529459 3.53254054,20.9192162 2.93631081,19.7831351 C2.0282973,18.0530946 1.51351351,16.0856216 1.51351351,13.9998108 C1.51351351,7.11483784 7.11483784,1.51351351 13.9998108,1.51351351 C17.2655,1.51351351 20.2418243,2.77427027 22.4691486,4.83397297 C23.6239595,5.90175676 24.5775676,7.18408108 25.2651757,8.61747297 C26.047473,10.2480946 26.4861081,12.0736757 26.4861081,13.9998108 C26.4861081,20.8847838 20.8847838,26.4861081 13.9998108,26.4861081 L13.9998108,26.4861081 Z" id="Shape"></path>
                <path d="M16.6722027,17.2153649 C17.8901081,17.0464189 19.1358243,17.3185676 20.1801486,17.9819595 L20.9915811,16.7043649 C19.6447432,15.8489459 18.0370135,15.4981892 16.4640946,15.7163243 C13.9353919,16.0676486 11.7877162,17.8621081 10.9927432,20.2879865 L12.4310541,20.7592568 C13.0472432,18.8787162 14.7120135,17.4877027 16.6722027,17.2153649 L16.6722027,17.2153649 Z" id="Shape"></path>
                <circle id="Oval" cx="9.33317568" cy="10.9727838" r="1.51351351"></circle>
                <circle id="Oval" cx="18.6980405" cy="10.9727838" r="1.51351351"></circle>
            </g>
        </g>
    </g>
</svg>