<?xml version="1.0" encoding="UTF-8" standalone="no"?>
<svg width="40px" height="40px" viewBox="0 0 40 40" version="1.1" xmlns="http://www.w3.org/2000/svg" xmlns:xlink="http://www.w3.org/1999/xlink">
    <!-- Generator: Sketch 46.1 (44463) - http://www.bohemiancoding.com/sketch -->
    <title>inlove01</title>
    <desc>Created with Sketch.</desc>
    <defs></defs>
    <g id="Page-1" stroke="none" stroke-width="1" fill="none" fill-rule="evenodd">
        <g id="50-Emoji-Icons" transform="translate(-1385.000000, -869.000000)" fill="#000000">
            <g id="in-love-1" transform="translate(1391.000000, 875.000000)">
                <path d="M13.9998108,0 C6.28032432,0 0,6.28032432 0,13.9998108 C0,16.926 0.903,19.6449324 2.44413514,21.8937297 C2.38822973,22.130973 2.35937838,22.3762568 2.36032432,22.6261757 C2.36335135,23.4599324 2.69093243,24.2404324 3.28281081,24.8278649 C3.87185135,25.4125541 4.65216216,25.7293514 5.48156757,25.7293514 L5.49348649,25.7293514 C5.74567568,25.7293514 5.99294595,25.6989865 6.23189189,25.6409054 C8.456,27.1298243 11.1282027,27.999527 13.9998108,27.999527 C21.7192973,27.999527 27.9996216,21.7192027 27.9996216,13.9997162 C27.9996216,6.28022973 21.7193919,0 13.9998108,0 L13.9998108,0 Z M13.9998108,26.4861081 C11.7118514,26.4861081 9.56597297,25.8668919 7.71995946,24.7883243 L8.20816216,24.2972838 L9.96497297,22.5300676 C11.1910135,23.1099324 12.5582838,23.4360946 13.9996216,23.4360946 C19.2550135,23.4360946 23.5305946,19.1078243 23.5305946,13.9051216 L22.0170811,13.9051216 C22.0170811,18.256473 18.4205,21.9225811 13.9996216,21.9225811 C9.57874324,21.9225811 5.98216216,18.256473 5.98216216,13.9051216 L4.46864865,13.9051216 C4.46864865,15.4331081 4.83785135,16.8856081 5.49197297,18.1752162 L3.28271622,20.4003649 C3.16163514,20.1982162 3.04613514,19.9923784 2.93631081,19.7831351 C2.0282973,18.0530946 1.51351351,16.0856216 1.51351351,13.9998108 C1.51351351,7.11483784 7.11483784,1.51351351 13.9998108,1.51351351 C17.2655,1.51351351 20.2418243,2.77427027 22.4691486,4.83397297 C23.6239595,5.90175676 24.5775676,7.18408108 25.2651757,8.61747297 C26.047473,10.2480946 26.4861081,12.0736757 26.4861081,13.9998108 C26.4861081,20.8847838 20.8847838,26.4861081 13.9998108,26.4861081 L13.9998108,26.4861081 Z M3.87374324,22.6228649 C3.87213514,22.1933108 4.03795946,21.7888243 4.34066216,21.4839459 L6.30737838,19.5026622 C6.94324324,20.3720811 7.72204054,21.1322432 8.60914865,21.7465405 L6.62322973,23.7454189 C6.32071622,24.0502973 5.91745946,24.216027 5.48790541,24.216027 L5.48175676,24.216027 C5.05447297,24.216027 4.65235135,24.0549324 4.34898649,23.7537432 C4.0442027,23.4510405 3.87535135,23.0524189 3.87374324,22.6228649 L3.87374324,22.6228649 Z" id="Shape"></path>
                <path d="M4.69728378,8.82416216 C4.68782432,8.92112162 4.68214865,9.02205405 4.68214865,9.12809459 C4.68214865,10.930973 7.53710811,13.1419324 8.10940541,13.5667568 L8.56052703,13.9017162 L9.01164865,13.5667568 C9.58404054,13.1419324 12.4389054,10.930973 12.4389054,9.12809459 C12.4389054,8.18886486 12.0417027,7.60531081 11.7083514,7.28122973 C11.2746351,6.85924324 10.6980811,6.62691892 10.0851081,6.62691892 C9.53627027,6.62691892 8.98402703,6.82452703 8.56052703,7.21113514 C8.13693243,6.82452703 7.58478378,6.62691892 7.03594595,6.62691892 C6.84675676,6.62691892 6.66116216,6.64914865 6.48218919,6.69209459 C6.08082432,6.78848649 5.71256757,6.98940541 5.41260811,7.28113514 C5.117,7.5687027 4.77163514,8.06106757 4.69728378,8.82416216 L4.69728378,8.82416216 Z M9.31728378,9.0807973 C9.31728378,8.20816216 9.905,8.14043243 10.0851081,8.14043243 C10.4727568,8.14043243 10.9253919,8.39905405 10.9253919,9.12809459 C10.9253919,9.6232027 9.99287838,10.8435676 8.56052703,12.0016892 C7.12817568,10.8435676 6.19566216,9.6232027 6.19566216,9.12809459 C6.19566216,8.39905405 6.6482973,8.14043243 7.03594595,8.14043243 C7.21605405,8.14043243 7.80377027,8.20825676 7.80377027,9.0807973 L9.31728378,9.0807973 L9.31728378,9.0807973 Z" id="Shape"></path>
                <path d="M20.9634865,6.62691892 C20.4146486,6.62691892 19.8624054,6.82452703 19.4389054,7.21113514 C19.0154054,6.82452703 18.4631622,6.62691892 17.9143243,6.62691892 C17.3012568,6.62691892 16.7247973,6.85924324 16.2909865,7.28113514 C15.9578243,7.60531081 15.560527,8.18895946 15.560527,9.12809459 C15.560527,10.930973 18.4154865,13.1419324 18.9877838,13.5667568 L19.4389054,13.9017162 L19.890027,13.5667568 C20.4624189,13.1419324 23.3172838,10.930973 23.3172838,9.12809459 C23.3172838,8.18886486 22.9200811,7.60531081 22.5867297,7.28122973 C22.1530135,6.85924324 21.5765541,6.62691892 20.9634865,6.62691892 L20.9634865,6.62691892 Z M20.1956622,9.0807973 C20.1956622,8.20816216 20.7833784,8.14043243 20.9634865,8.14043243 C21.3511351,8.14043243 21.8037703,8.39905405 21.8037703,9.12809459 C21.8037703,9.6232027 20.8712568,10.8435676 19.4389054,12.0016892 C18.0065541,10.8435676 17.0740405,9.6232027 17.0740405,9.12809459 C17.0740405,8.39905405 17.5266757,8.14043243 17.9143243,8.14043243 C18.0944324,8.14043243 18.6821486,8.20825676 18.6821486,9.0807973 L20.1956622,9.0807973 L20.1956622,9.0807973 Z" id="Shape"></path>
            </g>
        </g>
    </g>
</svg>