<?xml version="1.0" encoding="UTF-8" standalone="no"?>
<svg width="40px" height="40px" viewBox="0 0 40 40" version="1.1" xmlns="http://www.w3.org/2000/svg" xmlns:xlink="http://www.w3.org/1999/xlink">
    <!-- Generator: Sketch 46.1 (44463) - http://www.bohemiancoding.com/sketch -->
    <title>inlove</title>
    <desc>Created with Sketch.</desc>
    <defs></defs>
    <g id="Page-1" stroke="none" stroke-width="1" fill="none" fill-rule="evenodd">
        <g id="50-Emoji-Icons" transform="translate(-1740.000000, -1180.000000)" fill="#000000">
            <g id="in-love" transform="translate(1746.000000, 1186.000000)">
                <path d="M13.9998108,0 C6.28032432,0 0,6.28032432 0,13.9998108 C0,21.7192973 6.28032432,27.9996216 13.9998108,27.9996216 C21.7192973,27.9996216 27.9996216,21.7192973 27.9996216,13.9998108 C27.9996216,6.28032432 21.7193919,0 13.9998108,0 L13.9998108,0 Z M13.9998108,26.4861081 C10.5701892,26.4861081 7.45925676,25.0959459 5.20043243,22.8498919 C4.29837838,21.9529459 3.53263514,20.9192162 2.93640541,19.7831351 C2.0282973,18.0530946 1.51351351,16.0856216 1.51351351,13.9998108 C1.51351351,7.11483784 7.11483784,1.51351351 13.9998108,1.51351351 C17.2655,1.51351351 20.2418243,2.77427027 22.4691486,4.83397297 C23.6239595,5.90175676 24.5775676,7.18408108 25.2651757,8.61737838 C26.047473,10.2480946 26.4861081,12.0736757 26.4861081,13.9998108 C26.4861081,20.8847838 20.8847838,26.4861081 13.9998108,26.4861081 L13.9998108,26.4861081 Z" id="Shape"></path>
                <path d="M8.70241892,15.1314459 L9.15354054,14.7964865 C9.72593243,14.3716622 12.5807973,12.1607027 12.5807973,10.3578243 C12.5807973,9.41859459 12.1835946,8.83504054 11.8502432,8.51095946 C11.416527,8.08897297 10.839973,7.85664865 10.227,7.85664865 C9.67816216,7.85664865 9.12591892,8.05425676 8.70241892,8.44086486 C8.27882432,8.05425676 7.72667568,7.85664865 7.17783784,7.85664865 C6.56477027,7.85664865 5.98831081,8.08897297 5.5545,8.51086486 C5.22133784,8.83504054 4.82404054,9.41868919 4.82404054,10.3578243 C4.82404054,12.1607027 7.679,14.3716622 8.2512973,14.7964865 L8.70241892,15.1314459 L8.70241892,15.1314459 Z M9.45917568,10.310527 C9.45917568,9.43789189 10.0468919,9.37016216 10.227,9.37016216 C10.6146486,9.37016216 11.0672838,9.62878378 11.0672838,10.3578243 C11.0672838,10.8529324 10.1347703,12.0732973 8.70241892,13.2314189 C7.27006757,12.0732973 6.33755405,10.8529324 6.33755405,10.3578243 C6.33755405,9.62878378 6.79018919,9.37016216 7.17783784,9.37016216 C7.35794595,9.37016216 7.94566216,9.43798649 7.94566216,10.310527 L9.45917568,10.310527 L9.45917568,10.310527 Z" id="Shape"></path>
                <path d="M19.1297703,14.7964865 L19.5808919,15.1314459 L20.0320135,14.7964865 C20.6044054,14.3716622 23.4592703,12.1607027 23.4592703,10.3578243 C23.4592703,9.41859459 23.0620676,8.83504054 22.7287162,8.51095946 C22.295,8.08897297 21.7184459,7.85664865 21.105473,7.85664865 C20.5566351,7.85664865 20.0043919,8.05425676 19.5808919,8.44086486 C19.1573919,8.05425676 18.6051486,7.85664865 18.0563108,7.85664865 C17.4432432,7.85664865 16.8667838,8.08897297 16.432973,8.51086486 C16.0998108,8.83504054 15.7025135,9.41868919 15.7025135,10.3578243 C15.7024189,12.1607027 18.5573784,14.3716622 19.1297703,14.7964865 L19.1297703,14.7964865 Z M20.3375541,10.310527 C20.3375541,9.43789189 20.9252703,9.37016216 21.1053784,9.37016216 C21.493027,9.37016216 21.9456622,9.62878378 21.9456622,10.3578243 C21.9456622,10.8529324 21.0131486,12.0732973 19.5807973,13.2314189 C18.1484459,12.0732973 17.2159324,10.8529324 17.2159324,10.3578243 C17.2159324,9.62878378 17.6685676,9.37016216 18.0562162,9.37016216 C18.2363243,9.37016216 18.8240405,9.43798649 18.8240405,10.310527 L20.3375541,10.310527 L20.3375541,10.310527 Z" id="Shape"></path>
                <path d="M20.44,17.2159324 L7.93781081,17.2159324 C7.93781081,20.6637162 10.7364865,23.467027 14.1889054,23.467027 C17.6412297,23.467027 20.44,20.6637162 20.44,17.2159324 L20.44,17.2159324 Z M18.6348514,18.7294459 L18.6567027,18.7294459 C18.0238649,20.6018514 16.2611892,21.9535135 14.1778378,21.9535135 C12.0944865,21.9535135 10.332,20.6018514 9.69906757,18.7294459 L18.6348514,18.7294459 L18.6348514,18.7294459 L18.6348514,18.7294459 Z" id="Shape"></path>
            </g>
        </g>
    </g>
</svg>