<?xml version="1.0" encoding="UTF-8" standalone="no"?>
<svg width="40px" height="40px" viewBox="0 0 40 40" version="1.1" xmlns="http://www.w3.org/2000/svg" xmlns:xlink="http://www.w3.org/1999/xlink">
    <!-- Generator: Sketch 46.1 (44463) - http://www.bohemiancoding.com/sketch -->
    <title>Instrumentcuster</title>
    <desc>Created with Sketch.</desc>
    <defs></defs>
    <g id="Icons" stroke="none" stroke-width="1" fill="none" fill-rule="evenodd">
        <g id="Automotive" transform="translate(-524.000000, -689.000000)" fill="#231F20">
            <g id="Instrumentcuster" transform="translate(527.000000, 700.000000)">
                <g id="Instrument-Cluster">
                    <path d="M18.1258,8.056 C18.0033,8.3022963 17.7562,8.44444444 17.4993,8.44444444 C17.3943,8.44444444 17.2872,8.42051852 17.1871,8.37055556 L14.3871,6.96314815 C14.0406,6.78933333 13.9006,6.36640741 14.0735,6.01877778 C14.2464,5.67114815 14.6671,5.5297037 15.0129,5.70422222 L17.8129,7.11162963 C18.1587,7.28544444 18.2994,7.70766667 18.1258,8.056 L18.1258,8.056 Z M6.6129,13.444963 L3.8129,12.0375556 C3.4657,11.863037 3.0464,12.0044815 2.8735,12.3521111 C2.7006,12.6997407 2.8413,13.1226667 3.1871,13.2964815 L5.9871,14.7038889 C6.0872,14.7538519 6.1943,14.7777778 6.2993,14.7777778 C6.5562,14.7777778 6.8033,14.6356296 6.9258,14.3893333 C7.0994,14.041 6.9587,13.6187778 6.6129,13.444963 L6.6129,13.444963 Z M29.0129,13.444963 L26.2129,12.0375556 C25.8664,11.863037 25.4464,12.0044815 25.2735,12.3521111 C25.1006,12.6997407 25.2406,13.1226667 25.5871,13.2964815 L28.3871,14.7038889 C28.4872,14.7538519 28.5943,14.7777778 28.6993,14.7777778 C28.9562,14.7777778 29.2033,14.6356296 29.3258,14.3893333 C29.4994,14.041 29.3587,13.6187778 29.0129,13.444963 L29.0129,13.444963 Z M35,14.0740741 C35,15.8882222 34.2195,17.6193333 32.858,18.8247778 C32.7306,18.9373704 32.5654,19 32.3953,19 L25.0047,19 C24.8339,19 24.6694,18.9373704 24.542,18.8247778 C23.1805,17.6193333 22.4,15.8875185 22.4,14.0740741 C22.4,13.8362222 22.4154,13.6018889 22.4413,13.3703704 L12.5587,13.3703704 C12.5846,13.6018889 12.6,13.8362222 12.6,14.0740741 C12.6,15.8882222 11.8195,17.6193333 10.458,18.8247778 C10.3306,18.9373704 10.1654,19 9.9953,19 L2.6047,19 C2.4339,19 2.2694,18.9373704 2.142,18.8247778 C0.7805,17.6193333 0,15.8875185 0,14.0740741 C0,10.5822963 2.8266,7.74074074 6.3,7.74074074 C7.6349,7.74074074 8.8718,8.16296296 9.8917,8.87792593 C9.8371,8.50355556 9.8,8.12566667 9.8,7.74074074 C9.8,3.47277778 13.2545,0 17.5,0 C21.7455,0 25.2,3.47277778 25.2,7.74074074 C25.2,8.12566667 25.1629,8.50355556 25.1083,8.87792593 C26.1282,8.16296296 27.3651,7.74074074 28.7,7.74074074 C32.1734,7.74074074 35,10.5822963 35,14.0740741 L35,14.0740741 Z M11.2,14.0740741 C11.2,11.3577778 9.002,9.14814815 6.3,9.14814815 C3.598,9.14814815 1.4,11.3577778 1.4,14.0740741 C1.4,15.3977407 1.9362,16.6658148 2.8791,17.5925926 L9.7209,17.5925926 C10.6638,16.6665185 11.2,15.3977407 11.2,14.0740741 L11.2,14.0740741 Z M22.1921,11.962963 C23.2316,10.799037 23.8,9.3107037 23.8,7.74074074 C23.8,4.24896296 20.9734,1.40740741 17.5,1.40740741 C14.0266,1.40740741 11.2,4.24896296 11.2,7.74074074 C11.2,9.31 11.7691,10.7983333 12.8079,11.962963 L22.1921,11.962963 L22.1921,11.962963 Z M33.6,14.0740741 C33.6,11.3577778 31.402,9.14814815 28.7,9.14814815 C25.998,9.14814815 23.8,11.3577778 23.8,14.0740741 C23.8,15.3977407 24.3362,16.6658148 25.2791,17.5925926 L32.1209,17.5925926 C33.0638,16.6665185 33.6,15.3977407 33.6,14.0740741 L33.6,14.0740741 Z"></path>
                </g>
            </g>
        </g>
    </g>
</svg>