<?xml version="1.0" encoding="UTF-8" standalone="no"?>
<svg width="40px" height="40px" viewBox="0 0 40 40" version="1.1" xmlns="http://www.w3.org/2000/svg" xmlns:xlink="http://www.w3.org/1999/xlink">
    <!-- Generator: Sketch 46.1 (44463) - http://www.bohemiancoding.com/sketch -->
    <title>jeep</title>
    <desc>Created with Sketch.</desc>
    <defs></defs>
    <g id="Icons" stroke="none" stroke-width="1" fill="none" fill-rule="evenodd">
        <g id="Automotive" transform="translate(-869.000000, -539.000000)" fill="#231F20">
            <g id="Jeep" transform="translate(872.000000, 549.000000)">
                <g>
                    <path d="M5.46428571,12.6 C5.46428571,12.9312 5.19289286,13.2 4.85714286,13.2 L1.82142857,13.2 C0.817214286,13.2 0,12.3924 0,11.4 L0,4.8 C0,3.8076 0.817214286,3 1.82142857,3 L3.03571429,3 C3.37146429,3 3.64285714,3.2688 3.64285714,3.6 C3.64285714,3.9312 3.37146429,4.2 3.03571429,4.2 L1.82142857,4.2 C1.48628571,4.2 1.21428571,4.4694 1.21428571,4.8 L1.21428571,11.4 C1.21428571,11.7312 1.48628571,12 1.82142857,12 L4.25,12 L4.25,0.6 C4.25,0.2688 4.52139286,0 4.85714286,0 L19.4285714,0 C19.6422857,0 19.8396071,0.1104 19.9488929,0.291 L23.4150714,6 L30.3571429,6 C30.5599286,6 30.7493571,6.1002 30.8622857,6.2676 L32.0765714,8.0676 C32.2629643,8.343 32.1876786,8.7156 31.9083929,8.8992 C31.6285,9.0828 31.2520714,9.0084 31.0662857,8.733 L30.0323214,7.2 L23.0714286,7.2 C22.8577143,7.2 22.6603929,7.0896 22.5505,6.909 L19.0843214,1.2 L5.46428571,1.2 L5.46428571,12.6 L5.46428571,12.6 Z M9.71428571,15.6 C9.04339286,15.6 8.5,16.1376 8.5,16.8 C8.5,17.463 9.04339286,18 9.71428571,18 C10.3851786,18 10.9285714,17.463 10.9285714,16.8 C10.9285714,16.1376 10.3851786,15.6 9.71428571,15.6 L9.71428571,15.6 Z M27.9285714,15.6 C27.2576786,15.6 26.7142857,16.1376 26.7142857,16.8 C26.7142857,17.463 27.2576786,18 27.9285714,18 C28.5994643,18 29.1428571,17.463 29.1428571,16.8 C29.1428571,16.1376 28.5994643,15.6 27.9285714,15.6 L27.9285714,15.6 Z M32.1785714,16.8 C32.1785714,19.116 30.2715357,21 27.9285714,21 C25.5856071,21 23.6785714,19.116 23.6785714,16.8 C23.6785714,14.484 25.5856071,12.6 27.9285714,12.6 C30.2715357,12.6 32.1785714,14.484 32.1785714,16.8 L32.1785714,16.8 Z M30.9642857,16.8 C30.9642857,15.1458 29.6024643,13.8 27.9285714,13.8 C26.2546786,13.8 24.8928571,15.1458 24.8928571,16.8 C24.8928571,18.4542 26.2546786,19.8 27.9285714,19.8 C29.6024643,19.8 30.9642857,18.4542 30.9642857,16.8 L30.9642857,16.8 Z M13.9642857,16.8 C13.9642857,19.116 12.05725,21 9.71428571,21 C7.37132143,21 5.46428571,19.116 5.46428571,16.8 C5.46428571,14.484 7.37132143,12.6 9.71428571,12.6 C12.05725,12.6 13.9642857,14.484 13.9642857,16.8 L13.9642857,16.8 Z M12.75,16.8 C12.75,15.1458 11.3881786,13.8 9.71428571,13.8 C8.04039286,13.8 6.67857143,15.1458 6.67857143,16.8 C6.67857143,18.4542 8.04039286,19.8 9.71428571,19.8 C11.3881786,19.8 12.75,18.4542 12.75,16.8 L12.75,16.8 Z M13.3571429,3 C13.0213929,3 12.75,3.2688 12.75,3.6 L12.75,6.6 C12.75,6.9312 13.0213929,7.2 13.3571429,7.2 L19.4285714,7.2 C19.7643214,7.2 20.0357143,6.9312 20.0357143,6.6 C20.0357143,6.2688 19.7643214,6 19.4285714,6 L13.9642857,6 L13.9642857,3.6 C13.9642857,3.2688 13.6928929,3 13.3571429,3 L13.3571429,3 Z M7.28571429,6 C6.94996429,6 6.67857143,6.2688 6.67857143,6.6 C6.67857143,6.9312 6.94996429,7.2 7.28571429,7.2 L10.9285714,7.2 C11.2643214,7.2 11.5357143,6.9312 11.5357143,6.6 C11.5357143,6.2688 11.2643214,6 10.9285714,6 L7.28571429,6 L7.28571429,6 Z M33.8221071,12.7758 L31.3935357,10.3758 C31.2793929,10.2636 31.1257857,10.2 30.9642857,10.2 L24.8928571,10.2 C24.7313571,10.2 24.5771429,10.2636 24.4636071,10.3758 L20.9986429,13.8 L16.6442143,13.8 L13.17925,10.3758 C13.0651071,10.2636 12.9115,10.2 12.75,10.2 L7.28571429,10.2 C6.94996429,10.2 6.67857143,10.4688 6.67857143,10.8 C6.67857143,11.1312 6.94996429,11.4 7.28571429,11.4 L12.4986429,11.4 L15.9636071,14.8242 C16.0771429,14.937 16.2313571,15 16.3928571,15 L21.25,15 C21.4115,15 21.5651071,14.937 21.67925,14.8242 L25.1442143,11.4 L30.7129286,11.4 L32.9636071,13.6242 C33.2003929,13.8588 33.5847143,13.8588 33.8221071,13.6242 C34.0595,13.3902 34.0595,13.0104 33.8221071,12.7758 L33.8221071,12.7758 Z"></path>
                </g>
            </g>
        </g>
    </g>
</svg>