<?xml version="1.0" encoding="UTF-8" standalone="no"?>
<svg width="40px" height="40px" viewBox="0 0 40 40" version="1.1" xmlns="http://www.w3.org/2000/svg" xmlns:xlink="http://www.w3.org/1999/xlink">
    <!-- Generator: Sketch 46.1 (44463) - http://www.bohemiancoding.com/sketch -->
    <title>jetski</title>
    <desc>Created with Sketch.</desc>
    <defs></defs>
    <g id="Icons" stroke="none" stroke-width="1" fill="none" fill-rule="evenodd">
        <g id="Automotive" transform="translate(-524.000000, -1445.000000)" fill="#231F20">
            <g id="Jetski" transform="translate(528.000000, 1458.000000)">
                <g>
                    <path d="M6.48214286,8.16698532 C6.15626786,8.16698532 5.89285714,7.90565198 5.89285714,7.58365198 C5.89285714,7.26165198 6.15626786,7.00031865 6.48214286,7.00031865 L17.6785714,7.00031865 C18.0044464,7.00031865 18.2678571,7.26165198 18.2678571,7.58365198 C18.2678571,7.90565198 18.0044464,8.16698532 17.6785714,8.16698532 L6.48214286,8.16698532 L6.48214286,8.16698532 Z M32.9440179,6.16965198 C32.847375,5.96490198 32.6393571,5.83365198 32.4107143,5.83365198 L29.6245714,5.83365198 L19.7451964,0.0808186485 C19.52775,-0.0457646849 19.2501964,-0.0206813515 19.0586786,0.144985315 L17.8494643,1.19206865 L14.3290714,0.0306519818 C14.0173393,-0.0725980182 13.6873393,0.0936519818 13.5842143,0.399318648 C13.4810893,0.704985315 13.6478571,1.03515198 13.9560536,1.13723532 L16.8211607,2.08281865 L14.5836429,4.02065198 L4.28233929,1.18856865 C3.96825,1.10165198 3.64355357,1.28365198 3.55692857,1.59456865 C3.47030357,1.90490198 3.65357143,2.22631865 3.96707143,2.31265198 L14.5742143,5.22931865 C14.7645536,5.28065198 14.9702143,5.23573532 15.1198929,5.10623532 L19.5141964,1.29998532 L24.3881786,4.13790198 C23.5160357,4.72356865 22.2856071,4.82798532 21.2743929,4.33390198 L19.7068929,3.56798532 C19.4169643,3.42565198 19.0622143,3.54406865 18.9184286,3.83281865 C18.7734643,4.12156865 18.8930893,4.47098532 19.1859643,4.61390198 L20.752875,5.37981865 C21.3492321,5.67206865 22.0056964,5.81265198 22.6568571,5.81265198 C23.7010714,5.81265198 24.7323214,5.45098532 25.48425,4.77606865 L29.1655179,6.91981865 C29.2556786,6.97231865 29.3588036,7.00031865 29.4642857,7.00031865 L31.0960179,7.00031865 C27.5078571,10.7225686 22.5537321,12.833652 17.3132143,12.833652 L3.69894643,12.833652 L1.17857143,11.3368186 L1.17857143,8.16698532 L3.53571429,8.16698532 C3.72075,8.16698532 3.89576786,8.08065198 4.00714286,7.93365198 L5.775,5.60031865 C5.97064286,5.34248532 5.91760714,4.97673532 5.65714286,4.78365198 C5.39667857,4.59056865 5.02719643,4.64365198 4.83214286,4.90031865 L3.24107143,7.00031865 L0.589285714,7.00031865 C0.263410714,7.00031865 0,7.26165198 0,7.58365198 L0,11.6669853 C0,11.8717353 0.109017857,12.061902 0.285803571,12.1674853 L3.23223214,13.9174853 C3.32416071,13.9717353 3.42846429,14.0003186 3.53571429,14.0003186 L17.3132143,14.0003186 C23.3380714,14.0003186 29.0064107,11.372402 32.863875,6.79031865 C33.0100179,6.61648532 33.04125,6.37440198 32.9440179,6.16965198 L32.9440179,6.16965198 Z"></path>
                </g>
            </g>
        </g>
    </g>
</svg>