<?xml version="1.0" encoding="UTF-8" standalone="no"?>
<svg width="40px" height="40px" viewBox="0 0 40 40" version="1.1" xmlns="http://www.w3.org/2000/svg" xmlns:xlink="http://www.w3.org/1999/xlink">
    <!-- Generator: Sketch 46.1 (44463) - http://www.bohemiancoding.com/sketch -->
    <title>key</title>
    <desc>Created with Sketch.</desc>
    <defs></defs>
    <g id="Icons" stroke="none" stroke-width="1" fill="none" fill-rule="evenodd">
        <g id="Automotive" transform="translate(-1042.000000, -539.000000)" fill="#231F20">
            <g id="Keys" transform="translate(1055.000000, 543.000000)">
                <g id="KeysLadder-">
                    <path d="M8.03450893,8.6779661 C8.03450893,8.97735593 7.79504464,9.22033898 7.49879464,9.22033898 L4.28450893,9.22033898 C3.98825893,9.22033898 3.74879464,8.97735593 3.74879464,8.6779661 C3.74879464,8.37857627 3.98825893,8.13559322 4.28450893,8.13559322 L7.49879464,8.13559322 C7.79504464,8.13559322 8.03450893,8.37857627 8.03450893,8.6779661 L8.03450893,8.6779661 Z M10.4859375,9.74698305 L11.5562946,12.8271186 C11.8418304,13.6493559 11.8418304,14.5545763 11.5562946,15.3762712 L9.67272321,20.7951186 C9.41397321,21.540339 8.77915179,22.0724068 8.03450893,22.2042034 L8.03450893,30.9152542 C8.03450893,31.5134915 7.5534375,32 6.96308036,32 L4.82022321,32 C4.22933036,32 3.74879464,31.5134915 3.74879464,30.9152542 L3.74879464,22.2069153 C2.99879464,22.0794576 2.35808036,21.544678 2.09772321,20.7951186 L0.214151786,15.3762712 C-0.0713839286,14.5545763 -0.0713839286,13.6493559 0.214151786,12.827661 L2.09772321,7.40827119 C2.3971875,6.54589831 3.20022321,5.96610169 4.09486607,5.96610169 L7.67665179,5.96610169 C8.57129464,5.96610169 9.37325893,6.54589831 9.67272321,7.40827119 L10.1184375,8.68989831 C10.1387946,8.68772881 10.1564732,8.6779661 10.1773661,8.6779661 C12.2446875,8.6779661 13.9273661,6.97491525 13.9273661,4.88135593 C13.9273661,2.78779661 12.2446875,1.08474576 10.1773661,1.08474576 C8.11004464,1.08474576 6.42736607,2.78779661 6.42736607,4.88135593 C6.42736607,5.18074576 6.18790179,5.42372881 5.89165179,5.42372881 C5.59540179,5.42372881 5.3559375,5.18074576 5.3559375,4.88135593 C5.3559375,2.19010169 7.51861607,0 10.1773661,0 C12.8361161,0 14.9987946,2.19010169 14.9987946,4.88135593 C14.9987946,7.46738983 13.0005804,9.58481356 10.4859375,9.74698305 L10.4859375,9.74698305 Z M4.82022321,24.4067797 L6.96308036,24.4067797 L6.96308036,22.2372881 L4.82022321,22.2372881 L4.82022321,24.4067797 Z M6.96361607,30.9152542 L6.96308036,25.4915254 L4.82022321,25.4915254 L4.82022321,30.9152542 L6.96361607,30.9152542 L6.96361607,30.9152542 Z M10.5454018,13.1872542 L8.66236607,7.76840678 C8.5134375,7.33884746 8.11700893,7.05084746 7.67665179,7.05084746 L4.09486607,7.05084746 C3.6534375,7.05084746 3.25754464,7.33884746 3.10861607,7.76840678 L1.22504464,13.1872542 C1.01986607,13.7768136 1.01986607,14.4265763 1.22504464,15.016678 L3.10861607,20.4349831 C3.25754464,20.8645424 3.65397321,21.1525424 4.09486607,21.1525424 L7.67665179,21.1525424 C8.11700893,21.1525424 8.5134375,20.8645424 8.66236607,20.4349831 L10.5454018,15.0161356 C10.7505804,14.4265763 10.7505804,13.7768136 10.5454018,13.1872542 L10.5454018,13.1872542 Z M8.03450893,14.1016949 C8.03450893,15.2981695 7.0734375,16.2711864 5.89165179,16.2711864 C4.70986607,16.2711864 3.74879464,15.2981695 3.74879464,14.1016949 C3.74879464,12.9057627 4.70986607,11.9322034 5.89165179,11.9322034 C7.0734375,11.9322034 8.03450893,12.9057627 8.03450893,14.1016949 L8.03450893,14.1016949 Z M6.96308036,14.1016949 C6.96308036,13.5034576 6.48200893,13.0169492 5.89165179,13.0169492 C5.30075893,13.0169492 4.82022321,13.5034576 4.82022321,14.1016949 C4.82022321,14.6999322 5.30075893,15.1864407 5.89165179,15.1864407 C6.48200893,15.1864407 6.96308036,14.6999322 6.96308036,14.1016949 L6.96308036,14.1016949 Z"></path>
                </g>
            </g>
        </g>
    </g>
</svg>