<?xml version="1.0" encoding="UTF-8" standalone="no"?>
<svg width="40px" height="40px" viewBox="0 0 40 40" version="1.1" xmlns="http://www.w3.org/2000/svg" xmlns:xlink="http://www.w3.org/1999/xlink">
    <!-- Generator: Sketch 46.1 (44463) - http://www.bohemiancoding.com/sketch -->
    <title>kiss</title>
    <desc>Created with Sketch.</desc>
    <defs></defs>
    <g id="Page-1" stroke="none" stroke-width="1" fill="none" fill-rule="evenodd">
        <g id="50-Emoji-Icons" transform="translate(-1030.000000, -1180.000000)" fill="#000000">
            <g id="kiss" transform="translate(1036.000000, 1186.000000)">
                <path d="M18.4779329,19.4243893 C18.4779329,18.811396 18.2329799,18.2531812 17.8364698,17.8364698 C18.2329799,17.4196644 18.4739866,16.8614497 18.4739866,16.2484564 C18.4739866,14.9622416 17.3509799,13.9158121 16.1295034,13.9158121 L16.1295034,15.4191678 C16.599302,15.4191678 16.9588859,15.7911544 16.9588859,16.2484564 C16.9588859,16.7057584 16.599302,17.0778389 16.1295034,17.0778389 L16.1295034,17.091745 L16.1295034,18.5811946 L16.1295034,18.5951007 C16.599302,18.5951007 16.9588859,18.9670872 16.9588859,19.4243893 C16.9588859,19.8816913 16.599302,20.2537718 16.1295034,20.2537718 L16.1295034,21.7571275 C17.3509799,21.7571275 18.4779329,20.710698 18.4779329,19.4243893 L18.4779329,19.4243893 Z" id="Shape"></path>
                <path d="M27.7132349,15.5572886 C27.7775973,15.0155168 27.8117047,14.4647248 27.8117047,13.9059463 C27.8117047,6.2381745 21.5736242,0 13.9058523,0 C6.23808054,0 0,6.2381745 0,13.9059463 C0,21.5736242 6.2381745,27.8117987 13.9058523,27.8117987 C19.6715973,27.8117987 24.6286309,24.2843624 26.7332349,19.2743356 C27.4203624,18.5007651 27.9997181,17.6092752 27.9997181,16.8001879 C27.9997181,16.2823758 27.8779463,15.873745 27.7132349,15.5572886 L27.7132349,15.5572886 Z M13.9058523,26.308443 C10.4992483,26.308443 7.40919463,24.9276107 5.1655302,22.6966309 C4.2695302,21.8057047 3.50892617,20.7789128 2.91669799,19.6504564 C2.01468456,17.9319329 1.5033557,15.9776644 1.5033557,13.9059463 C1.5033557,7.06708725 7.06708725,1.5033557 13.9058523,1.5033557 C17.1496242,1.5033557 20.1059732,2.75565101 22.318349,4.8015302 C23.4654094,5.86214765 24.4126174,7.13586577 25.0956107,8.55954362 C25.8726577,10.1793154 26.308349,11.9926443 26.308349,13.9058523 C26.308349,14.072443 26.3040268,14.238094 26.2975436,14.4030872 C26.0934631,14.3458658 25.8800805,14.3156107 25.6617181,14.3156107 C25.5003893,14.3156107 25.3392483,14.3348725 25.1808322,14.3689799 C24.8035839,14.450255 24.4436242,14.6254899 24.1473691,14.8958121 C23.7267114,14.5117987 23.1781745,14.3155168 22.6330201,14.3155168 C22.0240671,14.3155168 21.4514765,14.5462819 21.0205772,14.9653423 C20.689651,15.2873423 20.2950201,15.8670738 20.2950201,16.799906 C20.2950201,17.9227248 21.4099463,19.2048993 22.3817718,20.1091678 C22.9598121,20.6470872 23.487302,21.051396 23.6992752,21.2087785 L23.8447248,21.3167383 C21.5812349,24.3448725 17.9684832,26.308443 13.9058523,26.308443 L13.9058523,26.308443 Z M24.1473691,19.6508322 C22.7246309,18.5004832 21.7983758,17.2847383 21.7983758,16.792953 C21.7983758,16.0688054 22.2479732,15.8047785 22.6330201,15.8047785 C22.8119195,15.8047785 23.3956913,15.8789128 23.3956913,16.7245503 L24.1461477,16.7245503 L24.1484966,16.7245503 L24.898953,16.7245503 C24.898953,15.8789128 25.4827248,15.8038389 25.6616242,15.8038389 C26.0466711,15.8038389 26.4962685,16.0741611 26.4962685,16.7983087 C26.4963624,17.2901879 25.5701074,18.5004832 24.1473691,19.6508322 L24.1473691,19.6508322 Z" id="Shape"></path>
                <circle id="Oval" cx="10.810255" cy="10.8052752" r="1.5033557"></circle>
                <path d="M20.0101342,11.2358926 C20.523906,11.2358926 20.9878792,11.4852617 21.2514362,11.9031946 L22.5229933,11.1014362 C21.9825369,10.2442416 21.0430336,9.73253691 20.0100403,9.73263087 C18.9771409,9.73272483 18.0378255,10.2444295 17.497557,11.1014362 L18.769302,11.9031946 C19.0326711,11.4853557 19.4964564,11.2358926 20.0101342,11.2358926 L20.0101342,11.2358926 Z" id="Shape"></path>
            </g>
        </g>
    </g>
</svg>