<?xml version="1.0" encoding="UTF-8" standalone="no"?>
<svg width="40px" height="40px" viewBox="0 0 40 40" version="1.1" xmlns="http://www.w3.org/2000/svg" xmlns:xlink="http://www.w3.org/1999/xlink">
    <!-- Generator: Sketch 46.1 (44463) - http://www.bohemiancoding.com/sketch -->
    <title>knife</title>
    <desc>Created with Sketch.</desc>
    <defs>
        <path d="M19.988077,0 L0,0 L0,30.4695042 L20.8966259,30.4695042 L20.8966259,4.76086003 L25.4393707,4.76086003 L25.4393707,0 L19.988077,0 Z" id="path-1"></path>
    </defs>
    <g id="Page-1" stroke="none" stroke-width="1" fill="none" fill-rule="evenodd">
        <g id="Artboard-1-Copy-7" transform="translate(-331.000000, -699.000000)">
            <g id="icons" transform="translate(331.000000, 269.000000)">
                <g id="knife" transform="translate(5.000000, 434.000000)">
                    <g transform="translate(15.500000, 16.500000) scale(-1, 1) rotate(90.000000) translate(-15.500000, -16.500000) translate(-1.000000, 1.000000)">
                        <g id="Rectangle-47-+-Rectangle-23-Copy" transform="translate(0.000000, -0.000000)">
                            <mask id="mask-2" fill="white">
                                <use xlink:href="#path-1"></use>
                            </mask>
                            <g id="Mask"></g>
                            <path d="M30.3648796,4.76341196 C30.3819268,4.9273227 30.3906644,5.09371271 30.3906644,5.26215451 L31.3906644,5.26215451 L31.3906644,4.25956554 L30.3906644,4.25956554 C30.3906644,4.42871941 30.3819221,4.59683315 30.3648796,4.76341196 Z M2.26077067,0.5 C2.27492693,0.358028943 2.29210695,0.214320277 2.31233303,0.0688634746 L1.81709791,0.5 L2.26077067,0.5 Z M2.26077067,0.5 L25.6256609,0.5 C28.0896658,0.5 30.1156103,2.3666557 30.3648796,4.76341196 C30.1137833,7.21769774 28.0608988,9.33878472 25.6198349,9.54408312 C25.4816093,9.56442057 25.2818983,9.59311195 24.9954931,9.63022186 C24.515966,9.69235483 23.9699972,9.75455443 23.367765,9.81264237 C20.1755664,10.120544 16.8434228,10.1913674 13.7365067,9.87849852 C5.99848963,9.09927423 1.69239049,6.2002011 2.26077067,0.5 Z" id="Rectangle-23-Copy" stroke="#000000" mask="url(#mask-2)"></path>
                        </g>
                        <rect id="base" stroke="#000000" x="20.488077" y="0.5" width="12.011923" height="29.4695042" rx="6.00596151"></rect>
                        <g id="brand" transform="translate(24.519671, 5.790666)" stroke="#000000" stroke-linecap="round">
                            <path d="M0.554840521,2.5 L3.4266974,2.5" id="Line"></path>
                            <path d="M2.04070585,0.971670177 L2.04070585,3.92398506" id="Line"></path>
                        </g>
                    </g>
                    <path d="M1,5 C6.54816419,5.81394923 5.8996645,15.2023733 6,20" id="Path-60" stroke="#000000" stroke-linecap="round"></path>
                </g>
            </g>
        </g>
    </g>
</svg>