<?xml version="1.0" encoding="UTF-8" standalone="no"?>
<svg width="40px" height="40px" viewBox="0 0 40 40" version="1.1" xmlns="http://www.w3.org/2000/svg" xmlns:xlink="http://www.w3.org/1999/xlink">
    <!-- Generator: Sketch 46.1 (44463) - http://www.bohemiancoding.com/sketch -->
    <title>laddertruck</title>
    <desc>Created with Sketch.</desc>
    <defs></defs>
    <g id="Icons" stroke="none" stroke-width="1" fill="none" fill-rule="evenodd">
        <g id="Automotive" transform="translate(-179.000000, -689.000000)" fill="#231F20">
            <g id="Ladder-Truck" transform="translate(181.000000, 699.000000)">
                <g id="Truck">
                    <path d="M35.8323912,3.5717027 L32.4038197,0.166297297 C32.3501054,0.112945946 32.2861054,0.0715135135 32.2169626,0.0431351351 C32.1472483,0.0147567568 32.073534,0 31.9998197,0 L4.57124831,0 C4.49753402,0 4.42381973,0.0147567568 4.35410545,0.0431351351 C4.28496259,0.0715135135 4.22096259,0.112945946 4.16724831,0.166297297 L0.738676877,3.5717027 C0.575248306,3.73402703 0.526105449,3.97808108 0.614676877,4.19035135 C0.702676877,4.40262162 0.911819734,4.54054054 1.14267688,4.54054054 L35.4283912,4.54054054 C35.6592483,4.54054054 35.8678197,4.40262162 35.9563912,4.19035135 C36.0449626,3.97808108 35.9958197,3.73402703 35.8323912,3.5717027 L35.8323912,3.5717027 Z M11.4283912,1.37010811 L13.477534,3.40540541 L9.37924831,3.40540541 L11.4283912,1.37010811 L11.4283912,1.37010811 Z M7.99981973,3.17043243 L5.95067688,1.13513514 L10.0489626,1.13513514 L7.99981973,3.17043243 L7.99981973,3.17043243 Z M12.8078197,1.13513514 L16.9061054,1.13513514 L14.8569626,3.17043243 L12.8078197,1.13513514 L12.8078197,1.13513514 Z M18.285534,1.37010811 L20.3346769,3.40540541 L16.2363912,3.40540541 L18.285534,1.37010811 L18.285534,1.37010811 Z M19.6649626,1.13513514 L23.7632483,1.13513514 L21.7141054,3.17043243 L19.6649626,1.13513514 L19.6649626,1.13513514 Z M25.1426769,1.37010811 L27.1918197,3.40540541 L23.093534,3.40540541 L25.1426769,1.37010811 L25.1426769,1.37010811 Z M26.5221054,1.13513514 L30.6203912,1.13513514 L28.5712483,3.17043243 L26.5221054,1.13513514 L26.5221054,1.13513514 Z M4.57124831,1.37010811 L6.62039116,3.40540541 L2.52210545,3.40540541 L4.57124831,1.37010811 L4.57124831,1.37010811 Z M29.9506769,3.40540541 L31.9998197,1.37010811 L34.0489626,3.40540541 L29.9506769,3.40540541 L29.9506769,3.40540541 Z M23.9998197,8.51351351 L23.9998197,11.3513514 L26.8569626,11.3513514 C27.1729626,11.3513514 27.4283912,11.6056216 27.4283912,11.9189189 C27.4283912,12.2322162 27.1729626,12.4864865 26.8569626,12.4864865 L23.4283912,12.4864865 C23.1123912,12.4864865 22.8569626,12.2322162 22.8569626,11.9189189 L22.8569626,8.51351351 C22.8569626,8.20021622 23.1123912,7.94594595 23.4283912,7.94594595 C23.7443912,7.94594595 23.9998197,8.20021622 23.9998197,8.51351351 L23.9998197,8.51351351 Z M24.5712483,17.5945946 C24.5712483,18.2217568 24.0598197,18.7297297 23.4283912,18.7297297 C22.7969626,18.7297297 22.285534,18.2217568 22.285534,17.5945946 C22.285534,16.968 22.7969626,16.4594595 23.4283912,16.4594595 C24.0598197,16.4594595 24.5712483,16.968 24.5712483,17.5945946 L24.5712483,17.5945946 Z M7.42839116,17.5945946 C7.42839116,18.2217568 6.91696259,18.7297297 6.28553402,18.7297297 C5.65410545,18.7297297 5.14267688,18.2217568 5.14267688,17.5945946 C5.14267688,16.968 5.65410545,16.4594595 6.28553402,16.4594595 C6.91696259,16.4594595 7.42839116,16.968 7.42839116,17.5945946 L7.42839116,17.5945946 Z M29.133534,6.14448649 C29.085534,5.87318919 28.8483912,5.67567568 28.5712483,5.67567568 L17.7141054,5.67567568 C17.3981054,5.67567568 17.1426769,5.92994595 17.1426769,6.24324324 L17.1426769,9.08108108 L12.5078197,9.08108108 C13.2512483,8.3597027 13.7141054,7.35454054 13.7141054,6.24324324 C13.7141054,5.92994595 13.4586769,5.67567568 13.1426769,5.67567568 C12.8266769,5.67567568 12.5712483,5.92994595 12.5712483,6.24324324 C12.5712483,7.80802703 11.289534,9.08108108 9.71410545,9.08108108 C8.13867688,9.08108108 6.85696259,7.80802703 6.85696259,6.24324324 C6.85696259,5.92994595 6.60153402,5.67567568 6.28553402,5.67567568 C5.96953402,5.67567568 5.71410545,5.92994595 5.71410545,6.24324324 C5.71410545,7.35454054 6.17696259,8.3597027 6.92039116,9.08108108 L2.28553402,9.08108108 C2.00839116,9.08108108 1.77124831,9.27859459 1.72324831,9.54989189 L0.00896259155,19.1985405 C-0.0464659799,19.5072973 0.160962592,19.8018649 0.471819734,19.8563514 C0.50553402,19.862027 0.538676877,19.8648649 0.571819734,19.8648649 C0.843819734,19.8648649 1.08496259,19.6713243 1.13353402,19.3960541 L2.76496259,10.2162162 L17.1426769,10.2162162 L17.1426769,11.9189189 C17.1426769,12.2322162 17.3981054,12.4864865 17.7141054,12.4864865 C18.0301054,12.4864865 18.285534,12.2322162 18.285534,11.9189189 L18.285534,6.81081081 L28.0918197,6.81081081 L29.7141054,15.9418378 L29.7141054,18.7297297 L26.6569626,18.7297297 C26.7838197,18.3738649 26.8569626,17.993027 26.8569626,17.5945946 C26.8569626,15.7170811 25.3192483,14.1891892 23.4283912,14.1891892 C21.537534,14.1891892 19.9998197,15.7170811 19.9998197,17.5945946 C19.9998197,19.4726757 21.537534,21 23.4283912,21 C24.4403912,21 25.3483912,20.5595676 25.9763912,19.8648649 L30.285534,19.8648649 C30.601534,19.8648649 30.8569626,19.6105946 30.8569626,19.2972973 L30.8569626,15.8918919 C30.8569626,15.858973 30.8541054,15.8260541 30.8478197,15.7931351 L29.133534,6.14448649 L29.133534,6.14448649 Z M23.4283912,19.8648649 C22.1678197,19.8648649 21.1426769,18.8466486 21.1426769,17.5945946 C21.1426769,16.3431081 22.1678197,15.3243243 23.4283912,15.3243243 C24.6889626,15.3243243 25.7141054,16.3431081 25.7141054,17.5945946 C25.7141054,18.8466486 24.6889626,19.8648649 23.4283912,19.8648649 L23.4283912,19.8648649 Z M18.285534,18.7297297 L9.51410545,18.7297297 C9.64096259,18.3738649 9.71410545,17.993027 9.71410545,17.5945946 C9.71410545,15.7170811 8.17639116,14.1891892 6.28553402,14.1891892 C4.39467688,14.1891892 2.85696259,15.7170811 2.85696259,17.5945946 C2.85696259,19.4726757 4.39467688,21 6.28553402,21 C7.29753402,21 8.20553402,20.5595676 8.83353402,19.8648649 L18.285534,19.8648649 C18.601534,19.8648649 18.8569626,19.6105946 18.8569626,19.2972973 C18.8569626,18.984 18.601534,18.7297297 18.285534,18.7297297 L18.285534,18.7297297 Z M6.28553402,19.8648649 C5.02496259,19.8648649 3.99981973,18.8466486 3.99981973,17.5945946 C3.99981973,16.3431081 5.02496259,15.3243243 6.28553402,15.3243243 C7.54610545,15.3243243 8.57124831,16.3431081 8.57124831,17.5945946 C8.57124831,18.8466486 7.54610545,19.8648649 6.28553402,19.8648649 L6.28553402,19.8648649 Z"></path>
                </g>
            </g>
        </g>
    </g>
</svg>