<?xml version="1.0" encoding="UTF-8" standalone="no"?>
<svg width="40px" height="40px" viewBox="0 0 40 40" version="1.1" xmlns="http://www.w3.org/2000/svg" xmlns:xlink="http://www.w3.org/1999/xlink">
    <!-- Generator: Sketch 46.1 (44463) - http://www.bohemiancoding.com/sketch -->
    <title>laughing</title>
    <desc>Created with Sketch.</desc>
    <defs></defs>
    <g id="Page-1" stroke="none" stroke-width="1" fill="none" fill-rule="evenodd">
        <g id="50-Emoji-Icons" transform="translate(-1740.000000, -1490.000000)" fill="#000000">
            <g id="laughing" transform="translate(1747.000000, 1496.000000)">
                <path d="M13.9998108,0 C6.28032432,0 0,6.28032432 0,13.9998108 C0,21.7192973 6.28032432,27.9996216 13.9998108,27.9996216 C21.7192973,27.9996216 27.9996216,21.7192973 27.9996216,13.9998108 C27.9996216,6.28032432 21.7193919,0 13.9998108,0 L13.9998108,0 Z M13.9998108,26.4861081 C10.5701892,26.4861081 7.45925676,25.0959459 5.20043243,22.8498919 C4.29837838,21.9529459 3.53263514,20.9192162 2.93640541,19.7831351 C2.0282973,18.0530946 1.51351351,16.0856216 1.51351351,13.9998108 C1.51351351,7.11483784 7.11483784,1.51351351 13.9998108,1.51351351 C17.2655,1.51351351 20.2418243,2.77427027 22.4691486,4.83397297 C23.6239595,5.90175676 24.5775676,7.18408108 25.2651757,8.61747297 C26.047473,10.2480946 26.4861081,12.0736757 26.4861081,13.9998108 C26.4861081,20.8847838 20.8847838,26.4861081 13.9998108,26.4861081 L13.9998108,26.4861081 Z" id="Shape"></path>
                <polygon id="Shape" points="10.1312703 14.0901486 12.8984459 11.3227838 10.1311757 8.55560811 9.06102703 9.62594595 10.7581486 11.3227838 9.06093243 13.0199054"></polygon>
                <polygon id="Shape" points="18.9385 13.0199054 17.2413784 11.3227838 18.9384054 9.62594595 17.8683514 8.55560811 15.1009865 11.3227838 17.8682568 14.0901486"></polygon>
                <path d="M21.7831486,15.6078243 L6.21628378,15.6078243 C6.21628378,19.9064865 9.70105405,23.3913514 13.9998108,23.3913514 C18.298473,23.3913514 21.7831486,19.9065811 21.7831486,15.6078243 L21.7831486,15.6078243 Z M20.0537703,17.1213378 L20.0693784,17.1213378 C19.3905676,19.8500135 16.9276081,21.8778378 13.9920541,21.8778378 C11.0563108,21.8778378 8.59325676,19.8499189 7.91444595,17.1213378 L20.0537703,17.1213378 L20.0537703,17.1213378 Z" id="Shape"></path>
            </g>
        </g>
    </g>
</svg>