<?xml version="1.0" encoding="UTF-8" standalone="no"?>
<svg width="40px" height="40px" viewBox="0 0 40 40" version="1.1" xmlns="http://www.w3.org/2000/svg" xmlns:xlink="http://www.w3.org/1999/xlink">
    <!-- Generator: Sketch 46.1 (44463) - http://www.bohemiancoding.com/sketch -->
    <title>leaf02</title>
    <desc>Created with Sketch.</desc>
    <defs></defs>
    <g id="Page-1" stroke="none" stroke-width="1" fill="none" fill-rule="evenodd">
        <g id="Artboard-1-Copy-7" transform="translate(-976.000000, -699.000000)" stroke="#000000">
            <g id="icons" transform="translate(331.000000, 269.000000)">
                <g id="leave" transform="translate(666.688077, 449.688077) rotate(45.000000) translate(-666.688077, -449.688077) translate(653.688077, 429.188077)">
                    <path d="M12.8842206,34.9727437 C19.9334907,34.9727437 25.2072184,30.3273989 25.2072184,23.7718562 C25.2072184,20.7563178 22.9149052,15.5434586 19.3119103,9.68940764 C16.5973127,5.27880112 13.2235956,0.870081067 12.8842206,0.870081067 C12.5448457,0.870081067 9.17112859,5.27880112 6.45653096,9.68940764 C2.85353602,15.5434586 0.561222889,20.7563178 0.561222889,23.7718562 C0.561222889,30.3273989 5.83495057,34.9727437 12.8842206,34.9727437 Z" id="Oval-1"></path>
                    <path d="M12.9547341,14.4315109 L12.9547341,40.9293259" id="Line" stroke-linecap="round"></path>
                    <path d="M13.2290045,21.166955 L10.1699012,18.1078517" id="Line" stroke-linecap="round"></path>
                    <path d="M13.2290045,28.5625665 L8.60674729,23.9403093" id="Line-Copy-12" stroke-linecap="round"></path>
                    <path d="M16.3357782,21.166955 L13.2010038,18.0321806" id="Line-Copy-14" stroke-linecap="round" transform="translate(14.782391, 19.613568) scale(-1, 1) translate(-14.782391, -19.613568) "></path>
                    <path d="M17.8512617,28.5625665 L13.2290045,23.9403093" id="Line-Copy-13" stroke-linecap="round" transform="translate(15.540133, 26.251438) scale(-1, 1) translate(-15.540133, -26.251438) "></path>
                </g>
            </g>
        </g>
    </g>
</svg>