<?xml version="1.0" encoding="UTF-8" standalone="no"?>
<svg width="40px" height="40px" viewBox="0 0 40 40" version="1.1" xmlns="http://www.w3.org/2000/svg" xmlns:xlink="http://www.w3.org/1999/xlink">
    <!-- Generator: Sketch 46.1 (44463) - http://www.bohemiancoding.com/sketch -->
    <title>licence</title>
    <desc>Created with Sketch.</desc>
    <defs></defs>
    <g id="Icons" stroke="none" stroke-width="1" fill="none" fill-rule="evenodd">
        <g id="Automotive" transform="translate(-869.000000, -239.000000)" fill="#231F20">
            <g id="Driver’s-License" transform="translate(873.000000, 248.000000)">
                <g transform="translate(0.589483, 0.000000)">
                    <path d="M28.875,7.5625 C28.875,7.942 28.5676875,8.25 28.1875,8.25 L19.25,8.25 C18.8698125,8.25 18.5625,7.942 18.5625,7.5625 C18.5625,7.183 18.8698125,6.875 19.25,6.875 L28.1875,6.875 C28.5676875,6.875 28.875,7.183 28.875,7.5625 L28.875,7.5625 Z M28.1875,10.3125 L19.25,10.3125 C18.8698125,10.3125 18.5625,10.6205 18.5625,11 C18.5625,11.3795 18.8698125,11.6875 19.25,11.6875 L28.1875,11.6875 C28.5676875,11.6875 28.875,11.3795 28.875,11 C28.875,10.6205 28.5676875,10.3125 28.1875,10.3125 L28.1875,10.3125 Z M23.375,13.75 L19.25,13.75 C18.8698125,13.75 18.5625,14.058 18.5625,14.4375 C18.5625,14.817 18.8698125,15.125 19.25,15.125 L23.375,15.125 C23.7551875,15.125 24.0625,14.817 24.0625,14.4375 C24.0625,14.058 23.7551875,13.75 23.375,13.75 L23.375,13.75 Z M15.5065625,13.178 L13.4440625,11.803 C13.3313125,11.7280625 13.1979375,11.6875 13.0625,11.6875 L7.5625,11.6875 C7.4270625,11.6875 7.2936875,11.7280625 7.1809375,11.803 L5.1184375,13.178 C4.9273125,13.305875 4.8125,13.520375 4.8125,13.75 L4.8125,16.5 C4.8125,16.8795 5.1198125,17.1875 5.5,17.1875 C5.8801875,17.1875 6.1875,16.8795 6.1875,16.5 L6.1875,14.1178125 L7.7708125,13.0625 L12.8541875,13.0625 L14.4375,14.1178125 L14.4375,16.5 C14.4375,16.8795 14.7448125,17.1875 15.125,17.1875 C15.5051875,17.1875 15.8125,16.8795 15.8125,16.5 L15.8125,13.75 C15.8125,13.520375 15.6976875,13.305875 15.5065625,13.178 L15.5065625,13.178 Z M7.5625,7.5625 C7.5625,6.0465625 8.795875,4.8125 10.3125,4.8125 C11.829125,4.8125 13.0625,6.0465625 13.0625,7.5625 C13.0625,9.079125 11.829125,10.3125 10.3125,10.3125 C8.795875,10.3125 7.5625,9.079125 7.5625,7.5625 L7.5625,7.5625 Z M8.9375,7.5625 C8.9375,8.3208125 9.5541875,8.9375 10.3125,8.9375 C11.070125,8.9375 11.6875,8.3208125 11.6875,7.5625 C11.6875,6.8041875 11.070125,6.1875 10.3125,6.1875 C9.5541875,6.1875 8.9375,6.8041875 8.9375,7.5625 L8.9375,7.5625 Z M33,2.0625 L33,19.9375 C33,21.074625 32.074625,22 30.9375,22 L2.0625,22 C0.925375,22 0,21.074625 0,19.9375 L0,2.0625 C0,0.925375 0.925375,0 2.0625,0 L30.9375,0 C32.074625,0 33,0.925375 33,2.0625 L33,2.0625 Z M31.625,2.0625 C31.625,1.6836875 31.317,1.375 30.9375,1.375 L2.0625,1.375 C1.683,1.375 1.375,1.6836875 1.375,2.0625 L1.375,19.9375 C1.375,20.3163125 1.683,20.625 2.0625,20.625 L30.9375,20.625 C31.317,20.625 31.625,20.3163125 31.625,19.9375 L31.625,2.0625 L31.625,2.0625 Z"></path>
                </g>
            </g>
        </g>
    </g>
</svg>