<?xml version="1.0" encoding="UTF-8" standalone="no"?>
<svg width="40px" height="40px" viewBox="0 0 40 40" version="1.1" xmlns="http://www.w3.org/2000/svg" xmlns:xlink="http://www.w3.org/1999/xlink">
    <!-- Generator: Sketch 46.1 (44463) - http://www.bohemiancoding.com/sketch -->
    <title>limousine</title>
    <desc>Created with Sketch.</desc>
    <defs></defs>
    <g id="Icons" stroke="none" stroke-width="1" fill="none" fill-rule="evenodd">
        <g id="Automotive" transform="translate(-352.000000, -689.000000)" fill="#231F20">
            <g id="Limousine" transform="translate(352.000000, 705.000000)">
                <g>
                    <path d="M31.9090909,6.11111111 C30.6055455,6.11111111 29.5454545,7.20805556 29.5454545,8.55555556 C29.5454545,8.55677778 29.5460455,8.558 29.5460455,8.55983333 L10.0454545,8.55983333 C9.71868182,8.55983333 9.45454545,8.833 9.45454545,9.17033333 C9.45454545,9.50827778 9.71868182,9.78144444 10.0454545,9.78144444 L29.8763636,9.78144444 C30.2864545,10.5068333 31.0392727,11 31.9090909,11 C33.2126364,11 34.2727273,9.90366667 34.2727273,8.55555556 C34.2727273,7.20805556 33.2126364,6.11111111 31.9090909,6.11111111 L31.9090909,6.11111111 Z M31.9090909,9.77777778 C31.2573182,9.77777778 30.7272727,9.22961111 30.7272727,8.55555556 C30.7272727,7.8815 31.2573182,7.33333333 31.9090909,7.33333333 C32.5602727,7.33333333 33.0909091,7.8815 33.0909091,8.55555556 C33.0909091,9.22961111 32.5602727,9.77777778 31.9090909,9.77777778 L31.9090909,9.77777778 Z M15.9545455,4.88888889 C15.6277727,4.88888889 15.3636364,4.61511111 15.3636364,4.27777778 C15.3636364,3.94044444 15.6277727,3.66666667 15.9545455,3.66666667 L18.9090909,3.66666667 C19.2358636,3.66666667 19.5,3.94044444 19.5,4.27777778 C19.5,4.61511111 19.2358636,4.88888889 18.9090909,4.88888889 L15.9545455,4.88888889 L15.9545455,4.88888889 Z M10.6363636,4.88888889 C10.3095909,4.88888889 10.0454545,4.61511111 10.0454545,4.27777778 C10.0454545,3.94044444 10.3095909,3.66666667 10.6363636,3.66666667 L13.5909091,3.66666667 C13.9176818,3.66666667 14.1818182,3.94044444 14.1818182,4.27777778 C14.1818182,4.61511111 13.9176818,4.88888889 13.5909091,4.88888889 L10.6363636,4.88888889 L10.6363636,4.88888889 Z M21.8636364,3.05555556 L21.8636364,3.66666667 L26,3.66666667 C26.3267727,3.66666667 26.5909091,3.94044444 26.5909091,4.27777778 C26.5909091,4.61511111 26.3267727,4.88888889 26,4.88888889 L21.2727273,4.88888889 C20.9459545,4.88888889 20.6818182,4.61511111 20.6818182,4.27777778 L20.6818182,3.05555556 C20.6818182,2.71822222 20.9459545,2.44444444 21.2727273,2.44444444 C21.5995,2.44444444 21.8636364,2.71822222 21.8636364,3.05555556 L21.8636364,3.05555556 Z M38.9007273,6.38366667 L37.7189091,4.55033333 C37.6178636,4.39388889 37.4535909,4.29427778 37.2727727,4.27961111 L29.7298182,3.6795 L23.9406818,0.0873888889 C23.8485,0.0305555556 23.7439091,0 23.6363636,0 L8.86363636,0 C8.68813636,0 8.52209091,0.0806666667 8.40922727,0.22 L5.63195455,3.66666667 L1.77272727,3.66666667 C1.53104545,3.66666667 1.31418182,3.81883333 1.22377273,4.05105556 L0.0419545455,7.10661111 C0.0141818182,7.17872222 0,7.25572222 0,7.33333333 L0,9.16666667 C0,9.504 0.264136364,9.77777778 0.590318182,9.77777778 L3.87636364,9.78144444 C4.28645455,10.5068333 5.03986364,11 5.90909091,11 C7.21263636,11 8.27272727,9.90366667 8.27272727,8.55555556 C8.27272727,7.20805556 7.21263636,6.11111111 5.90909091,6.11111111 C4.60554545,6.11111111 3.54545455,7.20805556 3.54545455,8.55555556 L3.54545455,8.55922222 L1.18181818,8.55616667 L1.18181818,7.45127778 L2.17277273,4.88888889 L5.90909091,4.88888889 C6.08459091,4.88888889 6.25063636,4.80822222 6.3635,4.66888889 L9.14077273,1.22222222 L23.4726818,1.22222222 L29.2411364,4.80211111 C29.3197273,4.851 29.4089545,4.87972222 29.4999545,4.88705556 L36.8945909,5.47555556 L37.7271818,6.76622222 L36.8615,8.55677778 L35.5715455,8.55983333 C35.2447727,8.56044444 34.9812273,8.83483333 34.9818182,9.17216667 C34.9824091,9.50888889 35.2465455,9.78144444 35.5727273,9.78144444 L35.5739091,9.78144444 L37.2284545,9.77777778 C37.4518182,9.77716667 37.6562727,9.64638889 37.7555455,9.44044444 L38.9373636,6.996 C39.0325,6.79983333 39.0183182,6.56577778 38.9007273,6.38366667 L38.9007273,6.38366667 Z M5.90909091,7.33333333 C6.56027273,7.33333333 7.09090909,7.8815 7.09090909,8.55555556 C7.09090909,9.22961111 6.56027273,9.77777778 5.90909091,9.77777778 C5.25731818,9.77777778 4.72727273,9.22961111 4.72727273,8.55555556 C4.72727273,7.8815 5.25731818,7.33333333 5.90909091,7.33333333 L5.90909091,7.33333333 Z"></path>
                </g>
            </g>
        </g>
    </g>
</svg>