<?xml version="1.0" encoding="UTF-8" standalone="no"?>
<svg width="40px" height="40px" viewBox="0 0 40 40" version="1.1" xmlns="http://www.w3.org/2000/svg" xmlns:xlink="http://www.w3.org/1999/xlink">
    <!-- Generator: Sketch 46.1 (44463) - http://www.bohemiancoding.com/sketch -->
    <title>lollipop</title>
    <desc>Created with Sketch.</desc>
    <defs></defs>
    <g id="Page-1" stroke="none" stroke-width="1" fill="none" fill-rule="evenodd">
        <g id="30-Fast-Food-Icons" transform="translate(-917.000000, -642.000000)" fill="#000000">
            <g id="lollipop" transform="translate(917.000000, 642.000000)">
                <path d="M25.6774194,4 C19.9855209,4 15.3548387,8.63066622 15.3548387,14.3225451 C15.3548387,16.5877795 16.0970735,18.6787142 17.3388662,20.3824021 L4.66736172,33.0543035 C4.04899785,33.6721147 4,34.0375603 4,34.4515632 C4,35.2907999 4.70920258,36 5.54844215,36 C6.27977634,36 6.71337978,35.5654071 6.94559656,35.3326406 L19.6175415,22.6607392 C21.3212353,23.9030782 23.4121772,24.6452004 25.6774194,24.6452004 C31.3693178,24.6452004 36,20.0145341 36,14.3226552 C36,8.63077632 31.369428,4 25.6774194,4 L25.6774194,4 L25.6774194,4 Z M34.1109953,10.4495262 C32.934166,10.1733775 31.8281359,10.1249303 30.7948869,10.302423 C30.172449,9.32224921 29.270228,8.44337396 28.0707166,7.85397039 C28.7653849,6.9976671 29.4586219,6.5708918 30.176523,6.20082167 C31.8993755,7.15875386 33.2816654,8.65081583 34.1109953,10.4495262 L34.1109953,10.4495262 L34.1109953,10.4495262 Z M23.5587303,5.28528074 C24.2405161,5.12584559 24.9476267,5.03236462 25.6774194,5.03236462 C26.8573316,5.03225451 27.9824103,5.26193802 29.0213849,5.66504029 C28.3787974,6.05680152 27.7279518,6.58421476 27.0776568,7.45450166 C26.3534796,7.22845169 25.5452903,7.09687365 24.6451613,7.09687365 C24.1254538,7.09687365 23.6236938,7.13970533 23.1360275,7.20786165 C23.2005505,6.59577601 23.3415983,5.95517263 23.5587303,5.28528074 L23.5587303,5.28528074 L23.5587303,5.28528074 Z M24.6451613,8.12901805 C27.0797488,8.12901805 28.7484284,9.20828832 29.735212,10.5718552 C28.8608482,10.8712366 28.0453918,11.3471197 27.2934675,12.00512 C26.7391862,10.9686814 25.6764284,10.1935271 24.1290873,10.1935271 C23.9164697,10.1935271 23.7198176,10.2090522 23.5293316,10.2301928 C23.2754237,9.60720651 23.1298615,8.9492062 23.0993617,8.24980559 C23.5934142,8.17085877 24.1099286,8.12901805 24.6451613,8.12901805 L24.6451613,8.12901805 L24.6451613,8.12901805 Z M24.8960963,12.2878751 C24.5699578,11.9483047 24.2865411,11.5957416 24.0491492,11.229305 C24.0764559,11.2287545 24.1012301,11.2256715 24.1291974,11.2256715 C25.9025892,11.2256715 26.7098976,12.5634733 26.7098976,13.8063628 C26.7096774,14.0608204 26.4407948,15.3547996 25.1613454,15.3547996 C25.0658822,15.3547996 24.9771355,15.3501751 24.8924628,15.3423575 C25.4638108,15.2809177 26.1936034,14.9753704 26.1936034,13.8063628 C26.1936034,13.1090542 25.5825067,12.4272708 24.8960963,12.2878751 L24.8960963,12.2878751 L24.8960963,12.2878751 Z M24.6451613,13.2902906 C24.8366383,13.2902906 25.1613454,13.5835059 25.1613454,13.8064729 C25.1613454,14.1456029 25.1381127,14.3226552 24.6451613,14.3226552 L24.6451613,15.30382 C23.8018477,15.1220331 23.6129032,14.5067544 23.6129032,14.3219946 C23.6129032,13.5797623 23.902486,13.2902906 24.6451613,13.2902906 L24.6451613,13.2902906 L24.6451613,13.2902906 Z M24.4223037,16.3003998 C24.6489049,16.3514895 24.8899303,16.3871643 25.1613454,16.3871643 C25.7678176,16.3871643 26.2473359,16.212204 26.6204903,15.9473963 C27.4334142,16.6126637 28.0202873,17.4142437 28.3758245,18.3278027 C27.5335019,18.7736266 26.577108,18.9677455 25.6775295,18.9677455 C24.3045987,18.9677455 23.1257875,18.514104 22.2984396,17.7532636 C23.0721652,17.3976176 23.7925987,16.9145775 24.4223037,16.3003998 L24.4223037,16.3003998 L24.4223037,16.3003998 Z M23.6631123,12.44698 C22.9688843,12.7437187 22.5807553,13.3878455 22.5807553,14.3221047 C22.5807553,14.8114209 22.8517299,15.4085319 23.4065617,15.8364083 C22.8687966,16.2963259 22.2586908,16.6560459 21.6083957,16.9176605 C21.2398658,16.3173563 21.0324232,15.6128908 21.0324232,14.8381769 C21.0324232,14.176543 21.130529,13.2278599 21.6012387,12.4639365 C21.9223123,11.9421387 22.3671467,11.5880341 22.9463123,11.3965578 C23.1489101,11.7594709 23.390486,12.1084005 23.6631123,12.44698 L23.6631123,12.44698 L23.6631123,12.44698 Z M20.7220301,11.9230902 C20.6957144,11.9664724 20.6745738,12.0113961 20.6497996,12.0552187 C19.9834288,11.7208233 19.3465669,11.1979245 18.8382004,10.5920048 C18.9925712,10.40207 19.1566314,10.2183012 19.3326933,10.0429005 C20.0511449,9.32434125 20.9945462,8.80100198 22.0861523,8.48312264 C22.1336086,9.17580671 22.2750968,9.83843152 22.5140301,10.4686848 C21.6052026,10.8051723 21.0471776,11.3945758 20.7220301,11.9230902 L20.7220301,11.9230902 L20.7220301,11.9230902 Z M22.3799191,5.64797368 C22.2235665,6.25290236 22.1260112,6.83966335 22.0872533,7.40792634 C20.7050735,7.76048943 19.5091957,8.40615774 18.6023501,9.31244968 C18.4727535,9.44204579 18.3571406,9.5808909 18.2380043,9.71764398 C18.1327415,9.52770915 18.0419028,9.33678336 17.9685712,9.14376553 C19.0339716,7.56383806 20.5749265,6.33647368 22.3799191,5.64797368 L22.3799191,5.64797368 L22.3799191,5.64797368 Z M17.3476748,10.2342667 C17.4158314,10.3560452 17.4792533,10.4789248 17.5572095,10.5981708 C17.0982813,11.2933874 16.7529841,12.0469607 16.5182348,12.8303731 C16.6675406,11.9127401 16.9497462,11.0414622 17.3476748,10.2342667 L17.3476748,10.2342667 L17.3476748,10.2342667 Z M18.2383346,11.4641636 C18.8190417,12.1032255 19.5127191,12.6492468 20.2482374,13.0074254 C20.0531269,13.6696097 19.9995045,14.3271696 19.9999449,14.8381769 C19.9999449,15.7217868 20.2131131,16.5310743 20.5914426,17.2370813 C19.5530185,17.4750229 18.456788,17.4723803 17.4048206,17.2055907 C16.9320189,15.2804773 17.2097101,13.1937266 18.2383346,11.4641636 L18.2383346,11.4641636 L18.2383346,11.4641636 Z M6.21536344,34.6032908 C6.00274581,34.8164583 5.82976688,34.9676354 5.54855226,34.9676354 C5.24454538,34.9676354 5.03236817,34.6956707 5.03236817,34.4514531 C5.03236817,34.2440112 5.03236817,34.1489887 5.39726452,33.7840936 L17.9918039,21.1895976 C18.2493454,21.4776379 18.522412,21.7505935 18.8103432,22.0081342 L6.21536344,34.6032908 L6.21536344,34.6032908 L6.21536344,34.6032908 Z M19.3325832,20.66791 C18.6517884,19.9871175 18.1376963,19.1928045 17.7785256,18.3422268 C18.2177445,18.4180906 18.6585049,18.4609223 19.0977239,18.4609223 C19.8213505,18.4609223 20.5377101,18.3561003 21.227754,18.157467 C21.8074701,18.8112832 22.5687535,19.317666 23.462166,19.6330129 C23.0337376,20.3865862 22.2105738,21.5437022 21.0373781,22.0170528 C20.4217669,21.6268331 19.8456843,21.1808992 19.3325832,20.66791 L19.3325832,20.66791 L19.3325832,20.66791 Z M28.3555647,23.215459 C27.5137927,23.4693661 26.6229127,23.6093123 25.7001015,23.6118448 C24.4360671,23.4869833 23.2247742,23.1452107 22.1181935,22.618348 C23.2820301,21.8891083 24.0619217,20.7164672 24.4918916,19.9014541 C24.871212,19.9659769 25.2671587,20 25.6774194,20 C26.710228,20 27.743477,19.7791251 28.6647467,19.33209 C28.8909075,20.4990056 28.7913703,21.8068583 28.3555647,23.215459 L28.3555647,23.215459 L28.3555647,23.215459 Z M29.2412697,17.7326736 C28.8247329,16.7618589 28.1800533,15.9030231 27.3192327,15.1861155 C27.6180645,14.6942669 27.7419355,14.159036 27.7419355,13.8064729 C27.7419355,13.5581813 27.7156198,13.3099998 27.6686039,13.0657821 C28.4629196,12.2916188 29.3294658,11.7631045 30.2766108,11.4777067 C30.6544998,12.2616696 30.8387097,13.0796556 30.8387097,13.8064729 C30.8387097,15.651098 30.1843406,16.915128 29.2412697,17.7326736 L29.2412697,17.7326736 L29.2412697,17.7326736 Z M29.5474787,22.7576335 C29.8803338,21.3320763 29.8943174,19.9850254 29.5924026,18.7726356 C30.2014073,18.3199851 30.724308,17.7382891 31.11552,17.0198399 C32.6566951,17.5587043 33.3962873,18.7359699 33.415446,19.4534281 C32.463126,20.8846008 31.1220163,22.0319173 29.5474787,22.7576335 L29.5474787,22.7576335 L29.5474787,22.7576335 Z M31.5247897,16.0707163 C31.7452249,15.4054489 31.8710778,14.6539676 31.8710778,13.8064729 C31.8710778,13.01216 31.6821333,12.1259075 31.3058959,11.2639888 C32.3072138,11.1493672 33.3930942,11.2789633 34.5703639,11.6433079 C34.8263639,12.4923441 34.9677419,13.3909285 34.9677419,14.3225451 C34.967852,15.7124277 34.6525041,17.027107 34.1028473,18.2120801 C33.6605454,17.3517029 32.7898151,16.5295328 31.5247897,16.0707163 L31.5247897,16.0707163 L31.5247897,16.0707163 Z"></path>
            </g>
        </g>
    </g>
</svg>