<?xml version="1.0" encoding="UTF-8" standalone="no"?>
<svg width="40px" height="40px" viewBox="0 0 40 40" version="1.1" xmlns="http://www.w3.org/2000/svg" xmlns:xlink="http://www.w3.org/1999/xlink">
    <!-- Generator: Sketch 46.1 (44463) - http://www.bohemiancoding.com/sketch -->
    <title>lowridecar</title>
    <desc>Created with Sketch.</desc>
    <defs></defs>
    <g id="Icons" stroke="none" stroke-width="1" fill="none" fill-rule="evenodd">
        <g id="Automotive" transform="translate(-697.000000, -995.000000)" fill="#231F20">
            <g id="Lowride-Car" transform="translate(698.000000, 1010.000000)">
                <g>
                    <path d="M18.4283478,3.88888889 C18.1243478,3.88888889 17.8776232,3.64 17.8776232,3.33333333 C17.8776232,3.02666667 18.1243478,2.77777778 18.4283478,2.77777778 L22.4078841,2.77777778 C22.7118841,2.77777778 22.9586087,3.02666667 22.9586087,3.33333333 C22.9586087,3.64 22.7118841,3.88888889 22.4078841,3.88888889 L18.4283478,3.88888889 L18.4283478,3.88888889 Z M37.8937101,5.88888889 L36.2409855,8.11111111 C36.1374493,8.25111111 35.9738841,8.33333333 35.8004058,8.33333333 L33.4477101,8.33333333 C33.0203478,9.31277778 32.0494203,10 30.9198841,10 C29.3965797,10 28.1574493,8.75388889 28.1574493,7.22222222 C28.1574493,5.69055556 29.3965797,4.44444444 30.9198841,4.44444444 C32.4426377,4.44444444 33.6817681,5.69055556 33.6817681,7.22222222 L35.5250435,7.22222222 L36.7647246,5.55555556 L35.5250435,3.88888889 L25.5558261,3.88888889 C25.4330145,3.88888889 25.3135072,3.84777778 25.2171304,3.77111111 L21.8417391,1.11111111 L12.6204058,1.11111111 C11.4176232,1.11111111 10.2842319,1.64611111 9.51101449,2.57888889 C8.52797101,3.76444444 7.08672464,4.44444444 5.55736232,4.44444444 L1.10144928,4.44444444 L1.10089855,5.88111111 L2.98162319,7.77777778 L11.0194493,7.77777778 C11.2182609,7.77777778 11.4011014,7.88611111 11.4985797,8.06 C11.5966087,8.235 11.5933043,8.44833333 11.4908696,8.62 C10.9748406,9.48388889 10.0628406,10 9.05115942,10 C8.15017391,10 7.33014493,9.58888889 6.79649275,8.88888889 L2.75362319,8.88888889 C2.60768116,8.88888889 2.46724638,8.83055556 2.36426087,8.72611111 L0.161362319,6.50388889 C0.057826087,6.4 0,6.25833333 0,6.11111111 L0,3.88888889 C0,3.58222222 0.246724638,3.33333333 0.550724638,3.33333333 L5.55736232,3.33333333 C6.7595942,3.33333333 7.89298551,2.79833333 8.6662029,1.86611111 C9.64924638,0.68 11.0904928,0 12.6204058,0 L22.0311884,0 C22.154,0 22.2735072,0.0416666667 22.3704348,0.117777778 L25.7458261,2.77777778 L35.8004058,2.77777778 C35.9738841,2.77777778 36.1374493,2.86 36.2409855,3 L37.8937101,5.22222222 C38.0407536,5.42 38.0407536,5.69166667 37.8937101,5.88888889 L37.8937101,5.88888889 Z M32.5803188,7.22222222 C32.5803188,6.30333333 31.8351884,5.55555556 30.9198841,5.55555556 C30.004029,5.55555556 29.2588986,6.30333333 29.2588986,7.22222222 C29.2588986,8.14111111 30.004029,8.88888889 30.9198841,8.88888889 C31.8351884,8.88888889 32.5803188,8.14111111 32.5803188,7.22222222 L32.5803188,7.22222222 Z M26.1318841,6.76 L24.6184928,7.77777778 L13.2223478,7.77777778 C12.9183478,7.77777778 12.6716232,8.02666667 12.6716232,8.33333333 C12.6716232,8.64 12.9183478,8.88888889 13.2223478,8.88888889 L24.7848116,8.88888889 C24.8938551,8.88888889 25.0001449,8.85666667 25.0904638,8.79555556 L26.7431884,7.68444444 C26.995971,7.51444444 27.0642609,7.16944444 26.8957391,6.91444444 C26.7266667,6.65833333 26.3852174,6.58944444 26.1318841,6.76 L26.1318841,6.76 Z"></path>
                </g>
            </g>
        </g>
    </g>
</svg>