<?xml version="1.0" encoding="UTF-8" standalone="no"?>
<svg width="40px" height="40px" viewBox="0 0 40 40" version="1.1" xmlns="http://www.w3.org/2000/svg" xmlns:xlink="http://www.w3.org/1999/xlink">
    <!-- Generator: Sketch 46.1 (44463) - http://www.bohemiancoding.com/sketch -->
    <title>map</title>
    <desc>Created with Sketch.</desc>
    <defs></defs>
    <g id="Page-1" stroke="none" stroke-width="1" fill="none" fill-rule="evenodd">
        <g id="Artboard-1-Copy-7" transform="translate(-492.000000, -269.000000)" stroke="#000000">
            <g id="icons" transform="translate(331.000000, 269.000000)">
                <g id="map" transform="translate(167.000000, 6.000000)">
                    <path d="M1,3.71278547 C1,2.17708396 2.0362286,1.50555789 3.43994418,2.13044516 L8.00611907,4.16315366 C9.01203897,4.61095558 10.5624343,4.58306086 11.5514459,4.09840846 L16.8917892,1.48144189 C17.6157325,1.12668278 18.8509015,1.1032209 19.5897845,1.43226011 L24.1543891,3.46496861 C25.7111769,4.15823693 27,6.14097104 27,7.84590923 L27,23.2879561 C27,24.8236886 25.9642546,25.4951325 24.5611952,24.8703224 L19.9965906,22.8376139 C18.9909462,22.3897806 17.4407676,22.4176763 16.451747,22.9023331 L11.1114037,25.5192997 C10.3887427,25.8734304 9.15029841,25.8967614 8.41435163,25.5691425 L3.33366022,23.3073884 C2.95082263,24.2315729 2.95082263,24.2315729 3.02237776,24.2634269 L3.1177846,24.3058988 L3.5244739,23.3923323 C2.15180008,22.7812638 1,20.8662118 1,19.1548323 L1,3.71278547 Z" id="base"></path>
                    <path d="M9.5,5 L9.5,25" id="Line" stroke-linecap="round"></path>
                    <path d="M17.5,2 L17.5,22" id="Line-Copy" stroke-linecap="round"></path>
                </g>
            </g>
        </g>
    </g>
</svg>