<?xml version="1.0" encoding="UTF-8" standalone="no"?>
<svg width="40px" height="40px" viewBox="0 0 40 40" version="1.1" xmlns="http://www.w3.org/2000/svg" xmlns:xlink="http://www.w3.org/1999/xlink">
    <!-- Generator: Sketch 46.1 (44463) - http://www.bohemiancoding.com/sketch -->
    <title>master</title>
    <desc>Created with Sketch.</desc>
    <defs></defs>
    <g id="Page-1" stroke="none" stroke-width="1" fill="none" fill-rule="evenodd">
        <g id="Star-Wars-Icons" transform="translate(-583.000000, -132.000000)" fill="#244356">
            <g id="Group" transform="translate(590.000000, 137.000000)">
                <path d="M2.01188064,24 L0.623819616,24 C0.279318352,24 0,23.7258643 0,23.3877551 L0,9.6122449 C0,9.27413571 0.279318352,9 0.623819616,9 L3.37618038,9 C3.72068165,9 4,9.27413571 4,9.6122449 C4,9.95035408 3.72068165,10.2244898 3.37618038,10.2244898 L1.24763923,10.2244898 L1.24763923,22.7755102 L2.01188064,22.7755102 C2.35638191,22.7755102 2.63570026,23.0496459 2.63570026,23.3877551 C2.63570026,23.7258643 2.35638191,24 2.01188064,24 L2.01188064,24 Z" id="Shape"></path>
                <path d="M2.5,10 C2.2238775,10 2,9.74414 2,9.42857143 L2,2.57142857 C2,2.25586 2.2238775,2 2.5,2 C2.7761225,2 3,2.25586 3,2.57142857 L3,9.42857143 C3,9.74414 2.7761225,10 2.5,10 L2.5,10 Z" id="Shape"></path>
                <path d="M24.0218311,13.7696312 C23.6931047,13.7696312 23.4265764,13.4711279 23.4265764,13.1029646 C23.4265764,7.04192789 19.0272723,2.11012455 13.6170917,2.10296455 C8.20690226,2.11012455 3.80759812,7.04192789 3.80759812,13.1029646 C3.80759812,13.4711279 3.54106986,13.7696312 3.21234343,13.7696312 C2.88361701,13.7696312 2.61708875,13.4711279 2.61708875,13.1029646 C2.61708875,6.31146122 7.54392546,0.784441221 13.604886,0.769631221 L13.604886,0.769631221 L13.604886,0.769631221 L13.604886,0.769631221 L13.6293004,0.769631221 C19.690252,0.784441221 24.6170887,6.31146122 24.6170887,13.1029646 C24.6170858,13.4711279 24.3505575,13.7696312 24.0218311,13.7696312 L24.0218311,13.7696312 Z" id="Shape"></path>
                <path d="M16.3136008,31 L10.9387935,31 C10.83265,31 10.7282563,30.9704941 10.6366935,30.9145285 L1.97728181,25.619475 C1.78074303,25.4990219 1.66672545,25.2724123 1.6839308,25.0354618 L2.57973201,12.5765124 C2.60422621,12.233558 2.88708141,11.9786604 3.21979691,12.001778 C3.54872317,12.0276334 3.79541786,12.3266357 3.77063403,12.6695901 L2.90282661,24.7410225 L11.1009246,29.7541051 L16.1532195,29.7541051 L24.4580343,24.7407173 L23.4820439,12.6753679 C23.4543428,12.3325631 23.6984128,12.0312808 24.0270494,12.0023853 C24.3562683,11.9724247 24.6446625,12.2282349 24.6723637,12.5707346 L25.68014,25.0296839 C25.6993848,25.2699797 25.5842027,25.5002398 25.3841643,25.6213003 L16.6127864,30.9163537 C16.5218059,30.9711046 16.4185797,31 16.3136008,31 L16.3136008,31 Z" id="Shape"></path>
                <path d="M22.4825943,12 L4.51740573,12 C4.231671,12 4,11.7761225 4,11.5 C4,11.2238775 4.231671,11 4.51740573,11 L22.4825943,11 C22.768329,11 23,11.2238775 23,11.5 C23,11.7761225 22.768329,12 22.4825943,12 L22.4825943,12 Z" id="Shape"></path>
                <path d="M16.3172608,31 C15.9825917,31 15.7112452,30.7267936 15.7112452,30.3898305 L15.7112452,17.5762712 C15.7112452,17.3128976 15.8805024,17.0790197 16.1290657,16.9967902 C16.1636874,16.9851695 19.4358167,15.899498 21.7924112,15.0049498 L21.7000877,14.220339 L5.36519653,14.220339 L5.30364959,14.9979481 C7.66793739,15.8933902 11.0149218,16.9839797 11.0507282,16.9955973 C11.3007672,17.0769329 11.4691365,17.3114088 11.4691365,17.5762712 L11.4691365,30.3898305 C11.4691365,30.7267936 11.19779,31 10.863121,31 C10.5284519,31 10.2571054,30.7267936 10.2571054,30.3898305 L10.2571054,18.019001 C9.34808213,17.6695234 6.3683098,16.7232847 4.44403171,15.9745763 C4.1939897,15.8773 4.03776192,15.626142 4.05877248,15.3569597 L4.20080737,13.5617556 C4.22596005,13.2446047 4.48931622,13 4.80534423,13 L22.2380477,13 C22.5449037,13 22.8035238,13.2310468 22.8399211,13.5379193 L23.052678,15.3331234 C23.0852271,15.6099054 22.9263268,15.8740234 22.6680006,15.9745763 C20.7478616,16.7217959 17.8322996,17.6659508 16.9232763,18.0166183 L16.9232763,30.3898305 C16.9232763,30.7267936 16.6519298,31 16.3172608,31 L16.3172608,31 Z" id="Shape"></path>
                <path d="M9.44007208,30 C9.13085469,30 8.88014417,29.7359681 8.88014417,29.4103206 L8.88014417,27.7935965 C8.88014417,23.7104704 6.74241218,20.0010743 3.30136958,18.1125463 C3.02714768,17.9622459 2.92052061,17.6060795 3.0635094,17.317284 C3.20649819,17.028347 3.54497182,16.9164848 3.81864779,17.0667852 C7.63151612,19.1591683 10,23.2693607 10,27.7935965 L10,29.4103206 C10,29.7359681 9.74929228,30 9.44007208,30 L9.44007208,30 Z" id="Shape"></path>
                <path d="M17.8999654,29.6920211 C17.5907561,29.6920211 17.3400452,29.4239641 17.3400452,29.0933522 L17.3400452,27.4385354 C17.3400452,22.9084704 19.6508369,18.9165638 23.5213965,16.7601283 C23.7958931,16.6066595 24.1338184,16.7215411 24.2765358,17.0144459 C24.4195247,17.307641 24.3128975,17.66924 24.0386753,17.8218318 C20.5454096,19.7680896 18.459894,23.3630277 18.459894,27.4385354 L18.459894,29.0933522 C18.459894,29.4239641 18.2091832,29.6920211 17.8999654,29.6920211 L17.8999654,29.6920211 Z" id="Shape"></path>
                <path d="M19.351662,9 C19.1666971,9 18.9830068,8.9289694 18.8547336,8.79119906 L17.1520356,6.96187125 C16.9214611,6.71419783 16.9572502,6.34504533 17.2315338,6.13710198 C17.506132,5.92930205 17.9150195,5.96131383 18.1452761,6.20870334 L19.8479644,8.03803114 C20.0785389,8.28570457 20.0427498,8.65485706 19.7684662,8.86280041 C19.6468449,8.95498097 19.4989372,9 19.351662,9 L19.351662,9 Z" id="Shape"></path>
                <path d="M15.5,10 C15.2238775,10 15,9.70149667 15,9.33333333 L15,7.66666667 C15,7.29850333 15.2238775,7 15.5,7 C15.7761225,7 16,7.29850333 16,7.66666667 L16,9.33333333 C16,9.70149667 15.7761225,10 15.5,10 L15.5,10 Z" id="Shape"></path>
            </g>
        </g>
    </g>
</svg>