<?xml version="1.0" encoding="UTF-8" standalone="no"?>
<svg width="40px" height="40px" viewBox="0 0 40 40" version="1.1" xmlns="http://www.w3.org/2000/svg" xmlns:xlink="http://www.w3.org/1999/xlink">
    <!-- Generator: Sketch 46.1 (44463) - http://www.bohemiancoding.com/sketch -->
    <title>meat</title>
    <desc>Created with Sketch.</desc>
    <defs></defs>
    <g id="Page-1" stroke="none" stroke-width="1" fill="none" fill-rule="evenodd">
        <g id="30-Fast-Food-Icons" transform="translate(-1151.000000, -642.000000)" fill="#000000">
            <g id="meat" transform="translate(1151.000000, 642.000000)">
                <path d="M25.7871656,21.091516 C23.5348886,22.1565393 23.5387492,24.6579279 23.8562581,25.8317985 L23.9807346,26.2932938 L24.477588,26.2149768 C27.762412,25.6975091 30.2164955,23.6172405 30.9101247,22.3058726 L31.1146219,21.9184909 L30.7483286,21.659204 C30.6480688,21.5881877 28.2548198,19.925278 25.7871656,21.091516 L25.7871656,21.091516 L25.7871656,21.091516 Z M37,14.2962963 C37,10.1668425 34.4565368,6 28.7741351,6 C25.6241996,6 23.1976086,7.14909235 20.6602288,9.84218074 C16.502431,14.2553679 13.8969634,15.3333333 7.38709677,15.3333333 C4.16802065,15.3333333 3,17.8139259 3,19.4814815 C3,19.653602 3.01041204,19.8268286 3.02632258,20.0000553 L3,20.0000553 L3,25.1852405 L3.02409978,25.3376711 C4.01885935,28.3917037 10.5951759,34 18.3548387,34 C31.6351071,34 37,24.4856968 37,20.5185185 L37,14.8148701 L36.9736774,14.8148701 C36.989588,14.6348958 37,14.459678 37,14.2962963 L37,14.2962963 Z M35.9032258,20.5185185 C35.9032258,24.1808356 30.8536189,32.962963 18.3548387,32.962963 C11.2734796,32.962963 5.06801892,27.8456968 4.09677419,25.1038262 L4.09677419,23.0359467 C4.29588989,23.3506528 4.51571269,23.658722 4.76525075,23.9537383 C6.96593548,26.5545719 11.5471174,29.3333886 17.8063931,29.3333886 C26.0585806,29.3333886 33.127188,25.2054835 35.9032258,18.9168909 L35.9032258,20.5185185 L35.9032258,20.5185185 Z M24.835692,25.0907733 C24.7479501,24.2933333 24.7869075,22.7242272 26.2773505,22.0195951 C26.7358314,21.8028958 27.1996938,21.7209284 27.6379355,21.7209284 C28.4731217,21.7209284 29.2172903,22.0174933 29.6614985,22.2420464 C28.9622538,23.1364978 27.2700043,24.5551644 24.835692,25.0907733 L24.835692,25.0907733 Z M35.379114,17.2544237 C33.2212473,23.8588286 26.1590744,28.296241 17.8066271,28.296241 C11.9361067,28.296241 7.66307441,25.7181946 5.62196301,23.305521 C4.63866839,22.1434864 4.09689118,20.7849956 4.09689118,19.4814815 C4.09677419,18.4055072 4.78443699,16.3703704 7.38709677,16.3703704 C14.2123665,16.3703704 17.1094882,15.1699516 21.4790366,10.5318795 C23.8178856,8.04973827 25.9314133,7.03703704 28.774252,7.03703704 C33.6987974,7.03703704 35.9033428,10.6827615 35.9033428,14.2962963 C35.9033428,15.2218311 35.5413781,16.7219121 35.379114,17.2544237 L35.379114,17.2544237 Z M28.774252,7.55561086 C25.1455966,7.55561086 22.1936069,10.3468168 22.1936069,13.7778331 C22.1936069,17.2088494 25.1454796,20.0000553 28.774252,20.0000553 C32.4029075,20.0000553 35.3548972,17.2088494 35.3548972,13.7778331 C35.3548972,10.3468168 32.4029075,7.55561086 28.774252,7.55561086 L28.774252,7.55561086 Z M28.774252,18.9630183 C25.750431,18.9630183 23.2903811,16.636958 23.2903811,13.7778331 C23.2903811,10.9187081 25.750431,8.5926479 28.774252,8.5926479 C31.7980731,8.5926479 34.258123,10.9187081 34.258123,13.7778331 C34.258123,16.636958 31.7980731,18.9630183 28.774252,18.9630183 L28.774252,18.9630183 Z M21.4011217,15.938963 C20.6854985,15.4878657 18.7178563,14.5820207 15.9161978,15.9063309 C14.7810512,16.4430459 12.4071054,16.8106272 9.56473462,16.8889442 L9.5965557,17.9259812 C11.0344705,17.8860484 14.5753841,17.6998795 16.4063828,16.8345205 C18.6948095,15.7523516 20.2357918,16.4513422 20.7924267,16.8018884 C22.0860938,17.6170272 22.7419355,18.8676662 22.7425204,20.5186291 C22.7431054,21.9149511 22.3548181,25.2687565 18.7529531,26.242078 C16.7354735,26.7870894 13.2800791,25.8355595 10.9230968,24.7213116 C8.68345462,23.663036 6.29032258,21.7304415 6.29032258,19.4817027 C6.29032258,18.8137956 6.51786667,17.9260919 8.48387097,17.9260919 L8.48387097,16.8890548 C5.62079312,16.8890548 5.19354839,18.5135802 5.19354839,19.4817027 C5.19354839,22.2026667 7.89986065,24.451516 10.4323269,25.64928 C12.4948473,26.6241501 15.2104017,27.4339793 17.4006744,27.4339793 C17.9989574,27.4339793 18.558283,27.373361 19.0540834,27.2395141 C23.4960482,26.0396484 23.8398796,21.7919447 23.8392946,20.5185185 C23.8387097,18.5279605 22.9953342,16.9443635 21.4011217,15.938963 L21.4011217,15.938963 Z M21.6451613,20.5185185 C21.6451613,19.0890114 20.4151363,17.9258706 18.9031673,17.9258706 C17.3911983,17.9258706 16.1612903,19.0890114 16.1612903,20.5185185 C16.1612903,21.9480257 17.3913153,23.1111664 18.9032843,23.1111664 C20.4152533,23.1111664 21.6451613,21.9480257 21.6451613,20.5185185 L21.6451613,20.5185185 Z M17.2580645,20.5185185 C17.2580645,19.6609027 17.9961497,18.9629077 18.9032843,18.9629077 C19.8104189,18.9629077 20.5483871,19.6609027 20.5483871,20.5185185 C20.5483871,21.3761343 19.8103019,22.0741294 18.9031673,22.0741294 C17.9960327,22.0741294 17.2580645,21.3761343 17.2580645,20.5185185 L17.2580645,20.5185185 Z M28.774252,16.8889442 L28.774252,17.9259812 C31.1931217,17.9259812 33.1613488,16.064956 33.1613488,13.7778331 L32.0645746,13.7778331 C32.0645746,15.4936178 30.5888723,16.8889442 28.774252,16.8889442 L28.774252,16.8889442 Z M13.7006555,30.4439862 L13.1374692,31.3337916 C13.2388989,31.3913126 15.3249342,32.5512454 18.417311,32.5512454 C18.9431776,32.5512454 19.4987596,32.5175072 20.0778563,32.4393007 L19.9226116,31.4131042 C16.338997,31.8963911 13.7265101,30.4580346 13.7006555,30.4439862 L13.7006555,30.4439862 Z M21.0863037,31.4074627 L21.0967157,32.4444998 C21.2030589,32.4444998 21.8172525,32.4180622 23.4635252,31.8994884 L23.1164181,30.9158795 C21.6298357,31.3841225 21.0918022,31.4074627 21.0863037,31.4074627 L21.0863037,31.4074627 Z"></path>
            </g>
        </g>
    </g>
</svg>