<?xml version="1.0" encoding="UTF-8" standalone="no"?>
<svg width="40px" height="40px" viewBox="0 0 40 40" version="1.1" xmlns="http://www.w3.org/2000/svg" xmlns:xlink="http://www.w3.org/1999/xlink">
    <!-- Generator: Sketch 46.1 (44463) - http://www.bohemiancoding.com/sketch -->
    <title>minicar</title>
    <desc>Created with Sketch.</desc>
    <defs></defs>
    <g id="Icons" stroke="none" stroke-width="1" fill="none" fill-rule="evenodd">
        <g id="Automotive" transform="translate(-179.000000, -835.000000)" fill="#231F20">
            <g id="Minicar" transform="translate(182.000000, 844.000000)">
                <g>
                    <path d="M10.3409091,6.28571429 L10.3409091,7.85714286 L16.7045455,7.85714286 L16.7045455,6.28571429 C16.7045455,5.852 17.0609091,5.5 17.5,5.5 C17.9390909,5.5 18.2954545,5.852 18.2954545,6.28571429 L18.2954545,7.85714286 L27.0454545,7.85714286 C27.4845455,7.85714286 27.8409091,8.20914286 27.8409091,8.64285714 C27.8409091,9.07657143 27.4845455,9.42857143 27.0454545,9.42857143 L3.97727273,9.42857143 C3.53818182,9.42857143 3.18181818,9.07657143 3.18181818,8.64285714 C3.18181818,8.20914286 3.53818182,7.85714286 3.97727273,7.85714286 L8.75,7.85714286 L8.75,6.28571429 C8.75,5.852 9.10636364,5.5 9.54545455,5.5 C9.98454545,5.5 10.3409091,5.852 10.3409091,6.28571429 L10.3409091,6.28571429 Z M4.77272727,14.9285714 C4.33363636,14.9285714 3.97727273,15.2805714 3.97727273,15.7142857 C3.97727273,16.148 4.33363636,16.5 4.77272727,16.5 L7.95454545,16.5 C8.39363636,16.5 8.75,16.148 8.75,15.7142857 C8.75,15.2805714 8.39363636,14.9285714 7.95454545,14.9285714 L4.77272727,14.9285714 L4.77272727,14.9285714 Z M5.56818182,1.57142857 L20.6818182,1.57142857 C21.1209091,1.57142857 21.4772727,1.21942857 21.4772727,0.785714286 C21.4772727,0.352 21.1209091,0 20.6818182,0 L5.56818182,0 C5.12909091,0 4.77272727,0.352 4.77272727,0.785714286 C4.77272727,1.21942857 5.12909091,1.57142857 5.56818182,1.57142857 L5.56818182,1.57142857 Z M19.0909091,18.0714286 L10.3409091,18.0714286 C10.3409091,17.6377143 9.98454545,17.2857143 9.54545455,17.2857143 C9.10636364,17.2857143 8.75,17.6377143 8.75,18.0714286 C8.75,19.371 7.67931818,20.4285714 6.36363636,20.4285714 C5.04795455,20.4285714 3.97727273,19.371 3.97727273,18.0714286 C3.97727273,17.6377143 3.62090909,17.2857143 3.18181818,17.2857143 C2.74272727,17.2857143 2.38636364,17.6377143 2.38636364,18.0714286 C2.38636364,20.2376429 4.17056818,22 6.36363636,22 C7.99034091,22 9.38795455,21.0280714 10.0036364,19.6428571 L19.0909091,19.6428571 C19.53,19.6428571 19.8863636,19.2908571 19.8863636,18.8571429 C19.8863636,18.4234286 19.53,18.0714286 19.0909091,18.0714286 L19.0909091,18.0714286 Z M35,14.1428571 L35,16.5 C35,16.9337143 34.6436364,17.2857143 34.2045455,17.2857143 L33.4090909,17.2857143 C33.4090909,18.5852857 32.3384091,19.6428571 31.0227273,19.6428571 L29.89,19.6428571 C29.2743182,21.0280714 27.8767045,22 26.25,22 C24.0569318,22 22.2727273,20.2376429 22.2727273,18.0714286 C22.2727273,15.9052143 24.0569318,14.1428571 26.25,14.1428571 C28.4430682,14.1428571 30.2272727,15.9052143 30.2272727,18.0714286 L31.0227273,18.0714286 C31.4610227,18.0714286 31.8181818,17.7194286 31.8181818,17.2857143 L31.8181818,13.3437857 C31.8181818,11.418 31.3568182,9.48907143 30.485,7.76678571 L28.1829545,3.92857143 L3.02431818,3.92857143 L1.59090909,10.3007143 L1.59090909,17.2857143 C1.59090909,17.7194286 1.23454545,18.0714286 0.795454545,18.0714286 C0.356363636,18.0714286 0,17.7194286 0,17.2857143 L0,10.2142857 C0,10.1569286 0.00636363636,10.1003571 0.0190909091,10.0437857 L1.61,2.97235714 C1.69034091,2.61328571 2.01329545,2.35714286 2.38636364,2.35714286 L28.6363636,2.35714286 C28.9171591,2.35714286 29.1780682,2.50407143 29.3204545,2.74292857 L31.8810227,7.01485714 C32.8904545,9.0035 33.4090909,11.1752143 33.4090909,13.3437857 L33.4090909,13.3571429 L34.2045455,13.3571429 C34.6436364,13.3571429 35,13.7091429 35,14.1428571 L35,14.1428571 Z M28.6363636,18.0714286 C28.6363636,16.7718571 27.5656818,15.7142857 26.25,15.7142857 C24.9343182,15.7142857 23.8636364,16.7718571 23.8636364,18.0714286 C23.8636364,19.371 24.9343182,20.4285714 26.25,20.4285714 C27.5656818,20.4285714 28.6363636,19.371 28.6363636,18.0714286 L28.6363636,18.0714286 Z"></path>
                </g>
            </g>
        </g>
    </g>
</svg>