<?xml version="1.0" encoding="UTF-8" standalone="no"?>
<svg width="40px" height="40px" viewBox="0 0 40 40" version="1.1" xmlns="http://www.w3.org/2000/svg" xmlns:xlink="http://www.w3.org/1999/xlink">
    <!-- Generator: Sketch 46.1 (44463) - http://www.bohemiancoding.com/sketch -->
    <title>mini</title>
    <desc>Created with Sketch.</desc>
    <defs></defs>
    <g id="Icons" stroke="none" stroke-width="1" fill="none" fill-rule="evenodd">
        <g id="Automotive" transform="translate(-352.000000, -835.000000)" fill="#231F20">
            <g id="Manually-Gears" transform="translate(354.000000, 847.000000)">
                <g>
                    <path d="M6.10169492,9.84615385 C5.09247458,9.84615385 4.27118644,10.6744615 4.27118644,11.6923077 C4.27118644,12.7107692 5.09247458,13.5384615 6.10169492,13.5384615 C7.11091525,13.5384615 7.93220339,12.7107692 7.93220339,11.6923077 C7.93220339,10.6744615 7.11091525,9.84615385 6.10169492,9.84615385 L6.10169492,9.84615385 Z M6.10169492,12.3076923 C5.76549153,12.3076923 5.49152542,12.032 5.49152542,11.6923077 C5.49152542,11.3532308 5.76549153,11.0769231 6.10169492,11.0769231 C6.43789831,11.0769231 6.71186441,11.3532308 6.71186441,11.6923077 C6.71186441,12.032 6.43789831,12.3076923 6.10169492,12.3076923 L6.10169492,12.3076923 Z M29.2881356,9.84615385 C28.2789153,9.84615385 27.4576271,10.6744615 27.4576271,11.6923077 C27.4576271,12.7107692 28.2789153,13.5384615 29.2881356,13.5384615 C30.2973559,13.5384615 31.1186441,12.7107692 31.1186441,11.6923077 C31.1186441,10.6744615 30.2973559,9.84615385 29.2881356,9.84615385 L29.2881356,9.84615385 Z M29.2881356,12.3076923 C28.9519322,12.3076923 28.6779661,12.032 28.6779661,11.6923077 C28.6779661,11.3532308 28.9519322,11.0769231 29.2881356,11.0769231 C29.624339,11.0769231 29.8983051,11.3532308 29.8983051,11.6923077 C29.8983051,12.032 29.624339,12.3076923 29.2881356,12.3076923 L29.2881356,12.3076923 Z M23.1864407,4.92307692 C23.1864407,5.26276923 22.9130847,5.53846154 22.5762712,5.53846154 L4.88135593,5.53846154 C4.54454237,5.53846154 4.27118644,5.26276923 4.27118644,4.92307692 C4.27118644,4.58338462 4.54454237,4.30769231 4.88135593,4.30769231 L10.3728814,4.30769231 L10.3728814,3.07692308 C10.3728814,2.73723077 10.6462373,2.46153846 10.9830508,2.46153846 C11.3198644,2.46153846 11.5932203,2.73723077 11.5932203,3.07692308 L11.5932203,4.30769231 L22.5762712,4.30769231 C22.9130847,4.30769231 23.1864407,4.58338462 23.1864407,4.92307692 L23.1864407,4.92307692 Z M3.57376271,3.39384615 L1.79816949,6.37907692 L1.22033898,9.29169231 L1.22033898,12.3076923 C1.22033898,12.6473846 0.946983051,12.9230769 0.610169492,12.9230769 C0.273355932,12.9230769 0,12.6473846 0,12.3076923 L0,9.23076923 C0,9.19015385 0.00366101695,9.15015385 0.0122033898,9.11015385 L0.622372881,6.03323077 C0.63579661,5.96430769 0.660813559,5.89784615 0.697423729,5.83692308 L2.5279322,2.76 C2.70122034,2.46892308 3.07586441,2.37415385 3.36508475,2.54953846 C3.65369492,2.72430769 3.74766102,3.10215385 3.57376271,3.39384615 L3.57376271,3.39384615 Z M35.1067119,8.07507692 L33.2487458,6.20123077 C32.8576271,5.80676923 32.367661,5.52676923 31.831322,5.39138462 L27.7303729,4.35753846 L22.3407458,0.129846154 C22.2333559,0.0455384615 22.1015593,0 21.9661017,0 L3.05084746,0 C2.7140339,0 2.44067797,0.275692308 2.44067797,0.615384615 C2.44067797,0.955076923 2.7140339,1.23076923 3.05084746,1.23076923 L21.7568136,1.23076923 L27.0829831,5.40923077 C27.1501017,5.46153846 27.2275932,5.49969231 27.3093559,5.52 L31.5353898,6.58523077 C31.8569492,6.66646154 32.1510508,6.83446154 32.3853559,7.07076923 L34.2439322,8.94523077 C34.5892881,9.29353846 34.779661,9.75753846 34.779661,10.2504615 L34.779661,12.9230769 L33.379322,12.9230769 C33.4952542,12.5329231 33.559322,12.12 33.559322,11.6923077 C33.559322,9.31692308 31.6433898,7.38461538 29.2881356,7.38461538 C26.9328814,7.38461538 25.0169492,9.31692308 25.0169492,11.6923077 C25.0169492,14.0676923 26.9328814,16 29.2881356,16 C30.7360678,16 32.0155932,15.2683077 32.7880678,14.1538462 L35.3898305,14.1538462 C35.7266441,14.1538462 36,13.8781538 36,13.5384615 L36,10.2504615 C36,9.42830769 35.6827119,8.656 35.1067119,8.07507692 L35.1067119,8.07507692 Z M29.2881356,14.7692308 C27.6058983,14.7692308 26.2372881,13.3889231 26.2372881,11.6923077 C26.2372881,9.99569231 27.6058983,8.61538462 29.2881356,8.61538462 C30.9703729,8.61538462 32.3389831,9.99569231 32.3389831,11.6923077 C32.3389831,13.3889231 30.9703729,14.7692308 29.2881356,14.7692308 L29.2881356,14.7692308 Z M22.5762712,12.9230769 L10.1928814,12.9230769 C10.3088136,12.5329231 10.3728814,12.12 10.3728814,11.6923077 C10.3728814,9.31692308 8.45694915,7.38461538 6.10169492,7.38461538 C3.74644068,7.38461538 1.83050847,9.31692308 1.83050847,11.6923077 C1.83050847,14.0676923 3.74644068,16 6.10169492,16 C7.54962712,16 8.82915254,15.2683077 9.60162712,14.1538462 L22.5762712,14.1538462 C22.9130847,14.1538462 23.1864407,13.8781538 23.1864407,13.5384615 C23.1864407,13.1987692 22.9130847,12.9230769 22.5762712,12.9230769 L22.5762712,12.9230769 Z M6.10169492,14.7692308 C4.41945763,14.7692308 3.05084746,13.3889231 3.05084746,11.6923077 C3.05084746,9.99569231 4.41945763,8.61538462 6.10169492,8.61538462 C7.7839322,8.61538462 9.15254237,9.99569231 9.15254237,11.6923077 C9.15254237,13.3889231 7.7839322,14.7692308 6.10169492,14.7692308 L6.10169492,14.7692308 Z"></path>
                </g>
            </g>
        </g>
    </g>
</svg>