<?xml version="1.0" encoding="UTF-8" standalone="no"?>
<svg width="40px" height="40px" viewBox="0 0 40 40" version="1.1" xmlns="http://www.w3.org/2000/svg" xmlns:xlink="http://www.w3.org/1999/xlink">
    <!-- Generator: Sketch 46.1 (44463) - http://www.bohemiancoding.com/sketch -->
    <title>monstertruck</title>
    <desc>Created with Sketch.</desc>
    <defs></defs>
    <g id="Icons" stroke="none" stroke-width="1" fill="none" fill-rule="evenodd">
        <g id="Automotive" transform="translate(-1042.000000, -689.000000)" fill="#231F20">
            <g id="Monster-Truck" transform="translate(1043.000000, 698.000000)">
                <g>
                    <path d="M7.96774194,14.5263158 C6.61567742,14.5263158 5.51612903,15.6127632 5.51612903,16.9473684 C5.51612903,18.2825789 6.61567742,19.3684211 7.96774194,19.3684211 C9.31919355,19.3684211 10.4193548,18.2825789 10.4193548,16.9473684 C10.4193548,15.6127632 9.31919355,14.5263158 7.96774194,14.5263158 L7.96774194,14.5263158 Z M7.96774194,18.1578947 C7.29170968,18.1578947 6.74193548,17.6149737 6.74193548,16.9473684 C6.74193548,16.2797632 7.29170968,15.7368421 7.96774194,15.7368421 C8.64377419,15.7368421 9.19354839,16.2797632 9.19354839,16.9473684 C9.19354839,17.6149737 8.64377419,18.1578947 7.96774194,18.1578947 L7.96774194,18.1578947 Z M30.0322581,14.5263158 C28.6801935,14.5263158 27.5806452,15.6127632 27.5806452,16.9473684 C27.5806452,18.2825789 28.6801935,19.3684211 30.0322581,19.3684211 C31.3843226,19.3684211 32.483871,18.2825789 32.483871,16.9473684 C32.483871,15.6127632 31.3843226,14.5263158 30.0322581,14.5263158 L30.0322581,14.5263158 Z M30.0322581,18.1578947 C29.3562258,18.1578947 28.8064516,17.6149737 28.8064516,16.9473684 C28.8064516,16.2797632 29.3562258,15.7368421 30.0322581,15.7368421 C30.7082903,15.7368421 31.2580645,16.2797632 31.2580645,16.9473684 C31.2580645,17.6149737 30.7082903,18.1578947 30.0322581,18.1578947 L30.0322581,18.1578947 Z M7.96774194,10.8947368 C4.58819355,10.8947368 1.83870968,13.6099474 1.83870968,16.9473684 C1.83870968,20.2847895 4.58819355,23 7.96774194,23 C11.3472903,23 14.0967742,20.2847895 14.0967742,16.9473684 C14.0967742,13.6099474 11.3472903,10.8947368 7.96774194,10.8947368 L7.96774194,10.8947368 Z M11.8363871,19.9119474 L11.4655806,19.5457632 C11.2259355,19.3091053 10.8379677,19.3091053 10.5989355,19.5457632 C10.3592903,19.7824211 10.3592903,20.1655526 10.5989355,20.4016053 L10.969129,20.7677895 C10.291871,21.2883158 9.47364516,21.6369474 8.58064516,21.7477105 L8.58064516,21.1842105 C8.58064516,20.8501053 8.30606452,20.5789474 7.96774194,20.5789474 C7.62941935,20.5789474 7.35483871,20.8501053 7.35483871,21.1842105 L7.35483871,21.7477105 C6.46122581,21.6369474 5.6436129,21.2883158 4.96574194,20.7677895 L5.33654839,20.4016053 C5.57619355,20.1655526 5.57619355,19.7824211 5.33654839,19.5457632 C5.09690323,19.3091053 4.70893548,19.3091053 4.46990323,19.5457632 L4.09909677,19.9119474 C3.572,19.2425263 3.21896774,18.4351053 3.10680645,17.5526316 L3.67741935,17.5526316 C4.01574194,17.5526316 4.29032258,17.2814737 4.29032258,16.9473684 C4.29032258,16.6132632 4.01574194,16.3421053 3.67741935,16.3421053 L3.10680645,16.3421053 C3.21896774,15.4602368 3.572,14.6528158 4.09909677,13.9833947 L4.46990323,14.3489737 C4.58941935,14.467 4.74632258,14.5263158 4.90322581,14.5263158 C5.06012903,14.5263158 5.21703226,14.467 5.33654839,14.3489737 C5.57619355,14.1129211 5.57619355,13.7297895 5.33654839,13.4931316 L4.96574194,13.1269474 C5.6436129,12.6064211 6.46122581,12.2583947 7.35483871,12.1476316 L7.35483871,12.7105263 C7.35483871,13.0446316 7.62941935,13.3157895 7.96774194,13.3157895 C8.30606452,13.3157895 8.58064516,13.0446316 8.58064516,12.7105263 L8.58064516,12.1476316 C9.47364516,12.2583947 10.291871,12.6064211 10.969129,13.1269474 L10.5989355,13.4931316 C10.3592903,13.7297895 10.3592903,14.1129211 10.5989355,14.3489737 C10.7184516,14.467 10.8753548,14.5263158 11.0322581,14.5263158 C11.1891613,14.5263158 11.3460645,14.467 11.4655806,14.3489737 L11.8363871,13.9833947 C12.3634839,14.6528158 12.7165161,15.4602368 12.8286774,16.3421053 L12.2580645,16.3421053 C11.9197419,16.3421053 11.6451613,16.6132632 11.6451613,16.9473684 C11.6451613,17.2814737 11.9197419,17.5526316 12.2580645,17.5526316 L12.8286774,17.5526316 C12.7165161,18.4351053 12.3634839,19.2425263 11.8363871,19.9119474 L11.8363871,19.9119474 Z M30.0322581,10.8947368 C26.6527097,10.8947368 23.9032258,13.6099474 23.9032258,16.9473684 C23.9032258,20.2847895 26.6527097,23 30.0322581,23 C33.4118065,23 36.1612903,20.2847895 36.1612903,16.9473684 C36.1612903,13.6099474 33.4118065,10.8947368 30.0322581,10.8947368 L30.0322581,10.8947368 Z M33.9009032,19.9119474 L33.5300968,19.5457632 C33.2904516,19.3091053 32.9024839,19.3091053 32.6634516,19.5457632 C32.4238065,19.7824211 32.4238065,20.1655526 32.6634516,20.4016053 L33.0336452,20.7677895 C32.3563871,21.2883158 31.5381613,21.6369474 30.6451613,21.7477105 L30.6451613,21.1842105 C30.6451613,20.8501053 30.3705806,20.5789474 30.0322581,20.5789474 C29.6939355,20.5789474 29.4193548,20.8501053 29.4193548,21.1842105 L29.4193548,21.7477105 C28.5257419,21.6369474 27.708129,21.2883158 27.0302581,20.7677895 L27.4010645,20.4016053 C27.6407097,20.1655526 27.6407097,19.7824211 27.4010645,19.5457632 C27.1614194,19.3091053 26.7734516,19.3091053 26.5344194,19.5457632 L26.1636129,19.9119474 C25.6365161,19.2425263 25.2834839,18.4351053 25.1713226,17.5526316 L25.7419355,17.5526316 C26.0802581,17.5526316 26.3548387,17.2814737 26.3548387,16.9473684 C26.3548387,16.6132632 26.0802581,16.3421053 25.7419355,16.3421053 L25.1713226,16.3421053 C25.2834839,15.4602368 25.6365161,14.6528158 26.1636129,13.9833947 L26.5344194,14.3489737 C26.6539355,14.467 26.8108387,14.5263158 26.9677419,14.5263158 C27.1246452,14.5263158 27.2815484,14.467 27.4010645,14.3489737 C27.6407097,14.1129211 27.6407097,13.7297895 27.4010645,13.4931316 L27.0302581,13.1269474 C27.708129,12.6064211 28.5257419,12.2583947 29.4193548,12.1476316 L29.4193548,12.7105263 C29.4193548,13.0446316 29.6939355,13.3157895 30.0322581,13.3157895 C30.3705806,13.3157895 30.6451613,13.0446316 30.6451613,12.7105263 L30.6451613,12.1476316 C31.5381613,12.2583947 32.3563871,12.6064211 33.0336452,13.1269474 L32.6634516,13.4931316 C32.4238065,13.7297895 32.4238065,14.1129211 32.6634516,14.3489737 C32.7829677,14.467 32.939871,14.5263158 33.0967742,14.5263158 C33.2536774,14.5263158 33.4105806,14.467 33.5300968,14.3489737 L33.9009032,13.9833947 C34.428,14.6528158 34.7810323,15.4602368 34.8925806,16.3421053 L34.3225806,16.3421053 C33.9842581,16.3421053 33.7096774,16.6132632 33.7096774,16.9473684 C33.7096774,17.2814737 33.9842581,17.5526316 34.3225806,17.5526316 L34.8925806,17.5526316 C34.7810323,18.4351053 34.428,19.2425263 33.9009032,19.9119474 L33.9009032,19.9119474 Z M37.6610645,7.32731579 L36.7741935,6.88910526 L36.7741935,4.84210526 C36.7741935,4.53886842 36.5468065,4.28223684 36.2421935,4.24228947 L27.2545806,3.059 L24.3365484,0.177342105 C24.2213226,0.0641578947 24.0656452,0 23.9032258,0 L19,0 C18.6616774,0 18.3870968,0.271157895 18.3870968,0.605263158 L18.3870968,3.02631579 L11.4992903,3.02631579 L13.7057419,1.21052632 L15.9354839,1.21052632 L15.9354839,1.81578947 C15.9354839,2.14989474 16.2100645,2.42105263 16.5483871,2.42105263 C16.8867097,2.42105263 17.1612903,2.14989474 17.1612903,1.81578947 L17.1612903,0.605263158 C17.1612903,0.271157895 16.8867097,0 16.5483871,0 L13.483871,0 C13.3404516,0 13.2013226,0.0496315789 13.0916129,0.140421053 L9.58458065,3.02631579 L0.612903226,3.02631579 C0.274580645,3.02631579 0,3.29747368 0,3.63157895 L0,7.86842105 C0,7.94589474 0.0147096774,8.02215789 0.043516129,8.09357895 L1.26932258,11.1198947 C1.36309677,11.3492895 1.58803226,11.5 1.83870968,11.5 L3.67741935,11.5 C3.87048387,11.5 4.05190323,11.4104211 4.16774194,11.2578947 L5.82258065,9.07894737 L10.1129032,9.07894737 L11.7677419,11.2578947 C11.8835806,11.4104211 12.065,11.5 12.2580645,11.5 L25.7419355,11.5 C25.935,11.5 26.1164194,11.4104211 26.2322581,11.2578947 L27.8870968,9.07894737 L32.1774194,9.07894737 L33.8322581,11.2578947 C33.9480968,11.4104211 34.1295161,11.5 34.3225806,11.5 L37.3870968,11.5 C37.7254194,11.5 38,11.2288421 38,10.8947368 L38,7.86842105 C38,7.63902632 37.8688387,7.42960526 37.6610645,7.32731579 L37.6610645,7.32731579 Z M36.7741935,10.2894737 L34.6290323,10.2894737 L32.9741935,8.11052632 C32.8583548,7.958 32.6769355,7.86842105 32.483871,7.86842105 L27.5806452,7.86842105 C27.3875806,7.86842105 27.2061613,7.958 27.0903226,8.11052632 L25.4354839,10.2894737 L12.5645161,10.2894737 L10.9096774,8.11052632 C10.7938387,7.958 10.6124194,7.86842105 10.4193548,7.86842105 L5.51612903,7.86842105 C5.32306452,7.86842105 5.14164516,7.958 5.02580645,8.11052632 L3.37096774,10.2894737 L2.25364516,10.2894737 L1.22580645,7.75221053 L1.22580645,4.23684211 L23.9032258,4.23684211 C24.2415484,4.23684211 24.516129,3.96568421 24.516129,3.63157895 C24.516129,3.29747368 24.2415484,3.02631579 23.9032258,3.02631579 L19.6129032,3.02631579 L19.6129032,1.21052632 L23.6494839,1.21052632 L26.5344194,4.0595 C26.6294194,4.15392105 26.7532258,4.21444737 26.8868387,4.23139474 L35.5483871,5.37231579 L35.5483871,7.26315789 C35.5483871,7.49255263 35.6795484,7.70197368 35.8873226,7.80486842 L36.7741935,8.24247368 L36.7741935,10.2894737 L36.7741935,10.2894737 Z"></path>
                </g>
            </g>
        </g>
    </g>
</svg>