<?xml version="1.0" encoding="UTF-8" standalone="no"?>
<svg width="40px" height="40px" viewBox="0 0 40 40" version="1.1" xmlns="http://www.w3.org/2000/svg" xmlns:xlink="http://www.w3.org/1999/xlink">
    <!-- Generator: Sketch 46.1 (44463) - http://www.bohemiancoding.com/sketch -->
    <title>moon</title>
    <desc>Created with Sketch.</desc>
    <defs></defs>
    <g id="Page-1" stroke="none" stroke-width="1" fill="none" fill-rule="evenodd">
        <g id="30-Universe-Element-Icons" transform="translate(-714.000000, -374.000000)" fill="#000000">
            <g id="moon" transform="translate(714.000000, 374.000000)">
                <g transform="translate(5.000000, 4.000000)" id="Shape">
                    <path d="M14.6177602,32 C14.6174451,32 14.6178862,32 14.6175711,32 C11.6960102,32 8.82788008,31.2268125 6.32349593,29.7641875 C3.89352439,28.3450625 1.86126016,26.316 0.446727642,23.8963125 C0.0860691057,23.279375 0.137420732,22.5158125 0.577595528,21.9509375 C1.01997561,21.38325 1.75603659,21.1401875 2.45240244,21.332125 C3.22702439,21.5453125 4.02647154,21.6948125 4.82888008,21.7765 C5.35972358,21.8305625 5.74596341,22.3013125 5.69152439,22.8279375 C5.63714837,23.3545625 5.16420935,23.7376875 4.6314126,23.683625 C3.85647561,23.60475 3.08368089,23.4699375 2.32871748,23.28225 C4.95117886,27.487375 9.62216057,30.08275 14.6176972,30.0828125 C18.4719675,30.0828125 22.0972663,28.592375 24.8259593,25.88575 C27.5544634,23.1791875 29.0571443,19.583125 29.0571443,15.7599375 C29.0570183,10.8045625 26.4406687,6.171375 22.2013557,3.5700625 C22.5271077,4.8593125 22.692063,6.189125 22.692063,7.529125 C22.692189,14.952125 17.639189,21.4211875 10.4041545,23.26075 C9.88736179,23.392375 9.36061382,23.0830625 9.22823374,22.5701875 C9.09566463,22.057375 9.40736585,21.535125 9.92441057,21.403625 C16.3039837,19.781625 20.7595407,14.07625 20.7594146,7.5290625 C20.7594146,6.22675 20.5830549,4.9360625 20.23525,3.69275 C20.041878,3.0018125 20.2867276,2.2718125 20.8590935,1.8330625 C21.428561,1.3964375 22.1983313,1.345625 22.8202215,1.70325 C25.2594553,3.1065 27.3051402,5.12225 28.7358028,7.532625 C30.2103821,10.0168125 30.9897297,12.86175 30.9897927,15.7599375 C30.9899187,20.0951875 29.2861159,24.1726875 26.1924167,27.241375 C23.0990325,30.31 18.9880671,32 14.6177602,32 L14.6177602,32 Z"></path>
                    <path d="M12.6938699,10.4275625 C12.345687,10.4275625 12.0117439,10.263625 11.8003516,9.9891875 C11.5130346,9.6163125 10.857498,8.684375 10.4340203,7.4553125 C9.19528049,7.035375 8.25570325,6.3850625 7.87935569,6.1 C7.59852846,5.8869375 7.43760569,5.564 7.43760569,5.2138125 C7.43747967,4.863625 7.59840244,4.5408125 7.87891463,4.3279375 C8.25538821,4.0425625 9.19528049,3.3921875 10.4338313,2.972375 C10.8571829,1.7434375 11.5128455,0.811375 11.8003516,0.43825 C12.0118069,0.1639375 12.345813,0 12.6938699,0 C13.0419268,0 13.3759329,0.1639375 13.5872622,0.4384375 C13.8745793,0.8113125 14.5302419,1.7433125 14.9535935,2.9723125 C16.1921443,3.3921875 17.1319106,4.0425625 17.5082581,4.327625 C17.7891484,4.5408125 17.9500711,4.863625 17.9500081,5.2138125 C17.9500081,5.564 17.7892114,5.8868125 17.5086992,6.0996875 C17.1322256,6.3850625 16.1925224,7.0353125 14.9537825,7.45525 C14.5303049,8.6844375 13.8747683,9.6163125 13.5872622,9.989375 C13.3759329,10.2636875 13.0419268,10.4275625 12.6938699,10.4275625 L12.6938699,10.4275625 Z M10.0645407,5.2138125 C10.4565142,5.4189375 10.9298943,5.622625 11.4555711,5.7605625 C11.7914675,5.848625 12.0537703,6.108875 12.1425488,6.442125 C12.2816077,6.9635625 12.4869512,7.433375 12.6937439,7.8220625 C12.9006626,7.43325 13.1058801,6.9636875 13.244876,6.44225 C13.3337805,6.1090625 13.5961463,5.8488125 13.9319797,5.760625 C14.4575935,5.6226875 14.9310996,5.4190625 15.3231362,5.213875 C14.9311626,5.008625 14.4576565,4.8050625 13.9321057,4.667125 C13.5960833,4.5790625 13.3338435,4.3188125 13.244939,3.9855 C13.1060061,3.464125 12.9005996,2.9944375 12.6938069,2.6056875 C12.4870142,2.9945 12.2816707,3.4641875 12.1426118,3.985625 C12.0538333,4.3188125 11.7914675,4.579 11.4555081,4.6671875 C10.9298943,4.8049375 10.4564512,5.0085625 10.0645407,5.2138125 L10.0645407,5.2138125 Z"></path>
                    <path d="M5.81023171,19.626625 C5.45083333,19.626625 5.11959959,19.464125 4.90121341,19.1808125 C4.57659553,18.7594375 3.83089431,17.699 3.36066463,16.30325 C1.95363008,15.8368125 0.88450813,15.0971875 0.459896341,14.775375 C0.174154472,14.55875 0.0102703252,14.2300625 0.0102703252,13.8735 C0.0102703252,13.5169375 0.174154472,13.18825 0.460022358,12.971625 C0.884571138,12.6498125 1.95369309,11.910125 3.36072764,11.44375 C3.83095732,10.048 4.57665854,8.9874375 4.9010874,8.566375 C5.1196626,8.2828125 5.45095935,8.120375 5.81035772,8.120375 C6.16994512,8.120375 6.50136789,8.2830625 6.71981707,8.5666875 C7.04405691,8.9875625 7.78975813,10.04825 8.2599878,11.4438125 C9.66708537,11.91025 10.7362703,12.649875 11.1608821,12.9716875 C11.44675,13.188625 11.6104451,13.5171875 11.6104451,13.8735625 C11.6104451,14.2299375 11.44675,14.5585625 11.1611972,14.7751875 C10.7363963,15.09725 9.66714837,15.837 8.26011382,16.3033125 C7.79001016,17.698875 7.04418293,18.7595 6.71975407,19.1806875 C6.50130488,19.464 6.1697561,19.626625 5.81023171,19.626625 L5.81023171,19.626625 Z M2.59165041,13.8735 C3.07504878,14.142875 3.68944106,14.424875 4.38366463,14.607 C4.71956098,14.6950625 4.98186382,14.9553125 5.07064228,15.2885625 C5.25424797,15.9771875 5.53866667,16.586625 5.8101687,17.066125 C6.08179675,16.586625 6.36602642,15.977125 6.5495061,15.2886875 C6.63841057,14.9555 6.90077642,14.69525 7.23660976,14.607125 C7.93095935,14.425 8.54535163,14.143 9.02868699,13.873625 C8.54528862,13.60425 7.93089634,13.32225 7.23660976,13.140125 C6.90071341,13.0520625 6.63841057,12.7918125 6.5495061,12.4585625 C6.36602642,11.77 6.08160772,11.1605 5.8101687,10.681 C5.53854065,11.1605 5.25424797,11.77 5.07064228,12.4585625 C4.98186382,12.79175 4.71949797,13.0519375 4.38366463,13.140125 C3.68937805,13.322125 3.07498577,13.604125 2.59165041,13.8735 L2.59165041,13.8735 Z"></path>
                </g>
            </g>
        </g>
    </g>
</svg>