<?xml version="1.0" encoding="UTF-8" standalone="no"?>
<svg width="40px" height="40px" viewBox="0 0 40 40" version="1.1" xmlns="http://www.w3.org/2000/svg" xmlns:xlink="http://www.w3.org/1999/xlink">
    <!-- Generator: Sketch 46.1 (44463) - http://www.bohemiancoding.com/sketch -->
    <title>moonrover</title>
    <desc>Created with Sketch.</desc>
    <defs></defs>
    <g id="Page-1" stroke="none" stroke-width="1" fill="none" fill-rule="evenodd">
        <g id="30-Universe-Element-Icons" transform="translate(-251.000000, -374.000000)" fill="#000000">
            <g id="moonrover" transform="translate(251.000000, 374.000000)">
                <g transform="translate(5.000000, 4.000000)" id="Shape">
                    <path d="M21.3329648,13.6325806 C20.8638477,13.6325806 20.4834922,13.2526815 20.4834922,12.7839919 L20.4834922,9.38957661 C20.4834922,8.9208871 20.8639082,8.5409879 21.3329648,8.5409879 C21.8020215,8.5409879 22.1824375,8.9208871 22.1824375,9.38957661 L22.1824375,12.7839919 C22.182498,13.252621 21.802082,13.6325806 21.3329648,13.6325806 L21.3329648,13.6325806 Z"></path>
                    <path d="M11.0433867,13.6325806 C10.5742695,13.6325806 10.1939141,13.2526815 10.1939141,12.7839919 L10.1939141,8.23239919 C10.1939141,8.16495968 10.1612188,8.10084677 10.1066055,8.06116935 L8.20646289,6.68153226 C7.82701563,6.40596774 7.74297656,5.87528226 8.01882813,5.49622984 C8.29474023,5.11699597 8.82591797,5.03316532 9.20548633,5.30879032 L11.1056289,6.68842742 C11.5986621,7.04643145 11.893041,7.62368952 11.893041,8.23245968 L11.893041,12.7840524 C11.8928594,13.252621 11.5124434,13.6325806 11.0433867,13.6325806 L11.0433867,13.6325806 Z"></path>
                    <path d="M7.0475957,8.27788306 C6.85705469,8.27788306 6.668875,8.24612903 6.48844531,8.18370968 L3.05761719,6.99471774 C2.55090039,6.81913306 2.16394531,6.42659274 1.99610938,5.91774194 C1.82827344,5.40889113 1.90565234,4.86344758 2.20850781,4.42125 L4.6915957,0.796935484 C5.00989063,0.332298387 5.53658789,0.0549193548 6.10046094,0.0549193548 C6.60184961,0.0549193548 7.07556836,0.273931452 7.40052344,0.655826613 L9.75210352,3.42018145 C10.2491328,4.00451613 10.2934531,4.85443548 9.85999805,5.48715726 L8.45640039,7.53592742 C8.13792383,8.00050403 7.61134766,8.27788306 7.0475957,8.27788306 L7.0475957,8.27788306 Z M6.09525391,1.75300403 L3.6105918,5.3797379 C3.60883594,5.38421371 3.61022852,5.38881048 3.61168164,5.39032258 L7.0475957,6.58064516 C7.04892773,6.58064516 7.05207617,6.58028226 7.05419531,6.5771371 L8.45773242,4.52824597 C8.45966992,4.52534274 8.45948828,4.52153226 8.45730859,4.51893145 L6.10572852,1.75469758 L6.09525391,1.75300403 L6.09525391,1.75300403 Z"></path>
                    <path d="M21.3329648,7.69233871 C19.5108672,7.69233871 18.0285586,6.2115121 18.0285586,4.39137097 C18.0285586,2.57122984 19.5109277,1.09040323 21.3329648,1.09040323 C23.1550625,1.09040323 24.6373711,2.57122984 24.6373711,4.39137097 C24.6373711,6.2115121 23.1550625,7.69233871 21.3329648,7.69233871 L21.3329648,7.69233871 Z M21.3329648,2.78752016 C20.447709,2.78752016 19.7275039,3.50697581 19.7275039,4.39131048 C19.7275039,5.27564516 20.4477695,5.99510081 21.3329648,5.99510081 C22.2181602,5.99510081 22.9384258,5.27564516 22.9384258,4.39131048 C22.9384258,3.50697581 22.2182207,2.78752016 21.3329648,2.78752016 L21.3329648,2.78752016 Z"></path>
                    <path d="M5.38285937,25.81875 C5.09465625,25.81875 4.81359766,25.6721976 4.65417773,25.4075806 L1.68647266,20.4811694 C1.081125,19.4761089 1.15874609,18.1787903 1.87973828,17.2529637 L4.69383594,13.6394153 C5.23972656,12.9384677 6.06261914,12.536371 6.95168945,12.536371 L25.3286953,12.536371 C26.2177051,12.536371 27.0405977,12.9383468 27.5864883,13.6394153 L30.4006465,17.2528427 C31.1216387,18.1787298 31.1992598,19.4760484 30.593791,20.4810484 L27.6260859,25.4074597 C27.3840801,25.8088306 26.8620449,25.9385081 26.4601348,25.696996 C26.0581641,25.4553024 25.9283516,24.933871 26.1702969,24.5322581 L29.138002,19.6058468 C29.3839434,19.1976411 29.3523379,18.6708266 29.0595938,18.2949194 L26.2454355,14.6814919 C26.023834,14.3968548 25.6895547,14.2336089 25.3285742,14.2336089 L6.95181055,14.2336089 C6.59076953,14.2336089 6.25649023,14.3968548 6.03488867,14.6814919 L3.22079102,18.2950403 C2.92804687,18.6710685 2.8965625,19.1978831 3.14232227,19.6059677 L6.11002734,24.532379 C6.35197266,24.9339315 6.22216016,25.4554234 5.82018945,25.6971169 C5.68299023,25.7795565 5.53198633,25.81875 5.38285937,25.81875 L5.38285937,25.81875 Z"></path>
                    <path d="M8.06045508,31.3285408 C5.82155273,31.3285408 4,29.508944 4,27.2723714 C4,25.0357989 5.82149219,23.2161416 8.06045508,23.2161416 C10.299418,23.2161416 12.1209102,25.0357384 12.1209102,27.2723714 C12.1209102,29.508944 10.2993574,31.3285408 8.06045508,31.3285408 L8.06045508,31.3285408 Z M8.06045508,24.913319 C6.75833398,24.913319 5.69894531,25.9716053 5.69894531,27.2723714 C5.69894531,28.5731376 6.75833398,29.6313029 8.06045508,29.6313029 C9.36257617,29.6313029 10.4219648,28.5730771 10.4219648,27.2723714 C10.4219648,25.9716658 9.36257617,24.913319 8.06045508,24.913319 L8.06045508,24.913319 Z"></path>
                    <path d="M24.6145822,31.1578011 C22.3756799,31.1578011 20.5541271,29.3382044 20.5541271,27.1016318 C20.5541271,24.8650592 22.3756193,23.0454019 24.6145822,23.0454019 C26.8535451,23.0454019 28.6750373,24.8649987 28.6750373,27.1016318 C28.6750978,29.3382044 26.8536056,31.1578011 24.6145822,31.1578011 L24.6145822,31.1578011 Z M24.6145822,24.7425794 C23.3124611,24.7425794 22.2530724,25.8008656 22.2530724,27.1016318 C22.2530724,28.4023979 23.3124611,29.4605632 24.6145822,29.4605632 C25.9167033,29.4605632 26.976092,28.4023374 26.976092,27.1016318 C26.976092,25.8009261 25.9167033,24.7425794 24.6145822,24.7425794 L24.6145822,24.7425794 Z"></path>
                    <path d="M16.3002786,31.3980054 C14.0613763,31.3980054 12.2398236,29.5784086 12.2398236,27.341836 C12.2398236,25.1052634 14.0613158,23.2856062 16.3002786,23.2856062 C18.5392415,23.2856062 20.3607337,25.105203 20.3607337,27.341836 C20.3607943,29.5784086 18.5392415,31.3980054 16.3002786,31.3980054 L16.3002786,31.3980054 Z M16.3002786,24.9827836 C14.9981576,24.9827836 13.9387689,26.0410699 13.9387689,27.341836 C13.9387689,28.6426021 14.9981576,29.7007675 16.3002786,29.7007675 C17.6023997,29.7007675 18.6617884,28.6425417 18.6617884,27.341836 C18.6617884,26.0411304 17.6023997,24.9827836 16.3002786,24.9827836 L16.3002786,24.9827836 Z"></path>
                    <path d="M24.6351914,19.5728226 L0.849472656,19.5728226 C0.380355469,19.5728226 0,19.1929234 0,18.7242339 C0,18.2555444 0.380416016,17.8756452 0.849472656,17.8756452 L24.6351914,17.8756452 C25.1043086,17.8756452 25.4846641,18.2555444 25.4846641,18.7242339 C25.4846641,19.1929234 25.1043086,19.5728226 24.6351914,19.5728226 L24.6351914,19.5728226 Z"></path>
                </g>
            </g>
        </g>
    </g>
</svg>