<?xml version="1.0" encoding="UTF-8" standalone="no"?>
<svg width="40px" height="40px" viewBox="0 0 40 40" version="1.1" xmlns="http://www.w3.org/2000/svg" xmlns:xlink="http://www.w3.org/1999/xlink">
    <!-- Generator: Sketch 46.1 (44463) - http://www.bohemiancoding.com/sketch -->
    <title>motorbike</title>
    <desc>Created with Sketch.</desc>
    <defs></defs>
    <g id="Icons" stroke="none" stroke-width="1" fill="none" fill-rule="evenodd">
        <g id="Automotive" transform="translate(-179.000000, -239.000000)" fill="#231F20">
            <g id="motorbike" transform="translate(182.000000, 248.000000)">
                <g id="Dirtbike">
                    <path d="M23.15876,9.8387964 L20.31296,14.5544729 C20.22184,14.7053258 20.07428,14.8155905 19.90292,14.8602376 L12.19172,16.8774729 C12.22232,17.1128846 12.24,17.3496493 12.24,17.5884435 C12.24,20.5723552 9.79948,23.0002082 6.8,23.0002082 C3.80052,23.0002082 1.36,20.5723552 1.36,17.5884435 C1.36,14.6045317 3.80052,12.1766788 6.8,12.1766788 C7.89752,12.1766788 8.9556,12.5007082 9.86,13.1129141 C10.17008,13.3239729 10.25032,13.7447376 10.03884,14.0532082 C9.82736,14.3623552 9.40508,14.4415023 9.09432,14.2317964 C8.41636,13.7724729 7.62348,13.5296199 6.8,13.5296199 C4.54988,13.5296199 2.72,15.3506788 2.72,17.5884435 C2.72,19.8268846 4.54988,21.647267 6.8,21.647267 C9.04944,21.647267 10.88,19.8268846 10.88,17.5884435 C10.88,17.4673552 10.86776,17.3469435 10.85756,17.2265317 L6.97272,18.2425905 C6.91492,18.2581493 6.85644,18.2649141 6.8,18.2649141 C6.49808,18.2655905 6.22268,18.0640023 6.14244,17.7609435 C6.04724,17.3990317 6.26348,17.0296788 6.62728,16.9342964 L19.28956,13.6216199 L21.99256,9.1420317 C22.17684,8.83694346 22.05988,8.56432582 22.0014,8.46150229 C21.94292,8.35800229 21.76748,8.11785523 21.40912,8.11785523 L16.32816,8.11785523 C16.2418,8.11785523 16.15612,8.10161993 16.07588,8.06982582 L9.3942,5.41197287 L7.48068,5.41197287 L7.4834,7.72009052 L13.25048,10.9089729 C13.57892,11.0909435 13.69724,11.5022376 13.51432,11.8289729 C13.3314,12.1543552 12.9166,12.2720611 12.58952,12.0914435 L6.47292,8.70909052 C6.25804,8.5900317 6.12408,8.36409052 6.1234,8.1185317 L6.12068,5.41197287 L0.68,5.41197287 C0.30464,5.41197287 0,5.10891405 0,4.73550229 C0,4.36209052 0.30464,4.0590317 0.68,4.0590317 L9.52476,4.0590317 C9.61112,4.0590317 9.6968,4.07594346 9.77704,4.10706111 L16.45872,6.76491405 L21.40912,6.76491405 C22.15372,6.76491405 22.81808,7.15050229 23.1846,7.79517876 C23.5518,8.43917876 23.5416,9.20359052 23.15876,9.8387964 L23.15876,9.8387964 Z M27.2,7.44206111 C27.2612,7.44206111 27.32444,7.43326699 27.387,7.41567876 L32.147,6.06273758 C32.50808,5.95991405 32.71684,5.58582582 32.61348,5.22594346 C32.51012,4.86741405 32.13476,4.65838464 31.773,4.76188464 L27.013,6.11482582 C26.65192,6.21764934 26.44316,6.59173758 26.54584,6.95094346 C26.63152,7.24791405 26.90352,7.44206111 27.2,7.44206111 L27.2,7.44206111 Z M28.56,12.1766788 C28.15676,12.1766788 27.761,12.2253846 27.37272,12.3112964 L23.07988,0.447355227 C22.95204,0.0962669918 22.56308,-0.086380067 22.20948,0.040119933 C21.85656,0.166619933 21.67296,0.55423758 21.80012,0.906002286 L27.92012,17.817767 C28.02008,18.093767 28.2812,18.2655905 28.56,18.2655905 C28.63616,18.2655905 28.71436,18.2520611 28.79052,18.2250023 C29.14344,18.0985023 29.32704,17.7108846 29.19988,17.3591199 L27.83648,13.5932082 C28.0738,13.5505905 28.31588,13.5296199 28.56,13.5296199 C30.81012,13.5296199 32.64,15.3506788 32.64,17.5884435 C32.64,19.8268846 30.81012,21.647267 28.56,21.647267 C26.30988,21.647267 24.48,19.8268846 24.48,17.5884435 C24.48,16.8808552 24.66496,16.184767 25.01584,15.5759435 C25.20284,15.2512376 25.08996,14.8379141 24.76424,14.6525611 C24.43784,14.4665317 24.02304,14.5795023 23.83604,14.9028552 C23.36752,15.7173258 23.12,16.6454435 23.12,17.5884435 C23.12,20.5723552 25.56052,23.0002082 28.56,23.0002082 C31.55948,23.0002082 34,20.5723552 34,17.5884435 C34,14.6045317 31.55948,12.1766788 28.56,12.1766788 L28.56,12.1766788 Z"></path>
                </g>
            </g>
        </g>
    </g>
</svg>