<?xml version="1.0" encoding="UTF-8" standalone="no"?>
<svg width="40px" height="40px" viewBox="0 0 40 40" version="1.1" xmlns="http://www.w3.org/2000/svg" xmlns:xlink="http://www.w3.org/1999/xlink">
    <!-- Generator: Sketch 46.1 (44463) - http://www.bohemiancoding.com/sketch -->
    <title>motor</title>
    <desc>Created with Sketch.</desc>
    <defs></defs>
    <g id="Icons" stroke="none" stroke-width="1" fill="none" fill-rule="evenodd">
        <g id="Automotive" transform="translate(-869.000000, -689.000000)" fill="#231F20">
            <g id="Motorbike" transform="translate(875.000000, 699.000000)">
                <g>
                    <path d="M0,7.00011567 L0,5.7273884 C0,5.37611567 0.281804348,5.09102476 0.630434783,5.09102476 L5.67391304,5.09102476 C5.77163043,5.09102476 5.86808696,5.11393385 5.95571739,5.1584793 L8.34443478,6.36375203 L12.9018478,6.36375203 L13.9754783,4.7384793 C14.0927391,4.56093385 14.2894348,4.45466112 14.5,4.45466112 L20.5603696,4.45466112 L19.5762609,1.47457021 C19.4766522,1.17357021 19.6109348,0.845206578 19.8921087,0.70393385 L21.1529783,0.067570214 C21.3824565,-0.0495206951 21.6611087,-0.0119752406 21.8533913,0.161115669 L27.5273043,5.25202476 C27.6622174,5.37293385 27.7391304,5.5453884 27.7391304,5.7273884 L27.7391304,9.54557021 C27.7391304,9.89684294 27.4573261,10.1819339 27.1086957,10.1819339 C26.7600652,10.1819339 26.4782609,9.89684294 26.4782609,9.54557021 L26.4782609,6.01311567 L21.3351739,1.39884294 L20.9449348,1.59484294 L22.6628696,6.79902476 C22.6843043,6.86393385 22.6956522,6.93202476 22.6956522,7.00011567 L22.6956522,8.90920658 C22.6956522,9.2604793 22.4138478,9.54557021 22.0652174,9.54557021 L18.5246957,9.54557021 L12.4000217,15.1092975 C12.2789783,15.218752 12.1283043,15.2728429 11.9782609,15.2728429 C11.8061522,15.2728429 11.6340435,15.2015702 11.5098478,15.0622066 C11.2772174,14.8006611 11.2980217,14.3984793 11.5565,14.1636611 L17.8608478,8.4363884 C17.9768478,8.3313884 18.1268913,8.27284294 18.2826087,8.27284294 L21.4347826,8.27284294 L21.4347826,7.10320658 L20.9802391,5.7273884 L14.8372826,5.7273884 L13.7636522,7.35329749 C13.6463913,7.53020658 13.4496957,7.6364793 13.2391304,7.6364793 L8.19565217,7.6364793 C8.09793478,7.6364793 8.00084783,7.61357021 7.91384783,7.56966112 L5.52513043,6.36375203 L1.26086957,6.36375203 L1.26086957,6.5864793 L6.56030435,8.96457021 C6.87867391,9.10711567 7.02178261,9.48320658 6.88056522,9.80393385 C6.77591304,10.0412975 6.54580435,10.1819339 6.30371739,10.1825702 C6.21797826,10.1825702 6.13097826,10.164752 6.0483913,10.1272066 L0.374478261,7.58175203 C0.14626087,7.47993385 0,7.2514793 0,7.00011567 L0,7.00011567 Z M7.56521739,15.9092066 C7.56521739,17.3130248 6.43421739,18.4546611 5.04347826,18.4546611 C3.65273913,18.4546611 2.52173913,17.3130248 2.52173913,15.9092066 C2.52173913,14.5060248 3.65273913,13.363752 5.04347826,13.363752 C6.43421739,13.363752 7.56521739,14.5060248 7.56521739,15.9092066 L7.56521739,15.9092066 Z M6.30434783,15.9092066 C6.30434783,15.2072975 5.73821739,14.6364793 5.04347826,14.6364793 C4.3481087,14.6364793 3.7826087,15.2072975 3.7826087,15.9092066 C3.7826087,16.6111157 4.3481087,17.1819339 5.04347826,17.1819339 C5.73821739,17.1819339 6.30434783,16.6111157 6.30434783,15.9092066 L6.30434783,15.9092066 Z M29,15.9092066 C29,18.7162066 26.7373696,21.0001157 23.9565217,21.0001157 C21.6113043,21.0001157 19.6411957,19.3742066 19.0788478,17.1819339 L9.92115217,17.1819339 C9.35880435,19.3742066 7.38806522,21.0001157 5.04347826,21.0001157 C2.26263043,21.0001157 0,18.7162066 0,15.9092066 C0,13.1022066 2.26263043,10.8182975 5.04347826,10.8182975 C7.82432609,10.8182975 10.0869565,13.1022066 10.0869565,15.9092066 L18.9130435,15.9092066 C18.9130435,13.1022066 21.1756739,10.8182975 23.9565217,10.8182975 C26.7373696,10.8182975 29,13.1022066 29,15.9092066 L29,15.9092066 Z M8.82608696,15.9092066 C8.82608696,13.8041157 7.12895652,12.0910248 5.04347826,12.0910248 C2.95736957,12.0910248 1.26086957,13.8041157 1.26086957,15.9092066 C1.26086957,18.0149339 2.95736957,19.7273884 5.04347826,19.7273884 C7.12895652,19.7273884 8.82608696,18.0149339 8.82608696,15.9092066 L8.82608696,15.9092066 Z M27.7391304,15.9092066 C27.7391304,13.8041157 26.042,12.0910248 23.9565217,12.0910248 C21.870413,12.0910248 20.173913,13.8041157 20.173913,15.9092066 C20.173913,18.0149339 21.870413,19.7273884 23.9565217,19.7273884 C26.042,19.7273884 27.7391304,18.0149339 27.7391304,15.9092066 L27.7391304,15.9092066 Z M26.4782609,15.9092066 C26.4782609,17.3130248 25.3472609,18.4546611 23.9565217,18.4546611 C22.5657826,18.4546611 21.4347826,17.3130248 21.4347826,15.9092066 C21.4347826,14.5060248 22.5657826,13.363752 23.9565217,13.363752 C25.3472609,13.363752 26.4782609,14.5060248 26.4782609,15.9092066 L26.4782609,15.9092066 Z M25.2173913,15.9092066 C25.2173913,15.2072975 24.6512609,14.6364793 23.9565217,14.6364793 C23.2611522,14.6364793 22.6956522,15.2072975 22.6956522,15.9092066 C22.6956522,16.6111157 23.2611522,17.1819339 23.9565217,17.1819339 C24.6512609,17.1819339 25.2173913,16.6111157 25.2173913,15.9092066 L25.2173913,15.9092066 Z"></path>
                </g>
            </g>
        </g>
    </g>
</svg>