<?xml version="1.0" encoding="UTF-8" standalone="no"?>
<svg width="40px" height="40px" viewBox="0 0 40 40" version="1.1" xmlns="http://www.w3.org/2000/svg" xmlns:xlink="http://www.w3.org/1999/xlink">
    <!-- Generator: Sketch 46.1 (44463) - http://www.bohemiancoding.com/sketch -->
    <title>mushroom</title>
    <desc>Created with Sketch.</desc>
    <defs>
        <path d="M29.863379,14.3249091 C29.395958,7.25941001 22.8952667,0 14.9445555,0 C6.75325891,0 0.101064008,7.60343016 -4.26325641e-14,14.9702183 C4.02187131,16.859368 9.24102922,18 14.9445555,18 C20.4177984,18 25.4449966,16.949616 29.3961459,15.1953586 C29.5623881,15.1215493 29.8633799,14.9702188 29.8633799,14.9702188 C29.8633799,14.9702188 29.877523,14.5387082 29.863379,14.3249091 Z" id="path-1"></path>
    </defs>
    <g id="Page-1" stroke="none" stroke-width="1" fill="none" fill-rule="evenodd">
        <g id="Artboard-1-Copy-7" transform="translate(-976.000000, -269.000000)">
            <g id="icons" transform="translate(331.000000, 269.000000)">
                <g id="mushroom" transform="translate(650.000000, 5.000000)">
                    <mask id="mask-2" fill="white">
                        <use xlink:href="#path-1"></use>
                    </mask>
                    <path stroke="#000000" d="M0.508551338,14.654315 C4.53134534,16.4799773 9.59203061,17.5 14.9445555,17.5 C20.2099454,17.5 25.1955362,16.5133073 29.1932514,14.7383752 C29.2352967,14.7197077 29.2922771,14.6930746 29.3596537,14.6607105 C29.3646734,14.6582977 29.3668471,14.6572529 29.3694035,14.6560222 C29.3695711,14.6332263 29.369661,14.6107951 29.3696653,14.5888636 C29.3696846,14.4906808 29.3679324,14.4102584 29.3644696,14.3579146 C28.8888061,7.16782258 22.2718948,0.5 14.9445555,0.5 C7.45462607,0.5 0.797496183,7.3447951 0.508551338,14.654315 Z"></path>
                    <path d="M13.1711862,0.92574133 C13.1711862,0.92574133 17.6110456,5.48014832 14.1411926,7.21182091 C10.6713397,8.9434935 9.36436404,6.94808057 8.06807847,8.42015174 C6.7717929,9.8922229 1.39492679,10.6165316 2.05608355,5.4537053 C2.71724032,0.290879024 9.73014989,-1 9.73014989,-1 L13.1711862,0.92574133 Z M29.9857651,6.38544785 C29.9857651,6.38544785 36.3144111,7.02043939 34.7694472,10.5773561 C33.2244833,14.1342727 30.9406552,13.4458055 30.893872,15.4067137 C30.8470887,17.3676219 27.1937469,21.3786575 24.3816216,16.9987197 C21.5694963,12.618782 26.1119357,7.12209989 26.1119357,7.12209989 L29.9857651,6.38544785 Z" id="pattern2" stroke="#000000" stroke-linecap="round" mask="url(#mask-2)"></path>
                    <path d="M20.9232739,17.4401207 L8.92327391,17.4401207 L8.92327391,26.273454 C8.92327391,26.3833535 8.94494903,26.6012162 9.01188501,26.8895558 C9.12521156,27.3777317 9.32933397,27.8662298 9.64607712,28.3210405 C10.5642627,29.6394607 12.2370701,30.4401207 14.9232739,30.4401207 C17.6094778,30.4401207 19.2822852,29.6394607 20.2004707,28.3210405 C20.5172139,27.8662298 20.7213363,27.3777317 20.8346628,26.8895558 C20.9015988,26.6012162 20.9232739,26.3833535 20.9232739,26.273454 L20.9232739,17.4401207 Z" id="base" stroke="#000000"></path>
                </g>
            </g>
        </g>
    </g>
</svg>