<?xml version="1.0" encoding="UTF-8" standalone="no"?>
<svg width="40px" height="40px" viewBox="0 0 40 40" version="1.1" xmlns="http://www.w3.org/2000/svg" xmlns:xlink="http://www.w3.org/1999/xlink">
    <!-- Generator: Sketch 46.1 (44463) - http://www.bohemiancoding.com/sketch -->
    <title>naughty</title>
    <desc>Created with Sketch.</desc>
    <defs></defs>
    <g id="Page-1" stroke="none" stroke-width="1" fill="none" fill-rule="evenodd">
        <g id="50-Emoji-Icons" transform="translate(-1385.000000, -2100.000000)" fill="#000000">
            <g id="tongue" transform="translate(1391.000000, 2106.000000)">
                <path d="M13.9998108,0 C6.28032432,0 0,6.28032432 0,13.9998108 C0,21.7192973 6.28032432,27.9996216 13.9998108,27.9996216 C21.7192973,27.9996216 27.9996216,21.7192973 27.9996216,13.9998108 C27.9996216,6.28032432 21.7193919,0 13.9998108,0 L13.9998108,0 Z M13.9998108,26.4861081 C10.5701892,26.4861081 7.45925676,25.0959459 5.20043243,22.8498919 C4.29837838,21.9529459 3.53263514,20.9192162 2.93640541,19.7831351 C2.0282973,18.0530946 1.51351351,16.085527 1.51351351,13.9998108 C1.51351351,7.11483784 7.11483784,1.51351351 13.9998108,1.51351351 C17.2655,1.51351351 20.2418243,2.77427027 22.4691486,4.83397297 C23.6239595,5.90175676 24.5775676,7.18408108 25.2651757,8.61737838 C26.047473,10.2480946 26.4861081,12.0736757 26.4861081,13.9998108 C26.4861081,20.8847838 20.8847838,26.4861081 13.9998108,26.4861081 L13.9998108,26.4861081 Z" id="Shape"></path>
                <circle id="Oval" cx="9.31728378" cy="10.8781892" r="1.51351351"></circle>
                <circle id="Oval" cx="18.6821486" cy="10.8781892" r="1.51351351"></circle>
                <path d="M17.0898378,20.7159324 L17.0898378,18.7442973 C18.7925405,18.0897973 20.2865676,16.9169189 21.2981622,15.351473 L20.0348514,14.5300135 C18.5595541,16.8130541 15.8644595,18.0874324 13.1623649,17.7753649 C11.0565,17.5325405 9.11106757,16.3192703 7.95483784,14.5300135 L6.66891892,15.351473 C7.66944595,16.8997973 9.14389189,18.0915 10.8465946,18.7524324 L10.8465946,20.7159324 C10.8465946,22.4371757 12.246973,23.8375541 13.9682162,23.8375541 C15.6894595,23.8375541 17.0898378,22.4371757 17.0898378,20.7159324 L17.0898378,20.7159324 Z M12.3601081,19.1864324 C12.5492973,19.2241757 12.7751892,19.2555811 12.9770541,19.2788514 C13.3045405,19.3165946 13.6235135,19.3351351 13.9493919,19.3351351 C14.5010676,19.3351351 15.1033514,19.2817838 15.5763243,19.1789595 L15.5763243,20.7159324 C15.5763243,21.6026622 14.8549459,22.3240405 13.9682162,22.3240405 C13.0814865,22.3240405 12.3601081,21.6026622 12.3601081,20.7159324 L12.3601081,19.1864324 L12.3601081,19.1864324 L12.3601081,19.1864324 Z" id="Shape"></path>
            </g>
        </g>
    </g>
</svg>