<?xml version="1.0" encoding="UTF-8" standalone="no"?>
<svg width="40px" height="40px" viewBox="0 0 40 40" version="1.1" xmlns="http://www.w3.org/2000/svg" xmlns:xlink="http://www.w3.org/1999/xlink">
    <!-- Generator: Sketch 46.1 (44463) - http://www.bohemiancoding.com/sketch -->
    <title>nerd</title>
    <desc>Created with Sketch.</desc>
    <defs></defs>
    <g id="Page-1" stroke="none" stroke-width="1" fill="none" fill-rule="evenodd">
        <g id="50-Emoji-Icons" transform="translate(-320.000000, -1490.000000)" fill="#000000">
            <g id="nerd-2" transform="translate(326.000000, 1496.000000)">
                <path d="M13.9998108,0 C6.28032432,0 0,6.28032432 0,13.9998108 C0,21.7192973 6.28032432,27.9996216 13.9998108,27.9996216 C21.7192973,27.9996216 27.9996216,21.7192973 27.9996216,13.9998108 C27.9996216,6.28032432 21.7193919,0 13.9998108,0 L13.9998108,0 Z M13.9998108,26.4861081 C10.5701892,26.4861081 7.45925676,25.0959459 5.20043243,22.8498919 C4.29837838,21.9529459 3.53263514,20.9192162 2.93640541,19.7831351 C2.0282973,18.0530946 1.51351351,16.0856216 1.51351351,13.9998108 C1.51351351,13.4549459 1.5487973,12.9182162 1.61681081,12.3916081 L3.00545946,12.3916081 L4.01998649,12.3916081 C4.38105405,14.5738108 6.27616216,16.2385811 8.56052703,16.2385811 C10.8448919,16.2385811 12.7401892,14.5738108 13.1012568,12.3916081 L14.8983649,12.3916081 C15.2594324,14.5738108 17.1545405,16.2385811 19.4389054,16.2385811 C21.7232703,16.2385811 23.6185676,14.5738108 23.9796351,12.3916081 L25.6183919,12.3916081 L26.3829054,12.3916081 C26.4509189,12.9182162 26.4862027,13.4549459 26.4862027,13.9998108 C26.4861081,20.8847838 20.8847838,26.4861081 13.9998108,26.4861081 L13.9998108,26.4861081 Z M25.6074189,10.8780946 L23.9795405,10.8780946 C23.6183784,8.69598649 21.7231757,7.03131081 19.4388108,7.03131081 C17.1545405,7.03131081 15.2594324,8.69598649 14.8982703,10.8780946 L13.1011622,10.8780946 C12.74,8.69598649 10.8447973,7.03131081 8.56043243,7.03131081 C6.27616216,7.03131081 4.38105405,8.69598649 4.01989189,10.8780946 L3.56432432,10.8780946 L1.90863514,10.8780946 C3.29822973,5.49878378 8.19236486,1.51351351 13.9998108,1.51351351 C17.2655,1.51351351 20.2418243,2.77427027 22.4691486,4.83397297 C23.6239595,5.90175676 24.5775676,7.18408108 25.2651757,8.61747297 C25.6098784,9.33591892 25.8879865,10.0920135 26.0909865,10.8780946 L25.6074189,10.8780946 L25.6074189,10.8780946 Z M22.529027,11.6349459 C22.529027,13.3388784 21.1428378,14.7250676 19.4388108,14.7250676 C17.734973,14.7250676 16.3487838,13.3388784 16.3487838,11.6349459 C16.3487838,9.93101351 17.734973,8.54482432 19.4388108,8.54482432 C21.1428378,8.54482432 22.529027,9.93101351 22.529027,11.6349459 L22.529027,11.6349459 Z M11.6506486,11.6349459 C11.6506486,13.3388784 10.2644595,14.7250676 8.56043243,14.7250676 C6.85659459,14.7250676 5.47040541,13.3388784 5.47040541,11.6349459 C5.47040541,9.93101351 6.85659459,8.54482432 8.56043243,8.54482432 C10.2644595,8.54482432 11.6506486,9.93101351 11.6506486,11.6349459 L11.6506486,11.6349459 Z" id="Shape"></path>
                <circle id="Oval" cx="8.56043243" cy="11.6349459" r="1.51351351"></circle>
                <circle id="Oval" cx="19.4388108" cy="11.6349459" r="1.51351351"></circle>
                <path d="M20.2508108,17.1213378 L7.74862162,17.1213378 C7.74862162,20.5691216 10.5472973,23.3724324 13.9997162,23.3724324 C17.4520405,23.3724324 20.2508108,20.5691216 20.2508108,17.1213378 L20.2508108,17.1213378 Z M18.4456622,18.6348514 L18.4675135,18.6348514 C17.8346757,20.5072568 16.072,21.8589189 13.9886486,21.8589189 C11.9052973,21.8589189 10.1428108,20.5072568 9.50987838,18.6348514 L18.4456622,18.6348514 L18.4456622,18.6348514 L18.4456622,18.6348514 Z" id="Shape"></path>
            </g>
        </g>
    </g>
</svg>