<?xml version="1.0" encoding="UTF-8" standalone="no"?>
<svg width="40px" height="40px" viewBox="0 0 40 40" version="1.1" xmlns="http://www.w3.org/2000/svg" xmlns:xlink="http://www.w3.org/1999/xlink">
    <!-- Generator: Sketch 46.1 (44463) - http://www.bohemiancoding.com/sketch -->
    <title>nerd01</title>
    <desc>Created with Sketch.</desc>
    <defs></defs>
    <g id="Page-1" stroke="none" stroke-width="1" fill="none" fill-rule="evenodd">
        <g id="50-Emoji-Icons" transform="translate(-675.000000, -1490.000000)" fill="#000000">
            <g id="nerd-1" transform="translate(681.000000, 1496.000000)">
                <path d="M13.9998108,0 C6.28032432,0 0,6.28032432 0,13.9998108 C0,21.7192973 6.28032432,27.9996216 13.9998108,27.9996216 C21.7192973,27.9996216 27.9996216,21.7192973 27.9996216,13.9998108 C27.9996216,6.28032432 21.7193919,0 13.9998108,0 L13.9998108,0 Z M13.9998108,26.4861081 C10.5700946,26.4861081 7.45925676,25.0959459 5.20033784,22.8498919 C4.29828378,21.9529459 3.53254054,20.9192162 2.93631081,19.7831351 C2.0282973,18.0530946 1.51351351,16.0856216 1.51351351,13.9998108 C1.51351351,12.6812568 1.71963514,11.41 2.10018919,10.2159324 L3.08983784,10.2159324 L3.08983784,12.0273243 L3.08983784,12.4007838 C3.08983784,14.7927027 4.91409459,16.7696351 7.23714865,17.0429189 C7.17291892,17.3019189 7.04474324,17.5455946 6.84401351,17.7463243 C6.47831081,18.1118378 5.97459459,18.2644189 5.48960811,18.1546892 L5.15701351,19.6307432 C5.37306757,19.6798378 5.59186486,19.7036757 5.80810811,19.7036757 C6.26443243,19.7036757 6.71366216,19.596027 7.12306757,19.3918919 C8.7727027,21.507973 11.3480405,22.7608784 14.0260135,22.7608784 C14.3517027,22.7608784 14.6790946,22.7424324 15.0063919,22.7045946 C17.5565676,22.4105 19.914527,20.9422973 21.3136757,18.7771216 L20.0426081,17.9556622 C18.8861892,19.7449189 16.9387703,20.9580946 14.833,21.2010135 C12.312527,21.4924595 9.79441892,20.4022568 8.26993243,18.4005405 C8.5697027,17.9717432 8.7342973,17.4796622 8.78093243,16.9697973 C10.8872703,16.5156486 12.4546081,14.6489189 12.4546081,12.4204595 L12.4546081,10.2156486 L15.3870405,10.2156486 L15.3870405,12.4005946 C15.3870405,14.9787703 17.4876081,17.0762162 20.0695676,17.0762162 C22.6514324,17.0762162 24.7519054,14.9876622 24.7519054,12.4204595 L24.7519054,10.2156486 L25.5472568,10.2156486 L25.8993378,10.2156486 C26.2798919,11.4097162 26.4860135,12.680973 26.4860135,13.999527 C26.4861081,20.8847838 20.8847838,26.4861081 13.9998108,26.4861081 L13.9998108,26.4861081 Z M16.9006486,10.2159324 L23.2384865,10.2159324 L23.2384865,12.4207432 C23.2384865,14.1533378 21.8170135,15.5629865 20.0696622,15.5629865 C18.3222162,15.5629865 16.9006486,14.1444459 16.9006486,12.4008784 L16.9006486,10.2159324 L16.9006486,10.2159324 Z M2.69462162,8.70241892 C4.69122973,4.45871622 9.00777027,1.51351351 13.9998108,1.51351351 C17.2655,1.51351351 20.2418243,2.77427027 22.4691486,4.83397297 C23.6239595,5.90175676 24.5775676,7.18408108 25.2651757,8.61747297 C25.2787973,8.64556757 25.2915676,8.67422973 25.305,8.70241892 L25.2862703,8.70241892 L2.69462162,8.70241892 L2.69462162,8.70241892 Z M7.77236486,15.5629865 C6.02491892,15.5629865 4.60335135,14.1444459 4.60335135,12.4008784 L4.60335135,10.2159324 L10.9411892,10.2159324 L10.9411892,12.4207432 C10.9411892,14.1533378 9.51971622,15.5629865 7.77236486,15.5629865 L7.77236486,15.5629865 Z" id="Shape"></path>
                <circle id="Oval" cx="7.80377027" cy="12.6754865" r="1.51351351"></circle>
                <circle id="Oval" cx="20.1010676" cy="12.6754865" r="1.51351351"></circle>
            </g>
        </g>
    </g>
</svg>