<?xml version="1.0" encoding="UTF-8" standalone="no"?>
<svg width="40px" height="40px" viewBox="0 0 40 40" version="1.1" xmlns="http://www.w3.org/2000/svg" xmlns:xlink="http://www.w3.org/1999/xlink">
    <!-- Generator: Sketch 46.1 (44463) - http://www.bohemiancoding.com/sketch -->
    <title>oil</title>
    <desc>Created with Sketch.</desc>
    <defs></defs>
    <g id="Icons" stroke="none" stroke-width="1" fill="none" fill-rule="evenodd">
        <g id="Automotive" transform="translate(-179.000000, -995.000000)" fill="#231F20">
            <g id="Oil" transform="translate(180.000000, 1009.000000)">
                <g>
                    <path d="M36.2592414,0.411333333 C36.1550172,0.162 35.9095862,0 35.637931,0 L32.9482759,0 C32.8238793,0 32.7015,0.0346666667 32.595931,0.0986666667 L24.1941207,5.22533333 L19.8335172,2.754 C19.7319828,2.69733333 19.617,2.66666667 19.5,2.66666667 L15.4655172,2.66666667 L15.4655172,1.33333333 L17.3482759,1.33333333 C17.7194483,1.33333333 18.0206897,1.03466667 18.0206897,0.666666667 C18.0206897,0.298 17.7194483,0 17.3482759,0 L12.237931,0 C11.8667586,0 11.5655172,0.298 11.5655172,0.666666667 C11.5655172,1.03466667 11.8667586,1.33333333 12.237931,1.33333333 L14.1206897,1.33333333 L14.1206897,2.66666667 L9.4137931,2.66666667 L9.4137931,1.33333333 C9.4137931,0.964666667 9.11255172,0.666666667 8.74137931,0.666666667 L0.672413793,0.666666667 C0.301241379,0.666666667 0,0.964666667 0,1.33333333 L0,3.73333333 C0,3.968 0.123724138,4.18466667 0.32612069,4.30533333 L6.37784483,7.90466667 C6.48610345,7.96933333 6.6057931,8 6.72346552,8 C6.95208621,8 7.17465517,7.88466667 7.30039655,7.676 C7.49203448,7.36066667 7.38848276,6.95133333 7.07043103,6.76133333 L1.34482759,3.356 L1.34482759,2 L8.06896552,2 L8.06896552,11.3333333 C8.06896552,11.7013333 8.3702069,12 8.74137931,12 L24.8793103,12 C25.0575,12 25.2282931,11.9293333 25.3547069,11.8046667 L36.1133276,1.138 C36.3056379,0.947333333 36.3634655,0.660666667 36.2592414,0.411333333 L36.2592414,0.411333333 Z M24.600931,10.6666667 L9.4137931,10.6666667 L9.4137931,4 L19.3211379,4 L23.8733793,6.57866667 C24.0865345,6.69866667 24.3501207,6.69533333 24.5592414,6.56733333 L33.138569,1.33333333 L34.0147241,1.33333333 L24.600931,10.6666667 L24.600931,10.6666667 Z M38.1991552,5.556 L36.765569,4.19066667 C36.5053448,3.94333333 36.0945,3.94333333 35.8342759,4.19066667 L34.4006897,5.556 C33.8842759,6.04733333 33.5998448,6.70266667 33.5998448,7.40133333 C33.5998448,8.10066667 33.8836034,8.75666667 34.4006897,9.24933333 C34.9090345,9.73333333 35.5834655,10.0006667 36.2995862,10.0006667 C37.0157069,10.0006667 37.6908103,9.73333333 38.1991552,9.24866667 C38.7162414,8.75666667 39,8.10066667 39,7.40133333 C39,6.70266667 38.715569,6.04733333 38.1991552,5.556 L38.1991552,5.556 Z M37.2678621,8.28666667 C36.7534655,8.77666667 35.8463793,8.776 35.3319828,8.28733333 C35.0818448,8.04933333 34.9446724,7.73466667 34.9446724,7.402 C34.9446724,7.06933333 35.0818448,6.75533333 35.3319828,6.518 L36.2995862,5.596 L37.2678621,6.518 C37.5173276,6.75533333 37.6551724,7.06933333 37.6551724,7.402 C37.6551724,7.73466667 37.5173276,8.04933333 37.2678621,8.28666667 L37.2678621,8.28666667 Z"></path>
                </g>
            </g>
        </g>
    </g>
</svg>