<?xml version="1.0" encoding="UTF-8" standalone="no"?>
<svg width="40px" height="40px" viewBox="0 0 40 40" version="1.1" xmlns="http://www.w3.org/2000/svg" xmlns:xlink="http://www.w3.org/1999/xlink">
    <!-- Generator: Sketch 46.1 (44463) - http://www.bohemiancoding.com/sketch -->
    <title>parking</title>
    <desc>Created with Sketch.</desc>
    <defs></defs>
    <g id="Icons" stroke="none" stroke-width="1" fill="none" fill-rule="evenodd">
        <g id="Automotive" transform="translate(-352.000000, -995.000000)" fill="#231F20">
            <g id="Parking" transform="translate(359.000000, 1002.000000)">
                <g>
                    <path d="M13.5,0 C6.05571429,0 0,6.05635714 0,13.5 C0,20.9436429 6.05571429,27 13.5,27 C20.9436429,27 27,20.9436429 27,13.5 C27,6.05635714 20.9436429,0 13.5,0 L13.5,0 Z M13.5,25.7142857 C6.76478571,25.7142857 1.28571429,20.2345714 1.28571429,13.5 C1.28571429,6.76478571 6.76478571,1.28571429 13.5,1.28571429 C20.2345714,1.28571429 25.7142857,6.76478571 25.7142857,13.5 C25.7142857,20.2345714 20.2345714,25.7142857 13.5,25.7142857 L13.5,25.7142857 Z M15.4285714,7.07142857 L9,7.07142857 C8.64514286,7.07142857 8.35714286,7.35878571 8.35714286,7.71428571 L8.35714286,20.5714286 C8.35714286,20.9262857 8.64514286,21.2142857 9,21.2142857 L11.5714286,21.2142857 C11.9262857,21.2142857 12.2142857,20.9262857 12.2142857,20.5714286 L12.2142857,10.9285714 L15.4285714,10.9285714 C16.1376429,10.9285714 16.7142857,11.5052143 16.7142857,12.2142857 C16.7142857,12.9227143 16.1376429,13.5 15.4285714,13.5 L14.1428571,13.5 C13.788,13.5 13.5,13.7873571 13.5,14.1428571 L13.5,16.7142857 C13.5,17.0691429 13.788,17.3571429 14.1428571,17.3571429 L15.4285714,17.3571429 C18.2642143,17.3571429 20.5714286,15.0499286 20.5714286,12.2142857 C20.5714286,9.37864286 18.2642143,7.07142857 15.4285714,7.07142857 L15.4285714,7.07142857 Z M15.4285714,16.0714286 L14.7857143,16.0714286 L14.7857143,14.7857143 L15.4285714,14.7857143 C16.8460714,14.7857143 18,13.6324286 18,12.2142857 C18,10.7961429 16.8460714,9.64285714 15.4285714,9.64285714 L11.5714286,9.64285714 C11.2165714,9.64285714 10.9285714,9.93021429 10.9285714,10.2857143 L10.9285714,19.9285714 L9.64285714,19.9285714 L9.64285714,8.35714286 L15.4285714,8.35714286 C17.5557857,8.35714286 19.2857143,10.0870714 19.2857143,12.2142857 C19.2857143,14.3408571 17.5557857,16.0714286 15.4285714,16.0714286 L15.4285714,16.0714286 Z"></path>
                </g>
            </g>
        </g>
    </g>
</svg>