<?xml version="1.0" encoding="UTF-8" standalone="no"?>
<svg width="40px" height="40px" viewBox="0 0 40 40" version="1.1" xmlns="http://www.w3.org/2000/svg" xmlns:xlink="http://www.w3.org/1999/xlink">
    <!-- Generator: Sketch 46.1 (44463) - http://www.bohemiancoding.com/sketch -->
    <title>pedals</title>
    <desc>Created with Sketch.</desc>
    <defs></defs>
    <g id="Icons" stroke="none" stroke-width="1" fill="none" fill-rule="evenodd">
        <g id="Automotive" transform="translate(-179.000000, -539.000000)" fill="#231F20">
            <g id="Gas/Brake-Pedals" transform="translate(183.000000, 545.000000)">
                <g>
                    <path d="M3.80952381,4.91891892 C3.80952381,4.29232432 4.32152381,3.78378378 4.95238095,3.78378378 C5.5832381,3.78378378 6.0952381,4.29232432 6.0952381,4.91891892 C6.0952381,5.54551351 5.5832381,6.05405405 4.95238095,6.05405405 C4.32152381,6.05405405 3.80952381,5.54551351 3.80952381,4.91891892 L3.80952381,4.91891892 Z M9.52380952,3.78378378 C8.89295238,3.78378378 8.38095238,4.29232432 8.38095238,4.91891892 C8.38095238,5.54551351 8.89295238,6.05405405 9.52380952,6.05405405 C10.1546667,6.05405405 10.6666667,5.54551351 10.6666667,4.91891892 C10.6666667,4.29232432 10.1546667,3.78378378 9.52380952,3.78378378 L9.52380952,3.78378378 Z M4.95238095,7.56756757 C4.32152381,7.56756757 3.80952381,8.07535135 3.80952381,8.7027027 C3.80952381,9.33005405 4.32152381,9.83783784 4.95238095,9.83783784 C5.5832381,9.83783784 6.0952381,9.33005405 6.0952381,8.7027027 C6.0952381,8.07535135 5.5832381,7.56756757 4.95238095,7.56756757 L4.95238095,7.56756757 Z M9.52380952,7.56756757 C8.89295238,7.56756757 8.38095238,8.07535135 8.38095238,8.7027027 C8.38095238,9.33005405 8.89295238,9.83783784 9.52380952,9.83783784 C10.1546667,9.83783784 10.6666667,9.33005405 10.6666667,8.7027027 C10.6666667,8.07535135 10.1546667,7.56756757 9.52380952,7.56756757 L9.52380952,7.56756757 Z M7.23809524,11.3513514 C6.6072381,11.3513514 6.0952381,11.8598919 6.0952381,12.4864865 C6.0952381,13.1138378 6.6072381,13.6216216 7.23809524,13.6216216 C7.86895238,13.6216216 8.38095238,13.1138378 8.38095238,12.4864865 C8.38095238,11.8598919 7.86895238,11.3513514 7.23809524,11.3513514 L7.23809524,11.3513514 Z M22.4761905,3.78378378 C21.8453333,3.78378378 21.3333333,4.29232432 21.3333333,4.91891892 C21.3333333,5.54551351 21.8453333,6.05405405 22.4761905,6.05405405 C23.1078095,6.05405405 23.6190476,5.54551351 23.6190476,4.91891892 C23.6190476,4.29232432 23.1078095,3.78378378 22.4761905,3.78378378 L22.4761905,3.78378378 Z M27.047619,3.78378378 C26.4167619,3.78378378 25.9047619,4.29232432 25.9047619,4.91891892 C25.9047619,5.54551351 26.4167619,6.05405405 27.047619,6.05405405 C27.6784762,6.05405405 28.1904762,5.54551351 28.1904762,4.91891892 C28.1904762,4.29232432 27.6784762,3.78378378 27.047619,3.78378378 L27.047619,3.78378378 Z M22.4761905,8.32432432 C21.8453333,8.32432432 21.3333333,8.83286486 21.3333333,9.45945946 C21.3333333,10.0868108 21.8453333,10.5945946 22.4761905,10.5945946 C23.1078095,10.5945946 23.6190476,10.0868108 23.6190476,9.45945946 C23.6190476,8.83286486 23.1078095,8.32432432 22.4761905,8.32432432 L22.4761905,8.32432432 Z M27.047619,8.32432432 C26.4167619,8.32432432 25.9047619,8.83286486 25.9047619,9.45945946 C25.9047619,10.0868108 26.4167619,10.5945946 27.047619,10.5945946 C27.6784762,10.5945946 28.1904762,10.0868108 28.1904762,9.45945946 C28.1904762,8.83286486 27.6784762,8.32432432 27.047619,8.32432432 L27.047619,8.32432432 Z M22.4761905,12.8648649 C21.8453333,12.8648649 21.3333333,13.3734054 21.3333333,14 C21.3333333,14.6273514 21.8453333,15.1351351 22.4761905,15.1351351 C23.1078095,15.1351351 23.6190476,14.6273514 23.6190476,14 C23.6190476,13.3734054 23.1078095,12.8648649 22.4761905,12.8648649 L22.4761905,12.8648649 Z M27.047619,12.8648649 C26.4167619,12.8648649 25.9047619,13.3734054 25.9047619,14 C25.9047619,14.6273514 26.4167619,15.1351351 27.047619,15.1351351 C27.6784762,15.1351351 28.1904762,14.6273514 28.1904762,14 C28.1904762,13.3734054 27.6784762,12.8648649 27.047619,12.8648649 L27.047619,12.8648649 Z M22.4761905,17.4054054 C21.8453333,17.4054054 21.3333333,17.9139459 21.3333333,18.5405405 C21.3333333,19.1671351 21.8453333,19.6756757 22.4761905,19.6756757 C23.1078095,19.6756757 23.6190476,19.1671351 23.6190476,18.5405405 C23.6190476,17.9139459 23.1078095,17.4054054 22.4761905,17.4054054 L22.4761905,17.4054054 Z M27.047619,17.4054054 C26.4167619,17.4054054 25.9047619,17.9139459 25.9047619,18.5405405 C25.9047619,19.1671351 26.4167619,19.6756757 27.047619,19.6756757 C27.6784762,19.6756757 28.1904762,19.1671351 28.1904762,18.5405405 C28.1904762,17.9139459 27.6784762,17.4054054 27.047619,17.4054054 L27.047619,17.4054054 Z M22.4761905,21.9459459 C21.8453333,21.9459459 21.3333333,22.4544865 21.3333333,23.0810811 C21.3333333,23.7084324 21.8453333,24.2162162 22.4761905,24.2162162 C23.1078095,24.2162162 23.6190476,23.7084324 23.6190476,23.0810811 C23.6190476,22.4544865 23.1078095,21.9459459 22.4761905,21.9459459 L22.4761905,21.9459459 Z M27.047619,21.9459459 C26.4167619,21.9459459 25.9047619,22.4544865 25.9047619,23.0810811 C25.9047619,23.7084324 26.4167619,24.2162162 27.047619,24.2162162 C27.6784762,24.2162162 28.1904762,23.7084324 28.1904762,23.0810811 C28.1904762,22.4544865 27.6784762,21.9459459 27.047619,21.9459459 L27.047619,21.9459459 Z M32,3.78378378 L32,24.2162162 C32,26.3025946 30.2910476,28 28.1904762,28 L21.3333333,28 C19.2327619,28 17.5238095,26.3025946 17.5238095,24.2162162 L17.5238095,3.78378378 C17.5238095,1.69740541 19.2327619,0 21.3333333,0 L28.1904762,0 C30.2910476,0 32,1.69740541 32,3.78378378 L32,3.78378378 Z M30.4761905,3.78378378 C30.4761905,2.53210811 29.4506667,1.51351351 28.1904762,1.51351351 L21.3333333,1.51351351 C20.0731429,1.51351351 19.047619,2.53210811 19.047619,3.78378378 L19.047619,24.2162162 C19.047619,25.4678919 20.0731429,26.4864865 21.3333333,26.4864865 L28.1904762,26.4864865 C29.4506667,26.4864865 30.4761905,25.4678919 30.4761905,24.2162162 L30.4761905,3.78378378 L30.4761905,3.78378378 Z M14.4761905,3.78378378 L14.4761905,7.952 C14.4761905,8.26075676 14.4380952,8.56875676 14.3634286,8.86843243 L12.7390476,14.5615135 C12.32,16.2271351 10.8007619,17.4054054 9.04914286,17.4054054 L5.42704762,17.4054054 C3.67542857,17.4054054 2.15619048,16.2271351 1.73104762,14.5395676 L0.119619048,8.89189189 C0.0380952381,8.56875676 0,8.26075676 0,7.952 L0,3.78378378 C0,1.69740541 1.70895238,0 3.80952381,0 L10.6666667,0 C12.7672381,0 14.4761905,1.69740541 14.4761905,3.78378378 L14.4761905,3.78378378 Z M12.952381,3.78378378 C12.952381,2.53210811 11.9268571,1.51351351 10.6666667,1.51351351 L3.80952381,1.51351351 C2.54933333,1.51351351 1.52380952,2.53210811 1.52380952,3.78378378 L1.52380952,7.952 C1.52380952,8.13740541 1.54666667,8.32281081 1.59238095,8.50291892 L3.20304762,14.1490811 C3.46438095,15.1850811 4.37638095,15.8918919 5.42704762,15.8918919 L9.04914286,15.8918919 C10.0998095,15.8918919 11.0118095,15.1850811 11.2670476,14.1717838 L12.8906667,8.47945946 C12.9295238,8.32281081 12.952381,8.13740541 12.952381,7.952 L12.952381,3.78378378 L12.952381,3.78378378 Z"></path>
                </g>
            </g>
        </g>
    </g>
</svg>