<?xml version="1.0" encoding="UTF-8" standalone="no"?>
<svg width="40px" height="40px" viewBox="0 0 40 40" version="1.1" xmlns="http://www.w3.org/2000/svg" xmlns:xlink="http://www.w3.org/1999/xlink">
    <!-- Generator: Sketch 46.1 (44463) - http://www.bohemiancoding.com/sketch -->
    <title>policecar</title>
    <desc>Created with Sketch.</desc>
    <defs></defs>
    <g id="Icons" stroke="none" stroke-width="1" fill="none" fill-rule="evenodd">
        <g id="Automotive" transform="translate(-524.000000, -835.000000)" fill="#231F20">
            <g id="Police-Car" transform="translate(524.536539, 845.747014)">
                <g>
                    <path d="M26.7759498,16.03125 L10.4774423,16.03125 C10.4774423,14.3942812 9.17181545,13.0625 7.56699456,13.0625 C5.96217366,13.0625 4.6565468,14.3942812 4.6565468,16.03125 C4.6565468,17.667625 5.96217366,19 7.56699456,19 C8.75736769,19 9.78009904,18.2649375 10.2306363,17.21875 L26.7759498,17.21875 C27.0972632,17.21875 27.3580393,16.95275 27.3580393,16.625 C27.3580393,16.2966563 27.0972632,16.03125 26.7759498,16.03125 L26.7759498,16.03125 Z M7.56699456,17.8125 C6.60421844,17.8125 5.8207259,17.0133125 5.8207259,16.03125 C5.8207259,15.0485938 6.60421844,14.25 7.56699456,14.25 C8.52977068,14.25 9.31326322,15.0485938 9.31326322,16.03125 C9.31326322,17.0133125 8.52977068,17.8125 7.56699456,17.8125 L7.56699456,17.8125 Z M38.8211289,13.1586875 L37.0748602,11.4469062 C36.9869647,11.3602188 36.8746214,11.305 36.7541289,11.2871875 L28.6869498,10.1115625 L22.3596363,7.17784375 C22.2845468,7.1428125 22.2024722,7.125 22.1192334,7.125 L11.6416214,7.125 C11.5199647,7.125 11.4018005,7.16359375 11.3034274,7.2354375 L7.35453187,10.1121562 L1.68789008,10.6904687 C1.46087516,10.713625 1.26762142,10.870375 1.19486023,11.0906562 L0.0306811259,14.608625 C-0.0490651427,14.8496875 0.0300990364,15.1156875 0.228009484,15.2706562 L2.55636769,17.0893125 C2.81132292,17.2882187 3.17687516,17.2395312 3.37245725,16.978875 C3.56803933,16.7188125 3.51914381,16.3459375 3.26418859,16.1464375 L1.26645725,14.5860625 L2.17742739,11.8334375 L7.62520351,11.2782813 C7.72590501,11.2675937 7.82253187,11.2307812 7.90518859,11.1702187 L11.8278901,8.3125 L21.9929199,8.3125 L28.2812334,11.2278125 C28.3318752,11.2515625 28.3854274,11.267 28.4395617,11.2753125 L36.403711,12.4355 L37.8356513,13.839125 L37.8356513,16.03125 L34.343114,16.03125 C34.343114,14.3942812 33.0374871,13.0625 31.4326662,13.0625 C29.8278453,13.0625 28.5222184,14.3942812 28.5222184,16.03125 C28.5222184,17.667625 29.8278453,19 31.4326662,19 C32.6230393,19 33.6457707,18.2649375 34.096308,17.21875 L38.4177408,17.21875 C38.7390543,17.21875 38.9998304,16.95275 38.9998304,16.625 L38.9998304,13.5867813 C38.9998304,13.4246875 38.9352184,13.2703125 38.8211289,13.1586875 L38.8211289,13.1586875 Z M31.4326662,17.8125 C30.4698901,17.8125 29.6863975,17.0133125 29.6863975,16.03125 C29.6863975,15.0485938 30.4698901,14.25 31.4326662,14.25 C32.3954423,14.25 33.1789349,15.0485938 33.1789349,16.03125 C33.1789349,17.0133125 32.3954423,17.8125 31.4326662,17.8125 L31.4326662,17.8125 Z M17.4625169,11.28125 C17.1412035,11.28125 16.8804274,11.01525 16.8804274,10.6875 C16.8804274,10.3591563 17.1412035,10.09375 17.4625169,10.09375 L23.2834125,10.09375 C23.6047259,10.09375 23.865502,10.3591563 23.865502,10.6875 C23.865502,11.01525 23.6047259,11.28125 23.2834125,11.28125 L17.4625169,11.28125 L17.4625169,11.28125 Z M15.1341587,1.1875 L15.1341587,0.59375 C15.1341587,0.26540625 15.3949349,0 15.7162483,0 C16.0375617,0 16.2983378,0.26540625 16.2983378,0.59375 L16.2983378,1.1875 C16.2983378,1.51525 16.0375617,1.78125 15.7162483,1.78125 C15.3949349,1.78125 15.1341587,1.51525 15.1341587,1.1875 L15.1341587,1.1875 Z M10.4774423,4.15625 C10.4774423,3.82790625 10.7382184,3.5625 11.0595319,3.5625 L11.6416214,3.5625 C11.9629349,3.5625 12.223711,3.82790625 12.223711,4.15625 C12.223711,4.484 11.9629349,4.75 11.6416214,4.75 L11.0595319,4.75 C10.7382184,4.75 10.4774423,4.484 10.4774423,4.15625 L10.4774423,4.15625 Z M19.2087856,4.15625 C19.2087856,3.82790625 19.4695617,3.5625 19.7908752,3.5625 L20.3729647,3.5625 C20.6942781,3.5625 20.9550543,3.82790625 20.9550543,4.15625 C20.9550543,4.484 20.6942781,4.75 20.3729647,4.75 L19.7908752,4.75 C19.4695617,4.75 19.2087856,4.484 19.2087856,4.15625 L19.2087856,4.15625 Z M13.4053528,5.2000625 L13.9874423,2.8250625 C14.0520543,2.56025 14.2848901,2.375 14.5520692,2.375 L16.8804274,2.375 C17.1476065,2.375 17.3804423,2.56025 17.4450543,2.8250625 L18.0271438,5.2000625 C18.1051438,5.51771875 17.9153826,5.840125 17.6039647,5.91909375 C17.5562334,5.9315625 17.5090841,5.9375 17.4619349,5.9375 C17.2011587,5.9375 16.9642483,5.75759375 16.8978901,5.4874375 L16.4258155,3.5625 L15.0066811,3.5625 L14.5346065,5.4874375 C14.4566065,5.80628125 14.1405319,5.99925 13.8285319,5.91909375 C13.517114,5.840125 13.3273528,5.51771875 13.4053528,5.2000625 L13.4053528,5.2000625 Z"></path>
                </g>
            </g>
        </g>
    </g>
</svg>