<?xml version="1.0" encoding="UTF-8" standalone="no"?>
<svg width="40px" height="40px" viewBox="0 0 40 40" version="1.1" xmlns="http://www.w3.org/2000/svg" xmlns:xlink="http://www.w3.org/1999/xlink">
    <!-- Generator: Sketch 46.1 (44463) - http://www.bohemiancoding.com/sketch -->
    <title>quad</title>
    <desc>Created with Sketch.</desc>
    <defs></defs>
    <g id="Icons" stroke="none" stroke-width="1" fill="none" fill-rule="evenodd">
        <g id="Automotive" transform="translate(-869.000000, -835.000000)" fill="#231F20">
            <g id="Quad" transform="translate(875.000000, 845.000000)">
                <g>
                    <path d="M20.6045,4.29141176 L22.4958043,4.90905882 C22.5613696,4.93067647 22.6288261,4.94117647 22.6956522,4.94117647 C22.8261522,4.94117647 22.9553913,4.90102941 23.0638261,4.82444118 C23.229,4.70832353 23.326087,4.52179412 23.326087,4.32352941 L23.326087,1.23529412 C23.326087,1.03641176 23.229,0.8505 23.0638261,0.733764706 C22.8992826,0.617647059 22.688087,0.584911765 22.4958043,0.649764706 L20.6045,1.26741176 C20.3472826,1.35079412 20.173913,1.58673529 20.173913,1.85294118 L20.173913,3.70588235 C20.173913,3.97147059 20.3472826,4.20741176 20.6045,4.29141176 L20.6045,4.29141176 Z M21.4347826,2.29764706 L22.0652174,2.09197059 L22.0652174,3.46623529 L21.4347826,3.26055882 L21.4347826,2.29764706 L21.4347826,2.29764706 Z M11.3478261,0.617647059 C11.3478261,0.276088235 11.6302609,0 11.9782609,0 L16.3913043,0 C16.6491522,0 16.8805217,0.153794118 16.9769783,0.3885 L18.2378478,3.47673529 C18.367087,3.79297059 18.2094783,4.15244118 17.8860652,4.27905882 C17.8097826,4.30932353 17.7303478,4.32352941 17.6521739,4.32352941 C17.4025217,4.32352941 17.1654783,4.17652941 17.0665,3.93502941 L15.9645,1.23529412 L11.9782609,1.23529412 C11.6302609,1.23529412 11.3478261,0.958588235 11.3478261,0.617647059 L11.3478261,0.617647059 Z M4.43826087,4.76638235 C4.53723913,4.43964706 4.8865,4.25002941 5.22126087,4.34885294 L10.363087,5.82997059 C10.696587,5.92570588 10.8882391,6.26911765 10.7898913,6.59647059 C10.7085652,6.86576471 10.4576522,7.03994118 10.1853043,7.03994118 C10.1266739,7.03994118 10.0661522,7.03191176 10.0068913,7.01461765 L4.86569565,5.5335 C4.53156522,5.43714706 4.34054348,5.09435294 4.43826087,4.76638235 L4.43826087,4.76638235 Z M17.0217391,14.2058824 L11.9782609,14.2058824 C11.8111957,14.2058824 11.6504348,14.1404118 11.5325435,14.0249118 L9.01080435,11.5543235 C8.76430435,11.3128235 8.76430435,10.9218529 9.01080435,10.6809706 C9.25667391,10.4394706 9.65573913,10.4394706 9.90223913,10.6809706 L12.2392609,12.9705882 L16.7317391,12.9705882 L20.3258478,8.86261765 C20.4456304,8.72611765 20.6202609,8.64705882 20.8043478,8.64705882 L26.4782609,8.64705882 L26.4782609,7.91082353 L18.5089348,6.23761765 C16.0395217,8.84532353 12.2506087,9.8805 8.74602174,8.86817647 L3.88726087,7.46797059 L2.24119565,8.54329412 C1.95056522,8.73167647 1.55969565,8.65508824 1.36678261,8.37158824 C1.17386957,8.08747059 1.25204348,7.70452941 1.54141304,7.51552941 L3.43271739,6.28023529 C3.58780435,6.17894118 3.78134783,6.14929412 3.9603913,6.20179412 L9.10158696,7.68352941 C12.2506087,8.59023529 15.6675652,7.59891176 17.8041087,5.15673529 C17.9541522,4.98502941 18.1899348,4.90535294 18.4143696,4.95476471 L27.2404565,6.80770588 C27.531087,6.86885294 27.7391304,7.12023529 27.7391304,7.41176471 L27.7391304,9.26470588 C27.7391304,9.60564706 27.4566957,9.88235294 27.1086957,9.88235294 L21.0943478,9.88235294 L17.5002391,13.9897059 C17.3804565,14.1268235 17.2058261,14.2058824 17.0217391,14.2058824 L17.0217391,14.2058824 Z M11.3478261,15.4411765 C10.9998261,15.4411765 10.7173913,15.7172647 10.7173913,16.0588235 C10.7173913,17.3824412 10.0031087,18.5423824 8.93515217,19.1983235 C9.65447826,18.3441176 10.0869565,17.2496471 10.0869565,16.0588235 C10.0869565,13.3343824 7.82432609,11.1176471 5.04347826,11.1176471 C2.26263043,11.1176471 0,13.3343824 0,16.0588235 C0,18.7832647 2.26263043,21 5.04347826,21 C5.3668913,21 5.6821087,20.9666471 5.98913043,20.9098235 C6.29615217,20.9666471 6.61136957,21 6.93478261,21 C9.71563043,21 11.9782609,18.7832647 11.9782609,16.0588235 C11.9782609,15.7172647 11.6958261,15.4411765 11.3478261,15.4411765 L11.3478261,15.4411765 Z M5.04347826,19.7647059 C2.95736957,19.7647059 1.26086957,18.102 1.26086957,16.0588235 C1.26086957,14.0150294 2.95736957,12.3529412 5.04347826,12.3529412 C7.12895652,12.3529412 8.82608696,14.0150294 8.82608696,16.0588235 C8.82608696,18.102 7.12895652,19.7647059 5.04347826,19.7647059 L5.04347826,19.7647059 Z M5.04347826,14.2058824 C4.00073913,14.2058824 3.15217391,15.0366176 3.15217391,16.0588235 C3.15217391,17.0804118 4.00073913,17.9117647 5.04347826,17.9117647 C6.08621739,17.9117647 6.93478261,17.0804118 6.93478261,16.0588235 C6.93478261,15.0366176 6.08621739,14.2058824 5.04347826,14.2058824 L5.04347826,14.2058824 Z M5.04347826,16.6764706 C4.6961087,16.6764706 4.41304348,16.3997647 4.41304348,16.0588235 C4.41304348,15.7178824 4.6961087,15.4411765 5.04347826,15.4411765 C5.39084783,15.4411765 5.67391304,15.7178824 5.67391304,16.0588235 C5.67391304,16.3997647 5.39084783,16.6764706 5.04347826,16.6764706 L5.04347826,16.6764706 Z M23.9565217,11.1176471 C21.1756739,11.1176471 18.9130435,13.3343824 18.9130435,16.0588235 C18.9130435,17.2496471 19.3455217,18.3441176 20.0648478,19.1983235 C18.9968913,18.5423824 18.2826087,17.3824412 18.2826087,16.0588235 C18.2826087,15.7172647 18.0001739,15.4411765 17.6521739,15.4411765 C17.3041739,15.4411765 17.0217391,15.7172647 17.0217391,16.0588235 C17.0217391,18.7832647 19.2843696,21 22.0652174,21 C22.3886304,21 22.7038478,20.9666471 23.0108696,20.9098235 C23.3178913,20.9666471 23.6331087,21 23.9565217,21 C26.7373696,21 29,18.7832647 29,16.0588235 C29,13.3343824 26.7373696,11.1176471 23.9565217,11.1176471 L23.9565217,11.1176471 Z M23.9565217,19.7647059 C21.870413,19.7647059 20.173913,18.102 20.173913,16.0588235 C20.173913,14.0150294 21.870413,12.3529412 23.9565217,12.3529412 C26.042,12.3529412 27.7391304,14.0150294 27.7391304,16.0588235 C27.7391304,18.102 26.042,19.7647059 23.9565217,19.7647059 L23.9565217,19.7647059 Z M23.9565217,14.2058824 C22.9137826,14.2058824 22.0652174,15.0366176 22.0652174,16.0588235 C22.0652174,17.0804118 22.9137826,17.9117647 23.9565217,17.9117647 C24.9992609,17.9117647 25.8478261,17.0804118 25.8478261,16.0588235 C25.8478261,15.0366176 24.9992609,14.2058824 23.9565217,14.2058824 L23.9565217,14.2058824 Z M23.9565217,16.6764706 C23.6091522,16.6764706 23.326087,16.3997647 23.326087,16.0588235 C23.326087,15.7178824 23.6091522,15.4411765 23.9565217,15.4411765 C24.3038913,15.4411765 24.5869565,15.7178824 24.5869565,16.0588235 C24.5869565,16.3997647 24.3038913,16.6764706 23.9565217,16.6764706 L23.9565217,16.6764706 Z"></path>
                </g>
            </g>
        </g>
    </g>
</svg>