<?xml version="1.0" encoding="UTF-8" standalone="no"?>
<svg width="40px" height="40px" viewBox="0 0 40 40" version="1.1" xmlns="http://www.w3.org/2000/svg" xmlns:xlink="http://www.w3.org/1999/xlink">
    <!-- Generator: Sketch 46.1 (44463) - http://www.bohemiancoding.com/sketch -->
    <title>radio</title>
    <desc>Created with Sketch.</desc>
    <defs></defs>
    <g id="Icons" stroke="none" stroke-width="1" fill="none" fill-rule="evenodd">
        <g id="Automotive" transform="translate(-524.000000, -995.000000)" fill="#231F20">
            <g id="Radio" transform="translate(526.000000, 1008.000000)">
                <g>
                    <path d="M24.6666667,8.18181818 L24.6666667,9.54545455 C24.6666667,9.92181818 24.3603889,10.2272727 23.9814815,10.2272727 C23.6025741,10.2272727 23.2962963,9.92181818 23.2962963,9.54545455 L23.2962963,8.18181818 C23.2962963,7.80477273 23.6025741,7.5 23.9814815,7.5 C24.3603889,7.5 24.6666667,7.80477273 24.6666667,8.18181818 L24.6666667,8.18181818 Z M26.037037,6.81818182 C25.6581296,6.81818182 25.3518519,7.12295455 25.3518519,7.5 L25.3518519,9.54545455 C25.3518519,9.92181818 25.6581296,10.2272727 26.037037,10.2272727 C26.4159444,10.2272727 26.7222222,9.92181818 26.7222222,9.54545455 L26.7222222,7.5 C26.7222222,7.12295455 26.4159444,6.81818182 26.037037,6.81818182 L26.037037,6.81818182 Z M28.0925926,6.13636364 C27.7136852,6.13636364 27.4074074,6.44113636 27.4074074,6.81818182 L27.4074074,9.54545455 C27.4074074,9.92181818 27.7136852,10.2272727 28.0925926,10.2272727 C28.4715,10.2272727 28.7777778,9.92181818 28.7777778,9.54545455 L28.7777778,6.81818182 C28.7777778,6.44113636 28.4715,6.13636364 28.0925926,6.13636364 L28.0925926,6.13636364 Z M30.1481481,5.45454545 C29.7692407,5.45454545 29.462963,5.75931818 29.462963,6.13636364 L29.462963,9.54545455 C29.462963,9.92181818 29.7692407,10.2272727 30.1481481,10.2272727 C30.5270556,10.2272727 30.8333333,9.92181818 30.8333333,9.54545455 L30.8333333,6.13636364 C30.8333333,5.75931818 30.5270556,5.45454545 30.1481481,5.45454545 L30.1481481,5.45454545 Z M32.2037037,4.77272727 C31.8247963,4.77272727 31.5185185,5.0775 31.5185185,5.45454545 L31.5185185,9.54545455 C31.5185185,9.92181818 31.8247963,10.2272727 32.2037037,10.2272727 C32.5826111,10.2272727 32.8888889,9.92181818 32.8888889,9.54545455 L32.8888889,5.45454545 C32.8888889,5.0775 32.5826111,4.77272727 32.2037037,4.77272727 L32.2037037,4.77272727 Z M17.3920556,4.14272727 C17.1357963,4.03568182 16.8418519,4.095 16.6452037,4.29068182 L14.3888889,6.53590909 L12.1325741,4.29068182 C11.9372963,4.095 11.6426667,4.03636364 11.3857222,4.14272727 C11.129463,4.24772727 10.962963,4.49659091 10.962963,4.77272727 L10.962963,10.2272727 C10.962963,10.6036364 11.2692407,10.9090909 11.6481481,10.9090909 C12.0270556,10.9090909 12.3333333,10.6036364 12.3333333,10.2272727 L12.3333333,6.41863636 L13.904463,7.98204545 C14.1716852,8.24795455 14.6054074,8.24795455 14.8733148,7.98204545 L16.4444444,6.41863636 L16.4444444,10.2272727 C16.4444444,10.6036364 16.7507222,10.9090909 17.1296296,10.9090909 C17.508537,10.9090909 17.8148148,10.6036364 17.8148148,10.2272727 L17.8148148,4.77272727 C17.8148148,4.49659091 17.6483148,4.24772727 17.3920556,4.14272727 L17.3920556,4.14272727 Z M8.90740741,5.45454545 C9.28631481,5.45454545 9.59259259,5.14909091 9.59259259,4.77272727 C9.59259259,4.39568182 9.28631481,4.09090909 8.90740741,4.09090909 L5.48148148,4.09090909 C5.10257407,4.09090909 4.7962963,4.39568182 4.7962963,4.77272727 L4.7962963,10.2272727 C4.7962963,10.6036364 5.10257407,10.9090909 5.48148148,10.9090909 C5.86038889,10.9090909 6.16666667,10.6036364 6.16666667,10.2272727 L6.16666667,8.18181818 L8.90740741,8.18181818 C9.28631481,8.18181818 9.59259259,7.87636364 9.59259259,7.5 C9.59259259,7.12295455 9.28631481,6.81818182 8.90740741,6.81818182 L6.16666667,6.81818182 L6.16666667,5.45454545 L8.90740741,5.45454545 L8.90740741,5.45454545 Z M37,3.40909091 L37,11.5909091 C37,13.47 35.4631296,15 33.5740741,15 L3.42592593,15 C1.53687037,15 0,13.47 0,11.5909091 L0,3.40909091 C0,1.52931818 1.53687037,0 3.42592593,0 L33.5740741,0 C35.4631296,0 37,1.52931818 37,3.40909091 L37,3.40909091 Z M35.6296296,3.40909091 C35.6296296,2.28068182 34.7073704,1.36363636 33.5740741,1.36363636 L3.42592593,1.36363636 C2.29262963,1.36363636 1.37037037,2.28068182 1.37037037,3.40909091 L1.37037037,11.5909091 C1.37037037,12.7186364 2.29262963,13.6363636 3.42592593,13.6363636 L33.5740741,13.6363636 C34.7073704,13.6363636 35.6296296,12.7186364 35.6296296,11.5909091 L35.6296296,3.40909091 L35.6296296,3.40909091 Z"></path>
                </g>
            </g>
        </g>
    </g>
</svg>