<?xml version="1.0" encoding="UTF-8" standalone="no"?>
<svg width="40px" height="40px" viewBox="0 0 40 40" version="1.1" xmlns="http://www.w3.org/2000/svg" xmlns:xlink="http://www.w3.org/1999/xlink">
    <!-- Generator: Sketch 46.1 (44463) - http://www.bohemiancoding.com/sketch -->
    <title>ramen</title>
    <desc>Created with Sketch.</desc>
    <defs></defs>
    <g id="Page-1" stroke="none" stroke-width="1" fill="none" fill-rule="evenodd">
        <g id="30-Fast-Food-Icons" transform="translate(-690.000000, -790.000000)" fill="#000000">
            <g id="ramen" transform="translate(690.000000, 790.000000)">
                <path d="M34,6.8711621 L33.7384035,6 L19.6900061,9.60640093 L19.6900061,8.24311949 L18.7121485,8.24311949 L18.7121485,9.85761797 L18.2231676,9.98322649 L18.2231676,9.14676821 L17.24531,9.14676821 L17.24531,10.2339615 L16.7563291,10.3595701 L16.7563291,10.0505133 L15.7784715,10.0505133 L15.7784715,10.5024341 L15.7784715,11.4061792 L15.7784715,17.2805707 C15.3438334,17.2805707 14.9570711,17.4594881 14.6886948,17.7378898 C12.7848192,17.7780884 11.1498413,18.8277823 10.3817407,20.3302646 C10.1241078,20.1224273 9.79064535,19.991806 9.42244937,19.991806 C8.61377419,19.991806 7.95571516,20.5999904 7.95571516,21.3474719 C7.95571516,21.5968574 7.73615354,21.7993927 7.46673422,21.7993927 L6,21.7993927 L6,22.2513134 C6,26.731672 8.75854927,31.1084976 12.8450031,33.3457367 L12.8450031,34 L24.579294,34 L24.579294,33.3457367 C28.6657478,31.1103292 31.4242971,26.7335036 31.4242971,22.2513134 L31.4242971,21.7993927 L28.979601,21.7993927 L28.979601,18.1844122 L28.0017434,18.1844122 L28.0017434,21.7993927 L27.9728509,21.7993927 C27.9126671,21.2986938 27.7523506,20.8260471 27.5127624,20.3967803 L27.5127624,17.7325878 L26.5349049,17.7325878 L26.5349049,19.2287078 C25.7555393,18.5816745 24.7292843,18.1844122 23.6018536,18.1844122 C22.6973223,18.1844122 21.645617,18.4383284 21.1567403,18.8726081 L21.1567403,18.7591459 L21.1572618,18.6362366 C21.1572618,17.8888514 20.4992028,17.2805707 19.6904233,17.2805707 C18.8817481,17.2805707 18.2235848,17.888755 18.2235848,18.6362366 C18.2235848,18.885622 18.0040232,19.0881573 17.7347082,19.0881573 C17.4653932,19.0881573 17.2457272,18.8857184 17.2457272,18.6362366 C17.2457272,18.2372391 17.0545365,17.8816214 16.7567463,17.6331036 L16.7567463,11.4061792 L17.2457272,11.4061792 L17.2457272,17.2805707 L18.2235848,17.2805707 L18.2235848,11.4061792 L18.7125657,11.4061792 L18.7125657,12.3099243 L19.6904233,12.3099243 L19.6904233,11.4061792 L33.8694104,11.4061792 L33.8694104,10.5024341 L19.8553292,10.5024341 L34,6.8711621 L34,6.8711621 L34,6.8711621 Z M8.93357274,21.3473755 C8.93357274,21.0979901 9.15313436,20.8954548 9.42255368,20.8954548 C9.691973,20.8954548 9.91153462,21.0978937 9.91153462,21.3473755 C9.91153462,21.4580421 9.93010088,21.5637924 9.95701152,21.6668434 C9.95064892,21.7110908 9.94084427,21.7544705 9.93594195,21.7991999 L8.84366199,21.7991999 C8.89842202,21.6573963 8.93357274,21.5064347 8.93357274,21.3473755 L8.93357274,21.3473755 L8.93357274,21.3473755 Z M30.4366348,22.7030414 C30.2430451,27.1002073 27.2430302,31.3134429 22.9995977,33.0960621 L14.4252209,33.0960621 C10.1817884,31.3120933 7.18177348,27.0983757 6.98807945,22.7030414 L30.4366348,22.7030414 L30.4366348,22.7030414 L30.4366348,22.7030414 Z M12.7550923,21.7992963 C12.8098523,21.6573963 12.8451074,21.5065311 12.8451074,21.3473755 C12.8451074,21.0979901 13.064669,20.8954548 13.3340883,20.8954548 C13.6035076,20.8954548 13.8230692,21.0978937 13.8230692,21.3473755 C13.8230692,21.5064347 13.8583243,21.6573963 13.91298,21.7992963 L12.7550923,21.7992963 L12.7550923,21.7992963 L12.7550923,21.7992963 Z M16.6665226,21.7992963 C16.7212827,21.6573963 16.7565377,21.5065311 16.7565377,21.3473755 C16.7565377,21.0979901 16.9760993,20.8954548 17.2455186,20.8954548 C17.5149379,20.8954548 17.7344996,21.0978937 17.7344996,21.3473755 C17.7344996,21.5064347 17.7697546,21.6573963 17.8244103,21.7992963 L16.6665226,21.7992963 L16.6665226,21.7992963 L16.6665226,21.7992963 Z M23.6014364,19.0879645 C25.3220485,19.0880609 26.7462264,20.2692437 26.9848758,21.7992963 L23.1125598,21.7992963 C22.8431405,21.7992963 22.6235788,21.5968574 22.6235788,21.3473755 C22.6235788,20.6153179 21.9913874,20.0206295 21.2052421,19.9962404 C21.8232481,19.4354846 22.6690557,19.0879645 23.6014364,19.0879645 L23.6014364,19.0879645 L23.6014364,19.0879645 Z M20.667968,21.3474719 C20.6678637,21.0979901 20.8874253,20.8955512 21.1568446,20.8955512 C21.426264,20.8955512 21.6458256,21.0979901 21.6458256,21.3474719 C21.6458256,21.5065311 21.6809763,21.6574926 21.7358406,21.7993927 L20.5775357,21.7993927 C20.6328173,21.6574926 20.667968,21.5066275 20.667968,21.3474719 L20.667968,21.3474719 L20.667968,21.3474719 Z M17.734291,19.991806 C18.5429661,19.991806 19.2010252,19.3836217 19.2010252,18.6361402 C19.2010252,18.3866583 19.4205868,18.1842194 19.6900061,18.1842194 C19.9594254,18.1842194 20.1789871,18.3866583 20.1789871,18.6361402 L20.1784655,18.7523015 C20.1760665,19.0324384 20.1784655,19.3180701 20.3134359,19.5580084 C19.7272429,20.1685063 19.3350568,20.9402805 19.2314822,21.7934159 C19.2207388,21.7942835 19.2118729,21.7992963 19.2011295,21.7992963 C18.9317102,21.7992963 18.7121485,21.5968574 18.7121485,21.3473755 C18.7121485,20.5999904 18.0540895,19.9917096 17.2454143,19.9917096 C16.4367391,19.9917096 15.7785758,20.599894 15.7785758,21.3473755 C15.7785758,21.596761 15.5590142,21.7992963 15.2895949,21.7992963 C15.0201755,21.7992963 14.8006139,21.5968574 14.8006139,21.3473755 C14.8006139,20.5999904 14.1425549,19.9917096 13.3337754,19.9917096 C12.5249959,19.9917096 11.8669369,20.599894 11.8669369,21.3473755 C11.8669369,21.596761 11.6473752,21.7992963 11.3779559,21.7992963 C11.1975086,21.7992963 11.0459537,21.7039572 10.9609453,21.5692871 C11.3075502,19.9009977 12.8961124,18.6361402 14.8005096,18.6361402 L15.2894905,18.6361402 C15.2894905,18.3866583 15.5090522,18.1842194 15.7784715,18.1842194 C16.0478908,18.1842194 16.2674524,18.3866583 16.2674524,18.6361402 C16.2675567,19.3835253 16.9256158,19.991806 17.734291,19.991806 L17.734291,19.991806 Z"></path>
            </g>
        </g>
    </g>
</svg>