<?xml version="1.0" encoding="UTF-8" standalone="no"?>
<svg width="40px" height="40px" viewBox="0 0 40 40" version="1.1" xmlns="http://www.w3.org/2000/svg" xmlns:xlink="http://www.w3.org/1999/xlink">
    <!-- Generator: Sketch 46.1 (44463) - http://www.bohemiancoding.com/sketch -->
    <title>retrocar</title>
    <desc>Created with Sketch.</desc>
    <defs></defs>
    <g id="Icons" stroke="none" stroke-width="1" fill="none" fill-rule="evenodd">
        <g id="Automotive" transform="translate(-524.000000, -1335.000000)" fill="#231F20">
            <g id="Retro-Car" transform="translate(526.000000, 1345.000000)">
                <g>
                    <path d="M31.3333333,10.6666667 C28.76,10.6666667 26.6666667,12.76 26.6666667,15.3333333 C26.6666667,17.906 28.76,20 31.3333333,20 C33.9066667,20 36,17.906 36,15.3333333 C36,12.76 33.9066667,10.6666667 31.3333333,10.6666667 L31.3333333,10.6666667 Z M31.3333333,18.6666667 C29.4953333,18.6666667 28,17.1713333 28,15.3333333 C28,13.4953333 29.4953333,12 31.3333333,12 C33.1713333,12 34.6666667,13.4953333 34.6666667,15.3333333 C34.6666667,17.1713333 33.1713333,18.6666667 31.3333333,18.6666667 L31.3333333,18.6666667 Z M6.66666667,10.6666667 C4.09333333,10.6666667 2,12.76 2,15.3333333 C2,17.906 4.09333333,20 6.66666667,20 C9.24,20 11.3333333,17.906 11.3333333,15.3333333 C11.3333333,12.76 9.24,10.6666667 6.66666667,10.6666667 L6.66666667,10.6666667 Z M6.66666667,18.6666667 C4.82866667,18.6666667 3.33333333,17.1713333 3.33333333,15.3333333 C3.33333333,13.4953333 4.82866667,12 6.66666667,12 C8.50466667,12 10,13.4953333 10,15.3333333 C10,17.1713333 8.50466667,18.6666667 6.66666667,18.6666667 L6.66666667,18.6666667 Z M31.3333333,13.3333333 C30.2306667,13.3333333 29.3333333,14.23 29.3333333,15.3333333 C29.3333333,16.436 30.2306667,17.3333333 31.3333333,17.3333333 C32.436,17.3333333 33.3333333,16.436 33.3333333,15.3333333 C33.3333333,14.23 32.436,13.3333333 31.3333333,13.3333333 L31.3333333,13.3333333 Z M31.3333333,16 C30.966,16 30.6666667,15.7006667 30.6666667,15.3333333 C30.6666667,14.9653333 30.966,14.6666667 31.3333333,14.6666667 C31.7006667,14.6666667 32,14.9653333 32,15.3333333 C32,15.7006667 31.7006667,16 31.3333333,16 L31.3333333,16 Z M6.66666667,13.3333333 C5.564,13.3333333 4.66666667,14.23 4.66666667,15.3333333 C4.66666667,16.436 5.564,17.3333333 6.66666667,17.3333333 C7.76933333,17.3333333 8.66666667,16.436 8.66666667,15.3333333 C8.66666667,14.23 7.76933333,13.3333333 6.66666667,13.3333333 L6.66666667,13.3333333 Z M6.66666667,16 C6.29933333,16 6,15.7006667 6,15.3333333 C6,14.9653333 6.29933333,14.6666667 6.66666667,14.6666667 C7.034,14.6666667 7.33333333,14.9653333 7.33333333,15.3333333 C7.33333333,15.7006667 7.034,16 6.66666667,16 L6.66666667,16 Z M12.6666667,13.3333333 L12.6666667,8.66666667 C12.6666667,8.298 12.9653333,8 13.3333333,8 C13.7013333,8 14,8.298 14,8.66666667 L14,13.3333333 C14,13.7013333 13.7013333,14 13.3333333,14 C12.9653333,14 12.6666667,13.7013333 12.6666667,13.3333333 L12.6666667,13.3333333 Z M28.276,10 L22.4713333,15.8046667 C22.3466667,15.9293333 22.1766667,16 22,16 L13.3333333,16 C12.9653333,16 12.6666667,15.7013333 12.6666667,15.3333333 C12.6666667,14.9646667 12.9653333,14.6666667 13.3333333,14.6666667 L21.724,14.6666667 L27.5286667,8.862 C27.6533333,8.73666667 27.8233333,8.66666667 28,8.66666667 L32,8.66666667 L32,7.33333333 L6.276,7.33333333 L1.33333333,12.276 L1.33333333,15.3333333 C1.33333333,15.7013333 1.03466667,16 0.666666667,16 C0.298666667,16 0,15.7013333 0,15.3333333 L0,12 C0,11.8226667 0.07,11.6533333 0.195333333,11.5286667 L5.52866667,6.19533333 C5.65333333,6.07 5.82333333,6 6,6 L8.66666667,6 L8.66666667,0.666666667 C8.66666667,0.298 8.96533333,0 9.33333333,0 L21.3333333,0 C21.7013333,0 22,0.298 22,0.666666667 C22,1.03466667 21.7013333,1.33333333 21.3333333,1.33333333 L20.6666667,1.33333333 L20.6666667,4.66666667 C20.6666667,5.03466667 20.368,5.33333333 20,5.33333333 C19.632,5.33333333 19.3333333,5.03466667 19.3333333,4.66666667 L19.3333333,1.33333333 L14,1.33333333 L14,4.66666667 C14,5.03466667 13.7013333,5.33333333 13.3333333,5.33333333 C12.9653333,5.33333333 12.6666667,5.03466667 12.6666667,4.66666667 L12.6666667,1.33333333 L10,1.33333333 L10,6 L32.6666667,6 C33.0346667,6 33.3333333,6.298 33.3333333,6.66666667 L33.3333333,8.66666667 L35.3333333,8.66666667 C35.7013333,8.66666667 36,8.96466667 36,9.33333333 C36,9.70133333 35.7013333,10 35.3333333,10 L28.276,10 L28.276,10 Z"></path>
                </g>
            </g>
        </g>
    </g>
</svg>