<?xml version="1.0" encoding="UTF-8" standalone="no"?>
<svg width="40px" height="40px" viewBox="0 0 40 40" version="1.1" xmlns="http://www.w3.org/2000/svg" xmlns:xlink="http://www.w3.org/1999/xlink">
    <!-- Generator: Sketch 46.1 (44463) - http://www.bohemiancoding.com/sketch -->
    <title>roadroller</title>
    <desc>Created with Sketch.</desc>
    <defs></defs>
    <g id="Icons" stroke="none" stroke-width="1" fill="none" fill-rule="evenodd">
        <g id="Automotive" transform="translate(-179.000000, -1256.000000)" fill="#231F20">
            <g id="Road-Roller" transform="translate(182.000000, 1265.000000)">
                <g>
                    <path d="M5.46428571,14.5263158 C3.12071429,14.5263158 1.21428571,16.4268421 1.21428571,18.7631579 C1.21428571,21.0988684 3.12071429,23 5.46428571,23 C7.80785714,23 9.71428571,21.0988684 9.71428571,18.7631579 C9.71428571,16.4268421 7.80785714,14.5263158 5.46428571,14.5263158 L5.46428571,14.5263158 Z M5.46428571,21.7894737 C3.79039286,21.7894737 2.42857143,20.4318684 2.42857143,18.7631579 C2.42857143,17.0944474 3.79039286,15.7368421 5.46428571,15.7368421 C7.13817857,15.7368421 8.5,17.0944474 8.5,18.7631579 C8.5,20.4318684 7.13817857,21.7894737 5.46428571,21.7894737 L5.46428571,21.7894737 Z M23.6785714,15.7368421 C23.6785714,15.0680263 24.2219643,14.5263158 24.8928571,14.5263158 C25.56375,14.5263158 26.1071429,15.0680263 26.1071429,15.7368421 C26.1071429,16.4056579 25.56375,16.9473684 24.8928571,16.9473684 C24.2219643,16.9473684 23.6785714,16.4056579 23.6785714,15.7368421 L23.6785714,15.7368421 Z M6.67857143,18.7631579 C6.67857143,19.4319737 6.13517857,19.9736842 5.46428571,19.9736842 C4.794,19.9736842 4.25,19.4319737 4.25,18.7631579 C4.25,18.0949474 4.794,17.5526316 5.46428571,17.5526316 C6.13517857,17.5526316 6.67857143,18.0949474 6.67857143,18.7631579 L6.67857143,18.7631579 Z M10.3214286,13.3157895 C10.1034643,13.3157895 9.9025,13.1989737 9.79442857,13.0107368 L7.67003571,9.30410526 L1.21428571,13.0579474 L1.21428571,15.7368421 C1.21428571,16.0709474 0.942285714,16.3421053 0.607142857,16.3421053 C0.272,16.3421053 0,16.0709474 0,15.7368421 L0,12.7105263 C0,12.4950526 0.11475,12.2959211 0.301142857,12.1869737 L7.38225,8.06936842 L9.741,0.427315789 C9.81932143,0.173105263 10.0548929,0 10.3214286,0 L18.2142857,0 C18.5494286,0 18.8214286,0.270552632 18.8214286,0.605263158 L18.8214286,8.47368421 C18.8214286,8.80778947 18.5494286,9.07894737 18.2142857,9.07894737 C17.8791429,9.07894737 17.6071429,8.80778947 17.6071429,8.47368421 L17.6071429,1.21052632 L10.7701071,1.21052632 L8.55039286,8.40105263 L10.6735714,12.1052632 L13.3571429,12.1052632 L13.3571429,3.02631579 C13.3571429,2.69160526 13.6291429,2.42105263 13.9642857,2.42105263 C14.2994286,2.42105263 14.5714286,2.69160526 14.5714286,3.02631579 L14.5714286,12.7105263 C14.5714286,13.0446316 14.2994286,13.3157895 13.9642857,13.3157895 L10.3214286,13.3157895 L10.3214286,13.3157895 Z M33.3928571,12.1052632 L17.6071429,12.1052632 C17.3940357,12.1052632 17.1961071,12.2166316 17.0862143,12.3988158 L15.4420714,15.1315789 L10.9285714,15.1315789 C10.5934286,15.1315789 10.3214286,15.4021316 10.3214286,15.7368421 C10.3214286,16.0709474 10.5934286,16.3421053 10.9285714,16.3421053 L15.4420714,16.3421053 L17.0862143,19.0742632 C17.1961071,19.2564474 17.3940357,19.3684211 17.6071429,19.3684211 L33.3928571,19.3684211 C33.728,19.3684211 34,19.0972632 34,18.7631579 L34,12.7105263 C34,12.3758158 33.728,12.1052632 33.3928571,12.1052632 L33.3928571,12.1052632 Z M32.7857143,18.1578947 L17.9507857,18.1578947 L16.4936429,15.7368421 L17.9507857,13.3157895 L32.7857143,13.3157895 L32.7857143,18.1578947 L32.7857143,18.1578947 Z M19.8766429,11.3093421 C19.6465357,11.0660263 19.6580714,10.6828947 19.9021429,10.4541053 C21.26275,9.177 23.035,8.47368421 24.8928571,8.47368421 C26.7507143,8.47368421 28.5229643,9.177 29.8835714,10.4541053 C30.1270357,10.6828947 30.1391786,11.0660263 29.9090714,11.3093421 C29.7894643,11.4358421 29.6285714,11.5 29.4670714,11.5 C29.3177143,11.5 29.1683571,11.4455263 29.0511786,11.3347632 C27.9164286,10.2701053 26.4398571,9.68421053 24.8928571,9.68421053 C23.3458571,9.68421053 21.8686786,10.2701053 20.7345357,11.3347632 C20.4910714,11.5647632 20.10675,11.5532632 19.8766429,11.3093421 L19.8766429,11.3093421 Z M29.9090714,20.1637368 C30.1391786,20.4070526 30.1276429,20.7895789 29.8835714,21.0189737 C28.5235714,22.2966842 26.7513214,23 24.8928571,23 C23.0343929,23 21.2615357,22.2966842 19.9021429,21.0189737 C19.6580714,20.7895789 19.6465357,20.4070526 19.8766429,20.1637368 C20.10675,19.9198158 20.4910714,19.9083158 20.7345357,20.1383158 C21.8686786,21.2029737 23.34525,21.7894737 24.8928571,21.7894737 C26.4404643,21.7894737 27.9170357,21.2029737 29.0511786,20.1383158 C29.2946429,19.9083158 29.6789643,19.9198158 29.9090714,20.1637368 L29.9090714,20.1637368 Z"></path>
                </g>
            </g>
        </g>
    </g>
</svg>