<?xml version="1.0" encoding="UTF-8" standalone="no"?>
<svg width="40px" height="40px" viewBox="0 0 40 40" version="1.1" xmlns="http://www.w3.org/2000/svg" xmlns:xlink="http://www.w3.org/1999/xlink">
    <!-- Generator: Sketch 46.1 (44463) - http://www.bohemiancoding.com/sketch -->
    <title>roadlanes</title>
    <desc>Created with Sketch.</desc>
    <defs></defs>
    <g id="Icons" stroke="none" stroke-width="1" fill="none" fill-rule="evenodd">
        <g id="Automotive" transform="translate(-352.000000, -1335.000000)" fill="#231F20">
            <g id="Road-Lanes" transform="translate(358.000000, 1340.000000)">
                <g>
                    <path d="M15.2328069,24.2857143 L15.2328069,27.1428571 C15.2328069,27.5371429 14.9080069,27.8571429 14.5078069,27.8571429 C14.1076069,27.8571429 13.7828069,27.5371429 13.7828069,27.1428571 L13.7828069,24.2857143 C13.7828069,23.8907143 14.1076069,23.5714286 14.5078069,23.5714286 C14.9080069,23.5714286 15.2328069,23.8907143 15.2328069,24.2857143 L15.2328069,24.2857143 Z M14.5078069,16.4285714 C14.1076069,16.4285714 13.7828069,16.7478571 13.7828069,17.1428571 L13.7828069,20 C13.7828069,20.3942857 14.1076069,20.7142857 14.5078069,20.7142857 C14.9080069,20.7142857 15.2328069,20.3942857 15.2328069,20 L15.2328069,17.1428571 C15.2328069,16.7478571 14.9080069,16.4285714 14.5078069,16.4285714 L14.5078069,16.4285714 Z M14.5078069,9.28571429 C14.1076069,9.28571429 13.7828069,9.605 13.7828069,10 L13.7828069,12.8571429 C13.7828069,13.2514286 14.1076069,13.5714286 14.5078069,13.5714286 C14.9080069,13.5714286 15.2328069,13.2514286 15.2328069,12.8571429 L15.2328069,10 C15.2328069,9.605 14.9080069,9.28571429 14.5078069,9.28571429 L14.5078069,9.28571429 Z M14.5078069,2.14285714 C14.1076069,2.14285714 13.7828069,2.46214286 13.7828069,2.85714286 L13.7828069,5.71428571 C13.7828069,6.10857143 14.1076069,6.42857143 14.5078069,6.42857143 C14.9080069,6.42857143 15.2328069,6.10857143 15.2328069,5.71428571 L15.2328069,2.85714286 C15.2328069,2.46214286 14.9080069,2.14285714 14.5078069,2.14285714 L14.5078069,2.14285714 Z M28.5510569,29.1721429 C28.1341819,29.6985714 27.5070569,30 26.8299069,30 L2.18135691,30 C1.50348191,30 0.876356907,29.6985714 0.460206907,29.1735714 C0.046231907,28.6492857 -0.098043093,27.9807143 0.066531907,27.3371429 L6.61400691,1.62285714 C6.85688191,0.667142857 7.72615691,0 8.72883191,0 L20.2817069,0 C21.2843819,0 22.1536569,0.667142857 22.3972569,1.62285714 L28.9447319,27.3371429 C29.1085819,27.9807143 28.9650319,28.6492857 28.5510569,29.1721429 L28.5510569,29.1721429 Z M27.5382319,27.6842857 L20.9907569,1.97 C20.9095569,1.65071429 20.6181069,1.42857143 20.2817069,1.42857143 L8.72883191,1.42857143 C8.39243191,1.42857143 8.10170691,1.65071429 8.02050691,1.97 L1.47230691,27.6842857 C1.41865691,27.8978571 1.46650691,28.1207143 1.60353191,28.2942857 C1.74345691,28.47 1.95298191,28.5714286 2.18135691,28.5714286 L26.8299069,28.5714286 C27.0568319,28.5714286 27.2678069,28.47 27.4070069,28.2942857 C27.5447569,28.1207143 27.5926069,27.8978571 27.5382319,27.6842857 L27.5382319,27.6842857 Z"></path>
                </g>
            </g>
        </g>
    </g>
</svg>