<?xml version="1.0" encoding="UTF-8" standalone="no"?>
<svg width="40px" height="40px" viewBox="0 0 40 40" version="1.1" xmlns="http://www.w3.org/2000/svg" xmlns:xlink="http://www.w3.org/1999/xlink">
    <!-- Generator: Sketch 46.1 (44463) - http://www.bohemiancoding.com/sketch -->
    <title>robota</title>
    <desc>Created with Sketch.</desc>
    <defs></defs>
    <g id="Page-1" stroke="none" stroke-width="1" fill="none" fill-rule="evenodd">
        <g id="Star-Wars-Icons" transform="translate(-303.000000, -332.000000)" fill="#244356">
            <g id="Group" transform="translate(310.000000, 339.000000)">
                <path d="M3,23 C2.44856667,23 2,22.5514333 2,22 C2,21.4485667 2.44856667,21 3,21 C3.55143333,21 4,21.4485667 4,22 C4,22.5514333 3.55143,23 3,23 L3,23 Z M3,21.6666667 C2.81624333,21.6666667 2.66666667,21.81608 2.66666667,22 C2.66666667,22.18392 2.81624333,22.3333333 3,22.3333333 C3.18375667,22.3333333 3.33333333,22.18392 3.33333333,22 C3.33333333,21.81608 3.18375333,21.6666667 3,21.6666667 L3,21.6666667 Z" id="Shape"></path>
                <path d="M6,4 C5.44856667,4 5,3.55143333 5,3 C5,2.44856667 5.44856667,2 6,2 C6.55143333,2 7,2.44856667 7,3 C7,3.55143333 6.55143,4 6,4 L6,4 Z M6,2.66666667 C5.81624333,2.66666667 5.66666667,2.81608 5.66666667,3 C5.66666667,3.18392 5.81624333,3.33333333 6,3.33333333 C6.18375667,3.33333333 6.33333333,3.18392 6.33333333,3 C6.33333333,2.81608 6.18375333,2.66666667 6,2.66666667 L6,2.66666667 Z" id="Shape"></path>
                <path d="M25,4 C24.4485667,4 24,3.55143333 24,3 C24,2.44856667 24.4485667,2 25,2 C25.5514333,2 26,2.44856667 26,3 C26,3.55143333 25.5514333,4 25,4 L25,4 Z M25,2.66666667 C24.8162433,2.66666667 24.6666667,2.81608 24.6666667,3 C24.6666667,3.18392 24.8162433,3.33333333 25,3.33333333 C25.1837567,3.33333333 25.3333333,3.18392 25.3333333,3 C25.3333333,2.81608 25.1837567,2.66666667 25,2.66666667 L25,2.66666667 Z" id="Shape"></path>
                <path d="M8.65176896,11.5225611 C8.46174574,11.5225611 8.27695811,11.4236922 8.17523642,11.2466994 C8.02345915,10.9826914 8.11350313,10.6454064 8.37639593,10.4929293 L20.2769378,3.59638657 C20.5396932,3.44444746 20.8762581,3.53442528 21.027766,3.79843321 C21.1795433,4.06244114 21.0894966,4.39972622 20.8266065,4.55220326 L8.92606463,11.448746 C8.8395083,11.4988535 8.74503399,11.5225611 8.65176896,11.5225611 L8.65176896,11.5225611 Z" id="Shape"></path>
                <path d="M17.6413869,22 C17.5340061,22 17.4269016,21.9690135 17.3338292,21.9070404 L15.2506917,20.5233223 C14.9934154,20.3524822 14.9225575,20.0042227 15.0924852,19.7453567 C15.2622762,19.4864906 15.6088071,19.4149197 15.8658099,19.586035 L17.6610116,20.7786222 L22.8640134,17.7558834 L22.7351045,15.59557 C22.7167077,15.2859742 22.9512252,15.0197062 23.2589197,15.0013333 C23.5644346,14.9799446 23.8309735,15.2185171 23.849507,15.5281129 L23.9989923,18.0350402 C24.0116652,18.2475627 23.9040137,18.448839 23.7208689,18.5552378 L17.9204647,21.9248657 C17.8339339,21.9750451 17.7375934,22 17.6413869,22 L17.6413869,22 Z" id="Shape"></path>
                <path d="M20.4243921,22.3258702 C19.7434372,22.3258702 19.0668843,22.0815324 18.5266778,21.6053913 C18.304094,21.4093349 18.278069,21.0644326 18.4685392,20.8352981 C18.6588794,20.6056309 18.9935958,20.5794908 19.2163069,20.7752796 C19.8128382,21.3010322 20.6710572,21.3829243 21.3517522,20.9777386 C22.0320601,20.5733532 22.3926716,19.7675187 22.249205,18.9723506 C22.1955983,18.6757298 22.3856813,18.3905811 22.6736539,18.3356322 C22.9609795,18.2788149 23.2383315,18.4759394 23.2920681,18.7728279 C23.51763,20.0219931 22.9510086,21.2884975 21.8821205,21.9241507 C21.4289284,22.1935662 20.9254948,22.3258702 20.4243921,22.3258702 L20.4243921,22.3258702 Z" id="Shape"></path>
                <path d="M9.89596659,5 C9.33168319,5 8.76808822,4.83556541 8.26883002,4.50728466 C8.00335726,4.33253594 7.92042453,3.96093465 8.08367453,3.67685859 C8.24665086,3.39277952 8.59422969,3.30466887 8.8598407,3.47882915 C9.47964394,3.88638203 10.2548452,3.89758031 10.8834625,3.50947581 C11.5123564,3.12137433 11.8905222,2.39732741 11.8708202,1.62024029 C11.8622798,1.28695034 12.1079124,1.00964878 12.419535,1.00051453 C12.7211022,0.986663781 12.9904318,1.25423965 12.998834,1.58723689 C13.0299684,2.80782848 12.4356538,3.9450259 11.4477431,4.55473025 C10.96681,4.85176987 10.4311837,5 9.89596659,5 L9.89596659,5 Z" id="Shape"></path>
                <path d="M13.2440037,6.77358351 C13.0674051,6.77358351 12.8956722,6.67260122 12.8011368,6.4918249 L12.0348826,5.02772548 C11.9671611,4.89840392 11.9487046,4.7445919 11.9838731,4.60013426 C12.018919,4.45567662 12.1044738,4.33268336 12.2218308,4.25784264 L14.4339148,2.84904961 C14.6781072,2.69358648 14.990647,2.78603994 15.1316991,3.05541525 L15.8979533,4.51951467 C15.9656748,4.64883623 15.9841313,4.80264826 15.9489628,4.94710589 C15.9139169,5.09156353 15.8283621,5.21455679 15.7110051,5.28939752 L13.4989211,6.69819054 C13.4184798,6.74936917 13.3306798,6.77358351 13.2440037,6.77358351 L13.2440037,6.77358351 Z M13.1750357,4.95233251 L13.4304538,5.44018345 L14.7578053,4.59490764 L14.5023872,4.1070567 L13.1750357,4.95233251 L13.1750357,4.95233251 Z" id="Shape"></path>
                <path d="M8.12057236,10.0922593 C7.93067206,10.0922593 7.74613854,9.98581216 7.64434807,9.79525267 C7.49266898,9.51129943 7.58265746,9.14787018 7.84537746,8.98370567 L11.0028569,7.01226443 L10.7282003,6.49801221 L8.12660381,8.1222675 C7.86374924,8.28585284 7.52793763,8.18897817 7.37626129,7.90473386 C7.22458494,7.62048956 7.31457067,7.25735137 7.57729067,7.09318687 L10.6545731,5.1719249 C10.780635,5.09303399 10.9303036,5.07156931 11.0713864,5.11275523 C11.2120683,5.15336198 11.3320959,5.25313841 11.4049184,5.38945854 L12.2288881,6.93279138 C12.3805672,7.21703568 12.2905787,7.58017387 12.0278587,7.74433838 L8.39469335,10.0127863 C8.30819301,10.0667346 8.21377706,10.0922593 8.12057236,10.0922593 L8.12057236,10.0922593 Z" id="Shape"></path>
                <path d="M14.3576425,21 C14.166725,21 13.9809845,20.9054704 13.8768713,20.7353716 L12.5497115,18.5699052 C12.3925886,18.3137027 12.4803474,17.9829853 12.7455354,17.8313184 C13.0112676,17.6796515 13.3534473,17.7647009 13.5101627,18.0206391 L14.5560563,19.7271547 L25.6793183,13.5225034 L20.0975875,4.1823511 C19.240295,2.74783562 17.8560369,1.72171261 16.1999151,1.29277972 C14.5440639,0.864901091 12.8139479,1.08423705 11.3291182,1.91261338 C9.84429127,2.74072547 8.78204604,4.07807976 8.3383403,5.67795396 C7.89463457,7.27809239 8.12234686,8.94932419 8.97963931,10.3838397 L11.9197239,15.3037982 C12.0738494,15.5618422 11.9824095,15.8915081 11.7154521,16.0405407 C11.4484947,16.1890476 11.1069932,16.1008381 10.9530072,15.8430583 L8.0129226,10.9230998 C7.00641095,9.23922773 6.73904326,7.27730238 7.2600141,5.39884371 C7.78098494,3.52064928 9.02788221,1.9507903 10.7709479,0.978385685 C12.5140136,0.00624261013 14.545158,-0.252065679 16.4889511,0.251120626 C18.4330177,0.754306931 20.0579348,1.958952 21.064307,3.64308829 L26.9251243,13.4503558 C27.0792498,13.7083998 26.9878099,14.0380657 26.7208525,14.1870983 L14.6361876,20.9278497 C14.5482865,20.9768307 14.4523505,21 14.3576425,21 L14.3576425,21 Z" id="Shape"></path>
                <path d="M25.6185339,26.9885015 L17.7435548,26.9885015 C17.5626919,26.9885015 17.3929552,26.911354 17.2872111,26.780739 C17.181467,26.650369 17.1527655,26.4828865 17.2098956,26.330299 L18.3348926,23.330299 C18.4115218,23.1261965 18.6264412,22.9885015 18.8685519,22.9885015 L24.4935369,22.9885015 C24.7356475,22.9885015 24.9505669,23.1261965 25.0271961,23.330299 L26.1521931,26.330299 C26.2093204,26.4828865 26.1806189,26.6503665 26.0748777,26.780739 C25.9691364,26.911354 25.7993968,26.9885015 25.6185339,26.9885015 L25.6185339,26.9885015 Z M18.5239962,25.9885015 L24.8380981,25.9885015 L24.088147,23.9885015 L19.2739501,23.9885015 L18.5239962,25.9885015 L18.5239962,25.9885015 Z" id="Shape"></path>
                <path d="M12.437488,27 L4.56251108,27 C4.38164824,27 4.21191161,26.9228525 4.10616758,26.7922375 C4.00042355,26.6618675 3.97172209,26.494385 4.02885221,26.3417975 L5.15384851,23.3417975 C5.23048045,23.137695 5.44539974,23 5.68751019,23 L11.3124945,23 C11.554605,23 11.7695243,23.137695 11.8461534,23.3417975 L12.9711497,26.3417975 C13.028277,26.494385 12.9995755,26.661865 12.8938343,26.7922375 C12.7880903,26.9228525 12.6183508,27 12.437488,27 L12.437488,27 Z M5.34295195,26 L11.6570499,26 L10.9070993,24 L6.09290261,24 L5.34295195,26 L5.34295195,26 Z" id="Shape"></path>
                <path d="M22.4950645,23.4412537 C22.218942,23.4412537 21.9950645,23.2284921 21.9950645,22.9660795 L21.9950645,20.9164278 C21.9950645,20.6540153 22.218942,20.4412537 22.4950645,20.4412537 C22.771187,20.4412537 22.9950645,20.6540153 22.9950645,20.9164278 L22.9950645,22.9660795 C22.9950645,23.2284921 22.7711895,23.4412537 22.4950645,23.4412537 L22.4950645,23.4412537 Z" id="Shape"></path>
                <path d="M20.5677784,23.5151162 C20.2916559,23.5151162 20.0677784,23.323415 20.0677784,23.0869776 L20.0677784,21.9432547 C20.0677784,21.7068174 20.2916559,21.5151162 20.5677784,21.5151162 C20.8439009,21.5151162 21.0677784,21.7068174 21.0677784,21.9432547 L21.0677784,23.0869776 C21.0677784,23.323415 20.8439034,23.5151162 20.5677784,23.5151162 L20.5677784,23.5151162 Z" id="Shape"></path>
                <path d="M16,13 C15.46568,13 14.9634486,12.7918514 14.5856571,12.4140629 C14.2080057,12.0365514 14,11.53432 14,11 C14,10.46568 14.2080086,9.96344857 14.5857971,9.58593714 C14.9634486,9.20814571 15.46568,9 16,9 C16.53418,9 17.0364114,9.20814857 17.4142029,9.58593714 L17.4142029,9.58593714 C17.7919943,9.96344857 18,10.46568 18,11 C18,11.53432 17.7919914,12.0365514 17.4142029,12.4140629 C17.0365514,12.7918514 16.53432,13 16,13 L16,13 Z M16,10.1428571 C15.7710657,10.1428571 15.5558029,10.2321429 15.3939743,10.3939743 C15.2320057,10.5558057 15.1428571,10.7712057 15.1428571,11 C15.1428571,11.2287943 15.2320029,11.4441971 15.3938343,11.6060257 C15.7177743,11.9296857 16.2823657,11.9296857 16.6060286,11.6060257 C16.7679971,11.4441943 16.8571457,11.2287943 16.8571457,11 C16.8571457,10.7712057 16.768,10.5558029 16.6061686,10.3939743 C16.6061686,10.3939743 16.6061686,10.3939743 16.6060286,10.3939743 C16.4441971,10.2321429 16.2289343,10.1428571 16,10.1428571 L16,10.1428571 Z" id="Shape"></path>
                <path d="M2,12 C0.897182857,12 0,11.10268 0,10 C0,8.89732 0.897182857,8 2,8 C3.10281714,8 4,8.89732 4,10 C4,11.10268 3.10281714,12 2,12 L2,12 Z M2,9.14285714 C1.52734286,9.14285714 1.14285714,9.52734286 1.14285714,10 C1.14285714,10.4726571 1.52734286,10.8571429 2,10.8571429 C2.47265714,10.8571429 2.85714286,10.4726571 2.85714286,10 C2.85714286,9.52734286 2.47265429,9.14285714 2,9.14285714 L2,9.14285714 Z" id="Shape"></path>
                <path d="M4.44444444,17 C4.19900222,17 4,16.8009978 4,16.5555556 C4,16.3101133 4.19900222,16.1111111 4.44444444,16.1111111 C4.81206667,16.1111111 5.11111111,15.8120667 5.11111111,15.4444444 C5.11111111,15.1990022 5.31011333,15 5.55555556,15 C5.80099778,15 6,15.1990022 6,15.4444444 C6,16.3020844 5.30219111,17 4.44444444,17 L4.44444444,17 Z" id="Shape"></path>
                <path d="M6.83855493,17 C5.98080699,17 5.28299888,16.3020844 5.28299888,15.4444444 C5.28299888,15.1990022 5.48200088,15 5.72744283,15 C5.97288478,15 6.17188678,15.1990022 6.17188678,15.4444444 C6.17188678,15.8120667 6.47093089,16.1111111 6.83855493,16.1111111 C7.08399687,16.1111111 7.28299888,16.3101133 7.28299888,16.5555556 C7.28299888,16.8009978 7.0839991,17 6.83855493,17 L6.83855493,17 Z" id="Shape"></path>
                <path d="M5.55555556,18 C5.31011333,18 5.11111111,17.8009978 5.11111111,17.5555556 C5.11111111,17.1879333 4.81206667,16.8888889 4.44444444,16.8888889 C4.19900222,16.8888889 4,16.6898867 4,16.4444444 C4,16.1990022 4.19900222,16 4.44444444,16 C5.30219111,16 6,16.6979156 6,17.5555556 C6,17.8009978 5.80099778,18 5.55555556,18 L5.55555556,18 Z" id="Shape"></path>
                <path d="M5.68494698,18.0057518 C5.43950503,18.0057518 5.24050303,17.8067496 5.24050303,17.5613073 C5.24050303,16.7036673 5.93831114,16.0057518 6.79605908,16.0057518 C7.04150102,16.0057518 7.24050303,16.204754 7.24050303,16.4501962 C7.24050303,16.6956384 7.04150102,16.8946407 6.79605908,16.8946407 C6.42843726,16.8946407 6.12939093,17.1936851 6.12939093,17.5613073 C6.12939093,17.8067496 5.93038893,18.0057518 5.68494698,18.0057518 L5.68494698,18.0057518 Z" id="Shape"></path>
                <path d="M7.53779634,24 C7.44988788,24 7.36066615,23.9778426 7.27814533,23.9310985 C7.01796686,23.7832959 6.92348935,23.4466188 7.06711228,23.179117 L13.9904674,10.2859816 C14.1340903,10.0187483 14.4612833,9.92120378 14.7218547,10.0690064 C14.9820331,10.216809 15.0765107,10.5534861 14.9328877,10.8209878 L8.00953533,23.7141233 C7.91137635,23.8967806 7.72741069,24 7.53779634,24 L7.53779634,24 Z" id="Shape"></path>
                <path d="M10.1453418,23.8466938 C10.0599393,23.8466938 9.97327721,23.8249381 9.89353405,23.7785754 C9.64537381,23.6350876 9.55732842,23.311854 9.69669155,23.0564789 L15.6661151,12.1175594 C15.8056019,11.8621843 16.1199224,11.7710158 16.3675778,11.9150209 C16.615738,12.0585087 16.7037834,12.3817423 16.5644203,12.6371174 L10.5949967,23.5760369 C10.5004136,23.7493087 10.3255824,23.8466938 10.1453418,23.8466938 L10.1453418,23.8466938 Z" id="Shape"></path>
                <path d="M15.868271,14.9999874 C15.7607918,15.0002556 15.653023,14.9962462 15.5451125,14.9884956 C15.2196464,14.9649755 14.9765544,14.7014522 15.0018014,14.4002459 C15.0271932,14.0985032 15.3115431,13.872931 15.6368644,13.8969847 C16.22562,13.9400154 16.8075919,13.8189422 17.322338,13.5484702 C18.7393308,12.8036019 19.238063,11.1299882 18.4340624,9.81744825 C18.2730607,9.55445857 18.3726039,9.22037789 18.6565225,9.07124441 C18.9402963,8.92237639 19.3009633,9.01431632 19.4621097,9.27703778 C20.5875375,11.1147525 19.8892847,13.458134 17.9054681,14.5004701 C17.2794905,14.829474 16.5809511,14.9999874 15.868271,14.9999874 L15.868271,14.9999874 Z" id="Shape"></path>
            </g>
        </g>
    </g>
</svg>