<?xml version="1.0" encoding="UTF-8" standalone="no"?>
<svg width="40px" height="40px" viewBox="0 0 40 40" version="1.1" xmlns="http://www.w3.org/2000/svg" xmlns:xlink="http://www.w3.org/1999/xlink">
    <!-- Generator: Sketch 46.1 (44463) - http://www.bohemiancoding.com/sketch -->
    <title>robotb</title>
    <desc>Created with Sketch.</desc>
    <defs></defs>
    <g id="Page-1" stroke="none" stroke-width="1" fill="none" fill-rule="evenodd">
        <g id="Star-Wars-Icons" transform="translate(-443.000000, -332.000000)" fill="#244356">
            <g id="Group" transform="translate(450.000000, 338.000000)">
                <path d="M3.35162909,12.064072 C3.1589459,12.064072 2.97170816,11.9664496 2.86828945,11.7916879 C1.80037353,9.98368335 1.51651969,7.87749442 2.06952971,5.86094713 C2.62226662,3.84439984 3.94546038,2.15875576 5.79526186,1.11497138 C7.64479303,0.0709200768 9.79967553,-0.207050709 11.8631171,0.334261108 C13.9262855,0.874507902 15.6509004,2.16780163 16.7188163,3.97580342 C16.8725817,4.23648326 16.781411,4.56951651 16.5147044,4.72007142 C16.2469082,4.87036212 15.9072651,4.78072048 15.7532295,4.52057179 C14.8341797,2.9644709 13.3501449,1.85152546 11.5746399,1.38655748 C9.79967832,0.921322572 7.9447045,1.15992567 6.35262767,2.05873901 C4.76055085,2.95702119 3.62187491,4.40752146 3.14615721,6.14290562 C2.67043951,7.87828978 2.91455894,9.69108281 3.83387908,11.2469168 C3.9876444,11.5073297 3.89647374,11.8406298 3.62976717,11.9911848 C3.54213298,12.0406633 3.44606311,12.064072 3.35162909,12.064072 L3.35162909,12.064072 Z" id="Shape"></path>
                <path d="M5.58991425,13 C5.54147066,13 5.49302708,12.9938088 5.44567315,12.9811564 L3.41324137,12.4425034 C3.11577998,12.3636309 2.93942337,12.0613281 3.01916592,11.7673693 C3.09863536,11.4734105 3.40371597,11.298167 3.70172358,11.3775798 L5.51126135,11.8570115 L15.4192273,6.19886198 L15.904201,4.40900482 C15.9839407,4.11504601 16.2882076,3.93953517 16.5867586,4.01921534 C16.88422,4.09808785 17.0605766,4.40039067 16.9808341,4.69434948 L16.4362583,6.70467644 C16.3981567,6.84600358 16.3045357,6.9663315 16.1766254,7.03955038 L5.86859515,12.9262436 C5.78314237,12.9749652 5.68680142,13 5.58991425,13 L5.58991425,13 Z" id="Shape"></path>
                <path d="M9.00468753,9 C8.74432145,9 8.48219493,8.96573279 8.22387722,8.89661354 C7.4500967,8.68925581 6.80342518,8.19283105 6.40306316,7.49929934 C6.00270114,6.80576763 5.89609368,5.99771996 6.10345144,5.2239425 C6.31080919,4.45016505 6.80723398,3.80349059 7.50076575,3.4031286 C8.19400362,3.00247271 9.00205135,2.89615917 9.77612278,3.1035169 C10.5499033,3.31087464 11.1965748,3.80700548 11.5969368,4.5008311 L11.5969368,4.5008311 C11.9972989,5.19436281 12.1039063,6.00241048 11.8965486,6.77618794 C11.6891908,7.54996539 11.192766,8.19663986 10.4992342,8.59700184 C10.0373706,8.86381286 9.52425004,9 9.00468753,9 L9.00468753,9 Z M8.99707292,4.20033768 C8.68545298,4.20033768 8.37793274,4.28204996 8.10057701,4.44225354 C7.68439797,4.68241195 7.38654369,5.0701809 7.26236477,5.53438979 C7.13789194,5.99859868 7.20173885,6.48330912 7.44219118,6.89948813 C7.68234962,7.31566714 8.0701186,7.61352139 8.53432753,7.73770031 C8.99795164,7.86217313 9.48295603,7.79832622 9.89942598,7.55787391 C10.315605,7.31771549 10.6134593,6.92994654 10.7376382,6.46573765 C10.8621111,6.00152876 10.7982642,5.51681832 10.5578118,5.10063931 L10.5578118,5.10063931 C10.3176534,4.68446031 9.9298844,4.38660605 9.46567547,4.26242714 C9.31074422,4.22083923 9.15346771,4.20033768 8.99707292,4.20033768 L8.99707292,4.20033768 Z" id="Shape"></path>
                <path d="M13.0015294,6 C12.6553337,6 12.3185859,5.82083388 12.1336007,5.50028896 C11.8580789,5.02175321 12.0225442,4.40900716 12.4996626,4.13341471 C12.9780815,3.85847607 13.590678,4.02200755 13.8662032,4.49956593 C13.86653,4.49989283 13.8668535,4.5002164 13.8668535,4.5002164 C14.141725,4.97810167 13.9772563,5.59084772 13.5001413,5.86643683 C13.342836,5.95699893 13.1712039,6 13.0015294,6 L13.0015294,6 Z M13.2887735,4.83314027 L12.7113472,5.16671461 C12.8031878,5.3260097 13.0073888,5.38073591 13.1659914,5.28919977 C13.3255744,5.19700983 13.3806108,4.99276226 13.289097,4.83379407 C13.2891003,4.83379074 13.2887735,4.83346717 13.2887735,4.83314027 L13.2887735,4.83314027 Z M12.9992483,4.6663531 C12.9429047,4.6663531 12.8859141,4.68068679 12.8338058,4.71065511 C12.6742228,4.80284505 12.6191864,5.00709262 12.7107002,5.16606081 L13.2887768,4.83313693 C13.2265704,4.72629307 13.1142133,4.6663531 12.9992483,4.6663531 L12.9992483,4.6663531 Z" id="Shape"></path>
                <path d="M17,16 C16.4485667,16 16,15.5514333 16,15 C16,14.4485667 16.4485667,14 17,14 C17.5514333,14 18,14.4485667 18,15 C18,15.5514333 17.5514333,16 17,16 L17,16 Z M17,14.6666667 C16.81608,14.6666667 16.6666667,14.81608 16.6666667,15 C16.6666667,15.18392 16.81608,15.3333333 17,15.3333333 C17.18392,15.3333333 17.3333333,15.18392 17.3333333,15 C17.3333333,14.81608 17.18392,14.6666667 17,14.6666667 L17,14.6666667 Z" id="Shape"></path>
                <path d="M10,22 C9.44856667,22 9,21.5514333 9,21 C9,20.4485667 9.44856667,20 10,20 C10.5514333,20 11,20.4485667 11,21 C11,21.5514333 10.5514333,22 10,22 L10,22 Z M10,20.6666667 C9.81608,20.6666667 9.66666667,20.81608 9.66666667,21 C9.66666667,21.18392 9.81608,21.3333333 10,21.3333333 C10.18392,21.3333333 10.3333333,21.18392 10.3333333,21 C10.3333333,20.81608 10.18392,20.6666667 10,20.6666667 L10,20.6666667 Z" id="Shape"></path>
                <path d="M14.7397696,27.3346263 C8.94991635,27.3346263 4.2397696,22.6218939 4.2397696,16.8288625 C4.2397696,15.174304 4.59560892,13.4190919 5.19171946,12.133601 C5.32391162,11.8488295 5.66118298,11.7257161 5.94552014,11.8574243 C6.2298573,11.9894108 6.35345933,12.3271455 6.22154527,12.6116388 C5.69139176,13.7548845 5.37490473,15.331246 5.37490473,16.8288625 C5.37490473,21.9955091 9.57595757,26.198868 14.7397696,26.198868 C19.9035816,26.198868 24.1046345,21.9955091 24.1046345,16.8288625 C24.1046345,11.8158328 20.1879188,7.70480821 15.1878926,7.46939392 C14.8747315,7.45469721 14.6327973,7.18878213 14.6474831,6.87544915 C14.662447,6.56211616 14.9337614,6.32864402 15.241102,6.33474304 C20.8477728,6.59871881 25.2397696,11.2082987 25.2397696,16.8288596 C25.2397696,22.6218939 20.5296257,27.3346263 14.7397696,27.3346263 L14.7397696,27.3346263 Z" id="Shape"></path>
                <path d="M24.4456602,16.9191591 C24.3566253,16.9191591 24.2662674,16.8957258 24.1830463,16.8460316 C20.6604678,14.7504653 17.8462109,11.6071172 16.0446314,7.75649435 C15.9109464,7.47076146 16.0192682,7.12347751 16.2866382,6.98061106 C16.5545358,6.83718083 16.8792388,6.95350593 17.0126587,7.23923883 C18.7162213,10.8809252 21.3777714,13.8537379 24.7093319,15.835801 C24.9703605,15.991091 25.0644167,16.3431743 24.9188414,16.6221331 C24.8200318,16.8121524 24.6356204,16.9191591 24.4456602,16.9191591 L24.4456602,16.9191591 Z" id="Shape"></path>
                <path d="M13.4283802,27 C13.3438102,27 13.2576393,26.9808259 13.1773365,26.9404083 C12.2609388,26.4784447 11.5958499,25.7845906 11.2538328,24.9337277 C10.8742007,23.9893317 10.9211558,22.9444064 11.389625,21.9114015 C12.0589838,20.4361219 13.4854704,19.1989516 15.3035929,18.516758 C18.4777721,17.3254469 21.827227,18.2644013 22.7697712,20.608938 C22.8836867,20.8921266 22.9599874,21.1895676 22.9962691,21.493225 C23.0312178,21.7841872 22.8167235,22.0476842 22.5168616,22.0816256 C22.2209991,22.1163443 21.9456801,21.9075147 21.9109993,21.6160352 C21.8853881,21.4028014 21.8317646,21.1937118 21.7517294,20.994988 C21.0276817,19.1935101 18.3113011,18.5266037 15.697365,19.5064958 C14.1711029,20.0793518 12.9345648,21.138267 12.3897949,22.3391664 C12.0408443,23.1084142 12.000025,23.871963 12.2718772,24.5476804 C12.515982,25.1552551 13.0031289,25.6568589 13.6804893,25.9983444 C13.9483394,26.1333324 14.0529175,26.4538317 13.9139235,26.713702 C13.8165465,26.8958439 13.6260653,27 13.4283802,27 L13.4283802,27 Z" id="Shape"></path>
                <path d="M7.4556821,19.2740937 C6.53663425,19.2740937 5.64272731,19.1014617 4.79883353,18.7607613 C4.51298166,18.6455825 4.37633816,18.3242147 4.49385174,18.0433842 C4.61109108,17.7625565 4.93848253,17.6275091 5.22406295,17.7437628 C5.9324074,18.0294264 6.68311416,18.174404 7.4556821,18.174404 C10.6959877,18.174404 13.3323407,15.5843873 13.3323407,12.4010331 C13.3323407,11.227513 12.9762544,10.0982884 12.302613,9.13525436 C12.1277125,8.88503097 12.1922074,8.54272231 12.4469046,8.37062637 C12.7016046,8.19906928 13.0503115,8.26216123 13.225212,8.51238187 C14.027569,9.65932523 14.4517015,11.0041358 14.4517015,12.4010303 C14.4517043,16.1908827 11.3133335,19.2740937 7.4556821,19.2740937 L7.4556821,19.2740937 Z" id="Shape"></path>
                <path d="M14.3972134,20 C14.2299592,20 14.0635884,19.9525773 13.9443342,19.8599512 L11.1504954,17.6865562 C10.9305341,17.5152277 10.954385,17.2540979 11.2043814,17.1031506 C11.4540823,16.9522034 11.8351165,16.9689539 12.0556658,17.14008 L14.8495046,19.3134749 C15.0694659,19.4848034 15.045615,19.7459333 14.7956186,19.8968805 C14.6810744,19.9660959 14.5388499,20 14.3972134,20 L14.3972134,20 Z" id="Shape"></path>
                <path d="M20.5892306,19.2703039 C20.5499256,19.2703039 20.5098471,19.2660551 20.4697713,19.2570557 C20.1869202,19.193318 20.0104303,18.918116 20.0761974,18.6426658 L21.0236538,14.6666269 C21.089163,14.3911767 21.3712433,14.2197078 21.6551203,14.2836964 C21.9379714,14.3474341 22.1144613,14.6226361 22.0486942,14.8980863 L21.1012379,18.8741252 C21.0449754,19.1105834 20.8284071,19.2703039 20.5892306,19.2703039 L20.5892306,19.2703039 Z" id="Shape"></path>
                <path d="M13.562452,10.8945058 C13.2982837,10.8945058 13.0627058,10.6962885 13.0104762,10.4100738 C12.9510997,10.0855604 13.1501182,9.7712766 13.4555186,9.70812704 L17.3295167,8.9059026 C17.6340923,8.84187588 17.9301473,9.05412771 17.9895238,9.37922487 C18.0489003,9.70373825 17.8498818,10.0180221 17.5444814,10.0811716 L13.6704833,10.8833961 C13.634197,10.8909971 13.5981866,10.8945058 13.562452,10.8945058 L13.562452,10.8945058 Z" id="Shape"></path>
                <path d="M2.33333333,28 L0.666666667,28 C0.298503333,28 0,27.7761225 0,27.5 C0,27.2238775 0.298503333,27 0.666666667,27 L2.33333333,27 C2.70149667,27 3,27.2238775 3,27.5 C3,27.7761225 2.7015,28 2.33333333,28 L2.33333333,28 Z" id="Shape"></path>
                <path d="M22.4411765,28 L4.55882353,28 C4.25021603,28 4,27.7761225 4,27.5 C4,27.2238775 4.25021603,27 4.55882353,27 L22.4411765,27 C22.749784,27 23,27.2238775 23,27.5 C23,27.7761225 22.7497868,28 22.4411765,28 L22.4411765,28 Z" id="Shape"></path>
                <path d="M26.4545455,28 L24.5454545,28 C24.24423,28 24,27.7761225 24,27.5 C24,27.2238775 24.24423,27 24.5454545,27 L26.4545455,27 C26.75577,27 27,27.2238775 27,27.5 C27,27.7761225 26.7557727,28 26.4545455,28 L26.4545455,28 Z" id="Shape"></path>
                <path d="M7.99339239,15 C6.44755854,15 5.16184312,13.9559446 5.00301998,12.5714834 C4.97109074,12.2923584 5.19597369,12.0425095 5.50563484,12.0137289 C5.81997489,11.9819706 6.09247828,12.1879041 6.12440752,12.4667801 C6.22377486,13.3316983 7.02724271,13.9837344 7.99338957,13.9837344 C9.02944927,13.9837344 9.87255526,13.2240174 9.87255526,12.2901226 C9.87255526,11.7499825 9.58271177,11.2373858 9.09716078,10.9190583 C8.84557713,10.7540651 8.78970097,10.4362331 8.97302066,10.2092095 C9.15579073,9.9824349 9.50839061,9.93206877 9.76052672,10.097311 C10.5364708,10.6059393 11,11.4257023 11,12.2901226 C11.0000028,13.7842516 9.65125477,15 7.99339239,15 L7.99339239,15 Z" id="Shape"></path>
                <path d="M17.5277661,26 C16.9720401,26 16.447659,25.8672045 16.015558,25.6081424 C15.4736011,25.2832259 15.1223538,24.7844263 15.026852,24.2034404 C14.811535,22.8975215 15.9133186,21.5439777 17.5350886,21.122187 C18.4212612,20.8919712 19.3141714,20.9899349 19.984442,21.3918603 C20.5263989,21.7167768 20.8776462,22.2155764 20.973148,22.7962891 L20.973148,22.7962891 C21.188465,24.1024812 20.0866814,25.4560222 18.4649114,25.8778129 C18.1499918,25.9597261 17.8341932,26 17.5277661,26 L17.5277661,26 Z M18.4754587,22.1138062 C18.2774235,22.1138062 18.069138,22.1407465 17.8585067,22.1954436 C16.8454873,22.4591314 16.0920201,23.3013529 16.2127142,24.0349967 C16.2677877,24.3697079 16.4898453,24.5659084 16.6662009,24.6717664 C17.0482081,24.9006224 17.5866493,24.9487878 18.1414963,24.8045619 C19.1545157,24.5408741 19.9079829,23.6986526 19.7872888,22.9650088 C19.7872888,22.9650088 19.7872888,22.9650088 19.7872888,22.9647357 C19.7322153,22.6302948 19.5101577,22.4340943 19.3338021,22.3282391 C19.0968055,22.1861923 18.7994617,22.1138062 18.4754587,22.1138062 L18.4754587,22.1138062 Z" id="Shape"></path>
            </g>
        </g>
    </g>
</svg>