<?xml version="1.0" encoding="UTF-8" standalone="no"?>
<svg width="40px" height="40px" viewBox="0 0 40 40" version="1.1" xmlns="http://www.w3.org/2000/svg" xmlns:xlink="http://www.w3.org/1999/xlink">
    <!-- Generator: Sketch 46.1 (44463) - http://www.bohemiancoding.com/sketch -->
    <title>robotc</title>
    <desc>Created with Sketch.</desc>
    <defs></defs>
    <g id="Page-1" stroke="none" stroke-width="1" fill="none" fill-rule="evenodd">
        <g id="Star-Wars-Icons" transform="translate(-583.000000, -332.000000)" fill="#244356">
            <g id="Group" transform="translate(590.000000, 338.000000)">
                <path d="M3.39021424,20 C3.32384441,20 3.25657855,19.9891682 3.19020872,19.9666233 L1.01901887,19.2247368 C0.796987599,19.1489086 0.639247625,18.9542159 0.613354339,18.7243867 L0.00381370056,13.3279982 C-0.027437448,13.0539636 0.135959063,12.7942744 0.399064232,12.6991211 L2.22798482,12.0368703 C2.54376649,11.9229826 2.89437122,12.0816634 3.01044604,12.3925883 C3.12681954,12.7032194 2.96491031,13.0478148 2.64882996,13.1622872 L1.26813813,13.6623435 L1.78243804,18.2158401 L3.59022586,18.8335916 C3.90809216,18.9425027 4.07654786,19.2841691 3.96612957,19.5968508 C3.87862087,19.844536 3.64260064,20 3.39021424,20 L3.39021424,20 Z" id="Shape"></path>
                <path d="M23.6523866,20.0202806 C23.3919518,20.0202806 23.1501419,19.8554996 23.0666328,19.5976592 C22.9632992,19.2781758 23.1420306,18.9367599 23.4655471,18.8348085 L25.2396278,18.2761549 L25.7571939,13.6821529 L24.3841283,13.1987777 C24.0639154,13.086159 23.8972018,12.738816 24.0113504,12.4231838 C24.1257974,12.1072542 24.4793505,11.9436598 24.7974595,12.0553923 L26.6289129,12.7002891 C26.8977574,12.7948295 27.0650739,13.0591916 27.0335331,13.3389615 L26.4183424,18.8016168 C26.3916093,19.0398979 26.2254955,19.2399464 25.9941961,19.3128516 L23.839826,19.9912375 C23.7776487,20.0107968 23.714567,20.0202806 23.6523866,20.0202806 L23.6523866,20.0202806 Z" id="Shape"></path>
                <path d="M19.1283288,27.0692907 C18.8455815,27.0692907 18.5858934,26.8923433 18.505652,26.6221353 C18.4092969,26.2966319 18.609907,25.9588764 18.9539418,25.8674124 L21.1862323,25.2746944 L21.1795972,22.6125411 C21.1786494,22.2744856 21.4677147,22.0692907 21.8250227,22.0692907 L21.8266014,22.0692907 C22.1832754,22.0692907 22.4726577,22.2720952 22.4736056,22.6095538 L22.4815022,25.775878 C22.4818193,25.9384797 22.4138968,26.0769076 22.2925835,26.1919853 C22.1959114,26.2837462 22.0720715,26.334429 21.9390701,26.3550553 L19.3033499,27.0506814 C19.2449028,27.0662177 19.1861418,27.0692907 19.1283288,27.0692907 L19.1283288,27.0692907 Z" id="Shape"></path>
                <path d="M7.07692574,27.056626 C7.01630368,27.056626 6.95477219,27.0481207 6.89384596,27.030547 L4.15035894,26.2407754 C4.04942047,26.2138459 3.95606171,26.1633861 3.88058754,26.0930825 C3.76419171,25.9839421 3.69750776,25.8362493 3.69750776,25.6823212 L3.69932664,22.6369065 C3.69963082,22.3162924 3.97728299,22.056626 4.32010441,22.056626 L4.3204086,22.056626 C4.66323002,22.0569104 4.94118637,22.3168584 4.94088219,22.6374754 L4.93936749,25.2531356 L7.25940336,25.9210118 C7.5870685,26.0151272 7.77075664,26.3399939 7.66982128,26.646718 C7.58767375,26.8961752 7.34214994,27.056626 7.07692574,27.056626 L7.07692574,27.056626 Z" id="Shape"></path>
                <g id="eyes" transform="translate(4.586996, 10.636256)">
                    <g id="right-eye" transform="translate(10.000000, 0.000000)">
                        <path d="M3.999995,5 C3.44856891,5 3,4.55143333 3,4 C3,3.44856667 3.44856891,3 3.999995,3 C4.55143109,3 5,3.44856667 5,4 C5,4.55143333 4.55143109,5 3.999995,5 L3.999995,5 Z M3.999995,3.66666667 C3.81608408,3.66666667 3.66667,3.81608 3.66667,4 C3.66667,4.18392 3.81608408,4.33333333 3.999995,4.33333333 C4.18391592,4.33333333 4.33333,4.18392 4.33333,4 C4.33333,3.81608 4.18391592,3.66666667 3.999995,3.66666667 L3.999995,3.66666667 Z" id="Shape"></path>
                        <path d="M3.99999571,8 C1.79436478,8 -5.68434189e-14,6.20563714 -5.68434189e-14,4 C-5.68434189e-14,1.79436286 1.79436478,0 3.99999571,0 C6.20563522,0 8,1.79436286 8,4 C8,6.20563714 6.20563522,8 3.99999571,8 L3.99999571,8 Z M3.99999571,1.14285714 C2.42466831,1.14285714 1.14285837,2.42466571 1.14285837,4 C1.14285837,5.57533429 2.42466831,6.85714286 3.99999571,6.85714286 C5.57533169,6.85714286 6.85714163,5.57533429 6.85714163,4 C6.85714163,2.42466571 5.57533169,1.14285714 3.99999571,1.14285714 L3.99999571,1.14285714 Z" id="Shape"></path>
                        <path d="M3.94016027,7.46594357 C3.6640432,7.46594357 3.44016402,7.26694135 3.44016402,7.02149913 L3.44016402,5.91038802 C3.44016402,5.66494579 3.6640432,5.46594357 3.94016027,5.46594357 C4.21628484,5.46594357 4.44016402,5.66494579 4.44016402,5.91038802 L4.44016402,7.02149913 C4.44016402,7.26694135 4.21628484,7.46594357 3.94016027,7.46594357 L3.94016027,7.46594357 Z" id="Shape"></path>
                        <path d="M3.92930083,2.20499322 C3.65318376,2.20499322 3.42930458,2.005991 3.42930458,1.76054878 L3.42930458,0.649437668 C3.42930458,0.403995445 3.65318376,0.204993223 3.92930083,0.204993223 C4.2054254,0.204993223 4.42930458,0.403995445 4.42930458,0.649437668 L4.42930458,1.76054878 C4.42930458,2.005991 4.2054254,2.20499322 3.92930083,2.20499322 L3.92930083,2.20499322 Z" id="Shape"></path>
                        <path d="M5.52214213,7.6917959 C5.24601963,7.6917959 5.02214213,7.43432466 5.02214213,7.11676884 L5.02214213,1.26682297 C5.02214213,0.949267148 5.24601963,0.691795903 5.52214213,0.691795903 C5.79826463,0.691795903 6.02214213,0.949267148 6.02214213,1.26682297 L6.02214213,7.11676884 C6.02214213,7.43432466 5.79826463,7.6917959 5.52214213,7.6917959 L5.52214213,7.6917959 Z" id="Shape"></path>
                        <path d="M2.24836812,7.50055223 C1.97224562,7.50055223 1.74836812,7.24756615 1.74836812,6.93554217 L1.74836812,1.06556228 C1.74836812,0.753538303 1.97224562,0.500552225 2.24836812,0.500552225 C2.52449062,0.500552225 2.74836812,0.753538303 2.74836812,1.06556228 L2.74836812,6.93554217 C2.74836812,7.24756615 2.52449312,7.50055223 2.24836812,7.50055223 L2.24836812,7.50055223 Z" id="Shape"></path>
                    </g>
                    <g id="left-eye">
                        <path d="M4,5 C3.44856667,5 3,4.55143333 3,4 C3,3.44856667 3.44856667,3 4,3 C4.55143333,3 5,3.44856667 5,4 C5,4.55143333 4.55143333,5 4,5 L4,5 Z M4,3.66666667 C3.81608,3.66666667 3.66666667,3.81608 3.66666667,4 C3.66666667,4.18392 3.81608,4.33333333 4,4.33333333 C4.18392,4.33333333 4.33333333,4.18392 4.33333333,4 C4.33333333,3.81608 4.18392,3.66666667 4,3.66666667 L4,3.66666667 Z" id="Shape"></path>
                        <path d="M4,8 C1.79436286,8 0,6.20563714 0,4 C0,1.79436286 1.79436286,0 4,0 C6.20563714,0 8,1.79436286 8,4 C8,6.20563714 6.20563714,8 4,8 L4,8 Z M4,1.14285714 C2.42466571,1.14285714 1.14285714,2.42466571 1.14285714,4 C1.14285714,5.57533429 2.42466571,6.85714286 4,6.85714286 C5.57533429,6.85714286 6.85714286,5.57533429 6.85714286,4 C6.85714286,2.42466571 5.57533429,1.14285714 4,1.14285714 L4,1.14285714 Z" id="Shape"></path>
                        <path d="M3.9738143,7.81224763 C3.6976918,7.81224763 3.4738143,7.6132454 3.4738143,7.36780318 L3.4738143,6.25669207 C3.4738143,6.01124985 3.6976918,5.81224763 3.9738143,5.81224763 C4.2499368,5.81224763 4.4738143,6.01124985 4.4738143,6.25669207 L4.4738143,7.36780318 C4.4738143,7.6132454 4.2499393,7.81224763 3.9738143,7.81224763 L3.9738143,7.81224763 Z" id="Shape"></path>
                        <path d="M3.94452259,2.16967891 C3.66840009,2.16967891 3.44452259,1.97067669 3.44452259,1.72523447 L3.44452259,0.614123355 C3.44452259,0.368681133 3.66840009,0.169678911 3.94452259,0.169678911 C4.22064509,0.169678911 4.44452259,0.368681133 4.44452259,0.614123355 L4.44452259,1.72523447 C4.44452259,1.97067669 4.22064759,2.16967891 3.94452259,2.16967891 L3.94452259,2.16967891 Z" id="Shape"></path>
                        <path d="M5.53539723,7.6142015 C5.25927473,7.6142015 5.03539723,7.36083596 5.03539723,7.04834397 L5.03539723,1.18005903 C5.03539723,0.867567036 5.25927473,0.614201498 5.53539723,0.614201498 C5.81151973,0.614201498 6.03539723,0.867567036 6.03539723,1.18005903 L6.03539723,7.04834397 C6.03539723,7.36083596 5.81152223,7.6142015 5.53539723,7.6142015 L5.53539723,7.6142015 Z" id="Shape"></path>
                        <path d="M2.36472554,7.48393326 C2.08860304,7.48393326 1.86472554,7.23056772 1.86472554,6.91807573 L1.86472554,1.04979079 C1.86472554,0.737298795 2.08860304,0.483933257 2.36472554,0.483933257 C2.64084804,0.483933257 2.86472554,0.737298795 2.86472554,1.04979079 L2.86472554,6.91807573 C2.86472554,7.23056772 2.64085054,7.48393326 2.36472554,7.48393326 L2.36472554,7.48393326 Z" id="Shape"></path>
                    </g>
                </g>
                <path d="M14.4994584,20.9997804 C14.3949727,20.9997804 14.289512,20.9653146 14.1994278,20.8940678 L13.4856063,20.3282126 L12.8086475,20.887636 C12.5916215,21.0674242 12.2771868,21.0270428 12.1065453,20.7981291 C11.9361463,20.5692154 11.9742289,20.237934 12.1914998,20.0584039 L13.4729122,19 L14.800464,20.0519748 C15.0211523,20.2268747 15.0655844,20.5571289 14.8995776,20.789643 C14.8011964,20.9272483 14.6513036,20.9997804 14.4994584,20.9997804 L14.4994584,20.9997804 Z" id="Shape"></path>
                <path d="M16.0907998,25 L11.1817088,25 C10.8804843,25 10.6362543,24.731347 10.6362543,24.4 L10.6362543,22.6 C10.6362543,22.268653 10.8804843,22 11.1817088,22 L16.0907998,22 C16.3920243,22 16.6362543,22.268653 16.6362543,22.6 L16.6362543,24.4 C16.6362543,24.731347 16.392027,25 16.0907998,25 L16.0907998,25 Z M11.7271634,23.8 L15.5453452,23.8 L15.5453452,23.2 L11.7271634,23.2 L11.7271634,23.8 L11.7271634,23.8 Z" id="Shape"></path>
                <path d="M21.1666652,24 L16.1538516,24 C15.8281685,24 15.5641078,23.7353929 15.5641078,23.4090359 C15.5641078,23.082679 15.8281685,22.8180719 16.1538516,22.8180719 L20.845302,22.8180719 C22.7924945,20.2259675 23.8205124,16.5552385 23.8205124,12.1807185 C23.8205124,8.30309295 20.5135711,4.18192815 14.3846201,4.18192815 L12.6153887,4.18192815 C6.48642891,4.18192815 3.17948763,8.30309591 3.17948763,12.1807185 C3.17948763,16.5552385 4.20750841,20.2259675 6.15469801,22.8180719 L10.8461572,22.8180719 C11.1718403,22.8180719 11.4359011,23.082679 11.4359011,23.4090359 C11.4359011,23.7353929 11.1718403,24 10.8461572,24 L5.83333481,24 C5.58914548,24 5.3708695,23.8493721 5.28333088,23.6222794 C3.13456685,20.8172211 2,16.8660147 2,12.1807185 C2,7.73002031 5.72045489,3 12.6153887,3 L14.3846201,3 C21.2795451,3 25,7.73002031 25,12.1807185 C25,16.8873662 23.8547794,20.8535773 21.6870109,23.6609462 C21.5905436,23.8632243 21.3938669,24 21.1666652,24 L21.1666652,24 Z" id="Shape"></path>
                <path d="M17.4928093,28 L8.50719634,28 C7.76509397,28 7.11978671,27.499401 6.90158472,26.754677 L6.02495199,23.7614263 C5.93389683,23.4509587 6.0998737,23.1218218 6.39545578,23.0264693 C6.68912548,22.9302552 7.00439417,23.1045877 7.09517494,23.4156317 L7.97180767,26.4085971 C8.0448142,26.6567424 8.25973462,26.8236077 8.50719354,26.8236077 L17.4928065,26.8236077 C17.7402654,26.8236077 17.9551858,26.6567424 18.0276463,26.4085971 L18.9048251,23.4156317 C18.9958802,23.1045877 19.3103285,22.9302552 19.6045442,23.0264693 C19.9001263,23.1218218 20.0661032,23.4509587 19.975048,23.7614263 L19.0981409,26.7543917 C18.8802161,27.499401 18.2351832,28 17.4928093,28 L17.4928093,28 Z" id="Shape"></path>
                <path d="M24.4102562,13 C24.0845731,13 23.8205124,12.7292644 23.8205124,12.3953488 C23.8205124,6.43652372 18.9977437,1.20930233 13.5000044,1.20930233 C8.00225628,1.20930233 3.17948763,6.43652372 3.17948763,12.3953488 C3.17948763,12.7292644 2.91542689,13 2.58974382,13 C2.26406074,13 2,12.7292644 2,12.3953488 C2,5.79231023 7.37392553,0 13.5000044,0 C19.6260745,0 25,5.79231023 25,12.3953488 C25,12.7292644 24.7359393,13 24.4102562,13 L24.4102562,13 Z" id="Shape"></path>
                <path d="M13.4729015,3.02587483 C12.9214682,3.02587483 12.4729015,2.57730816 12.4729015,2.02587483 C12.4729015,1.47444149 12.9214682,1.02587483 13.4729015,1.02587483 C14.0243348,1.02587483 14.4729015,1.47444149 14.4729015,2.02587483 C14.4729015,2.57730816 14.0243348,3.02587483 13.4729015,3.02587483 L13.4729015,3.02587483 Z M13.4729015,1.69254149 C13.2889815,1.69254149 13.1395682,1.84195483 13.1395682,2.02587483 C13.1395682,2.20979483 13.2889815,2.35920816 13.4729015,2.35920816 C13.6568215,2.35920816 13.8062348,2.20979483 13.8062348,2.02587483 C13.8062348,1.84195483 13.6568215,1.69254149 13.4729015,1.69254149 L13.4729015,1.69254149 Z" id="Shape"></path>
            </g>
        </g>
    </g>
</svg>