<?xml version="1.0" encoding="UTF-8" standalone="no"?>
<svg width="40px" height="40px" viewBox="0 0 40 40" version="1.1" xmlns="http://www.w3.org/2000/svg" xmlns:xlink="http://www.w3.org/1999/xlink">
    <!-- Generator: Sketch 46.1 (44463) - http://www.bohemiancoding.com/sketch -->
    <title>robot</title>
    <desc>Created with Sketch.</desc>
    <defs></defs>
    <g id="Page-1" stroke="none" stroke-width="1" fill="none" fill-rule="evenodd">
        <g id="30-Universe-Element-Icons" transform="translate(-482.000000, -494.000000)" fill="#000000">
            <g id="robot" transform="translate(482.000000, 494.000000)">
                <g transform="translate(7.000000, 3.000000)" id="Shape">
                    <path d="M9.53333911,35 L6.46666089,35 C5.10655695,35 4,33.9446577 4,32.6474221 L4,24.9537603 C4,24.4270805 4.44770896,24 4.99998268,24 C5.55225639,24 5.99996535,24.4270805 5.99996535,24.9537603 L5.99996535,32.6474882 C5.99996535,32.8928844 6.20923343,33.0924794 6.46666089,33.0924794 L9.53333911,33.0924794 C9.79062798,33.0924794 10.0000346,32.8928844 10.0000346,32.6474882 L10.0000346,30.2311986 C10.0000346,29.7045188 10.4477436,29.2774383 11.0000173,29.2774383 C11.552291,29.2774383 12,29.7045188 12,30.2311986 L12,32.6474882 C12,33.9446577 10.8933738,35 9.53333911,35 L9.53333911,35 Z"></path>
                    <path d="M19.5333391,35 L16.4666609,35 C15.106557,35 14,33.9446577 14,32.6474221 L14,30.2311325 C14,29.7044527 14.447709,29.2773722 14.9999827,29.2773722 C15.5522564,29.2773722 15.9999654,29.7044527 15.9999654,30.2311325 L15.9999654,32.6474221 C15.9999654,32.8928183 16.2092334,33.0924133 16.4666609,33.0924133 L19.5333391,33.0924133 C19.790628,33.0924133 20.0000346,32.8928183 20.0000346,32.6474221 L20.0000346,24.9537603 C20.0000346,24.4270805 20.4477436,24 21.0000173,24 C21.552291,24 22,24.4270805 22,24.9537603 L22,32.6474882 C22,33.9446577 20.893443,35 19.5333391,35 L19.5333391,35 Z"></path>
                    <path d="M20.000065,11 C19.4477793,11 19.0000606,10.5709034 19.0000606,10.0417373 L19.0000606,2.52338293 C19.0000606,2.18877788 18.7159488,1.91652531 18.3667684,1.91652531 L7.63330085,1.91652531 C7.28412049,1.91652531 7.00000866,2.18877788 7.00000866,2.52338293 L7.00000866,10.0417373 C7.00000866,10.5709034 6.55229,11 6.00000433,11 C5.44771866,11 5,10.5709034 5,10.0417373 L5,2.52338293 C4.9999307,1.13197308 6.18114294,0 7.63330085,0 L18.3666991,0 C19.8187878,0 21,1.13197308 21,2.52338293 L21,10.0417373 C21.0000693,10.5709034 20.5522813,11 20.000065,11 L20.000065,11 Z"></path>
                    <path d="M24.989446,22 C24.4313339,22 23.978892,21.5757832 23.978892,21.052635 L23.978892,15.7728364 C23.978892,15.2887487 23.5587323,14.8947299 23.042216,14.8947299 L20.010554,14.8947299 C19.4524419,14.8947299 19,14.4705131 19,13.947365 C19,13.4242168 19.4524419,13 20.010554,13 L23.042216,13 C24.6731358,13 26,14.2438966 26,15.7728364 L26,21.052635 C26,21.5758489 25.5475581,22 24.989446,22 L24.989446,22 Z"></path>
                    <path d="M1.01055401,22 C0.452441928,22 0,21.5757832 0,21.052635 L0,15.7728364 C0,14.2438966 1.32686421,13 2.95778396,13 L5.98944599,13 C6.54755807,13 7,13.4242168 7,13.947365 C7,14.4705131 6.54755807,14.8947299 5.98944599,14.8947299 L2.95778396,14.8947299 C2.44126768,14.8947299 2.02110802,15.2886174 2.02110802,15.7728364 L2.02110802,21.052635 C2.02110802,21.5758489 1.56873612,22 1.01055401,22 L1.01055401,22 Z"></path>
                    <path d="M19.1231488,27 L6.87692053,27 C5.29061938,27 4,25.7690354 4,24.2557612 L4,13.953877 C4,13.4271328 4.447715,13 4.99999615,13 L21.0000038,13 C21.552285,13 22,13.4271328 22,13.953877 L22,24.2557612 C22.0000693,25.7690354 20.7094499,27 19.1231488,27 L19.1231488,27 Z M6.00013089,14.9077539 L6.00013089,24.2557612 C6.00013089,24.7169351 6.39351861,25.0922461 6.87705912,25.0922461 L19.1233566,25.0922461 C19.6068279,25.0922461 20.0002849,24.7170012 20.0002849,24.2557612 L20.0002849,14.9077539 L6.00013089,14.9077539 L6.00013089,14.9077539 L6.00013089,14.9077539 Z"></path>
                    <path d="M22,10 C20.3457834,10 19,8.65421662 19,7 C19,5.34578338 20.3457834,4 22,4 C23.6542166,4 25,5.34578338 25,7 C25,8.65421662 23.6542166,10 22,10 L22,10 Z M22,6 C21.4486176,6 21,6.44861756 21,7 C21,7.55138244 21.4486176,8 22,8 C22.5513824,8 23,7.55138244 23,7 C23,6.44861756 22.5513824,6 22,6 L22,6 Z"></path>
                    <path d="M4,10 C2.34578338,10 1,8.65421662 1,7 C1,5.34578338 2.34585268,4 4,4 C5.65414732,4 7,5.34578338 7,7 C7,8.65421662 5.65421662,10 4,10 L4,10 Z M4,6 C3.44861756,6 3,6.44861756 3,7 C3,7.55138244 3.44861756,8 4,8 C4.55138244,8 5,7.55138244 5,7 C5,6.44861756 4.55145174,6 4,6 L4,6 Z"></path>
                    <path d="M11,8 L9,8 C8.44771672,8 8,7.55221398 8,7 C8,6.44778602 8.44771672,6 9,6 L11,6 C11.5522833,6 12,6.44778602 12,7 C12,7.55221398 11.5521447,8 11,8 L11,8 Z"></path>
                    <path d="M17,8 L15,8 C14.4477167,8 14,7.55221398 14,7 C14,6.44778602 14.4477167,6 15,6 L17,6 C17.5522833,6 18,6.44778602 18,7 C18,7.55221398 17.552214,8 17,8 L17,8 Z"></path>
                </g>
            </g>
        </g>
    </g>
</svg>