<?xml version="1.0" encoding="UTF-8" standalone="no"?>
<svg width="40px" height="40px" viewBox="0 0 40 40" version="1.1" xmlns="http://www.w3.org/2000/svg" xmlns:xlink="http://www.w3.org/1999/xlink">
    <!-- Generator: Sketch 46.1 (44463) - http://www.bohemiancoding.com/sketch -->
    <title>sad</title>
    <desc>Created with Sketch.</desc>
    <defs></defs>
    <g id="Page-1" stroke="none" stroke-width="1" fill="none" fill-rule="evenodd">
        <g id="50-Emoji-Icons" transform="translate(-1385.000000, -1790.000000)" fill="#000000">
            <g id="sad-1" transform="translate(1391.000000, 1796.000000)">
                <path d="M13.9998108,0 C6.28032432,0 0,6.28032432 0,13.9998108 C0,21.7192973 6.28032432,27.9996216 13.9998108,27.9996216 C21.7192973,27.9996216 27.9996216,21.7192973 27.9996216,13.9998108 C27.9996216,6.28032432 21.7192973,0 13.9998108,0 L13.9998108,0 Z M13.9998108,26.4861081 C10.5700946,26.4861081 7.45925676,25.0959459 5.20033784,22.8498919 C4.29828378,21.9529459 3.53254054,20.9192162 2.93631081,19.7831351 C2.0282973,18.0530946 1.51351351,16.085527 1.51351351,13.9998108 C1.51351351,7.11483784 7.11483784,1.51351351 13.9998108,1.51351351 C17.2655,1.51351351 20.2418243,2.77427027 22.4691486,4.83397297 C23.6239595,5.90175676 24.5775676,7.18408108 25.2651757,8.61737838 C26.047473,10.2480946 26.4861081,12.0736757 26.4861081,13.9998108 C26.4861081,20.8847838 20.8847838,26.4861081 13.9998108,26.4861081 L13.9998108,26.4861081 Z" id="Shape"></path>
                <path d="M15.4792703,17.7466081 C17.1397838,18.0938649 18.6313514,19.0274189 19.6792703,20.3752973 L20.8740946,19.4463784 C19.6063378,17.8155676 17.8003378,16.6857297 15.7890676,16.2650676 C12.5544054,15.5890946 9.15363514,16.8375541 7.12543243,19.4463784 L8.32044595,20.3752973 C9.99628378,18.2195811 12.8064054,17.1875541 15.4792703,17.7466081 L15.4792703,17.7466081 Z" id="Shape"></path>
                <circle id="Oval" cx="9.33327027" cy="10.8781892" r="1.51351351"></circle>
                <circle id="Oval" cx="18.6981351" cy="10.8781892" r="1.51351351"></circle>
            </g>
        </g>
    </g>
</svg>