<?xml version="1.0" encoding="UTF-8" standalone="no"?>
<svg width="40px" height="40px" viewBox="0 0 40 40" version="1.1" xmlns="http://www.w3.org/2000/svg" xmlns:xlink="http://www.w3.org/1999/xlink">
    <!-- Generator: Sketch 46.1 (44463) - http://www.bohemiancoding.com/sketch -->
    <title>sad02</title>
    <desc>Created with Sketch.</desc>
    <defs></defs>
    <g id="Page-1" stroke="none" stroke-width="1" fill="none" fill-rule="evenodd">
        <g id="50-Emoji-Icons" transform="translate(-1740.000000, -1790.000000)" fill="#000000">
            <g id="sad" transform="translate(1746.000000, 1796.000000)">
                <path d="M13.9998108,0 C6.28032432,0 0,6.28032432 0,13.9998108 C0,21.7192973 6.28032432,27.9996216 13.9998108,27.9996216 C21.7192973,27.9996216 27.9996216,21.7192973 27.9996216,13.9998108 C27.9996216,6.28032432 21.7193919,0 13.9998108,0 L13.9998108,0 Z M13.9998108,26.4861081 C10.5700946,26.4861081 7.45925676,25.0959459 5.20033784,22.8498919 C4.29828378,21.9529459 3.53254054,20.9192162 2.93631081,19.7831351 C2.0282973,18.0530946 1.51351351,16.085527 1.51351351,13.9998108 C1.51351351,7.11483784 7.11483784,1.51351351 13.9998108,1.51351351 C17.2655,1.51351351 20.2418243,2.77427027 22.4691486,4.83397297 C23.6239595,5.90175676 24.5775676,7.18408108 25.2651757,8.61737838 C26.047473,10.2480946 26.4861081,12.0736757 26.4861081,13.9998108 C26.4861081,20.8847838 20.8847838,26.4861081 13.9998108,26.4861081 L13.9998108,26.4861081 Z M8.71518919,26.1453784 C8.73918919,26.1558784 8.76318919,26.1665784 8.78738919,26.1769784 C8.76318919,26.1664784 8.73918919,26.1558784 8.71518919,26.1453784 L8.71518919,26.1453784 Z" id="Shape"></path>
                <circle id="Oval" cx="9.31728378" cy="10.9727838" r="1.51351351"></circle>
                <circle id="Oval" cx="18.6821486" cy="10.9727838" r="1.51351351"></circle>
                <rect id="Rectangle-path" transform="translate(19.586628, 6.849350) rotate(203.416776) translate(-19.586628, -6.849350) " x="16.975075" y="6.09267255" width="5.2231063" height="1.51335575"></rect>
                <polygon id="Shape" points="5.80422973 7.39805405 6.31674324 8.58143243 11.1100405 6.50564865 10.5085135 5.11681081 6.18402703 6.98959459 5.71521622 7.19259459"></polygon>
                <path d="M20.2666081,19.1821757 C20.3827703,19.3880135 20.4896622,19.6019865 20.5847297,19.8182297 L21.9703514,19.2094189 C21.8551351,18.9472973 21.7254459,18.6879189 21.5848784,18.4386622 C19.9746892,15.5829459 16.8166486,13.8468514 13.5430135,14.0169324 C10.2905676,14.1852162 7.34110811,16.2233514 6.02889189,19.2094189 L7.41451351,19.8184189 C8.49866216,17.3513919 10.9348514,15.6675135 13.6211486,15.5284595 C16.3252297,15.3881757 18.9360405,16.8224189 20.2666081,19.1821757 L20.2666081,19.1821757 Z" id="Shape"></path>
            </g>
        </g>
    </g>
</svg>