<?xml version="1.0" encoding="UTF-8" standalone="no"?>
<svg width="40px" height="40px" viewBox="0 0 40 40" version="1.1" xmlns="http://www.w3.org/2000/svg" xmlns:xlink="http://www.w3.org/1999/xlink">
    <!-- Generator: Sketch 46.1 (44463) - http://www.bohemiancoding.com/sketch -->
    <title>satelite</title>
    <desc>Created with Sketch.</desc>
    <defs></defs>
    <g id="Page-1" stroke="none" stroke-width="1" fill="none" fill-rule="evenodd">
        <g id="30-Universe-Element-Icons" transform="translate(-714.000000, -494.000000)" fill="#000000">
            <g id="satellite" transform="translate(714.000000, 494.000000)">
                <g transform="translate(8.000000, 4.000000)" id="Shape">
                    <path d="M15.9284936,26 C15.4902578,26 15.0791109,25.7391448 14.9213202,25.3193818 L13.0644048,20.3836887 C12.8627833,19.8479285 13.1503419,19.2561768 13.7064896,19.0619716 C14.2629247,18.8679047 14.8771302,19.1448168 15.0786798,19.680577 L16.9355952,24.6162701 C17.1372167,25.1520303 16.8496581,25.7437819 16.2935104,25.9379872 C16.1728681,25.9799289 16.049639,26 15.9284936,26 L15.9284936,26 Z"></path>
                    <path d="M8.0222865,26 C7.89591536,26 7.76755575,25.9762607 7.64310453,25.9260136 C7.11876375,25.7145053 6.86369017,25.1139628 7.07337163,24.5847767 L9.02825009,19.6490749 C9.23793154,19.1198196 9.8329661,18.8624937 10.3568955,19.074002 C10.8812362,19.2855103 11.1363098,19.8860528 10.9266284,20.4152389 L8.97174991,25.3509407 C8.81191752,25.7543707 8.42807291,26 8.0222865,26 L8.0222865,26 Z"></path>
                    <path d="M20.8789043,33 L3.12116236,33 C1.40016505,33 0,31.6541888 0,30 C0,28.3458112 1.40016505,27 3.12116236,27 L20.8788376,27 C22.5998349,27 24,28.3458112 24,30 C24,31.6541888 22.5998349,33 20.8789043,33 L20.8789043,33 Z M3.12116236,28.9112877 C2.49656978,28.9112877 1.98841309,29.399718 1.98841309,30.0000641 C1.98841309,30.6004102 2.4964364,31.0888405 3.12116236,31.0888405 L20.8788376,31.0888405 C21.5034302,31.0888405 22.0115869,30.6004102 22.0115869,30.0000641 C22.0115869,29.399718 21.5035636,28.9112877 20.8788376,28.9112877 L3.12116236,28.9112877 L3.12116236,28.9112877 Z"></path>
                    <path d="M13.0414836,13 C12.8589376,13 12.6741543,12.9577132 12.5062204,12.8688246 C12.0125561,12.6077066 11.8525924,12.0431839 12.1486092,11.6079257 L19.0636843,1.44639329 C19.359841,1.01113505 20.0001153,0.8699119 20.4937796,1.13115314 C20.9874439,1.3922711 21.1474076,1.95679383 20.8513908,2.39205207 L13.9363157,12.5535845 C13.7409054,12.8408389 13.3955292,13 13.0414836,13 L13.0414836,13 Z"></path>
                    <path d="M9.99673201,9 C9.65849368,9 9.32866956,8.83960362 9.14202076,8.55006982 C8.85914266,8.1112636 9.01200101,7.54220134 9.48359808,7.27889275 L20.4920039,1.13224984 C20.9632003,0.868816962 21.5750344,1.01125342 21.8579792,1.45005964 C22.1408573,1.88886586 21.987999,2.45792811 21.5164019,2.7212367 L10.5079961,8.86787962 C10.3475917,8.95736849 10.1710934,9 9.99673201,9 L9.99673201,9 Z"></path>
                    <path d="M21.0098469,12 C20.4631045,12 20.0197603,11.5768487 20.0197603,11.054867 L20.0197603,2.02947795 C20.0197603,1.95270849 19.9544141,1.89026594 19.8739269,1.89026594 L4.99008666,1.89026594 C4.44334419,1.89026594 4,1.46711465 4,0.945132968 C4,0.423151288 4.44334419,0 4.99008666,0 L19.8739933,0 C21.0462389,0 22,0.91045675 22,2.02947795 L22,11.0549304 C21.9999336,11.5768487 21.5566558,12 21.0098469,12 L21.0098469,12 Z"></path>
                    <path d="M13.967155,21 C13.966958,21 13.967155,21 13.967155,21 C10.5017242,21 7.24396694,19.6508822 4.79378568,17.2013013 C0.437170833,12.8458051 -0.249492038,5.96896154 3.16116343,0.849707187 C3.51575863,0.317663501 4.10948721,0 4.74958443,0 C5.25858847,0 5.73731498,0.198359123 6.09755848,0.558504701 L21.441239,15.8980143 C21.8469973,16.3036623 22.0471837,16.8638085 21.9905693,17.4347886 C21.9338892,18.0057687 21.6275017,18.5156193 21.149826,18.8335454 C19.021598,20.2507527 16.5375926,21 13.967155,21 L13.967155,21 Z M4.75674332,1.9869399 C1.90054103,6.32687467 2.49413826,12.1333932 6.17860506,15.8169897 C8.25888816,17.896773 11.024849,19.0421475 13.9670237,19.0422132 C16.1290758,19.0422132 18.2180284,18.4186393 20.0122841,17.2384649 L4.75674332,1.9869399 L4.75674332,1.9869399 Z"></path>
                </g>
            </g>
        </g>
    </g>
</svg>