<?xml version="1.0" encoding="UTF-8" standalone="no"?>
<svg width="40px" height="40px" viewBox="0 0 40 40" version="1.1" xmlns="http://www.w3.org/2000/svg" xmlns:xlink="http://www.w3.org/1999/xlink">
    <!-- Generator: Sketch 46.1 (44463) - http://www.bohemiancoding.com/sketch -->
    <title>saturn</title>
    <desc>Created with Sketch.</desc>
    <defs></defs>
    <g id="Page-1" stroke="none" stroke-width="1" fill="none" fill-rule="evenodd">
        <g id="30-Universe-Element-Icons" transform="translate(-251.000000, -164.000000)" fill="#000000">
            <g id="saturn" transform="translate(251.000000, 164.000000)">
                <g transform="translate(3.000000, 9.000000)" id="Shape">
                    <path d="M16.964699,22 C16.8598352,22 16.7545047,21.9985466 16.6493075,21.9955738 C14.1022421,21.924689 11.6498409,20.9658605 9.74389177,19.2956729 C8.16413394,17.9115352 7.02956422,16.1234925 6.46291268,14.1251074 C6.38424811,13.8479099 6.45344627,13.5501009 6.64637445,13.3348038 C6.8393693,13.1194407 7.13009487,13.0161192 7.41668722,13.0609755 C10.1872799,13.4919 13.4889918,13.7196168 16.9646324,13.7196168 C20.5859357,13.7196168 24.6190281,13.2234888 26.1849863,13.0102397 C26.2346516,13.0035013 26.2852503,13 26.3353156,13 C26.6819064,13 27.0118309,13.1655522 27.217892,13.4429478 C27.4236866,13.7199472 27.4850849,14.0816383 27.3818877,14.4102984 C26.8613682,16.0691232 25.9282598,17.5980034 24.6833597,18.8317833 C22.6216814,20.8748926 19.8804212,22 16.964699,22 L16.964699,22 Z M8.5678565,14.9294821 C9.10084227,16.1055235 9.88388804,17.1610012 10.8743283,18.028928 C12.4812854,19.4370463 14.5490969,20.2453848 16.6970395,20.3051712 C19.2578378,20.3761221 21.6741733,19.421918 23.4763919,17.6360553 C24.2947701,16.8250743 24.9534192,15.8630748 25.4118069,14.8162513 C23.4431261,15.059691 20.0658163,15.4108783 16.9646324,15.4108783 C13.9737789,15.4108783 11.1025888,15.2453922 8.5678565,14.9294821 L8.5678565,14.9294821 Z"></path>
                    <path d="M7.23975586,15 C6.86388485,15 6.51859704,14.7455185 6.41192549,14.3562143 C5.33338001,10.4208502 6.4085647,6.18640836 9.21791824,3.30550182 C11.2967027,1.17390945 14.0606184,0 17.0003707,0 C19.9402574,0 22.7040386,1.1740473 24.7828903,3.3057086 C27.5590392,6.1525648 28.6461211,10.3435132 27.620004,14.2431727 C27.4962596,14.7136739 27.0242027,14.9920733 26.5651857,14.8651772 C26.1064376,14.7382122 25.8348855,14.2539254 25.9586971,13.7834932 C26.8247061,10.491708 25.9080164,6.95502231 23.5660146,4.55350866 C21.812286,2.75504437 19.4805682,1.76462074 17.0003707,1.76462074 C14.5201731,1.76462074 12.1883882,2.75504437 10.4346595,4.55343973 C8.06469595,6.98369628 7.15795418,10.5570515 8.06839283,13.8788893 C8.19690953,14.3480119 7.93039869,14.8351247 7.47292764,14.9669836 C7.39502447,14.9893162 7.31671801,15 7.23975586,15 L7.23975586,15 Z"></path>
                    <path d="M30.8000107,13 C30.4636499,13 30.1505382,12.8070716 30.0400429,12.5031657 C29.9023612,12.1245796 30.131164,11.7170233 30.5509587,11.592857 C30.6689537,11.5580251 30.7840739,11.5221786 30.8929442,11.4863885 C32.1413913,11.0766904 32.372819,10.7505777 32.4003178,10.7039097 C32.4106299,10.3135439 32.7648024,10 33.2000339,10 C33.6417652,10 34,10.3230128 34,10.7214384 C34,12.0021606 32.0732067,12.6345464 31.4401085,12.8422417 C31.3150513,12.8832735 31.1836194,12.9241926 31.0493126,12.9639281 C30.9666911,12.988333 30.8826947,13 30.8000107,13 L30.8000107,13 Z"></path>
                    <path d="M7.1715367,14 C7.12881585,14 7.08583608,13.9966868 7.04292104,13.9899304 C5.02623785,13.6722497 3.41080704,13.2672556 2.2419386,12.7859272 C1.68734425,12.557574 0,11.8628993 0,10.4999909 C0,9.13714746 1.68734425,8.44240783 2.2419386,8.21411954 C3.41093649,7.73279114 5.02617312,7.32773208 7.04298577,7.01011641 C7.32203062,6.96606989 7.6036646,7.06767572 7.79092434,7.27939785 C7.97831354,7.49111998 8.04543706,7.78398385 7.96905736,8.05657853 C7.52145933,9.65518129 7.52145933,11.3449954 7.96905736,12.9435332 C8.04543706,13.2161279 7.97824881,13.5089918 7.79092434,13.7207139 C7.63240409,13.8998234 7.40617775,14 7.1715367,14 L7.1715367,14 Z M1.66566018,10.4999909 C1.81026379,10.7692723 2.86611616,11.5123462 6.10209134,12.1378327 C5.93437963,11.0523264 5.93437963,9.9477853 6.10209134,8.86214906 C2.86611616,9.48776554 1.81026379,10.2307095 1.66566018,10.4999909 L1.66566018,10.4999909 Z"></path>
                    <path d="M26.8291129,14 C26.7548713,14 26.6794645,13.9899307 26.6045756,13.9688178 C26.1640451,13.8446086 25.9073386,13.3854505 26.0310963,12.9433126 C26.478682,11.3448991 26.478682,9.65501776 26.0310963,8.0565393 C25.9547186,7.78395475 26.0219051,7.49110175 26.2092244,7.27938748 C26.3966085,7.06767321 26.6788173,6.96607115 26.9571425,7.01011603 C28.9738999,7.32778488 30.589157,7.73289386 31.7580581,8.21407447 C32.312702,8.44241925 34,9.13713309 34,10.4999259 C34,10.9591491 33.628986,11.3314518 33.1714971,11.3314518 C32.7200277,11.3314518 32.3528326,10.9690234 32.3431883,10.5182455 C32.2384604,10.2658644 31.2105342,9.5025497 27.8982053,8.86220986 C28.131157,10.3698701 28.0405395,11.9145592 27.6264822,13.393246 C27.5235666,13.7601568 27.1910004,14 26.8291129,14 L26.8291129,14 Z"></path>
                </g>
            </g>
        </g>
    </g>
</svg>