<?xml version="1.0" encoding="UTF-8" standalone="no"?>
<svg width="40px" height="40px" viewBox="0 0 40 40" version="1.1" xmlns="http://www.w3.org/2000/svg" xmlns:xlink="http://www.w3.org/1999/xlink">
    <!-- Generator: Sketch 46.1 (44463) - http://www.bohemiancoding.com/sketch -->
    <title>sausage</title>
    <desc>Created with Sketch.</desc>
    <defs></defs>
    <g id="Page-1" stroke="none" stroke-width="1" fill="none" fill-rule="evenodd">
        <g id="30-Fast-Food-Icons" transform="translate(-222.000000, -790.000000)" fill="#000000">
            <g id="sausage" transform="translate(222.000000, 790.000000)">
                <path d="M32.1696551,10.2061607 C33.1767398,9.63099642 34,8.69510162 34,7.89831538 C34,6.90268693 32.3741935,6 31.7418873,6 C31.0328912,6 30.8512826,6.87798352 30.6760327,7.72650518 C30.6123492,8.03357668 30.5026133,8.56702861 30.3870004,8.78530957 C30.2713875,8.56702861 30.1616516,8.03357668 30.0979682,7.72650518 C29.9227183,6.87798352 29.741206,6 29.0321135,6 C28.3998073,6 26.7740009,6.90268693 26.7740009,7.89831538 C26.7740009,8.67667531 27.5584344,9.58827167 28.5330512,10.166372 C27.1376034,10.787602 26.3224361,12.1653234 26.3224361,14.067891 C26.3224361,21.4941008 19.6634219,25.9324127 13.2256138,25.9324127 C11.85088,25.9324127 10.310049,26.4706231 9.58428903,27.860595 C9.12453505,27.024425 8.35455312,26.406941 7.35469419,26.406941 C6.58577204,26.4067385 6,27.6719783 6,28.3050539 C6,29.0387654 6.77451011,29.2699043 7.45739699,29.4735049 C7.67282237,29.537997 8.00203011,29.6363045 8.17631656,29.728841 C8.00154839,29.8213776 7.67272602,29.9195837 7.45691527,29.9841771 C6.77451011,30.1876765 6,30.4188154 6,31.1525269 C6,31.7856025 6.58577204,33.0508423 7.35488688,33.0508423 C8.08517505,33.0508423 8.97125161,32.3969106 9.52667527,31.4933125 C10.1183243,32.8909788 11.409046,34 13.2258065,34 C15.844246,34 18.1095845,33.580447 21.0459596,32.5516107 C23.4828869,31.6983306 25.5404112,30.4629575 27.5211492,28.6638608 C29.3939819,26.9610466 30.9063914,24.8966919 32.1438348,22.3515319 C33.4300284,19.7057358 33.9990366,17.2920911 33.9909437,14.5252078 C33.9841996,12.3033183 33.3708731,10.8609023 32.1696551,10.2061607 L32.1696551,10.2061607 L32.1696551,10.2061607 Z M7.70394151,28.5603899 C7.44882237,28.4844573 7.03415742,28.3606365 6.90544172,28.2543309 C6.9375243,27.945842 7.23195183,27.4143137 7.35479054,27.3559974 C8.47006968,27.3559974 9.16037505,28.5865108 9.16124215,29.7268161 C9.15970065,28.9948257 8.38615398,28.7638893 7.70394151,28.5603899 L7.70394151,28.5603899 L7.70394151,28.5603899 Z M7.37646796,32.1012796 C7.21971613,32.0191712 6.93656086,31.5042468 6.90592344,31.2029462 C7.03415742,31.0966405 7.44872602,30.9732247 7.70442323,30.8968871 C8.38605763,30.6939952 9.15941161,30.4630588 9.16114581,29.7313721 C9.15979699,30.8940523 8.02727226,32.0751588 7.37646796,32.1012796 L7.37646796,32.1012796 L7.37646796,32.1012796 Z M27.6774194,7.90003652 C27.7090202,7.62951392 28.5715888,7.04483279 28.9559054,6.95938328 C29.0530202,7.14020415 29.1532181,7.6252617 29.2151673,7.92757475 C29.3966796,8.80363464 29.6016998,9.79642827 30.3870968,9.79642827 C31.1724938,9.79642827 31.377514,8.80363464 31.5590262,7.92757475 C31.6213609,7.6252617 31.7211733,7.14020415 31.8182882,6.95938328 C32.2034718,7.04523776 33.0674856,7.63093133 33.0967742,7.89811289 C33.0967742,8.50982604 31.5788731,9.79642827 30.3870968,9.79642827 C29.1966692,9.79652952 27.6805987,8.51225589 27.6774194,7.90003652 L27.6774194,7.90003652 L27.6774194,7.90003652 Z M31.3395544,21.9196271 C30.155871,24.353723 28.713889,26.32463 26.9299819,27.945842 C25.0418305,29.6610079 23.0818065,30.8383684 20.7600103,31.6518598 C17.9224843,32.6456659 15.7399054,33.0509436 13.2257101,33.0509436 C11.1722323,33.0509436 10.0643716,31.3396249 10.0643716,29.728841 C10.0643716,27.6292536 11.6974039,26.8813679 13.2257101,26.8813679 C14.4784723,26.8813679 15.7384602,26.720492 16.9623191,26.4125094 C18.0723957,26.4286071 18.1934039,28.0706752 18.1934039,28.7796833 L19.0966297,28.7796833 C19.0966297,27.5239604 18.8012387,26.5767263 18.2715389,26.021912 C19.8837609,25.4609218 21.3989643,24.6314339 22.7095329,23.5593666 C23.7730753,23.5593666 24.5159845,24.3400552 24.5159845,25.457682 L25.4192103,25.457682 C25.4192103,24.1659164 24.6803475,23.1293856 23.600523,22.7587332 C24.758868,21.6206551 25.702751,20.2638911 26.3368877,18.7072725 C27.1050391,18.1875897 29.3685471,18.4144764 30.5192809,19.6237286 L31.1578495,18.9526867 C30.0126073,17.7496104 28.0791742,17.3011017 26.7374865,17.5654485 C26.7889342,17.3888798 26.8346013,17.2094764 26.8779561,17.0286555 C27.1177566,16.858769 27.8701075,16.4406334 29.4837746,16.4406334 L29.4837746,15.4914757 C28.3890168,15.4914757 27.6208654,15.6661207 27.0970426,15.8658741 C27.178357,15.2854452 27.2257583,14.6875011 27.2257583,14.0676885 C27.2257583,11.9562556 28.3783226,10.745586 30.3870968,10.745586 C32.2463449,10.745586 33.0796249,11.9121134 33.0877178,14.5284476 C33.0959071,17.1715101 32.5733368,19.3819591 31.3395544,21.9196271 L31.3395544,21.9196271 L31.3395544,21.9196271 Z"></path>
            </g>
        </g>
    </g>
</svg>