<?xml version="1.0" encoding="UTF-8" standalone="no"?>
<svg width="40px" height="40px" viewBox="0 0 40 40" version="1.1" xmlns="http://www.w3.org/2000/svg" xmlns:xlink="http://www.w3.org/1999/xlink">
    <!-- Generator: Sketch 46.1 (44463) - http://www.bohemiancoding.com/sketch -->
    <title>scared</title>
    <desc>Created with Sketch.</desc>
    <defs></defs>
    <g id="Page-1" stroke="none" stroke-width="1" fill="none" fill-rule="evenodd">
        <g id="50-Emoji-Icons" transform="translate(-320.000000, -1790.000000)" fill="#000000">
            <g id="scared" transform="translate(326.000000, 1796.000000)">
                <path d="M13.9998108,0 C6.28032432,0 0,6.28032432 0,13.9998108 C0,21.7192973 6.28032432,27.9996216 13.9998108,27.9996216 C21.7192973,27.9996216 27.9996216,21.7192973 27.9996216,13.9998108 C27.9996216,6.28032432 21.7192973,0 13.9998108,0 L13.9998108,0 Z M13.9998108,26.4861081 C10.5700946,26.4861081 7.45925676,25.0959459 5.20033784,22.8498919 C4.29828378,21.9529459 3.53254054,20.9192162 2.93631081,19.7831351 C2.0282973,18.0530946 1.51351351,16.0856216 1.51351351,13.9998108 C1.51351351,7.11483784 7.11483784,1.51351351 13.9998108,1.51351351 C17.2655,1.51351351 20.2418243,2.77427027 22.4691486,4.83397297 C23.6239595,5.90175676 24.5775676,7.18408108 25.2651757,8.61737838 C26.047473,10.2480946 26.4861081,12.0736757 26.4861081,13.9998108 C26.4861081,20.8847838 20.8847838,26.4861081 13.9998108,26.4861081 L13.9998108,26.4861081 Z" id="Shape"></path>
                <path d="M13.9992432,18.6348514 C14.6838243,18.6348514 14.9843514,18.8986757 15.4392568,19.2981486 C15.9667162,19.7612838 16.6232027,20.3375541 17.8778108,20.3375541 C19.1326081,20.3375541 19.7732973,19.7611892 20.3007568,19.2981486 C20.7556622,18.8986757 21.0628108,18.6348514 21.724973,18.6348514 L21.724973,17.1213378 C20.4952432,17.1213378 19.8295811,17.6977027 19.3021216,18.1607432 C18.8472162,18.5602162 18.5545405,18.8240405 17.8699595,18.8240405 C17.1853784,18.8240405 16.8888243,18.5602162 16.4339189,18.1607432 C15.9064595,17.6976081 15.2519595,17.1213378 13.9973514,17.1213378 C12.7427432,17.1213378 12.0873919,17.6977027 11.560027,18.1607432 C11.1051216,18.5602162 10.8051622,18.8240405 10.1206757,18.8240405 C9.43628378,18.8240405 9.12024324,18.5602162 8.66533784,18.1607432 C8.13797297,17.6976081 7.53578378,17.1213378 6.21145946,17.1213378 L6.21145946,18.6348514 C6.96821622,18.6348514 7.21217568,18.8986757 7.66698649,19.2981486 C8.19435135,19.7612838 8.85859459,20.3375541 10.1132973,20.3375541 C11.368,20.3375541 12.0282703,19.7611892 12.5556351,19.2980541 C13.0104459,18.8986757 13.3148514,18.6348514 13.9992432,18.6348514 L13.9992432,18.6348514 Z" id="Shape"></path>
                <polygon id="Shape" points="10.052473 13.9955541 12.8196486 11.2281892 10.0523784 8.46101351 8.98222973 9.53135135 10.6793514 11.2281892 8.98213514 12.9253108"></polygon>
                <polygon id="Shape" points="18.8597027 12.9253108 17.1625811 11.2281892 18.8596081 9.53135135 17.7895541 8.46101351 15.0221892 11.2281892 17.7894595 13.9955541"></polygon>
            </g>
        </g>
    </g>
</svg>