<?xml version="1.0" encoding="UTF-8" standalone="no"?>
<svg width="40px" height="40px" viewBox="0 0 40 40" version="1.1" xmlns="http://www.w3.org/2000/svg" xmlns:xlink="http://www.w3.org/1999/xlink">
    <!-- Generator: Sketch 46.1 (44463) - http://www.bohemiancoding.com/sketch -->
    <title>schoolbus</title>
    <desc>Created with Sketch.</desc>
    <defs></defs>
    <g id="Icons" stroke="none" stroke-width="1" fill="none" fill-rule="evenodd">
        <g id="Automotive" transform="translate(-869.000000, -995.000000)" fill="#231F20">
            <g id="School-Bus" transform="translate(872.000000, 1007.000000)">
                <g>
                    <path d="M30.2884615,10.6666667 C28.8036538,10.6666667 27.5961538,11.8626667 27.5961538,13.3333333 L14.8076923,13.3333333 C14.4354808,13.3333333 14.1346154,13.6313333 14.1346154,14 C14.1346154,14.368 14.4354808,14.6666667 14.8076923,14.6666667 L27.9703846,14.6666667 C28.4375,15.4593333 29.2963462,16 30.2884615,16 C31.7732692,16 32.9807692,14.804 32.9807692,13.3333333 C32.9807692,11.8626667 31.7732692,10.6666667 30.2884615,10.6666667 L30.2884615,10.6666667 Z M30.2884615,14.6666667 C29.5460577,14.6666667 28.9423077,14.068 28.9423077,13.3333333 C28.9423077,12.598 29.5460577,12 30.2884615,12 C31.0301923,12 31.6346154,12.598 31.6346154,13.3333333 C31.6346154,14.068 31.0301923,14.6666667 30.2884615,14.6666667 L30.2884615,14.6666667 Z M24.9038462,11.3333333 L24.9038462,4.66666667 L22.8846154,4.66666667 L22.8846154,11.3333333 C22.8846154,11.7013333 22.58375,12 22.2115385,12 C21.8393269,12 21.5384615,11.7013333 21.5384615,11.3333333 L21.5384615,4 C21.5384615,3.63133333 21.8393269,3.33333333 22.2115385,3.33333333 L25.5769231,3.33333333 C25.9491346,3.33333333 26.25,3.63133333 26.25,4 L26.25,11.3333333 C26.25,11.7013333 25.9491346,12 25.5769231,12 C25.2047115,12 24.9038462,11.7013333 24.9038462,11.3333333 L24.9038462,11.3333333 Z M34.6277885,8.73666667 L30.5893269,6.73666667 C30.4957692,6.69066667 30.3927885,6.66666667 30.2884615,6.66666667 L29.6153846,6.66666667 L29.6153846,4.66666667 L30.2884615,4.66666667 C30.6606731,4.66666667 30.9615385,4.368 30.9615385,4 L30.9615385,2 C30.9615385,1.82266667 30.8901923,1.65333333 30.7643269,1.52866667 L29.4181731,0.195333333 C29.2916346,0.07 29.1213462,0 28.9423077,0 L2.01923077,0 C1.84019231,0 1.66923077,0.07 1.54336538,0.195333333 L0.197211538,1.52866667 C0.0706730769,1.65333333 0,1.82266667 0,2 L0,14 C0,14.368 0.300865385,14.6666667 0.673076923,14.6666667 L7.77807692,14.6666667 C8.24519231,15.4593333 9.10403846,16 10.0961538,16 C11.5809615,16 12.7884615,14.804 12.7884615,13.3333333 C12.7884615,11.8626667 11.5809615,10.6666667 10.0961538,10.6666667 C8.61134615,10.6666667 7.40384615,11.8626667 7.40384615,13.3333333 L1.34615385,13.3333333 L1.34615385,8 L19.5192308,8 C19.8914423,8 20.1923077,7.70133333 20.1923077,7.33333333 L20.1923077,4 C20.1923077,3.63133333 19.8914423,3.33333333 19.5192308,3.33333333 L1.34615385,3.33333333 L1.34615385,2.276 L2.29788462,1.33333333 L28.6636538,1.33333333 L29.6153846,2.276 L29.6153846,3.33333333 L28.9423077,3.33333333 C28.5700962,3.33333333 28.2692308,3.63133333 28.2692308,4 L28.2692308,7.33333333 C28.2692308,7.70133333 28.5700962,8 28.9423077,8 L30.1296154,8 L33.6538462,9.74533333 L33.6538462,14 C33.6538462,14.368 33.9547115,14.6666667 34.3269231,14.6666667 C34.6991346,14.6666667 35,14.368 35,14 L35,9.33333333 C35,9.08066667 34.8559615,8.85 34.6277885,8.73666667 L34.6277885,8.73666667 Z M10.0961538,12 C10.8378846,12 11.4423077,12.598 11.4423077,13.3333333 C11.4423077,14.068 10.8378846,14.6666667 10.0961538,14.6666667 C9.35375,14.6666667 8.75,14.068 8.75,13.3333333 C8.75,12.598 9.35375,12 10.0961538,12 L10.0961538,12 Z M6.05769231,4.66666667 L9.42307692,4.66666667 L9.42307692,6.66666667 L6.05769231,6.66666667 L6.05769231,4.66666667 Z M10.7692308,4.66666667 L14.1346154,4.66666667 L14.1346154,6.66666667 L10.7692308,6.66666667 L10.7692308,4.66666667 Z M15.4807692,4.66666667 L18.8461538,4.66666667 L18.8461538,6.66666667 L15.4807692,6.66666667 L15.4807692,4.66666667 Z M1.34615385,4.66666667 L4.71153846,4.66666667 L4.71153846,6.66666667 L1.34615385,6.66666667 L1.34615385,4.66666667 Z"></path>
                </g>
            </g>
        </g>
    </g>
</svg>