<?xml version="1.0" encoding="UTF-8" standalone="no"?>
<svg width="40px" height="40px" viewBox="0 0 40 40" version="1.1" xmlns="http://www.w3.org/2000/svg" xmlns:xlink="http://www.w3.org/1999/xlink">
    <!-- Generator: Sketch 46.1 (44463) - http://www.bohemiancoding.com/sketch -->
    <title>scooter</title>
    <desc>Created with Sketch.</desc>
    <defs></defs>
    <g id="Icons" stroke="none" stroke-width="1" fill="none" fill-rule="evenodd">
        <g id="Automotive" transform="translate(-1042.000000, -995.000000)" fill="#231F20">
            <g id="Scooter" transform="translate(1048.000000, 1006.000000)">
                <g>
                    <path d="M22.51502,8.46174194 L18.45502,14.2681935 C18.34656,14.4232258 18.16908,14.516129 17.98,14.516129 L11.6,14.516129 C11.44572,14.516129 11.2984,14.4545806 11.18994,14.346 L9.61988,12.7741935 L0.58,12.7741935 C0.25926,12.7741935 0,12.5140645 0,12.1935484 L0,10.4516129 C0,10.2512903 0.10324,10.0654839 0.2726,9.95922581 L4.64,7.22612903 L4.64,6.38709677 C4.64,6.066 4.89926,5.80645161 5.22,5.80645161 L14.5,5.80645161 C14.82074,5.80645161 15.08,6.066 15.08,6.38709677 L15.08,7.5483871 C15.08,7.76845161 14.95588,7.96877419 14.75926,8.06748387 L13.4299,8.73348387 C13.01636,8.94019355 12.76,9.35593548 12.76,9.81870968 C12.76,10.4876129 13.30346,11.0322581 13.9722,11.0322581 L16.24,11.0322581 C16.56074,11.0322581 16.82,11.2918065 16.82,11.6129032 C16.82,11.9334194 16.56074,12.1935484 16.24,12.1935484 L13.9722,12.1935484 C12.6643,12.1935484 11.6,11.1280645 11.6,9.81870968 C11.6,8.91290323 12.10228,8.09941935 12.91138,7.69470968 L13.92,7.18954839 L13.92,6.96774194 L5.8,6.96774194 L5.8,7.5483871 C5.8,7.74812903 5.69676,7.93451613 5.5274,8.04019355 L1.16,10.7732903 L1.16,11.6129032 L9.86,11.6129032 C10.01428,11.6129032 10.16102,11.673871 10.27006,11.7830323 L11.84012,13.3548387 L17.67782,13.3548387 L21.34458,8.11045161 L18.64816,3.7916129 C18.59074,3.69929032 18.56,3.59245161 18.56,3.48387097 L18.56,2.32258065 L16.82,2.32258065 C16.49926,2.32258065 16.24,2.06245161 16.24,1.74193548 C16.24,1.42083871 16.49926,1.16129032 16.82,1.16129032 L19.14,1.16129032 C19.46074,1.16129032 19.72,1.42083871 19.72,1.74193548 L19.72,3.31722581 L22.53184,7.82070968 C22.6548,8.01870968 22.649,8.27129032 22.51502,8.46174194 L22.51502,8.46174194 Z M20.3,1.74193548 C20.3,0.780967742 21.08068,0 22.04,0 L23.2,0 C23.52074,0 23.78,0.259548387 23.78,0.580645161 L23.78,2.90322581 C23.78,3.22374194 23.52074,3.48387097 23.2,3.48387097 L22.04,3.48387097 C21.08068,3.48387097 20.3,2.70232258 20.3,1.74193548 L20.3,1.74193548 Z M21.46,1.74193548 C21.46,2.06245161 21.71984,2.32258065 22.04,2.32258065 L22.62,2.32258065 L22.62,1.16129032 L22.04,1.16129032 C21.71984,1.16129032 21.46,1.42141935 21.46,1.74193548 L21.46,1.74193548 Z M28.7825,9.99812903 L25.8825,7.67496774 C25.77926,7.59309677 25.65166,7.5483871 25.52,7.5483871 L23.78,7.5483871 C23.45926,7.5483871 23.2,7.80793548 23.2,8.12903226 C23.2,8.44954839 23.45926,8.70967742 23.78,8.70967742 L25.31642,8.70967742 L27.84,10.7303226 L27.84,11.6129032 L21.46,11.6129032 C21.13926,11.6129032 20.88,11.8724516 20.88,12.1935484 C20.88,12.5140645 21.13926,12.7741935 21.46,12.7741935 L28.42,12.7741935 C28.74074,12.7741935 29,12.5140645 29,12.1935484 L29,10.4516129 C29,10.2750968 28.91996,10.1084516 28.7825,9.99812903 L28.7825,9.99812903 Z M27.84,13.3548387 C27.51926,13.3548387 27.26,13.6143871 27.26,13.9354839 C27.26,15.5363226 25.95906,16.8387097 24.36,16.8387097 C22.76094,16.8387097 21.46,15.5363226 21.46,13.9354839 C21.46,13.6143871 21.20074,13.3548387 20.88,13.3548387 C20.55926,13.3548387 20.3,13.6143871 20.3,13.9354839 C20.3,16.1761935 22.12178,18 24.36,18 C26.59822,18 28.42,16.1761935 28.42,13.9354839 C28.42,13.6143871 28.16074,13.3548387 27.84,13.3548387 L27.84,13.3548387 Z M8.7,13.3548387 C8.37926,13.3548387 8.12,13.6143871 8.12,13.9354839 C8.12,15.5363226 6.81906,16.8387097 5.22,16.8387097 C3.62094,16.8387097 2.32,15.5363226 2.32,13.9354839 C2.32,13.6143871 2.06074,13.3548387 1.74,13.3548387 C1.41926,13.3548387 1.16,13.6143871 1.16,13.9354839 C1.16,16.1761935 2.98178,18 5.22,18 C7.45822,18 9.28,16.1761935 9.28,13.9354839 C9.28,13.6143871 9.02074,13.3548387 8.7,13.3548387 L8.7,13.3548387 Z M4.06,5.22580645 L13.92,5.22580645 C14.24074,5.22580645 14.5,4.96567742 14.5,4.64516129 C14.5,4.32406452 14.24074,4.06451613 13.92,4.06451613 L4.06,4.06451613 C3.73926,4.06451613 3.48,4.32406452 3.48,4.64516129 C3.48,4.96567742 3.73926,5.22580645 4.06,5.22580645 L4.06,5.22580645 Z M6.96,13.9354839 C6.96,13.6143871 6.70074,13.3548387 6.38,13.3548387 L4.06,13.3548387 C3.73926,13.3548387 3.48,13.6143871 3.48,13.9354839 C3.48,14.895871 4.26068,15.6774194 5.22,15.6774194 C6.17932,15.6774194 6.96,14.895871 6.96,13.9354839 L6.96,13.9354839 Z M26.1,13.9354839 C26.1,13.6143871 25.84074,13.3548387 25.52,13.3548387 L23.2,13.3548387 C22.87926,13.3548387 22.62,13.6143871 22.62,13.9354839 C22.62,14.895871 23.40068,15.6774194 24.36,15.6774194 C25.31932,15.6774194 26.1,14.895871 26.1,13.9354839 L26.1,13.9354839 Z"></path>
                </g>
            </g>
        </g>
    </g>
</svg>