<?xml version="1.0" encoding="UTF-8" standalone="no"?>
<svg width="40px" height="40px" viewBox="0 0 40 40" version="1.1" xmlns="http://www.w3.org/2000/svg" xmlns:xlink="http://www.w3.org/1999/xlink">
    <!-- Generator: Sketch 46.1 (44463) - http://www.bohemiancoding.com/sketch -->
    <title>seatbelt</title>
    <desc>Created with Sketch.</desc>
    <defs></defs>
    <g id="Icons" stroke="none" stroke-width="1" fill="none" fill-rule="evenodd">
        <g id="Automotive" transform="translate(-179.000000, -1185.000000)" fill="#231F20">
            <g id="Seatbelt" transform="translate(182.000000, 1200.000000)">
                <g>
                    <path d="M9.33333333,2.77777778 L9.33333333,7.22222222 C9.33333333,7.52888889 9.072,7.77777778 8.75,7.77777778 C8.428,7.77777778 8.16666667,7.52888889 8.16666667,7.22222222 L8.16666667,2.77777778 C8.16666667,2.47055556 8.428,2.22222222 8.75,2.22222222 C9.072,2.22222222 9.33333333,2.47055556 9.33333333,2.77777778 L9.33333333,2.77777778 Z M26.25,3.33333333 L26.25,6.66666667 C26.25,6.97333333 25.9886667,7.22222222 25.6666667,7.22222222 L22.1666667,7.22222222 C21.8446667,7.22222222 21.5833333,6.97333333 21.5833333,6.66666667 L21.5833333,3.33333333 C21.5833333,3.02611111 21.8446667,2.77777778 22.1666667,2.77777778 L25.6666667,2.77777778 C25.9886667,2.77777778 26.25,3.02611111 26.25,3.33333333 L26.25,3.33333333 Z M22.75,6.11111111 L25.0833333,6.11111111 L25.0833333,3.88888889 L22.75,3.88888889 L22.75,6.11111111 Z M35,7.22222222 C35,7.52888889 34.7386667,7.77777778 34.4166667,7.77777778 L28.5833333,7.77777778 C28.5833333,8.69666667 27.7981667,9.44444444 26.8333333,9.44444444 L21,9.44444444 C20.0351667,9.44444444 19.25,8.69666667 19.25,7.77777778 L19.25,2.22222222 C19.25,1.30277778 20.0351667,0.555555556 21,0.555555556 L26.8333333,0.555555556 C27.7981667,0.555555556 28.5833333,1.30277778 28.5833333,2.22222222 L34.4166667,2.22222222 C34.7386667,2.22222222 35,2.47055556 35,2.77777778 C35,3.08444444 34.7386667,3.33333333 34.4166667,3.33333333 L28.5833333,3.33333333 L28.5833333,6.66666667 L34.4166667,6.66666667 C34.7386667,6.66666667 35,6.915 35,7.22222222 L35,7.22222222 Z M27.4166667,7.22222222 L27.4166667,2.22222222 C27.4166667,1.91555556 27.15475,1.66666667 26.8333333,1.66666667 L21,1.66666667 C20.6785833,1.66666667 20.4166667,1.91555556 20.4166667,2.22222222 L20.4166667,7.77777778 C20.4166667,8.08388889 20.6785833,8.33333333 21,8.33333333 L26.8333333,8.33333333 C27.15475,8.33333333 27.4166667,8.08388889 27.4166667,7.77777778 L27.4166667,7.22222222 L27.4166667,7.22222222 Z M18.0833333,3.33333333 L18.0833333,6.66666667 C18.0833333,7.58555556 17.2981667,8.33333333 16.3333333,8.33333333 L13.6581667,8.33333333 L12.0790833,9.83722222 C11.9694167,9.94111111 11.82125,10 11.6666667,10 L7,10 C6.678,10 6.41666667,9.75111111 6.41666667,9.44444444 L6.41666667,7.77777778 L0.583333333,7.77777778 C0.261333333,7.77777778 0,7.52888889 0,7.22222222 C0,6.915 0.261333333,6.66666667 0.583333333,6.66666667 L6.41666667,6.66666667 L6.41666667,3.33333333 L0.583333333,3.33333333 C0.261333333,3.33333333 0,3.08444444 0,2.77777778 C0,2.47055556 0.261333333,2.22222222 0.583333333,2.22222222 L6.41666667,2.22222222 L6.41666667,0.555555556 C6.41666667,0.248333333 6.678,0 7,0 L11.6666667,0 C11.82125,0 11.9694167,0.0583333333 12.0790833,0.162777778 L13.6581667,1.66666667 L16.3333333,1.66666667 C17.2981667,1.66666667 18.0833333,2.41388889 18.0833333,3.33333333 L18.0833333,3.33333333 Z M12.8333333,7.54777778 L12.8333333,2.45222222 L11.4251667,1.11111111 L7.58333333,1.11111111 L7.58333333,8.88888889 L11.4251667,8.88888889 L12.8333333,7.54777778 L12.8333333,7.54777778 Z M16.9166667,3.33333333 C16.9166667,3.02666667 16.65475,2.77777778 16.3333333,2.77777778 L14,2.77777778 L14,7.22222222 L16.3333333,7.22222222 C16.65475,7.22222222 16.9166667,6.97277778 16.9166667,6.66666667 L16.9166667,3.33333333 L16.9166667,3.33333333 Z"></path>
                </g>
            </g>
        </g>
    </g>
</svg>