<?xml version="1.0" encoding="UTF-8" standalone="no"?>
<svg width="40px" height="40px" viewBox="0 0 40 40" version="1.1" xmlns="http://www.w3.org/2000/svg" xmlns:xlink="http://www.w3.org/1999/xlink">
    <!-- Generator: Sketch 46.1 (44463) - http://www.bohemiancoding.com/sketch -->
    <title>servicevan</title>
    <desc>Created with Sketch.</desc>
    <defs></defs>
    <g id="Icons" stroke="none" stroke-width="1" fill="none" fill-rule="evenodd">
        <g id="Automotive" transform="translate(-869.000000, -1445.000000)" fill="#231F20">
            <g id="Van" transform="translate(872.000000, 1458.000000)">
                <g>
                    <path d="M22.4,5.6 C22.0129,5.6 21.7,5.2864 21.7,4.9 C21.7,4.5129 22.0129,4.2 22.4,4.2 L25.2,4.2 C25.5871,4.2 25.9,4.5129 25.9,4.9 C25.9,5.2864 25.5871,5.6 25.2,5.6 L22.4,5.6 L22.4,5.6 Z M32.2,10.85 C32.2,12.5867 30.7867,14 29.05,14 C27.9601,14 26.999,13.4428 26.4334,12.6 L12.6,12.6 C12.2129,12.6 11.9,12.2864 11.9,11.9 C11.9,11.5129 12.2129,11.2 12.6,11.2 L25.935,11.2 C25.9224,11.0838 25.9,10.9697 25.9,10.85 C25.9,9.1126 27.3133,7.7 29.05,7.7 C30.7867,7.7 32.2,9.1126 32.2,10.85 L32.2,10.85 Z M30.8,10.85 C30.8,9.8847 30.0153,9.1 29.05,9.1 C28.0847,9.1 27.3,9.8847 27.3,10.85 C27.3,11.8153 28.0847,12.6 29.05,12.6 C30.0153,12.6 30.8,11.8153 30.8,10.85 L30.8,10.85 Z M35,6.3 L35,10.5 C35,10.8864 34.6871,11.2 34.3,11.2 C33.9129,11.2 33.6,10.8864 33.6,10.5 L33.6,6.8467 L28.5306,5.5783 C28.4074,5.5475 28.2947,5.4845 28.2051,5.3949 L24.2102,1.4 L21,1.4 L21,9.1 C21,9.4864 20.6871,9.8 20.3,9.8 C19.9129,9.8 19.6,9.4864 19.6,9.1 L19.6,1.4 L2.6467,1.4 L1.4,6.3861 L1.4,11.2 L4.235,11.2 C4.2224,11.0838 4.2,10.9697 4.2,10.85 C4.2,9.1126 5.6133,7.7 7.35,7.7 C9.0867,7.7 10.5,9.1126 10.5,10.85 C10.5,12.5867 9.0867,14 7.35,14 C6.2601,14 5.299,13.4428 4.7334,12.6 L0.7,12.6 C0.3129,12.6 0,12.2864 0,11.9 L0,6.3 C0,6.2426 0.007,6.1859 0.021,6.1299 L1.421,0.5306 C1.4994,0.2184 1.7787,0 2.1,0 L24.5,0 C24.6862,0 24.8633,0.0735 24.9949,0.2051 L29.0584,4.2672 L34.4694,5.621 C34.7816,5.6987 35,5.9787 35,6.3 L35,6.3 Z M5.6,10.85 C5.6,11.8153 6.3847,12.6 7.35,12.6 C8.3153,12.6 9.1,11.8153 9.1,10.85 C9.1,9.8847 8.3153,9.1 7.35,9.1 C6.3847,9.1 5.6,9.8847 5.6,10.85 L5.6,10.85 Z"></path>
                </g>
            </g>
        </g>
    </g>
</svg>