<?xml version="1.0" encoding="UTF-8" standalone="no"?>
<svg width="40px" height="40px" viewBox="0 0 40 40" version="1.1" xmlns="http://www.w3.org/2000/svg" xmlns:xlink="http://www.w3.org/1999/xlink">
    <!-- Generator: Sketch 46.1 (44463) - http://www.bohemiancoding.com/sketch -->
    <title>simulationcar</title>
    <desc>Created with Sketch.</desc>
    <defs></defs>
    <g id="Icons" stroke="none" stroke-width="1" fill="none" fill-rule="evenodd">
        <g id="Automotive" transform="translate(-697.000000, -1185.000000)" fill="#231F20">
            <g id="Simulation-Car" transform="translate(702.000000, 1194.000000)">
                <g>
                    <path d="M16.3228846,12.481525 C16.0973077,12.2567 16.0973077,11.892725 16.3228846,11.668475 L19.2075,8.793475 C19.4325,8.56865 19.7976923,8.56865 20.0232692,8.793475 C20.2488462,9.017725 20.2488462,9.3817 20.0232692,9.606525 L17.1386538,12.481525 C17.0261538,12.59365 16.8784615,12.65 16.7307692,12.65 C16.5830769,12.65 16.4353846,12.59365 16.3228846,12.481525 L16.3228846,12.481525 Z M29.4230769,21.85 L25.9615385,21.85 L25.9615385,17.825 C25.9615385,17.67205 25.9003846,17.526 25.7925,17.418475 L20.0232692,11.668475 C19.7976923,11.44365 19.4325,11.44365 19.2075,11.668475 C18.9819231,11.892725 18.9819231,12.2567 19.2075,12.481525 L24.8076923,18.06305 L24.8076923,21.85 L20.1923077,21.85 C19.8732692,21.85 19.6153846,22.107025 19.6153846,22.425 C19.6153846,22.7424 19.8732692,23 20.1923077,23 L29.4230769,23 C29.7421154,23 30,22.7424 30,22.425 C30,22.107025 29.7421154,21.85 29.4230769,21.85 L29.4230769,21.85 Z M18.4615385,17.697925 L18.4615385,22.425 C18.4615385,22.7424 18.2036538,23 17.8846154,23 L7.88826923,23 C6.74019231,23 5.66019231,22.5538 4.84788462,21.744775 C4.36384615,21.26235 3.99865385,20.663775 3.79096154,20.01345 L0.0271153846,8.22365 C0.00923076923,8.167875 0,8.10865 0,8.05 L0,1.725 C0,0.773375 0.776538462,0 1.73076923,0 C2.685,0 3.46153846,0.773375 3.46153846,1.725 L3.46153846,6.0375 L4.54615385,6.84825 C5.27942308,7.396225 5.84769231,8.134525 6.18865385,8.98495 L8.03596154,13.586675 C8.08326923,13.70455 8.08961538,13.835075 8.055,13.95755 L7.61192308,15.50315 C7.50923077,15.861375 7.65403846,16.12645 7.74980769,16.252375 C7.96384615,16.535275 8.32961538,16.66235 8.67576923,16.56345 L14.2644231,14.97185 C14.3157692,14.9569 14.3694231,14.95 14.4230769,14.95 L15.7044231,14.95 C17.2246154,14.95 18.4615385,16.182225 18.4615385,17.697925 L18.4615385,17.697925 Z M17.3076923,17.697925 C17.3076923,16.817025 16.5882692,16.1 15.7044231,16.1 L14.5038462,16.1 L8.9925,17.66975 C8.19807692,17.895725 7.32346154,17.599025 6.82846154,16.944675 C6.44596154,16.43925 6.32711538,15.7987 6.5025,15.187475 L6.89076923,13.830475 L5.11730769,9.4116 C4.85480769,8.757825 4.41807692,8.189725 3.85384615,7.76825 L2.53788462,6.785 C2.39307692,6.676325 2.30769231,6.50555 2.30769231,6.325 L2.30769231,1.725 C2.30769231,1.4076 2.04923077,1.15 1.73076923,1.15 C1.41230769,1.15 1.15384615,1.4076 1.15384615,1.725 L1.15384615,7.9603 L4.89057692,19.665575 C5.04230769,20.140525 5.30942308,20.578675 5.66365385,20.931725 C6.25788462,21.5234 7.04826923,21.85 7.88826923,21.85 L17.3076923,21.85 L17.3076923,17.697925 L17.3076923,17.697925 Z"></path>
                </g>
            </g>
        </g>
    </g>
</svg>