<?xml version="1.0" encoding="UTF-8" standalone="no"?>
<svg width="40px" height="40px" viewBox="0 0 40 40" version="1.1" xmlns="http://www.w3.org/2000/svg" xmlns:xlink="http://www.w3.org/1999/xlink">
    <!-- Generator: Sketch 46.1 (44463) - http://www.bohemiancoding.com/sketch -->
    <title>skidloader</title>
    <desc>Created with Sketch.</desc>
    <defs></defs>
    <g id="Icons" stroke="none" stroke-width="1" fill="none" fill-rule="evenodd">
        <g id="Automotive" transform="translate(-869.000000, -1185.000000)" fill="#231F20">
            <g id="Skid-Loader" transform="translate(871.000000, 1194.000000)">
                <g>
                    <path d="M6.23076923,17.7419355 C6.23076923,16.9577419 6.85038462,16.3225806 7.61538462,16.3225806 C8.38038462,16.3225806 9,16.9577419 9,17.7419355 C9,18.526129 8.38038462,19.1612903 7.61538462,19.1612903 C6.85038462,19.1612903 6.23076923,18.526129 6.23076923,17.7419355 L6.23076923,17.7419355 Z M18,16.3225806 C17.235,16.3225806 16.6153846,16.9577419 16.6153846,17.7419355 C16.6153846,18.526129 17.235,19.1612903 18,19.1612903 C18.765,19.1612903 19.3846154,18.526129 19.3846154,17.7419355 C19.3846154,16.9577419 18.765,16.3225806 18,16.3225806 L18,16.3225806 Z M22.1538462,17.7419355 C22.1538462,20.0895484 20.2901538,22 18,22 C15.7091538,22 13.8461538,20.0895484 13.8461538,17.7419355 C13.8461538,15.3936129 15.7091538,13.483871 18,13.483871 C20.2901538,13.483871 22.1538462,15.3936129 22.1538462,17.7419355 L22.1538462,17.7419355 Z M20.7692308,17.7419355 C20.7692308,16.1763871 19.5272308,14.9032258 18,14.9032258 C16.4727692,14.9032258 15.2307692,16.1763871 15.2307692,17.7419355 C15.2307692,19.3074839 16.4727692,20.5806452 18,20.5806452 C19.5272308,20.5806452 20.7692308,19.3074839 20.7692308,17.7419355 L20.7692308,17.7419355 Z M7.39592308,5.64051613 C7.46930769,5.66535484 7.54338462,5.67741935 7.61538462,5.67741935 C7.90546154,5.67741935 8.17476923,5.48935484 8.27169231,5.192 L9.49915385,1.41935484 L16.0601538,1.41935484 L17.3236154,7.25006452 C17.3956154,7.58077419 17.6822308,7.80645161 17.9993077,7.80645161 C18.0491538,7.80645161 18.0996923,7.80077419 18.1502308,7.78941935 C18.5233846,7.70425806 18.7587692,7.32529032 18.6763846,6.94277419 L17.4786923,1.41935484 L20.0769231,1.41935484 C20.4597692,1.41935484 20.7692308,1.10141935 20.7692308,0.709677419 C20.7692308,0.317225806 20.4597692,0 20.0769231,0 L9,0 C8.70161538,0 8.43784615,0.19516129 8.34369231,0.484709677 L6.95907692,4.74277419 C6.83792308,5.11535484 7.03384615,5.51703226 7.39592308,5.64051613 L7.39592308,5.64051613 Z M36,18.4516129 L36,20.5806452 C36,20.9723871 35.6905385,21.2903226 35.3076923,21.2903226 L26.3076923,21.2903226 C26.0307692,21.2903226 25.7801538,21.1207097 25.6714615,20.8595484 L21.6581538,11.261871 L2.99215385,7.16206452 L1.38461538,8.80993548 L1.38461538,14.1935484 C1.38461538,15.5405161 2.30607692,16.6653548 3.53561538,16.9549032 C3.897,14.982 5.58761538,13.483871 7.61538462,13.483871 C9.90553846,13.483871 11.7692308,15.3936129 11.7692308,17.7419355 C11.7692308,20.0895484 9.90553846,22 7.61538462,22 C5.54261538,22 3.82430769,20.4337419 3.51553846,18.3955484 C1.52792308,18.0797419 0,16.3183226 0,14.1935484 L0,8.51612903 C0,8.32735484 0.0726923077,8.14709677 0.202846154,8.0143871 L2.27976923,5.88535484 C2.44523077,5.71503226 2.68130769,5.63980645 2.91461538,5.69303226 L22.2992308,9.95109677 C22.518,9.99935484 22.7014615,10.1533548 22.7900769,10.3655484 L26.7639231,19.8709677 L34.6153846,19.8709677 L34.6153846,18.8696129 L29.2984615,15.8414194 L28.2683077,17.4254194 C28.0557692,17.7504516 27.6272308,17.8384516 27.3080769,17.6227097 C26.9896154,17.4048387 26.9037692,16.9648387 27.1163077,16.6383871 L28.5009231,14.5093548 C28.701,14.2027742 29.097,14.104129 29.4126923,14.2829677 L35.6434615,17.8313548 C35.8636154,17.9555484 36,18.1932903 36,18.4516129 L36,18.4516129 Z M4.84615385,17.7419355 C4.84615385,19.3074839 6.08815385,20.5806452 7.61538462,20.5806452 C9.14261538,20.5806452 10.3846154,19.3074839 10.3846154,17.7419355 C10.3846154,16.1763871 9.14261538,14.9032258 7.61538462,14.9032258 C6.08815385,14.9032258 4.84615385,16.1763871 4.84615385,17.7419355 L4.84615385,17.7419355 Z"></path>
                </g>
            </g>
        </g>
    </g>
</svg>