<?xml version="1.0" encoding="UTF-8" standalone="no"?>
<svg width="40px" height="40px" viewBox="0 0 40 40" version="1.1" xmlns="http://www.w3.org/2000/svg" xmlns:xlink="http://www.w3.org/1999/xlink">
    <!-- Generator: Sketch 46.1 (44463) - http://www.bohemiancoding.com/sketch -->
    <title>smile</title>
    <desc>Created with Sketch.</desc>
    <defs></defs>
    <g id="Page-1" stroke="none" stroke-width="1" fill="none" fill-rule="evenodd">
        <g id="50-Emoji-Icons" transform="translate(-675.000000, -1790.000000)" fill="#000000">
            <g id="smile" transform="translate(681.000000, 1796.000000)">
                <path d="M13.9998108,0 C6.28032432,0 0,6.28032432 0,13.9998108 C0,21.7192973 6.28032432,27.9996216 13.9998108,27.9996216 C21.7192973,27.9996216 27.9996216,21.7192973 27.9996216,13.9998108 C27.9996216,6.28032432 21.7193919,0 13.9998108,0 L13.9998108,0 Z M13.9998108,26.4861081 C10.5701892,26.4861081 7.45925676,25.0959459 5.20043243,22.8498919 C4.29837838,21.9529459 3.53263514,20.9192162 2.93640541,19.7831351 C2.0282973,18.0530946 1.51351351,16.085527 1.51351351,13.9998108 C1.51351351,7.11483784 7.11483784,1.51351351 13.9998108,1.51351351 C17.2655,1.51351351 20.2418243,2.77427027 22.4691486,4.83397297 C23.6239595,5.90175676 24.5775676,7.18408108 25.2651757,8.61737838 C26.047473,10.2480946 26.4861081,12.0736757 26.4861081,13.9998108 C26.4861081,20.8847838 20.8847838,26.4861081 13.9998108,26.4861081 L13.9998108,26.4861081 Z M24.2812973,5.6542973 C24.2913973,5.6665973 24.3015973,5.6786973 24.3115973,5.6910973 C24.3015973,5.6787973 24.2912973,5.6665973 24.2812973,5.6542973 L24.2812973,5.6542973 Z" id="Shape"></path>
                <circle id="Oval" cx="9.31728378" cy="10.9727838" r="1.51351351"></circle>
                <circle id="Oval" cx="18.6821486" cy="10.9727838" r="1.51351351"></circle>
                <path d="M13.9997162,19.2407297 C16.3683649,19.2407297 18.6349459,18.4202162 20.4531486,16.9498378 C20.9711486,17.8741216 22.0087568,18.5020405 23.0492973,18.5020405 L23.0492973,16.988527 C22.2925405,16.988527 21.5738108,16.3266486 21.5738108,15.5130405 C21.5738108,14.699527 22.2925405,14.0377432 23.0492973,14.0377432 L23.0492973,12.5242297 C21.5357838,12.5242297 20.2243243,13.726527 20.0883919,15.2532838 C18.4580541,16.8324459 16.2760405,17.7271216 13.9918649,17.7271216 C11.6848919,17.7271216 9.51962162,16.8511757 7.87566216,15.2536622 C7.73991892,13.7268108 6.40064865,12.5243243 4.88713514,12.5243243 L4.88713514,14.0378378 C5.73848649,14.0378378 6.36262162,14.6996216 6.36262162,15.5131351 C6.36262162,16.3267432 5.73848649,16.9886216 4.88713514,16.9886216 L4.88713514,18.5021351 C6.02227027,18.5021351 6.9947027,17.8755405 7.51317568,16.9526757 C9.33610811,18.4363919 11.6054324,19.2407297 13.9997162,19.2407297 L13.9997162,19.2407297 Z" id="Shape"></path>
            </g>
        </g>
    </g>
</svg>