<?xml version="1.0" encoding="UTF-8" standalone="no"?>
<svg width="40px" height="40px" viewBox="0 0 40 40" version="1.1" xmlns="http://www.w3.org/2000/svg" xmlns:xlink="http://www.w3.org/1999/xlink">
    <!-- Generator: Sketch 46.1 (44463) - http://www.bohemiancoding.com/sketch -->
    <title>snow</title>
    <desc>Created with Sketch.</desc>
    <defs></defs>
    <g id="Page-1" stroke="none" stroke-width="1" fill="none" fill-rule="evenodd" stroke-linecap="round">
        <g id="Artboard-1-Copy-7" transform="translate(-976.000000, -409.000000)" stroke="#000000">
            <g id="icons" transform="translate(331.000000, 269.000000)">
                <g id="snow" transform="translate(649.000000, 145.000000)">
                    <g id="3" transform="translate(12.000000, 0.000000)">
                        <path d="M4.5,2.38461538 L4.5,27" id="Line"></path>
                        <polyline id="Rectangle-1-Copy" transform="translate(4.466242, 4.200685) rotate(-45.000000) translate(-4.466242, -4.200685) " points="7.22996178 6.89299268 1.70252276 6.89299268 1.70252276 1.50837729"></polyline>
                        <polyline id="Rectangle-1-Copy-2" transform="translate(4.450329, 25.711324) scale(1, -1) rotate(-45.000000) translate(-4.450329, -25.711324) " points="7.2140488 28.4036319 1.68660978 28.4036319 1.68660978 23.0190166"></polyline>
                    </g>
                    <g id="2" transform="translate(16.066987, 14.750000) rotate(-60.000000) translate(-16.066987, -14.750000) translate(11.566987, -0.750000)">
                        <path d="M4,3 L4,27.9940828" id="Line"></path>
                        <polyline id="Rectangle-1-Copy" transform="translate(4.347923, 5.000004) rotate(-45.000000) translate(-4.347923, -5.000004) " points="7.33098575 7.73373219 1.36486108 7.73373219 1.36486108 2.26627657"></polyline>
                        <polyline id="Rectangle-1-Copy-2" transform="translate(4.347923, 26.869827) scale(1, -1) rotate(-45.000000) translate(-4.347923, -26.869827) " points="7.33098575 29.6035547 1.36486108 29.6035547 1.36486108 24.1360991"></polyline>
                    </g>
                    <g id="1" transform="translate(16.066987, 15.250000) rotate(60.000000) translate(-16.066987, -15.250000) translate(11.566987, -0.250000)">
                        <path d="M4,3 L4,27.9940828" id="Line"></path>
                        <polyline id="Rectangle-1-Copy" transform="translate(4.555193, 4.130173) rotate(-45.000000) translate(-4.555193, -4.130173) " points="7.53825545 6.86390095 1.57213079 6.86390095 1.57213079 1.39644532"></polyline>
                        <polyline id="Rectangle-1-Copy-2" transform="translate(4.555193, 25.999996) scale(1, -1) rotate(-45.000000) translate(-4.555193, -25.999996) " points="7.53825545 28.7337234 1.57213079 28.7337234 1.57213079 23.2662678"></polyline>
                    </g>
                </g>
            </g>
        </g>
    </g>
</svg>