<?xml version="1.0" encoding="UTF-8" standalone="no"?>
<svg width="40px" height="40px" viewBox="0 0 40 40" version="1.1" xmlns="http://www.w3.org/2000/svg" xmlns:xlink="http://www.w3.org/1999/xlink">
    <!-- Generator: Sketch 46.1 (44463) - http://www.bohemiancoding.com/sketch -->
    <title>snowbike</title>
    <desc>Created with Sketch.</desc>
    <defs></defs>
    <g id="Icons" stroke="none" stroke-width="1" fill="none" fill-rule="evenodd">
        <g id="Automotive" transform="translate(-1042.000000, -1185.000000)" fill="#231F20">
            <g id="Snowmobile" transform="translate(1044.000000, 1196.000000)">
                <g>
                    <path d="M35.712766,15.79375 L33.2877447,17.71883 C32.2468085,18.54495 30.9385532,19.00019 29.6050213,19.00019 L18.3829787,19.00019 C17.9594043,19.00019 17.6170213,18.65971 17.6170213,18.24019 C17.6170213,17.81991 17.9594043,17.48019 18.3829787,17.48019 L23.7446809,17.48019 L23.7446809,15.96019 L18.3799149,15.96019 C18.3125106,15.96019 18.2458723,15.95107 18.180766,15.93435 L16.1969362,15.40387 L12.7968511,18.77751 C12.6528511,18.91963 12.4590638,19.00019 12.2553191,19.00019 L2.68085106,19.00019 C1.20255319,19.00019 0,17.80623 0,16.34019 C0,14.87339 1.20255319,13.68019 2.68085106,13.68019 L6.89361702,13.68019 C7.31719149,13.68019 7.65957447,14.01991 7.65957447,14.44019 C7.65957447,14.85971 7.31719149,15.20019 6.89361702,15.20019 L2.68085106,15.20019 C2.04740426,15.20019 1.53191489,15.71167 1.53191489,16.34019 C1.53191489,16.96871 2.04740426,17.48019 2.68085106,17.48019 L11.9382128,17.48019 L14.489617,14.94787 L1.96391489,11.60159 C0.984255319,11.34015 0.256595745,10.56343 0.0643404255,9.57467 C-0.127914894,8.58667 0.257361702,7.59639 1.06851064,6.99219 C1.20178723,6.89339 1.3626383,6.84019 1.52885106,6.84019 L18.0658723,6.84019 L20.9052766,4.02287 C21.204,3.72571 21.6888511,3.72571 21.9883404,4.02287 C22.2878298,4.31927 22.2878298,4.80035 21.9883404,5.09751 L18.9245106,8.13751 C18.7805106,8.27963 18.5867234,8.36019 18.3829787,8.36019 L1.82144681,8.36019 C1.59548936,8.61023 1.50204255,8.94311 1.56868085,9.28739 C1.64987234,9.70615 1.94706383,10.02307 2.36221277,10.13403 L18.4810213,14.44019 L28.8199149,14.44019 L31.6960851,11.99451 C32.039234,11.70191 32.2146383,11.27859 32.1763404,10.83095 C32.1380426,10.38483 31.8937021,9.99647 31.5068936,9.76543 L26.4109787,6.73151 C26.3573617,6.69959 26.3083404,6.66083 26.2639149,6.61751 L20.9022128,1.29751 C20.6027234,1.00035 20.6027234,0.51927 20.9022128,0.22287 C21.2017021,-0.07429 21.6865532,-0.07429 21.9852766,0.22287 L27.2803404,5.47675 L32.2942979,8.46203 C33.1085106,8.94691 33.6224681,9.76315 33.7021277,10.70327 C33.7817872,11.64263 33.4141277,12.53411 32.6925957,13.14819 L29.6011915,15.77627 C29.4633191,15.89559 29.285617,15.96019 29.1033191,15.96019 L25.2765957,15.96019 L25.2765957,17.48019 L29.6050213,17.48019 C30.5923404,17.48019 31.5605106,17.14275 32.3302979,16.53171 L34.7553191,14.60663 C35.0869787,14.34367 35.568,14.39763 35.8322553,14.72519 C36.0965106,15.05275 36.0428936,15.53079 35.712766,15.79375"></path>
                </g>
            </g>
        </g>
    </g>
</svg>