<?xml version="1.0" encoding="UTF-8" standalone="no"?>
<svg width="41px" height="40px" viewBox="0 0 41 40" version="1.1" xmlns="http://www.w3.org/2000/svg" xmlns:xlink="http://www.w3.org/1999/xlink">
    <!-- Generator: Sketch 46.1 (44463) - http://www.bohemiancoding.com/sketch -->
    <title>solar_system</title>
    <desc>Created with Sketch.</desc>
    <defs></defs>
    <g id="Page-1" stroke="none" stroke-width="1" fill="none" fill-rule="evenodd">
        <g id="30-Universe-Element-Icons" transform="translate(-482.000000, -164.000000)" fill="#000000">
            <g id="solar_system" transform="translate(482.333333, 164.000000)">
                <g transform="translate(6.000000, 7.000000)" id="Shape">
                    <path d="M14,23 C9.0373886,23 5,18.9625996 5,13.9999736 C5,9.03734769 9.0373886,5 14,5 C18.9626114,5 23,9.03740043 23,14.0000264 C23,18.9626523 18.9626114,23 14,23 L14,23 Z M14,6.49997803 C9.86452566,6.49997803 6.50002637,9.86448717 6.50002637,13.9999736 C6.50002637,18.1354601 9.86452566,21.4999692 14,21.4999692 C18.1354743,21.4999692 21.4999736,18.1354601 21.4999736,13.9999736 C21.4999736,9.86448717 18.1354743,6.49997803 14,6.49997803 L14,6.49997803 Z"></path>
                    <path d="M22,7 C20.3457786,7 19,5.65422138 19,4 C19,2.34577862 20.3457786,1 22,1 C23.6542214,1 25,2.34577862 25,4 C25,5.65422138 23.6541686,7 22,7 L22,7 Z M22,2.50002637 C21.1729157,2.50002637 20.5000264,3.17291568 20.5000264,4 C20.5000264,4.82708432 21.1729157,5.49997363 22,5.49997363 C22.8270843,5.49997363 23.4999736,4.82708432 23.4999736,4 C23.4999736,3.17291568 22.8270843,2.50002637 22,2.50002637 L22,2.50002637 Z"></path>
                    <path d="M13.5,18 C11.0186727,18 9,15.9813273 9,13.5 C9,11.0186727 11.0186727,9 13.5,9 C15.9813273,9 18,11.0186727 18,13.5 C18,15.9813273 15.9813273,18 13.5,18 L13.5,18 Z M13.5,10.5098908 C11.8512492,10.5098908 10.5098908,11.8512492 10.5098908,13.5 C10.5098908,15.1487508 11.8512492,16.4901092 13.5,16.4901092 C15.1487508,16.4901092 16.4901092,15.1487508 16.4901092,13.5 C16.4901092,11.8512492 15.1487508,10.5098908 13.5,10.5098908 L13.5,10.5098908 Z"></path>
                    <path d="M1.62417364,19 C1.32175852,19 1.03628289,18.8170641 0.920096014,18.51826 C0.309583873,16.9478791 0,15.2911546 0,13.5940727 C0,6.09832226 6.09832438,0 13.5940774,0 C15.291691,0 16.948416,0.309636867 18.5183196,0.920255001 C18.9070252,1.07143596 19.0996257,1.50910138 18.9484447,1.8979131 C18.7973168,2.28661861 18.3595981,2.47911281 17.9707862,2.32803805 C16.5760658,1.78549649 15.1036041,1.51042892 13.5940774,1.51042892 C6.93117403,1.51042892 1.51042945,6.93117162 1.51042945,13.5940727 C1.51042945,15.1030679 1.78549711,16.5756883 2.32787956,17.9708862 C2.47900746,18.3595917 2.286407,18.7972571 1.89764825,18.9484381 C1.80779989,18.9833791 1.71519024,19 1.62417364,19 L1.62417364,19 Z"></path>
                    <path d="M13.4058967,27 C11.7088109,27 10.0520827,26.6904161 8.48175135,26.0798507 C8.09304496,25.9287228 7.90039102,25.4910572 8.05151922,25.1022984 C8.20264742,24.7135926 8.64052623,24.520939 9.02907332,24.672067 C10.4242744,25.2145557 11.8968981,25.4896234 13.4058967,25.4896234 C20.0688128,25.4896234 25.4895677,20.0689311 25.4895677,13.4059735 C25.4895677,11.8964466 25.2144995,10.4239847 24.672116,9.02926403 C24.5209347,8.64055831 24.7134824,8.20283957 25.1022419,8.05160544 C25.4908952,7.9003182 25.9286678,8.0929718 26.0799022,8.48173061 C26.6903624,10.0515813 27,11.7083066 27,13.4059204 C27,20.9016747 20.901664,27 13.4058967,27 L13.4058967,27 Z"></path>
                    <path d="M4,25 C2.34577862,25 1,23.6542214 1,22 C1,20.3457786 2.34577862,19 4,19 C5.65422138,19 7,20.3457786 7,22 C7,23.6542214 5.65422138,25 4,25 L4,25 Z M4,20.4999736 C3.17291568,20.4999736 2.50002637,21.1728629 2.50002637,21.9999473 C2.50002637,22.8270316 3.17291568,23.4999209 4,23.4999209 C4.82708432,23.4999209 5.49997363,22.8270316 5.49997363,21.9999473 C5.50002637,21.1728629 4.82713706,20.4999736 4,20.4999736 L4,20.4999736 Z"></path>
                </g>
            </g>
        </g>
    </g>
</svg>