<?xml version="1.0" encoding="UTF-8" standalone="no"?>
<svg width="41px" height="40px" viewBox="0 0 41 40" version="1.1" xmlns="http://www.w3.org/2000/svg" xmlns:xlink="http://www.w3.org/1999/xlink">
    <!-- Generator: Sketch 46.1 (44463) - http://www.bohemiancoding.com/sketch -->
    <title>solar_system2</title>
    <desc>Created with Sketch.</desc>
    <defs></defs>
    <g id="Page-1" stroke="none" stroke-width="1" fill="none" fill-rule="evenodd">
        <g id="30-Universe-Element-Icons" transform="translate(-713.000000, -164.000000)" fill="#000000">
            <g id="solar_system2" transform="translate(713.666667, 164.000000)">
                <g transform="translate(5.000000, 5.000000)" id="Shape">
                    <path d="M14.2241831,24.8452747 C11.8913571,24.8452747 9.69811483,23.9367781 8.04861047,22.2872151 C4.64343362,18.8820383 4.64343362,13.3413639 8.04861047,9.93612839 C11.4539632,6.5308343 16.9944617,6.53095155 20.3997558,9.93612839 C22.6719646,12.2084545 23.5121642,15.5344302 22.5925291,18.6163542 C22.4517141,19.0883362 21.9549341,19.3566584 21.4830107,19.2159608 C21.0110286,19.0751458 20.7425305,18.5783072 20.8834041,18.1063251 C21.6154423,15.6530853 20.9468353,13.0057413 19.1385184,11.197483 C17.8258091,9.88477374 16.0806303,9.16188081 14.2241831,9.16188081 C12.3677359,9.16188081 10.6224985,9.88477374 9.30984787,11.197483 C6.60012791,13.907203 6.60012791,18.316375 9.30984787,21.0262122 C10.6225572,22.3389215 12.3677359,23.0618144 14.2241831,23.0618144 C16.0806303,23.0618144 17.8258677,22.3389215 19.1385184,21.0262122 C19.4868624,20.6779268 20.0514118,20.6778682 20.3998144,21.0262122 C20.7480998,21.3744976 20.7480998,21.9391642 20.3998144,22.2874496 C18.7502515,23.9367781 16.5570678,24.8452747 14.2241831,24.8452747 L14.2241831,24.8452747 Z"></path>
                    <path d="M14.2241831,20.7499758 C12.9852229,20.7499758 11.8205979,20.2675 10.9444617,19.3915397 C9.13608624,17.5831056 9.13608624,14.6404724 10.9444617,12.8320383 C11.8204806,11.9560194 12.9853401,11.4736022 14.2241831,11.4736022 C15.4633193,11.4736022 16.6279443,11.956078 17.5039046,12.8321555 C19.31228,14.640531 19.31228,17.5831056 17.5039046,19.3915984 C16.6279443,20.2675 15.4631434,20.7499758 14.2241831,20.7499758 L14.2241831,20.7499758 Z M14.2241831,13.2571211 C13.4616604,13.2571211 12.7448057,13.5539932 12.2056991,14.0932171 C11.0927805,15.2061943 11.0927805,17.0172665 12.2056991,18.1303023 C12.744923,18.6694089 13.4616604,18.9663983 14.2241831,18.9663983 C14.9867059,18.9663983 15.7035606,18.6695262 16.2426672,18.1303023 C17.3556444,17.0172665 17.3556444,15.2062529 16.2426672,14.0932171 C15.7035606,13.5540518 14.9868232,13.2571211 14.2241831,13.2571211 L14.2241831,13.2571211 Z"></path>
                    <path d="M14.1981541,30.0741865 C10.573313,30.0741865 6.9484719,28.6944113 4.18892151,25.9349196 C1.92374758,23.669687 0.482124031,20.6720644 0.129676357,17.4943488 C-0.217319283,14.3656429 0.495842054,11.1746197 2.13801841,8.50916085 C2.39631589,8.08982316 2.94574031,7.95915019 3.365078,8.21762355 C3.7844157,8.47597965 3.91497141,9.02534545 3.65661531,9.44468314 C0.641171027,14.3396725 1.37871996,20.6020673 5.45027616,24.6736235 C10.2738614,29.4972088 18.1225053,29.4972674 22.9462665,24.6736235 C23.2947863,24.3253382 23.8593358,24.3254554 24.2075625,24.6736235 C24.5558479,25.0219675 24.5558479,25.5865756 24.2075625,25.9349196 C21.4478362,28.69447 17.8229365,30.0741865 14.1981541,30.0741865 L14.1981541,30.0741865 Z"></path>
                    <path d="M25.9261759,27.7054826 C23.9591638,27.7054826 22.358845,26.1051638 22.358845,24.1381516 C22.358845,22.1711395 23.9591638,20.5708207 25.9261759,20.5708207 C27.893188,20.5708207 29.4935068,22.1711395 29.4935068,24.1381516 C29.4935068,26.1051638 27.8931294,27.7054826 25.9261759,27.7054826 L25.9261759,27.7054826 Z M25.9261759,22.3545155 C24.9426405,22.3545155 24.1425397,23.1546749 24.1425397,24.1381516 C24.1425397,25.1216284 24.9426991,25.9217878 25.9261759,25.9217878 C26.9096526,25.9217878 27.709812,25.1216284 27.709812,24.1381516 C27.709812,23.1546749 26.9097112,22.3545155 25.9261759,22.3545155 L25.9261759,22.3545155 Z"></path>
                    <path d="M4.41403779,9.868828 C2.44702568,9.868828 0.84670688,8.26850921 0.84670688,6.30149709 C0.84670688,4.33448498 2.44702568,2.73416618 4.41403779,2.73416618 C6.3810499,2.73416618 7.9813687,4.33448498 7.9813687,6.30149709 C7.9813687,8.26850921 6.38099128,9.868828 4.41403779,9.868828 L4.41403779,9.868828 Z M4.41403779,4.51786095 C3.43050242,4.51786095 2.63040165,5.31802035 2.63040165,6.30149709 C2.63040165,7.28497384 3.43056105,8.08513324 4.41403779,8.08513324 C5.39751453,8.08513324 6.19767393,7.28497384 6.19767393,6.30149709 C6.19767393,5.31802035 5.39757316,4.51786095 4.41403779,4.51786095 L4.41403779,4.51786095 Z"></path>
                    <path d="M25.971032,18.1882229 C25.74275,18.1882229 25.5145853,18.1011662 25.3404133,17.9269942 C24.9921279,17.5787088 24.9921279,17.0140422 25.3404133,16.6656982 L27.8628881,14.1432234 C28.2112321,13.794938 28.7757815,13.794938 29.1241841,14.1432234 C29.4724695,14.4915087 29.4724695,15.0561754 29.1241841,15.4045194 L26.6017093,17.9269942 C26.4274787,18.1011662 26.1992553,18.1882229 25.971032,18.1882229 L25.971032,18.1882229 Z"></path>
                    <path d="M28.4935068,18.1882229 C28.2652248,18.1882229 28.0370601,18.1011662 27.8628881,17.9269942 L25.3404133,15.4045194 C24.9921279,15.056234 24.9921279,14.4915673 25.3404133,14.1432234 C25.6887573,13.794938 26.2533067,13.794938 26.6017093,14.1432234 L29.1241841,16.6656982 C29.4724695,17.0139835 29.4724695,17.5786502 29.1241841,17.9269942 C28.9499535,18.1011662 28.7217301,18.1882229 28.4935068,18.1882229 L28.4935068,18.1882229 Z"></path>
                    <path d="M22.3271967,8.0086875 C22.0989147,8.0086875 21.87075,7.92163081 21.696578,7.74745882 C21.3482926,7.39917345 21.3482926,6.83450678 21.696578,6.48616279 L24.2190528,3.96368798 C24.5673968,3.61540262 25.1319462,3.61540262 25.4803488,3.96368798 C25.8286342,4.31197335 25.8286342,4.87664002 25.4803488,5.22498401 L22.957874,7.74745882 C22.7836434,7.92163081 22.5555373,8.0086875 22.3271967,8.0086875 L22.3271967,8.0086875 Z"></path>
                    <path d="M24.8496715,8.0086875 C24.6213895,8.0086875 24.3932248,7.92163081 24.2190528,7.74745882 L21.696578,5.22498401 C21.3482926,4.87669864 21.3482926,4.31203198 21.696578,3.96368798 C22.044922,3.61540262 22.6094714,3.61540262 22.957874,3.96368798 L25.4803488,6.48616279 C25.8286342,6.83444816 25.8286342,7.39911483 25.4803488,7.74745882 C25.3061768,7.92163081 25.0779535,8.0086875 24.8496715,8.0086875 L24.8496715,8.0086875 Z"></path>
                    <path d="M12.1476613,4.3647936 C11.9193794,4.3647936 11.6912146,4.27773692 11.5170426,4.10356492 C11.1687573,3.75527955 11.1687573,3.19061289 11.5170426,2.8422689 L14.0395174,0.319911337 C14.3878614,-0.028374031 14.9524109,-0.028374031 15.3008135,0.319911337 C15.6490988,0.668196705 15.6490988,1.23286337 15.3008135,1.58120736 L12.7783387,4.10368217 C12.604108,4.27779554 12.3758847,4.3647936 12.1476613,4.3647936 L12.1476613,4.3647936 Z"></path>
                    <path d="M14.6701361,4.3647936 C14.4418542,4.3647936 14.2136894,4.27773692 14.0395174,4.10356492 L11.5170426,1.58109012 C11.1687573,1.23280475 11.1687573,0.668138081 11.5170426,0.319794089 C11.8653866,-0.0284912791 12.429936,-0.0284912791 12.7783387,0.319794089 L15.3008135,2.8422689 C15.6490988,3.19055426 15.6490988,3.75522093 15.3008135,4.10356492 C15.1265828,4.27779554 14.8983595,4.3647936 14.6701361,4.3647936 L14.6701361,4.3647936 Z"></path>
                </g>
            </g>
        </g>
    </g>
</svg>