<?xml version="1.0" encoding="UTF-8" standalone="no"?>
<svg width="40px" height="40px" viewBox="0 0 40 40" version="1.1" xmlns="http://www.w3.org/2000/svg" xmlns:xlink="http://www.w3.org/1999/xlink">
    <!-- Generator: Sketch 46.1 (44463) - http://www.bohemiancoding.com/sketch -->
    <title>spaceship02</title>
    <desc>Created with Sketch.</desc>
    <defs></defs>
    <g id="Page-1" stroke="none" stroke-width="1" fill="none" fill-rule="evenodd">
        <g id="30-Universe-Element-Icons" transform="translate(-251.000000, -690.000000)" fill="#000000">
            <g id="spaceship02" transform="translate(251.000000, 690.000000)">
                <g transform="translate(9.000000, 4.000000)" id="Shape">
                    <path d="M15.8739678,28 L6.12611504,28 C5.70753429,28 5.34201582,27.7134581 5.23738689,27.3032285 C5.13568419,26.9045843 5.00341866,26.3996965 4.85086461,25.8167387 C3.47033497,20.5437878 1.99772668,14.7007152 2.00000263,12.1033406 C2.00442449,7.23239101 7.38348296,2.33787558 9.69585384,0.459521772 C10.4527716,-0.155230156 11.5498473,-0.152992061 12.3045541,0.465182835 C13.0420938,1.06933673 14.1658306,2.04501432 15.3311199,3.26234031 C15.683893,3.630836 15.6747892,4.21912575 15.3106363,4.5762335 C14.9466134,4.93334124 14.3654644,4.92405973 14.0126913,4.55549821 C12.9113889,3.40498593 11.8479974,2.48170608 11.1497993,1.9098729 C11.0601266,1.83634491 10.934754,1.83608161 10.8447562,1.90901716 C9.20151629,3.24377729 3.83962502,7.92369894 3.83578841,12.1050521 C3.8333824,14.6768861 5.71917418,21.8793379 6.62532964,25.3405512 C6.70043617,25.6274222 6.77066566,25.8955328 6.83471755,26.1415916 L15.1631544,26.1415916 C15.2441133,25.8273367 15.3345013,25.4791814 15.4323024,25.1027865 C16.3753933,21.471478 18.1308704,14.7124981 18.1638392,12.2086627 C18.1808114,10.9242597 17.6723629,9.4584394 16.6529299,7.85194826 C16.3789048,7.4202593 16.5025867,6.8453323 16.9291008,6.56800604 C17.3555499,6.29074562 17.9234983,6.41581561 18.1974584,6.84757039 C19.4149645,8.76614408 20.0212791,10.5782766 19.9994299,12.2334134 C19.9634698,14.9648762 18.2384256,21.6068169 17.2076778,25.5752878 C17.0309986,26.2557344 16.8783145,26.8432342 16.7633462,27.3002663 C16.6598228,27.7119441 16.293654,28 15.8739678,28 L15.8739678,28 Z"></path>
                    <path d="M3.62085765,31 L3.62085765,31 C2.72212477,31 1.93734545,30.3734836 1.66800647,29.4411933 L0.0955112086,23.9987369 C-0.0939006725,23.343328 0.00115638546,22.6416213 0.356231843,22.0739344 L3.26061119,17.429122 C3.46228026,17.1065695 3.81997314,16.9447014 4.17160126,17.0170373 C4.5234209,17.0890947 4.802655,17.3814318 4.88315665,17.7617695 C5.44762576,20.4282411 6.11685554,23.1820169 6.60554713,25.1927314 C6.74822847,25.7799121 6.87290707,26.2928075 6.97115611,26.7060758 C7.03550635,26.9766913 6.99107404,27.2645031 6.84896725,27.4973147 L5.31739312,30.0063739 C4.93742025,30.6285737 4.30323837,31 3.62085765,31 L3.62085765,31 Z M3.60228035,20.3710825 L1.84516117,23.1811815 C1.80334627,23.2480869 1.79211052,23.3307266 1.81445435,23.4080752 L3.38694962,28.8505315 C3.43495694,29.0166465 3.56653021,29.0346086 3.62085765,29.0346086 C3.74528089,29.0346086 3.79928913,28.94626 3.81703652,28.9171585 L5.12478926,26.774861 C5.04767111,26.4546756 4.9596364,26.0925089 4.86336639,25.6962976 C4.50324761,24.2146306 4.04564587,22.3318789 3.60228035,20.3710825 L3.60228035,20.3710825 Z"></path>
                    <path d="M18.544223,30.5119914 L18.5440461,30.5119914 C17.9136181,30.5119914 17.3278332,30.1689862 16.9769402,29.5946115 L15.5619863,27.2782176 C15.4313008,27.0642008 15.3900193,26.7997327 15.4484621,26.5506249 C15.5520198,26.1093519 15.6859489,25.554258 15.8392803,24.918249 C16.275744,23.1090041 16.8734416,20.6311014 17.3726532,18.2818658 C17.4472548,17.9309555 17.7053233,17.6613458 18.03015,17.5948913 C18.3550356,17.528694 18.6852289,17.6777987 18.8713496,17.9753656 L21.5597207,22.2716394 C21.887732,22.7959484 21.9755437,23.4434615 21.8006279,24.0486212 L20.3479899,29.0728734 C20.0993572,29.9337606 19.3742766,30.5119914 18.544223,30.5119914 L18.544223,30.5119914 Z M17.1538611,26.6098812 L18.3628201,28.5891184 C18.3792148,28.6158544 18.4289885,28.6974122 18.544105,28.6975407 L18.544105,28.6975407 C18.5942916,28.6975407 18.7157772,28.6809592 18.7601254,28.5276127 L20.2127634,23.503489 C20.2334042,23.4322144 20.2230248,23.3558625 20.1842792,23.2940354 L18.5550741,20.690422 C18.1667919,22.4057052 17.7660072,24.0675164 17.4494958,25.3796383 C17.339569,25.8357575 17.2396677,26.2500374 17.1538611,26.6098812 L17.1538611,26.6098812 Z"></path>
                    <path d="M11.0005353,17 L10.9642714,16.9999331 C9.62872908,16.9903653 8.37682129,16.4613238 7.43931223,15.5102269 C6.50173626,14.5591299 5.99062924,13.2997879 6.00013011,11.9643715 C6.01980094,9.22703216 8.26240932,7 10.9993978,7 L11.0357286,7.00006691 C12.3712709,7.00963475 13.6231787,7.53867616 14.5606878,8.48977312 C15.4982637,9.44087007 16.0093708,10.7002121 15.9998699,12.0356285 C15.9803998,14.7729678 13.7376576,17 11.0005353,17 L11.0005353,17 Z M10.9994647,8.88881232 C9.29653293,8.88881232 7.90117528,10.2745435 7.8889981,11.9777531 C7.88304332,12.8088171 8.20112197,13.5923096 8.7845561,14.1841107 C9.36792332,14.7759118 10.1468614,15.1050321 10.9778536,15.110987 L11.0006022,15.110987 C12.703534,15.110987 14.0989585,13.7252558 14.1110688,12.0220462 C14.1170236,11.1909821 13.7990118,10.4074897 13.2156446,9.81568858 C12.6322774,9.22388749 11.8533393,8.89476713 11.0223471,8.88881232 L10.9994647,8.88881232 L10.9994647,8.88881232 Z"></path>
                    <path d="M16.0697711,28 L6.93795264,28 C6.54583014,28 6.20341588,27.726862 6.10540048,27.3358223 C6.01012635,26.9558261 5.88628216,26.4745561 5.74331005,25.918868 C5.54009105,25.129259 5.28728565,24.1466399 5.02717021,23.1066073 C4.96089255,22.8414382 5.01736258,22.5595783 5.18025454,22.343101 C5.34314651,22.1266236 5.59406348,22 5.85990512,22 L17.1400822,22 C17.4058629,22 17.656719,22.1265608 17.81955,22.34285 C17.982442,22.5591391 18.0390948,22.8408734 17.9729389,23.1061053 C17.7385305,24.0459309 17.5160617,24.9179268 17.3196654,25.6873941 C17.1539713,26.336638 17.0108773,26.8972831 16.9030543,27.3331869 C16.8058917,27.7254188 16.4629292,28 16.0697711,28 L16.0697711,28 Z M7.626008,26 L15.3785318,26 C15.454074,25.7558223 15.5383327,25.4853422 15.6294919,25.1927988 C15.7449238,24.8224719 15.8694354,24.4227783 16,24 L7,24 C7.15629014,24.5033708 7.30356122,24.9724719 7.43115983,25.3785495 C7.50095168,25.6011236 7.56632478,25.8091931 7.626008,26 L7.626008,26 Z"></path>
                    <path d="M11.0940713,34 C10.2571959,34 9.50776637,33.6071403 9.0893287,32.9490225 L6.12711216,28.2904017 C5.86544601,27.8789563 6.02074108,27.3528886 6.47380807,27.1154178 C6.92680795,26.8778251 7.50631224,27.0188329 7.76784417,27.4302174 L10.7300607,32.0888382 C10.8355593,32.2548301 11.0033371,32.2796314 11.0939371,32.2796314 C11.184537,32.2796314 11.3522476,32.2548301 11.4578134,32.0888382 L12.2321412,30.8710156 C12.4936731,30.4595701 13.0729761,30.3186842 13.5261773,30.5562159 C13.9793114,30.7936868 14.1345393,31.3198154 13.8728732,31.7311999 L13.0985454,32.9490225 C12.6803091,33.6070793 11.9309466,34 11.0940713,34 L11.0940713,34 Z"></path>
                </g>
            </g>
        </g>
    </g>
</svg>