<?xml version="1.0" encoding="UTF-8" standalone="no"?>
<svg width="40px" height="40px" viewBox="0 0 40 40" version="1.1" xmlns="http://www.w3.org/2000/svg" xmlns:xlink="http://www.w3.org/1999/xlink">
    <!-- Generator: Sketch 46.1 (44463) - http://www.bohemiancoding.com/sketch -->
    <title>spaceship01</title>
    <desc>Created with Sketch.</desc>
    <defs></defs>
    <g id="Page-1" stroke="none" stroke-width="1" fill="none" fill-rule="evenodd">
        <g id="30-Universe-Element-Icons" transform="translate(-945.000000, -164.000000)" fill="#000000">
            <g id="spaceship01" transform="translate(945.000000, 164.000000)">
                <g transform="translate(8.000000, 4.000000)" id="Shape">
                    <path d="M14.9993961,27 C12.5955675,27 10.3356141,26.0635886 8.63587087,24.3633303 C6.93612769,22.663072 6,20.4024963 6,17.9978766 C6,15.5933823 6.93612769,13.3326813 8.63587087,11.632423 C12.1447048,8.12252568 17.8540873,8.12252568 21.3628586,11.632423 C23.7042744,13.9745484 24.5699685,17.4028332 23.6223107,20.5794486 C23.4771198,21.0659261 22.9652229,21.342606 22.4789554,21.1974337 C21.9926252,21.0521987 21.7160292,20.5401467 21.8611575,20.0537318 C22.6155615,17.5251265 21.926578,14.7964391 20.0632835,12.9323919 C17.2710049,10.1393298 12.7277872,10.1393298 9.93557128,12.9323919 C8.58292035,14.2854527 7.83804119,16.084373 7.83804119,17.997814 C7.83804119,19.9112549 8.58298301,21.7101752 9.93557128,23.063236 C11.2882222,24.4162969 13.0865975,25.1614018 14.9994587,25.1614018 C16.9123199,25.1614018 18.7106952,24.4162342 20.0633462,23.063236 C20.4222191,22.7042543 21.0041109,22.7042543 21.3630466,23.063236 C21.7219822,23.4222178 21.7219195,24.0042859 21.3630466,24.3633303 C19.6631154,26.0635259 17.4032246,27 14.9993961,27 L14.9993961,27 Z"></path>
                    <path d="M14.500059,23 C13.2974775,23 12.1668514,22.4798741 11.3164912,21.5355972 C9.56116961,19.5860758 9.56116961,16.4139242 11.3164912,14.4644028 C12.1669104,13.5199948 13.2974775,13 14.500059,13 C15.7026996,13 16.8332667,13.5201259 17.6835088,14.4644683 C19.4388304,16.4139242 19.4388304,19.5860102 17.6835088,21.5355317 C16.8332667,22.4798741 15.7026996,23 14.500059,23 L14.500059,23 Z M14.500059,14.9225777 C13.7599044,14.9225777 13.06408,15.2426249 12.540736,15.823915 C11.4604609,17.0237315 11.4604609,18.9760719 12.540736,20.1758883 C13.064021,20.7570473 13.7598454,21.0772256 14.5,21.0772256 C15.2401546,21.0772256 15.935979,20.7571784 16.459264,20.1758883 C17.5395981,18.9760719 17.5395981,17.0237315 16.459264,15.823915 C15.935979,15.242756 15.2401546,14.9225777 14.500059,14.9225777 L14.500059,14.9225777 Z"></path>
                    <path d="M7.64368074,9 L7.64361813,9 C7.32932458,9 7.03462741,8.86015358 6.83490701,8.61651782 C6.63587529,8.37350805 6.55717668,8.05713213 6.61897105,7.74876888 L6.72265036,7.23245138 L5.78027056,6.27524831 L5.25148104,6.38135381 C5.18355106,6.39493782 5.11405587,6.40188632 5.04499894,6.40188632 C4.69564475,6.40188632 4.37089561,6.22811118 4.17630908,5.93702529 C3.9820356,5.646315 3.94591062,5.27973458 4.07989233,4.95647275 L4.83657598,3.13076955 C4.97162204,2.80425257 5.26012099,2.56969368 5.6080978,2.50383941 L6.68921754,2.2993907 C7.25951635,1.44096903 7.53693363,1.12797346 7.69958994,0.96577915 C8.34170044,0.324952007 9.38644477,0 10.8047727,0 C11.3471482,0 11.8004948,0.0486395126 12.0224411,0.0775603038 C12.4938188,0.139345631 12.8643346,0.511497371 12.9238125,0.982743511 C13.0405143,1.90764544 13.1846386,4.18268508 12.0041595,5.33187964 C11.7603629,5.56919289 11.3328109,5.89051415 10.7015943,6.31024122 L10.4969278,7.39214172 C10.4311265,7.74006761 10.1965333,8.02852433 9.86934242,8.16386362 L8.04424851,8.92012353 C7.91621458,8.97314498 7.78148156,9 7.64368074,9 L7.64368074,9 Z M6.29741494,4.40222018 C6.48248501,4.44885652 6.6540943,4.54563476 6.78907775,4.68285202 L8.32561011,6.24338536 C8.45452055,6.37428011 8.54461387,6.53422085 8.59056834,6.70624322 L8.77200713,6.63106168 L8.95958153,5.6394291 C9.0122977,5.36061264 9.17902355,5.11203155 9.41693501,4.95734914 C10.3385915,4.3585886 10.6373582,4.09992905 10.7230063,4.01648443 C11.070044,3.67863701 11.192631,2.75548786 11.1544399,1.84423253 C11.0453763,1.83916201 10.9277354,1.83603205 10.8046475,1.83603205 C9.94196803,1.83603205 9.26598645,1.99659878 8.99658303,2.26539938 C8.91231228,2.34959519 8.65060968,2.6461898 8.04324677,3.58279776 C7.88860433,3.82123779 7.63979903,3.98831483 7.3605035,4.04114849 L6.36916402,4.22863284 L6.29741494,4.40222018 L6.29741494,4.40222018 Z"></path>
                    <path d="M14.4880195,32 C10.6180175,32 6.97974878,30.508327 4.24332903,27.7997563 C1.81065852,25.3918983 0.320108653,22.1990206 0.0461741323,18.8092411 C-0.22458596,15.4581519 0.701911505,12.1098351 2.65499431,9.38124157 C2.94648155,8.97413041 3.51613589,8.87789742 3.92744225,9.16628836 C4.3388731,9.45480252 4.43603552,10.0186465 4.14461052,10.4257577 C0.571013006,15.4184142 1.1554191,22.1878694 5.53420111,26.5219891 C7.92585301,28.8892469 11.1057591,30.193013 14.4880195,30.193013 C17.8702799,30.193013 21.050186,28.8892469 23.4417134,26.5219891 C23.7981831,26.1691553 24.3761781,26.1691553 24.7326478,26.5219891 C25.0891174,26.8748229 25.0891174,27.4469225 24.7326478,27.7998179 C21.9962902,30.508327 18.3580215,32 14.4880195,32 L14.4880195,32 Z"></path>
                </g>
            </g>
        </g>
    </g>
</svg>