<?xml version="1.0" encoding="UTF-8" standalone="no"?>
<svg width="40px" height="40px" viewBox="0 0 40 40" version="1.1" xmlns="http://www.w3.org/2000/svg" xmlns:xlink="http://www.w3.org/1999/xlink">
    <!-- Generator: Sketch 46.1 (44463) - http://www.bohemiancoding.com/sketch -->
    <title>spaceship05</title>
    <desc>Created with Sketch.</desc>
    <defs></defs>
    <g id="Page-1" stroke="none" stroke-width="1" fill="none" fill-rule="evenodd">
        <g id="30-Universe-Element-Icons" transform="translate(-251.000000, -900.000000)" fill="#000000">
            <g id="spaceship05" transform="translate(251.000000, 900.000000)">
                <g transform="translate(8.000000, 4.000000)" id="Shape">
                    <path d="M8.12050157,33 L0.879435737,33 C0.393730408,33 0,32.5920465 0,32.0887956 L0,14.8145627 C0,14.352302 0.157241379,13.902124 0.442884013,13.5470485 L3.03191223,10.3279185 C3.34282132,9.94127215 3.89736677,9.88904371 4.27053292,10.211249 C4.64369906,10.5334544 4.69410658,11.1079672 4.3831348,11.4946136 L1.79416928,14.7136137 C1.77147335,14.7418716 1.75899687,14.777665 1.75899687,14.8144977 L1.75899687,31.1774612 L7.24112853,31.1774612 L7.24112853,30.0385043 C7.24112853,29.5352534 7.63485893,29.1272999 8.12056426,29.1272999 C8.60626959,29.1272999 9,29.5352534 9,30.0385043 L9,32.0886656 C9,32.5920465 8.6062069,33 8.12050157,33 L8.12050157,33 Z"></path>
                    <path d="M23.1205581,33 L15.8794419,33 C15.3937958,33 15,32.5920448 15,32.0887917 L15,30.0386217 C15,29.5353687 15.3937958,29.1274134 15.8794419,29.1274134 C16.3650879,29.1274134 16.7588837,29.5353687 16.7588837,30.0386217 L16.7588837,31.1775834 L22.2410536,31.1775834 L22.2410536,14.8145507 C22.2410536,14.7778477 22.2284516,14.7419892 22.2058809,14.7137961 L19.6168347,11.4946525 C19.3059234,11.1080045 19.3563313,10.5334892 19.7295,10.2112825 C20.1026688,9.88894589 20.6571554,9.94136944 20.9681293,10.3279525 L23.5571129,13.5469662 C23.8426948,13.9019782 24,14.3522231 24,14.8146156 L24,32.0888567 C24.0000627,32.5920448 23.6062042,33 23.1205581,33 L23.1205581,33 Z"></path>
                    <path d="M16.5725718,28 L14.7096483,28 C14.2108855,28 13.8064537,27.5835433 13.8064537,27.0698029 C13.8064537,26.5560625 14.2109499,26.1396058 14.7096483,26.1396058 L16.5725718,26.1396058 C16.9149964,26.1396058 17.1935463,25.8527282 17.1935463,25.5000663 C17.1935463,25.1474044 16.9149964,24.8605268 16.5725718,24.8605268 L7.42742818,24.8605268 C7.08500363,24.8605268 6.80645369,25.1474044 6.80645369,25.5000663 C6.80645369,25.8527282 7.08500363,26.1396058 7.42742818,26.1396058 L9.29035166,26.1396058 C9.78917885,26.1396058 10.1935463,26.5560625 10.1935463,27.0698029 C10.1935463,27.5835433 9.78917885,28 9.29035166,28 L7.42742818,28 C6.088959,28 5,26.8784848 5,25.5 C5,24.1215152 6.088959,23 7.42742818,23 L16.5725718,23 C17.911041,23 19,24.1215152 19,25.5 C19,26.8784848 17.911041,28 16.5725718,28 L16.5725718,28 Z"></path>
                    <path d="M17.0855858,25 C16.9948678,25 16.9036936,24.986621 16.8148003,24.9590836 C16.7549082,24.9405088 16.6920182,24.9310915 16.6279551,24.9310915 L7.37184939,24.9310915 C7.3077863,24.9310915 7.2448963,24.9404439 7.18500415,24.9590836 C6.90770158,25.0446184 6.60576437,24.9940898 6.37186568,24.8224357 C6.13803216,24.6507166 6,24.3783951 6,24.0889276 L6,6.66599988 C6,6.07154269 6.21024162,5.49273766 6.59220881,5.03616233 L10.0374733,0.91607327 C10.5241051,0.333891009 11.2394871,0 11.9999022,0 C12.7603174,0 13.4756994,0.333891009 13.9624615,0.916138217 L17.4078564,5.03622727 C17.789628,5.49273766 18,6.07160764 18,6.66606483 L18,24.0890575 C18,24.378525 17.8619678,24.6507816 17.6281343,24.8225656 C17.4689216,24.9392099 17.2784268,25 17.0855858,25 L17.0855858,25 Z M7.82830702,23.1091416 L16.1714975,23.1091416 L16.1714975,6.66599988 C16.1714975,6.49700855 16.1117357,6.33249855 16.003226,6.20273504 L12.5578311,2.08258103 C12.3684442,1.85598198 12.1269857,1.82214475 11.9999022,1.82214475 C11.8728188,1.82214475 11.6314255,1.85604693 11.4419082,2.08258103 L7.99664369,6.20273504 C7.88806882,6.3325635 7.82837219,6.4970735 7.82837219,6.66606483 L7.82837219,23.1091416 L7.82830702,23.1091416 Z"></path>
                    <path d="M14.1157079,10 C13.627453,10 13.2315418,9.59234676 13.2315418,9.08946625 C13.2315418,8.3901592 12.6791192,7.82113241 11.999937,7.82113241 C11.3208808,7.82113241 10.7683321,8.3901592 10.7683321,9.08946625 C10.7683321,9.59234676 10.3724839,10 9.88416607,10 C9.39584822,10 9,9.59234676 9,9.08946625 C9,7.38595609 10.3457579,6 12,6 C13.6541791,6 15,7.38589117 15,9.08946625 C14.999937,9.59234676 14.6039627,10 14.1157079,10 L14.1157079,10 Z"></path>
                    <path d="M17.0857714,24.9999888 C17.0020258,24.9999888 16.9178239,24.9885102 16.8353817,24.9651639 C16.7691021,24.9463572 16.6994335,24.936889 16.6281357,24.936889 L7.37192946,24.936889 C7.30069679,24.936889 7.23096307,24.9463572 7.16468346,24.9651639 C6.88887682,25.0433739 6.59228041,24.9882508 6.3633974,24.8163314 C6.13457956,24.6444119 6,24.3756703 6,24.0903268 L6,13.9096619 C6,13.4072629 6.40927828,13 6.91416344,13 L17.0858366,13 C17.5906566,13 18,13.4072629 18,13.9096619 L18,24.0903268 C18,24.3756703 17.8654204,24.6444119 17.6366026,24.8163314 C17.4761499,24.9368241 17.2823292,24.9999888 17.0857714,24.9999888 L17.0857714,24.9999888 Z M7.82839205,23.1174354 L16.1716731,23.1174354 L16.1716731,14.8193238 L7.82839205,14.8193238 L7.82839205,23.1174354 L7.82839205,23.1174354 Z"></path>
                </g>
            </g>
        </g>
    </g>
</svg>