<?xml version="1.0" encoding="UTF-8" standalone="no"?>
<svg width="40px" height="40px" viewBox="0 0 40 40" version="1.1" xmlns="http://www.w3.org/2000/svg" xmlns:xlink="http://www.w3.org/1999/xlink">
    <!-- Generator: Sketch 46.1 (44463) - http://www.bohemiancoding.com/sketch -->
    <title>spaceship03</title>
    <desc>Created with Sketch.</desc>
    <defs></defs>
    <g id="Page-1" stroke="none" stroke-width="1" fill="none" fill-rule="evenodd">
        <g id="30-Universe-Element-Icons" transform="translate(-945.000000, -690.000000)" fill="#000000">
            <g id="spaceship03" transform="translate(945.000000, 690.000000)">
                <g transform="translate(3.000000, 4.000000)" id="Shape">
                    <path d="M17.1597864,15 C15.2298312,15 13.6597864,13.4298145 13.6597864,11.5 C13.6597864,9.57018549 15.2299719,8 17.1597864,8 C19.0897416,8 20.6597864,9.57018549 20.6597864,11.5 C20.6597864,13.4298145 19.0896712,15 17.1597864,15 L17.1597864,15 Z M17.1597864,10.0429151 C16.3564062,10.0429151 15.7028422,10.6964792 15.7028422,11.4998593 C15.7028422,12.3032395 16.3564062,12.9568035 17.1597864,12.9568035 C17.9631665,12.9568035 18.6167306,12.3032395 18.6167306,11.4998593 C18.6167306,10.6964792 17.9630962,10.0429151 17.1597864,10.0429151 L17.1597864,10.0429151 Z"></path>
                    <path d="M21.2356149,27 C20.6803083,27 20.2052476,26.5299412 20.036481,26.233647 C19.9467417,26.0762592 19.8398113,25.9284738 19.7185124,25.7944344 C19.2544205,25.2814935 18.6234224,24.9990768 17.9417494,24.9990768 C17.3414127,24.9990768 16.7647457,25.2273647 16.317909,25.6418478 C16.2528014,25.7022247 16.1963535,25.7597078 16.1454862,25.8173224 C15.8492628,26.1526183 15.2604081,26.4252352 14.8326226,26.4252352 C14.6466651,26.4252352 14.474114,26.3807089 14.3198444,26.2928401 C14.2396626,26.2470641 14.1558888,26.2057605 14.0710244,26.1696527 C13.9569098,26.1212459 13.8380484,26.081455 13.7177758,26.0516612 C13.48666,25.9943754 13.2426509,25.9730659 13.0055696,25.9872065 L12.960283,25.9906265 C12.9338551,25.9925996 12.9076196,25.9947043 12.8814483,25.9980586 L12.8164049,26.0058852 C12.7746462,26.0118045 12.7335932,26.0183815 12.6928608,26.0264055 C12.6798393,26.0289047 12.6685497,26.0316671 12.657196,26.0343637 L12.6298059,26.040546 C12.6084455,26.0453473 12.5869568,26.0502142 12.5657247,26.0555416 C12.5409646,26.061724 12.5163327,26.0684326 12.4918292,26.0755357 C12.4405129,26.0905313 12.3305677,26.1284806 12.2560308,26.1568275 C12.246409,26.1604449 12.236723,26.1639965 12.2269729,26.1672192 C12.1319736,26.1997096 12.0323558,26.2163495 11.9322249,26.2163495 L11.9321607,26.2163495 C11.4177147,26.2162837 11,25.7879232 11,25.2605129 L11.0290579,10.0915641 C11.0290579,8.10412378 11.6379258,6.15476431 12.7897845,4.45598885 L15.1327588,1.00075757 C15.5576579,0.374034459 16.2556879,0 17.0001593,0 C17.7445023,0 18.4426607,0.374165999 18.8675597,1.00075757 L21.2103416,4.45585731 C22.3621361,6.154567 22.9709399,8.10392647 22.9709399,10.0932742 L22.9999978,25.5256978 C23.0007676,25.8904587 22.7987096,26.223913 22.4793297,26.3847866 C22.4142863,26.4175402 22.3481524,26.4535822 22.2768869,26.4949515 L22.2528324,26.5088948 C22.1821442,26.5507246 22.1199231,26.5897262 22.062513,26.6282017 C22.0591775,26.6305037 22.0557777,26.6328714 22.052378,26.6351734 C21.9994581,26.671018 21.9417914,26.7126505 21.876299,26.7625042 L21.8347328,26.7945343 C21.6634646,26.9287052 21.4559543,27 21.2356149,27 L21.2356149,27 Z M17.9109525,23.5137195 C19.0606267,23.5137195 20.1686627,24.0343787 20.9510394,24.9422752 C20.9675458,24.9613832 20.9837419,24.9806248 21,25 L20.9736891,10.314512 C20.9736891,8.689732 20.4962457,7.09247823 19.5929258,5.69372033 L17.326404,2.18379743 C17.2231461,2.02391839 17.0773813,2 16.9998138,2 C16.9221222,2 16.7764815,2.02385157 16.6732237,2.18379743 L14.4066398,5.69372033 C13.5033199,7.09261185 13.0258765,8.689732 13.0258765,10.3125744 L13,24.5228349 C13.0104251,24.5220331 13.0209742,24.5212982 13.0315234,24.5206969 C13.120633,24.5150848 13.1974558,24.5124792 13.2722308,24.5124792 C13.6017996,24.5124792 13.9301893,24.5545034 14.2484021,24.6373492 C14.4550419,24.6911989 14.6593857,24.7628873 14.8556624,24.8504099 C14.8787465,24.8606988 14.9018306,24.8711881 14.9247906,24.8820115 C14.9889544,24.8105904 15.0569035,24.7399711 15.1304375,24.6683495 C15.8951908,23.9236726 16.8824697,23.5137195 17.9109525,23.5137195 L17.9109525,23.5137195 Z"></path>
                    <path d="M31.8799023,32.9999327 L24.7146196,32.9999327 C24.1820429,32.9999327 23.7502041,32.5625235 23.7502041,32.0229266 C23.7502041,31.4833297 24.1820429,31.0459206 24.7146196,31.0459206 L31.8799023,31.0459206 C31.9548084,31.0459206 32.0025543,31.0056913 32.0244683,30.9817421 C32.0588667,30.9439347 32.0745385,30.9002745 32.070687,30.8517706 L32.068562,30.8263414 C31.9797106,29.8370244 31.1732088,29.0423282 30.1928558,28.9809752 C29.8406379,28.9589096 29.5041583,29.0249717 29.1920497,29.1769415 C28.9464136,29.2967547 28.6621956,29.305433 28.4099189,29.2011598 C28.1575094,29.0968193 27.9604825,28.8892148 27.867514,28.6296082 C27.2956248,27.0325467 25.784156,25.959542 24.106672,25.959542 C23.1544087,25.959542 22.2314306,26.3053926 21.5077371,26.933319 C21.2713315,27.1383671 20.9519182,27.2149911 20.6501026,27.140049 C20.3480213,27.0648377 20.100393,26.8466713 19.9849129,26.5539664 C19.6011521,25.5819385 18.6861427,24.9538103 17.6535281,24.9538103 C16.7819483,24.9538103 15.9854738,25.402185 15.5226234,26.1530865 C15.3817097,26.3816802 15.153804,26.5412518 14.8929609,26.5939266 C14.6320514,26.6464668 14.361181,26.5876702 14.1445643,26.4311259 C13.7175068,26.1226118 13.214348,25.959542 12.6896071,25.959542 C12.2631472,25.959542 11.8416014,26.0702061 11.4705906,26.279627 C11.0823143,26.498668 10.5965538,26.4206313 10.2942069,26.0905898 C9.62297422,25.3575157 8.71082028,24.9538103 7.72575246,24.9538103 C5.79413234,24.9538103 4.22256601,26.5458264 4.22256601,28.5027313 C4.22256601,28.6382191 4.23086677,28.7757925 4.24813235,28.9234568 C4.3098236,29.4535009 3.94027375,29.9355794 3.41805632,30.0062833 C2.86947568,30.0805527 2.37162928,30.3306738 1.97823965,30.7296701 C1.95652486,30.7517356 1.89888439,30.8101959 1.94417333,30.9209946 C1.97810684,31.0039422 2.038802,31.0459878 2.12453225,31.0459878 L17.9639766,31.0459878 C18.4965533,31.0459878 18.9283921,31.483397 18.9283921,32.0229939 C18.9283921,32.5625908 18.4965533,33 17.9639766,33 L2.12420022,33 C1.26304615,33 0.492802005,32.4776923 0.162099716,31.6692724 C-0.165149456,30.8694634 0.0119555646,29.9587213 0.613262637,29.3488913 C1.08793331,28.8674183 1.66792403,28.5016549 2.29791853,28.2789812 C2.41432839,25.3480302 4.80428329,23 7.72548683,23 C8.99397581,23 10.2241485,23.455842 11.1932788,24.268971 C11.6715354,24.0956757 12.1786123,24.0057317 12.6894079,24.0057317 C13.3043282,24.0057317 13.9024478,24.1322722 14.4558761,24.3763387 C15.2833622,23.5021258 16.4262109,23 17.6533953,23 C19.0747511,23 20.3702009,23.6727975 21.1943668,24.7813896 C22.0777005,24.276371 23.080698,24.0057317 24.1065391,24.0057317 C26.2769555,24.0057317 28.2596419,25.2175879 29.2923229,27.1002233 C29.6260135,27.0330176 29.9692665,27.0091357 30.3115235,27.0307303 C32.2338467,27.1510145 33.8149755,28.7079813 33.9897563,30.6525079 L33.9934087,30.6963699 C34.0398929,31.2838652 33.8388817,31.871226 33.4419726,32.3070879 C33.0406806,32.7473898 32.4713813,32.9999327 31.8799023,32.9999327 L31.8799023,32.9999327 Z"></path>
                    <path d="M25.4603515,26 C25.3605,26 25.2588459,25.9827172 25.1589945,25.9464303 C24.6701021,25.7685074 24.4087886,25.2004487 24.575079,24.677628 L26.0832805,19.9380209 C26.2031538,19.5613119 26.0826367,19.1494176 25.7833398,18.9130363 L24.379625,17.804461 C23.9643176,17.476364 23.8761187,16.85026 24.1828835,16.4059347 C24.489584,15.9617472 25.0751089,15.8676216 25.490352,16.195512 L26.8940668,17.3040873 C27.851186,18.060053 28.2368148,19.3774674 27.8534392,20.5823717 L26.3452377,25.3219788 C26.2130037,25.7378667 25.8495856,26 25.4603515,26 L25.4603515,26 Z"></path>
                    <path d="M7.53982957,26 C7.15060448,26 6.78719469,25.7378739 6.65477061,25.3219286 L5.14660387,20.5824523 C4.76317274,19.3777189 5.14872832,18.0603408 6.10595422,17.304327 L7.50950786,16.1956446 C7.92493451,15.8675566 8.51038157,15.9617485 8.81707497,16.4059238 C9.12383275,16.8502368 9.03576462,17.4763236 8.62046673,17.8044116 L7.21678433,18.913094 C6.91742994,19.1494688 6.79691566,19.5613517 6.91685055,19.9380504 L8.42501728,24.6775268 C8.59136819,25.200333 8.32993203,25.7683761 7.84111528,25.9462941 C7.74133048,25.9826489 7.63967874,26 7.53982957,26 L7.53982957,26 Z"></path>
                </g>
            </g>
        </g>
    </g>
</svg>