<?xml version="1.0" encoding="UTF-8" standalone="no"?>
<svg width="40px" height="40px" viewBox="0 0 40 40" version="1.1" xmlns="http://www.w3.org/2000/svg" xmlns:xlink="http://www.w3.org/1999/xlink">
    <!-- Generator: Sketch 46.1 (44463) - http://www.bohemiancoding.com/sketch -->
    <title>spaceship04</title>
    <desc>Created with Sketch.</desc>
    <defs></defs>
    <g id="Page-1" stroke="none" stroke-width="1" fill="none" fill-rule="evenodd">
        <g id="30-Universe-Element-Icons" transform="translate(-714.000000, -690.000000)" fill="#000000">
            <g id="spaceship04" transform="translate(714.000000, 690.000000)">
                <g transform="translate(8.000000, 3.000000)" id="Shape">
                    <path d="M17.5065333,22.0885781 C16.9984667,22.0885781 16.5866667,21.6782539 16.5866667,21.1723047 L16.5866667,13.3390898 C16.5673333,12.9303594 16.5582667,11.0449531 16.5551333,10.22125 C16.5551333,8.51281641 16.0132667,6.83512891 14.988,5.36635547 L12.8192667,2.25927344 C12.6300667,1.98813672 12.3314,1.83267969 11.9999333,1.83267969 C11.6685333,1.83267969 11.3698,1.98813672 11.1806,2.25920703 L9.01186667,5.36635547 C7.9866,6.83512891 7.44473333,8.51281641 7.44473333,10.2178633 C7.4416,11.0448203 7.43246667,12.9303594 7.4132,13.3392891 L7.4132,21.1723047 C7.4132,21.6782539 7.0014,22.0885781 6.49333333,22.0885781 C5.98526667,22.0885781 5.57346667,21.6782539 5.57346667,21.1723047 L5.57346667,13.315582 C5.57346667,13.2902148 5.5746,13.2647148 5.57666667,13.2395469 C5.589,13.0455742 5.6008,11.3526133 5.605,10.2143437 C5.605,8.13682422 6.2608,6.09735547 7.5014,4.31999219 L9.67013333,1.21291016 C10.2003333,0.453488281 11.0712667,0 11.9999333,0 C12.9286,0 13.7995333,0.453488281 14.3297333,1.21304297 L16.4984667,4.31999219 C17.7390667,6.09735547 18.3948667,8.13675781 18.3948667,10.2177305 C18.3990667,11.3525469 18.4108667,13.0453086 18.4236667,13.2450586 C18.4258,13.2703594 18.4264,13.2899492 18.4264,13.3154492 L18.4264,21.1723047 C18.4263333,21.6783867 18.0145333,22.0885781 17.5065333,22.0885781 L17.5065333,22.0885781 Z"></path>
                    <path d="M11.9999333,12.8731172 C9.9898,12.8731172 8.35446667,11.2441719 8.35446667,9.24189063 C8.35446667,7.23960938 9.9898,5.61066406 11.9999333,5.61066406 C14.0100667,5.61066406 15.6454,7.23960938 15.6454,9.24189063 C15.6454,11.2441719 14.0101333,12.8731172 11.9999333,12.8731172 L11.9999333,12.8731172 Z M11.9999333,7.44321094 C11.0042,7.44321094 10.1941333,8.25017969 10.1941333,9.24195703 C10.1941333,10.2337344 11.0041333,11.0407031 11.9999333,11.0407031 C12.9956667,11.0407031 13.8057333,10.2337344 13.8057333,9.24195703 C13.8057333,8.25017969 12.9957333,7.44321094 11.9999333,7.44321094 L11.9999333,7.44321094 Z"></path>
                    <path d="M17.8206667,26.1673828 L14.7595333,26.1673828 C14.2514667,26.1673828 13.8396667,25.7570586 13.8396667,25.2511094 C13.8396667,24.7451602 14.2514667,24.3348359 14.7595333,24.3348359 L17.8206667,24.3348359 C18.1888,24.3348359 18.4882667,24.0364727 18.4882667,23.6698437 C18.4882667,23.3032148 18.1887333,23.0048516 17.8206667,23.0048516 L6.17933333,23.0048516 C5.8112,23.0048516 5.51173333,23.3032148 5.51173333,23.6698437 C5.51173333,24.0364727 5.81126667,24.3348359 6.17933333,24.3348359 L9.24046667,24.3348359 C9.74853333,24.3348359 10.1603333,24.7451602 10.1603333,25.2511094 C10.1603333,25.7570586 9.74853333,26.1673828 9.24046667,26.1673828 L6.17933333,26.1673828 C4.7968,26.1673828 3.672,25.0469766 3.672,23.6698437 C3.672,22.2927109 4.7968,21.1723047 6.17933333,21.1723047 L17.8208,21.1723047 C19.2033333,21.1723047 20.3281333,22.2927109 20.3281333,23.6698437 C20.3281333,25.0469766 19.2032,26.1673828 17.8206667,26.1673828 L17.8206667,26.1673828 Z"></path>
                    <path d="M11.9845333,34 L11.9845333,34 C11.5646,34 11.157,33.8796055 10.8058,33.651832 C9.702,32.9358398 8.35426667,31.7343516 8.2016,30.0766523 C8.16753333,29.7075664 8.18106667,29.311918 8.24153333,28.9005312 C8.40773333,27.7700312 9.39546667,26.9174414 10.5392667,26.9174414 L13.4628667,26.9174414 C14.6132667,26.9174414 15.602,27.7770039 15.7628,28.9168008 C15.8228,29.3427969 15.8327333,29.7510625 15.7923333,30.1305078 C15.6159333,31.7860156 14.2511333,32.9681133 13.1372667,33.6681016 C12.7919333,33.8853164 12.3932667,34 11.9845333,34 L11.9845333,34 Z M10.5392,28.7500547 C10.298,28.7500547 10.0972,28.9249687 10.0618,29.1661562 C10.0223333,29.4343711 10.0128667,29.6843906 10.0335333,29.9092422 C10.1268,30.9217383 11.3066,31.7898008 11.8096,32.1160547 C11.8614,32.1495898 11.9219333,32.1674531 11.9844667,32.1674531 L11.9844667,32.1674531 C12.0453333,32.1674531 12.1045333,32.1505195 12.1554,32.1185117 C12.663,31.7995625 13.855,30.9483672 13.9627333,29.9371328 C13.9872667,29.7067031 13.9799333,29.4492461 13.9408667,29.1718008 C13.9064,28.9274258 13.7052667,28.7499219 13.4627333,28.7499219 L10.5392667,28.7499219 L10.5392667,28.7500547 L10.5392,28.7500547 Z"></path>
                    <path d="M17.5065333,23.0048516 L6.4934,23.0048516 C5.98533333,23.0048516 5.57353333,22.5945273 5.57353333,22.0885781 L5.57353333,18.4235508 C5.57353333,17.9176016 5.98533333,17.5072773 6.4934,17.5072773 L17.5066,17.5072773 C18.0146667,17.5072773 18.4264667,17.9176016 18.4264667,18.4235508 L18.4264667,22.0885781 C18.4263333,22.5945937 18.0145333,23.0048516 17.5065333,23.0048516 L17.5065333,23.0048516 Z M7.41326667,21.1723047 L16.5867333,21.1723047 L16.5867333,19.3397578 L7.41326667,19.3397578 L7.41326667,21.1723047 L7.41326667,21.1723047 Z"></path>
                    <path d="M21.4712,22.0885781 C21.2357333,22.0885781 21.0004,21.9990625 20.8208,21.8202305 C20.4616,21.4624336 20.4616,20.8822422 20.8208,20.5243789 L22.0577333,19.2923437 L16.7939333,12.5733594 C16.4814667,12.1743906 16.5527333,11.5985156 16.9532667,11.2872695 C17.3536667,10.9760234 17.9318,11.0470117 18.2444,11.4458477 L23.5678,18.2409336 C24.1200667,18.893707 24.0805333,19.8690156 23.4722,20.4749727 L22.1216667,21.8201641 C21.9420667,21.9991289 21.7066,22.0885781 21.4712,22.0885781 L21.4712,22.0885781 Z"></path>
                    <path d="M2.52873333,22.0885781 C2.29333333,22.0885781 2.05793333,21.9990625 1.87833333,21.8202305 L0.527866667,20.4751719 C-0.0804666667,19.8692148 -0.12,18.8939062 0.4322,18.2411328 L5.7556,11.4460469 C6.0682,11.0470781 6.64613333,10.9760898 7.04673333,11.2874687 C7.44726667,11.5987148 7.51853333,12.1745898 7.20606667,12.5735586 L1.94226667,19.292543 L3.1792,20.5245781 C3.5384,20.882375 3.53846667,21.4625664 3.1792,21.8204297 C2.9996,21.9991289 2.76413333,22.0885781 2.52873333,22.0885781 L2.52873333,22.0885781 Z"></path>
                </g>
            </g>
        </g>
    </g>
</svg>