<?xml version="1.0" encoding="UTF-8" standalone="no"?>
<svg width="40px" height="40px" viewBox="0 0 40 40" version="1.1" xmlns="http://www.w3.org/2000/svg" xmlns:xlink="http://www.w3.org/1999/xlink">
    <!-- Generator: Sketch 46.1 (44463) - http://www.bohemiancoding.com/sketch -->
    <title>spanner</title>
    <desc>Created with Sketch.</desc>
    <defs></defs>
    <g id="Icons" stroke="none" stroke-width="1" fill="none" fill-rule="evenodd">
        <g id="Automotive" transform="translate(-524.000000, -1185.000000)" fill="#231F20">
            <g id="Service-Station" transform="translate(530.000000, 1191.000000)">
                <g>
                    <path d="M25.2546667,22.286 C25.14,22.442 24.962,22.5406667 24.768,22.5546667 C24.5726667,22.568 24.384,22.4986667 24.2473333,22.3613333 L16.768,14.8833333 C16.5866667,14.7013333 16.5253333,14.432 16.6113333,14.19 C17.1326667,12.716 16.7773333,11.1206667 15.684,10.0266667 C14.9826667,9.326 14.0586667,8.924 13.0586667,8.88133333 L12.8553333,9.084 L14.2693333,10.498 C14.4273333,10.656 14.496,10.882 14.452,11.1006667 L13.9806667,13.458 C13.928,13.7213333 13.7213333,13.928 13.458,13.9806667 L11.1006667,14.452 C10.882,14.4946667 10.6566667,14.428 10.4986667,14.27 L9.084,12.856 L8.88066667,13.0586667 C8.924,14.058 9.326,14.9826667 10.0273333,15.684 C11.12,16.7773333 12.716,17.1313333 14.1893333,16.6113333 C14.432,16.5253333 14.7013333,16.5873333 14.8826667,16.7686667 L19.2986667,21.1846667 C19.5593333,21.4446667 19.5593333,21.8666667 19.2986667,22.1273333 C19.0386667,22.3873333 18.6166667,22.3873333 18.356,22.1273333 L14.224,17.996 C12.3806667,18.4913333 10.4433333,17.986 9.08466667,16.6266667 C8.064,15.606 7.51666667,14.2373333 7.54466667,12.7733333 C7.548,12.6006667 7.618,12.436 7.74,12.314 L8.61333333,11.4413333 C8.87333333,11.1813333 9.29533333,11.1813333 9.556,11.4413333 L11.1886667,13.0746667 L12.76,12.7606667 L13.0746667,11.1893333 L11.4413333,9.55533333 C11.1813333,9.29533333 11.1813333,8.87333333 11.4413333,8.61266667 L12.314,7.74 C12.436,7.618 12.6006667,7.548 12.7733333,7.54466667 C14.2286667,7.52733333 15.6066667,8.064 16.6266667,9.084 C17.986,10.4433333 18.492,12.3806667 17.9953333,14.2246667 L24.6246667,20.854 C27.816,15.9093333 27.1533333,9.24 22.95,5.03666667 C18.0113333,0.098 9.976,0.098 5.03666667,5.03666667 C0.098,9.97533333 0.098,18.0113333 5.03666667,22.95 C9.42466667,27.338 16.5006667,27.868 21.494,24.182 C21.7913333,23.9626667 22.2073333,24.026 22.4266667,24.3226667 C22.6453333,24.6186667 22.582,25.036 22.286,25.2546667 C19.826,27.07 16.9086667,27.96 14.002,27.96 C10.3846667,27.96 6.78266667,26.582 4.094,23.8926667 C-1.36466667,18.4346667 -1.36466667,9.55266667 4.094,4.094 C9.55266667,-1.36466667 18.4346667,-1.36466667 23.8933333,4.094 C28.7433333,8.944 29.3286667,16.7653333 25.2546667,22.286"></path>
                </g>
            </g>
        </g>
    </g>
</svg>