<?xml version="1.0" encoding="UTF-8" standalone="no"?>
<svg width="40px" height="40px" viewBox="0 0 40 40" version="1.1" xmlns="http://www.w3.org/2000/svg" xmlns:xlink="http://www.w3.org/1999/xlink">
    <!-- Generator: Sketch 46.1 (44463) - http://www.bohemiancoding.com/sketch -->
    <title>sportscar</title>
    <desc>Created with Sketch.</desc>
    <defs></defs>
    <g id="Icons" stroke="none" stroke-width="1" fill="none" fill-rule="evenodd">
        <g id="Automotive" transform="translate(-1042.000000, -835.000000)" fill="#231F20">
            <g id="sportcar" transform="translate(1044.000000, 848.000000)">
                <g id="Rally-Car">
                    <path d="M29.9827586,10.1818182 C29.9827586,10.885 29.4118103,11.4545455 28.7068966,11.4545455 C28.0019828,11.4545455 27.4310345,10.885 27.4310345,10.1818182 C27.4310345,9.47863636 28.0019828,8.90909091 28.7068966,8.90909091 C29.4118103,8.90909091 29.9827586,9.47863636 29.9827586,10.1818182 L29.9827586,10.1818182 Z M8.93103448,8.90909091 C8.22675862,8.90909091 7.65517241,9.47927273 7.65517241,10.1818182 C7.65517241,10.885 8.22675862,11.4545455 8.93103448,11.4545455 C9.63594828,11.4545455 10.2068966,10.885 10.2068966,10.1818182 C10.2068966,9.47927273 9.63594828,8.90909091 8.93103448,8.90909091 L8.93103448,8.90909091 Z M14.0344828,1.90909091 C13.6817069,1.90909091 13.3965517,2.19354545 13.3965517,2.54545455 L13.3965517,3.81818182 C13.3965517,4.16945455 13.6817069,4.45454545 14.0344828,4.45454545 L21.6896552,4.45454545 C22.042431,4.45454545 22.3275862,4.16945455 22.3275862,3.81818182 C22.3275862,3.46627273 22.042431,3.18181818 21.6896552,3.18181818 L14.6724138,3.18181818 L14.6724138,2.54545455 C14.6724138,2.19354545 14.3872586,1.90909091 14.0344828,1.90909091 L14.0344828,1.90909091 Z M37,5.72727273 L37,9.54545455 C37,9.71409091 36.9323793,9.87572727 36.8130862,9.99536364 L34.8992931,11.9044545 C34.7793621,12.0234545 34.6179655,12.0909091 34.4482759,12.0909091 L32.0164828,12.0909091 C31.3536724,13.23 30.1199138,14 28.7068966,14 C27.2938793,14 26.0601207,13.23 25.3973103,12.0909091 L12.2406207,12.0909091 C11.5778103,13.23 10.3440517,14 8.93103448,14 C6.82012069,14 5.10344828,12.2869091 5.10344828,10.1818182 C5.10344828,8.07609091 6.82012069,6.36363636 8.93103448,6.36363636 C11.0413103,6.36363636 12.7586207,8.07609091 12.7586207,10.1818182 C12.7586207,10.4032727 12.7356552,10.619 12.6992931,10.8302727 C12.7197069,10.8277273 12.737569,10.8181818 12.7586207,10.8181818 L24.9367241,10.8181818 C24.9016379,10.6107273 24.8793103,10.3988182 24.8793103,10.1818182 C24.8793103,8.07609091 26.5959828,6.36363636 28.7068966,6.36363636 C30.8171724,6.36363636 32.5344828,8.07609091 32.5344828,10.1818182 C32.5344828,10.3988182 32.5121552,10.6107273 32.477069,10.8181818 L34.1841724,10.8181818 L35.7241379,9.282 L35.7241379,6.21281818 L29.2593448,4.45454545 L26.1551724,4.45454545 C26.0467241,4.45454545 25.9401897,4.42718182 25.8457759,4.37436364 L20.248569,1.27272727 L10.9481724,1.27272727 L3.39124138,3.78509091 C3.32617241,3.80672727 3.25791379,3.81818182 3.18965517,3.81818182 L1.27586207,3.81818182 L1.27586207,6.79572727 L4.34622414,11.0848182 C4.55163793,11.3705455 4.48465517,11.7682727 4.19822414,11.9719091 C4.08594828,12.0520909 3.95644828,12.0909091 3.82822414,12.0909091 C3.62855172,12.0909091 3.43334483,11.998 3.30831034,11.8242727 L0.118655172,7.36972727 C0.0414655172,7.26218182 0,7.13236364 0,7 L0,3.18181818 C0,2.82990909 0.285155172,2.54545455 0.637931034,2.54545455 L3.08631034,2.54545455 L10.6432414,0.0330909091 C10.7083103,0.0108181818 10.775931,0 10.8448276,0 L20.4137931,0 C20.5222414,0 20.6287759,0.0273636364 20.7231897,0.0801818182 L26.3203966,3.18181818 L29.3448276,3.18181818 C29.4016034,3.18181818 29.4583793,3.18881818 29.5126034,3.20409091 L36.5298448,5.11318182 C36.8073448,5.18890909 37,5.43963636 37,5.72727273 L37,5.72727273 Z M11.4827586,10.1818182 C11.4827586,8.778 10.3383103,7.63636364 8.93103448,7.63636364 C7.52375862,7.63636364 6.37931034,8.778 6.37931034,10.1818182 C6.37931034,11.5856364 7.52375862,12.7272727 8.93103448,12.7272727 C10.3383103,12.7272727 11.4827586,11.5856364 11.4827586,10.1818182 L11.4827586,10.1818182 Z M31.2586207,10.1818182 C31.2586207,8.778 30.1141724,7.63636364 28.7068966,7.63636364 C27.2996207,7.63636364 26.1551724,8.778 26.1551724,10.1818182 C26.1551724,11.5856364 27.2996207,12.7272727 28.7068966,12.7272727 C30.1141724,12.7272727 31.2586207,11.5856364 31.2586207,10.1818182 L31.2586207,10.1818182 Z"></path>
                </g>
            </g>
        </g>
    </g>
</svg>