<?xml version="1.0" encoding="UTF-8" standalone="no"?>
<svg width="40px" height="40px" viewBox="0 0 40 40" version="1.1" xmlns="http://www.w3.org/2000/svg" xmlns:xlink="http://www.w3.org/1999/xlink">
    <!-- Generator: Sketch 46.1 (44463) - http://www.bohemiancoding.com/sketch -->
    <title>start</title>
    <desc>Created with Sketch.</desc>
    <defs></defs>
    <g id="Page-1" stroke="none" stroke-width="1" fill="none" fill-rule="evenodd">
        <g id="30-Universe-Element-Icons" transform="translate(-482.000000, -900.000000)" fill="#000000">
            <g id="star" transform="translate(487.000000, 905.000000)">
                <g id="stars">
                    <path d="M16.5000316,29 C8.50472658,29 2,22.4953017 2,14.5000316 C2,12.7159406 2.32047372,10.9735735 2.95233151,9.32140828 C3.11304179,8.90113947 3.58412618,8.69075257 4.00414433,8.85152528 C4.42428873,9.01223486 4.63473966,9.48319095 4.47402938,9.90339664 C3.91343707,11.3690983 3.62919575,12.9157229 3.62919575,14.5000316 C3.62919575,21.5970071 9.40308822,27.3708113 16.5000316,27.3708113 C18.3716183,27.3708113 20.1757901,26.9782533 21.8624274,26.2041204 C22.2714622,26.0165207 22.755108,26.1957882 22.9427086,26.6046319 C23.1303722,27.0135387 22.9510408,27.4971192 22.5421953,27.6847821 C20.6406884,28.557449 18.6078233,29 16.5000316,29 L16.5000316,29 Z M26.8438781,24.2752266 C26.6546995,24.2752266 26.4647003,24.2097056 26.3105548,24.0761387 C25.9706393,23.7814203 25.933965,23.2669097 26.2286847,22.9270588 C28.2549219,20.5900158 29.3708674,17.5972574 29.3708674,14.5000316 C29.3708674,7.40305599 23.5969749,1.62925178 16.5000316,1.62925178 C14.4583924,1.62925178 12.5063874,2.09307504 10.698302,3.00778147 C10.2969682,3.21097241 9.80682073,3.05013658 9.6036289,2.64861512 C9.40056332,2.24715677 9.5612736,1.75713773 9.96273369,1.5540099 C12.0009643,0.522779561 14.2004101,0 16.4999684,0 C24.4952734,0 31,6.50469826 31,14.4999684 C31,17.9892474 29.7425967,21.3610557 27.4595133,23.9942689 C27.2985506,24.1801012 27.071814,24.2752266 26.8438781,24.2752266 L26.8438781,24.2752266 Z" id="Shape"></path>
                    <path d="M5,13 C4.70341159,13 4.42999511,12.8648211 4.24987772,12.6290681 C3.96698459,12.2589309 3.3143189,11.3228276 2.90767914,10.0922164 C1.67699927,9.68564022 0.740951333,9.03297852 0.370934214,8.75008712 C0.13524089,8.5699097 0,8.29655602 0,8.00003057 C0,7.70350511 0.13524089,7.43002916 0.370934214,7.24991288 C0.741073612,6.96702148 1.67718269,6.31429864 2.90767914,5.9077225 C3.31425776,4.67711129 3.96698459,3.74106908 4.24987772,3.37099309 C4.42999511,3.13524006 4.70341159,3 5,3 C5.29658841,3 5.57000489,3.13517892 5.75012228,3.37093195 C6.03301541,3.74106908 6.6856811,4.67717243 7.09232086,5.90778364 C8.32293959,6.31435978 9.25898753,6.96708262 9.62906579,7.24997402 C9.86475911,7.4300903 10,7.70356625 10,8.00009171 C10,8.29661716 9.86475911,8.56997084 9.62906579,8.75014826 C9.25898753,9.03303966 8.32293959,9.68570136 7.09232086,10.0922775 C6.68574224,11.3228887 6.03301541,12.2589921 5.75012228,12.6291292 C5.57000489,12.8648211 5.29658841,13 5,13 L5,13 Z M2.08926388,8.00003057 C2.52494497,8.25180208 3.09452189,8.52368841 3.74370262,8.69536748 C4.01797506,8.76787865 4.23208608,8.98211065 4.3045977,9.25638141 C4.47633896,9.90543589 4.74816581,10.4750093 4.99993886,10.91081 C5.25171191,10.4751316 5.5235999,9.90543589 5.69528002,9.25638141 C5.76779164,8.98211065 5.98202494,8.76800093 6.2561751,8.69536748 C6.90529469,8.52368841 7.47481047,8.25186322 7.91061384,8.00003057 C7.47481047,7.74825906 6.90535583,7.47643387 6.2561751,7.30469366 C5.98190267,7.23218249 5.76779164,7.01795049 5.69528002,6.74367973 C5.52353876,6.09462525 5.25171191,5.52505182 4.99993886,5.08925111 C4.74816581,5.52505182 4.47627782,6.09462525 4.3045977,6.74367973 C4.23208608,7.01795049 4.01785278,7.23206021 3.74370262,7.30469366 C3.09458303,7.47637273 2.52506725,7.74813678 2.08926388,8.00003057 L2.08926388,8.00003057 Z" id="Shape"></path>
                    <path d="M15.4402289,20.0099813 C15.1330922,20.0099813 14.8499332,19.8699035 14.6633384,19.6257473 C14.4184,19.3051495 13.8605755,18.5058435 13.4986886,17.4514704 C12.4445192,17.0895809 11.645219,16.5319483 11.3245581,16.2868775 C11.0802731,16.1001506 10.9402616,15.8169896 10.9402616,15.509916 C10.9402616,15.2028424 11.0802077,14.9196814 11.3244275,14.7330852 C11.6451537,14.487949 12.4445845,13.9302511 13.498754,13.5683616 C13.8606408,12.5140539 14.4184653,11.7147479 14.6634037,11.3942153 C14.8499986,11.1500592 15.1330922,11.0099813 15.4402943,11.0099813 C15.7474309,11.0099813 16.0305899,11.1500592 16.2171848,11.3942153 C16.4621232,11.7148132 17.0199477,12.5141192 17.3818345,13.5683616 C18.436004,13.9302511 19.2353042,14.4880143 19.5559651,14.7330198 C19.8002501,14.9197467 19.9402616,15.2029078 19.9402616,15.5099813 C19.9402616,15.8170549 19.8003155,16.100216 19.5560957,16.2868122 C19.2353695,16.5319483 18.4359386,17.0896462 17.3817692,17.4514704 C17.0198824,18.5057781 16.4620578,19.3051495 16.2171194,19.6257473 C16.0305246,19.8699688 15.7473656,20.0099813 15.4402289,20.0099813 L15.4402289,20.0099813 Z M13.240618,15.5099813 C13.5670937,15.6798518 13.9576623,15.8468476 14.3895876,15.9610528 C14.6827427,16.0385399 14.9116089,16.2674731 14.9891607,16.560565 C15.1032998,16.9924934 15.2703597,17.3830648 15.4402289,17.7095429 C15.6100982,17.3830648 15.7770927,16.9924934 15.8912971,16.560565 C15.968849,16.2674731 16.1977805,16.0385399 16.4908703,15.9610528 C16.9227955,15.8467823 17.3132988,15.6798518 17.6398398,15.5099813 C17.3133642,15.3401108 16.9227955,15.1731151 16.490805,15.0589098 C16.1977151,14.9814228 15.9689143,14.7524896 15.8912971,14.4593977 C15.7771581,14.0274693 15.6100982,13.6368978 15.4402289,13.3104198 C15.2703597,13.6368978 15.1033651,14.0274693 14.9891607,14.4593977 C14.9116089,14.7524896 14.6826774,14.9814228 14.3896529,15.0589098 C13.9576623,15.1731151 13.567159,15.3401762 13.240618,15.5099813 L13.240618,15.5099813 Z" id="Shape"></path>
                    <path d="M24,31 C23.7034116,31 23.4299951,30.8648227 23.2498777,30.6290726 C22.9670457,30.25894 22.3143189,29.3228481 21.9076791,28.0922519 C20.6770604,27.6856807 19.7410125,27.0329659 19.3709342,26.750078 C19.1352409,26.5699639 19,26.2964913 19,25.9999694 C19,25.7034476 19.1352409,25.4300973 19.3709342,25.249922 C19.7410125,24.9670952 20.6770604,24.3143804 21.9076791,23.9078092 C22.3142578,22.6772131 22.9670457,21.7411212 23.2498777,21.3709885 C23.4299951,21.1352384 23.7034116,21 24,21 C24.2965884,21 24.5700049,21.1351773 24.7501223,21.3709274 C25.0329543,21.74106 25.6856811,22.6771519 26.0923209,23.9077481 C27.3230007,24.3143193 28.2590487,24.966973 28.6290658,25.2498609 C28.8647591,25.429975 29,25.7033865 29,25.9999083 C29,26.2964301 28.8647591,26.5699027 28.6290658,26.7500168 C28.2589264,27.0328436 27.3228173,27.6856196 26.0923209,28.0921908 C25.6857422,29.3227869 25.0330154,30.2588177 24.7501223,30.6288892 C24.5700049,30.8647616 24.2965884,31 24,31 L24,31 Z M21.0892027,26.0000917 C21.5250061,26.2518601 22.0945219,26.523682 22.7436415,26.6954201 C23.0179139,26.7679304 23.2320249,26.9821598 23.3045366,27.2564272 C23.4762778,27.9054737 23.7481047,28.4750402 23.9998777,28.9108356 C24.2516508,28.4750402 24.5235388,27.9054737 24.6952189,27.2564272 C24.7677305,26.9821598 24.9819638,26.7680527 25.256114,26.6954201 C25.9052336,26.5237431 26.4746882,26.2519213 26.9105527,26.0000917 C26.4748716,25.7483233 25.9052336,25.4764403 25.256114,25.3047633 C24.9818415,25.232253 24.7677305,25.0180236 24.6952189,24.7437562 C24.5234776,24.0947097 24.2516508,23.5251432 23.9998777,23.0893478 C23.7481047,23.5250209 23.4762167,24.0947097 23.3045366,24.7437562 C23.2320249,25.0180236 23.0177916,25.2321307 22.7436415,25.3047633 C22.094583,25.4764403 21.5250061,25.7482621 21.0892027,26.0000917 L21.0892027,26.0000917 Z" id="Shape"></path>
                </g>
            </g>
        </g>
    </g>
</svg>