<?xml version="1.0" encoding="UTF-8" standalone="no"?>
<svg width="40px" height="40px" viewBox="0 0 40 40" version="1.1" xmlns="http://www.w3.org/2000/svg" xmlns:xlink="http://www.w3.org/1999/xlink">
    <!-- Generator: Sketch 46.1 (44463) - http://www.bohemiancoding.com/sketch -->
    <title>steeringwheel</title>
    <desc>Created with Sketch.</desc>
    <defs></defs>
    <g id="Icons" stroke="none" stroke-width="1" fill="none" fill-rule="evenodd">
        <g id="Automotive" transform="translate(-179.000000, -1335.000000)" fill="#231F20">
            <g id="Steering-Wheel" transform="translate(185.000000, 1341.000000)">
                <g>
                    <path d="M14.5,0 C6.50497619,0 0,6.50497619 0,14.5 C0,22.4950238 6.50497619,29 14.5,29 C22.4950238,29 29,22.4950238 29,14.5 C29,6.50497619 22.4950238,0 14.5,0 L14.5,0 Z M14.5,27.6190476 C7.26588095,27.6190476 1.38095238,21.7334286 1.38095238,14.5 C1.38095238,7.26588095 7.26588095,1.38095238 14.5,1.38095238 C21.734119,1.38095238 27.6190476,7.26588095 27.6190476,14.5 C27.6190476,21.7334286 21.734119,27.6190476 14.5,27.6190476 L14.5,27.6190476 Z M14.5,2.76190476 C8.02747619,2.76190476 2.76190476,8.02747619 2.76190476,14.5 C2.76190476,20.9725238 8.02747619,26.2380952 14.5,26.2380952 C20.9725238,26.2380952 26.2380952,20.9725238 26.2380952,14.5 C26.2380952,8.02747619 20.9725238,2.76190476 14.5,2.76190476 L14.5,2.76190476 Z M14.5,4.14285714 C19.4583095,4.14285714 23.6094524,7.64633333 24.6182381,12.3070476 L18.2948571,11.5164524 C17.4089762,10.3923571 16.0390714,9.66666667 14.5,9.66666667 C12.9609286,9.66666667 11.5910238,10.3923571 10.7051429,11.5164524 L4.3817619,12.3070476 C5.39054762,7.64633333 9.54169048,4.14285714 14.5,4.14285714 L14.5,4.14285714 Z M17.952381,14.5 C17.952381,16.4036429 16.4036429,17.952381 14.5,17.952381 C12.5963571,17.952381 11.047619,16.4036429 11.047619,14.5 C11.047619,12.5963571 12.5963571,11.047619 14.5,11.047619 C16.4036429,11.047619 17.952381,12.5963571 17.952381,14.5 L17.952381,14.5 Z M4.14285714,14.5 C4.14285714,14.237619 4.16288095,13.9807619 4.18221429,13.7232143 L9.90488095,13.007881 C9.75159524,13.4780952 9.66666667,13.979381 9.66666667,14.5 C9.66666667,15.020619 9.75159524,15.5212143 9.90488095,15.9914286 L4.18221429,15.2760952 C4.16288095,15.0192381 4.14285714,14.7616905 4.14285714,14.5 L4.14285714,14.5 Z M4.3817619,16.6929524 L10.7051429,17.4828571 C10.9426667,17.7845952 11.2147143,18.0573333 11.5164524,18.2948571 L12.3070476,24.6182381 C8.35407143,23.7620476 5.2372619,20.6459286 4.3817619,16.6929524 L4.3817619,16.6929524 Z M15.2760952,24.8177857 C15.0192381,24.837119 14.7616905,24.8571429 14.5,24.8571429 C14.237619,24.8571429 13.9807619,24.837119 13.7239048,24.8177857 L13.0085714,19.095119 C13.4787857,19.2477143 13.979381,19.3333333 14.5,19.3333333 C15.020619,19.3333333 15.5212143,19.2477143 15.9914286,19.095119 L15.2760952,24.8177857 L15.2760952,24.8177857 Z M16.6929524,24.6182381 L17.4835476,18.2948571 C17.7852857,18.0573333 18.0573333,17.7845952 18.2948571,17.4828571 L24.6182381,16.6929524 C23.7627381,20.6459286 20.6459286,23.7620476 16.6929524,24.6182381 L16.6929524,24.6182381 Z M19.095119,15.9914286 C19.2484048,15.5212143 19.3333333,15.020619 19.3333333,14.5 C19.3333333,13.979381 19.2484048,13.4780952 19.095119,13.007881 L24.8177857,13.7232143 C24.837119,13.9807619 24.8571429,14.237619 24.8571429,14.5 C24.8571429,14.7616905 24.837119,15.0192381 24.8177857,15.2760952 L19.095119,15.9914286 L19.095119,15.9914286 Z"></path>
                </g>
            </g>
        </g>
    </g>
</svg>