<?xml version="1.0" encoding="UTF-8" standalone="no"?>
<svg width="40px" height="40px" viewBox="0 0 40 40" version="1.1" xmlns="http://www.w3.org/2000/svg" xmlns:xlink="http://www.w3.org/1999/xlink">
    <!-- Generator: Sketch 46.1 (44463) - http://www.bohemiancoding.com/sketch -->
    <title>stop</title>
    <desc>Created with Sketch.</desc>
    <defs></defs>
    <g id="Icons" stroke="none" stroke-width="1" fill="none" fill-rule="evenodd">
        <g id="Automotive" transform="translate(-352.000000, -239.000000)" fill="#231F20">
            <g id="Do-Not-Enter" transform="translate(358.000000, 245.000000)">
                <g>
                    <path d="M14.5,0 C6.50428571,0 0,6.50497619 0,14.5 C0,22.4957143 6.50428571,29 14.5,29 C22.4950238,29 29,22.4957143 29,14.5 C29,6.50497619 22.4950238,0 14.5,0 L14.5,0 Z M14.5,27.6190476 C7.26588095,27.6190476 1.38095238,21.734119 1.38095238,14.5 C1.38095238,7.26657143 7.26588095,1.38095238 14.5,1.38095238 C21.7334286,1.38095238 27.6190476,7.26657143 27.6190476,14.5 C27.6190476,21.734119 21.7334286,27.6190476 14.5,27.6190476 L14.5,27.6190476 Z M20.0148333,8.28433333 C19.7683333,8.28433333 19.5363333,8.31885714 19.3243571,8.38445238 L19.3243571,8.28364286 C19.3243571,7.08359524 18.4529762,6.21221429 17.2522381,6.21221429 C17.0057381,6.21221429 16.7744286,6.24742857 16.5617619,6.31302381 L16.5617619,6.21221429 C16.5617619,5.01147619 15.6910714,4.14078571 14.4903333,4.14078571 C13.3289524,4.14078571 12.4189048,5.05083333 12.4189048,6.21221429 L12.4189048,6.31302381 C12.2062381,6.24742857 11.9749286,6.21221429 11.7277381,6.21221429 C10.5470238,6.21221429 9.65630952,7.10292857 9.65630952,8.28364286 L9.65630952,14.9356905 L7.35011905,12.6909524 C7.31283333,12.6550476 7.27278571,12.6239762 7.22859524,12.5970476 C6.90683333,12.3995714 6.53604762,12.2953095 6.15766667,12.2953095 C5.39538095,12.2953095 4.70421429,12.7109762 4.35414286,13.3800476 C4.01028571,14.0366905 4.05930952,14.8238333 4.46530952,15.4072857 L7.60697619,20.4111667 C9.08390476,22.7629286 11.6234762,24.1673571 14.4005714,24.1673571 L15.095881,24.1673571 C18.3093571,24.1673571 21.0981905,21.9895952 21.8777381,18.8720952 C22.0165238,18.3176429 22.0862619,17.746619 22.0862619,17.1769762 L22.0862619,10.3557619 C22.0862619,9.15502381 21.2155714,8.28433333 20.0148333,8.28433333 L20.0148333,8.28433333 Z M20.7053095,17.1769762 C20.7053095,17.6340714 20.649381,18.0918571 20.5382143,18.5372143 C19.9126429,21.0388095 17.6748095,22.7864048 15.095881,22.7864048 L14.4005714,22.7864048 C12.1012857,22.7864048 9.99878571,21.6236429 8.77595238,19.6765 L5.61702381,14.6470714 C5.42783333,14.3743333 5.52588095,14.1181667 5.57766667,14.0208095 C5.69021429,13.805381 5.90702381,13.6762619 6.15766667,13.6762619 C6.26054762,13.6762619 6.36066667,13.6997381 6.45180952,13.7439286 L9.86552381,17.0658095 C10.0650714,17.2598333 10.3599048,17.314381 10.615381,17.2073571 C10.8715476,17.0996429 11.0372619,16.849 11.0372619,16.5714286 L11.0372619,8.28364286 C11.0372619,7.86452381 11.308619,7.59316667 11.7277381,7.59316667 C12.1730952,7.59316667 12.4189048,7.83828571 12.4189048,8.28364286 L12.4189048,13.1190476 C12.4189048,13.5001905 12.7275476,13.8095238 13.109381,13.8095238 C13.4905238,13.8095238 13.7998571,13.5001905 13.7998571,13.1190476 L13.7998571,6.21221429 C13.7998571,5.81242857 14.0898571,5.5217381 14.4903333,5.5217381 C14.9294762,5.5217381 15.1808095,5.7737619 15.1808095,6.21221429 L15.1808095,13.1190476 C15.1808095,13.5001905 15.4901429,13.8095238 15.8712857,13.8095238 C16.2524286,13.8095238 16.5617619,13.5001905 16.5617619,13.1190476 L16.5617619,8.28364286 C16.5617619,7.83828571 16.806881,7.59316667 17.2522381,7.59316667 C17.6851667,7.59316667 17.9434048,7.85140476 17.9434048,8.28364286 L17.9434048,13.1190476 C17.9434048,13.5001905 18.2520476,13.8095238 18.633881,13.8095238 C19.0150238,13.8095238 19.3243571,13.5001905 19.3243571,13.1190476 L19.3243571,10.3557619 C19.3243571,9.91040476 19.5694762,9.66528571 20.0148333,9.66528571 C20.6155476,9.66528571 20.7053095,10.0975238 20.7053095,10.3557619 L20.7053095,17.1769762 L20.7053095,17.1769762 Z"></path>
                </g>
            </g>
        </g>
    </g>
</svg>