<?xml version="1.0" encoding="UTF-8" standalone="no"?>
<svg width="40px" height="40px" viewBox="0 0 40 40" version="1.1" xmlns="http://www.w3.org/2000/svg" xmlns:xlink="http://www.w3.org/1999/xlink">
    <!-- Generator: Sketch 46.1 (44463) - http://www.bohemiancoding.com/sketch -->
    <title>stress</title>
    <desc>Created with Sketch.</desc>
    <defs></defs>
    <g id="Page-1" stroke="none" stroke-width="1" fill="none" fill-rule="evenodd">
        <g id="50-Emoji-Icons" transform="translate(-1030.000000, -1790.000000)" fill="#000000">
            <g id="stress" transform="translate(1036.000000, 1796.000000)">
                <path d="M13.9998108,0 C6.28032432,0 0,6.28032432 0,13.9998108 C0,21.7192973 6.28032432,27.9996216 13.9998108,27.9996216 C21.7192973,27.9996216 27.9996216,21.7192973 27.9996216,13.9998108 C27.9996216,6.28032432 21.7193919,0 13.9998108,0 L13.9998108,0 Z M13.9998108,26.4861081 C10.5701892,26.4861081 7.45925676,25.0959459 5.20043243,22.8498919 C4.29837838,21.9529459 3.53263514,20.9192162 2.93640541,19.7831351 C2.0282973,18.0530946 1.51351351,16.0856216 1.51351351,13.9998108 C1.51351351,7.11483784 7.11483784,1.51351351 13.9998108,1.51351351 C17.2655,1.51351351 20.2418243,2.77427027 22.4691486,4.83397297 C23.6239595,5.90175676 24.5775676,7.18408108 25.2651757,8.61737838 C26.047473,10.2480946 26.4861081,12.0736757 26.4861081,13.9998108 C26.4861081,20.8847838 20.8847838,26.4861081 13.9998108,26.4861081 L13.9998108,26.4861081 Z" id="Shape"></path>
                <polygon id="Shape" points="10.122473 13.9867568 10.1312703 13.9955541 12.8984459 11.2281892 10.1311757 8.46101351 9.06102703 9.53135135 10.7581486 11.2281892 9.43552703 12.5507162 9.06093243 12.9253108"></polygon>
                <polygon id="Shape" points="18.5639054 12.5507162 17.2413784 11.2281892 18.9384054 9.53135135 17.8683514 8.46101351 15.1009865 11.2281892 17.8682568 13.9955541 17.8769595 13.9867568 18.9385 12.9253108"></polygon>
                <path d="M20.2114595,17.9098784 L20.2114595,17.8778108 C20.2114595,17.5991351 20.1786351,17.3304865 20.0896216,17.0803784 C19.7857838,16.2258108 19.0167297,15.5899459 18.0823243,15.5203243 C18.0259459,15.5160676 17.9770405,15.5132297 17.9196216,15.5132297 L10.0799054,15.5132297 C10.0224865,15.5132297 9.96563514,15.5160676 9.90925676,15.5203243 C8.97475676,15.5899459 8.18214865,16.2258108 7.87831081,17.0803784 C7.78939189,17.3303919 7.72497297,17.5990405 7.72497297,17.8778108 L7.72497297,17.9098784 C7.72497297,19.1983514 8.79133784,20.2429595 10.0799054,20.2429595 L17.9196216,20.2429595 C19.2080946,20.2429595 20.2114595,19.1983514 20.2114595,17.9098784 L20.2114595,17.9098784 Z M9.23848649,17.9098784 L9.23848649,17.8778108 C9.23848649,17.4259324 9.62793243,17.0267432 10.0799054,17.0267432 L17.8780946,17.0267432 L17.919527,17.0267432 C18.3714054,17.0267432 18.6979459,17.4259324 18.6979459,17.8778108 L18.6979459,17.9098784 C18.6979459,18.3617568 18.3715,18.7294459 17.919527,18.7294459 L10.0798108,18.7294459 C9.62793243,18.7294459 9.23848649,18.3617568 9.23848649,17.9098784 L9.23848649,17.9098784 Z" id="Shape"></path>
            </g>
        </g>
    </g>
</svg>