<?xml version="1.0" encoding="UTF-8" standalone="no"?>
<svg width="40px" height="40px" viewBox="0 0 40 40" version="1.1" xmlns="http://www.w3.org/2000/svg" xmlns:xlink="http://www.w3.org/1999/xlink">
    <!-- Generator: Sketch 46.1 (44463) - http://www.bohemiancoding.com/sketch -->
    <title>sun</title>
    <desc>Created with Sketch.</desc>
    <defs></defs>
    <g id="Page-1" stroke="none" stroke-width="1" fill="none" fill-rule="evenodd">
        <g id="Artboard-1-Copy-7" transform="translate(-815.000000, -699.000000)">
            <g id="icons" transform="translate(331.000000, 269.000000)">
                <g id="sun" transform="translate(488.000000, 434.000000)">
                    <circle id="base" stroke="#000000" cx="16.3012014" cy="16.5" r="8"></circle>
                    <path d="M15.6562569,0.348310511 C15.6562569,0.155943928 15.815708,4.26325641e-14 16,4.26325641e-14 C16.1898441,4.26325641e-14 16.3437431,0.147689075 16.3437431,0.348310511 L16.3437431,4.09055729 C16.3437431,4.28292387 16.184292,4.4388678 16,4.4388678 C15.8101559,4.4388678 15.6562569,4.29117872 15.6562569,4.09055729 L15.6562569,0.348310511 Z M24.7884678,3.13547007 C24.901538,2.97984224 25.1221983,2.94740399 25.2712936,3.05572809 C25.4248807,3.16731564 25.4625782,3.3772582 25.3446559,3.53956435 L23.1450184,6.56710559 C23.0319482,6.72273343 22.8112879,6.75517168 22.6621926,6.64684757 C22.5086055,6.53526002 22.470908,6.32531746 22.5888303,6.16301131 L24.7884678,3.13547007 Z M30.5637827,10.8364428 C30.7467342,10.7769983 30.9443188,10.880456 31.0012682,11.0557281 C31.0599332,11.2362805 30.96703,11.4282857 30.7762277,11.4902811 L27.2171395,12.6466989 C27.034188,12.7061435 26.8366034,12.6026858 26.779654,12.4274137 C26.720989,12.2468612 26.8138922,12.0548561 27.0046946,11.9928607 L30.5637827,10.8364428 Z M30.7762277,20.5097189 C30.9591792,20.5691634 31.0582175,20.7689998 31.0012682,20.9442719 C30.9426031,21.1248244 30.7545851,21.2255526 30.5637827,21.1635572 L27.0046946,20.0071393 C26.8217431,19.9476948 26.7227047,19.7478584 26.779654,19.5725863 C26.8383191,19.3920339 27.0263372,19.2913056 27.2171395,19.3533011 L30.7762277,20.5097189 Z M25.3446559,28.4604356 C25.4577261,28.6160635 25.4203889,28.8359478 25.2712936,28.9442719 C25.1177065,29.0558595 24.9063901,29.0268361 24.7884678,28.8645299 L22.5888303,25.8369887 C22.4757601,25.6813609 22.5130972,25.4614765 22.6621926,25.3531524 C22.8157797,25.2415649 23.0270961,25.2705883 23.1450184,25.4328944 L25.3446559,28.4604356 Z M16.3437431,31.6516895 C16.3437431,31.8440561 16.184292,32 16,32 C15.8101559,32 15.6562569,31.8523109 15.6562569,31.6516895 L15.6562569,27.9094427 C15.6562569,27.7170761 15.815708,27.5611322 16,27.5611322 C16.1898441,27.5611322 16.3437431,27.7088213 16.3437431,27.9094427 L16.3437431,31.6516895 Z M7.2115322,28.8645299 C7.09846196,29.0201578 6.87780173,29.052596 6.72870639,28.9442719 C6.5751193,28.8326844 6.53742182,28.6227418 6.65534414,28.4604356 L8.8549816,25.4328944 C8.96805185,25.2772666 9.18871208,25.2448283 9.33780742,25.3531524 C9.49139451,25.46474 9.52909199,25.6746825 9.41116967,25.8369887 L7.2115322,28.8645299 Z M1.43621727,21.1635572 C1.25326578,21.2230017 1.05568117,21.119544 0.998731819,20.9442719 C0.94006677,20.7637195 1.03297001,20.5717143 1.22377233,20.5097189 L4.78286051,19.3533011 C4.96581201,19.2938565 5.16339661,19.3973142 5.22034596,19.5725863 C5.27901101,19.7531388 5.18610777,19.9451439 4.99530545,20.0071393 L1.43621727,21.1635572 Z M1.22377233,11.4902811 C1.04082084,11.4308366 0.941782468,11.2310002 0.998731819,11.0557281 C1.05739687,10.8751756 1.24541494,10.7744474 1.43621727,10.8364428 L4.99530545,11.9928607 C5.17825694,12.0523052 5.27729531,12.2521416 5.22034596,12.4274137 C5.16168091,12.6079661 4.97366284,12.7086944 4.78286051,12.6466989 L1.22377233,11.4902811 Z M6.65534414,3.53956435 C6.5422739,3.38393652 6.57961105,3.16405219 6.72870639,3.05572809 C6.88229348,2.94414054 7.09360988,2.97316392 7.2115322,3.13547007 L9.41116967,6.16301131 C9.52423991,6.31863915 9.48690275,6.53852347 9.33780742,6.64684757 C9.18422033,6.75843513 8.97290393,6.72941174 8.8549816,6.56710559 L6.65534414,3.53956435 Z" id="around" fill="#000000"></path>
                </g>
            </g>
        </g>
    </g>
</svg>