<?xml version="1.0" encoding="UTF-8" standalone="no"?>
<svg width="40px" height="40px" viewBox="0 0 40 40" version="1.1" xmlns="http://www.w3.org/2000/svg" xmlns:xlink="http://www.w3.org/1999/xlink">
    <!-- Generator: Sketch 46.1 (44463) - http://www.bohemiancoding.com/sketch -->
    <title>surprised</title>
    <desc>Created with Sketch.</desc>
    <defs></defs>
    <g id="Page-1" stroke="none" stroke-width="1" fill="none" fill-rule="evenodd">
        <g id="50-Emoji-Icons" transform="translate(-320.000000, -2100.000000)" fill="#000000">
            <g id="surprised-1" transform="translate(326.000000, 2106.000000)">
                <path d="M13.9998108,0 C6.28032432,0 0,6.28032432 0,13.9998108 C0,21.7192973 6.28032432,27.9996216 13.9998108,27.9996216 C21.7192973,27.9996216 27.9996216,21.7192973 27.9996216,13.9998108 C27.9996216,6.28032432 21.7192973,0 13.9998108,0 L13.9998108,0 Z M13.9998108,26.4861081 C10.5700946,26.4861081 7.45925676,25.0959459 5.20043243,22.8498919 C4.29837838,21.9529459 3.53263514,20.9192162 2.93640541,19.7831351 C2.0282973,18.0530946 1.51351351,16.0856216 1.51351351,13.9998108 C1.51351351,7.11483784 7.11483784,1.51351351 13.9998108,1.51351351 C17.2655,1.51351351 20.2418243,2.77427027 22.4691486,4.83397297 C23.6239595,5.90175676 24.5775676,7.18408108 25.2651757,8.61747297 C26.047473,10.2480946 26.4861081,12.0736757 26.4861081,13.9998108 C26.4861081,20.8847838 20.8847838,26.4861081 13.9998108,26.4861081 L13.9998108,26.4861081 Z" id="Shape"></path>
                <circle id="Oval" cx="9.31728378" cy="10.8781892" r="1.51351351"></circle>
                <circle id="Oval" cx="18.6821486" cy="10.8781892" r="1.51351351"></circle>
                <path d="M19.5723784,19.5371892 C19.5723784,16.464473 17.0724324,13.964527 13.9996216,13.964527 C10.9269054,13.964527 8.42705405,16.464473 8.42705405,19.5371892 C8.42705405,22.1812027 10.2784595,24.3994459 12.7525811,24.9674865 C13.1537568,25.0597162 13.5708243,25.1099459 13.9996216,25.1099459 C15.2215946,25.1099459 16.3521892,24.7135946 17.2717432,24.0440541 C18.6646486,23.0300946 19.5723784,21.3881216 19.5723784,19.5371892 L19.5723784,19.5371892 Z M13.9996216,23.5964324 C11.7614189,23.5964324 9.94056757,21.7754865 9.94056757,19.5371892 C9.94056757,17.2989865 11.7614189,15.4780405 13.9996216,15.4780405 C16.2379189,15.4780405 18.0588649,17.2989865 18.0588649,19.5371892 C18.0588649,21.7754865 16.2379189,23.5964324 13.9996216,23.5964324 L13.9996216,23.5964324 Z" id="Shape"></path>
                <rect id="Rectangle-path" transform="translate(20.794242, 7.215981) rotate(216.320988) translate(-20.794242, -7.215981) " x="18.6804137" y="6.45928231" width="4.22765656" height="1.51339756"></rect>
                <polygon id="Shape" points="5.22635135 8.09275676 5.95075676 9.07824324 9.35710811 6.57394595 8.46063514 5.35452703 6.06114865 7.11862162 5.05437838 7.85882432"></polygon>
            </g>
        </g>
    </g>
</svg>