<?xml version="1.0" encoding="UTF-8" standalone="no"?>
<svg width="40px" height="40px" viewBox="0 0 40 40" version="1.1" xmlns="http://www.w3.org/2000/svg" xmlns:xlink="http://www.w3.org/1999/xlink">
    <!-- Generator: Sketch 46.1 (44463) - http://www.bohemiancoding.com/sketch -->
    <title>swat</title>
    <desc>Created with Sketch.</desc>
    <defs></defs>
    <g id="Icons" stroke="none" stroke-width="1" fill="none" fill-rule="evenodd">
        <g id="Automotive" transform="translate(-524.000000, -1256.000000)" fill="#231F20">
            <g id="Swat-Truck" transform="translate(527.000000, 1268.000000)">
                <g>
                    <path d="M11.137931,12.4444444 C11.137931,13.0986667 10.6132759,13.6296296 9.96551724,13.6296296 C9.31775862,13.6296296 8.79310345,13.0986667 8.79310345,12.4444444 C8.79310345,11.7896296 9.31775862,11.2592593 9.96551724,11.2592593 C10.6132759,11.2592593 11.137931,11.7896296 11.137931,12.4444444 L11.137931,12.4444444 Z M28.137931,11.2592593 C27.4907586,11.2592593 26.9655172,11.7896296 26.9655172,12.4444444 C26.9655172,13.0986667 27.4907586,13.6296296 28.137931,13.6296296 C28.7856897,13.6296296 29.3103448,13.0986667 29.3103448,12.4444444 C29.3103448,11.7896296 28.7856897,11.2592593 28.137931,11.2592593 L28.137931,11.2592593 Z M10.5517241,4.74074074 C10.5517241,4.41303704 10.2896897,4.14814815 9.96551724,4.14814815 L2.34482759,4.14814815 C2.02065517,4.14814815 1.75862069,4.41303704 1.75862069,4.74074074 C1.75862069,5.06785185 2.02065517,5.33333333 2.34482759,5.33333333 L9.96551724,5.33333333 C10.2896897,5.33333333 10.5517241,5.06785185 10.5517241,4.74074074 L10.5517241,4.74074074 Z M17,3.55555556 C16.6758276,3.55555556 16.4137931,3.82044444 16.4137931,4.14814815 L16.4137931,11.2592593 C16.4137931,11.5863704 16.6758276,11.8518519 17,11.8518519 C17.3241724,11.8518519 17.5862069,11.5863704 17.5862069,11.2592593 L17.5862069,6.51851852 L20.5172414,6.51851852 C20.8414138,6.51851852 21.1034483,6.25303704 21.1034483,5.92592593 C21.1034483,5.59822222 20.8414138,5.33333333 20.5172414,5.33333333 L17.5862069,5.33333333 L17.5862069,4.14814815 C17.5862069,3.82044444 17.3241724,3.55555556 17,3.55555556 L17,3.55555556 Z M34,7.7037037 L34,13.037037 C34,13.3641481 33.7379655,13.6296296 33.4137931,13.6296296 L31.45,13.6296296 C30.9657931,15.008 29.6661724,16 28.137931,16 C26.1981724,16 24.6206897,14.4047407 24.6206897,12.4444444 C24.6206897,10.4835556 26.1981724,8.88888889 28.137931,8.88888889 C30.0771034,8.88888889 31.6551724,10.4835556 31.6551724,12.4444444 L32.8275862,12.4444444 L32.8275862,7.94903704 L31.4124828,6.51851852 L25.2068966,6.51851852 C25.0509655,6.51851852 24.902069,6.4557037 24.7924483,6.34488889 L21.4469655,2.96296296 L15.8275862,2.96296296 C15.5034138,2.96296296 15.2413793,2.69748148 15.2413793,2.37037037 L15.2413793,1.77777778 L10.5517241,1.77777778 L10.5517241,2.37037037 C10.5517241,2.69748148 10.2896897,2.96296296 9.96551724,2.96296296 L2.58751724,2.96296296 L1.17241379,4.39348148 L1.17241379,12.4444444 L4.68965517,12.4444444 C5.01382759,12.4444444 5.27586207,12.7093333 5.27586207,13.037037 C5.27586207,13.3641481 5.01382759,13.6296296 4.68965517,13.6296296 L0.586206897,13.6296296 C0.262034483,13.6296296 0,13.3641481 0,13.037037 L0,4.14814815 C0,3.99051852 0.0615517241,3.84 0.171758621,3.72918519 L1.93037931,1.95140741 C2.04,1.84 2.18889655,1.77777778 2.34482759,1.77777778 L9.37931034,1.77777778 L9.37931034,1.18518519 C9.37931034,0.857481481 9.64134483,0.592592593 9.96551724,0.592592593 L15.8275862,0.592592593 C16.1517586,0.592592593 16.4137931,0.857481481 16.4137931,1.18518519 L16.4137931,1.77777778 L18.7586207,1.77777778 L18.7586207,0.592592593 C18.7586207,0.264888889 19.0206552,0 19.3448276,0 C19.669,0 19.9310345,0.264888889 19.9310345,0.592592593 L19.9310345,1.77777778 L21.6896552,1.77777778 C21.8455862,1.77777778 21.9938966,1.84 22.1041034,1.95140741 L25.4495862,5.33333333 L31.6551724,5.33333333 C31.8111034,5.33333333 31.9594138,5.39555556 32.0696207,5.50696296 L33.8282414,7.28474074 C33.9378621,7.39555556 34,7.54607407 34,7.7037037 L34,7.7037037 Z M30.4827586,12.4444444 C30.4827586,11.1371852 29.4311034,10.0740741 28.137931,10.0740741 C26.8447586,10.0740741 25.7931034,11.1371852 25.7931034,12.4444444 C25.7931034,13.7517037 26.8447586,14.8148148 28.137931,14.8148148 C29.4311034,14.8148148 30.4827586,13.7517037 30.4827586,12.4444444 L30.4827586,12.4444444 Z M23.4482759,13.037037 C23.4482759,13.3641481 23.1862414,13.6296296 22.862069,13.6296296 L13.2775862,13.6296296 C12.7933793,15.008 11.4937586,16 9.96551724,16 C8.02575862,16 6.44827586,14.4047407 6.44827586,12.4444444 C6.44827586,10.4835556 8.02575862,8.88888889 9.96551724,8.88888889 C11.9046897,8.88888889 13.4827586,10.4835556 13.4827586,12.4444444 L22.862069,12.4444444 C23.1862414,12.4444444 23.4482759,12.7093333 23.4482759,13.037037 L23.4482759,13.037037 Z M12.3103448,12.4444444 C12.3103448,11.1371852 11.2586897,10.0740741 9.96551724,10.0740741 C8.67234483,10.0740741 7.62068966,11.1371852 7.62068966,12.4444444 C7.62068966,13.7517037 8.67234483,14.8148148 9.96551724,14.8148148 C11.2586897,14.8148148 12.3103448,13.7517037 12.3103448,12.4444444 L12.3103448,12.4444444 Z"></path>
                </g>
            </g>
        </g>
    </g>
</svg>