<?xml version="1.0" encoding="UTF-8" standalone="no"?>
<svg width="40px" height="40px" viewBox="0 0 40 40" version="1.1" xmlns="http://www.w3.org/2000/svg" xmlns:xlink="http://www.w3.org/1999/xlink">
    <!-- Generator: Sketch 46.1 (44463) - http://www.bohemiancoding.com/sketch -->
    <title>tank</title>
    <desc>Created with Sketch.</desc>
    <defs></defs>
    <g id="Icons" stroke="none" stroke-width="1" fill="none" fill-rule="evenodd">
        <g id="Automotive" transform="translate(-697.000000, -1256.000000)" fill="#231F20">
            <g id="Tank" transform="translate(700.000000, 1266.000000)">
                <g>
                    <path d="M35,1.3125 L35,6.5625 C35,6.92475 34.7102778,7.21875 34.3518519,7.21875 L31.7592593,7.21875 C31.4008333,7.21875 31.1111111,6.92475 31.1111111,6.5625 L31.1111111,5.90625 L24.6296296,5.90625 C24.2712037,5.90625 23.9814815,5.61225 23.9814815,5.25 C23.9814815,4.88709375 24.2712037,4.59375 24.6296296,4.59375 L31.7592593,4.59375 C32.1176852,4.59375 32.4074074,4.88709375 32.4074074,5.25 L32.4074074,5.90625 L33.7037037,5.90625 L33.7037037,1.96875 L32.4074074,1.96875 L32.4074074,2.625 C32.4074074,2.98725 32.1176852,3.28125 31.7592593,3.28125 L24.6296296,3.28125 C24.2712037,3.28125 23.9814815,2.98725 23.9814815,2.625 C23.9814815,2.26209375 24.2712037,1.96875 24.6296296,1.96875 L31.1111111,1.96875 L31.1111111,1.3125 C31.1111111,0.94959375 31.4008333,0.65625 31.7592593,0.65625 L34.3518519,0.65625 C34.7102778,0.65625 35,0.94959375 35,1.3125 L35,1.3125 Z M8.42592593,5.90625 C8.78435185,5.90625 9.07407407,5.61225 9.07407407,5.25 L9.07407407,2.625 C9.07407407,2.26275 9.36444444,1.96875 9.72222222,1.96875 L20.7407407,1.96875 C21.0985185,1.96875 21.3888889,2.26275 21.3888889,2.625 L21.3888889,5.25 C21.3888889,5.61225 21.6786111,5.90625 22.037037,5.90625 C22.395463,5.90625 22.6851852,5.61225 22.6851852,5.25 L22.6851852,2.625 C22.6851852,1.53890625 21.8127778,0.65625 20.7407407,0.65625 L18.1481481,0.65625 C18.1481481,0.29334375 17.8584259,0 17.5,0 L12.962963,0 C12.604537,0 12.3148148,0.29334375 12.3148148,0.65625 L9.72222222,0.65625 C8.65018519,0.65625 7.77777778,1.53890625 7.77777778,2.625 L7.77777778,5.25 C7.77777778,5.61225 8.0675,5.90625 8.42592593,5.90625 L8.42592593,5.90625 Z M32.4074074,12.46875 L32.4074074,15.09375 C32.4074074,15.456 32.1176852,15.75 31.7592593,15.75 L30.462963,15.75 C30.104537,15.75 29.8148148,15.456 29.8148148,15.09375 C29.8148148,14.7308438 30.104537,14.4375 30.462963,14.4375 L31.1111111,14.4375 L31.1111111,12.8605312 L23.17,8.53125 L2.86092593,8.53125 L1.2962963,10.1154375 L1.2962963,13.5095625 L3.02685185,15.26175 C3.6737037,13.9945312 4.97777778,13.125 6.48148148,13.125 L24.6296296,13.125 C26.7737037,13.125 28.5185185,14.8909688 28.5185185,17.0625 C28.5185185,19.233375 26.7737037,21 24.6296296,21 L6.48148148,21 C4.33675926,21 2.59259259,19.233375 2.59259259,17.0625 C2.59259259,16.834125 2.61592593,16.6116562 2.65287037,16.3944375 C2.63212963,16.3964062 2.61333333,16.40625 2.59259259,16.40625 C2.42666667,16.40625 2.26074074,16.3419375 2.13435185,16.2139687 L0.189907407,14.2452187 C0.0680555556,14.1218438 0,13.9551562 0,13.78125 L0,9.84375 C0,9.6691875 0.0680555556,9.5025 0.189907407,9.37978125 L2.13435185,7.41103125 C2.25555556,7.28765625 2.42018519,7.21875 2.59259259,7.21875 L23.3333333,7.21875 C23.4402778,7.21875 23.5459259,7.24565625 23.6405556,7.29684375 L32.0664815,11.8905938 C32.2764815,12.0054375 32.4074074,12.22725 32.4074074,12.46875 L32.4074074,12.46875 Z M3.88888889,17.0625 C3.88888889,18.5101875 5.05166667,19.6875 6.48148148,19.6875 L24.6296296,19.6875 C26.0594444,19.6875 27.2222222,18.5101875 27.2222222,17.0625 C27.2222222,15.6148125 26.0594444,14.4375 24.6296296,14.4375 L6.48148148,14.4375 C5.05166667,14.4375 3.88888889,15.6148125 3.88888889,17.0625 L3.88888889,17.0625 Z M7.77777778,18.375 C8.49398148,18.375 9.07407407,17.7876562 9.07407407,17.0625 C9.07407407,16.338 8.49398148,15.75 7.77777778,15.75 C7.06222222,15.75 6.48148148,16.338 6.48148148,17.0625 C6.48148148,17.7876562 7.06222222,18.375 7.77777778,18.375 L7.77777778,18.375 Z M12.962963,18.375 C13.6791667,18.375 14.2592593,17.7876562 14.2592593,17.0625 C14.2592593,16.338 13.6791667,15.75 12.962963,15.75 C12.2467593,15.75 11.6666667,16.338 11.6666667,17.0625 C11.6666667,17.7876562 12.2467593,18.375 12.962963,18.375 L12.962963,18.375 Z M18.1481481,18.375 C18.8643519,18.375 19.4444444,17.7876562 19.4444444,17.0625 C19.4444444,16.338 18.8643519,15.75 18.1481481,15.75 C17.4325926,15.75 16.8518519,16.338 16.8518519,17.0625 C16.8518519,17.7876562 17.4325926,18.375 18.1481481,18.375 L18.1481481,18.375 Z M23.3333333,18.375 C24.049537,18.375 24.6296296,17.7876562 24.6296296,17.0625 C24.6296296,16.338 24.049537,15.75 23.3333333,15.75 C22.6171296,15.75 22.037037,16.338 22.037037,17.0625 C22.037037,17.7876562 22.6171296,18.375 23.3333333,18.375 L23.3333333,18.375 Z"></path>
                </g>
            </g>
        </g>
    </g>
</svg>