<?xml version="1.0" encoding="UTF-8" standalone="no"?>
<svg width="40px" height="40px" viewBox="0 0 40 40" version="1.1" xmlns="http://www.w3.org/2000/svg" xmlns:xlink="http://www.w3.org/1999/xlink">
    <!-- Generator: Sketch 46.1 (44463) - http://www.bohemiancoding.com/sketch -->
    <title>telescope</title>
    <desc>Created with Sketch.</desc>
    <defs></defs>
    <g id="Page-1" stroke="none" stroke-width="1" fill="none" fill-rule="evenodd">
        <g id="30-Universe-Element-Icons" transform="translate(-945.000000, -494.000000)" fill="#000000">
            <g id="telescope" transform="translate(945.000000, 494.000000)">
                <g transform="translate(4.000000, 5.000000)" id="Shape">
                    <path d="M16.9193548,24.172372 L14.1565754,24.172372 C13.6479265,24.172372 13.2356691,23.7575945 13.2356691,23.2459724 C13.2356691,22.7343504 13.6479871,22.3195728 14.1565754,22.3195728 L16.9193548,22.3195728 C17.4278824,22.3195728 17.840261,22.7343504 17.840261,23.2459724 C17.840261,23.7576555 17.4280037,24.172372 16.9193548,24.172372 L16.9193548,24.172372 Z"></path>
                    <path d="M15.5034485,30.8519567 C14.9947996,30.8519567 14.5825423,30.4371791 14.5825423,29.9255571 L14.5825423,14.5125157 C14.5825423,14.0008327 14.9948603,13.5861161 15.5034485,13.5861161 C16.0120974,13.5861161 16.4243548,14.0008937 16.4243548,14.5125157 L16.4243548,29.9255571 C16.4242941,30.4372402 16.0120368,30.8519567 15.5034485,30.8519567 L15.5034485,30.8519567 Z"></path>
                    <path d="M4.3526636,29.9787087 C4.12548529,29.9787087 3.89788235,29.8946791 3.71977941,29.7252165 C3.35040993,29.3735374 3.3342739,28.7872224 3.68386765,28.4155276 L14.8345312,16.561689 C15.184125,16.1899941 15.7669632,16.1738228 16.136454,16.5254409 C16.5059449,16.8771201 16.5219596,17.463435 16.1723658,17.8351299 L5.02170221,29.6890295 C4.84056618,29.8815591 4.59682721,29.9787087 4.3526636,29.9787087 L4.3526636,29.9787087 Z"></path>
                    <path d="M26.6542335,29.9787087 C26.4100092,29.9787087 26.1662096,29.8816201 25.9850735,29.6890906 L14.8344706,17.8351299 C14.4848768,17.463435 14.5010129,16.8771201 14.8703824,16.5254409 C15.2399338,16.1737618 15.8227114,16.1900551 16.1723051,16.561689 L27.3229687,28.4155276 C27.6725625,28.7872224 27.6564265,29.3735374 27.2869357,29.7252165 C27.1090754,29.8946181 26.8814118,29.9787087 26.6542335,29.9787087 L26.6542335,29.9787087 Z"></path>
                    <path d="M3.18880699,17.1444646 C2.48143015,17.1444646 1.85521875,16.6654291 1.66577206,15.9794016 L0.0578106618,10.1541476 C-0.175433824,9.30915354 0.318170956,8.43084055 1.15815441,8.1961437 L3.23224081,7.61678543 C3.37036765,7.57815748 3.51286213,7.55862992 3.65559926,7.55862992 C4.3629761,7.55862992 4.9891875,8.03766535 5.17851287,8.72369291 L6.78653493,14.5489469 C6.89954779,14.9582323 6.84731801,15.3873504 6.63949081,15.7572146 C6.4316636,16.1270177 6.09311029,16.3932638 5.68625184,16.5069508 L3.6122261,17.0863091 C3.47409926,17.124815 3.33160478,17.1444646 3.18880699,17.1444646 L3.18880699,17.1444646 Z M1.90235294,9.91127362 L3.37079228,15.2307638 L4.94217463,14.7918209 L3.47373529,9.47233071 L1.90235294,9.91127362 L1.90235294,9.91127362 Z"></path>
                    <path d="M5.58282353,16.535815 L3.1288125,7.64571063 L26.9745882,0.984555118 L29.4284779,9.87465945 L21.9430588,11.9655728 C21.4529724,12.1025098 20.9454154,11.8138071 20.8092298,11.3208583 C20.6731048,10.8277874 20.9601562,10.3172638 21.450182,10.1803268 L27.1610625,8.58504724 L25.6926838,3.26555709 L5.39634926,8.93526181 L6.8647886,14.254752 L9.33445037,13.5648189 C9.82502206,13.428065 10.3321544,13.7166457 10.4682187,14.2095335 C10.6043437,14.7024823 10.3173529,15.213128 9.82732721,15.350065 L5.58282353,16.535815 L5.58282353,16.535815 Z"></path>
                    <path d="M15.6389669,16.3122854 C13.6950607,16.3122854 12.1134871,14.7213386 12.1134871,12.7658366 C12.1134871,10.8103346 13.695,9.2193878 15.6389669,9.2193878 C17.5829338,9.2193878 19.164386,10.8103346 19.164386,12.7658366 C19.164386,14.7213386 17.5828732,16.3122854 15.6389669,16.3122854 L15.6389669,16.3122854 Z M15.6389669,11.072126 C14.7105993,11.072126 13.9552996,11.8318701 13.9552996,12.7657146 C13.9552996,13.6995591 14.7105386,14.4593031 15.6389669,14.4593031 C16.5672739,14.4593031 17.3225129,13.6995591 17.3225129,12.7657146 C17.3225129,11.8318701 16.5672739,11.072126 15.6389669,11.072126 L15.6389669,11.072126 Z"></path>
                    <path d="M28.2762684,11.5754488 C27.5690129,11.5754488 26.9427408,11.0964134 26.7533548,10.4104469 L24.6855772,2.91991929 C24.4525147,2.07486417 24.9459982,1.1966122 25.785921,0.961915354 L28.9281397,0.0841515748 C29.0663879,0.045523622 29.208761,0.025996063 29.3515588,0.025996063 C30.0589357,0.025996063 30.6850864,0.505031496 30.8744724,1.19099803 L32.94225,8.68146457 C33.1753125,9.52651969 32.6817077,10.4047717 31.8419062,10.6393465 L28.6996875,11.5171102 C28.5615607,11.5559213 28.4191268,11.5754488 28.2762684,11.5754488 L28.2762684,11.5754488 Z M26.5301195,2.67704528 L28.4582537,9.66187008 L31.0977077,8.92452165 L29.1695735,1.93975787 L26.5301195,2.67704528 L26.5301195,2.67704528 Z"></path>
                </g>
            </g>
        </g>
    </g>
</svg>