<?xml version="1.0" encoding="UTF-8" standalone="no"?>
<svg width="40px" height="40px" viewBox="0 0 40 40" version="1.1" xmlns="http://www.w3.org/2000/svg" xmlns:xlink="http://www.w3.org/1999/xlink">
    <!-- Generator: Sketch 46.1 (44463) - http://www.bohemiancoding.com/sketch -->
    <title>temperature</title>
    <desc>Created with Sketch.</desc>
    <defs></defs>
    <g id="Icons" stroke="none" stroke-width="1" fill="none" fill-rule="evenodd">
        <g id="Automotive" transform="translate(-869.000000, -1256.000000)" fill="#231F20">
            <g id="Temperature" transform="translate(876.000000, 1265.000000)">
                <g>
                    <path d="M13.4998591,18.6875 C15.4587802,18.6875 17.0524907,17.0753438 17.0524907,15.09375 C17.0524907,13.3529375 15.8225696,11.899625 14.1961749,11.5711562 C14.1983065,11.546 14.2103854,11.5251563 14.2103854,11.5 L14.2103854,8.625 L16.3419644,8.625 C16.7348854,8.625 17.0524907,8.303 17.0524907,7.90625 C17.0524907,7.50878125 16.7348854,7.1875 16.3419644,7.1875 L14.2103854,7.1875 L14.2103854,5.75 L16.3419644,5.75 C16.7348854,5.75 17.0524907,5.428 17.0524907,5.03125 C17.0524907,4.63378125 16.7348854,4.3125 16.3419644,4.3125 L14.2103854,4.3125 L14.2103854,2.875 L16.3419644,2.875 C16.7348854,2.875 17.0524907,2.553 17.0524907,2.15625 C17.0524907,1.75878125 16.7348854,1.4375 16.3419644,1.4375 L14.2103854,1.4375 L14.2103854,0.71875 C14.2103854,0.32128125 13.8927802,0 13.4998591,0 C13.1069381,0 12.7893328,0.32128125 12.7893328,0.71875 L12.7893328,11.5 C12.7893328,11.5251563 12.8007012,11.546 12.8035433,11.5711562 C11.1771486,11.899625 9.94722753,13.3529375 9.94722753,15.09375 C9.94722753,17.0753438 11.5409381,18.6875 13.4998591,18.6875 L13.4998591,18.6875 Z M13.4998591,12.9375 C14.6750696,12.9375 15.6314381,13.9042188 15.6314381,15.09375 C15.6314381,16.2825625 14.6750696,17.25 13.4998591,17.25 C12.3246486,17.25 11.3682802,16.2825625 11.3682802,15.09375 C11.3682802,13.9042188 12.3246486,12.9375 13.4998591,12.9375 L13.4998591,12.9375 Z M18.4977012,16.3292812 C18.2099381,16.0583125 18.1928854,15.6047812 18.4593328,15.3129688 C18.7257802,15.0211562 19.1748328,15.0039062 19.464017,15.274875 C20.2058065,15.9691875 21.4108591,15.9713438 22.1526486,15.274875 C23.4252012,14.078875 25.4992275,14.0781562 26.7732012,15.2755937 C27.0602538,15.545125 27.076596,15.999375 26.8094381,16.2911875 C26.5429907,16.5815625 26.0932275,16.597375 25.8054644,16.3278437 C25.0643854,15.6335313 23.8600433,15.6335313 23.1189644,16.3278437 C22.4823328,16.9265625 21.6453328,17.2255625 20.8083328,17.2255625 C19.9713328,17.2255625 19.1350433,16.9265625 18.4977012,16.3292812 L18.4977012,16.3292812 Z M0.189569638,16.2911875 C-0.0768777304,15.999375 -0.0605356252,15.545125 0.226517006,15.2755937 C1.50049069,14.0781562 3.57380648,14.0781562 4.84778016,15.2755937 C5.58814859,15.9691875 6.7953328,15.9691875 7.53570122,15.274875 C7.82346437,15.0039062 8.27322753,15.0211563 8.5396749,15.3129688 C8.80612227,15.6047812 8.78978016,16.0583125 8.50201701,16.3292812 C7.8646749,16.9265625 7.02838543,17.2255625 6.19138543,17.2255625 C5.35509595,17.2255625 4.51809595,16.9265625 3.88146437,16.3292812 C3.14038543,15.6328125 1.9353328,15.6335313 1.19425385,16.3278437 C0.906490691,16.597375 0.456017006,16.5815625 0.189569638,16.2911875 L0.189569638,16.2911875 Z M26.7732012,21.0255937 C27.0602538,21.295125 27.076596,21.749375 26.8094381,22.0411875 C26.5429907,22.3315625 26.0932275,22.347375 25.8054644,22.0778437 C25.0643854,21.3835313 23.8600433,21.3835313 23.1189644,22.0778437 C21.8449907,23.2745625 19.7716749,23.2738437 18.4977012,22.0785625 C17.7566223,21.3828125 16.5515696,21.3835313 15.8104907,22.0778437 C15.1731486,22.6765625 14.3368591,22.9755625 13.4998591,22.9755625 C12.6628591,22.9755625 11.8258591,22.6765625 11.1899381,22.0785625 C10.4488591,21.3828125 9.24380648,21.3835313 8.50272753,22.0778437 C7.2273328,23.2745625 5.15543806,23.2738437 3.88146437,22.0785625 C3.14038543,21.3828125 1.9353328,21.3835313 1.19425385,22.0778437 C0.906490691,22.347375 0.456017006,22.3315625 0.189569638,22.0411875 C-0.0768777304,21.749375 -0.0605356252,21.295125 0.226517006,21.0255937 C1.50049069,19.8281562 3.57380648,19.8281562 4.84778016,21.0255937 C5.58814859,21.7199062 6.7953328,21.7184687 7.53570122,21.024875 C8.80825385,19.828875 10.8822802,19.8281562 12.1562538,21.0255937 C12.8959117,21.7199062 14.103096,21.720625 14.8441749,21.024875 C16.1167275,19.828875 18.1907538,19.8281562 19.464017,21.0255937 C20.2043854,21.7199062 21.4108591,21.7213438 22.1526486,21.024875 C23.4252012,19.828875 25.4992275,19.8281562 26.7732012,21.0255937 L26.7732012,21.0255937 Z"></path>
                </g>
            </g>
        </g>
    </g>
</svg>