<?xml version="1.0" encoding="UTF-8" standalone="no"?>
<svg width="40px" height="40px" viewBox="0 0 40 40" version="1.1" xmlns="http://www.w3.org/2000/svg" xmlns:xlink="http://www.w3.org/1999/xlink">
    <!-- Generator: Sketch 46.1 (44463) - http://www.bohemiancoding.com/sketch -->
    <title>torch  </title>
    <desc>Created with Sketch.</desc>
    <defs></defs>
    <g id="Page-1" stroke="none" stroke-width="1" fill="none" fill-rule="evenodd">
        <g id="Artboard-1-Copy-7" transform="translate(-653.000000, -409.000000)">
            <g id="icons" transform="translate(331.000000, 269.000000)">
                <g id="light" transform="translate(342.000000, 160.000000) rotate(-319.000000) translate(-342.000000, -160.000000) translate(335.000000, 140.000000)">
                    <g id="base" transform="translate(7.000000, 23.500000) rotate(90.000000) translate(-7.000000, -23.500000) translate(-9.000000, 17.000000)" stroke-width="2" stroke="#000000">
                        <path d="M1,1.32800315 L1,11.7090602 C1.58601646,12.0605324 2.59841546,12.0517981 3.96315959,11.6584236 C4.71674721,11.4412092 5.52998857,11.1200061 6.36937198,10.7223773 C6.96134878,10.4419488 7.53062656,10.1406838 8.05496575,9.83969579 C8.2378831,9.73469518 8.40168708,9.63749967 8.54367873,9.5507425 C8.62145835,9.50298144 8.62145835,9.50298144 8.67098941,9.47202637 C8.69020744,9.45994646 8.69020744,9.45994646 8.70186191,9.45256096 L8.70866406,9.44823264 L8.7098519,9.44747345 L8.70980939,9.44750075 L8.70967296,9.44758829 L8.70954343,9.44767144 L8.95642069,9.2891733 L29.7454222,9.2891733 C30.3070792,9.2891733 30.7341407,8.89130359 30.7341407,8.43678879 L30.7341407,3.97823408 C30.7341407,3.52302242 30.30747,3.12584957 29.7454222,3.12584957 L8.99439427,3.12584957 L8.77027085,3.0033768 C8.66216193,2.94430043 8.45207602,2.83535577 8.15941108,2.69325475 C7.66740585,2.45436572 7.13081363,2.21515856 6.56962675,1.99234997 C5.68735251,1.64205975 4.83014308,1.36677365 4.0369387,1.19489194 C2.64472969,0.893210221 1.6034347,0.943779565 1,1.32800315 Z"></path>
                    </g>
                    <g id="details" transform="translate(0.000000, 11.000000)"></g>
                    <path d="M7,0.288075394 L7,3.22587951 M12.118406,1.90559003 L10.3916081,4.28232348 M1.88159401,1.90559003 L3.60839194,4.28232348" id="Line" stroke="#000000" stroke-linecap="round"></path>
                    <path d="M4.29166667,16.5 L10.7083333,16.5" id="Line" stroke="#000000" stroke-linecap="round"></path>
                </g>
            </g>
        </g>
    </g>
</svg>