<?xml version="1.0" encoding="UTF-8" standalone="no"?>
<svg width="40px" height="40px" viewBox="0 0 40 40" version="1.1" xmlns="http://www.w3.org/2000/svg" xmlns:xlink="http://www.w3.org/1999/xlink">
    <!-- Generator: Sketch 46.1 (44463) - http://www.bohemiancoding.com/sketch -->
    <title>towtruck</title>
    <desc>Created with Sketch.</desc>
    <defs></defs>
    <g id="Icons" stroke="none" stroke-width="1" fill="none" fill-rule="evenodd">
        <g id="Automotive" transform="translate(-697.000000, -1335.000000)" fill="#231F20">
            <g id="Tow-Truck" transform="translate(700.000000, 1343.000000)">
                <g>
                    <path d="M11.5351163,17.8446389 C10.530902,17.8446389 9.71368775,18.6723312 9.71368775,19.6907927 C9.71368775,20.7086389 10.530902,21.5369466 11.5351163,21.5369466 C12.5393306,21.5369466 13.3565449,20.7086389 13.3565449,19.6907927 C13.3565449,18.6723312 12.5393306,17.8446389 11.5351163,17.8446389 L11.5351163,17.8446389 Z M11.5351163,20.3061774 C11.2005806,20.3061774 10.9279735,20.0298697 10.9279735,19.6907927 C10.9279735,19.3511004 11.2005806,19.0754081 11.5351163,19.0754081 C11.869652,19.0754081 12.1422592,19.3511004 12.1422592,19.6907927 C12.1422592,20.0298697 11.869652,20.3061774 11.5351163,20.3061774 L11.5351163,20.3061774 Z M27.3208306,17.8446389 C26.3166163,17.8446389 25.499402,18.6723312 25.499402,19.6907927 C25.499402,20.7086389 26.3166163,21.5369466 27.3208306,21.5369466 C28.3250449,21.5369466 29.1422592,20.7086389 29.1422592,19.6907927 C29.1422592,18.6723312 28.3250449,17.8446389 27.3208306,17.8446389 L27.3208306,17.8446389 Z M27.3208306,20.3061774 C26.9862949,20.3061774 26.7136877,20.0298697 26.7136877,19.6907927 C26.7136877,19.3511004 26.9862949,19.0754081 27.3208306,19.0754081 C27.6553663,19.0754081 27.9279735,19.3511004 27.9279735,19.6907927 C27.9279735,20.0298697 27.6553663,20.3061774 27.3208306,20.3061774 L27.3208306,20.3061774 Z M4.85715203,9.14679274 C4.86200918,9.83294658 4.6045806,10.4766389 4.13222346,10.9554081 C3.68172346,11.4120235 3.08672346,11.662485 2.45590203,11.662485 L2.43768775,11.662485 C1.10318775,11.6520235 0.00972346177,10.5129466 9.17605704e-06,9.12279274 C-0.00181225251,8.78310043 0.267759176,8.50556197 0.602902033,8.50310043 L0.607152033,8.50310043 C0.941080605,8.50310043 1.21247346,8.77571581 1.21429489,9.11417735 C1.21975918,9.83540812 1.77225918,10.4261774 2.44679489,10.4317158 L2.45590203,10.4317158 C2.76250918,10.4317158 3.05272346,10.3092543 3.27311632,10.0852543 C3.51475918,9.84156197 3.64590203,9.50986966 3.64286632,9.15110043 L3.64225918,4.92156197 C3.64225918,4.58186966 3.91365203,4.30617735 4.24940203,4.30617735 C4.58454489,4.30617735 4.85654489,4.58125427 4.85654489,4.92156197 L4.85715203,9.14679274 L4.85715203,9.14679274 Z M4.78125918,3.35971581 C4.05147346,2.56710043 4.07575918,1.34740812 4.83711632,0.584331198 C5.5523306,-0.133822648 6.68829489,-0.198438033 7.47940203,0.437254275 L18.5895092,9.35602351 C18.852402,9.56710043 18.8967235,9.95356197 18.6884735,10.2206389 C18.5682592,10.3738697 18.3909735,10.4538697 18.2124735,10.4538697 C18.0801163,10.4538697 17.947152,10.4107927 17.8354377,10.3209466 L6.7253306,1.40217735 C6.4150806,1.15356197 5.97125918,1.17817735 5.69136632,1.45940812 C5.39993775,1.75110043 5.39022346,2.21694658 5.66950918,2.51971581 L12.0153663,9.41879274 C12.243652,9.66740812 12.230902,10.0563312 11.9856163,10.2883312 C11.7403306,10.5197158 11.3560092,10.5080235 11.1271163,10.2581774 L4.78125918,3.35971581 L4.78125918,3.35971581 Z M26.1065449,7.38310043 L26.1065449,11.6907927 L30.9636877,11.6907927 C31.2988306,11.6907927 31.5708306,11.9658697 31.5708306,12.3061774 C31.5708306,12.6458697 31.2988306,12.921562 30.9636877,12.921562 L25.499402,12.921562 C25.1642592,12.921562 24.8922592,12.6458697 24.8922592,12.3061774 L24.8922592,7.38310043 C24.8922592,7.04279274 25.1642592,6.76771581 25.499402,6.76771581 C25.8345449,6.76771581 26.1065449,7.04279274 26.1065449,7.38310043 L26.1065449,7.38310043 Z M33.9350449,12.030485 L30.2921877,4.64586966 C30.1895806,4.43786966 29.9795092,4.30617735 29.749402,4.30617735 L21.249402,4.30617735 C20.9142592,4.30617735 20.6422592,4.58125427 20.6422592,4.92156197 L20.6422592,11.6907927 L5.46368775,11.6907927 C5.12854489,11.6907927 4.85654489,11.9658697 4.85654489,12.3061774 L4.85654489,20.3061774 C4.85654489,20.6458697 5.12854489,20.921562 5.46368775,20.921562 C5.7988306,20.921562 6.0708306,20.6458697 6.0708306,20.3061774 L6.0708306,12.921562 L21.249402,12.921562 C21.5845449,12.921562 21.8565449,12.6458697 21.8565449,12.3061774 L21.8565449,5.53694658 L29.3741877,5.53694658 L32.7851163,12.4514081 L32.7851163,17.8446389 C32.7851163,18.6477158 32.2732949,19.3258697 31.5653663,19.5787927 C31.5058663,17.2557158 29.6273663,15.3831004 27.3208306,15.3831004 C24.9772592,15.3831004 23.0708306,17.3154081 23.0708306,19.6907927 C23.0708306,22.065562 24.9772592,23.998485 27.3208306,23.998485 C29.2582235,23.998485 30.8932592,22.6760235 31.4032592,20.8760235 C32.8676877,20.6581774 33.999402,19.3886389 33.999402,17.8446389 L33.999402,12.3061774 C33.999402,12.2101774 33.9775449,12.1160235 33.9350449,12.030485 L33.9350449,12.030485 Z M27.3208306,22.7677158 C25.6469377,22.7677158 24.2851163,21.3867927 24.2851163,19.6907927 C24.2851163,17.9941774 25.6469377,16.6138697 27.3208306,16.6138697 C28.9947235,16.6138697 30.3565449,17.9941774 30.3565449,19.6907927 C30.3565449,21.3867927 28.9947235,22.7677158 27.3208306,22.7677158 L27.3208306,22.7677158 Z M21.249402,19.6907927 L15.7851163,19.6907927 C15.7851163,17.3154081 13.8786877,15.3831004 11.5351163,15.3831004 C9.19154489,15.3831004 7.28511632,17.3154081 7.28511632,19.6907927 C7.28511632,22.065562 9.19154489,23.998485 11.5351163,23.998485 C13.4567235,23.998485 15.0820449,22.6981774 15.6060092,20.921562 L21.249402,20.921562 C21.5845449,20.921562 21.8565449,20.6458697 21.8565449,20.3061774 C21.8565449,19.9658697 21.5845449,19.6907927 21.249402,19.6907927 L21.249402,19.6907927 Z M11.5351163,22.7677158 C9.86122346,22.7677158 8.49940203,21.3867927 8.49940203,19.6907927 C8.49940203,17.9941774 9.86122346,16.6138697 11.5351163,16.6138697 C13.2090092,16.6138697 14.5708306,17.9941774 14.5708306,19.6907927 C14.5708306,21.3867927 13.2090092,22.7677158 11.5351163,22.7677158 L11.5351163,22.7677158 Z"></path>
                </g>
            </g>
        </g>
    </g>
</svg>