<?xml version="1.0" encoding="UTF-8" standalone="no"?>
<svg width="40px" height="40px" viewBox="0 0 40 40" version="1.1" xmlns="http://www.w3.org/2000/svg" xmlns:xlink="http://www.w3.org/1999/xlink">
    <!-- Generator: Sketch 46.1 (44463) - http://www.bohemiancoding.com/sketch -->
    <title>tractor</title>
    <desc>Created with Sketch.</desc>
    <defs></defs>
    <g id="Icons" stroke="none" stroke-width="1" fill="none" fill-rule="evenodd">
        <g id="Automotive" transform="translate(-869.000000, -1335.000000)" fill="#231F20">
            <g id="Tractor" transform="translate(875.000000, 1344.000000)">
                <g>
                    <path d="M30,11.2051282 L30,12.974359 C30,13.2998974 29.7312,13.5641026 29.4,13.5641026 C29.0688,13.5641026 28.8,13.2998974 28.8,12.974359 L28.8,11.2051282 C28.8,10.879 29.0688,10.6153846 29.4,10.6153846 C29.7312,10.6153846 30,10.879 30,11.2051282 L30,11.2051282 Z M13.2,7.07692308 C12.8688,7.07692308 12.6,7.34053846 12.6,7.66666667 C12.6,7.99220513 12.8688,8.25641026 13.2,8.25641026 L15.6,8.25641026 C15.9312,8.25641026 16.2,7.99220513 16.2,7.66666667 C16.2,7.34053846 15.9312,7.07692308 15.6,7.07692308 L13.2,7.07692308 L13.2,7.07692308 Z M18.6,15.9230769 L15.5706,15.9230769 C15.4278,13.7828974 14.5212,11.7889744 12.9636,10.2574103 C11.2638,8.58666667 9.0036,7.66666667 6.6,7.66666667 C4.1964,7.66666667 1.9362,8.58666667 0.2358,10.2574103 C0.0018,10.488 0.0018,10.8613077 0.2358,11.0913077 C0.4704,11.3218974 0.8502,11.3218974 1.0848,11.0913077 C2.5584,9.64348718 4.5168,8.84615385 6.6,8.84615385 C8.6832,8.84615385 10.6422,9.64348718 12.1152,11.0913077 C13.5888,12.5397179 14.4,14.4652308 14.4,16.5128205 C14.4,16.838359 14.6688,17.1025641 15,17.1025641 L18.6,17.1025641 C18.9312,17.1025641 19.2,16.838359 19.2,16.5128205 C19.2,16.1866923 18.9312,15.9230769 18.6,15.9230769 L18.6,15.9230769 Z M6.4698,6.47302564 C6.7926,6.54084615 7.1136,6.34269231 7.1856,6.02541026 L8.2812,1.17948718 L15.615,1.17948718 C16.3548,1.17948718 16.98,1.70023077 17.1018,2.41676923 L18.0084,7.76338462 C18.0486,8.00223077 18.2334,8.19212821 18.4746,8.24284615 L25.6134,9.74669231 C26.1366,9.8575641 26.532,10.2638974 26.6202,10.7828718 L27.0084,13.0710769 C27.057,13.3594615 27.3108,13.5641026 27.5994,13.5641026 C27.6318,13.5641026 27.6654,13.5617436 27.699,13.5558462 C28.0254,13.5021795 28.2462,13.1990513 28.1916,12.877641 L27.804,10.5894359 C27.6342,9.58864103 26.8728,8.80546154 25.8648,8.59374359 L19.1244,7.17423077 L18.2856,2.22333333 C18.0666,0.935333333 16.944,0 15.615,0 L7.8,0 C7.5186,0 7.275,0.191666667 7.2144,0.461769231 L6.0144,5.76946154 C5.9424,6.08733333 6.1464,6.40225641 6.4698,6.47302564 L6.4698,6.47302564 Z M13.2,16.5128205 C13.2,20.0896154 10.239,23 6.6,23 C2.9604,23 0,20.0896154 0,16.5128205 C0,12.9354359 2.9604,10.025641 6.6,10.025641 C10.239,10.025641 13.2,12.9354359 13.2,16.5128205 L13.2,16.5128205 Z M12,16.5128205 C12,13.5859231 9.5772,11.2051282 6.6,11.2051282 C3.6228,11.2051282 1.2,13.5859231 1.2,16.5128205 C1.2,19.4397179 3.6228,21.8205128 6.6,21.8205128 C9.5772,21.8205128 12,19.4397179 12,16.5128205 L12,16.5128205 Z M29.4,18.2820513 C29.4,20.8834103 27.2466,23 24.6,23 C21.9534,23 19.8,20.8834103 19.8,18.2820513 C19.8,15.6806923 21.9534,13.5641026 24.6,13.5641026 C27.2466,13.5641026 29.4,15.6806923 29.4,18.2820513 L29.4,18.2820513 Z M28.2,18.2820513 C28.2,16.3305897 26.5848,14.7435897 24.6,14.7435897 C22.6146,14.7435897 21,16.3305897 21,18.2820513 C21,20.2329231 22.6146,21.8205128 24.6,21.8205128 C26.5848,21.8205128 28.2,20.2329231 28.2,18.2820513 L28.2,18.2820513 Z M10.2,16.5128205 C10.2,18.4636923 8.5848,20.0512821 6.6,20.0512821 C4.6146,20.0512821 3,18.4636923 3,16.5128205 C3,14.561359 4.6146,12.974359 6.6,12.974359 C8.5848,12.974359 10.2,14.561359 10.2,16.5128205 L10.2,16.5128205 Z M9,16.5128205 C9,15.2118462 7.923,14.1538462 6.6,14.1538462 C5.2764,14.1538462 4.2,15.2118462 4.2,16.5128205 C4.2,17.8137949 5.2764,18.8717949 6.6,18.8717949 C7.923,18.8717949 9,17.8137949 9,16.5128205 L9,16.5128205 Z M26.4,18.2820513 C26.4,19.2574872 25.5924,20.0512821 24.6,20.0512821 C23.6076,20.0512821 22.8,19.2574872 22.8,18.2820513 C22.8,17.3060256 23.6076,16.5128205 24.6,16.5128205 C25.5924,16.5128205 26.4,17.3060256 26.4,18.2820513 L26.4,18.2820513 Z M25.2,18.2820513 C25.2,17.9565128 24.9306,17.6923077 24.6,17.6923077 C24.2694,17.6923077 24,17.9565128 24,18.2820513 C24,18.607 24.2694,18.8717949 24.6,18.8717949 C24.9306,18.8717949 25.2,18.607 25.2,18.2820513 L25.2,18.2820513 Z"></path>
                </g>
            </g>
        </g>
    </g>
</svg>