<?xml version="1.0" encoding="UTF-8" standalone="no"?>
<svg width="40px" height="40px" viewBox="0 0 40 40" version="1.1" xmlns="http://www.w3.org/2000/svg" xmlns:xlink="http://www.w3.org/1999/xlink">
    <!-- Generator: Sketch 46.1 (44463) - http://www.bohemiancoding.com/sketch -->
    <title>trafficlights</title>
    <desc>Created with Sketch.</desc>
    <defs></defs>
    <g id="Icons" stroke="none" stroke-width="1" fill="none" fill-rule="evenodd">
        <g id="Automotive" transform="translate(-352.000000, -1256.000000)" fill="#231F20">
            <g id="Stoplight-Red" transform="translate(362.000000, 1262.000000)">
                <g>
                    <path d="M19.3103448,12.1395349 C19.6910345,12.1395349 20,11.8373953 20,11.4651163 C20,11.0921628 19.6910345,10.7906977 19.3103448,10.7906977 L17.2413793,10.7906977 L17.2413793,4.04651163 L19.3103448,4.04651163 C19.6910345,4.04651163 20,3.74437209 20,3.37209302 C20,2.99913953 19.6910345,2.69767442 19.3103448,2.69767442 L17.1717241,2.69767442 C16.8510345,1.16 15.457931,0 13.7931034,0 L6.20689655,0 C4.54137931,0 3.14896552,1.16 2.82827586,2.69767442 L0.689655172,2.69767442 C0.308965517,2.69767442 0,2.99913953 0,3.37209302 C0,3.74437209 0.308965517,4.04651163 0.689655172,4.04651163 L2.75862069,4.04651163 L2.75862069,10.7906977 L0.689655172,10.7906977 C0.308965517,10.7906977 0,11.0921628 0,11.4651163 C0,11.8373953 0.308965517,12.1395349 0.689655172,12.1395349 L2.75862069,12.1395349 L2.75862069,18.8837209 L0.689655172,18.8837209 C0.308965517,18.8837209 0,19.185186 0,19.5581395 C0,19.9304186 0.308965517,20.2325581 0.689655172,20.2325581 L2.75862069,20.2325581 L2.75862069,25.627907 C2.75862069,27.4872791 4.30551724,29 6.20689655,29 L13.7931034,29 C15.6944828,29 17.2413793,27.4872791 17.2413793,25.627907 L17.2413793,20.2325581 L19.3103448,20.2325581 C19.6910345,20.2325581 20,19.9304186 20,19.5581395 C20,19.185186 19.6910345,18.8837209 19.3103448,18.8837209 L17.2413793,18.8837209 L17.2413793,12.1395349 L19.3103448,12.1395349 L19.3103448,12.1395349 Z M15.862069,25.627907 C15.862069,26.7433953 14.9337931,27.6511628 13.7931034,27.6511628 L6.20689655,27.6511628 C5.0662069,27.6511628 4.13793103,26.7433953 4.13793103,25.627907 L4.13793103,3.37209302 C4.13793103,2.25593023 5.0662069,1.34883721 6.20689655,1.34883721 L13.7931034,1.34883721 C14.9337931,1.34883721 15.862069,2.25593023 15.862069,3.37209302 L15.862069,25.627907 L15.862069,25.627907 Z M11.0344828,6.40697674 C11.0344828,6.96539535 10.5710345,7.41860465 10,7.41860465 C9.42896552,7.41860465 8.96551724,6.96539535 8.96551724,6.40697674 C8.96551724,5.84855814 9.42896552,5.39534884 10,5.39534884 C10.5710345,5.39534884 11.0344828,5.84855814 11.0344828,6.40697674 L11.0344828,6.40697674 Z M10,2.69767442 C7.90827586,2.69767442 6.20689655,4.36213953 6.20689655,6.40697674 C6.20689655,8.45181395 7.90827586,10.1162791 10,10.1162791 C12.0917241,10.1162791 13.7931034,8.45181395 13.7931034,6.40697674 C13.7931034,4.36213953 12.0917241,2.69767442 10,2.69767442 L10,2.69767442 Z M10,8.76744186 C8.66896552,8.76744186 7.5862069,7.70793023 7.5862069,6.40697674 C7.5862069,5.10534884 8.66896552,4.04651163 10,4.04651163 C11.3310345,4.04651163 12.4137931,5.10534884 12.4137931,6.40697674 C12.4137931,7.70793023 11.3310345,8.76744186 10,8.76744186 L10,8.76744186 Z M10,10.7906977 C7.90827586,10.7906977 6.20689655,12.4551628 6.20689655,14.5 C6.20689655,16.5448372 7.90827586,18.2093023 10,18.2093023 C12.0917241,18.2093023 13.7931034,16.5448372 13.7931034,14.5 C13.7931034,12.4551628 12.0917241,10.7906977 10,10.7906977 L10,10.7906977 Z M10,16.8604651 C8.66896552,16.8604651 7.5862069,15.8009535 7.5862069,14.5 C7.5862069,13.1983721 8.66896552,12.1395349 10,12.1395349 C11.3310345,12.1395349 12.4137931,13.1983721 12.4137931,14.5 C12.4137931,15.8009535 11.3310345,16.8604651 10,16.8604651 L10,16.8604651 Z M10,18.8837209 C7.90827586,18.8837209 6.20689655,20.548186 6.20689655,22.5930233 C6.20689655,24.6378605 7.90827586,26.3023256 10,26.3023256 C12.0917241,26.3023256 13.7931034,24.6378605 13.7931034,22.5930233 C13.7931034,20.548186 12.0917241,18.8837209 10,18.8837209 L10,18.8837209 Z M10,24.9534884 C8.66896552,24.9534884 7.5862069,23.8939767 7.5862069,22.5930233 C7.5862069,21.2913953 8.66896552,20.2325581 10,20.2325581 C11.3310345,20.2325581 12.4137931,21.2913953 12.4137931,22.5930233 C12.4137931,23.8939767 11.3310345,24.9534884 10,24.9534884 L10,24.9534884 Z"></path>
                </g>
            </g>
        </g>
    </g>
</svg>