<?xml version="1.0" encoding="UTF-8" standalone="no"?>
<svg width="40px" height="40px" viewBox="0 0 40 40" version="1.1" xmlns="http://www.w3.org/2000/svg" xmlns:xlink="http://www.w3.org/1999/xlink">
    <!-- Generator: Sketch 46.1 (44463) - http://www.bohemiancoding.com/sketch -->
    <title>trailer</title>
    <desc>Created with Sketch.</desc>
    <defs></defs>
    <g id="Icons" stroke="none" stroke-width="1" fill="none" fill-rule="evenodd">
        <g id="Automotive" transform="translate(-1042.000000, -1335.000000)" fill="#231F20">
            <g id="Trailer" transform="translate(1044.000000, 1345.000000)">
                <g>
                    <path d="M7.11538462,6.42857143 C6.33055769,6.42857143 5.69230769,7.06928571 5.69230769,7.85714286 L5.69230769,11.4285714 C5.69230769,12.2157143 6.33055769,12.8571429 7.11538462,12.8571429 L12.8076923,12.8571429 C13.5925192,12.8571429 14.2307692,12.2157143 14.2307692,11.4285714 L14.2307692,7.85714286 C14.2307692,7.06928571 13.5925192,6.42857143 12.8076923,6.42857143 L7.11538462,6.42857143 L7.11538462,6.42857143 Z M7.11538462,11.4285714 L7.11538462,7.85714286 L12.8076923,7.85714286 L12.8084038,11.4285714 L7.11538462,11.4285714 L7.11538462,11.4285714 Z M21.3461538,14.2857143 L21.3461538,7.85714286 L19.2115385,7.85714286 L19.2115385,14.2857143 C19.2115385,14.68 18.8927692,15 18.5,15 C18.1072308,15 17.7884615,14.68 17.7884615,14.2857143 L17.7884615,7.14285714 C17.7884615,6.74785714 18.1072308,6.42857143 18.5,6.42857143 L22.0576923,6.42857143 C22.4504615,6.42857143 22.7692308,6.74785714 22.7692308,7.14285714 L22.7692308,14.2857143 C22.7692308,14.68 22.4504615,15 22.0576923,15 C21.6649231,15 21.3461538,14.68 21.3461538,14.2857143 L21.3461538,14.2857143 Z M6.40384615,14.2857143 C4.83419231,14.2857143 3.55769231,15.5671429 3.55769231,17.1428571 C3.55769231,18.7185714 4.83419231,20 6.40384615,20 C7.97278846,20 9.25,18.7185714 9.25,17.1428571 C9.25,15.5671429 7.97278846,14.2857143 6.40384615,14.2857143 L6.40384615,14.2857143 Z M6.40384615,18.5714286 C5.61901923,18.5714286 4.98076923,17.93 4.98076923,17.1428571 C4.98076923,16.355 5.61901923,15.7142857 6.40384615,15.7142857 C7.18867308,15.7142857 7.82692308,16.355 7.82692308,17.1428571 C7.82692308,17.93 7.18867308,18.5714286 6.40384615,18.5714286 L6.40384615,18.5714286 Z M37,12.8571429 C37,13.2514286 36.6812308,13.5714286 36.2884615,13.5714286 L34.1538462,13.5714286 C33.7610769,13.5714286 33.4423077,13.2514286 33.4423077,12.8571429 C33.4423077,12.4621429 33.7610769,12.1428571 34.1538462,12.1428571 L36.2884615,12.1428571 C36.6812308,12.1428571 37,12.4621429 37,12.8571429 L37,12.8571429 Z M2.84615385,17.1428571 C2.84615385,17.5371429 2.52738462,17.8571429 2.13461538,17.8571429 L0.711538462,17.8571429 C0.318769231,17.8571429 0,17.5371429 0,17.1428571 L0,2.85714286 C0,2.46214286 0.318769231,2.14285714 0.711538462,2.14285714 L14.9423077,2.14285714 C15.3350769,2.14285714 15.6538462,2.46214286 15.6538462,2.85714286 C15.6538462,3.25142857 15.3350769,3.57142857 14.9423077,3.57142857 L1.42307692,3.57142857 L1.42307692,16.4285714 L2.13461538,16.4285714 C2.52738462,16.4285714 2.84615385,16.7478571 2.84615385,17.1428571 L2.84615385,17.1428571 Z M29.8568654,2.66071429 C29.7700577,2.35428571 29.4904231,2.14285714 29.1730769,2.14285714 L20.2176538,2.14285714 L18.2915192,0.209285714 C18.1584615,0.075 17.9770192,0 17.7884615,0 L13.5192308,0 C13.1264615,0 12.8076923,0.319285714 12.8076923,0.714285714 C12.8076923,1.10857143 13.1264615,1.42857143 13.5192308,1.42857143 L17.4938846,1.42857143 L19.4200192,3.36214286 C19.5530769,3.49571429 19.7345192,3.57142857 19.9230769,3.57142857 L28.6365769,3.57142857 L31.2450769,12.7357143 L28.7924038,16.4285714 L16.2643462,16.4285714 C15.9462885,15.1992857 14.8412692,14.2857143 13.5192308,14.2857143 C11.9495769,14.2857143 10.6730769,15.5671429 10.6730769,17.1428571 C10.6730769,18.7185714 11.9495769,20 13.5192308,20 C14.8412692,20 15.9462885,19.0857143 16.2643462,17.8571429 L29.1730769,17.8571429 C29.4107308,17.8571429 29.6327308,17.7378571 29.7650769,17.5385714 L32.6112308,13.2528571 C32.7272115,13.0785714 32.7606538,12.8621429 32.7030192,12.6607143 L29.8568654,2.66071429 L29.8568654,2.66071429 Z M13.5192308,18.5714286 C12.7344038,18.5714286 12.0961538,17.93 12.0961538,17.1428571 C12.0961538,16.355 12.7344038,15.7142857 13.5192308,15.7142857 C14.3040577,15.7142857 14.9423077,16.355 14.9423077,17.1428571 C14.9423077,17.93 14.3040577,18.5714286 13.5192308,18.5714286 L13.5192308,18.5714286 Z"></path>
                </g>
            </g>
        </g>
    </g>
</svg>