<?xml version="1.0" encoding="UTF-8" standalone="no"?>
<svg width="40px" height="40px" viewBox="0 0 40 40" version="1.1" xmlns="http://www.w3.org/2000/svg" xmlns:xlink="http://www.w3.org/1999/xlink">
    <!-- Generator: Sketch 46.1 (44463) - http://www.bohemiancoding.com/sketch -->
    <title>tram</title>
    <desc>Created with Sketch.</desc>
    <defs></defs>
    <g id="Icons" stroke="none" stroke-width="1" fill="none" fill-rule="evenodd">
        <g id="Automotive" transform="translate(-179.000000, -1445.000000)" fill="#231F20">
            <g id="Tram" transform="translate(184.000000, 1452.000000)">
                <g>
                    <path d="M8.391875,5.45938095 L14.641875,9.79271429 C14.749375,9.867 14.874375,9.9047619 15,9.9047619 C15.125625,9.9047619 15.250625,9.867 15.358125,9.79271429 L21.608125,5.45938095 C21.775625,5.34361905 21.875,5.15419048 21.875,4.95238095 C21.875,4.75057143 21.775625,4.56114286 21.608125,4.4447619 L15.358125,0.111428571 C15.143125,-0.0371428571 14.85625,-0.0371428571 14.641875,0.111428571 L8.391875,4.4447619 C8.224375,4.56114286 8.125,4.75057143 8.125,4.95238095 C8.125,5.15419048 8.224375,5.34361905 8.391875,5.45938095 L8.391875,5.45938095 Z M15,1.37428571 L20.16,4.95238095 L15,8.52985714 L9.84,4.95238095 L15,1.37428571 L15,1.37428571 Z M29.97375,17.1556667 L28.09875,10.9651905 C28.019375,10.7033333 27.775625,10.5238095 27.5,10.5238095 L2.5,10.5238095 C2.22375,10.5238095 1.980625,10.7033333 1.90125,10.9651905 L0.02625,17.1556667 C0.00875,17.212619 0,17.2726667 0,17.3333333 L0,22.2857143 C0,22.4497619 0.065625,22.607 0.183125,22.723381 L1.433125,23.9614762 C1.55,24.0772381 1.709375,24.1428571 1.875,24.1428571 L2.58875,24.1428571 C2.868125,25.207619 3.83875,26 5,26 C5.75,26 6.41625,25.6638571 6.875,25.1438571 C7.33375,25.6638571 8,26 8.75,26 C9.91125,26 10.881875,25.207619 11.16125,24.1428571 L18.83875,24.1428571 C19.118125,25.207619 20.08875,26 21.25,26 C22,26 22.66625,25.6638571 23.125,25.1438571 C23.58375,25.6638571 24.25,26 25,26 C26.16125,26 27.131875,25.207619 27.41125,24.1428571 L28.125,24.1428571 C28.290625,24.1428571 28.45,24.0772381 28.566875,23.9614762 L29.816875,22.723381 C29.93375,22.607 30,22.4497619 30,22.2857143 L30,17.3333333 C30,17.2726667 29.99125,17.212619 29.97375,17.1556667 L29.97375,17.1556667 Z M5,24.7619048 C4.539375,24.7619048 4.140625,24.5105714 3.92375,24.1428571 L6.07625,24.1428571 C5.859375,24.5105714 5.460625,24.7619048 5,24.7619048 L5,24.7619048 Z M8.75,24.7619048 C8.289375,24.7619048 7.890625,24.5105714 7.67375,24.1428571 L9.82625,24.1428571 C9.609375,24.5105714 9.210625,24.7619048 8.75,24.7619048 L8.75,24.7619048 Z M21.25,24.7619048 C20.789375,24.7619048 20.390625,24.5105714 20.17375,24.1428571 L22.32625,24.1428571 C22.109375,24.5105714 21.710625,24.7619048 21.25,24.7619048 L21.25,24.7619048 Z M25,24.7619048 C24.539375,24.7619048 24.140625,24.5105714 23.92375,24.1428571 L26.07625,24.1428571 C25.859375,24.5105714 25.460625,24.7619048 25,24.7619048 L25,24.7619048 Z M28.75,22.0294286 L27.86625,22.9047619 L2.13375,22.9047619 L1.25,22.0294286 L1.25,17.4237143 L2.965,11.7619048 L27.035,11.7619048 L28.75,17.4237143 L28.75,22.0294286 L28.75,22.0294286 Z M22.5,13.6190476 L22.5,21.6666667 C22.5,22.008381 22.22,22.2857143 21.875,22.2857143 C21.53,22.2857143 21.25,22.008381 21.25,21.6666667 L21.25,14.2380952 L18.75,14.2380952 L18.75,21.6666667 C18.75,22.008381 18.47,22.2857143 18.125,22.2857143 C17.78,22.2857143 17.5,22.008381 17.5,21.6666667 L17.5,13.6190476 C17.5,13.2767143 17.78,13 18.125,13 L21.875,13 C22.22,13 22.5,13.2767143 22.5,13.6190476 L22.5,13.6190476 Z M26.875,16.7142857 C27.22,16.7142857 27.5,16.991 27.5,17.3333333 C27.5,17.6750476 27.22,17.952381 26.875,17.952381 L24.375,17.952381 C24.03,17.952381 23.75,17.6750476 23.75,17.3333333 L23.75,13.6190476 C23.75,13.2767143 24.03,13 24.375,13 C24.72,13 25,13.2767143 25,13.6190476 L25,16.7142857 L26.875,16.7142857 L26.875,16.7142857 Z M6.25,17.3333333 C6.25,17.6750476 5.97,17.952381 5.625,17.952381 L3.125,17.952381 C2.78,17.952381 2.5,17.6750476 2.5,17.3333333 C2.5,16.991 2.78,16.7142857 3.125,16.7142857 L5.625,16.7142857 C5.97,16.7142857 6.25,16.991 6.25,17.3333333 L6.25,17.3333333 Z M11.25,17.3333333 C11.25,17.6750476 10.97,17.952381 10.625,17.952381 L8.125,17.952381 C7.78,17.952381 7.5,17.6750476 7.5,17.3333333 C7.5,16.991 7.78,16.7142857 8.125,16.7142857 L10.625,16.7142857 C10.97,16.7142857 11.25,16.991 11.25,17.3333333 L11.25,17.3333333 Z M16.25,17.3333333 C16.25,17.6750476 15.97,17.952381 15.625,17.952381 L13.125,17.952381 C12.78,17.952381 12.5,17.6750476 12.5,17.3333333 C12.5,16.991 12.78,16.7142857 13.125,16.7142857 L15.625,16.7142857 C15.97,16.7142857 16.25,16.991 16.25,17.3333333 L16.25,17.3333333 Z"></path>
                </g>
            </g>
        </g>
    </g>
</svg>