<?xml version="1.0" encoding="UTF-8" standalone="no"?>
<svg width="40px" height="40px" viewBox="0 0 40 40" version="1.1" xmlns="http://www.w3.org/2000/svg" xmlns:xlink="http://www.w3.org/1999/xlink">
    <!-- Generator: Sketch 46.1 (44463) - http://www.bohemiancoding.com/sketch -->
    <title>ufo</title>
    <desc>Created with Sketch.</desc>
    <defs></defs>
    <g id="Page-1" stroke="none" stroke-width="1" fill="none" fill-rule="evenodd">
        <g id="30-Universe-Element-Icons" transform="translate(-482.000000, -374.000000)" fill="#000000">
            <g id="ufo" transform="translate(482.000000, 374.000000)">
                <g transform="translate(7.000000, 5.000000)" id="Shape">
                    <path d="M19.6490357,11.4920508 L6.23500893,11.4920508 C5.91227232,11.4920508 5.62255804,11.2923047 5.50509375,10.9887305 C5.14370536,10.0543945 4.96042857,9.06855469 4.96042857,8.05828125 C4.96042857,3.61494141 8.54094196,0 12.9420223,0 C17.3431027,0 20.9236161,3.61494141 20.9236161,8.05828125 C20.9236161,9.06855469 20.7403973,10.0544531 20.3789509,10.9887305 C20.2616027,11.2921875 19.9718304,11.4920508 19.6490357,11.4920508 L19.6490357,11.4920508 Z M6.79348661,9.90978516 L19.090558,9.90978516 C19.2671607,9.31177734 19.3564196,8.69121094 19.3564196,8.05833984 C19.3564196,4.48746094 16.4789509,1.58232422 12.9420223,1.58232422 C9.40509375,1.58232422 6.527625,4.48746094 6.527625,8.05833984 C6.527625,8.69115234 6.61688393,9.31177734 6.79348661,9.90978516 L6.79348661,9.90978516 Z"></path>
                    <path d="M22.7899866,18.7994531 L3.09411607,18.7994531 C1.3950625,18.7994531 0.0128839286,17.4039258 0.0128839286,15.6885937 C0.0128839286,14.6645508 0.511700893,13.7066016 1.34718304,13.1260547 L4.85706696,10.6870312 C5.37329464,10.3283203 5.97733036,10.1387109 6.60388393,10.1387109 L19.2799286,10.1387109 C19.9065402,10.1387109 20.5105179,10.3282617 21.0267455,10.6869727 L24.5366295,13.1259961 C25.3721696,13.706543 25.8709286,14.6644922 25.8709286,15.6885352 C25.8711607,17.4039844 24.4889241,18.7994531 22.7899866,18.7994531 L22.7899866,18.7994531 Z M6.604,11.7210352 C6.29612054,11.7210352 5.99932589,11.8141992 5.74559375,11.9905078 L2.23570982,14.4294727 C1.82516518,14.7147656 1.58008036,15.1854492 1.58008036,15.6887109 C1.58008036,16.531582 2.25927232,17.2173047 3.09411607,17.2173047 L22.7898705,17.2173047 C23.6247143,17.2173047 24.3039063,16.531582 24.3039063,15.6887109 C24.3039063,15.1855664 24.0588214,14.7148242 23.6482768,14.4294727 L20.1383929,11.9904492 C19.8847188,11.8141992 19.5879241,11.7210937 19.2799866,11.7210937 L6.604,11.7210937 L6.604,11.7210352 Z"></path>
                    <path d="M21.0565179,30 L4.82764286,30 C4.10579464,30 3.45573661,29.6254102 3.08866071,28.9979883 C2.72152679,28.3705664 2.71032589,27.6148828 3.05871429,26.9766797 L6.33250893,20.9784375 C6.54132143,20.5957031 7.01796875,20.456543 7.39694196,20.6673633 C7.77597321,20.8783008 7.91392411,21.3594141 7.70505357,21.7420312 L4.43125893,27.7402734 C4.31872768,27.9464648 4.39852679,28.1257031 4.43793304,28.1932617 C4.47739732,28.2608203 4.59451339,28.417793 4.82770089,28.417793 L21.0565179,28.417793 C21.2872679,28.417793 21.4045,28.2631055 21.4442545,28.1966602 C21.4838929,28.1302148 21.5646205,27.9533203 21.4567321,27.7473047 L18.3066696,21.7301367 C18.1044152,21.3438281 18.2507232,20.8652344 18.6332946,20.6610352 C19.01575,20.4568359 19.4899598,20.6044922 19.6922143,20.9908008 L22.8422188,27.0079687 C23.1760982,27.6457617 23.1553214,28.3953516 22.7865625,29.0132812 C22.4178036,29.6312109 21.7709955,30 21.0565179,30 L21.0565179,30 Z"></path>
                    <path d="M3.09075,18.7226367 C1.49308482,18.7226367 0.193316964,17.4104297 0.193316964,15.7973438 C0.193316964,14.1843164 1.49302679,12.8721094 3.09075,12.8721094 C4.68841518,12.8721094 5.988125,14.1843164 5.988125,15.7973438 C5.988125,17.4103125 4.68829911,18.7226367 3.09075,18.7226367 L3.09075,18.7226367 Z M3.09075,14.4542578 C2.35723661,14.4542578 1.76045536,15.0567188 1.76045536,15.7972852 C1.76045536,16.5378516 2.35723661,17.1403711 3.09075,17.1403711 C3.82426339,17.1403711 4.42098661,16.5378516 4.42098661,15.7972852 C4.42092857,15.0567188 3.82426339,14.4542578 3.09075,14.4542578 L3.09075,14.4542578 Z"></path>
                    <path d="M22.7933527,18.7226367 C21.1956875,18.7226367 19.8959777,17.4104297 19.8959777,15.7973438 C19.8959777,14.1843164 21.1956875,12.8721094 22.7933527,12.8721094 C24.3910179,12.8721094 25.6907857,14.1843164 25.6907857,15.7973438 C25.6907857,17.4103125 24.3909598,18.7226367 22.7933527,18.7226367 L22.7933527,18.7226367 Z M22.7933527,14.4542578 C22.0598393,14.4542578 21.4631161,15.0567188 21.4631161,15.7972852 C21.4631161,16.5378516 22.0598393,17.1403711 22.7933527,17.1403711 C23.5268661,17.1403711 24.1236473,16.5378516 24.1236473,15.7972852 C24.1236473,15.0567188 23.5268661,14.4542578 22.7933527,14.4542578 L22.7933527,14.4542578 Z"></path>
                    <path d="M12.9420223,18.7226367 C11.3443571,18.7226367 10.0445893,17.4104297 10.0445893,15.7973438 C10.0445893,14.1843164 11.3442991,12.8721094 12.9420223,12.8721094 C14.5397455,12.8721094 15.8394554,14.1843164 15.8394554,15.7973438 C15.8395134,17.4103125 14.5396875,18.7226367 12.9420223,18.7226367 L12.9420223,18.7226367 Z M12.9420223,14.4542578 C12.2085089,14.4542578 11.6117277,15.0567188 11.6117277,15.7972852 C11.6117277,16.5378516 12.2085089,17.1403711 12.9420223,17.1403711 C13.6755357,17.1403711 14.272317,16.5378516 14.272317,15.7972852 C14.272317,15.0567188 13.6755357,14.4542578 12.9420223,14.4542578 L12.9420223,14.4542578 Z"></path>
                </g>
            </g>
        </g>
    </g>
</svg>