<?xml version="1.0" encoding="UTF-8" standalone="no"?>
<svg width="40px" height="40px" viewBox="0 0 40 40" version="1.1" xmlns="http://www.w3.org/2000/svg" xmlns:xlink="http://www.w3.org/1999/xlink">
    <!-- Generator: Sketch 46.1 (44463) - http://www.bohemiancoding.com/sketch -->
    <title>upset</title>
    <desc>Created with Sketch.</desc>
    <defs></defs>
    <g id="Page-1" stroke="none" stroke-width="1" fill="none" fill-rule="evenodd">
        <g id="50-Emoji-Icons" transform="translate(-1030.000000, -259.000000)" fill="#000000">
            <g id="disappointed" transform="translate(1036.000000, 265.000000)">
                <path d="M13.9998108,0 C6.28032432,0 0,6.28032432 0,13.9998108 C0,21.7192973 6.28032432,27.9996216 13.9998108,27.9996216 C21.7192973,27.9996216 27.9996216,21.7192973 27.9996216,13.9998108 C27.9996216,6.28032432 21.7193919,0 13.9998108,0 L13.9998108,0 Z M13.9998108,26.4861081 C10.5701892,26.4861081 7.45925676,25.0959459 5.20043243,22.8498919 C4.29837838,21.9529459 3.53263514,20.9192162 2.93640541,19.7831351 C2.0282973,18.0530946 1.51351351,16.085527 1.51351351,13.9998108 C1.51351351,7.11483784 7.11483784,1.51351351 13.9998108,1.51351351 C17.2655,1.51351351 20.2418243,2.77427027 22.4691486,4.83397297 C23.6239595,5.90175676 24.5775676,7.18408108 25.2651757,8.61737838 C26.047473,10.2480946 26.4861081,12.0736757 26.4861081,13.9998108 C26.4861081,20.8847838 20.8847838,26.4861081 13.9998108,26.4861081 L13.9998108,26.4861081 Z" id="Shape"></path>
                <path d="M18.784973,15.2859189 C20.4330946,15.2859189 21.7738784,13.9051216 21.7738784,12.2970135 L20.2603649,12.2970135 C20.2603649,13.1483649 19.5984865,13.7724054 18.784973,13.7724054 C17.9714595,13.7724054 17.3095811,13.1483649 17.3095811,12.2970135 L15.7960676,12.2970135 C15.7960676,13.9051216 17.1368514,15.2859189 18.784973,15.2859189 L18.784973,15.2859189 Z" id="Shape"></path>
                <path d="M12.2033649,12.2970135 L10.6898514,12.2970135 C10.6898514,13.1483649 10.027973,13.7724054 9.21445946,13.7724054 C8.40094595,13.7724054 7.73906757,13.1483649 7.73906757,12.2970135 L6.22555405,12.2970135 C6.22555405,13.9051216 7.56633784,15.2859189 9.21445946,15.2859189 C10.8625811,15.2859189 12.2033649,13.9051216 12.2033649,12.2970135 L12.2033649,12.2970135 Z" id="Shape"></path>
                <rect id="Rectangle-path" x="9.23848649" y="18.8240405" width="9.45945946" height="1.51351351"></rect>
                <rect id="Rectangle-path" transform="translate(19.555096, 8.552058) rotate(203.416776) translate(-19.555096, -8.552058) " x="16.9435432" y="7.79538016" width="5.2231063" height="1.51335575"></rect>
                <rect id="Rectangle-path" transform="translate(8.381609, 8.552028) rotate(246.577966) translate(-8.381609, -8.552028) " x="7.6248535" y="5.94027634" width="1.51351049" height="5.22350309"></rect>
            </g>
        </g>
    </g>
</svg>