<?xml version="1.0" encoding="UTF-8" standalone="no"?>
<svg width="40px" height="40px" viewBox="0 0 40 40" version="1.1" xmlns="http://www.w3.org/2000/svg" xmlns:xlink="http://www.w3.org/1999/xlink">
    <!-- Generator: Sketch 46.1 (44463) - http://www.bohemiancoding.com/sketch -->
    <title>uturn</title>
    <desc>Created with Sketch.</desc>
    <defs></defs>
    <g id="Icons" stroke="none" stroke-width="1" fill="none" fill-rule="evenodd">
        <g id="Automotive" transform="translate(-697.000000, -1445.000000)" fill="#231F20">
            <g id="U-Turn-Sign" transform="translate(703.000000, 1451.000000)">
                <g>
                    <path d="M14.6666667,5.33333333 C11.358,5.33333333 8.66666667,8.02466667 8.66666667,11.3333333 L8.66666667,16.6666667 L7.33333333,16.6666667 C7.07466667,16.6666667 6.83933333,16.816 6.73,17.0506667 C6.62,17.284 6.65533333,17.5606667 6.82066667,17.76 L10.154,21.76 C10.2813333,21.912 10.4686667,22 10.6666667,22 C10.8646667,22 11.052,21.912 11.1793333,21.76 L14.5126667,17.76 C14.678,17.5606667 14.7133333,17.284 14.6033333,17.0506667 C14.494,16.816 14.2586667,16.6666667 14,16.6666667 L12.6666667,16.6666667 L12.6666667,11.3333333 C12.6666667,10.23 13.564,9.33333333 14.6666667,9.33333333 C15.7693333,9.33333333 16.6666667,10.23 16.6666667,11.3333333 L16.6666667,17.3333333 C16.6666667,17.7013333 16.9646667,18 17.3333333,18 L20,18 C20.3686667,18 20.6666667,17.7013333 20.6666667,17.3333333 L20.6666667,11.3333333 C20.6666667,8.02466667 17.9753333,5.33333333 14.6666667,5.33333333 L14.6666667,5.33333333 Z M19.3333333,16.6666667 L18,16.6666667 L18,11.3333333 C18,9.49533333 16.5046667,8 14.6666667,8 C12.8286667,8 11.3333333,9.49533333 11.3333333,11.3333333 L11.3333333,17.3333333 C11.3333333,17.7013333 11.6313333,18 12,18 L12.5766667,18 L10.6666667,20.2913333 L8.75666667,18 L9.33333333,18 C9.702,18 10,17.7013333 10,17.3333333 L10,11.3333333 C10,8.76 12.094,6.66666667 14.6666667,6.66666667 C17.2393333,6.66666667 19.3333333,8.76 19.3333333,11.3333333 L19.3333333,16.6666667 L19.3333333,16.6666667 Z M14,0 C6.28066667,0 0,6.28066667 0,14 C0,21.7193333 6.28066667,28 14,28 C21.7193333,28 28,21.7193333 28,14 C28,6.28066667 21.7193333,0 14,0 L14,0 Z M14,26.6666667 C7.01533333,26.6666667 1.33333333,20.984 1.33333333,14 C1.33333333,7.01533333 7.01533333,1.33333333 14,1.33333333 C20.9846667,1.33333333 26.6666667,7.01533333 26.6666667,14 C26.6666667,20.984 20.9846667,26.6666667 14,26.6666667 L14,26.6666667 Z"></path>
                </g>
            </g>
        </g>
    </g>
</svg>