<?xml version="1.0" encoding="UTF-8" standalone="no"?>
<svg width="40px" height="40px" viewBox="0 0 40 40" version="1.1" xmlns="http://www.w3.org/2000/svg" xmlns:xlink="http://www.w3.org/1999/xlink">
    <!-- Generator: Sketch 46.1 (44463) - http://www.bohemiancoding.com/sketch -->
    <title>van</title>
    <desc>Created with Sketch.</desc>
    <defs></defs>
    <g id="Icons" stroke="none" stroke-width="1" fill="none" fill-rule="evenodd">
        <g id="Automotive" transform="translate(-697.000000, -835.000000)" fill="#231F20">
            <g id="Pickup" transform="translate(699.000000, 849.000000)">
                <g>
                    <path d="M30.5652174,9.75 C30.5652174,10.3485417 30.0852899,10.8333333 29.4927536,10.8333333 C28.9002174,10.8333333 28.4202899,10.3485417 28.4202899,9.75 C28.4202899,9.152 28.9002174,8.66666667 29.4927536,8.66666667 C30.0852899,8.66666667 30.5652174,9.152 30.5652174,9.75 L30.5652174,9.75 Z M6.97101449,8.66666667 C6.37847826,8.66666667 5.89855072,9.152 5.89855072,9.75 C5.89855072,10.3485417 6.37847826,10.8333333 6.97101449,10.8333333 C7.56355072,10.8333333 8.04347826,10.3485417 8.04347826,9.75 C8.04347826,9.152 7.56355072,8.66666667 6.97101449,8.66666667 L6.97101449,8.66666667 Z M17.1594203,4.33333333 C17.4554203,4.33333333 17.6956522,4.09066667 17.6956522,3.79166667 C17.6956522,3.492125 17.4554203,3.25 17.1594203,3.25 L13.942029,3.25 C13.646029,3.25 13.4057971,3.492125 13.4057971,3.79166667 C13.4057971,4.09066667 13.646029,4.33333333 13.942029,4.33333333 L17.1594203,4.33333333 L17.1594203,4.33333333 Z M19.3043478,2.16666667 C19.0083478,2.16666667 18.7681159,2.40879167 18.7681159,2.70833333 L18.7681159,3.79166667 C18.7681159,4.09066667 19.0083478,4.33333333 19.3043478,4.33333333 L24.1304348,4.33333333 C24.4264348,4.33333333 24.6666667,4.09066667 24.6666667,3.79166667 C24.6666667,3.492125 24.4264348,3.25 24.1304348,3.25 L19.8405797,3.25 L19.8405797,2.70833333 C19.8405797,2.40879167 19.6003478,2.16666667 19.3043478,2.16666667 L19.3043478,2.16666667 Z M37,7.58333333 L37,9.20833333 C37,9.351875 36.9436957,9.48945833 36.8428841,9.59129167 L35.7704203,10.674625 C35.6701449,10.7759167 35.5334058,10.8333333 35.3913043,10.8333333 L32.5224638,10.8333333 C32.0795362,12.09325 30.8901739,13 29.4927536,13 C27.7183623,13 26.2753623,11.5418333 26.2753623,9.75 C26.2753623,7.957625 27.7183623,6.5 29.4927536,6.5 C31.2666087,6.5 32.7101449,7.957625 32.7101449,9.75 L35.1693043,9.75 L35.9275362,8.98408333 L35.9275362,8.125 L35.3913043,8.125 C35.1355217,8.125 34.9156667,7.94245833 34.8657971,7.6895 L34.3992754,5.334875 L26.7064928,3.78083333 C26.6598406,3.771625 26.6142609,3.75591667 26.5718986,3.73425 L21.3227246,1.08333333 L12.3333333,1.08333333 L12.3333333,8.125 C12.3333333,8.424 12.0931014,8.66666667 11.7971014,8.66666667 C11.5011014,8.66666667 11.2608696,8.424 11.2608696,8.125 L11.2608696,4.33333333 L1.07246377,4.33333333 L1.07246377,8.44241667 L2.52404348,9.90870833 C2.73371014,10.1199583 2.73371014,10.4628333 2.52404348,10.674625 C2.41947826,10.78025 2.2822029,10.8333333 2.14492754,10.8333333 C2.00765217,10.8333333 1.87037681,10.78025 1.76581159,10.674625 L0.157115942,9.049625 C0.0563043478,8.94779167 0,8.81020833 0,8.66666667 L0,3.79166667 C0,3.492125 0.240231884,3.25 0.536231884,3.25 L11.2608696,3.25 L11.2608696,0.541666667 C11.2608696,0.242125 11.5011014,0 11.7971014,0 L21.4492754,0 C21.5323913,0 21.6144348,0.0195 21.688971,0.056875 L26.9874783,2.73325 L34.9601739,4.343625 C35.1725217,4.38641667 35.3382174,4.55433333 35.3805797,4.76829167 L35.8310145,7.04166667 L36.4637681,7.04166667 C36.7597681,7.04166667 37,7.28379167 37,7.58333333 L37,7.58333333 Z M31.6376812,9.75 C31.6376812,8.55508333 30.6751449,7.58333333 29.4927536,7.58333333 C28.3098261,7.58333333 27.3478261,8.55508333 27.3478261,9.75 C27.3478261,10.9449167 28.3098261,11.9166667 29.4927536,11.9166667 C30.6751449,11.9166667 31.6376812,10.9449167 31.6376812,9.75 L31.6376812,9.75 Z M25.2028986,10.2916667 C25.2028986,10.5906667 24.9626667,10.8333333 24.6666667,10.8333333 L10.0007246,10.8333333 C9.5577971,12.09325 8.36843478,13 6.97101449,13 C5.19662319,13 3.75362319,11.5418333 3.75362319,9.75 C3.75362319,7.957625 5.19662319,6.5 6.97101449,6.5 C8.74486957,6.5 10.1884058,7.957625 10.1884058,9.75 L24.6666667,9.75 C24.9626667,9.75 25.2028986,9.992125 25.2028986,10.2916667 L25.2028986,10.2916667 Z M9.11594203,9.75 C9.11594203,8.55508333 8.1534058,7.58333333 6.97101449,7.58333333 C5.78808696,7.58333333 4.82608696,8.55508333 4.82608696,9.75 C4.82608696,10.9449167 5.78808696,11.9166667 6.97101449,11.9166667 C8.1534058,11.9166667 9.11594203,10.9449167 9.11594203,9.75 L9.11594203,9.75 Z"></path>
                </g>
            </g>
        </g>
    </g>
</svg>