<?xml version="1.0" encoding="UTF-8" standalone="no"?>
<svg width="40px" height="40px" viewBox="0 0 40 40" version="1.1" xmlns="http://www.w3.org/2000/svg" xmlns:xlink="http://www.w3.org/1999/xlink">
    <!-- Generator: Sketch 46.1 (44463) - http://www.bohemiancoding.com/sketch -->
    <title>warninglight</title>
    <desc>Created with Sketch.</desc>
    <defs></defs>
    <g id="Icons" stroke="none" stroke-width="1" fill="none" fill-rule="evenodd">
        <g id="Automotive" transform="translate(-1042.000000, -1445.000000)" fill="#231F20">
            <g id="Warning-Light" transform="translate(1050.000000, 1451.000000)">
                <g>
                    <path d="M11.3333333,2.76190476 L11.3333333,0.69047619 C11.3333333,0.308642857 11.6313333,0 12,0 C12.3686667,0 12.6666667,0.308642857 12.6666667,0.69047619 L12.6666667,2.76190476 C12.6666667,3.14304762 12.3686667,3.45238095 12,3.45238095 C11.6313333,3.45238095 11.3333333,3.14304762 11.3333333,2.76190476 L11.3333333,2.76190476 Z M3.33333333,12.4285714 C3.33333333,12.0467381 3.03533333,11.7380952 2.66666667,11.7380952 L0.666666667,11.7380952 C0.298,11.7380952 0,12.0467381 0,12.4285714 C0,12.8097143 0.298,13.1190476 0.666666667,13.1190476 L2.66666667,13.1190476 C3.03533333,13.1190476 3.33333333,12.8097143 3.33333333,12.4285714 L3.33333333,12.4285714 Z M23.3333333,11.7380952 L21.3333333,11.7380952 C20.9646667,11.7380952 20.6666667,12.0467381 20.6666667,12.4285714 C20.6666667,12.8097143 20.9646667,13.1190476 21.3333333,13.1190476 L23.3333333,13.1190476 C23.702,13.1190476 24,12.8097143 24,12.4285714 C24,12.0467381 23.702,11.7380952 23.3333333,11.7380952 L23.3333333,11.7380952 Z M18.6666667,6.21428571 C18.8373333,6.21428571 19.008,6.14661905 19.138,6.01197619 L20.4713333,4.63102381 C20.732,4.36104762 20.732,3.92397619 20.4713333,3.65469048 C20.2106667,3.38471429 19.7893333,3.38471429 19.5286667,3.65469048 L18.1953333,5.03564286 C17.9346667,5.30492857 17.9346667,5.742 18.1953333,6.01197619 C18.3253333,6.14661905 18.496,6.21428571 18.6666667,6.21428571 L18.6666667,6.21428571 Z M4.862,6.01197619 C4.992,6.14661905 5.16266667,6.21428571 5.33333333,6.21428571 C5.504,6.21428571 5.67466667,6.14661905 5.80466667,6.01197619 C6.06533333,5.742 6.06533333,5.30492857 5.80466667,5.03564286 L4.47133333,3.65469048 C4.21066667,3.38471429 3.78933333,3.38471429 3.52866667,3.65469048 C3.268,3.92397619 3.268,4.36104762 3.52866667,4.63102381 L4.862,6.01197619 L4.862,6.01197619 Z M15.3333333,13.1190476 C15.3333333,15.0226905 13.838,16.5714286 12,16.5714286 C10.162,16.5714286 8.66666667,15.0226905 8.66666667,13.1190476 C8.66666667,11.2154048 10.162,9.66666667 12,9.66666667 C13.838,9.66666667 15.3333333,11.2154048 15.3333333,13.1190476 L15.3333333,13.1190476 Z M14,13.1190476 C14,11.9763095 13.1026667,11.047619 12,11.047619 C10.8973333,11.047619 10,11.9763095 10,13.1190476 C10,14.2610952 10.8973333,15.1904762 12,15.1904762 C13.1026667,15.1904762 14,14.2610952 14,13.1190476 L14,13.1190476 Z M5.50866667,20.7080714 C5.87333333,20.7550238 6.20733333,20.489881 6.25533333,20.112881 L7.76666667,8.10757143 C7.85333333,7.42192857 8.422,6.9047619 9.08933333,6.9047619 L14.9106667,6.9047619 C15.578,6.9047619 16.1466667,7.42192857 16.2333333,8.10688095 L17.7446667,20.112881 C17.7886667,20.460881 18.0746667,20.7142857 18.4046667,20.7142857 C18.4333333,20.7142857 18.4626667,20.7122143 18.4913333,20.7080714 C18.8566667,20.6590476 19.1146667,20.3124286 19.0666667,19.9347381 L17.5546667,7.92804762 C17.382,6.55745238 16.2453333,5.52380952 14.9106667,5.52380952 L9.08933333,5.52380952 C7.75466667,5.52380952 6.618,6.55745238 6.44533333,7.9287381 L4.93333333,19.9347381 C4.88533333,20.3124286 5.14333333,20.6590476 5.50866667,20.7080714 L5.50866667,20.7080714 Z M22,23.4761905 L22,26.9285714 C22,28.070619 21.1026667,29 20,29 L4,29 C2.89733333,29 2,28.070619 2,26.9285714 L2,23.4761905 C2,22.3334524 2.89733333,21.4047619 4,21.4047619 L20,21.4047619 C21.1026667,21.4047619 22,22.3334524 22,23.4761905 L22,23.4761905 Z M20.6666667,23.4761905 C20.6666667,23.0950476 20.368,22.7857143 20,22.7857143 L4,22.7857143 C3.632,22.7857143 3.33333333,23.0950476 3.33333333,23.4761905 L3.33333333,26.9285714 C3.33333333,27.3090238 3.632,27.6190476 4,27.6190476 L20,27.6190476 C20.368,27.6190476 20.6666667,27.3090238 20.6666667,26.9285714 L20.6666667,23.4761905 L20.6666667,23.4761905 Z"></path>
                </g>
            </g>
        </g>
    </g>
</svg>