<?xml version="1.0" encoding="UTF-8" standalone="no"?>
<svg width="40px" height="40px" viewBox="0 0 40 40" version="1.1" xmlns="http://www.w3.org/2000/svg" xmlns:xlink="http://www.w3.org/1999/xlink">
    <!-- Generator: Sketch 46.1 (44463) - http://www.bohemiancoding.com/sketch -->
    <title>wind</title>
    <desc>Created with Sketch.</desc>
    <defs></defs>
    <g id="Page-1" stroke="none" stroke-width="1" fill="none" fill-rule="evenodd">
        <g id="Artboard-1-Copy-7" transform="translate(-331.000000, -559.000000)">
            <g id="icons" transform="translate(331.000000, 269.000000)">
                <g id="wind" transform="translate(3.000000, 294.000000)">
                    <rect id="bounding" x="2" y="0" width="32" height="32"></rect>
                    <path d="M14.3207547,7.5 C14.3207547,5.01471863 16.26367,3 18.6603774,3 C21.0570848,3 23,5.01471863 23,7.5 C23,9.98528137 21.0570848,12 18.6603774,12 L3,12" id="top" stroke="#000000" stroke-linecap="round"></path>
                    <path d="M19.9996907,25.5 C19.9996907,27.4329966 21.5667633,29 23.4998453,29 C25.4329274,29 27,27.4329966 27,25.5 C27,23.5670034 25.4329274,22 23.4998453,22 L3,22" id="bottom" stroke="#000000" stroke-linecap="round"></path>
                    <path d="M27.5662651,17 C30.0149493,17 32,14.9852814 32,12.5 C32,10.0147186 30.0149493,8 27.5662651,8 L0,8" id="middle" stroke="#000000" stroke-linecap="round" transform="translate(16.000000, 12.500000) scale(1, -1) translate(-16.000000, -12.500000) "></path>
                </g>
            </g>
        </g>
    </g>
</svg>