<?xml version="1.0" encoding="UTF-8" standalone="no"?>
<svg width="40px" height="40px" viewBox="0 0 40 40" version="1.1" xmlns="http://www.w3.org/2000/svg" xmlns:xlink="http://www.w3.org/1999/xlink">
    <!-- Generator: Sketch 46.1 (44463) - http://www.bohemiancoding.com/sketch -->
    <title>wink</title>
    <desc>Created with Sketch.</desc>
    <defs></defs>
    <g id="Page-1" stroke="none" stroke-width="1" fill="none" fill-rule="evenodd">
        <g id="50-Emoji-Icons" transform="translate(-1030.000000, -1490.000000)" fill="#000000">
            <g id="wink" transform="translate(1036.000000, 1496.000000)">
                <path d="M13.9998108,0 C6.28032432,0 0,6.28032432 0,13.9998108 C0,21.7192973 6.28032432,27.9996216 13.9998108,27.9996216 C21.7192973,27.9996216 27.9996216,21.7192973 27.9996216,13.9998108 C27.9996216,6.28032432 21.7192973,0 13.9998108,0 L13.9998108,0 Z M13.9998108,26.4861081 C10.5700946,26.4861081 7.45925676,25.0959459 5.20033784,22.8498919 C4.29828378,21.9529459 3.53254054,20.9192162 2.93631081,19.7831351 C2.0282973,18.0530946 1.51351351,16.085527 1.51351351,13.9998108 C1.51351351,7.11483784 7.11483784,1.51351351 13.9998108,1.51351351 C17.2655,1.51351351 20.2418243,2.77427027 22.4691486,4.83397297 C23.6239595,5.90175676 24.5775676,7.18408108 25.2651757,8.61737838 C26.047473,10.2480946 26.4861081,12.0736757 26.4861081,13.9998108 C26.4861081,20.8847838 20.8847838,26.4861081 13.9998108,26.4861081 L13.9998108,26.4861081 Z" id="Shape"></path>
                <circle id="Oval" cx="18.6821486" cy="10.9727838" r="1.51351351"></circle>
                <path d="M9.42001351,11.4063108 L9.42001351,11.4063108 C9.93725676,11.4063108 10.4041757,11.6574595 10.6693243,12.078027 L11.9496622,11.290527 C11.4057432,10.4277297 10.4600811,9.93214865 9.4202027,9.93214865 L9.42010811,9.93214865 C8.38013514,9.93214865 7.43428378,10.4276351 6.89027027,11.290527 L8.17041892,12.0878649 C8.43575676,11.6673919 8.90286486,11.4063108 9.42001351,11.4063108 L9.42001351,11.4063108 Z" id="Shape"></path>
                <path d="M14.0262973,21.8161622 C14.3519865,21.8161622 14.6791892,21.7977162 15.0064865,21.7598784 C17.5566622,21.4657838 19.9146216,19.9975811 21.3137703,17.8325 L20.0426081,17.0110405 C18.8861892,18.8002973 16.9386757,20.013473 14.833,20.2563919 C12.2878378,20.5505811 9.74485135,19.435973 8.22518919,17.3967973 C8.67214865,16.7240405 8.83172973,15.9042838 8.65143243,15.1085541 L7.17537838,15.4429459 C7.2852027,15.928027 7.13252703,16.4359054 6.76682432,16.8016081 C6.40112162,17.1672162 5.89343243,17.3197973 5.40854054,17.209973 L5.07395946,18.686027 C5.29001351,18.7351216 5.50786486,18.7589595 5.72410811,18.7589595 C6.20332432,18.7589595 6.67412162,18.6407162 7.0997027,18.4162432 C8.74839189,20.5509595 11.3353649,21.8161622 14.0262973,21.8161622 L14.0262973,21.8161622 Z" id="Shape"></path>
            </g>
        </g>
    </g>
</svg>