<?xml version="1.0" encoding="UTF-8" standalone="no"?>
<svg width="40px" height="40px" viewBox="0 0 40 40" version="1.1" xmlns="http://www.w3.org/2000/svg" xmlns:xlink="http://www.w3.org/1999/xlink">
    <!-- Generator: Sketch 46.1 (44463) - http://www.bohemiancoding.com/sketch -->
    <title>wink01</title>
    <desc>Created with Sketch.</desc>
    <defs></defs>
    <g id="Page-1" stroke="none" stroke-width="1" fill="none" fill-rule="evenodd">
        <g id="50-Emoji-Icons" transform="translate(-1740.000000, -2100.000000)" fill="#000000">
            <g id="wink-1" transform="translate(1746.000000, 2106.000000)">
                <path d="M13.9998108,0 C6.28032432,0 0,6.28032432 0,13.9998108 C0,21.7192973 6.28032432,27.9996216 13.9998108,27.9996216 C21.7192973,27.9996216 27.9996216,21.7192973 27.9996216,13.9998108 C27.9996216,6.28032432 21.7192973,0 13.9998108,0 L13.9998108,0 Z M13.9998108,26.4861081 C10.5700946,26.4861081 7.45925676,25.0959459 5.20043243,22.8498919 C4.29837838,21.9529459 3.53263514,20.9192162 2.93640541,19.7831351 C2.0282973,18.0530946 1.51351351,16.085527 1.51351351,13.9998108 C1.51351351,7.11483784 7.11483784,1.51351351 13.9998108,1.51351351 C17.2655,1.51351351 20.2418243,2.77427027 22.4691486,4.83397297 C23.6239595,5.90175676 24.5775676,7.18408108 25.2651757,8.61737838 C26.047473,10.2480946 26.4861081,12.0736757 26.4861081,13.9998108 C26.4861081,20.8847838 20.8847838,26.4861081 13.9998108,26.4861081 L13.9998108,26.4861081 Z" id="Shape"></path>
                <circle id="Oval" cx="9.31728378" cy="10.8781892" r="1.51351351"></circle>
                <path d="M13.4550405,19.3192432 C13.6279595,19.3296486 13.8005946,19.3352297 13.9730405,19.3352297 C16.9011216,19.3352297 19.7072703,17.8377973 21.3139595,15.3515676 L20.0427973,14.5301081 C18.5675,16.8131486 15.868527,18.0876216 13.1664324,17.7754595 C11.0605676,17.5326351 9.11314865,16.3193649 7.95691892,14.5301081 L6.68585135,15.3515676 C7.0035,15.8431757 7.37109459,16.2984595 7.7787027,16.7126892 L6.85460811,18.5671216 C6.08697297,20.1075946 6.71574324,21.9855811 8.25621622,22.7533108 C8.70213514,22.9755135 9.17614865,23.0807027 9.64344595,23.0807027 C10.7907838,23.0807027 11.896973,22.4463514 12.4425,21.3517027 L13.4550405,19.3192432 L13.4550405,19.3192432 Z M8.93114865,21.398527 C8.1375,21.003027 7.8137027,20.0356081 8.20901351,19.2419595 L8.96614865,17.7226757 C9.84644595,18.3466216 10.8388378,18.809 11.8859054,19.074527 L11.0877162,20.6763919 C10.6922162,21.4701351 9.72460811,21.794027 8.93114865,21.398527 L8.93114865,21.398527 Z" id="Shape"></path>
                <path d="M18.5793243,11.3117162 C19.096473,11.3117162 19.5635811,11.5627703 19.8289189,11.983527 L21.1090676,11.1763514 C20.5649595,10.3133649 19.6192027,9.7982027 18.5792297,9.7982973 C17.5393514,9.7982973 16.5936892,10.3134595 16.0496757,11.1763514 L17.3300135,11.983527 C17.5951622,11.5628649 18.0621757,11.3117162 18.5793243,11.3117162 L18.5793243,11.3117162 Z" id="Shape"></path>
            </g>
        </g>
    </g>
</svg>