<?xml version="1.0" encoding="UTF-8" standalone="no"?>
<svg width="40px" height="40px" viewBox="0 0 40 40" version="1.1" xmlns="http://www.w3.org/2000/svg" xmlns:xlink="http://www.w3.org/1999/xlink">
    <!-- Generator: Sketch 46.1 (44463) - http://www.bohemiancoding.com/sketch -->
    <title>wood</title>
    <desc>Created with Sketch.</desc>
    <defs></defs>
    <g id="Page-1" stroke="none" stroke-width="1" fill="none" fill-rule="evenodd">
        <g id="Artboard-1-Copy-7" transform="translate(-492.000000, -699.000000)" stroke="#000000">
            <g id="icons" transform="translate(331.000000, 269.000000)">
                <g id="wood" transform="translate(182.372634, 451.918879) rotate(45.000000) translate(-182.372634, -451.918879) translate(173.372634, 432.918879)">
                    <path d="M12.412662,3.98873782 L0.5,3.98873782 L0.5,34.3965686 C0.5,35.3553087 3.13112835,36.7132018 6.45633125,36.7132034 C9.7815326,36.7132051 12.412662,35.3553103 12.412662,34.3965686 L12.412662,15.8681486 L16.360264,12.0294901 C17.1368718,11.2743147 17.137277,10.074421 16.3667961,9.32520342 L14.959478,7.95672361 L12.412662,10.4332542 L12.412662,3.98873782 Z" id="base"></path>
                    <path d="M1.16291261,8.14038825 L2.57532916,9.27546832 C3.07298434,9.6754059 3.47707617,10.5248914 3.47787572,11.1587203 L3.48873782,19.7695143" id="Path-163" stroke-linecap="round"></path>
                    <path d="M7.55411196,5.81456304 L7.56375193,15.1178639" id="Path-163-Copy" stroke-linecap="round"></path>
                    <path d="M11.6291261,20.9324269 L10.234789,22.2250608 C9.76668995,22.6590166 9.3827088,23.5242968 9.37693048,24.1819161 L9.30330086,32.561553" id="Path-166" stroke-linecap="round"></path>
                    <path d="M5.25414551,29.0728152 L5.21206796,34.8873782" id="Path-166-Copy" stroke-linecap="round"></path>
                    <ellipse id="top" cx="6.39601934" cy="2.90728152" rx="5.89601934" ry="2.40728152"></ellipse>
                </g>
            </g>
        </g>
    </g>
</svg>