<?xml version="1.0" encoding="UTF-8" standalone="no"?>
<svg width="40px" height="40px" viewBox="0 0 40 40" version="1.1" xmlns="http://www.w3.org/2000/svg" xmlns:xlink="http://www.w3.org/1999/xlink">
    <!-- Generator: Sketch 46.1 (44463) - http://www.bohemiancoding.com/sketch -->
    <title>xmastree</title>
    <desc>Created with Sketch.</desc>
    <defs></defs>
    <g id="Page-1" stroke="none" stroke-width="1" fill="none" fill-rule="evenodd" stroke-linecap="round">
        <g id="Artboard-1-Copy-7" transform="translate(-815.000000, -409.000000)" stroke="#000000">
            <g id="icons" transform="translate(331.000000, 269.000000)">
                <g id="tree" transform="translate(492.000000, 146.000000)">
                    <path d="M8.61532309,24.1646985 L0.638648546,24.1646985 C4.69401284,20.5284356 7.12328325,16.2260081 7.12328325,16.2260081 L2.99148061,16.2260081 C7.00851095,13.0562433 9.47611531,8.85844655 9.47611531,8.85844655 L5.40169881,8.85844655 C9.53350146,5.6315688 11.8289474,0.976869048 11.8289474,0.976869048 C11.8289474,0.976869048 14.1243933,5.6315688 18.2561959,8.85844655 L14.1817794,8.85844655 C14.1817794,8.85844655 16.6493838,13.0562433 20.6664141,16.2260081 L16.5346115,16.2260081 C16.5346115,16.2260081 18.9638819,20.5284356 23.0192462,24.1646985 L14.3539379,24.1646985 L14.3539379,27.976869"></path>
                </g>
            </g>
        </g>
    </g>
</svg>