<?xml version="1.0" encoding="UTF-8" standalone="no"?>
<svg width="90px" height="15px" viewBox="0 0 90 15" version="1.1" xmlns="http://www.w3.org/2000/svg" xmlns:xlink="http://www.w3.org/1999/xlink">
    <!-- Generator: Sketch 41.2 (35397) - http://www.bohemiancoding.com/sketch -->
    <title>CONTROL</title>
    <desc>Created with Sketch.</desc>
    <defs></defs>
    <g id="YCH-WORKS" stroke="none" stroke-width="1" fill="none" fill-rule="evenodd">
        <g id="YCH-control界面" transform="translate(-224.000000, -1047.000000)" fill="#FFFFFF">
            <g id="CONTROL_PAGE（new）" transform="translate(135.000000, 1020.000000)">
                <g id="TopLeftConor_返回" transform="translate(25.000000, 22.000000)">
                    <path d="M75.2851562,18.5078125 C74.2949169,18.9941431 73.0029377,19.2373047 71.4091797,19.2373047 C69.3583882,19.2373047 67.7309631,18.6235413 66.5268555,17.3959961 C65.3227479,16.1684509 64.7207031,14.5322368 64.7207031,12.4873047 C64.7207031,10.3369033 65.3930597,8.57764356 66.737793,7.20947266 C68.0825263,5.84130175 69.8183487,5.15722656 71.9453125,5.15722656 C73.2753973,5.15722656 74.3886674,5.3300764 75.2851562,5.67578125 L75.2851562,8.47949219 C74.3652298,7.94042699 73.3222715,7.67089844 72.15625,7.67089844 C70.8261652,7.67089844 69.7626993,8.09569888 68.9658203,8.9453125 C68.1689413,9.79492612 67.7705078,10.9052666 67.7705078,12.2763672 C67.7705078,13.6123114 68.1484337,14.6874959 68.9042969,15.5019531 C69.66016,16.3164103 70.6826107,16.7236328 71.9716797,16.7236328 C73.1845764,16.7236328 74.2890575,16.430667 75.2851562,15.8447266 L75.2851562,18.5078125 Z M76.6035156,12.3730469 C76.6035156,10.2402237 77.226068,8.50440123 78.4711914,7.16552734 C79.7163148,5.82665346 81.3613179,5.15722656 83.40625,5.15722656 C85.3515722,5.15722656 86.9174745,5.80468103 88.1040039,7.09960938 C89.2905333,8.39453772 89.8837891,10.0585836 89.8837891,12.0917969 C89.8837891,14.2129012 89.267096,15.9340754 88.0336914,17.2553711 C86.8002868,18.5766668 85.1845803,19.2373047 83.1865234,19.2373047 C81.2353418,19.2373047 79.6503967,18.5971744 78.4316406,17.3168945 C77.2128845,16.0366147 76.6035156,14.388682 76.6035156,12.3730469 Z M79.6533203,12.2148438 C79.6533203,13.5390691 79.9726531,14.6215778 80.6113281,15.4624023 C81.2500032,16.3032269 82.125971,16.7236328 83.2392578,16.7236328 C84.3759822,16.7236328 85.260739,16.3208048 85.8935547,15.5151367 C86.5263704,14.7094686 86.8427734,13.6269599 86.8427734,12.2675781 C86.8427734,10.8496023 86.5351593,9.72900802 85.9199219,8.90576172 C85.3046844,8.08251542 84.4375056,7.67089844 83.3183594,7.67089844 C82.1816349,7.67089844 81.2866244,8.09276922 80.6333008,8.93652344 C79.9799772,9.78027766 79.6533203,10.8730402 79.6533203,12.2148438 Z M104.289062,19 L101.318359,19 L95.5527344,10.1933594 C95.2539048,9.73632584 95.03711,9.36718891 94.9023438,9.0859375 L94.8583984,9.0859375 C94.9111331,9.55468984 94.9375,10.2783154 94.9375,11.2568359 L94.9375,19 L92.1865234,19 L92.1865234,5.38574219 L95.3505859,5.38574219 L100.905273,13.9462891 C101.274416,14.5146513 101.5,14.8749992 101.582031,15.0273438 L101.625977,15.0273438 C101.567383,14.6992171 101.538086,14.0722703 101.538086,13.1464844 L101.538086,5.38574219 L104.289062,5.38574219 L104.289062,19 Z M116.848633,7.75878906 L112.963867,7.75878906 L112.963867,19 L110.054688,19 L110.054688,7.75878906 L106.178711,7.75878906 L106.178711,5.38574219 L116.848633,5.38574219 L116.848633,7.75878906 Z M129.944336,19 L126.604492,19 L124.46875,15.4580078 C124.029295,14.7255823 123.668947,14.2539073 123.387695,14.0429688 C123.106444,13.8320302 122.807619,13.7265625 122.491211,13.7265625 L121.612305,13.7265625 L121.612305,19 L118.711914,19 L118.711914,5.38574219 L123.484375,5.38574219 C126.724626,5.38574219 128.344727,6.61619863 128.344727,9.07714844 C128.344727,10.0029343 128.073733,10.7968717 127.531738,11.4589844 C126.989743,12.1210971 126.244145,12.5869127 125.294922,12.8564453 L125.294922,12.8916016 C125.921878,13.1025401 126.616207,13.7939395 127.37793,14.9658203 L129.944336,19 Z M121.612305,7.59179688 L121.612305,11.5117188 L123.036133,11.5117188 C123.715824,11.5117188 124.262205,11.3139668 124.675293,10.918457 C125.088381,10.5229472 125.294922,10.0292998 125.294922,9.4375 C125.294922,8.2070251 124.559578,7.59179688 123.088867,7.59179688 L121.612305,7.59179688 Z M130.225586,12.3730469 C130.225586,10.2402237 130.848138,8.50440123 132.093262,7.16552734 C133.338385,5.82665346 134.983388,5.15722656 137.02832,5.15722656 C138.973643,5.15722656 140.539545,5.80468103 141.726074,7.09960938 C142.912604,8.39453772 143.505859,10.0585836 143.505859,12.0917969 C143.505859,14.2129012 142.889166,15.9340754 141.655762,17.2553711 C140.422357,18.5766668 138.806651,19.2373047 136.808594,19.2373047 C134.857412,19.2373047 133.272467,18.5971744 132.053711,17.3168945 C130.834955,16.0366147 130.225586,14.388682 130.225586,12.3730469 Z M133.275391,12.2148438 C133.275391,13.5390691 133.594723,14.6215778 134.233398,15.4624023 C134.872074,16.3032269 135.748041,16.7236328 136.861328,16.7236328 C137.998053,16.7236328 138.882809,16.3208048 139.515625,15.5151367 C140.148441,14.7094686 140.464844,13.6269599 140.464844,12.2675781 C140.464844,10.8496023 140.15723,9.72900802 139.541992,8.90576172 C138.926755,8.08251542 138.059576,7.67089844 136.94043,7.67089844 C135.803705,7.67089844 134.908695,8.09276922 134.255371,8.93652344 C133.602048,9.78027766 133.275391,10.8730402 133.275391,12.2148438 Z M153.797852,19 L145.808594,19 L145.808594,5.38574219 L148.708984,5.38574219 L148.708984,16.6269531 L153.797852,16.6269531 L153.797852,19 Z" id="CONTROL"></path>
                </g>
            </g>
        </g>
    </g>
</svg>