<?xml version="1.0" encoding="UTF-8" standalone="no"?>
<svg width="71px" height="18px" viewBox="0 0 71 18" version="1.1" xmlns="http://www.w3.org/2000/svg" xmlns:xlink="http://www.w3.org/1999/xlink">
    <!-- Generator: Sketch 43.2 (39069) - http://www.bohemiancoding.com/sketch -->
    <title>实时控制</title>
    <desc>Created with Sketch.</desc>
    <defs></defs>
    <g id="YCH-WORKS" stroke="none" stroke-width="1" fill="none" fill-rule="evenodd">
        <g id="YCH-control界面" transform="translate(-224.000000, -1046.000000)" fill="#FFFFFF">
            <g id="CONTROL_PAGE（new）" transform="translate(135.000000, 1020.000000)">
                <g id="TopLeftConor_返回" transform="translate(25.000000, 22.000000)">
                    <path d="M75.8652344,8.54980469 C75.7949215,10.9755981 75.6425793,12.9091725 75.4082031,14.3505859 L81.5429688,14.3505859 L81.5429688,16.5302734 L74.8632812,16.5302734 C74.8398436,16.6005863 74.7929691,16.706054 74.7226562,16.8466797 C76.9843863,17.5849646 79.2285045,18.3642537 81.4550781,19.1845703 L80.5410156,21.3818359 C78.1738163,20.3857372 75.8183711,19.4482466 73.4746094,18.5693359 C71.9394454,20.0107494 69.5898596,21.0126925 66.4257812,21.5751953 C65.8515596,20.5790966 65.3535177,19.7939482 64.9316406,19.2197266 C68.6933782,18.6806614 71.0956979,17.784186 72.1386719,16.5302734 L64.4746094,16.5302734 L64.4746094,14.3505859 L70.0292969,14.3505859 C68.7871032,13.6005822 67.6503958,12.967776 66.6191406,12.4521484 L67.7089844,10.7470703 C68.7871148,11.2626979 70.0234305,11.9072227 71.4179688,12.6806641 L70.3105469,14.3505859 L72.9296875,14.3505859 C73.2226577,12.8505784 73.3867186,10.917004 73.421875,8.54980469 L75.8652344,8.54980469 Z M64.84375,10.3427734 L64.84375,5.77246094 L71.9277344,5.77246094 C71.705077,5.19823932 71.5058603,4.70605674 71.3300781,4.29589844 L74.3359375,3.97949219 C74.5117196,4.45996334 74.7109364,5.05761361 74.9335938,5.77246094 L81.1386719,5.77246094 L81.1386719,10.3427734 L78.6953125,10.3427734 L78.6953125,7.88183594 L67.2871094,7.88183594 L67.2871094,10.3427734 L64.84375,10.3427734 Z M69.0976562,8.39160156 C70.3281312,8.93066676 71.5937435,9.52831703 72.8945312,10.1845703 L71.7871094,11.9775391 C70.40429,11.2040977 69.1679742,10.5595729 68.078125,10.0439453 L69.0976562,8.39160156 Z M90.5429688,7.07324219 L95.7460938,7.07324219 L95.7460938,4.12011719 L98.2597656,4.12011719 L98.2597656,7.07324219 L99.7363281,7.07324219 L99.7363281,9.41113281 L98.2597656,9.41113281 L98.2597656,18.1123047 C98.2597656,19.0966846 98.0400413,19.8408178 97.6005859,20.3447266 C97.1611306,20.8486353 96.5532265,21.1152342 95.7768555,21.1445312 C95.0004844,21.1738283 93.8476639,21.1884766 92.3183594,21.1884766 C92.1308584,20.122065 91.9316417,19.2666048 91.7207031,18.6220703 C93.3847739,18.6689455 94.2988273,18.6923828 94.4628906,18.6923828 C95.3183637,18.6923828 95.7460938,18.2470748 95.7460938,17.3564453 L95.7460938,9.41113281 L90.5429688,9.41113281 L90.5429688,7.07324219 Z M83.1074219,20.3974609 L83.1074219,5.22753906 L90.0332031,5.22753906 L90.0332031,20.2919922 L87.7128906,20.2919922 L87.7128906,19.0791016 L85.4277344,19.0791016 L85.4277344,20.3974609 L83.1074219,20.3974609 Z M87.7128906,7.54785156 L85.4277344,7.54785156 L85.4277344,11.0283203 L87.7128906,11.0283203 L87.7128906,7.54785156 Z M85.4277344,16.7587891 L87.7128906,16.7587891 L87.7128906,13.2783203 L85.4277344,13.2783203 L85.4277344,16.7587891 Z M92.0898438,10.3603516 C92.8867227,11.3564503 93.9413997,12.7744049 95.2539062,14.6142578 L93.1269531,16.0029297 C92.0605415,14.2333896 91.105473,12.7568419 90.2617188,11.5732422 L92.0898438,10.3603516 Z M106.046875,6.07128906 L110.283203,6.07128906 L109.826172,4.54199219 L112.322266,4.06738281 C112.527345,4.74707371 112.706054,5.41503578 112.858398,6.07128906 L117.261719,6.07128906 L117.261719,9.62207031 L115.046875,9.62207031 L115.046875,8.21582031 L108.261719,8.21582031 L108.261719,9.62207031 L106.046875,9.62207031 L106.046875,6.07128906 Z M100.386719,7.31933594 L102.003906,7.31933594 L102.003906,4.19042969 L104.130859,4.19042969 L104.130859,7.31933594 L105.326172,7.31933594 L105.326172,9.56933594 L104.130859,9.56933594 L104.130859,12.2148438 L105.449219,11.8896484 C105.355468,12.6865274 105.332031,13.4833945 105.378906,14.2802734 L104.130859,14.6230469 L104.130859,19.1845703 C104.130859,19.7705107 104.031251,20.2231429 103.832031,20.5424805 C103.632812,20.861818 103.350099,21.0537106 102.983887,21.1181641 C102.617674,21.1826175 101.880865,21.229492 100.773438,21.2587891 C100.679687,20.5673794 100.521485,19.7998089 100.298828,18.9560547 C100.603517,18.9912111 101.013669,19.0087891 101.529297,19.0087891 C101.833986,19.0087891 101.992187,18.7626978 102.003906,18.2705078 L102.003906,15.1855469 L100.333984,15.6162109 L100.193359,13.0849609 C100.77344,12.9736323 101.37695,12.847657 102.003906,12.7070312 L102.003906,9.56933594 L100.386719,9.56933594 L100.386719,7.31933594 Z M111.039062,10.5361328 L107.03125,13.4892578 L105.589844,11.8369141 C106.750006,11.0751915 108.039055,10.1318416 109.457031,9.00683594 L111.039062,10.5361328 Z M112.058594,10.5537109 L113.552734,9.05957031 C114.654302,9.82129287 115.96093,10.7705021 117.472656,11.9072266 L115.943359,13.5595703 C115.462888,13.1728496 114.167979,12.1709065 112.058594,10.5537109 Z M106.46875,13.6650391 L116.59375,13.6650391 L116.59375,15.8095703 L112.65625,15.8095703 L112.65625,18.4814453 L117.507812,18.4814453 L117.507812,20.6259766 L105.414062,20.6259766 L105.414062,18.4814453 L110.40625,18.4814453 L110.40625,15.8095703 L106.46875,15.8095703 L106.46875,13.6650391 Z M121.128906,20.2568359 L119.019531,20.2568359 L119.019531,13.3837891 L122.640625,13.3837891 L122.640625,12.0302734 L118.333984,12.0302734 L118.333984,10.0263672 L122.640625,10.0263672 L122.640625,8.46191406 L120.750977,8.46191406 C120.604491,8.97754164 120.44922,9.45800559 120.285156,9.90332031 C119.781247,9.68066295 119.171879,9.44043098 118.457031,9.18261719 C118.937502,7.77636016 119.335936,6.26465652 119.652344,4.64746094 L121.568359,5.03417969 L121.269531,6.45800781 L122.640625,6.45800781 L122.640625,4.01464844 L124.960938,4.01464844 L124.960938,6.45800781 L128.476562,6.45800781 L128.476562,8.46191406 L124.960938,8.46191406 L124.960938,10.0263672 L128.986328,10.0263672 L128.986328,12.0302734 L124.960938,12.0302734 L124.960938,13.3837891 L128.582031,13.3837891 L128.582031,18.1474609 C128.582031,18.8037142 128.445802,19.3178692 128.17334,19.6899414 C127.900878,20.0620136 127.467288,20.2583007 126.872559,20.2788086 C126.277829,20.2993165 125.845704,20.3095703 125.576172,20.3095703 C125.458984,19.6767546 125.294923,18.9443401 125.083984,18.1123047 C125.388673,18.1474611 125.67578,18.1650391 125.945312,18.1650391 C126.296877,18.1650391 126.472656,17.9716816 126.472656,17.5849609 L126.472656,15.4052734 L124.960938,15.4052734 L124.960938,21.3994141 L122.640625,21.3994141 L122.640625,15.4052734 L121.128906,15.4052734 L121.128906,20.2568359 Z M132.660156,4.03222656 L134.910156,4.03222656 L134.910156,18.5517578 C134.910156,19.4306685 134.70801,20.0927712 134.303711,20.5380859 C133.899412,20.9834007 133.328129,21.2177733 132.589844,21.2412109 C131.851559,21.2646486 131.001958,21.2763672 130.041016,21.2763672 C129.947265,20.5849575 129.794923,19.7587939 129.583984,18.7978516 C130.50977,18.8564456 131.230466,18.8857422 131.746094,18.8857422 C132.355472,18.8857422 132.660156,18.5224646 132.660156,17.7958984 L132.660156,4.03222656 Z M129.513672,5.40332031 L131.658203,5.40332031 L131.658203,17.1630859 L129.513672,17.1630859 L129.513672,5.40332031 Z" id="实时控制"></path>
                </g>
            </g>
        </g>
    </g>
</svg>