<?xml version="1.0" encoding="UTF-8" standalone="no"?>
<svg width="64px" height="64px" viewBox="0 0 64 64" version="1.1" xmlns="http://www.w3.org/2000/svg" xmlns:xlink="http://www.w3.org/1999/xlink">
    <!-- Generator: Sketch 45.2 (43514) - http://www.bohemiancoding.com/sketch -->
    <title>backward</title>
    <desc>Created with Sketch.</desc>
    <defs></defs>
    <g id="YCH-WORKS" stroke="none" stroke-width="1" fill="none" fill-rule="evenodd">
        <g id="Blockly_Groves" transform="translate(-2460.000000, -2380.000000)" fill-rule="nonzero">
            <g id="backward" transform="translate(2460.000000, 2380.000000)">
                <g transform="translate(6.000000, 13.000000)">
                    <g id="hand" transform="translate(32.509894, 19.623966) scale(1, -1) rotate(-70.000000) translate(-32.509894, -19.623966) translate(17.509894, 4.623966)" fill="#757575">
                        <path d="M12.585074,28.9859558 L11.0716152,28.9859558 C11.0716152,28.5202761 10.3730957,27.5889168 9.67457621,26.7739774 C8.27753726,25.0276788 6.53123858,22.8157004 6.64765849,20.1380424 C6.88049832,18.5081637 7.57901779,15.9469256 8.39395717,15.0155663 C9.20889656,14.084207 10.4895156,13.6185274 11.304455,13.3856875 L11.5372948,14.8991464 C11.0716152,15.0155663 10.1402559,15.364826 9.5581563,15.9469256 C9.09247665,16.4126053 8.51037709,18.5081637 8.27753726,20.2544624 C8.16111735,22.2336009 9.67457621,24.2127394 10.9551952,25.8426181 C11.7701346,27.1232372 12.585074,28.0545965 12.585074,28.9859558 Z" id="Shape" transform="translate(9.613603, 21.185822) rotate(-36.000000) translate(-9.613603, -21.185822) "></path>
                        <path d="M28.5228785,22.469043 C27.1258395,20.3734846 26.8929997,19.5585452 26.3109001,17.6958266 L26.0780603,16.9973072 C24.9138612,13.0390302 23.0511426,10.0121124 20.8391643,8.26581376 C20.1406448,7.6837142 19.4421253,7.10161464 18.8600258,6.63593499 C17.8122466,5.82099561 16.9973072,5.12247613 16.2987877,4.65679648 C15.833108,4.42395666 15.3674284,4.42395666 14.9017488,4.54037657 L13.7375496,5.00605622 L13.1554501,3.60901728 L14.3196492,3.14333763 C15.1345886,2.79407789 16.1823678,2.79407789 16.9973072,3.25975754 C17.8122466,3.72543719 18.7436059,4.42395666 19.7913851,5.35531596 C20.3734846,5.82099561 21.0720041,6.40309517 21.7705236,6.98519473 C24.3317616,8.96433323 26.3109001,12.1076709 27.5915192,16.4152076 L27.824359,17.1137271 C28.4064586,18.9764457 28.5228785,19.5585452 29.8034975,21.5376837 L28.5228785,22.469043 Z" id="Shape"></path>
                        <path d="M10.4777921,19.2092855 C8.6150735,17.3465669 5.00605622,13.5047098 2.79407789,11.1763116 C2.09555842,10.3613722 1.39703895,9.77927262 1.16419912,9.43001288 C0.698519473,8.84791332 0.349259736,8.14939385 0.349259736,7.33445446 C0.349259736,6.63593499 0.698519473,6.05383543 1.16419912,5.58815578 C2.21197833,4.65679648 3.8418571,4.65679648 4.88963631,5.58815578 C6.40309517,6.98519473 11.7584111,11.4091514 13.7375496,12.9226102 L14.3196492,13.3882899 L13.3882899,14.552489 L12.8061903,14.0868094 C10.8270518,12.4569306 5.47173587,8.14939385 3.95827701,6.63593499 C3.37617745,6.05383543 2.56123807,6.17025534 2.21197833,6.63593499 C1.97913851,6.7523549 1.97913851,7.10161464 1.86271859,7.33445446 C1.86271859,7.6837142 1.97913851,8.03297394 2.21197833,8.26581376 C2.56123807,8.6150735 3.14333763,9.19717306 3.95827701,10.0121124 C6.17025534,12.3405107 9.77927262,16.1823678 11.6419912,18.0450864 C12.8061903,19.2092855 12.5421165,20.984267 11.7837494,20.6049675" id="Shape"></path>
                        <path d="M15.4838483,11.7584111 C15.3674284,11.6419912 8.73149341,5.93741552 6.28667525,3.95827701 C5.82099561,3.60901728 5.23889605,3.49259736 4.7732164,3.72543719 C4.19111684,3.95827701 3.95827701,4.65679648 4.07469692,5.58815578 L2.56123807,5.70457569 C2.44481815,4.19111684 3.02691772,3.02691772 4.07469692,2.44481815 C5.00605622,1.97913851 6.28667525,2.09555842 7.21803455,2.79407789 C9.66285271,4.7732164 16.4152076,10.594212 16.5316275,10.7106319 L15.4838483,11.7584111 Z" id="Shape"></path>
                        <path d="M18.2779262,9.66285271 L17.6958266,9.19717306 C17.6958266,9.19717306 12.4569306,4.88963631 10.1285324,2.67765798 C9.89569253,2.56123807 9.31359297,2.21197833 8.84791332,2.32839824 C8.38223367,2.44481815 8.03297394,2.79407789 7.80013411,3.37617745 L7.45087438,4.07469692 L6.05383543,3.49259736 L6.40309517,2.79407789 C6.98519473,1.39703895 7.91655402,1.04777921 8.49865358,0.814939385 C9.66285271,0.582099561 10.7106319,1.16419912 11.0598917,1.51345886 C13.3882899,3.60901728 18.510766,7.91655402 18.6271859,7.91655402 L19.2092855,8.38223367 L18.2779262,9.66285271 Z" id="Shape"></path>
                    </g>
                    <g id="arrow" transform="translate(4.620031, 20.864748) scale(1, -1) rotate(-178.000000) translate(-4.620031, -20.864748) translate(0.620031, 11.364748)" fill="#E89494">
                        <rect id="Rectangle-path" x="2.84230211" y="0.998646686" width="1.99478834" height="17.8305107"></rect>
                        <path d="M6.83688885,4.83959548 C6.52961295,4.83959548 6.375975,4.68595753 6.22233705,4.53231958 L3.91776777,2.2277503 L1.61319849,4.53231958 C1.30592259,4.83959548 0.537732831,4.83959548 0.230456928,4.53231958 C-0.0768189759,4.22504367 -0.0768189759,3.45685391 0.230456928,3.14957801 L3.14957801,0.230456928 C3.45685391,-0.0768189759 4.22504367,-0.0768189759 4.53231958,0.230456928 L7.45144066,3.14957801 C7.75871656,3.45685391 7.75871656,4.22504367 7.45144066,4.53231958 C7.29780271,4.83959548 7.14416476,4.83959548 6.83688885,4.83959548 Z" id="Shape"></path>
                    </g>
                </g>
            </g>
        </g>
    </g>
</svg>