<?xml version="1.0" encoding="UTF-8" standalone="no"?>
<svg width="64px" height="64px" viewBox="0 0 64 64" version="1.1" xmlns="http://www.w3.org/2000/svg" xmlns:xlink="http://www.w3.org/1999/xlink">
    <!-- Generator: Sketch 45.2 (43514) - http://www.bohemiancoding.com/sketch -->
    <title>down</title>
    <desc>Created with Sketch.</desc>
    <defs></defs>
    <g id="YCH-WORKS" stroke="none" stroke-width="1" fill="none" fill-rule="evenodd">
        <g id="Blockly_Groves" transform="translate(-2460.000000, -2276.000000)" fill-rule="nonzero">
            <g id="down" transform="translate(2460.000000, 2276.000000)">
                <g transform="translate(6.000000, 15.000000)">
                    <g id="Group-2" transform="translate(35.193269, 14.012676) rotate(-109.000000) translate(-35.193269, -14.012676) translate(25.193269, 0.512676)" fill="#757575">
                        <path d="M12.6357461,14.1875044 L11.1948277,14.1875044 L11.1948277,10.973148 C11.1948277,10.5297884 10.7514682,10.0864289 10.3081087,10.0864289 C9.86474918,10.0864289 9.42138966,10.5297884 9.42138966,10.973148 L9.42138966,11.5273474 L7.98047124,11.5273474 L7.98047124,10.973148 C7.98047124,9.7539093 8.97803015,8.64551051 10.3081087,8.64551051 C11.6381872,8.64551051 12.6357461,9.64306942 12.6357461,10.973148 L12.6357461,14.1875044 Z" id="Shape"></path>
                        <path d="M15.7392627,14.6308639 L14.4091842,14.6308639 L14.4091842,11.4165075 C14.4091842,10.973148 13.9658247,10.5297884 13.5224652,10.5297884 C13.0791056,10.5297884 12.6357461,10.973148 12.6357461,11.4165075 L12.6357461,14.0766646 L11.1948277,14.0766646 L11.1948277,11.4165075 C11.1948277,10.1972688 12.1923866,9.08887003 13.5224652,9.08887003 C14.7417038,9.08887003 15.8501026,10.0864289 15.8501026,11.4165075 L15.8501026,14.6308639 L15.7392627,14.6308639 Z" id="Shape"></path>
                        <path d="M6.20703319,17.8452204 L4.76611477,17.8452204 L4.76611477,2.43847732 C4.76611477,1.21923866 5.76367368,0.110839878 7.09375222,0.110839878 C8.31299088,0.110839878 9.42138966,1.10839878 9.42138966,2.43847732 L9.42138966,14.0766646 L7.98047124,14.0766646 L7.98047124,2.43847732 C7.98047124,1.99511781 7.53711173,1.5517583 7.09375222,1.5517583 C6.6503927,1.5517583 6.20703319,1.99511781 6.20703319,2.43847732 L6.20703319,17.8452204 Z" id="Shape"></path>
                        <path d="M6.20703319,26.3798911 L4.76611477,26.3798911 C4.76611477,25.9365315 4.21191538,25.1606524 3.54687611,24.2739334 C2.43847732,22.8330149 0.997558905,20.8378971 0.775879149,18.3994198 C0.66503927,17.7343805 0.66503927,16.8476615 0.66503927,15.517583 C0.66503927,14.0766646 1.66259818,12.8574259 2.99267672,12.5249063 L5.32031416,11.859867 L5.6528338,13.1899455 L3.32519635,13.8549848 C2.5493172,14.0766646 1.99511781,14.7417038 1.99511781,15.517583 C1.99511781,16.6259818 1.99511781,17.6235407 2.10595769,18.1777401 C2.32763745,20.2836977 3.54687611,22.0571358 4.65527489,23.3872143 C5.54199392,24.606453 6.20703319,25.493172 6.20703319,26.3798911 Z" id="Shape"></path>
                        <path d="M17.4018609,26.3798911 L15.9609425,26.3798911 C15.9609425,25.9365315 16.1826222,25.3823321 16.404302,24.4956131 C17.0693413,22.2788156 18.2885799,18.0669002 17.4018609,13.3007854 C17.1801811,12.3032265 16.8476615,12.3032265 16.6259818,12.3032265 C16.0717824,12.3032265 15.517583,12.6357461 15.517583,12.6357461 L14.6308639,11.6381872 C14.7417038,11.5273474 15.6284229,10.8623081 16.7368216,10.973148 C17.8452204,11.0839878 18.5102597,11.7490271 18.7319394,13.1899455 C19.7294984,18.2885799 18.5102597,22.7221751 17.7343805,25.0498125 C17.5127008,25.493172 17.4018609,26.1582113 17.4018609,26.3798911 Z" id="Shape"></path>
                    </g>
                    <g id="Down-arrow" transform="translate(8.313190, 16.389048) scale(-1, -1) rotate(83.000000) translate(-8.313190, -16.389048) translate(-7.186810, 10.389048)" fill="#E89494">
                        <path d="M25.527231,9.5355737 C25.3734651,9.5355737 25.2196992,9.5355737 25.2196992,9.5355737 C14.5022924,6.63380338 5.23012749,5.84519123 5.07636155,5.99895717 C4.61506374,5.99895717 4,5.6914253 4,5.07636155 C4,4.61506374 4.30753187,4 4.92259562,4 C5.38389342,4 14.7881493,4.30568546 25.9885289,7.69038247 C26.4498267,7.8441484 26.7573585,8.45921215 26.4498267,8.92050995 C26.2960607,9.22804183 25.8347629,9.5355737 25.527231,9.5355737 Z" id="Shape"></path>
                        <path d="M5.85285903,9.26805229 C5.50708173,9.26805229 5.33419308,9.09516364 5.16130443,8.92227499 L1.87642008,5.63739064 C1.53064278,5.29161334 1.53064278,4.42717009 1.87642008,4.08139279 L5.16130443,0.796508436 C5.50708173,0.450731136 6.37152498,0.450731136 6.71730228,0.796508436 C7.06307958,1.14228574 7.06307958,2.00672899 6.71730228,2.35250629 L4.12397253,4.94583604 L6.71730228,7.53916579 C7.06307958,7.88494309 7.06307958,8.74938634 6.71730228,9.09516364 C6.37152498,9.26805229 6.19863633,9.26805229 5.85285903,9.26805229 Z" id="Shape" transform="translate(4.296861, 4.902614) rotate(10.000000) translate(-4.296861, -4.902614) "></path>
                        <path d="M27.2950179,11.993743 C25.7573585,11.993743 24.527231,10.7636155 24.527231,9.22595616 C24.527231,7.6882968 25.7573585,6.45816931 27.2950179,6.45816931 C28.8326773,6.45816931 30.0628047,7.6882968 30.0628047,9.22595616 C30.2165707,10.7636155 28.8326773,11.993743 27.2950179,11.993743 Z M27.2950179,8.45712648 C26.8337201,8.45712648 26.3724223,8.91842429 26.3724223,9.3797221 C26.3724223,9.84101991 26.8337201,10.3023177 27.2950179,10.3023177 C27.7563157,10.3023177 28.2176135,9.84101991 28.2176135,9.3797221 C28.2176135,8.76465835 27.7563157,8.45712648 27.2950179,8.45712648 Z" id="Shape"></path>
                    </g>
                </g>
            </g>
        </g>
    </g>
</svg>