<?xml version="1.0" encoding="UTF-8" standalone="no"?>
<svg width="64px" height="64px" viewBox="0 0 64 64" version="1.1" xmlns="http://www.w3.org/2000/svg" xmlns:xlink="http://www.w3.org/1999/xlink">
    <!-- Generator: Sketch 45.2 (43514) - http://www.bohemiancoding.com/sketch -->
    <title>finger_counterclockwise</title>
    <desc>Created with Sketch.</desc>
    <defs></defs>
    <g id="YCH-WORKS" stroke="none" stroke-width="1" fill="none" fill-rule="evenodd">
        <g id="Blockly_Groves" transform="translate(-2269.000000, -2380.000000)" fill-rule="nonzero">
            <g id="finger_counterclockwise" transform="translate(2269.000000, 2380.000000)">
                <g transform="translate(13.000000, 4.000000)">
                    <g id="finger" transform="translate(23.326508, 16.372118) rotate(-91.000000) translate(-23.326508, -16.372118) translate(7.326508, 2.372118)" fill="#757575">
                        <path d="M12.4692708,27.5657511 L10.9697382,27.5657511 C10.9697382,27.1043565 10.2776463,26.1815672 9.58555434,25.3741266 C8.20137043,23.6438967 6.47114054,21.4522722 6.5864892,18.799253 C6.81718652,17.1843718 7.50927847,14.6467013 8.31671909,13.723912 C9.1241597,12.8011228 10.392995,12.3397281 11.2004356,12.1090308 L11.4311329,13.6085634 C10.9697382,13.723912 10.046949,14.069958 9.47020568,14.6467013 C9.00881104,15.1080959 8.43206775,17.1843718 8.20137043,18.9146017 C8.08602177,20.8755289 9.58555434,22.8364561 10.8543896,24.4513373 C11.6618302,25.7201726 12.4692708,26.6429619 12.4692708,27.5657511 Z" id="Shape" transform="translate(9.525142, 19.837391) rotate(-36.000000) translate(-9.525142, -19.837391) "></path>
                        <path d="M30.2213487,22.8550032 C28.8371648,20.7787274 28.6064675,19.9712868 28.0297242,18.1257082 L27.7990269,17.4336163 C26.6455403,13.5117618 24.7999617,10.5126967 22.6083372,8.78246682 C21.9162452,8.20572353 21.2241533,7.62898023 20.64741,7.16758559 C19.6092721,6.36014498 18.8018314,5.66805303 18.1097395,5.20665839 C17.6483449,4.97596107 17.1869502,4.97596107 16.7255556,5.09130973 L15.572069,5.55270437 L14.9953257,4.16852046 L16.1488123,3.70712582 C16.9562529,3.36107984 17.9943908,3.36107984 18.8018314,3.82247448 C19.6092721,4.28386912 20.5320613,4.97596107 21.5701993,5.89875034 C22.1469426,6.36014498 22.8390345,6.93688828 23.5311265,7.51363157 C26.068797,9.47455878 28.0297242,12.5889726 29.2985594,16.856873 L29.5292567,17.5489649 C30.106,19.3945435 30.2213487,19.9712868 31.490184,21.932214 L30.2213487,22.8550032 Z" id="Shape"></path>
                        <path d="M10.3813793,17.8790422 C8.53580078,16.0334636 4.95999234,12.2269579 2.76836782,9.91998469 C2.07627587,9.11254407 1.38418391,8.53580078 1.15348659,8.1897548 C0.692091955,7.61301151 0.346045978,6.92091955 0.346045978,6.11347894 C0.346045978,5.42138698 0.692091955,4.84464369 1.15348659,4.38324905 C2.19162452,3.46045978 3.80650575,3.46045978 4.84464369,4.38324905 C6.34417625,5.76743296 11.6502146,10.150682 13.6111418,11.6502146 L14.1878851,12.1116092 L13.2650958,13.2650958 L12.6883525,12.8037012 C10.7274253,11.1888199 5.42138698,6.92091955 3.92185441,5.42138698 C3.34511112,4.84464369 2.5376705,4.95999234 2.19162452,5.42138698 C1.96092721,5.53673564 1.96092721,5.88278162 1.84557855,6.11347894 C1.84557855,6.45952491 1.96092721,6.80557089 2.19162452,7.03626821 C2.5376705,7.38231419 3.1144138,7.95905748 3.92185441,8.7664981 C6.11347894,11.0734713 9.68928737,14.879977 11.5348659,16.7255556 C12.6883525,17.8790422 12.4267085,19.6376909 11.6753197,19.2618816" id="Shape"></path>
                        <path d="M15.3413717,10.496728 C15.226023,10.3813793 8.65114944,4.72929503 6.2288276,2.76836782 C5.76743296,2.42232184 5.19068966,2.30697318 4.72929503,2.5376705 C4.15255173,2.76836782 3.92185441,3.46045978 4.03720307,4.38324905 L2.5376705,4.49859771 C2.42232184,2.99906514 2.99906514,1.84557855 4.03720307,1.26883525 C4.95999234,0.807440614 6.2288276,0.922789273 7.15161687,1.61488123 C9.57393871,3.57580843 16.2641609,9.34324139 16.3795096,9.45859005 L15.3413717,10.496728 Z" id="Shape"></path>
                        <path d="M16.8922204,7.13387812 C16.8922204,7.13387812 15.6936992,6.15389431 13.386726,3.96226979 C13.1560287,3.84692113 12.5792854,3.50087515 12.1178907,3.61622381 C11.6564961,3.73157247 11.3104501,4.07761844 11.0797528,4.65436174 L10.7337068,5.3464537 L9.3495229,4.7697104 L9.69556888,4.07761844 C10.2723122,2.69343453 11.1951014,2.34738856 11.7718447,2.11669124 C12.9253313,1.88599392 13.9634693,2.46273722 14.3095152,2.80878319 C16.6164884,4.88505906 17.699661,5.86504287 17.8150097,5.86504287 L16.8922204,7.13387812 Z" id="Shape"></path>
                    </g>
                    <path d="M19.7659783,52.6461769 C19.3477132,52.6578368 18.9255472,52.6637397 18.5,52.6637397 C8.77989723,52.6637397 0.823896461,49.5839975 0.823896461,45.1647867 C0.823896461,41.4881416 6.26132475,38.7456625 13.8541044,37.9142277 C14.1544595,37.8813378 14.4571662,37.851661 14.7619784,37.825229 L14.7619788,39.3368566 C14.5357239,39.3579821 14.310801,39.3810332 14.0873275,39.4059937 C7.50095972,40.1416476 2.96645447,42.4744603 2.96645447,44.6291405 C2.96645447,47.3633544 9.87892004,50.0926633 18.5,50.0926633 C18.819462,50.0926633 19.1365779,50.0889156 19.4510828,50.0815588 L19.013425,46.5171223 L27.1092623,50.919699 L20.3189857,57.1500608 L19.7659783,52.6461769 Z M30.0835999,48.1619082 C32.5432522,47.1671951 34.0335455,45.8986966 34.0335455,44.6291405 C34.0335455,42.3241179 29.1208662,40.0225811 22.4133417,39.3568291 L22.4133417,37.8377751 C30.2675939,38.5428506 36.1761035,41.3564417 36.1761035,45.1647867 C36.1761035,47.3730996 34.1894295,49.2469371 30.9887113,50.5691463 L30.0835999,48.1619082 Z" id="Combined-Shape" fill="#E89494"></path>
                </g>
            </g>
        </g>
    </g>
</svg>