<?xml version="1.0" encoding="UTF-8" standalone="no"?>
<svg width="64px" height="64px" viewBox="0 0 64 64" version="1.1" xmlns="http://www.w3.org/2000/svg" xmlns:xlink="http://www.w3.org/1999/xlink">
    <!-- Generator: Sketch 45.2 (43514) - http://www.bohemiancoding.com/sketch -->
    <title>finger_clockwise</title>
    <desc>Created with Sketch.</desc>
    <defs></defs>
    <g id="YCH-WORKS" stroke="none" stroke-width="1" fill="none" fill-rule="evenodd">
        <g id="Blockly_Groves" transform="translate(-2169.000000, -2380.000000)" fill-rule="nonzero">
            <g id="finger_clockwise" transform="translate(2169.000000, 2380.000000)">
                <g transform="translate(12.000000, 6.000000)">
                    <path d="M32.002743,48.1116563 C34.6036251,46.8293854 36.1761035,45.1294569 36.1761035,43.1647867 C36.1761035,39.3564417 30.2675939,36.5428506 22.4133417,35.8377751 L22.4133417,37.3568291 C29.1208662,38.0225811 34.0335455,40.3241179 34.0335455,42.6291405 C34.0335455,43.7002076 32.972824,44.7705221 31.1641887,45.6763177 L29.8238081,41.7835697 L24.4772803,49.289561 L33.3115513,51.9127116 L32.002743,48.1116563 Z M20.2142983,48.0564717 L20.2142983,50.6314237 C19.6499742,50.6528456 19.0781072,50.6637397 18.5,50.6637397 C8.77989723,50.6637397 0.823896461,47.5839975 0.823896461,43.1647867 C0.823896461,39.4881416 6.26132475,36.7456625 13.8541044,35.9142277 C14.1544595,35.8813378 14.4571662,35.851661 14.7619784,35.825229 L14.7619788,37.3368566 C14.5357239,37.3579821 14.310801,37.3810332 14.0873275,37.4059937 C7.50095972,38.1416476 2.96645447,40.4744603 2.96645447,42.6291405 C2.96645447,45.3633544 9.87892004,48.0926633 18.5,48.0926633 C19.0796852,48.0926633 19.6516454,48.0803234 20.2142983,48.0564717 Z" id="Combined-Shape" fill="#E89494"></path>
                    <g id="finger" transform="translate(25.768456, 15.733247) rotate(-91.000000) translate(-25.768456, -15.733247) translate(10.268456, 2.233247)" fill="#757575">
                        <path d="M12.0993912,26.7480601 L10.6443397,26.7480601 C10.6443397,26.300352 9.97277743,25.4049357 9.30121521,24.6214464 C7.95809075,22.9425408 6.27918519,20.8159271 6.39111222,18.2416052 C6.6149663,16.6746267 7.28652853,14.2122319 8.07001779,13.3168156 C8.85350706,12.4213993 10.0847045,11.9736911 10.8681937,11.749837 L11.0920478,13.2048885 C10.6443397,13.3168156 9.74892336,13.6525967 9.18928817,14.2122319 C8.74158002,14.65994 8.18194483,16.6746267 7.95809075,18.3535323 C7.84616372,20.2562919 9.30121521,22.1590516 10.5324126,23.7260301 C11.3159019,24.9572275 12.0993912,25.8526438 12.0993912,26.7480601 Z" id="Shape" transform="translate(9.242595, 19.248949) rotate(-36.000000) translate(-9.242595, -19.248949) "></path>
                        <path d="M29.3248839,22.1770485 C27.9817595,20.1623618 27.7579054,19.3788726 27.1982702,17.58804 L26.9744161,16.9164777 C25.8551457,13.1109585 24.0643131,10.2008555 21.9376994,8.52194991 C21.2661372,7.96231472 20.594575,7.40267954 20.0349398,6.95497138 C19.0275964,6.17148212 18.2441072,5.49991989 17.5725449,5.05221174 C17.1248368,4.82835767 16.6771286,4.82835767 16.2294205,4.9402847 L15.1101501,5.38799286 L14.5505149,4.0448684 L15.6697853,3.59716025 C16.4532746,3.26137914 17.4606179,3.26137914 18.2441072,3.70908729 C19.0275964,4.15679544 19.9230127,4.82835767 20.9303561,5.72377397 C21.4899913,6.17148212 22.1615535,6.73111731 22.8331157,7.2907525 C25.2955105,9.19351214 27.1982702,12.2155422 28.4294676,16.3568426 L28.6533217,17.0284048 C29.2129569,18.8192374 29.3248839,19.3788726 30.5560813,21.2816322 L29.3248839,22.1770485 Z" id="Shape"></path>
                        <path d="M10.0734334,17.3486909 C8.2826008,15.5578583 4.81286263,11.864266 2.68624891,9.62572525 C2.01468668,8.84223599 1.34312445,8.2826008 1.11927038,7.94681968 C0.671562227,7.3871845 0.335781113,6.71562227 0.335781113,5.932133 C0.335781113,5.26057078 0.671562227,4.70093559 1.11927038,4.25322744 C2.12661372,3.35781113 3.69359225,3.35781113 4.70093559,4.25322744 C6.15598708,5.59635189 11.3046308,9.84957933 13.2073905,11.3046308 L13.7670256,11.752339 L12.8716093,12.8716093 L12.3119742,12.4239012 C10.4092145,10.8569227 5.26057078,6.71562227 3.80551929,5.26057078 C3.2458841,4.70093559 2.46239483,4.81286263 2.12661372,5.26057078 C1.90275964,5.37249781 1.90275964,5.70827893 1.7908326,5.932133 C1.7908326,6.26791412 1.90275964,6.60369523 2.12661372,6.82754931 C2.46239483,7.16333042 3.02203002,7.72296561 3.80551929,8.50645487 C5.932133,10.7449956 9.40187118,14.4385879 11.1927038,16.2294205 C12.3119742,17.3486909 12.0580914,19.0551723 11.3289913,18.6905107" id="Shape"></path>
                        <path d="M14.886296,10.1853604 C14.774369,10.0734334 8.39452784,4.58900855 6.04406004,2.68624891 C5.59635189,2.35046779 5.0367167,2.23854076 4.58900855,2.46239483 C4.02937336,2.68624891 3.80551929,3.35781113 3.91744632,4.25322744 L2.46239483,4.36515447 C2.35046779,2.91010298 2.91010298,1.7908326 3.91744632,1.23119742 C4.81286263,0.783489265 6.04406004,0.895416302 6.93947634,1.56697853 C9.28994414,3.46973817 15.7817123,9.06609006 15.8936394,9.1780171 L14.886296,10.1853604 Z" id="Shape"></path>
                        <path d="M16.3911415,6.92226378 C16.3911415,6.92226378 15.2281723,5.97134952 12.9896316,3.84473581 C12.7657775,3.73280877 12.2061423,3.39702765 11.7584341,3.50895469 C11.310726,3.62088173 10.9749449,3.95666284 10.7510908,4.51629803 L10.4153097,5.18786026 L9.07218524,4.62822507 L9.40796635,3.95666284 C9.96760154,2.61353839 10.8630178,2.27775728 11.422653,2.0539032 C12.5419234,1.83004913 13.5492668,2.38968431 13.8850479,2.72546543 C16.1235886,4.74015211 17.1746308,5.69106637 17.2865578,5.69106637 L16.3911415,6.92226378 Z" id="Shape"></path>
                    </g>
                </g>
            </g>
        </g>
    </g>
</svg>