<?xml version="1.0" encoding="UTF-8" standalone="no"?>
<svg width="64px" height="64px" viewBox="0 0 64 64" version="1.1" xmlns="http://www.w3.org/2000/svg" xmlns:xlink="http://www.w3.org/1999/xlink">
    <!-- Generator: Sketch 45.2 (43514) - http://www.bohemiancoding.com/sketch -->
    <title>forward</title>
    <desc>Created with Sketch.</desc>
    <defs></defs>
    <g id="YCH-WORKS" stroke="none" stroke-width="1" fill="none" fill-rule="evenodd">
        <g id="Blockly_Groves" transform="translate(-2365.000000, -2380.000000)" fill-rule="nonzero">
            <g id="forward" transform="translate(2365.000000, 2380.000000)">
                <g transform="translate(8.000000, 12.000000)">
                    <g id="arrow" transform="translate(4.620031, 22.864748) rotate(-180.000000) translate(-4.620031, -22.864748) translate(0.620031, 13.364748)" fill="#E89494">
                        <rect id="Rectangle-path" x="2.84230211" y="0.998646686" width="1.99478834" height="17.8305107"></rect>
                        <path d="M6.83688885,4.83959548 C6.52961295,4.83959548 6.375975,4.68595753 6.22233705,4.53231958 L3.91776777,2.2277503 L1.61319849,4.53231958 C1.30592259,4.83959548 0.537732831,4.83959548 0.230456928,4.53231958 C-0.0768189759,4.22504367 -0.0768189759,3.45685391 0.230456928,3.14957801 L3.14957801,0.230456928 C3.45685391,-0.0768189759 4.22504367,-0.0768189759 4.53231958,0.230456928 L7.45144066,3.14957801 C7.75871656,3.45685391 7.75871656,4.22504367 7.45144066,4.53231958 C7.29780271,4.83959548 7.14416476,4.83959548 6.83688885,4.83959548 Z" id="Shape"></path>
                    </g>
                    <g id="hand" transform="translate(31.295911, 19.568687) rotate(-70.000000) translate(-31.295911, -19.568687) translate(15.795911, 6.568687)" fill="#757575">
                        <path d="M16.9123348,24.2080686 L15.6847241,25.0047991 C15.4102899,24.667382 14.2948318,24.3602697 13.2479823,24.1375116 C11.0856748,23.6076412 8.36563819,22.9242146 6.88207278,20.9227797 C6.11041604,19.6192461 5.16761714,17.3957306 5.27976974,16.2918878 C5.39192234,15.188045 6.15623555,14.1764715 6.68003955,13.5787542 L7.76081407,14.5527857 C7.45169628,14.8822878 6.90206927,15.6256462 6.77295415,16.3538523 C6.66966206,16.9364172 7.43245829,18.7612287 8.27272359,20.1491165 C9.34463761,21.6444259 11.7385939,22.2817179 13.7378613,22.788521 C15.1535766,23.2874092 16.3634663,23.5332346 16.9123348,24.2080686 Z" id="Shape"></path>
                        <path d="M29.5028448,19.8986102 C28.1021584,18.0178509 27.8687107,17.2864445 27.2850914,15.6146584 L27.0516436,14.9877386 C25.884405,11.4351931 24.0168232,8.71854069 21.7990698,7.15124123 C21.0987266,6.62880807 20.3983834,6.10637491 19.8147641,5.68842839 C18.7642494,4.95702197 17.9471823,4.33010218 17.2468391,3.91215566 C16.7799437,3.70318239 16.3130482,3.70318239 15.8461528,3.80766902 L14.6789142,4.22561555 L14.0952948,2.97177597 L15.2625335,2.55382945 C16.0796005,2.24036956 17.1301153,2.24036956 17.9471823,2.65831608 C18.7642494,3.07626261 19.6980403,3.70318239 20.748555,4.53907544 C21.3321744,4.95702197 22.0325175,5.47945512 22.7328607,6.00188828 C25.3007857,7.77816101 27.2850914,10.5993001 28.5690539,14.4653054 L28.8025016,15.0922252 C29.3861209,16.7640113 29.5028448,17.2864445 30.7868073,19.0627172 L29.5028448,19.8986102 Z" id="Shape"></path>
                        <path d="M11.0709925,17.2899639 C9.20341069,15.6203074 5.58497093,12.1766409 3.36721753,10.0895703 C2.66687435,9.35909563 1.96653117,8.83732798 1.73308344,8.52426739 C1.26618799,8.00249974 0.916016402,7.37637856 0.916016402,6.64590385 C0.916016402,6.01978268 1.26618799,5.49801503 1.73308344,5.08060091 C2.78359821,4.24577267 4.4177323,4.24577267 5.46824707,5.08060091 C6.98565729,6.33284327 12.354955,10.2982774 14.3392607,11.6548733 L14.92288,12.0722874 L13.9890891,13.1158227 L13.4054698,12.6984086 C11.4211641,11.2374592 6.05186638,7.37637856 4.53445616,6.01978268 C3.95083684,5.49801503 3.1337698,5.60236856 2.78359821,6.01978268 C2.55015049,6.12413621 2.55015049,6.43719679 2.43342662,6.64590385 C2.43342662,6.95896444 2.55015049,7.27202503 2.78359821,7.48073209 C3.1337698,7.79379268 3.71738912,8.31556033 4.53445616,9.04603504 C6.75220956,11.1331056 10.3706493,14.5767721 12.2382311,16.2464286 C13.4054698,17.2899639 13.1407064,18.8809768 12.3803595,18.54099" id="Shape"></path>
                        <path d="M16.091982,10.2052802 C15.9752582,10.1023334 9.32199795,5.05793974 6.87079682,3.30784398 C6.40390137,2.99900355 5.82028206,2.89605674 5.3533866,3.10195036 C4.76976729,3.30784398 4.53631956,3.92552483 4.65304342,4.74909931 L3.1356332,4.85204612 C3.01890934,3.51373759 3.60252866,2.4842695 4.65304342,1.96953545 C5.58683433,1.55774821 6.87079682,1.66069502 7.80458773,2.27837588 C10.2557889,4.02847164 17.0257729,9.17581213 17.1424968,9.27875894 L16.091982,10.2052802 Z" id="Shape"></path>
                        <path d="M18.7881185,8.22187271 L18.2044992,7.81021764 C18.2044992,7.81021764 12.9519254,4.0024083 10.6174481,2.04704674 C10.3840004,1.94413298 9.80038107,1.63539168 9.33348561,1.73830544 C8.86659016,1.84121921 8.51641857,2.14996051 8.28297084,2.66452934 L7.93279926,3.28201194 L6.5321129,2.76744311 L6.88228449,2.14996051 C7.4659038,0.914995316 8.39969471,0.606254018 8.98331402,0.400426485 C10.1505527,0.194598953 11.2010674,0.709167784 11.551239,1.01790908 C13.8857163,2.87035687 19.0215663,6.67816622 19.1382901,6.67816622 L19.7219094,7.08982128 L18.7881185,8.22187271 Z" id="Shape"></path>
                    </g>
                </g>
            </g>
        </g>
    </g>
</svg>