<?xml version="1.0" encoding="UTF-8" standalone="no"?>
<svg width="64px" height="64px" viewBox="0 0 64 64" version="1.1" xmlns="http://www.w3.org/2000/svg" xmlns:xlink="http://www.w3.org/1999/xlink">
    <!-- Generator: Sketch 45.2 (43514) - http://www.bohemiancoding.com/sketch -->
    <title>left</title>
    <desc>Created with Sketch.</desc>
    <defs></defs>
    <g id="YCH-WORKS" stroke="none" stroke-width="1" fill="none" fill-rule="evenodd">
        <g id="Blockly_Groves" transform="translate(-2169.000000, -2276.000000)" fill-rule="nonzero">
            <g id="left-gesture" transform="translate(2169.000000, 2276.000000)">
                <g id="left" transform="translate(17.000000, 11.000000)">
                    <g id="Group-4" transform="translate(9.480403, 18.375865)" fill="#757575">
                        <path d="M8.3128248,12.1009475 L7.05011723,9.3650811 C6.52398908,8.3128248 7.05011723,6.9448916 8.10237354,6.41876345 C9.15462984,5.8926353 10.522563,6.41876345 11.0486912,7.47101976 L12.3113988,10.2068861 L11.0486912,10.7330143 L9.78598362,7.99714791 C9.57553236,7.57624539 9.04940421,7.36579413 8.62850169,7.57624539 C8.20759917,7.78669665 7.99714791,8.3128248 8.20759917,8.73372732 L9.47030673,11.4695937 L8.3128248,12.1009475 Z" id="Shape"></path>
                        <path d="M10.8382399,10.3121118 L9.99643489,8.52327606 C9.47030673,7.47101976 9.99643489,6.10308656 11.0486912,5.57695841 C11.5748193,5.36650715 12.2061731,5.26128152 12.7323013,5.47173278 C13.2584294,5.68218404 13.6793319,6.10308656 13.9950088,6.62921471 L15.2577164,9.3650811 L13.9950088,9.89120925 L12.7323013,7.15534287 C12.6270756,6.9448916 12.4166244,6.83966597 12.2061731,6.73444034 C11.9957219,6.62921471 11.7852706,6.62921471 11.5748193,6.73444034 C11.1539168,6.9448916 10.9434656,7.47101976 11.1539168,7.89192228 L11.9957219,9.68075799 L10.8382399,10.3121118 Z" id="Shape"></path>
                        <path d="M11.3643681,23.4653156 C11.0486912,22.7287362 10.4173374,22.4130593 9.25985547,21.9921567 C7.99714791,21.4660286 6.31353782,20.8346748 4.31425085,19.0458391 C2.10451261,16.9413265 1.0522563,15.7838446 0.947030673,15.6786189 L0.631353782,15.2577164 L0.841805043,14.8368139 C0.841805043,14.7315883 2.10451261,12.8375269 4.20902521,13.1532038 C4.73515337,13.2584294 5.26128152,13.6793319 5.78740967,14.1002345 L0.947030673,3.78812269 C0.736579413,3.26199454 0.631353782,2.63064076 0.841805043,2.10451261 C1.0522563,1.57838446 1.47315883,1.15748193 1.99928698,0.841805043 C2.52541513,0.631353782 3.15676891,0.526128152 3.68289706,0.736579413 C4.20902521,0.947030673 4.62992774,1.36793319 4.94560463,1.89406135 L9.47030673,11.4695937 L8.20759917,11.9957219 L3.68289706,2.4201895 C3.57767143,2.20973824 3.36722017,2.10451261 3.15676891,1.99928698 C2.94631765,1.89406135 2.73586639,1.89406135 2.52541513,1.99928698 C2.31496387,2.10451261 2.20973824,2.31496387 2.10451261,2.52541513 C1.99928698,2.73586639 1.99928698,2.94631765 2.10451261,3.15676891 L8.20759917,16.2047471 L7.47101976,16.4151983 C7.36579413,16.4151983 7.05011723,16.520424 6.73444034,16.4151983 C6.20831219,16.3099727 5.78740967,15.7838446 5.26128152,15.362942 C4.840379,14.9420395 4.31425085,14.4159114 3.89334832,14.4159114 C3.15676891,14.3106857 2.63064076,14.7315883 2.20973824,15.0472651 C2.73586639,15.6786189 3.68289706,16.6256496 5.05083026,17.9935828 C6.83966597,19.6771929 8.3128248,20.203321 9.47030673,20.7294492 C10.6277887,21.1503517 11.680045,21.5712542 12.3113988,22.8339618 L11.3643681,23.4653156 Z" id="Shape"></path>
                        <path d="M19.5719672,19.361516 C19.361516,18.9406135 19.2562904,18.3092597 19.1510647,17.362229 C18.8353878,14.9420395 18.2040341,10.9434656 15.8890702,7.47101976 C15.362942,6.73444034 15.0472651,6.83966597 14.8368139,6.9448916 C14.3106857,7.15534287 14.1002345,7.68147102 14.1002345,7.68147102 L12.8375269,7.15534287 C12.8375269,7.05011723 13.3636551,6.10308656 14.4159114,5.68218404 C14.9420395,5.47173278 16.0995214,5.36650715 17.0465521,6.73444034 C19.4667416,10.4173374 20.0980954,14.6263626 20.5189979,17.1517778 C20.6242236,17.8883572 20.7294492,18.6249366 20.8346748,18.8353878 L19.5719672,19.361516 Z" id="Shape"></path>
                    </g>
                    <g id="arrow" transform="translate(0.161066, 0.849363)" fill="#E89494">
                        <path d="M22.1422948,9.76465835 C21.9885289,9.76465835 21.8347629,9.76465835 21.8347629,9.76465835 C11.2249133,5.30544621 1.84519123,6.07427589 1.6914253,6.22804183 C1.23012749,6.22804183 0.615063744,5.92050995 0.615063744,5.30544621 C0.615063744,4.8441484 0.922595616,4.22908466 1.53765936,4.22908466 C1.99895717,4.22908466 11.5324452,3.30648904 22.6035926,7.91946712 C23.0648904,8.07323306 23.3724223,8.6882968 23.0648904,9.14959461 C22.9111245,9.45712648 22.4498267,9.76465835 22.1422948,9.76465835 Z" id="Shape"></path>
                        <path d="M4.63131657,9.47867721 C4.28553927,9.47867721 4.11265062,9.30578856 3.93976197,9.13289991 L0.654877619,5.84801555 C0.309100319,5.50223825 0.309100319,4.637795 0.654877619,4.2920177 L3.93976197,1.00713335 C4.28553927,0.661356048 5.14998252,0.661356048 5.49575982,1.00713335 C5.84153712,1.35291065 5.84153712,2.2173539 5.49575982,2.5631312 L2.90243007,5.15646095 L5.49575982,7.7497907 C5.84153712,8.095568 5.84153712,8.96001126 5.49575982,9.30578856 C5.14998252,9.47867721 4.97709387,9.47867721 4.63131657,9.47867721 Z" id="Shape"></path>
                        <path d="M24.2950179,12.993743 C22.7573585,12.993743 21.527231,11.7636155 21.527231,10.2259562 C21.527231,8.6882968 22.7573585,7.45816931 24.2950179,7.45816931 C25.8326773,7.45816931 27.0628047,8.6882968 27.0628047,10.2259562 C27.2165707,11.7636155 25.8326773,12.993743 24.2950179,12.993743 Z M24.2950179,9.45712648 C23.8337201,9.45712648 23.3724223,9.91842429 23.3724223,10.3797221 C23.3724223,10.8410199 23.8337201,11.3023177 24.2950179,11.3023177 C24.7563157,11.3023177 25.2176135,10.8410199 25.2176135,10.3797221 C25.2176135,9.76465835 24.7563157,9.45712648 24.2950179,9.45712648 Z" id="Shape"></path>
                    </g>
                </g>
            </g>
        </g>
    </g>
</svg>