<?xml version="1.0" encoding="UTF-8" standalone="no"?>
<svg width="64px" height="64px" viewBox="0 0 64 64" version="1.1" xmlns="http://www.w3.org/2000/svg" xmlns:xlink="http://www.w3.org/1999/xlink">
    <!-- Generator: Sketch 45.2 (43514) - http://www.bohemiancoding.com/sketch -->
    <title>right</title>
    <desc>Created with Sketch.</desc>
    <defs></defs>
    <g id="YCH-WORKS" stroke="none" stroke-width="1" fill="none" fill-rule="evenodd">
        <g id="Blockly_Groves" transform="translate(-2269.000000, -2276.000000)" fill-rule="nonzero">
            <g id="right-gesture" transform="translate(2269.000000, 2276.000000)">
                <g id="right" transform="translate(18.000000, 10.000000)">
                    <g id="right-hand" transform="translate(5.000000, 15.000000)" fill="#757575">
                        <path d="M2.88147544,24.6555223 L1.54148693,24.0971938 C1.87648406,23.3155338 1.76481835,22.6455395 1.31815551,21.4172167 C0.87149267,20.0772282 0.201498412,18.2905769 0.424829831,15.3872684 C0.536495541,12.8189571 0.87149267,11.0323057 0.98315838,10.3623115 L1.09482409,9.80398292 L1.65315264,9.69231721 C1.76481835,9.69231721 4.22146396,9.35732008 5.22645535,11.2556371 C5.56145248,11.8139657 5.56145248,12.4839599 5.56145248,13.1539542 L10.6980751,2.21071466 C11.2564037,1.09405756 12.5963922,0.535729013 13.824715,1.09405756 C14.9413721,1.65238611 15.4997006,2.99237463 14.9413721,4.22069743 L10.1397466,14.382277 L8.79975806,13.8239485 L13.6013836,3.66236888 C13.7130493,3.43903746 13.7130493,3.21570605 13.6013836,2.99237463 C13.4897179,2.76904321 13.3780522,2.54571179 13.1547207,2.43404608 C12.9313893,2.32238037 12.7080579,2.32238037 12.4847265,2.43404608 C12.2613951,2.54571179 12.0380636,2.6573775 11.9263979,2.88070892 L5.44978677,16.7272569 L4.77979251,16.2805941 C4.6681268,16.1689284 4.33312967,15.9455969 4.22146396,15.7222655 C3.99813254,15.163937 3.99813254,14.4939427 4.10979825,13.8239485 C4.10979825,13.1539542 4.22146396,12.4839599 3.99813254,12.0372971 C3.66313541,11.3673029 2.88147544,11.1439714 2.3231469,11.1439714 C2.21148119,12.0372971 1.98814977,13.4889513 1.87648406,15.3872684 C1.76481835,17.9555797 2.3231469,19.6305654 2.65814402,20.8588882 C3.10480686,22.1988767 3.5514697,23.3155338 2.88147544,24.6555223 Z" id="Shape"></path>
                        <path d="M11.4797351,28.228825 L10.1397466,27.6704965 C10.363078,27.2238336 10.8097408,26.7771708 11.5914008,25.9955108 C13.3780522,24.2088595 16.3930263,21.1938853 17.6213491,17.062254 C17.9563462,16.1689284 17.5096834,15.9455969 17.3980177,15.8339312 C16.8396892,15.4989341 16.2813606,15.7222655 16.2813606,15.7222655 L15.8346978,14.382277 C15.9463635,14.382277 17.0630206,14.0472799 18.068012,14.6056084 C18.6263405,14.9406056 19.5196662,15.7222655 18.9613376,17.5089169 C17.6213491,21.9755453 14.4947092,25.1021851 12.5963922,27.0005022 C12.1497293,27.3354993 11.5914008,28.0054936 11.4797351,28.228825 Z" id="Shape"></path>
                        <path d="M12.9313893,15.8339312 L11.5914008,15.2756027 L12.9313893,12.3722942 C13.043055,12.1489628 13.043055,11.9256314 12.9313893,11.7023 C12.8197236,11.4789686 12.7080579,11.2556371 12.4847265,11.1439714 C12.0380636,10.92064 11.4797351,11.1439714 11.2564037,11.5906343 L9.91641515,14.4939427 L8.57642664,13.9356142 L9.91641515,11.0323057 C10.4747437,9.91564863 11.8147322,9.35732008 13.043055,9.91564863 C13.6013836,10.13898 14.0480464,10.5856429 14.2713778,11.2556371 C14.4947092,11.8139657 14.4947092,12.4839599 14.1597121,13.0422885 L12.9313893,15.8339312 Z" id="Shape"></path>
                        <path d="M15.6113663,17.6205826 L14.2713778,17.062254 L15.6113663,14.1589456 C15.8346978,13.7122828 15.6113663,13.1539542 15.1647035,12.9306228 C14.7180407,12.7072914 14.1597121,12.9306228 13.9363807,13.3772856 L13.043055,15.2756027 L11.7030665,14.7172741 L12.5963922,12.8189571 C13.1547207,11.7023 14.4947092,11.1439714 15.7230321,11.7023 C16.2813606,11.9256314 16.7280234,12.3722942 16.9513549,13.0422885 C17.1746863,13.600617 17.1746863,14.2706113 16.8396892,14.8289399 L15.6113663,17.6205826 Z" id="Shape"></path>
                    </g>
                    <g id="right-arrow" transform="translate(0.010107, 0.782270)" fill="#E89494">
                        <path d="M5.4405138,9.32659508 L4.66329754,7.46127607 C16.0106549,2.64253527 25.6481365,3.57519478 25.959023,3.73063803 L25.8035797,5.7514003 C25.6481365,5.7514003 16.1660981,4.81874079 5.4405138,9.32659508 Z" id="Shape"></path>
                        <path d="M22.7658957,9.32206383 C22.4070681,9.32206383 22.2276543,9.14265002 22.0482405,8.96323622 C21.6894128,8.60440861 21.6894128,7.70733959 22.0482405,7.34851198 L24.7394475,4.6573049 L22.0482405,1.96609783 C21.6894128,1.60727022 21.6894128,0.710201197 22.0482405,0.351373588 C22.4070681,-0.00745402197 23.3041371,-0.00745402197 23.6629647,0.351373588 L27.071827,3.76023588 C27.4306546,4.11906349 27.4306546,5.01613251 27.071827,5.37496012 L23.6629647,8.78382241 C23.3041371,9.14265002 22.9453095,9.32206383 22.7658957,9.32206383 Z" id="Shape"></path>
                        <path d="M3.57519478,11.9691304 C2.02076227,11.9691304 0.777216257,10.7255843 0.777216257,9.17115183 C0.777216257,7.61671932 2.02076227,6.37317331 3.57519478,6.37317331 C5.1296273,6.37317331 6.37317331,7.61671932 6.37317331,9.17115183 C6.37317331,10.7255843 5.1296273,11.9691304 3.57519478,11.9691304 Z M3.57519478,8.23849232 C3.10886503,8.23849232 2.64253527,8.70482208 2.64253527,9.17115183 C2.64253527,9.63748159 3.10886503,10.1038113 3.57519478,10.1038113 C4.04152454,10.1038113 4.50785429,9.63748159 4.50785429,9.17115183 C4.50785429,8.70482208 4.04152454,8.23849232 3.57519478,8.23849232 Z" id="Shape"></path>
                    </g>
                </g>
            </g>
        </g>
    </g>
</svg>