<?xml version="1.0" encoding="UTF-8" standalone="no"?>
<svg width="64px" height="64px" viewBox="0 0 64 64" version="1.1" xmlns="http://www.w3.org/2000/svg" xmlns:xlink="http://www.w3.org/1999/xlink">
    <!-- Generator: Sketch 45.2 (43514) - http://www.bohemiancoding.com/sketch -->
    <title>up</title>
    <desc>Created with Sketch.</desc>
    <defs></defs>
    <g id="YCH-WORKS" stroke="none" stroke-width="1" fill="none" fill-rule="evenodd">
        <g id="Blockly_Groves" transform="translate(-2365.000000, -2276.000000)" fill-rule="nonzero">
            <g id="up" transform="translate(2365.000000, 2276.000000)">
                <g transform="translate(7.000000, 16.000000)">
                    <g id="Group-3" transform="translate(34.196862, 18.169627) rotate(-66.000000) translate(-34.196862, -18.169627) translate(24.696862, 4.669627)" fill="#757575">
                        <path d="M12.3950225,14.16574 L10.9563145,14.16574 L10.9563145,10.9563145 C10.9563145,10.5136351 10.5136351,10.0709558 10.0709558,10.0709558 C9.62827638,10.0709558 9.18559701,10.5136351 9.18559701,10.9563145 L9.18559701,11.5096637 L7.74688904,11.5096637 L7.74688904,10.9563145 C7.74688904,9.73894622 8.74291763,8.63224779 10.0709558,8.63224779 C11.288324,8.63224779 12.3950225,9.62827638 12.3950225,10.9563145 L12.3950225,14.16574 Z" id="Shape"></path>
                        <path d="M15.6044479,14.6084193 L14.16574,14.6084193 L14.16574,11.3989939 C14.16574,10.9563145 13.7230606,10.5136351 13.2803812,10.5136351 C12.8377018,10.5136351 12.3950225,10.9563145 12.3950225,11.3989939 L12.3950225,14.0550701 L10.9563145,14.0550701 L10.9563145,11.3989939 C10.9563145,10.1816256 11.9523431,9.07492716 13.2803812,9.07492716 C14.6084193,9.07492716 15.6044479,10.0709558 15.6044479,11.3989939 L15.6044479,14.6084193 Z" id="Shape"></path>
                        <path d="M6.08684139,17.8178448 L4.64813342,17.8178448 L4.64813342,2.43473656 C4.64813342,1.21736828 5.64416202,0.110669843 6.97220014,0.110669843 C8.18956841,0.110669843 9.29626685,1.10669843 9.29626685,2.43473656 L9.29626685,14.0550701 L7.85755888,14.0550701 L7.85755888,2.43473656 C7.85755888,1.99205718 7.41487951,1.54937781 6.97220014,1.54937781 C6.52952076,1.54937781 6.08684139,1.99205718 6.08684139,2.43473656 L6.08684139,17.8178448 Z" id="Shape"></path>
                        <path d="M6.08684139,26.3394227 L4.64813342,26.3394227 C4.64813342,25.8967434 4.09478421,25.1220545 3.43076515,24.2366957 C2.32406671,22.7979877 0.885358748,20.8059306 0.664019061,18.371194 C0.553349217,17.707175 0.553349217,16.8218162 0.553349217,15.4937781 C0.553349217,14.0550701 1.54937781,12.8377018 2.87741593,12.5056923 L5.20148264,11.8416732 L5.53349217,13.1697114 L3.20942546,13.8337304 C2.43473656,14.0550701 1.88138734,14.7190892 1.88138734,15.4937781 C1.88138734,16.6004765 1.88138734,17.5965051 1.99205718,18.1498543 C2.21339687,20.2525813 3.43076515,22.0232988 4.53746358,23.351337 C5.42282233,24.5687052 6.08684139,25.454064 6.08684139,26.3394227 Z" id="Shape"></path>
                        <path d="M17.1538257,26.3394227 L15.7151178,26.3394227 C15.7151178,25.8967434 15.9364575,25.3433941 16.1577971,24.4580354 C16.8218162,22.2446385 18.0391845,18.0391845 17.1538257,13.2803812 C16.932486,12.2843526 16.6004765,12.2843526 16.3791368,12.2843526 C15.8257876,12.2843526 15.2724384,12.6163622 15.2724384,12.6163622 L14.3870796,11.6203336 C14.4977495,11.5096637 15.3831082,10.8456447 16.4898067,10.9563145 C17.5965051,11.0669843 18.2605242,11.7310034 18.4818639,13.1697114 C19.4778924,18.2605242 18.2605242,22.6873179 17.4858353,25.0113846 C17.3751654,25.454064 17.1538257,26.1180831 17.1538257,26.3394227 Z" id="Shape"></path>
                    </g>
                    <g id="up-arrow" transform="translate(8.313190, 16.389048) scale(-1, 1) rotate(83.000000) translate(-8.313190, -16.389048) translate(-7.186810, 10.389048)" fill="#E89494">
                        <path d="M25.527231,9.5355737 C25.3734651,9.5355737 25.2196992,9.5355737 25.2196992,9.5355737 C14.5022924,6.63380338 5.23012749,5.84519123 5.07636155,5.99895717 C4.61506374,5.99895717 4,5.6914253 4,5.07636155 C4,4.61506374 4.30753187,4 4.92259562,4 C5.38389342,4 14.7881493,4.30568546 25.9885289,7.69038247 C26.4498267,7.8441484 26.7573585,8.45921215 26.4498267,8.92050995 C26.2960607,9.22804183 25.8347629,9.5355737 25.527231,9.5355737 Z" id="Shape"></path>
                        <path d="M5.85285903,9.26805229 C5.50708173,9.26805229 5.33419308,9.09516364 5.16130443,8.92227499 L1.87642008,5.63739064 C1.53064278,5.29161334 1.53064278,4.42717009 1.87642008,4.08139279 L5.16130443,0.796508436 C5.50708173,0.450731136 6.37152498,0.450731136 6.71730228,0.796508436 C7.06307958,1.14228574 7.06307958,2.00672899 6.71730228,2.35250629 L4.12397253,4.94583604 L6.71730228,7.53916579 C7.06307958,7.88494309 7.06307958,8.74938634 6.71730228,9.09516364 C6.37152498,9.26805229 6.19863633,9.26805229 5.85285903,9.26805229 Z" id="Shape" transform="translate(4.296861, 4.902614) rotate(10.000000) translate(-4.296861, -4.902614) "></path>
                        <path d="M27.2950179,11.993743 C25.7573585,11.993743 24.527231,10.7636155 24.527231,9.22595616 C24.527231,7.6882968 25.7573585,6.45816931 27.2950179,6.45816931 C28.8326773,6.45816931 30.0628047,7.6882968 30.0628047,9.22595616 C30.2165707,10.7636155 28.8326773,11.993743 27.2950179,11.993743 Z M27.2950179,8.45712648 C26.8337201,8.45712648 26.3724223,8.91842429 26.3724223,9.3797221 C26.3724223,9.84101991 26.8337201,10.3023177 27.2950179,10.3023177 C27.7563157,10.3023177 28.2176135,9.84101991 28.2176135,9.3797221 C28.2176135,8.76465835 27.7563157,8.45712648 27.2950179,8.45712648 Z" id="Shape"></path>
                    </g>
                </g>
            </g>
        </g>
    </g>
</svg>