<?xml version="1.0" encoding="UTF-8" standalone="no"?>
<svg width="24px" height="24px" viewBox="0 0 24 24" version="1.1" xmlns="http://www.w3.org/2000/svg" xmlns:xlink="http://www.w3.org/1999/xlink">
    <!-- Generator: Sketch 45.2 (43514) - http://www.bohemiancoding.com/sketch -->
    <title>Icon_edit profile</title>
    <desc>Created with Sketch.</desc>
    <defs></defs>
    <g id="YCH-WORKS" stroke="none" stroke-width="1" fill="none" fill-rule="evenodd">
        <g id="切图专用" transform="translate(-241.000000, -84.000000)" fill-rule="nonzero" fill="#FFFFFF">
            <g id="popout_Ueser-center" transform="translate(241.000000, 84.000000)">
                <g id="Icon_edit-profile" transform="translate(4.000000, 5.000000)">
                    <path d="M5.14897343,7.31477552 C3.30890823,7.31477552 1.78300075,5.75617602 1.78300075,3.87668839 C1.78300075,1.99720076 3.30890823,0.438601257 5.14897343,0.438601257 C6.98903864,0.438601257 8.51494613,1.99720076 8.51494613,3.87668839 C8.51494613,5.75617602 6.98903864,7.31477552 5.14897343,7.31477552 L5.14897343,7.31477552 Z M5.14897343,1.81383608 C4.02698267,1.81383608 3.12938982,2.73513626 3.12938982,3.88676146 C3.12938982,5.03838663 4.02698267,5.9596868 5.14897343,5.9596868 C6.2709642,5.9596868 7.16855705,5.03838663 7.16855705,3.88676146 C7.16855705,2.73513626 6.2709642,1.81383608 5.14897343,1.81383608 L5.14897343,1.81383608 Z M8.51494613,12.9073973 L7.93151099,9.19426315 L6.2709642,8.6441692 L6.67488091,7.36061669 L9.09838125,8.18575763 L9.81645569,12.7240326 L8.51494613,12.9073973 L8.51494613,12.9073973 Z M1.78300075,12.9073973 L0.436611659,12.6781915 L1.1546857,8.13991645 L3.57818604,7.31477552 L3.98210277,8.59832803 L2.32155638,9.14842197 L1.78300075,12.9073973 L1.78300075,12.9073973 Z M11.2077243,7.31477552 L16.5932806,7.31477552 L16.5932806,8.69001038 L11.2077243,8.69001038 L11.2077243,7.31477552 L11.2077243,7.31477552 Z M11.2077243,10.0652452 L16.5932806,10.0652452 L16.5932806,11.4404801 L11.2077243,11.4404801 L11.2077243,10.0652452 L11.2077243,10.0652452 Z" id="Shape"></path>
                </g>
            </g>
        </g>
    </g>
</svg>