<?xml version="1.0" encoding="UTF-8" standalone="no"?>
<svg width="24px" height="24px" viewBox="0 0 24 24" version="1.1" xmlns="http://www.w3.org/2000/svg" xmlns:xlink="http://www.w3.org/1999/xlink">
    <!-- Generator: Sketch 46 (44423) - http://www.bohemiancoding.com/sketch -->
    <title>icon_github</title>
    <desc>Created with Sketch.</desc>
    <defs></defs>
    <g id="--" stroke="none" stroke-width="1" fill="none" fill-rule="evenodd">
        <g id="切图专用" transform="translate(-174.000000, -118.000000)" fill-rule="nonzero" fill="#FFFFFF">
            <g id="icon_github" transform="translate(174.000000, 118.000000)">
                <path d="M12.0127299,4.02486017 C14.290879,4.07665221 16.1687989,4.87114201 17.6719496,6.4083296 C19.1740819,7.94655303 19.9500987,9.89393352 20,12.2007507 C19.9755585,14.045583 19.4490484,15.6345626 18.4479664,17.043306 C17.445866,18.4530852 16.1443575,19.4008794 14.5169626,19.9902728 C14.3163389,20.0161688 14.1656164,19.9902728 14.0912736,19.9136205 C14.0159124,19.8110723 13.9660111,19.7085241 13.9660111,19.6059758 L13.9904525,17.3509507 C13.9904525,16.9666538 13.9405512,16.6590091 13.8152887,16.4031564 C13.715486,16.1462679 13.5902234,15.9670675 13.439501,15.8396591 C14.3662402,15.7878671 15.1931767,15.4802224 15.9437337,14.916725 C16.6698492,14.3780879 17.0710967,13.3277454 17.120998,11.7905578 C17.120998,11.3544689 17.0456368,10.944276 16.8949144,10.5858751 C16.7452104,10.2264384 16.5445866,9.89393352 16.2940615,9.61218486 C16.3449812,9.50963664 16.419324,9.25378398 16.4447839,8.86845124 C16.4946852,8.48415434 16.419324,7.99730922 16.2187003,7.43381188 C16.2187003,7.40791587 16.0435364,7.40791587 15.6932086,7.45867206 C15.3428808,7.51046409 14.7919292,7.79221276 14.0159124,8.27905788 C13.3651582,8.09985745 12.7133855,7.99730922 12.0127299,7.99730922 C11.3120743,7.99730922 10.6603017,8.09985745 10.0095475,8.27905788 C9.25797211,7.76631675 8.68257908,7.51046409 8.33225128,7.45867206 C7.9809051,7.40791587 7.80574119,7.40791587 7.80574119,7.43381188 C7.60613583,7.99730922 7.53077462,8.48415434 7.58067595,8.86845124 C7.6305773,9.25378398 7.68047865,9.50963664 7.73139837,9.61218486 C7.48087327,9.89393352 7.25478964,10.2015782 7.12952708,10.5858751 C6.97982305,10.944276 6.90446183,11.3544689 6.90446183,11.815418 C6.95436318,13.3536414 7.33015085,14.3780879 8.05626631,14.9426211 C8.78238177,15.5061184 9.6093183,15.8137631 10.5350391,15.8645193 C10.4097766,15.9670675 10.3099739,16.0955118 10.2346127,16.2747122 C10.13481,16.4539126 10.0849087,16.6849051 10.0350073,16.9407578 C9.75902234,17.095098 9.40869455,17.1458542 8.93310419,17.120994 C8.45751384,17.095098 8.05626631,16.8133493 7.70593851,16.2488162 C7.53077462,15.9670675 7.35561071,15.7619711 7.12952708,15.6345626 C6.90446183,15.5061184 6.70485647,15.4294662 6.45433137,15.4035702 C6.25370759,15.3776741 6.12844503,15.4035702 6.0785437,15.5061184 C6.02864235,15.5827706 6.12844503,15.7112149 6.37897014,15.8904153 C6.62949526,16.0696157 6.82910062,16.2488162 6.95436318,16.4539126 C7.07962574,16.6590091 7.18044682,16.8900016 7.2802495,17.095098 C7.40551206,17.4276029 7.68047865,17.7103874 8.13162753,17.940344 C8.55731652,18.1713365 9.18362931,18.1972325 9.98408758,18.0428922 L10.0095475,19.5552196 C10.0095475,19.6836639 9.95964611,19.7862121 9.8842849,19.8628643 C9.80892369,19.9654126 9.65921965,19.9902728 9.45859588,19.9395166 C7.83120107,19.3760192 6.52867417,18.3764329 5.52759213,16.9925498 C4.5254917,15.6086666 4.02545986,13.993791 4,12.1748547 C4.04990135,9.84214149 4.82591815,7.92065701 6.32906881,6.38346943 C7.83120107,4.845246 9.73356247,4.05075618 11.9872701,4 L12.0127299,4.02486017 Z"></path>
            </g>
        </g>
    </g>
</svg>