<?xml version="1.0" encoding="UTF-8" standalone="no"?>
<svg width="24px" height="24px" viewBox="0 0 24 24" version="1.1" xmlns="http://www.w3.org/2000/svg" xmlns:xlink="http://www.w3.org/1999/xlink">
    <!-- Generator: Sketch 46 (44423) - http://www.bohemiancoding.com/sketch -->
    <title>icon_facebook</title>
    <desc>Created with Sketch.</desc>
    <defs></defs>
    <g id="--" stroke="none" stroke-width="1" fill="none" fill-rule="evenodd">
        <g id="切图专用" transform="translate(-174.000000, -152.000000)" fill-rule="nonzero" fill="#FFFFFF">
            <g id="icon_facebook" transform="translate(174.000000, 152.000000)">
                <path d="M18.2034,5 C18.4064,5 18.5898,5.07580467 18.7536,5.22881781 C18.9174,5.38042715 19,5.55870851 19,5.76085431 L19,18.2391457 C19,18.4426953 18.9174,18.6195728 18.7536,18.7711822 C18.5884,18.9241953 18.405,19 18.2034,19 L14.6376,19 L14.6376,13.5982152 L16.459,13.5982152 L16.725,11.4672616 L14.639,11.4672616 L14.639,10.0761055 C14.639,9.38122932 14.9932,9.03308934 15.7016,9.03308934 L16.802,9.03308934 L16.802,7.20395067 C16.4226,7.12954978 15.8794,7.09164745 15.171,7.09164745 C14.3618,7.09164745 13.7108,7.33871453 13.2166,7.83284869 C12.721,8.32838664 12.4746,9.02045523 12.4746,9.90765066 L12.4746,11.4672616 L10.6532,11.4672616 L10.6532,13.5982152 L12.4746,13.5982152 L12.4746,19 L5.7588,19 C5.5558,19 5.3794,18.9241953 5.2282,18.7711822 C5.0756,18.6195728 5,18.4426953 5,18.2391457 L5,5.76085431 C5,5.55870851 5.0756,5.38042715 5.2282,5.22881781 C5.3794,5.07720846 5.5572,5 5.7588,5 L18.2034,5 Z"></path>
            </g>
        </g>
    </g>
</svg>