<?xml version="1.0" encoding="UTF-8" standalone="no"?>
<svg width="24px" height="24px" viewBox="0 0 24 24" version="1.1" xmlns="http://www.w3.org/2000/svg" xmlns:xlink="http://www.w3.org/1999/xlink">
    <!-- Generator: Sketch 46 (44423) - http://www.bohemiancoding.com/sketch -->
    <title>icon_forum</title>
    <desc>Created with Sketch.</desc>
    <defs></defs>
    <g id="--" stroke="none" stroke-width="1" fill="none" fill-rule="evenodd">
        <g id="切图专用" transform="translate(-174.000000, -84.000000)" fill="#FFFFFF">
            <g id="icon_forum" transform="translate(174.000000, 84.000000)">
                <path d="M13.5144066,6.25062395 C13.9852695,6.20994165 14.4722151,6.21216963 14.9688066,6.2616367 C18.5128107,6.61466631 21.2060549,9.23998748 20.9843359,12.1254556 C20.8886495,13.3707257 20.2656911,14.4609393 19.3035245,15.2696239 L20.1661875,17.7133639 L17.7004891,16.2271256 C16.6595398,16.6523474 15.4446987,16.8382274 14.1658911,16.7108413 C13.6813274,16.6625723 13.2126683,16.5718241 12.7651899,16.4437397 C14.9143693,15.7049421 16.4835304,13.9234619 16.6540019,11.7049331 C16.8253957,9.47440074 15.5370248,7.39940772 13.5144064,6.25062397 L13.5144066,6.25062395 Z M8.61480547,16.4463298 L8.61480547,16.4463298 L5.67466383,18 L6.52217714,15.9208481 C4.43180096,15.0540585 3,13.2854465 3,11.2445594 C3,8.34806923 5.8839573,6 9.44149892,6 C12.9990405,6 15.8829978,8.34806923 15.8829978,11.2445594 C15.8829978,14.1410496 12.9990405,16.4891188 9.44149892,16.4891188 C9.16139924,16.4891188 8.88547515,16.474563 8.61480547,16.4463298 Z"></path>
            </g>
        </g>
    </g>
</svg>