<?xml version="1.0" encoding="UTF-8" standalone="no"?>
<svg width="16px" height="16px" viewBox="0 0 16 16" version="1.1" xmlns="http://www.w3.org/2000/svg" xmlns:xlink="http://www.w3.org/1999/xlink">
    <!-- Generator: Sketch 46 (44423) - http://www.bohemiancoding.com/sketch -->
    <title>icon_small camera wiz bg</title>
    <desc>Created with Sketch.</desc>
    <defs></defs>
    <g id="--" stroke="none" stroke-width="1" fill="none" fill-rule="evenodd">
        <g id="studio_blockly_3.0" transform="translate(-2867.000000, -279.000000)">
            <g id="user-center_edit-profile" transform="translate(2701.000000, 119.000000)">
                <g id="user-image" transform="translate(119.000000, 116.000000)">
                    <g id="icon_small-camera-wiz-bg" transform="translate(47.000000, 44.000000)">
                        <g>
                            <circle id="bg" fill="#D95E2E" cx="8" cy="8" r="8"></circle>
                            <g id="icon_small-camera" transform="translate(4.000000, 5.000000)" fill-rule="nonzero" fill="#FFFFFF">
                                <path d="M6.86666666,6.99726776 L1.13333334,6.99726776 C0.5,6.99726776 0,6.4726776 0,5.80819672 L0,2.59071039 C0,1.92622951 0.5,1.40163934 1.13333334,1.40163934 C1.33333334,1.40163934 1.5,1.29672131 1.6,1.12185793 L1.8,0.667213115 C2,0.247540984 2.4,0.0027322377 2.83333334,0.0027322377 L5.16666667,0.0027322377 C5.60000001,0.0027322377 6.00000001,0.247540984 6.20000001,0.667213115 L6.40000001,1.12185793 C6.5,1.29672131 6.66666666,1.40163934 6.83333334,1.40163934 C7.5,1.40163934 8,1.92622951 8,2.59071039 L8,5.77322405 C8,6.4726776 7.5,6.99726776 6.86666666,6.99726776 Z M2.83333334,0.702185795 C2.66666666,0.702185795 2.5,0.807103828 2.4,0.981967213 L2.2,1.43661202 C2,1.85628416 1.6,2.10109289 1.16666666,2.10109289 C0.866666664,2.10109289 0.666666664,2.31092896 0.666666664,2.59071039 L0.666666664,5.77322405 C0.666666664,6.08797814 0.866666664,6.2978142 1.13333334,6.2978142 L6.83333334,6.2978142 C7.1,6.2978142 7.3,6.08797814 7.3,5.80819672 L7.3,2.59071039 C7.33333334,2.31092896 7.13333334,2.10109289 6.86666666,2.10109289 C6.4,2.10109289 6.03333333,1.85628415 5.83333333,1.43661202 L5.63333333,0.981967205 C5.5,0.807103828 5.33333334,0.702185795 5.16666666,0.702185795 L2.83333334,0.702185795 Z" id="Shape"></path>
                                <path d="M4,5.59836066 C3.06666666,5.59836066 2.33333334,4.82896175 2.33333334,3.84972678 C2.33333334,2.87049181 3.06666667,2.1010929 4,2.1010929 C4.93333333,2.1010929 5.66666666,2.87049181 5.66666666,3.84972678 C5.66666666,4.82896175 4.93333334,5.59836066 4,5.59836066 Z M4,2.80054645 C3.43333334,2.80054645 3,3.25519126 3,3.84972678 C3,4.4442623 3.43333334,4.89890711 4,4.89890711 C4.56666666,4.89890711 5,4.4442623 5,3.84972678 C5,3.25519126 4.56666666,2.80054645 4,2.80054645 Z" id="Shape"></path>
                            </g>
                        </g>
                    </g>
                </g>
            </g>
        </g>
    </g>
</svg>