<?xml version="1.0" encoding="UTF-8" standalone="no"?>
<svg width="113px" height="20px" viewBox="0 0 113 20" version="1.1" xmlns="http://www.w3.org/2000/svg" xmlns:xlink="http://www.w3.org/1999/xlink">
    <!-- Generator: Sketch 43.1 (39012) - http://www.bohemiancoding.com/sketch -->
    <title>Leap Motion</title>
    <desc>Created with Sketch.</desc>
    <defs></defs>
    <g id="YCH-WORKS" stroke="none" stroke-width="1" fill="none" fill-rule="evenodd">
        <g id="Leap-Motion_Redesign" transform="translate(-1509.000000, -160.000000)" fill="#FFFFFF">
            <g id="tips02" transform="translate(1412.000000, 140.000000)">
                <path d="M105.5625,35 L97.5732422,35 L97.5732422,21.3857422 L100.473633,21.3857422 L100.473633,32.6269531 L105.5625,32.6269531 L105.5625,35 Z M115.766602,30.9394531 L109.368164,30.9394531 C109.467774,32.44532 110.375968,33.1982422 112.092773,33.1982422 C113.165044,33.1982422 114.111324,32.9345729 114.931641,32.4072266 L114.931641,34.4902344 C114.046871,34.9882837 112.886726,35.2373047 111.451172,35.2373047 C109.904289,35.2373047 108.701664,34.8007856 107.843262,33.9277344 C106.984859,33.0546831 106.555664,31.838875 106.555664,30.2802734 C106.555664,28.7275313 107.012691,27.4663134 107.926758,26.496582 C108.840825,25.5268506 109.989251,25.0419922 111.37207,25.0419922 C112.74903,25.0419922 113.82568,25.4594685 114.602051,26.2944336 C115.378422,27.1293987 115.766602,28.2763599 115.766602,29.7353516 L115.766602,30.9394531 Z M113.121094,29.1640625 C113.121094,27.7109302 112.532232,26.984375 111.354492,26.984375 C110.868162,26.984375 110.437502,27.1835918 110.0625,27.5820312 C109.687498,27.9804707 109.453125,28.5078092 109.359375,29.1640625 L113.121094,29.1640625 Z M117.849609,25.8681641 C118.289065,25.6220691 118.876461,25.4228523 119.611816,25.2705078 C120.347172,25.1181633 120.975583,25.0419922 121.49707,25.0419922 C124.215834,25.0419922 125.575195,26.4042833 125.575195,29.1289062 L125.575195,35 L122.876953,35 L122.876953,33.5849609 L122.841797,33.5849609 C122.179684,34.6865289 121.209967,35.2373047 119.932617,35.2373047 C119.012691,35.2373047 118.275882,34.9751003 117.722168,34.4506836 C117.168454,33.9262669 116.891602,33.2128951 116.891602,32.3105469 C116.891602,30.4472563 118.001942,29.3632828 120.222656,29.0585938 L122.894531,28.6982422 C122.894531,27.5673772 122.30567,27.0019531 121.12793,27.0019531 C119.967768,27.0019531 118.875005,27.3535121 117.849609,28.0566406 L117.849609,25.8681641 Z M121.057617,30.5966797 C120.032221,30.731446 119.519531,31.194332 119.519531,31.9853516 C119.519531,32.3486346 119.644042,32.6416004 119.893066,32.8642578 C120.142091,33.0869152 120.477537,33.1982422 120.899414,33.1982422 C121.479495,33.1982422 121.957029,32.9931661 122.332031,32.5830078 C122.707033,32.1728495 122.894531,31.663089 122.894531,31.0537109 L122.894531,30.359375 L121.057617,30.5966797 Z M130.848633,33.8310547 L130.848633,39.4736328 L128.009766,39.4736328 L128.009766,25.2792969 L130.848633,25.2792969 L130.848633,26.7646484 L130.883789,26.7646484 C131.627933,25.6162052 132.679681,25.0419922 134.039062,25.0419922 C135.275397,25.0419922 136.242184,25.4741168 136.939453,26.3383789 C137.636722,27.202641 137.985352,28.3788988 137.985352,29.8671875 C137.985352,31.4902425 137.581059,32.7910107 136.772461,33.7695312 C135.963863,34.7480518 134.903327,35.2373047 133.59082,35.2373047 C132.401361,35.2373047 131.499027,34.7685594 130.883789,33.8310547 L130.848633,33.8310547 Z M130.804688,30.7021484 C130.804688,31.3935581 130.992186,31.9589822 131.367188,32.3984375 C131.742189,32.8378928 132.228513,33.0576172 132.826172,33.0576172 C133.53516,33.0576172 134.0874,32.7822293 134.48291,32.2314453 C134.87842,31.6806613 135.076172,30.9013722 135.076172,29.8935547 C135.076172,28.1122958 134.381843,27.2216797 132.993164,27.2216797 C132.34863,27.2216797 131.822756,27.467771 131.415527,27.9599609 C131.008299,28.4521509 130.804688,29.0849571 130.804688,29.8583984 L130.804688,30.7021484 Z M158.103516,35 L158.103516,26.7382812 C158.103516,25.9765587 158.141601,25.0185605 158.217773,23.8642578 L158.147461,23.8642578 C157.971679,24.7373091 157.831055,25.320311 157.725586,25.6132812 L154.368164,35 L152.056641,35 L148.655273,25.7011719 C148.573242,25.4785145 148.429689,24.8662159 148.224609,23.8642578 L148.145508,23.8642578 C148.22168,25.0068417 148.259766,26.152338 148.259766,27.3007812 L148.259766,35 L145.640625,35 L145.640625,21.3857422 L149.859375,21.3857422 L152.794922,29.6123047 C153.041017,30.2919956 153.208007,30.9306611 153.295898,31.5283203 L153.357422,31.5283203 C153.539063,30.784176 153.726562,30.1396512 153.919922,29.5947266 L156.864258,21.3857422 L160.96875,21.3857422 L160.96875,35 L158.103516,35 Z M163.289062,30.1835938 C163.289062,28.5839764 163.768062,27.327153 164.726074,26.4130859 C165.684087,25.4990189 166.971672,25.0419922 168.588867,25.0419922 C170.153328,25.0419922 171.395503,25.4916947 172.31543,26.3911133 C173.235356,27.2905318 173.695312,28.4990158 173.695312,30.0166016 C173.695312,31.6103595 173.223638,32.8789015 172.280273,33.8222656 C171.336909,34.7656297 170.059578,35.2373047 168.448242,35.2373047 C166.866203,35.2373047 165.610844,34.7846725 164.682129,33.8793945 C163.753413,32.9741166 163.289062,31.7421953 163.289062,30.1835938 Z M166.163086,30.1484375 C166.163086,32.0879003 166.954094,33.0576172 168.536133,33.0576172 C170.053719,33.0576172 170.8125,32.0615334 170.8125,30.0693359 C170.8125,28.1708889 170.047859,27.2216797 168.518555,27.2216797 C167.77441,27.2216797 167.195803,27.47656 166.782715,27.9863281 C166.369627,28.4960963 166.163086,29.2167922 166.163086,30.1484375 Z M181.420898,34.8857422 C180.993162,35.1201184 180.345707,35.2373047 179.478516,35.2373047 C177.416005,35.2373047 176.384766,34.1533312 176.384766,31.9853516 L176.384766,27.3974609 L174.785156,27.3974609 L174.785156,25.2792969 L176.384766,25.2792969 L176.384766,23.1435547 L179.206055,22.3349609 L179.206055,25.2792969 L181.420898,25.2792969 L181.420898,27.3974609 L179.206055,27.3974609 L179.206055,31.4931641 C179.206055,32.5302786 179.616207,33.0488281 180.436523,33.0488281 C180.752931,33.0488281 181.081053,32.9550791 181.420898,32.7675781 L181.420898,34.8857422 Z M182.897461,22.1416016 C182.897461,21.7080056 183.051268,21.3549818 183.358887,21.0825195 C183.666505,20.8100572 184.060544,20.6738281 184.541016,20.6738281 C185.033206,20.6738281 185.431639,20.8129869 185.736328,21.0913086 C186.041017,21.3696303 186.193359,21.7197245 186.193359,22.1416016 C186.193359,22.5693381 186.038087,22.9252915 185.727539,23.2094727 C185.416991,23.4936538 185.021487,23.6357422 184.541016,23.6357422 C184.066404,23.6357422 183.67383,23.4921889 183.363281,23.2050781 C183.052733,22.9179673 182.897461,22.5634787 182.897461,22.1416016 Z M183.108398,35 L183.108398,25.2792969 L185.938477,25.2792969 L185.938477,35 L183.108398,35 Z M187.898438,30.1835938 C187.898438,28.5839764 188.377437,27.327153 189.335449,26.4130859 C190.293462,25.4990189 191.581047,25.0419922 193.198242,25.0419922 C194.762703,25.0419922 196.004878,25.4916947 196.924805,26.3911133 C197.844731,27.2905318 198.304688,28.4990158 198.304688,30.0166016 C198.304688,31.6103595 197.833013,32.8789015 196.889648,33.8222656 C195.946284,34.7656297 194.668953,35.2373047 193.057617,35.2373047 C191.475578,35.2373047 190.220219,34.7846725 189.291504,33.8793945 C188.362788,32.9741166 187.898438,31.7421953 187.898438,30.1835938 Z M190.772461,30.1484375 C190.772461,32.0879003 191.563469,33.0576172 193.145508,33.0576172 C194.663094,33.0576172 195.421875,32.0615334 195.421875,30.0693359 C195.421875,28.1708889 194.657234,27.2216797 193.12793,27.2216797 C192.383785,27.2216797 191.805178,27.47656 191.39209,27.9863281 C190.979002,28.4960963 190.772461,29.2167922 190.772461,30.1484375 Z M209.545898,35 L206.724609,35 L206.724609,29.5771484 C206.724609,28.0068281 206.159185,27.2216797 205.02832,27.2216797 C204.489255,27.2216797 204.041017,27.4311502 203.683594,27.8500977 C203.32617,28.2690451 203.147461,28.8037077 203.147461,29.4541016 L203.147461,35 L200.308594,35 L200.308594,25.2792969 L203.147461,25.2792969 L203.147461,26.8261719 L203.182617,26.8261719 C203.891605,25.6367128 204.934563,25.0419922 206.311523,25.0419922 C208.467784,25.0419922 209.545898,26.3779163 209.545898,29.0498047 L209.545898,35 Z" id="Leap-Motion"></path>
            </g>
        </g>
    </g>
</svg>