<?xml version="1.0" encoding="UTF-8" standalone="no"?>
<svg width="18px" height="18px" viewBox="0 0 18 18" version="1.1" xmlns="http://www.w3.org/2000/svg" xmlns:xlink="http://www.w3.org/1999/xlink">
    <!-- Generator: Sketch 43.1 (39012) - http://www.bohemiancoding.com/sketch -->
    <title>Combined Shape</title>
    <desc>Created with Sketch.</desc>
    <defs></defs>
    <g id="YCH-WORKS" stroke="none" stroke-width="1" fill="none" fill-rule="evenodd">
        <g id="Leap-Motion_Redesign" transform="translate(-1631.000000, -159.000000)" fill="#D8D8D8">
            <g id="？" transform="translate(1631.000000, 159.000000)">
                <path d="M9,18 C4.02943725,18 0,13.9705627 0,9 C0,4.02943725 4.02943725,0 9,0 C13.9705627,0 18,4.02943725 18,9 C18,13.9705627 13.9705627,18 9,18 Z M8.98624921,17.7811882 C13.8187408,17.7811882 17.7362492,13.8636797 17.7362492,9.03118816 C17.7362492,4.1986966 13.8187408,0.281188161 8.98624921,0.281188161 C4.15375765,0.281188161 0.23624921,4.1986966 0.23624921,9.03118816 C0.23624921,13.8636797 4.15375765,17.7811882 8.98624921,17.7811882 Z M8.78222656,12.0605469 C8.7320961,11.9374994 8.68880227,11.7768565 8.65234375,11.5786133 C8.61588523,11.3803701 8.59765625,11.1809906 8.59765625,10.9804688 C8.59765625,10.752603 8.62841766,10.544109 8.68994141,10.3549805 C8.75146515,10.1658519 8.83805283,9.98698001 8.94970703,9.81835938 C9.06136124,9.64973874 9.19466068,9.48681719 9.34960938,9.32958984 C9.50455807,9.1723625 9.67545479,9.01171957 9.86230469,8.84765625 C10.0172534,8.7063795 10.1710604,8.558269 10.3237305,8.40332031 C10.4764005,8.24837162 10.6119786,8.08203214 10.7304688,7.90429688 C10.8489589,7.72656161 10.9446611,7.53287865 11.0175781,7.32324219 C11.0904952,7.11360572 11.1269531,6.88346479 11.1269531,6.6328125 C11.1269531,6.36393095 11.0813807,6.1223969 10.9902344,5.90820312 C10.8990881,5.69400935 10.7714852,5.5117195 10.6074219,5.36132812 C10.4433586,5.21093675 10.247397,5.0970056 10.0195312,5.01953125 C9.79166553,4.9420569 9.53873837,4.90332031 9.26074219,4.90332031 C8.80045343,4.90332031 8.37435092,4.98421143 7.98242188,5.14599609 C7.59049283,5.30778076 7.22363452,5.52766788 6.88183594,5.80566406 L6.88183594,5.01953125 C7.22819184,4.75520701 7.59505015,4.55810612 7.98242188,4.42822266 C8.3697936,4.29833919 8.79817474,4.23339844 9.26757812,4.23339844 C9.63216328,4.23339844 9.97167812,4.28580677 10.2861328,4.390625 C10.6005875,4.49544323 10.8717437,4.64697167 11.0996094,4.84521484 C11.3274751,5.04345802 11.506347,5.28727069 11.6362305,5.57666016 C11.7661139,5.86604962 11.8310547,6.19531065 11.8310547,6.56445312 C11.8310547,6.84244931 11.7923181,7.09765509 11.7148438,7.33007812 C11.6373694,7.56250116 11.5359707,7.77669173 11.4106445,7.97265625 C11.2853184,8.16862077 11.1406258,8.35318924 10.9765625,8.52636719 C10.8124992,8.69954514 10.6484383,8.86588462 10.484375,9.02539062 C10.2200508,9.27148561 10.0058602,9.47997961 9.84179688,9.65087891 C9.67773355,9.8217782 9.54899135,9.97558525 9.45556641,10.1123047 C9.36214146,10.2490241 9.2972007,10.3834629 9.26074219,10.515625 C9.22428367,10.6477871 9.20605469,10.8004549 9.20605469,10.9736328 C9.20605469,11.2014985 9.22542298,11.4077139 9.26416016,11.5922852 C9.30289733,11.7768564 9.34277323,11.9329421 9.38378906,12.0605469 L8.78222656,12.0605469 Z M9.04199219,15.1298828 C8.87337155,15.1298828 8.73437555,15.0729172 8.625,14.9589844 C8.51562445,14.8450515 8.4609375,14.7037769 8.4609375,14.5351562 C8.4609375,14.3619783 8.51562445,14.2207037 8.625,14.1113281 C8.73437555,14.0019526 8.87337155,13.9472656 9.04199219,13.9472656 C9.21517014,13.9472656 9.3598627,14.0019526 9.47607422,14.1113281 C9.59228574,14.2207037 9.65039062,14.3619783 9.65039062,14.5351562 C9.65039062,14.7037769 9.59228574,14.8450515 9.47607422,14.9589844 C9.3598627,15.0729172 9.21517014,15.1298828 9.04199219,15.1298828 Z" id="Combined-Shape"></path>
            </g>
        </g>
    </g>
</svg>