<?xml version="1.0" encoding="UTF-8" standalone="no"?>
<svg width="24px" height="24px" viewBox="0 0 24 24" version="1.1" xmlns="http://www.w3.org/2000/svg" xmlns:xlink="http://www.w3.org/1999/xlink">
    <!-- Generator: Sketch 45.2 (43514) - http://www.bohemiancoding.com/sketch -->
    <title>icon_download from cloud_downloading</title>
    <desc>Created with Sketch.</desc>
    <defs>
        <path d="M4.1839602,12.9875641 C4.25484627,12.9957778 4.32694907,13 4.40003801,13 L14.853311,13 C14.8814444,13 14.9094316,12.9993744 14.9372596,12.9981365 C14.9832497,12.9993759 15.0294116,13 15.0757355,13 C17.5835966,13 19.6166197,11.1707634 19.6166197,8.91428571 C19.6166197,6.81510694 17.857161,5.08567954 15.5927538,4.85476389 C15.304949,2.12953673 12.8250188,0 9.80830987,0 C6.79160089,0 4.31167072,2.12953673 4.02386591,4.85476389 C1.7594587,5.08567954 0,6.81510694 0,8.91428571 C0,11.062683 1.84293246,12.8237869 4.1839602,12.9875641 Z" id="path-1"></path>
    </defs>
    <g id="YCH-WORKS" stroke="none" stroke-width="1" fill="none" fill-rule="evenodd">
        <g id="Studio_USER-ID" transform="translate(-3497.000000, -249.000000)">
            <g id="Blocky-3.0" transform="translate(2113.000000, 19.000000)">
                <g id="New-Profile_Main" transform="translate(1127.000000, 220.000000)">
                    <g id="My-projects" transform="translate(11.000000, 0.000000)">
                        <g id="icon_download-from-cloud_downloading" transform="translate(246.000000, 10.000000)">
                            <g transform="translate(2.000000, 5.000000)" id="Combined-Shape">
                                <g>
                                    <use fill="#ECECEC" fill-rule="evenodd" xlink:href="#path-1"></use>
                                    <path stroke="#C0C0C0" stroke-width="1.5" d="M4.23630194,12.2393928 L4.27028656,12.2425489 C4.31299986,12.2474981 4.35628158,12.25 4.40003801,12.25 L14.853311,12.25 C14.8787619,12.2498109 14.8787619,12.2498109 14.9574646,12.2484087 C15.0164352,12.2497333 15.0164352,12.2497333 15.0757355,12.25 C17.1860105,12.25 18.8666197,10.7378519 18.8666197,8.91428571 C18.8666197,7.23297995 17.4311634,5.7961275 15.5166663,5.60089436 L14.9108559,5.53911612 L14.8469015,4.93353159 C14.5985382,2.58177609 12.4310366,0.75 9.80830987,0.75 C7.18558319,0.75 5.01808156,2.58177609 4.7697182,4.93353159 L4.70576385,5.53911612 L4.09995346,5.60089436 C2.18545638,5.7961275 0.75,7.23297995 0.75,8.91428571 C0.75,10.6395826 2.25975642,12.1011146 4.23630194,12.2393928 Z"></path>
                                </g>
                                <path d="M8.62226716,10.0429059 C7.67416241,9.57128402 7.02491538,8.61018374 7.02491538,7.50123468 C7.02491538,6.37254254 7.69748583,5.39701046 8.67318786,4.93484134 L8.67318786,6.16627661 C8.30681954,6.49942754 8.07773718,6.97424739 8.07773718,7.50123468 C8.07773718,8.02413001 8.3032758,8.49566491 8.66467841,8.82840661 L8.68789788,8.16348778 L10.3930197,9.44111105 L8.60292898,10.5966788 L8.62226716,10.0429059 Z M11.1511036,4.90062828 C12.1671285,5.34755926 12.8742945,6.34387783 12.8742945,7.50123468 C12.8742945,8.66068139 12.1645723,9.65850773 11.1455966,10.1042568 L11.1455966,8.90525968 C11.5585591,8.57048491 11.8214727,8.06579559 11.8214727,7.50123468 C11.8214727,6.93918739 11.5608951,6.43647973 11.1511036,6.10169137 L11.1511036,6.87304738 L9.31634972,5.54552218 L11.1511036,4.21799697 L11.1511036,4.90062763 Z" fill="#B3B3B3" transform="translate(9.949605, 7.408050) rotate(-212.000000) translate(-9.949605, -7.408050) "></path>
                            </g>
                        </g>
                    </g>
                </g>
            </g>
        </g>
    </g>
</svg>