<?xml version="1.0" encoding="UTF-8" standalone="no"?>
<svg width="28px" height="28px" viewBox="0 0 28 28" version="1.1" xmlns="http://www.w3.org/2000/svg" xmlns:xlink="http://www.w3.org/1999/xlink">
    <!-- Generator: Sketch 45.2 (43514) - http://www.bohemiancoding.com/sketch -->
    <title>icon_save</title>
    <desc>Created with Sketch.</desc>
    <defs></defs>
    <g id="YCH-WORKS" stroke="none" stroke-width="1" fill="none" fill-rule="evenodd">
        <g id="Studio_USER-ID" transform="translate(-2844.000000, -54.000000)" fill="#FFFFFF">
            <g id="btn_Topright" transform="translate(2739.000000, 53.972534)">
                <g id="icon_save" transform="translate(111.000000, 5.998752)">
                    <path d="M15.4545455,1.54352514 L15.4545455,15.4352514 L1.54545455,15.4352514 L1.54545455,1.54352514 L15.4545455,1.54352514 Z M0,0 L0,0.77176257 L0,16.207014 L0,16.9787765 L0.772727273,16.9787765 L16.2272727,16.9787765 L17,16.9787765 L17,16.207014 L17,0.77176257 L17,0 L16.2272727,0 L0.772727273,0 L0,0 Z" id="Rectangle-28" fill-rule="nonzero"></path>
                    <path d="M12.4285714,1.5900003 L12.4285714,7.95000149 L4.57142857,7.95000149 L4.57142857,1.5900003 L12.4285714,1.5900003 Z M3,0 L3,0.795000149 L3,8.74500164 L3,9.54000178 L3.78571429,9.54000178 L13.2142857,9.54000178 L14,9.54000178 L14,8.74500164 L14,0.795000149 L14,0 L13.2142857,0 L3.78571429,0 L3,0 Z" id="Rectangle-28-Copy" fill-rule="nonzero"></path>
                    <rect id="Rectangle-29" x="9.81285121" y="3.18000059" width="1" height="3.18000059"></rect>
                </g>
            </g>
        </g>
    </g>
</svg>