<?xml version="1.0" encoding="UTF-8" standalone="no"?>
<svg width="24px" height="24px" viewBox="0 0 24 24" version="1.1" xmlns="http://www.w3.org/2000/svg" xmlns:xlink="http://www.w3.org/1999/xlink">
    <!-- Generator: Sketch 45.2 (43514) - http://www.bohemiancoding.com/sketch -->
    <title>icon_import_unselected</title>
    <desc>Created with Sketch.</desc>
    <defs></defs>
    <g id="YCH-WORKS" stroke="none" stroke-width="1" fill="none" fill-rule="evenodd">
        <g id="Studio_USER-ID" transform="translate(-3466.000000, -632.000000)">
            <g id="New-Profile_Main" transform="translate(3241.000000, 239.000000)">
                <g id="Project-buttons" transform="translate(12.000000, 386.000000)">
                    <g id="Btn_Import" transform="translate(149.000000, 0.000000)">
                        <g id="icon_import_unselected" transform="translate(64.000000, 7.000000)">
                            <g transform="translate(4.319329, 5.030305)">
                                <polygon id="Path-6" fill="#D8D8D8" points="1.90813645 4.30268495 14.73478 4.30268495 13.7086485 11.9979068 0.882004962 11.9979068"></polygon>
                                <path d="M1.69881503,3.63005051 L15.9703356,3.63005051 L14.2715206,12.4900513 L0,12.4900513 L1.69881503,3.63005051 Z M2.81414374,4.63219511 L1.47235442,11.5196392 L13.3585825,11.5196392 L14.7130302,4.63219511 L2.81414374,4.63219511 Z" id="Combined-Shape" fill="#C7C7C7"></path>
                                <polygon id="Combined-Shape" fill="#C7C7C7" points="13.3442702 3.56614117 12.1518132 3.56614117 12.1518132 2.44790676 3.3109439 2.44790676 3.3109439 1.17178613 1.20957726 1.17178613 1.20957726 11.3142774 1.21427746 11.3142774 1.21427746 12.487885 13.3442702 12.4878921 0 12.4878921 0 0 4.53763511 0 4.53763511 1.45714002 13.3442702 1.45714002 13.3442702 3.56614117"></polygon>
                            </g>
                        </g>
                    </g>
                </g>
            </g>
        </g>
    </g>
</svg>