<?xml version="1.0" encoding="UTF-8" standalone="no"?>
<svg width="28px" height="28px" viewBox="0 0 28 28" version="1.1" xmlns="http://www.w3.org/2000/svg" xmlns:xlink="http://www.w3.org/1999/xlink">
    <!-- Generator: Sketch 45.2 (43514) - http://www.bohemiancoding.com/sketch -->
    <title>icon_newproject</title>
    <desc>Created with Sketch.</desc>
    <defs></defs>
    <g id="YCH-WORKS" stroke="none" stroke-width="1" fill="none" fill-rule="evenodd">
        <g id="切图专用" transform="translate(-438.000000, -133.000000)" fill="#FFFFFF">
            <g id="btn_Topright" transform="translate(438.000000, 133.000000)">
                <g id="icon_new-Project">
                    <g id="icon_newproject" transform="translate(4.000000, 5.000000)">
                        <path d="M17.0907297,12.6276018 L20.4178059,12.6276018 L20.4178059,14.3632226 L17.0907297,14.3632226 L17.0907297,17.6905259 L15.3551088,17.6905259 L15.3551088,14.3632226 L12.0278055,14.3632226 L12.0278055,12.6276018 L15.3551088,12.6276018 L15.3551088,9.30029849 L17.0907297,9.30029849 L17.0907297,12.6276018 Z M13.8819372,16.0153938 L13.8819372,17.681297 L12.8443956,17.681297 L0.881937175,17.681297 L0.881937175,0.310006611 L11.2608609,0.310006611 L17.0883385,5.20860019 L17.0883385,7.44695915 L17.0883385,8.01213576 L15.3796599,8.01213576 L15.3796599,6.97903366 L10.5902761,6.97903366 L10.5902761,2.01539377 L2.58896708,2.01539377 L2.58896708,11.0235852 L2.58896708,16.0153938 L13.8819372,16.0153938 Z M12.1803273,5.4647109 L14.4530096,5.4647109 L12.1803273,3.48098978 L12.1803273,5.4647109 Z"></path>
                    </g>
                </g>
            </g>
        </g>
    </g>
</svg>