<?xml version="1.0" encoding="UTF-8" standalone="no"?>
<svg width="24px" height="24px" viewBox="0 0 24 24" version="1.1" xmlns="http://www.w3.org/2000/svg" xmlns:xlink="http://www.w3.org/1999/xlink">
    <!-- Generator: Sketch 45.2 (43514) - http://www.bohemiancoding.com/sketch -->
    <title>icon_Feedback</title>
    <desc>Created with Sketch.</desc>
    <defs></defs>
    <g id="YCH-WORKS" stroke="none" stroke-width="1" fill="none" fill-rule="evenodd">
        <g id="切图专用" transform="translate(-241.000000, -152.000000)" stroke="#FFFFFF">
            <g id="popout_Ueser-center" transform="translate(241.000000, 84.000000)">
                <g id="icon_feedback" transform="translate(4.657503, 72.403752)">
                    <path d="M7.40657217,14.5945127 C3.43678224,14.5945127 0.218631651,11.3763621 0.218631651,7.40657217 C0.218631651,3.43678224 3.43678224,0.218631651 7.40657217,0.218631651 C11.3763621,0.218631651 14.5945127,3.43678224 14.5945127,7.40657217 C14.5945127,11.3763621 11.3763621,14.5945127 7.40657217,14.5945127 Z M7.39558996,14.4197564 C11.2551079,14.4197564 14.3838655,11.2909989 14.3838655,7.4314809 C14.3838655,3.57196292 11.2551079,0.443205404 7.39558996,0.443205404 C3.53607197,0.443205404 0.407314459,3.57196292 0.407314459,7.4314809 C0.407314459,11.2909989 3.53607197,14.4197564 7.39558996,14.4197564 Z M7.23177853,8.97568113 C7.20055747,8.89904763 7.17359424,8.79899984 7.15088802,8.67553476 C7.12818179,8.55206968 7.11682885,8.42789689 7.11682885,8.30301267 C7.11682885,8.16109878 7.13598694,8.03124952 7.17430369,7.913461 C7.21262044,7.79567247 7.26654691,7.68427174 7.33608471,7.57925547 C7.40562252,7.47423919 7.48864089,7.37277228 7.58514234,7.2748517 C7.68164378,7.17693112 7.7880776,7.07688333 7.90444699,6.97470533 C8.00094843,6.88671872 8.09673886,6.79447608 8.19182117,6.69797464 C8.28690347,6.60147319 8.37134097,6.49787761 8.44513619,6.38718478 C8.51893141,6.27649195 8.57853435,6.15586695 8.62394679,6.02530618 C8.66935924,5.8947454 8.69206512,5.75141453 8.69206512,5.59530925 C8.69206512,5.42785087 8.66368277,5.2774244 8.60691721,5.14402535 C8.55015166,5.0106263 8.47068107,4.89709689 8.36850307,4.80343373 C8.26632508,4.70977056 8.14428096,4.63881468 8.00236708,4.59056396 C7.86045319,4.54231324 7.70293114,4.51818824 7.5297962,4.51818824 C7.24313015,4.51818824 6.97775516,4.56856691 6.73366328,4.66932577 C6.48957139,4.77008463 6.26109346,4.90702948 6.04822263,5.08016442 L6.04822263,4.59056396 C6.26393174,4.42594385 6.49240967,4.30319018 6.73366328,4.22229927 C6.97491688,4.14140835 7.24171099,4.1009635 7.53405359,4.1009635 C7.76111581,4.1009635 7.97256433,4.1336032 8.16840549,4.19888359 C8.36424666,4.26416398 8.53312165,4.3585353 8.67503554,4.48200038 C8.81694942,4.60546546 8.92835015,4.75731104 9.00924107,4.93754168 C9.09013198,5.11777231 9.13057683,5.3228348 9.13057683,5.5527353 C9.13057683,5.72587024 9.10645183,5.88481141 9.05820111,6.02956357 C9.00995039,6.17431574 8.94679966,6.30771279 8.86874702,6.42975873 C8.79069438,6.55180468 8.70058042,6.6667532 8.59840242,6.77460775 C8.49622442,6.88246231 8.39404796,6.98605789 8.29186996,7.08539761 C8.12724985,7.23866461 7.9938528,7.36851387 7.8916748,7.47494928 C7.7894968,7.5813847 7.70931666,7.67717513 7.65113196,7.76232346 C7.59294727,7.8474718 7.55250242,7.93119973 7.5297962,8.01350979 C7.50708998,8.09581984 7.49573704,8.19090072 7.49573704,8.29875527 C7.49573704,8.44066916 7.50779954,8.5690993 7.5319249,8.68404955 C7.55605026,8.7989998 7.58088481,8.89620935 7.60642931,8.97568113 L7.23177853,8.97568113 Z M7.58788026,11.1288602 C7.48286398,11.1288602 7.39629781,11.0933823 7.32817914,11.0224253 C7.26006048,10.9514684 7.22600166,10.8634831 7.22600166,10.7584668 C7.22600166,10.6506123 7.26006048,10.562627 7.32817914,10.4945083 C7.39629781,10.4263897 7.48286398,10.3923308 7.58788026,10.3923308 C7.69573481,10.3923308 7.78584878,10.4263897 7.85822486,10.4945083 C7.93060094,10.562627 7.96678844,10.6506123 7.96678844,10.7584668 C7.96678844,10.8634831 7.93060094,10.9514684 7.85822486,11.0224253 C7.78584878,11.0933823 7.69573481,11.1288602 7.58788026,11.1288602 Z" id="Combined-Shape"></path>
                </g>
            </g>
        </g>
    </g>
</svg>