<?xml version="1.0" encoding="UTF-8" standalone="no"?>
<svg width="97px" height="11px" viewBox="0 0 97 11" version="1.1" xmlns="http://www.w3.org/2000/svg" xmlns:xlink="http://www.w3.org/1999/xlink">
    <!-- Generator: Sketch 41.2 (35397) - http://www.bohemiancoding.com/sketch -->
    <title>My Projects</title>
    <desc>Created with Sketch.</desc>
    <defs></defs>
    <g id="YCH-WORKS" stroke="none" stroke-width="1" fill="none" fill-rule="evenodd">
        <g id="REDESIGN_Blocky-" transform="translate(-1261.000000, -73.000000)" fill="#D95E2E">
            <g id="very1st#FDFDFD-Right-pullout_Control-Panel_Redesign" transform="translate(1212.000000, 48.000000)">
                <g id="my-projects&amp;-missions" transform="translate(12.000000, 25.000000)">
                    <g id="My-Projects">
                        <path d="M38.31,0.5 L37.064,0.5 L37.064,11 L39.836,11 L39.836,5.624 L42.594,8.116 L45.338,5.61 L45.338,11 L48.11,11 L48.11,0.5 L46.864,0.5 L42.594,4.392 L38.31,0.5 Z M58.702,0.5 L55.524,0.5 L53.494,4 L51.478,0.5 L48.3,0.5 L52.136,7.136 L52.136,11 L54.866,11 L54.866,7.136 L58.702,0.5 Z M66.95,2.824 L68.658,2.824 C69.498,2.824 70.17,3.496 70.17,4.336 C70.17,5.176 69.498,5.834 68.658,5.834 L66.95,5.834 L66.95,2.824 Z M64.192,11 L66.95,11 L66.95,8.214 L68.672,8.214 C70.758,8.214 72.48,6.478 72.48,4.364 C72.48,2.236 70.744,0.5 68.616,0.5 L64.192,0.5 L64.192,11 Z M82.232,11 L80.006,7.192 C80.762,6.492 81.252,5.484 81.252,4.364 C81.252,2.236 79.516,0.5 77.388,0.5 L72.964,0.5 L72.964,11 L75.722,11 L75.722,8.214 L77.43,8.214 L79.054,11 L82.232,11 Z M75.722,2.824 L77.43,2.824 C78.27,2.824 78.942,3.496 78.942,4.336 C78.942,5.176 78.27,5.834 77.43,5.834 L75.722,5.834 L75.722,2.824 Z M82.1,5.764 C82.1,8.662 84.438,11 87.336,11 C90.234,11 92.586,8.662 92.586,5.764 C92.586,2.866 90.234,0.5 87.336,0.5 C84.438,0.5 82.1,2.866 82.1,5.764 Z M89.842,5.75 C89.842,7.122 88.722,8.256 87.336,8.256 C85.964,8.256 84.844,7.122 84.844,5.75 C84.844,4.364 85.964,3.244 87.336,3.244 C88.722,3.244 89.842,4.364 89.842,5.75 Z M99.79,0.5 L97.032,0.5 L97.032,7.01 C97.032,7.78 96.5,8.228 95.786,8.228 C95.24,8.228 94.918,8.088 94.708,7.878 C93.714,8.9 93.042,9.572 92.706,9.908 C93.672,10.832 95.338,11 95.688,11 C97.732,11 99.748,9.838 99.79,7.416 L99.79,0.5 Z M100.904,11 L107.428,11 L107.428,8.746 L103.662,8.746 L103.662,6.814 L106.994,6.814 L106.994,4.49 L103.662,4.49 L103.662,2.782 L107.428,2.782 L107.428,0.5 L100.904,0.5 L100.904,11 Z M117.096,2.026 C116.144,1.074 114.842,0.5 113.4,0.5 C110.502,0.5 108.15,2.852 108.15,5.75 C108.15,8.648 110.502,11 113.4,11 C114.856,11 116.172,10.398 117.124,9.446 L115.164,7.514 C114.73,7.962 114.114,8.214 113.4,8.214 C111.972,8.214 110.936,7.178 110.936,5.75 C110.936,4.322 111.972,3.286 113.4,3.286 C114.114,3.286 114.73,3.538 115.164,3.972 L117.096,2.026 Z M117.86,3.23 L120.59,3.23 L120.59,11 L123.348,11 L123.348,3.23 L126.134,3.23 L126.134,0.486 L117.86,0.486 L117.86,3.23 Z M133.338,3.72 C133.338,1.928 131.896,0.5 130.104,0.5 C128.312,0.5 126.884,1.942 126.884,3.734 C126.884,5.526 128.312,6.954 130.104,6.954 C130.538,6.954 130.902,7.318 130.902,7.752 C130.902,8.186 130.538,8.536 130.104,8.536 C129.67,8.536 129.32,8.186 129.32,7.738 L126.87,7.738 C126.87,9.586 128.312,11 130.104,11 C131.896,11 133.338,9.572 133.338,7.78 C133.338,7.01 133.086,6.31 132.638,5.75 C132.05,4.994 131.126,4.504 130.104,4.504 C129.67,4.504 129.32,4.154 129.32,3.72 C129.32,3.286 129.67,2.922 130.104,2.922 C130.538,2.922 130.902,3.286 130.902,3.72 L133.338,3.72 Z"></path>
                    </g>
                </g>
            </g>
        </g>
    </g>
</svg>