<?xml version="1.0" encoding="UTF-8" standalone="no"?>
<svg width="72px" height="14px" viewBox="0 0 72 14" version="1.1" xmlns="http://www.w3.org/2000/svg" xmlns:xlink="http://www.w3.org/1999/xlink">
    <!-- Generator: Sketch 41.2 (35397) - http://www.bohemiancoding.com/sketch -->
    <title>BLOCKLY</title>
    <desc>Created with Sketch.</desc>
    <defs></defs>
    <g id="YCH-WORKS" stroke="none" stroke-width="1" fill="none" fill-rule="evenodd">
        <g id="REDESIGN_Blocky-" transform="translate(-243.000000, -72.000000)">
            <g id="Blocky(Selected_left-navi)" transform="translate(35.000000, 48.000000)">
                <g id="Mid_interface" transform="translate(128.000000, 0.000000)">
                    <g id="Top-Navi">
                        <g id="TOP_LEFT" transform="translate(22.000000, 20.000000)"></g>
                        <path d="M80.3476562,37 L80.3476562,24.8984375 L84.6445312,24.8984375 C85.9622462,24.8984375 86.977861,25.148435 87.6914062,25.6484375 C88.4049515,26.14844 88.7617188,26.8411414 88.7617188,27.7265625 C88.7617188,28.3828158 88.5403668,28.9583309 88.0976562,29.453125 C87.6549457,29.9479191 87.0976596,30.2890616 86.4257812,30.4765625 L86.4257812,30.5078125 C87.2695355,30.6119797 87.9505182,30.9244766 88.46875,31.4453125 C88.9869818,31.9661484 89.2460938,32.6197877 89.2460938,33.40625 C89.2460938,34.5052138 88.8554727,35.378903 88.0742188,36.0273438 C87.2929648,36.6757845 86.2252672,37 84.8710938,37 L80.3476562,37 Z M82.9257812,26.8203125 L82.9257812,29.8125 L84.1523438,29.8125 C84.7408884,29.8125 85.2044254,29.6718764 85.5429688,29.390625 C85.8815121,29.1093736 86.0507812,28.7161484 86.0507812,28.2109375 C86.0507812,27.2838495 85.3737047,26.8203125 84.0195312,26.8203125 L82.9257812,26.8203125 Z M82.9257812,31.7578125 L82.9257812,35.078125 L84.4570312,35.078125 C85.1080762,35.078125 85.6171857,34.9270848 85.984375,34.625 C86.3515643,34.3229152 86.5351562,33.9036485 86.5351562,33.3671875 C86.5351562,32.8567683 86.3528664,32.4609389 85.9882812,32.1796875 C85.6236961,31.8984361 85.1054721,31.7578125 84.4335938,31.7578125 L82.9257812,31.7578125 Z M98.3867188,37 L91.2851562,37 L91.2851562,24.8984375 L93.8632812,24.8984375 L93.8632812,34.890625 L98.3867188,34.890625 L98.3867188,37 Z M98.8320312,31.109375 C98.8320312,29.2135322 99.3854111,27.6705789 100.492188,26.4804688 C101.598964,25.2903586 103.061189,24.6953125 104.878906,24.6953125 C106.608082,24.6953125 107.999995,25.2708276 109.054688,26.421875 C110.10938,27.5729224 110.636719,29.0520743 110.636719,30.859375 C110.636719,32.7448011 110.088547,34.2747337 108.992188,35.4492188 C107.895828,36.6237038 106.459644,37.2109375 104.683594,37.2109375 C102.94921,37.2109375 101.54037,36.6419328 100.457031,35.5039062 C99.3736925,34.3658797 98.8320312,32.9010506 98.8320312,31.109375 Z M101.542969,30.96875 C101.542969,32.1458392 101.82682,33.1080692 102.394531,33.8554688 C102.962242,34.6028683 103.74088,34.9765625 104.730469,34.9765625 C105.74089,34.9765625 106.527341,34.6184932 107.089844,33.9023438 C107.652347,33.1861943 107.933594,32.2239644 107.933594,31.015625 C107.933594,29.755202 107.660159,28.7591182 107.113281,28.0273438 C106.566404,27.2955693 105.795578,26.9296875 104.800781,26.9296875 C103.79036,26.9296875 102.994795,27.3046838 102.414062,28.0546875 C101.83333,28.8046913 101.542969,29.7760357 101.542969,30.96875 Z M121.316406,36.5625 C120.436194,36.9947938 119.287768,37.2109375 117.871094,37.2109375 C116.048168,37.2109375 114.601568,36.66537 113.53125,35.5742188 C112.460932,34.4830675 111.925781,33.0286549 111.925781,31.2109375 C111.925781,29.2994696 112.523432,27.7356832 113.71875,26.5195312 C114.914068,25.3033793 116.457022,24.6953125 118.347656,24.6953125 C119.529954,24.6953125 120.519527,24.8489568 121.316406,25.15625 L121.316406,27.6484375 C120.498694,27.1692684 119.57162,26.9296875 118.535156,26.9296875 C117.352859,26.9296875 116.407556,27.3072879 115.699219,28.0625 C114.990882,28.8177121 114.636719,29.8046814 114.636719,31.0234375 C114.636719,32.2109434 114.972653,33.166663 115.644531,33.890625 C116.31641,34.614587 117.225255,34.9765625 118.371094,34.9765625 C119.449224,34.9765625 120.430985,34.7161484 121.316406,34.1953125 L121.316406,36.5625 Z M133.324219,37 L130.058594,37 L126.394531,31.7109375 C126.300781,31.5755202 126.194011,31.3645848 126.074219,31.078125 L126.035156,31.078125 L126.035156,37 L123.457031,37 L123.457031,24.8984375 L126.035156,24.8984375 L126.035156,30.6171875 L126.074219,30.6171875 C126.188803,30.3671862 126.303385,30.1510426 126.417969,29.96875 L129.886719,24.8984375 L132.964844,24.8984375 L128.636719,30.671875 L133.324219,37 Z M141.644531,37 L134.542969,37 L134.542969,24.8984375 L137.121094,24.8984375 L137.121094,34.890625 L141.644531,34.890625 L141.644531,37 Z M151.066406,24.8984375 L147.113281,32.6796875 L147.113281,37 L144.535156,37 L144.535156,32.7265625 L140.691406,24.8984375 L143.636719,24.8984375 L145.667969,29.5234375 C145.709636,29.617188 145.805989,29.9348931 145.957031,30.4765625 L145.988281,30.4765625 C146.050782,30.1119773 146.136718,29.8020846 146.246094,29.546875 L148.332031,24.8984375 L151.066406,24.8984375 Z" id="BLOCKLY" fill="#FFFFFF"></path>
                    </g>
                </g>
            </g>
        </g>
    </g>
</svg>