<?xml version="1.0" encoding="UTF-8" standalone="no"?>
<svg width="14px" height="16px" viewBox="0 0 14 16" version="1.1" xmlns="http://www.w3.org/2000/svg" xmlns:xlink="http://www.w3.org/1999/xlink">
    <!-- Generator: Sketch 47.1 (45422) - http://www.bohemiancoding.com/sketch -->
    <title>btn_reset</title>
    <desc>Created with Sketch.</desc>
    <defs></defs>
    <g id="BLOCKLY" stroke="none" stroke-width="1" fill="none" fill-rule="evenodd">
        <g id="Studio_Backup" transform="translate(-10407.000000, -1227.000000)" fill="#FFBE53">
            <g id="Blocky-3.0" transform="translate(9587.000000, 1203.000000)">
                <g id="btn_reset" transform="translate(820.000000, 24.000000)">
                    <path d="M6.87183819,2.196522 L6.87183819,0.529932579 L2.87183819,3.02993258 L6.87183819,5.52993258 L6.87183819,3.82048762 C6.88180919,3.82043225 6.89178674,3.82040452 6.90177077,3.82040452 C9.81663287,3.82040452 12.1795955,6.18336713 12.1795955,9.09822923 C12.1795955,12.0130913 9.81663287,14.3760539 6.90177077,14.3760539 C3.98690867,14.3760539 1.62394606,12.0130913 1.62394606,9.09822923 C1.62394606,8.48984682 1.72688368,7.90550679 1.91629211,7.36167593 L0.289879285,7.11267641 L0.289879285,7.11267641 C0.101313195,7.74149085 0,8.40802856 0,9.09822923 C0,12.909972 3.09002803,16 6.90177077,16 C10.7135135,16 13.8035415,12.909972 13.8035415,9.09822923 C13.8035415,5.28648649 10.7135135,2.19645846 6.90177077,2.19645846 C6.89178828,2.19645846 6.88181074,2.19647965 6.87183819,2.196522 Z" transform="translate(6.901771, 8.264966) scale(-1, 1) translate(-6.901771, -8.264966) "></path>
                </g>
            </g>
        </g>
    </g>
</svg>