<?xml version="1.0" encoding="UTF-8" standalone="no"?>
<svg width="53px" height="14px" viewBox="0 0 53 14" version="1.1" xmlns="http://www.w3.org/2000/svg" xmlns:xlink="http://www.w3.org/1999/xlink">
    <!-- Generator: Sketch 43.2 (39069) - http://www.bohemiancoding.com/sketch -->
    <title>新手任务</title>
    <desc>Created with Sketch.</desc>
    <defs></defs>
    <g id="YCH-WORKS" stroke="none" stroke-width="1" fill="none" fill-rule="evenodd">
        <g id="REDESIGN_Blocky-" transform="translate(-1259.000000, -315.000000)" fill="#D95E2E">
            <g id="No1#FDFDFD-Right-pullout_Control-Panel_Redesign" transform="translate(1211.000000, 47.000000)">
                <g id="my-projects&amp;-missions" transform="translate(12.000000, 22.000000)">
                    <g id="Missions" transform="translate(15.000000, 243.000000)">
                        <path d="M33.516,3.702 L34.02,4.598 C32.788,5.074 31.43,5.368 29.918,5.452 L29.918,8 L34.44,8 L34.44,8.966 L32.984,8.966 L32.984,16.442 L31.99,16.442 L31.99,8.966 L29.918,8.966 L29.918,10.632 C29.848,13.04 29.316,14.958 28.308,16.386 L27.594,15.63 C28.42,14.426 28.868,12.76 28.938,10.632 L28.938,4.64 C30.632,4.612 32.158,4.29 33.516,3.702 Z M21.854,4.78 L24.528,4.78 C24.332,4.332 24.122,3.926 23.884,3.562 L24.92,3.394 C25.13,3.814 25.326,4.276 25.522,4.78 L28.168,4.78 L28.168,5.704 L21.854,5.704 L21.854,4.78 Z M21.714,7.958 L23.324,7.958 C23.114,7.398 22.862,6.866 22.582,6.376 L23.478,6.054 C23.744,6.572 23.996,7.202 24.22,7.958 L25.76,7.958 C26.04,7.342 26.278,6.698 26.488,6.026 L27.398,6.334 C27.174,6.936 26.936,7.482 26.67,7.958 L28.252,7.958 L28.252,8.868 L25.55,8.868 L25.55,10.436 L28.014,10.436 L28.014,11.36 L25.55,11.36 L25.55,15.322 C25.55,16.078 25.144,16.456 24.332,16.456 L23.576,16.456 L23.366,15.518 C23.59,15.56 23.8,15.588 23.996,15.588 C24.36,15.588 24.542,15.42 24.542,15.084 L24.542,11.36 L21.938,11.36 L21.938,10.436 L24.542,10.436 L24.542,8.868 L21.714,8.868 L21.714,7.958 Z M22.918,12.116 L23.842,12.312 C23.478,13.726 22.96,14.958 22.316,16.008 L21.476,15.476 C22.134,14.468 22.61,13.348 22.918,12.116 Z M26.936,12.018 C27.356,12.928 27.692,13.754 27.916,14.51 L27.076,14.832 C26.81,13.95 26.488,13.082 26.096,12.242 L26.936,12.018 Z M45.704,3.688 C43.03,4.332 39.67,4.668 35.61,4.668 L35.918,5.578 C37.654,5.578 39.264,5.508 40.748,5.396 L40.748,7.678 L35.89,7.678 L35.89,8.658 L40.748,8.658 L40.748,10.954 L34.728,10.954 L34.728,11.92 L40.748,11.92 L40.748,14.762 C40.748,15.154 40.524,15.364 40.104,15.364 C39.46,15.364 38.774,15.336 38.06,15.308 L38.284,16.288 L40.454,16.288 C41.322,16.288 41.77,15.854 41.77,15.014 L41.77,11.92 L47.286,11.92 L47.286,10.954 L41.77,10.954 L41.77,8.658 L46.236,8.658 L46.236,7.678 L41.77,7.678 L41.77,5.312 C43.45,5.144 44.92,4.878 46.194,4.542 L45.704,3.688 Z M59.292,4.024 L59.782,4.878 C58.774,5.214 57.598,5.466 56.254,5.62 L56.254,9.554 L60.356,9.554 L60.356,10.534 L56.254,10.534 L56.254,14.93 L59.656,14.93 L59.656,15.924 L51.872,15.924 L51.872,14.93 L55.246,14.93 L55.246,10.534 L51.172,10.534 L51.172,9.554 L55.246,9.554 L55.246,5.718 C54.294,5.788 53.286,5.83 52.222,5.83 L51.9,4.878 C54.868,4.878 57.332,4.584 59.292,4.024 Z M50.78,3.59 L51.718,4.024 C51.354,5.102 50.878,6.124 50.318,7.076 L50.318,16.428 L49.31,16.428 L49.31,8.574 C48.862,9.162 48.358,9.736 47.812,10.282 L47.49,9.204 C49.002,7.58 50.094,5.704 50.78,3.59 Z M64.816,3.52 L65.838,3.66 C65.684,4.038 65.502,4.388 65.306,4.724 L71.41,4.724 L71.41,5.536 C70.514,6.572 69.422,7.454 68.134,8.182 C69.716,8.854 71.48,9.288 73.426,9.484 L72.964,10.422 C70.752,10.17 68.778,9.61 67.042,8.742 C65.334,9.526 63.332,10.1 61.064,10.45 L60.602,9.498 C62.632,9.218 64.41,8.77 65.95,8.154 C65.166,7.692 64.438,7.16 63.766,6.572 C63.234,7.048 62.66,7.482 62.016,7.874 L61.4,7.062 C63.08,6.096 64.228,4.92 64.816,3.52 Z M67.028,7.664 C68.162,7.104 69.142,6.432 69.968,5.676 L64.62,5.676 L64.438,5.9 C65.222,6.586 66.09,7.174 67.028,7.664 Z M66.174,9.75 L67.168,9.75 C67.168,10.31 67.112,10.842 67.028,11.346 L71.956,11.346 C71.928,13.712 71.718,15.126 71.312,15.588 C70.906,16.05 70.206,16.288 69.212,16.288 C68.764,16.288 68.218,16.26 67.574,16.232 L67.322,15.322 L68.974,15.392 C69.814,15.378 70.332,15.196 70.556,14.86 C70.766,14.524 70.892,13.656 70.934,12.256 L66.79,12.256 C66.678,12.62 66.524,12.97 66.342,13.306 C65.628,14.566 63.99,15.616 61.414,16.428 L60.742,15.602 C63.038,14.93 64.564,14.076 65.292,13.054 C65.46,12.802 65.614,12.536 65.726,12.256 L61.554,12.256 L61.554,11.346 L66.006,11.346 C66.118,10.842 66.174,10.31 66.174,9.75 Z" id="新手任务"></path>
                    </g>
                </g>
            </g>
        </g>
    </g>
</svg>