<?xml version="1.0" encoding="UTF-8" standalone="no"?>
<svg width="62px" height="11px" viewBox="0 0 62 11" version="1.1" xmlns="http://www.w3.org/2000/svg" xmlns:xlink="http://www.w3.org/1999/xlink">
    <!-- Generator: Sketch 41.2 (35397) - http://www.bohemiancoding.com/sketch -->
    <title>Missions</title>
    <desc>Created with Sketch.</desc>
    <defs></defs>
    <g id="YCH-WORKS" stroke="none" stroke-width="1" fill="none" fill-rule="evenodd">
        <g id="REDESIGN_Blocky-" transform="translate(-1261.000000, -317.000000)" fill="#D95E2E">
            <g id="very1st#FDFDFD-Right-pullout_Control-Panel_Redesign" transform="translate(1212.000000, 48.000000)">
                <g id="my-projects&amp;-missions" transform="translate(12.000000, 25.000000)">
                    <g id="Missions" transform="translate(15.000000, 244.000000)">
                        <path d="M23.31,0.5 L22.064,0.5 L22.064,11 L24.836,11 L24.836,5.624 L27.594,8.116 L30.338,5.61 L30.338,11 L33.11,11 L33.11,0.5 L31.864,0.5 L27.594,4.392 L23.31,0.5 Z M34.21,11 L36.968,11 L36.968,0.5 L34.21,0.5 L34.21,11 Z M44.382,3.72 C44.382,1.928 42.94,0.5 41.148,0.5 C39.356,0.5 37.928,1.942 37.928,3.734 C37.928,5.526 39.356,6.954 41.148,6.954 C41.582,6.954 41.946,7.318 41.946,7.752 C41.946,8.186 41.582,8.536 41.148,8.536 C40.714,8.536 40.364,8.186 40.364,7.738 L37.914,7.738 C37.914,9.586 39.356,11 41.148,11 C42.94,11 44.382,9.572 44.382,7.78 C44.382,7.01 44.13,6.31 43.682,5.75 C43.094,4.994 42.17,4.504 41.148,4.504 C40.714,4.504 40.364,4.154 40.364,3.72 C40.364,3.286 40.714,2.922 41.148,2.922 C41.582,2.922 41.946,3.286 41.946,3.72 L44.382,3.72 Z M51.642,3.72 C51.642,1.928 50.2,0.5 48.408,0.5 C46.616,0.5 45.188,1.942 45.188,3.734 C45.188,5.526 46.616,6.954 48.408,6.954 C48.842,6.954 49.206,7.318 49.206,7.752 C49.206,8.186 48.842,8.536 48.408,8.536 C47.974,8.536 47.624,8.186 47.624,7.738 L45.174,7.738 C45.174,9.586 46.616,11 48.408,11 C50.2,11 51.642,9.572 51.642,7.78 C51.642,7.01 51.39,6.31 50.942,5.75 C50.354,4.994 49.43,4.504 48.408,4.504 C47.974,4.504 47.624,4.154 47.624,3.72 C47.624,3.286 47.974,2.922 48.408,2.922 C48.842,2.922 49.206,3.286 49.206,3.72 L51.642,3.72 Z M52.588,11 L55.346,11 L55.346,0.5 L52.588,0.5 L52.588,11 Z M56.25,5.764 C56.25,8.662 58.588,11 61.486,11 C64.384,11 66.736,8.662 66.736,5.764 C66.736,2.866 64.384,0.5 61.486,0.5 C58.588,0.5 56.25,2.866 56.25,5.764 Z M63.992,5.75 C63.992,7.122 62.872,8.256 61.486,8.256 C60.114,8.256 58.994,7.122 58.994,5.75 C58.994,4.364 60.114,3.244 61.486,3.244 C62.872,3.244 63.992,4.364 63.992,5.75 Z M76.502,11 L76.502,0.5 L73.744,0.5 L73.744,5.456 L68.774,0.5 L67.654,0.5 L67.654,11 L70.412,11 L70.412,6.03 L75.368,11 L76.502,11 Z M83.916,3.72 C83.916,1.928 82.474,0.5 80.682,0.5 C78.89,0.5 77.462,1.942 77.462,3.734 C77.462,5.526 78.89,6.954 80.682,6.954 C81.116,6.954 81.48,7.318 81.48,7.752 C81.48,8.186 81.116,8.536 80.682,8.536 C80.248,8.536 79.898,8.186 79.898,7.738 L77.448,7.738 C77.448,9.586 78.89,11 80.682,11 C82.474,11 83.916,9.572 83.916,7.78 C83.916,7.01 83.664,6.31 83.216,5.75 C82.628,4.994 81.704,4.504 80.682,4.504 C80.248,4.504 79.898,4.154 79.898,3.72 C79.898,3.286 80.248,2.922 80.682,2.922 C81.116,2.922 81.48,3.286 81.48,3.72 L83.916,3.72 Z"></path>
                    </g>
                </g>
            </g>
        </g>
    </g>
</svg>