<?xml version="1.0" encoding="UTF-8" standalone="no"?>
<svg width="14px" height="15px" viewBox="0 0 14 15" version="1.1" xmlns="http://www.w3.org/2000/svg" xmlns:xlink="http://www.w3.org/1999/xlink">
    <!-- Generator: Sketch 44 (41411) - http://www.bohemiancoding.com/sketch -->
    <title>icon_facebook group</title>
    <desc>Created with Sketch.</desc>
    <defs></defs>
    <g id="YCH-WORKS" stroke="none" stroke-width="1" fill="none" fill-rule="evenodd">
        <g id="Studio_USER-ID" transform="translate(-2945.000000, -1882.000000)" fill-rule="nonzero" fill="#D95E2E">
            <g id="Profile_Main" transform="translate(2906.000000, 1125.000000)">
                <g id="popout_groups" transform="translate(27.000000, 706.000000)">
                    <g id="icon_facebook-group" transform="translate(12.000000, 51.000000)">
                        <g id="Shape_fb">
                            <path d="M9.70777181,8.60291474 C10.2409695,8.60291474 10.770529,8.59707313 11.2997192,8.60656713 C11.4581233,8.60877207 11.5361749,8.55912386 11.5559062,8.40128399 C11.6318174,7.80239522 11.7128456,7.20422938 11.7894985,6.60569422 C11.7945999,6.56336963 11.7799715,6.51885581 11.7708625,6.44548753 L9.7201654,6.44548753 C9.7201654,5.84038625 9.68553376,5.26412372 9.73258885,4.6944273 C9.76398615,4.3082883 10.1070603,4.11633071 10.6325965,4.10282758 C11.0427935,4.09188457 11.4537165,4.10063835 11.8851237,4.10063835 L11.8851237,2.14192815 C11.5493574,2.11711269 11.2070235,2.06455231 10.8657849,2.07258316 C10.3471998,2.08462156 9.81181446,2.06783537 9.31469738,2.18974075 C8.20855317,2.46089409 7.50745581,3.41524749 7.48228674,4.57654363 C7.46878517,5.18090469 7.4797439,5.78525003 7.4797439,6.42467806 C7.36989264,6.43124418 7.27426745,6.44144697 7.17865798,6.44183358 C6.74802246,6.44365191 6.31698461,6.4480288 5.88634908,6.43998224 C5.71737133,6.43669918 5.63051721,6.48232255 5.63233554,6.66771559 C5.63780783,7.23594729 5.63743693,7.80419627 5.63268915,8.37241067 C5.63087081,8.55252474 5.70861598,8.60799728 5.8823258,8.6050694 C6.4027449,8.59703856 6.92317972,8.60215724 7.45967622,8.60215724 L7.45967622,13.9998381 L0,13.9998381 L0,0 L14,0 L14,14.0019959 C13.9273719,14.0078375 13.8485644,14.0195208 13.7700931,14.0202296 C12.4960163,14.0209855 11.2223433,14.0188135 9.94862168,14.0238992 C9.77492915,14.0246394 9.67566572,13.9998554 9.67640594,13.7910645 C9.68187823,12.1049724 9.67967329,10.4189117 9.68078283,8.73207931 C9.68079855,8.697784 9.69463957,8.66348868 9.70777181,8.60291474 Z"></path>
                        </g>
                    </g>
                </g>
            </g>
        </g>
    </g>
</svg>