<?xml version="1.0" encoding="UTF-8" standalone="no"?>
<svg width="40px" height="40px" viewBox="0 0 40 40" version="1.1" xmlns="http://www.w3.org/2000/svg" xmlns:xlink="http://www.w3.org/1999/xlink">
    <!-- Generator: Sketch 40.3 (33839) - http://www.bohemiancoding.com/sketch -->
    <title>icon_control</title>
    <desc>Created with Sketch.</desc>
    <defs>
        <radialGradient cx="50%" cy="0%" fx="50%" fy="0%" r="100%" id="radialGradient-1">
            <stop stop-color="#C76E6E" offset="0%"></stop>
            <stop stop-color="#9C4343" offset="100%"></stop>
        </radialGradient>
    </defs>
    <g id="Page-1" stroke="none" stroke-width="1" fill="none" fill-rule="evenodd">
        <g id="us首页" transform="translate(-303.000000, -499.000000)">
            <g id="Group" transform="translate(63.000000, 56.000000)">
                <g id="Group-3-Copy-2" transform="translate(125.000000, 443.000000)">
                    <g id="Group-21" transform="translate(115.000000, 0.000000)">
                        <rect id="Rectangle-10" x="0" y="0" width="40" height="40"></rect>
                        <path d="M36,28 C36,22.8811967 28.5493924,19 19.5,19 C10.4506076,19 3,22.8811967 3,28 C3,33.1188033 10.4506076,37 19.5,37 C28.5493924,37 36,33.1188033 36,28 Z M4.73684211,27.1428571 C4.73684211,23.2673088 11.2832271,19.8571429 19.5,19.8571429 C27.7167729,19.8571429 34.2631579,23.2673088 34.2631579,27.1428571 C34.2631579,31.0184055 27.7167729,34.4285714 19.5,34.4285714 C11.2832271,34.4285714 4.73684211,31.0184055 4.73684211,27.1428571 Z" id="Oval-10" fill="#979797" opacity="0.5"></path>
                        <path d="M3,28.5 C3,23.9785269 10.3165479,20 19.5,20 C28.6834521,20 36,23.9785269 36,28.5 C36,33.0214731 28.6834521,37 19.5,37 C10.3165479,37 3,33.0214731 3,28.5 Z" id="Oval-10" fill="#506A81" opacity="0.300000012"></path>
                        <ellipse id="Oval-10" fill="#959595" cx="19.5" cy="26.5" rx="10.5" ry="5.5"></ellipse>
                        <path d="M25.9565179,30.8376134 C27.1975288,30.330053 28.2151055,29.6795549 28.9190335,28.9333742 C24.8101613,25.2180013 23.4216167,25.3601686 23.4216167,25.3601686 L22.4394392,26.1204259 C22.4394392,26.1204259 24.1117695,26.4302931 25.9565179,30.8376134 Z" id="Oval-10" fill="#FFFFFF" opacity="0.400000006"></path>
                        <ellipse id="Oval-10" fill="#6B6B6B" cx="19.5" cy="24.5" rx="6.5" ry="2.5"></ellipse>
                        <ellipse id="Oval-10" fill="#404040" cx="19.5" cy="25.5" rx="3.5" ry="1.5"></ellipse>
                        <g id="Group-12" transform="translate(21.737900, 14.783584) rotate(-345.000000) translate(-21.737900, -14.783584) translate(13.737900, 2.283584)">
                            <path d="M7,7 L10,7 L10,23.5319334 C10,23.5319334 10.0305744,23.9895206 8.3637947,24.4361328 C7.31246127,24.7178368 6.98136968,24.1427287 6.98136968,24.1427287 L7,7 Z" id="Rectangle-12" fill="#CFCFCF"></path>
                            <circle id="Oval-9" fill="url(#radialGradient-1)" cx="8.31053131" cy="7.65659652" r="7.5"></circle>
                            <ellipse id="Oval-11" fill="#FFFFFF" opacity="0.400000006" transform="translate(11.748103, 4.705371) rotate(-308.000000) translate(-11.748103, -4.705371) " cx="11.7481032" cy="4.70537067" rx="2" ry="1.42077765"></ellipse>
                        </g>
                    </g>
                </g>
            </g>
        </g>
    </g>
</svg>