<?xml version="1.0" encoding="UTF-8" standalone="no"?>
<svg width="19px" height="19px" viewBox="0 0 19 19" version="1.1" xmlns="http://www.w3.org/2000/svg" xmlns:xlink="http://www.w3.org/1999/xlink">
    <!-- Generator: Sketch 44 (41411) - http://www.bohemiancoding.com/sketch -->
    <title>icon_？</title>
    <desc>Created with Sketch.</desc>
    <defs></defs>
    <g id="YCH-WORKS" stroke="none" stroke-width="1" fill="none" fill-rule="evenodd">
        <g id="Studio_USER-ID" transform="translate(-4133.000000, -974.000000)" stroke-width="0.7" stroke="#D95E2E" fill="#D95E2E">
            <g id="Profile_Edit-Profile" transform="translate(3873.000000, 212.000000)">
                <g id="icons_btm" transform="translate(46.000000, 763.000000)">
                    <g id="icon_？" transform="translate(215.000000, 0.000000)">
                        <g id="Combined-Shape">
                            <path d="M8.5,16.7490919 C3.94415235,16.7490919 0.250908112,13.0558476 0.250908112,8.5 C0.250908112,3.94415235 3.94415235,0.250908112 8.5,0.250908112 C13.0558476,0.250908112 16.7490919,3.94415235 16.7490919,8.5 C16.7490919,13.0558476 13.0558476,16.7490919 8.5,16.7490919 Z M8.4873965,16.5485364 C12.9166928,16.5485364 16.5073469,12.9578823 16.5073469,8.528586 C16.5073469,4.09928967 12.9166928,0.508635554 8.4873965,0.508635554 C4.05810017,0.508635554 0.46744605,4.09928967 0.46744605,8.528586 C0.46744605,12.9578823 4.05810017,16.5485364 8.4873965,16.5485364 Z M8.29940168,10.3007556 C8.26357148,10.2128087 8.23262768,10.0979909 8.20656935,9.95629878 C8.18051102,9.81460662 8.16748206,9.67210228 8.16748206,9.52878148 C8.16748206,9.36591693 8.18946844,9.2168981 8.23344187,9.08172053 C8.2774153,8.94654295 8.3393029,8.8186962 8.41910653,8.69817643 C8.49891015,8.57765667 8.59418449,8.46121026 8.70493238,8.34883372 C8.81568027,8.23645718 8.93782685,8.1216394 9.07137578,8.00437692 C9.18212368,7.9034009 9.2920556,7.79754053 9.40117485,7.68679264 C9.51029409,7.57604475 9.60719705,7.45715541 9.69188661,7.33012106 C9.77657618,7.20308671 9.84497826,7.06465392 9.89709492,6.91481854 C9.94921157,6.76498315 9.97526951,6.60049243 9.97526951,6.42134142 C9.97526951,6.22916126 9.94269709,6.05652742 9.87755127,5.90343475 C9.81240545,5.75034207 9.72120267,5.62005239 9.6039402,5.51256178 C9.48667772,5.40507118 9.34661631,5.32364013 9.18375176,5.26826618 C9.02088721,5.21289224 8.84011027,5.18520568 8.64141552,5.18520568 C8.31242913,5.18520568 8.007877,5.24302173 7.72774997,5.35865555 C7.44762295,5.47428938 7.18541496,5.63145132 6.94111813,5.83014607 L6.94111813,5.26826618 C7.18867225,5.07934331 7.45088024,4.93846758 7.72774997,4.84563479 C8.00461971,4.752802 8.31080046,4.7063863 8.64630144,4.7063863 C8.90688471,4.7063863 9.14954925,4.74384458 9.37430233,4.81876227 C9.59905541,4.89367997 9.79286131,5.00198327 9.95572586,5.14367543 C10.1185904,5.28536758 10.2464372,5.45963004 10.33927,5.66646801 C10.4321027,5.87330599 10.4785184,6.10864173 10.4785184,6.3724823 C10.4785184,6.57117705 10.4508319,6.75358261 10.3954579,6.91970445 C10.340084,7.08582629 10.2676104,7.23891667 10.1780349,7.37898018 C10.0884594,7.51904369 9.98504192,7.650962 9.86777945,7.77473906 C9.75051697,7.89851611 9.63325625,8.01740545 9.51599378,8.13141064 C9.3270709,8.30730435 9.17398052,8.45632318 9.05671805,8.57847159 C8.93945557,8.70062 8.84743848,8.81055192 8.78066402,8.90827065 C8.71388955,9.00598938 8.66747385,9.10207802 8.64141552,9.19653946 C8.6153572,9.2910009 8.60232823,9.40011851 8.60232823,9.52389557 C8.60232823,9.68676012 8.61617151,9.83415032 8.64385848,9.96607061 C8.67154545,10.0979909 8.70004632,10.2095514 8.72936194,10.3007556 L8.29940168,10.3007556 Z M8.7080745,12.7718072 C8.58755473,12.7718072 8.48820885,12.7310917 8.41003386,12.6496594 C8.33185888,12.5682271 8.29277197,12.4672526 8.29277197,12.3467329 C8.29277197,12.2229558 8.33185888,12.1219813 8.41003386,12.0438063 C8.48820885,11.9656313 8.58755473,11.9265444 8.7080745,11.9265444 C8.83185155,11.9265444 8.93526899,11.9656313 9.01832991,12.0438063 C9.10139083,12.1219813 9.14292067,12.2229558 9.14292067,12.3467329 C9.14292067,12.4672526 9.10139083,12.5682271 9.01832991,12.6496594 C8.93526899,12.7310917 8.83185155,12.7718072 8.7080745,12.7718072 Z"></path>
                        </g>
                    </g>
                </g>
            </g>
        </g>
    </g>
</svg>