<?xml version="1.0" encoding="UTF-8" standalone="no"?>
<svg width="52px" height="52px" viewBox="0 0 52 52" version="1.1" xmlns="http://www.w3.org/2000/svg" xmlns:xlink="http://www.w3.org/1999/xlink">
    <!-- Generator: Sketch 43.2 (39069) - http://www.bohemiancoding.com/sketch -->
    <title>drawlaser</title>
    <desc>Created with Sketch.</desc>
    <defs>
        <path d="M17.0853918,0 C8.46133688,0 1.42378265,7.0994682 1.42378265,15.7993945 C1.42378265,24.4993209 8.46133688,31.5987891 17.0853918,31.5987891 C25.7094467,31.5987891 32.7470009,24.4993209 32.7470009,15.7993945 C32.7470009,7.0994682 25.7094467,0 17.0853918,0 Z M17.0853918,30.7780413 C8.90881143,30.7780413 2.23737273,24.0479096 2.23737273,15.7993945 C2.23737273,7.55087947 8.90881143,0.820747769 17.0853918,0.820747769 C25.2619721,0.820747769 31.9334108,7.55087947 31.9334108,15.7993945 C31.9334108,24.0479096 25.2619721,30.7780413 17.0853918,30.7780413 Z" id="path-1"></path>
        <filter x="-7.2%" y="-7.1%" width="114.4%" height="114.2%" filterUnits="objectBoundingBox" id="filter-2">
            <feMorphology radius="0.25" operator="dilate" in="SourceAlpha" result="shadowSpreadOuter1"></feMorphology>
            <feOffset dx="0" dy="0" in="shadowSpreadOuter1" result="shadowOffsetOuter1"></feOffset>
            <feGaussianBlur stdDeviation="0.5" in="shadowOffsetOuter1" result="shadowBlurOuter1"></feGaussianBlur>
            <feColorMatrix values="0 0 0 0 0.290196078   0 0 0 0 0.28627451   0 0 0 0 0.28627451  0 0 0 0.5 0" type="matrix" in="shadowBlurOuter1"></feColorMatrix>
        </filter>
    </defs>
    <g id="YCH-WORKS" stroke="none" stroke-width="1" fill="none" fill-rule="evenodd">
        <g id="YCH-HOME界面readjust" transform="translate(-973.000000, -976.000000)">
            <g id="Btm_navi" transform="translate(130.000000, 950.000000)">
                <g id="icons" transform="translate(215.000000, 21.000000)">
                    <g id="icon_draw&amp;laser" transform="translate(618.400000, 5.000000)">
                        <g id="drawlaser" transform="translate(10.278707, 0.747801)">
                            <ellipse id="Oval" fill="#EDFBFF" fill-rule="nonzero" cx="25.2212926" cy="25.4431808" rx="25.2212926" ry="25.4431808"></ellipse>
                            <g id="Group" transform="translate(0.000000, 9.848973)" fill-rule="nonzero">
                                <path d="M26.2382802,15.7993945 C17.8176229,15.7993945 10.9834661,22.6936758 10.9834661,31.1884152 C10.9834661,33.4044342 11.4716202,35.5383784 12.2852103,37.4260982 C16.0684042,39.724192 20.4617906,41.0373884 25.2212926,41.0373884 C31.1198207,41.0373884 36.5708743,38.985519 40.8829018,35.5383784 C41.2896968,34.1431072 41.4930943,32.7067986 41.4930943,31.1884152 C41.4930943,22.6936758 34.6589376,15.7993945 26.2382802,15.7993945 Z" id="Shape" fill="#E3725D"></path>
                                <ellipse id="Oval" fill="#F9E373" cx="17.0853918" cy="15.7993945" rx="15.2548141" ry="15.3890207"></ellipse>
                                <path d="M7.93250332,16.4149554 C5.08493803,16.4149554 2.44077025,17.1946658 0.162718017,18.5488996 C1.42378265,29.6289944 9.72240151,38.4930703 20.4617906,40.5859772 C22.1703298,38.0826965 23.1873174,35.0869671 23.1873174,31.803976 C23.1873174,23.3092366 16.3531607,16.4149554 7.93250332,16.4149554 Z" id="Shape" fill="#65C1C2"></path>
                                <path d="M7.93250332,16.4149554 C5.08493803,16.4149554 2.44077025,17.1946658 0.162718017,18.5488996 C1.42378265,29.6289944 9.72240151,38.4930703 20.4617906,40.5859772 C22.1703298,38.0826965 23.1873174,35.0869671 23.1873174,31.803976 C23.1873174,23.3092366 16.3531607,16.4149554 7.93250332,16.4149554 Z" id="Shape" fill="#65C1C2"></path>
                                <g opacity="0.5" transform="translate(1.627180, 0.410374)" id="Oval" fill="#F9E373">
                                    <ellipse cx="15.4582116" cy="15.3890207" rx="15.2548141" ry="15.3890207"></ellipse>
                                </g>
                                <g opacity="0.5" transform="translate(10.983466, 15.594208)" id="Shape" fill="#E3725D">
                                    <path d="M15.2548141,0.205186942 C6.83415671,0.205186942 0,7.0994682 0,15.5942076 C0,17.8102266 0.488154051,19.9441708 1.30174414,21.8318906 C5.08493803,24.1299844 9.47832449,25.4431808 14.2378265,25.4431808 C20.1363546,25.4431808 25.5874082,23.3913114 29.8994356,19.9441708 C30.3062307,18.5488996 30.5096282,17.112591 30.5096282,15.5942076 C30.5096282,7.0994682 23.6754715,0.205186942 15.2548141,0.205186942 Z"></path>
                                </g>
                                <path d="M7.93250332,16.0045815 C5.08493803,16.0045815 2.44077025,16.7842919 0.122038513,18.0974883 C0.162718017,18.38475 0.203397521,18.6720117 0.244077025,19.0003108 C2.48144976,17.6050396 5.12561753,16.8253293 7.93250332,16.8253293 C16.1090837,16.8253293 22.7805224,23.555461 22.7805224,31.803976 C22.7805224,35.0459297 21.7635348,38.0416591 20.0143161,40.5039024 C20.2990726,40.5859772 20.5838291,40.6270145 20.9092652,40.6680519 C22.6178044,38.1237339 23.5941125,35.0869671 23.5941125,31.803976 C23.5941125,23.1040497 16.5565582,16.0045815 7.93250332,16.0045815 Z" id="Shape" fill="#2D2E2D"></path>
                                <g id="Shape">
                                    <use fill="black" fill-opacity="1" filter="url(#filter-2)" xlink:href="#path-1"></use>
                                    <use fill="#2D2E2D" fill-rule="evenodd" xlink:href="#path-1"></use>
                                </g>
                                <path d="M26.2382802,15.3890207 C17.6142253,15.3890207 10.5766711,22.4884889 10.5766711,31.1884152 C10.5766711,33.281322 10.9834661,35.2511167 11.7156972,37.0567618 C12.1224923,37.3029861 12.5292873,37.5492104 12.9360823,37.7954347 C11.9597742,35.7846027 11.3902612,33.5685837 11.3902612,31.1884152 C11.3902612,22.9399001 18.0616999,16.2097684 26.2382802,16.2097684 C34.4148606,16.2097684 41.0862993,22.9399001 41.0862993,31.1884152 C41.0862993,32.8709481 40.8015427,34.4714063 40.3133887,35.9897897 C40.6795042,35.7025279 41.0456198,35.4152662 41.4117353,35.0869671 C41.7371713,33.8558455 41.8998894,32.542649 41.8998894,31.1884152 C41.8998894,22.4884889 34.8623351,15.3890207 26.2382802,15.3890207 Z" id="Shape" fill="#2D2E2D"></path>
                            </g>
                            <ellipse id="Oval-6" fill-opacity="0.8" fill="#CE0000" cx="20.07409" cy="10.9042204" rx="1.54416077" ry="1.55774576"></ellipse>
                        </g>
                    </g>
                </g>
            </g>
        </g>
    </g>
</svg>