<?xml version="1.0" encoding="UTF-8" standalone="no"?>
<svg width="16px" height="16px" viewBox="0 0 16 16" version="1.1" xmlns="http://www.w3.org/2000/svg" xmlns:xlink="http://www.w3.org/1999/xlink">
    <!-- Generator: Sketch 44 (41411) - http://www.bohemiancoding.com/sketch -->
    <title>icon_forum</title>
    <desc>Created with Sketch.</desc>
    <defs></defs>
    <g id="YCH-WORKS" stroke="none" stroke-width="1" fill="none" fill-rule="evenodd">
        <g id="Studio_USER-ID" transform="translate(-2945.000000, -1856.000000)" fill-rule="nonzero" fill="#D95E2E">
            <g id="Profile_Main" transform="translate(2906.000000, 1125.000000)">
                <g id="popout_groups" transform="translate(27.000000, 706.000000)">
                    <g id="icon_forum" transform="translate(12.000000, 25.000000)">
                        <g id="Shape_forum">
                            <path d="M15.2,3.2 L13.6,3.2 L13.6,10.4 L3.2,10.4 L3.2,12 C3.2,12.44 3.56,12.8 4.00000001,12.8 L12.8,12.8 L16,16 L16,4.00000001 C16,3.56 15.64,3.2 15.2,3.2 Z M12,8 L12,0.800000006 C12,0.36 11.64,0 11.2,0 L0.800000006,0 C0.36,0 0,0.36 0,0.800000006 L0,12 L3.2,8.80000001 L11.2,8.80000001 C11.64,8.80000001 12,8.44000001 12,8 L12,8 Z"></path>
                        </g>
                    </g>
                </g>
            </g>
        </g>
    </g>
</svg>