<?xml version="1.0" encoding="UTF-8" standalone="no"?>
<svg width="40px" height="40px" viewBox="0 0 40 40" version="1.1" xmlns="http://www.w3.org/2000/svg" xmlns:xlink="http://www.w3.org/1999/xlink">
    <!-- Generator: Sketch 40.3 (33839) - http://www.bohemiancoding.com/sketch -->
    <title>icon_blockly</title>
    <desc>Created with Sketch.</desc>
    <defs></defs>
    <g id="Page-1" stroke="none" stroke-width="1" fill="none" fill-rule="evenodd">
        <g id="us首页" transform="translate(-188.000000, -499.000000)">
            <g id="Group" transform="translate(63.000000, 56.000000)">
                <g id="Group-3-Copy-2" transform="translate(125.000000, 443.000000)">
                    <g id="Group-7">
                        <rect id="Rectangle-10" x="0" y="0" width="40" height="40"></rect>
                        <path d="M19.2877284,33.0887134 L24.6649645,33.0887134 L24.6649645,35.8577247 L20.3547253,35.8577247 L9.09909686,35.8577247 L9.12438322,20.3917667 L10.6839655,20.3930433 L11.7215448,21.4236443 L12.7574155,20.3947405 L36.6067894,20.4142629 L36.6067894,25.5736511 L14.3187064,25.5511549 L14.2934201,33.0887134 L16.6559411,33.0887134 L17.9718347,34.3957568 L19.2877284,33.0887134 Z" id="Combined-Shape" fill="#F0D13A"></path>
                        <ellipse id="Oval" fill="#000000" opacity="0.100000001" cx="11.7043433" cy="23.4527146" rx="1.03886465" ry="1.03187765"></ellipse>
                        <polygon id="Triangle-5-Copy" fill="#FCDD5D" points="16.303538 25.0742367 19.4201319 25.0742367 17.861835 26.6220531"></polygon>
                        <g id="Group-6" transform="translate(17.983871, 8.500000) rotate(-360.000000) translate(-17.983871, -8.500000) translate(8.483871, 4.000000)">
                            <path d="M4.27238595,7.22314354 L18.9113141,7.22314354 L18.9113141,2.48544713e-15 L0.731182796,2.48544713e-15 L0.731182796,7.22314354 L2.1859267,7.22314354 L3.22915633,8.25935681 L4.27238595,7.22314354 Z" id="Combined-Shape" fill="#71CC8C"></path>
                            <rect id="Rectangle-14" fill="#FFFFFF" opacity="0.600000024" x="6.4681555" y="1.43283582" width="10.3886465" height="4.29850746" rx="1"></rect>
                            <ellipse id="Oval" fill="#5BAB73" cx="3.20429062" cy="3.41993735" rx="1.03886465" ry="1.03187765"></ellipse>
                        </g>
                        <g id="Group-8" transform="translate(15.363861, 26.635060)">
                            <path d="M1.55829697,0 L0,0 L0,5.67532707 L15.3548387,5.67532707 L15.3548387,0 L3.63602626,0 L2.59716161,1.13506541 L1.55829697,-5.55111512e-17 Z" id="Combined-Shape" fill="#50C5D4"></path>
                            <rect id="Rectangle-14-Copy-3" fill="#FFFFFF" opacity="0.600000024" x="6.10780766" y="1.28984706" width="8.15025686" height="3.09563295"></rect>
                            <polygon id="Triangle-5-Copy-2" fill="#50C5D4" points="1.03886465 5.15938824 4.15545858 5.15938824 2.59716161 6.70720472"></polygon>
                            <ellipse id="Oval-Copy" fill="#3E9FAD" cx="2.59716161" cy="3.09563295" rx="1.03886465" ry="1.03187765"></ellipse>
                        </g>
                        <g id="Group-8-Copy" transform="translate(14.718570, 16.723917) rotate(-4.000000) translate(-14.718570, -16.723917) translate(4.218570, 13.223917)">
                            <path d="M1.55829697,5.67532707 L-8.30446822e-14,5.67532707 L-8.30446822e-14,1.15907284e-12 L1.55829697,1.15907284e-12 L2.59716161,1.13506541 L3.63602626,1.15929488e-12 L20.4190637,1.15907284e-12 L20.4190637,5.67532707 L3.63602626,5.67532707 L2.59716161,6.70720472 L1.55829697,5.67532707 Z" id="Combined-Shape" fill="#E37D7D"></path>
                            <rect id="Rectangle-14-Copy-3" fill="#FFFFFF" opacity="0.600000024" x="8.79452657" y="1.28984706" width="10.3886465" height="3.09563295"></rect>
                            <ellipse id="Oval-Copy" fill="#CD5E5E" cx="2.59716161" cy="3.09563295" rx="1.03886465" ry="1.03187765"></ellipse>
                        </g>
                        <rect id="Rectangle-14-Copy" fill="#FFFFFF" opacity="0.600000024" x="23.819011" y="21.484343" width="10.3886465" height="3.09563295"></rect>
                        <rect id="Rectangle-14-Copy-2" fill="#FFFFFF" opacity="0.600000024" x="14.4217605" y="21.484343" width="7.22340076" height="3.09563295"></rect>
                        <path d="M9.27188137,20.3477265 L10.838009,20.3477265 L8.64543033,16.9139152 L6.45285168,20.3477265 L8.01897929,20.3477265 L8.01897929,23.0011262 L9.27188137,23.0011262 L9.27188137,20.3477265 Z" id="Combined-Shape" stroke="#FFFFFF" transform="translate(8.645430, 19.957521) rotate(-30.000000) translate(-8.645430, -19.957521) "></path>
                        <path d="M9.27188137,20.3477265 L10.838009,20.3477265 L8.64543033,16.9139152 L6.45285168,20.3477265 L8.01897929,20.3477265 L8.01897929,23.0011262 L9.27188137,23.0011262 L9.27188137,20.3477265 Z" id="Combined-Shape" fill="#000000" transform="translate(8.645430, 19.957521) rotate(-30.000000) translate(-8.645430, -19.957521) "></path>
                    </g>
                </g>
            </g>
        </g>
    </g>
</svg>