<?xml version="1.0" encoding="UTF-8" standalone="no"?>
<svg width="40px" height="40px" viewBox="0 0 40 40" version="1.1" xmlns="http://www.w3.org/2000/svg" xmlns:xlink="http://www.w3.org/1999/xlink">
    <!-- Generator: Sketch 40.3 (33839) - http://www.bohemiancoding.com/sketch -->
    <title>icon_T&amp;P</title>
    <desc>Created with Sketch.</desc>
    <defs></defs>
    <g id="Page-1" stroke="none" stroke-width="1" fill="none" fill-rule="evenodd">
        <g id="us首页" transform="translate(-418.000000, -499.000000)">
            <g id="Group" transform="translate(63.000000, 56.000000)">
                <g id="Group-3-Copy-2" transform="translate(125.000000, 443.000000)">
                    <g id="Group-20" transform="translate(230.000000, 0.000000)">
                        <rect id="Rectangle-10" x="0" y="0" width="40" height="40"></rect>
                        <g id="Group-15" transform="translate(3.090756, 5.557484)">
                            <path d="M6.93242889,2.26871969 C6.93242889,2.26871969 13.693457,0.0410898622 18.9760281,1.5967072 C24.116783,3.11056236 27.2658863,6.0086311 28.6040595,7.69435626" id="Path-80" stroke="#BFBFBF" stroke-dasharray="1,1"></path>
                            <path d="M27.2246539,11.7308835 L12.409244,18.9425163" id="Path-81" stroke="#91B4DD" stroke-dasharray="2"></path>
                            <path d="M11.409244,18.9425163 L22.0596183,29.9199134" id="Path-82" stroke="#91B4DD"></path>
                            <circle id="Oval-13" stroke="#BFBFBF" cx="3.5" cy="3.5" r="3.5"></circle>
                            <path d="M30.337914,13.7482775 C32.2709106,13.7482775 33.837914,12.1812741 33.837914,10.2482775 C33.837914,8.31528085 32.2709106,6.74827747 30.337914,6.74827747 C28.4049174,6.74827747 26.837914,8.31528085 26.837914,10.2482775 C26.837914,12.1812741 28.4049174,13.7482775 30.337914,13.7482775 Z" id="Oval-13-Copy" stroke="#BFBFBF"></path>
                            <path d="M11.7275673,22.8097085 C13.660564,22.8097085 15.2275673,21.2427051 15.2275673,19.3097085 C15.2275673,17.3767119 13.660564,15.8097085 11.7275673,15.8097085 C9.79457072,15.8097085 8.22756734,17.3767119 8.22756734,19.3097085 C8.22756734,21.2427051 9.79457072,22.8097085 11.7275673,22.8097085 Z" id="Oval-13-Copy-2" stroke="#91B4DD" fill="#3C3C3C"></path>
                            <path d="M11.7326693,21.3581657 C12.8372388,21.3581657 13.7326693,20.4627352 13.7326693,19.3581657 C13.7326693,18.2535962 12.8372388,17.3581657 11.7326693,17.3581657 C10.6280998,17.3581657 9.73266928,18.2535962 9.73266928,19.3581657 C9.73266928,20.4627352 10.6280998,21.3581657 11.7326693,21.3581657 Z" id="Oval-13-Copy-2" fill="#7DB2F0"></path>
                            <path d="M3.47192709,5.51386643 C4.57649659,5.51386643 5.47192709,4.61843593 5.47192709,3.51386643 C5.47192709,2.40929693 4.57649659,1.51386643 3.47192709,1.51386643 C2.36735759,1.51386643 1.47192709,2.40929693 1.47192709,3.51386643 C1.47192709,4.61843593 2.36735759,5.51386643 3.47192709,5.51386643 Z" id="Oval-13-Copy-2" fill="#BFBFBF"></path>
                            <polygon id="Path-83" fill="#91B4DD" transform="translate(22.083757, 29.986087) rotate(-90.000000) translate(-22.083757, -29.986087) " points="21.2854412 28.1171337 20.2406197 31.8550412 23.9268942 30.7615253"></polygon>
                        </g>
                    </g>
                </g>
            </g>
        </g>
    </g>
</svg>