<?xml version="1.0" encoding="UTF-8" standalone="no"?>
<svg width="287px" height="30px" viewBox="0 0 287 30" version="1.1" xmlns="http://www.w3.org/2000/svg" xmlns:xlink="http://www.w3.org/1999/xlink">
    <!-- Generator: Sketch 40.3 (33839) - http://www.bohemiancoding.com/sketch -->
    <title>logo</title>
    <desc>Created with Sketch.</desc>
    <defs></defs>
    <g id="Page-1" stroke="none" stroke-width="1" fill="none" fill-rule="evenodd">
        <g id="us首页" transform="translate(-182.000000, -92.000000)">
            <g id="Group" transform="translate(63.000000, 56.000000)">
                <g id="logo" transform="translate(119.000000, 36.000000)">
                    <path d="M67.42,19.34 C67.42,20.7800072 67.1450028,21.7499975 66.595,22.25 C66.0449973,22.7500025 65.0400073,23 63.58,23 L53.8,23 C52.3399927,23 51.3350028,22.7500025 50.785,22.25 C50.2349973,21.7499975 49.96,20.7800072 49.96,19.34 L49.96,7.52 L53.56,7.52 L53.56,20.09 L63.82,20.09 L63.82,7.52 L67.42,7.52 L67.42,19.34 Z M93.49,23 L89.44,23 L87.58,19.61 L77.77,19.61 L75.97,23 L72.37,23 L81.13,7.52 L84.61,7.52 L93.49,23 Z M86.08,16.82 L82.75,10.52 L79.3,16.82 L86.08,16.82 Z M116.83,23 L111.67,23 L105.43,17.15 L102.01,17.15 L102.01,23 L98.47,23 L98.47,7.52 L111.73,7.52 C114.050012,7.52 115.21,8.51999 115.21,10.52 L115.21,14.15 C115.21,15.6500075 114.610006,16.5799982 113.41,16.94 C112.949998,17.0800007 111.71001,17.15 109.69,17.15 L116.83,23 Z M111.73,13.28 L111.73,11.42 C111.73,10.8999974 111.580002,10.5600008 111.28,10.4 C111.059999,10.2599993 110.670003,10.19 110.11,10.19 L102.01,10.19 L102.01,14.51 L110.11,14.51 C110.670003,14.51 111.059999,14.4400007 111.28,14.3 C111.580002,14.1399992 111.73,13.8000026 111.73,13.28 L111.73,13.28 Z M142.72,23 L139.39,23 L139.39,13.37 C139.39,13.0299983 139.43,12.5000036 139.51,11.78 C139.329999,12.1600019 139.030002,12.6999965 138.61,13.4 L132.79,21.14 L132.07,21.14 L126.25,13.37 C125.829998,12.8099972 125.520001,12.2800025 125.32,11.78 C125.38,12.4000031 125.41,12.909998 125.41,13.31 L125.41,23 L122.5,23 L122.5,7.52 L125.41,7.52 L132.7,16.88 L139.84,7.52 L142.72,7.52 L142.72,23 Z" id="UARM" fill="#414141"></path>
                    <path d="M178.76,19.34 C178.76,20.7800072 178.480003,21.7499975 177.92,22.25 C177.359997,22.7500025 176.350007,23 174.89,23 L165.32,23 C163.739992,23 162.700002,22.7200028 162.2,22.16 C161.699997,21.5999972 161.45,20.520008 161.45,18.92 L164.63,18.26 L164.63,20.09 L175.58,20.09 L175.58,16.55 L165.92,16.55 C164.459993,16.55 163.455003,16.3000025 162.905,15.8 C162.354997,15.2999975 162.08,14.3300072 162.08,12.89 L162.08,11.18 C162.08,9.7399928 162.354997,8.7700025 162.905,8.27 C163.455003,7.7699975 164.459993,7.52 165.92,7.52 L174.71,7.52 C176.190007,7.52 177.199997,7.77499745 177.74,8.285 C178.280003,8.79500255 178.55,9.7799927 178.55,11.24 L175.37,11.99 L175.37,10.22 L165.23,10.22 L165.23,13.55 L174.89,13.55 C176.350007,13.55 177.359997,13.7999975 177.92,14.3 C178.480003,14.8000025 178.76,15.7699928 178.76,17.21 L178.76,19.34 Z M200.57,10.28 L193.43,10.28 L193.43,23 L189.83,23 L189.83,10.28 L182.72,10.28 L182.72,7.52 L200.57,7.52 L200.57,10.28 Z M222.44,19.34 C222.44,20.7800072 222.165003,21.7499975 221.615,22.25 C221.064997,22.7500025 220.060007,23 218.6,23 L208.82,23 C207.359993,23 206.355003,22.7500025 205.805,22.25 C205.254997,21.7499975 204.98,20.7800072 204.98,19.34 L204.98,7.52 L208.58,7.52 L208.58,20.09 L218.84,20.09 L218.84,7.52 L222.44,7.52 L222.44,19.34 Z M249.17,15.17 C249.17,18.170015 248.030011,20.3799929 245.75,21.8 C244.449993,22.600004 242.330015,23 239.39,23 L230.36,23 L230.36,7.52 L240.32,7.52 C243.000013,7.52 245.099992,8.119994 246.62,9.32 C248.320008,10.6400066 249.17,12.5899871 249.17,15.17 L249.17,15.17 Z M245.45,15.11 C245.45,11.8899839 243.750017,10.28 240.35,10.28 L233.96,10.28 L233.96,20.09 L238.61,20.09 C240.810011,20.09 242.409995,19.8100028 243.41,19.25 C244.770007,18.4899962 245.45,17.11001 245.45,15.11 L245.45,15.11 Z M259.37,23 L255.77,23 L255.77,7.52 L259.37,7.52 L259.37,23 Z M286.04,19.34 C286.04,20.7800072 285.765003,21.7499975 285.215,22.25 C284.664997,22.7500025 283.660007,23 282.2,23 L270.8,23 C269.339993,23 268.335003,22.7500025 267.785,22.25 C267.234997,21.7499975 266.96,20.7800072 266.96,19.34 L266.96,11.18 C266.96,9.7399928 267.234997,8.7700025 267.785,8.27 C268.335003,7.7699975 269.339993,7.52 270.8,7.52 L282.2,7.52 C283.660007,7.52 284.664997,7.7699975 285.215,8.27 C285.765003,8.7700025 286.04,9.7399928 286.04,11.18 L286.04,19.34 Z M282.44,20.09 L282.44,10.28 L270.56,10.28 L270.56,20.09 L282.44,20.09 Z" id="STUDIO" fill="#8C8C8C"></path>
                    <g id="Group-18-Copy">
                        <path d="M11.2653587,0.995942093 C12.2180623,0.445898464 13.7640858,0.446698666 14.7154034,0.995942093 L24.2557398,6.50405791 C25.2084433,7.05410154 25.9807621,8.39339733 25.9807621,9.49188419 L25.9807621,20.5081158 C25.9807621,21.6082031 25.2070573,22.9466987 24.2557398,23.4959421 L14.7154034,29.0040579 C13.7626999,29.5541015 12.2166763,29.5533013 11.2653587,29.0040579 L1.72502231,23.4959421 C0.772318794,22.9458985 7.54951657e-15,21.6066027 7.10542736e-15,20.5081158 L8.8817842e-16,9.49188419 C0,8.39179693 0.773704785,7.05330133 1.72502231,6.50405791 L11.2653587,0.995942093 Z" id="Polygon-2" fill="#414141"></path>
                        <path d="M8.00484893,23.4704106 C8.00484893,23.1961367 8.23250172,22.9737937 8.51449844,22.9737937 L17.4951994,22.9737937 C17.7766711,22.9737937 18.0048489,23.1975847 18.0048489,23.4704106 L18.0048489,24.4904711 L13.8757825,26.8697598 C13.3947792,27.146928 12.6125073,27.1455385 12.1339154,26.8697598 L8.00484893,24.4904711 L8.00484893,23.4704106 Z" id="Rectangle-14" fill="#EE6C21"></path>
                        <path d="M4.48232527,14.4088698 L3.32593171,14.4088698 L3.32593171,13.6777946 L5.2221624,11.0238883 L5.82258064,11.0238883 L15.682898,6.83843193 C16.0468934,6.36411848 16.5590513,6.0688429 17.1263815,6.0688429 C17.2078483,6.0688429 17.2881775,6.0749315 17.3670937,6.08676452 L18.8680053,6.08109654 C18.8721169,6.08106548 18.8762314,6.08104993 18.8803488,6.08104993 C19.9849183,6.08104993 20.8803488,7.20033805 20.8803488,8.58104993 C20.8803488,9.9617618 19.9849183,11.0810499 18.8803488,11.0810499 L18.8285996,11.0812454 L15.525621,17.0399766 C16.1159667,17.4490539 16.502084,18.1305467 16.5017913,18.90872 L16.5009361,21.1823424 L9.48304943,21.1823424 L9.48390462,18.90872 C9.48437692,17.6530331 10.5052208,16.6350976 11.7632665,16.6350976 L12.5486577,16.6350976 L15.9163769,10.5595713 C15.7433218,10.3949643 15.5923784,10.195904 15.470092,9.97057168 L7.87059112,13.1963684 L7.87059112,13.9001033 C7.87059112,14.1831168 7.64506696,14.4088698 7.36686882,14.4088698 L6.48232527,14.4088698 L6.49067469,16.0688429 L4.49067469,16.0688429 L4.48232527,14.4088698 Z" id="Combined-Shape" fill="#FFFFFF"></path>
                        <path d="M19.3406026,10.1347259 C19.9003561,10.1347259 20.354126,9.45407114 20.354126,8.61444092 C20.354126,7.77481069 19.9003561,7.09415591 19.3406026,7.09415591 C18.7808492,7.09415591 18.3270793,7.77481069 18.3270793,8.61444092 C18.3270793,9.45407114 18.7808492,10.1347259 19.3406026,10.1347259 Z" id="Oval-4" fill="#393939"></path>
                    </g>
                </g>
            </g>
        </g>
    </g>
</svg>