<?xml version="1.0" encoding="UTF-8" standalone="no"?>
<svg width="48px" height="48px" viewBox="0 0 48 48" version="1.1" xmlns="http://www.w3.org/2000/svg" xmlns:xlink="http://www.w3.org/1999/xlink">
    <!-- Generator: Sketch 45.2 (43514) - http://www.bohemiancoding.com/sketch -->
    <title>small icon_Sign in</title>
    <desc>Created with Sketch.</desc>
    <defs></defs>
    <g id="YCH-WORKS" stroke="none" stroke-width="1" fill="none" fill-rule="evenodd">
        <g id="Studio-ID_Register_no-data_2.0" transform="translate(-260.000000, -361.000000)" fill="#F6D8CD">
            <g id="Studio-ID_register">
                <g id="Register_left" transform="translate(240.000000, 148.000000)">
                    <g id="small-icon_sign-in" transform="translate(9.000000, 213.000000)">
                        <g id="small-icon_Sign-in" transform="translate(13.000000, 5.000000)">
                            <path d="M15.6935168,16.287037 C16.2014778,18.4994935 17.2408977,20.8660899 18.8047442,22.2809096 C18.7901101,22.4995365 18.7220385,23.3523903 18.517369,23.9755176 C11.1241467,25.5432 3,31.4527072 3,38.5033093 C3,38.509701 3.00000668,38.5160917 3.00002002,38.5224815 L40.940802,38.5224815 C40.9408135,38.5160917 40.9408199,38.509701 40.9408199,38.5033093 C40.9408199,31.3197344 32.8235166,25.320702 25.4037949,23.8914737 C25.2620034,23.5033329 25.1555022,22.9386762 25.2254046,22.1581061 C25.1714542,22.2049659 25.1176647,22.2504209 25.0640436,22.2945031 C26.6255143,20.8862397 27.6394282,18.5179366 28.144866,16.2659728 C28.1773196,16.2783349 28.2107371,16.2870188 28.2450737,16.2918445 C28.8492301,16.3767531 29.5091243,15.2350563 29.7189887,13.7417933 C29.9288531,12.2485304 29.6092164,10.9691695 29.00506,10.8842609 C28.9636838,10.8784458 28.9220461,10.878384 28.8803094,10.8837942 C29.9934044,5.80635455 27.9040704,1 21.9282852,1 C15.9542384,1 13.9684256,5.82277902 15.0336044,10.8842224 C14.9907893,10.8783846 14.948074,10.8782963 14.9056337,10.8842609 C14.3014774,10.9691695 13.9818406,12.2485304 14.1917051,13.7417933 C14.4015695,15.2350563 15.0614637,16.3767531 15.66562,16.2918445 C15.6749877,16.2905279 15.6842869,16.2889242 15.6935168,16.287037 Z" id="Combined-Shape"></path>
                        </g>
                    </g>
                </g>
            </g>
        </g>
    </g>
</svg>