<?xml version="1.0" encoding="UTF-8" standalone="no"?>
<svg width="48px" height="48px" viewBox="0 0 48 48" version="1.1" xmlns="http://www.w3.org/2000/svg" xmlns:xlink="http://www.w3.org/1999/xlink">
    <!-- Generator: Sketch 45.2 (43514) - http://www.bohemiancoding.com/sketch -->
    <title>small icon_Register user</title>
    <desc>Created with Sketch.</desc>
    <defs></defs>
    <g id="YCH-WORKS" stroke="none" stroke-width="1" fill="none" fill-rule="evenodd">
        <g id="Studio-ID_Sign-in_no-data_2.0" transform="translate(-260.000000, -361.000000)">
            <g id="Sign-in-page_no-data" transform="translate(240.000000, 146.000000)">
                <g id="Register_left">
                    <g id="Group-3" transform="translate(9.000000, 215.000000)">
                        <g id="icon_Register-user_small" transform="translate(11.000000, 0.000000)">
                            <g id="small-icon_Register-user" transform="translate(1.000000, 5.000000)">
                                <path d="M18.6935168,16.0977462 C19.2014778,18.3102027 20.2408977,20.6767991 21.8047442,22.0916188 C21.7901101,22.3102457 21.7220385,23.1630995 21.517369,23.7862268 C14.1241467,25.3539092 6,31.2634164 6,38.3140185 C6,38.3204102 6.00000668,38.3268009 6.00002002,38.3331907 L43.940802,38.3331907 C43.9408135,38.3268009 43.9408199,38.3204102 43.9408199,38.3140185 C43.9408199,31.1304436 35.8235166,25.1314112 28.4037949,23.7021829 C28.2620034,23.3140421 28.1555022,22.7493854 28.2254046,21.9688154 C28.1714542,22.0156751 28.1176647,22.0611301 28.0640436,22.1052123 C29.6255143,20.6969489 30.6394282,18.3286458 31.144866,16.076682 C31.1773196,16.0890441 31.2107371,16.097728 31.2450737,16.1025537 C31.8492301,16.1874623 32.5091243,15.0457655 32.7189887,13.5525026 C32.9288531,12.0592396 32.6092164,10.7798787 32.00506,10.6949701 C31.9636838,10.689155 31.9220461,10.6890932 31.8803094,10.6945034 C32.9934044,5.61706376 30.9040704,0.810709211 24.9282852,0.810709211 C18.9542384,0.810709211 16.9684256,5.63348823 18.0336044,10.6949316 C17.9907893,10.6890938 17.948074,10.6890055 17.9056337,10.6949701 C17.3014774,10.7798787 16.9818406,12.0592396 17.1917051,13.5525026 C17.4015695,15.0457655 18.0614637,16.1874623 18.66562,16.1025537 C18.6749877,16.1012371 18.6842869,16.0996334 18.6935168,16.0977462 Z" id="Combined-Shape" fill="#F6D8CD"></path>
                                <g id="+" transform="translate(0.844289, 0.212604)">
                                    <path d="M9.5146582,5.25072978 C9.5146582,2.76735955 7.5475537,0.754190223 5.12100733,0.754190223 C2.69446096,0.754190223 0.727356461,2.76735955 0.727356461,5.25072978 C0.727356461,7.7341 2.69446096,9.74726933 5.12100733,9.74726933 L9.5146582,9.74726933 L9.5146582,5.25072978 Z" id="Combined-Shape" fill="#F6D8CD"></path>
                                    <path d="M5.34121459,4.34927386 L5.34121459,6.60291365" id="Line" stroke="#DD774F" stroke-linecap="square" transform="translate(5.341215, 5.476094) scale(-1, 1) translate(-5.341215, -5.476094) "></path>
                                    <path d="M5.34121459,4.34927386 L5.34121459,6.60291365" id="Line" stroke="#DD774F" stroke-linecap="square" transform="translate(5.341215, 5.476094) scale(-1, 1) rotate(-90.000000) translate(-5.341215, -5.476094) "></path>
                                </g>
                            </g>
                        </g>
                    </g>
                </g>
            </g>
        </g>
    </g>
</svg>