<?xml version="1.0" encoding="UTF-8" standalone="no"?>
<svg width="120px" height="120px" viewBox="0 0 120 120" version="1.1" xmlns="http://www.w3.org/2000/svg" xmlns:xlink="http://www.w3.org/1999/xlink">
    <!-- Generator: Sketch 45.2 (43514) - http://www.bohemiancoding.com/sketch -->
    <title>img_Register unselected</title>
    <desc>Created with Sketch.</desc>
    <defs></defs>
    <g id="YCH-WORKS" stroke="none" stroke-width="1" fill="none" fill-rule="evenodd">
        <g id="Studio-ID_Sign-in01_2.0" transform="translate(-780.000000, -319.000000)">
            <g id="Page_-sign-in-or-register01">
                <g id="login-or-register" transform="translate(240.000000, 154.000000)">
                    <g id="right" transform="translate(400.000000, 0.000000)">
                        <g id="icon_register-user_unselected" transform="translate(123.000000, 165.000000)">
                            <g id="Register-user">
                                <g transform="translate(17.000000, 0.000000)">
                                    <g id="img_Register-unselected" transform="translate(15.000000, 15.000000)">
                                        <path d="M30.3967006,35.8481109 C31.6127938,41.0380384 34.1022458,46.5903117 37.8482032,49.9092804 C37.8131583,50.4220174 37.6501448,52.4221819 37.1600154,53.8835778 C19.4551934,57.5602017 5.68434189e-14,71.4195363 5.68434189e-14,87.9550362 C5.68434189e-14,87.9700263 1.5988671e-05,87.9850143 4.79502145e-05,88 L90.8582364,88 C90.8582639,87.9850143 90.8582793,87.9700263 90.8582793,87.9550362 C90.8582793,71.1076806 71.4194739,57.0383858 53.6511931,53.6864729 C53.3116397,52.7761815 53.0565973,51.4519144 53.2239953,49.6212742 C53.0947982,49.7311724 52.9659864,49.8377764 52.837578,49.9411606 C56.5786053,46.6369004 59.0071742,41.0790303 60.2170023,35.7954159 C60.300111,35.8281359 60.385858,35.8509585 60.4741088,35.8633613 C61.9209042,36.0666952 63.4927598,33.3925242 63.9849466,29.8904333 C64.4771333,26.3883424 63.7032702,23.3845021 62.2564748,23.1811683 C62.1637985,23.1681435 62.070609,23.1669256 61.9772231,23.1769761 C64.6412322,11.2701994 59.6374539,0 45.328262,0 C31.0232964,2.96753057e-15 26.2673603,11.3086114 28.8166181,23.177831 C28.7206527,23.1668676 28.6248856,23.1677852 28.5296603,23.1811683 C27.0828649,23.3845021 26.3090017,26.3883424 26.8011885,29.8904333 C27.2933752,33.3925242 28.8652309,36.0666952 30.3120263,35.8633613 C30.3405134,35.8593577 30.3687397,35.8542684 30.3967006,35.8481109 Z" id="Combined-Shape" fill="#FFD3C2"></path>
                                        <g id="+" transform="translate(1.000000, 2.000000)">
                                            <path d="M16,8 C16,3.581722 12.418278,0 8,0 C3.581722,0 0,3.581722 0,8 C0,12.418278 3.581722,16 8,16 L16,16 L16,8 Z" id="Combined-Shape" fill="#FFD3C2"></path>
                                            <path d="M8.5,6 L8.5,11" id="Line" stroke="#FFFFFF" stroke-linecap="square" transform="translate(8.500000, 8.500000) scale(-1, 1) translate(-8.500000, -8.500000) "></path>
                                            <path d="M8.5,6 L8.5,11" id="Line" stroke="#FFFFFF" stroke-linecap="square" transform="translate(8.500000, 8.500000) scale(-1, 1) rotate(-90.000000) translate(-8.500000, -8.500000) "></path>
                                        </g>
                                    </g>
                                </g>
                            </g>
                        </g>
                    </g>
                </g>
            </g>
        </g>
    </g>
</svg>