<?xml version="1.0" encoding="UTF-8" standalone="no"?>
<svg width="15px" height="14px" viewBox="0 0 15 14" version="1.1" xmlns="http://www.w3.org/2000/svg" xmlns:xlink="http://www.w3.org/1999/xlink">
    <!-- Generator: Sketch 44 (41411) - http://www.bohemiancoding.com/sketch -->
    <title>Topleft_user icon</title>
    <desc>Created with Sketch.</desc>
    <defs></defs>
    <g id="YCH-WORKS" stroke="none" stroke-width="1" fill="none" fill-rule="evenodd">
        <g id="Studio_USER-ID" transform="translate(-3917.000000, -244.000000)" fill="#D95E2E">
            <g id="Profile_Edit-Profile" transform="translate(3873.000000, 212.000000)">
                <g id="Top-user-info" transform="translate(44.000000, 32.000000)">
                    <g id="Topleft_user-icon">
                        <g id="Combined-Shape">
                            <path d="M4.84681561,5.70303677 C5.04071867,6.52872765 5.43767391,7.41207974 6.03499381,7.94011278 C6.02940582,8.02168459 6.00341288,8.33989257 5.92526048,8.57238737 C3.10218086,9.15730482 5.68434189e-14,11.362199 5.68434189e-14,13.9928467 C5.68434189e-14,13.9952315 2.54943496e-06,13.9976159 7.64578566e-06,14 L14.4875806,14 C14.487585,13.9976159 14.4875874,13.9952315 14.4875874,13.9928467 C14.4875874,11.3125855 11.3880197,9.07428864 8.55482138,8.54102978 C8.50067872,8.3962107 8.46001155,8.18553183 8.4867036,7.89429362 C8.46610279,7.91177743 8.44556341,7.92873715 8.42508836,7.94518464 C9.02163513,7.41948018 9.40888576,6.53521044 9.60178603,5.69459716 C9.6151299,5.69986841 9.62890029,5.7035426 9.64307524,5.70553476 C9.87377051,5.73795686 10.1242626,5.31258019 10.2025651,4.75542936 C10.2808675,4.19827853 10.1573287,3.72033524 9.92663347,3.68791313 C9.91196573,3.68585172 9.89721797,3.68564095 9.88243952,3.68719703 C10.3071977,1.79295526 9.50932641,0 7.22770851,0 C4.94676562,4.72102825e-16 4.18841233,1.7990644 4.59487309,3.68733047 C4.57968337,3.68563069 4.56452461,3.68579459 4.54945037,3.68791313 C4.31875511,3.72033524 4.19521632,4.19827853 4.27351876,4.75542936 C4.3518212,5.31258019 4.60231334,5.73795686 4.8330086,5.70553476 C4.83765466,5.7048818 4.84225725,5.70404814 4.84681561,5.70303677 Z"></path>
                        </g>
                    </g>
                </g>
            </g>
        </g>
    </g>
</svg>