<?xml version="1.0" encoding="UTF-8" standalone="no"?>
<svg width="14px" height="14px" viewBox="0 0 14 14" version="1.1" xmlns="http://www.w3.org/2000/svg" xmlns:xlink="http://www.w3.org/1999/xlink">
    <!-- Generator: Sketch 46 (44423) - http://www.bohemiancoding.com/sketch -->
    <title>icon_question@14X14</title>
    <desc>Created with Sketch.</desc>
    <defs></defs>
    <g id="---------------" stroke="none" stroke-width="1" fill="none" fill-rule="evenodd">
        <g id="Studio_home_disconnected" transform="translate(-233.000000, -356.000000)" fill="#9E9E9E">
            <g id="icon_question">
                <g transform="translate(233.000000, 356.000000)">
                    <g>
                        <path d="M13.6153846,6.80769231 C13.6153846,3.04790766 10.567477,0 6.80769231,0 C3.04790766,0 0,3.04790766 0,6.80769231 C0,10.567477 3.04790766,13.6153846 6.80769231,13.6153846 C10.567477,13.6153846 13.6153846,10.567477 13.6153846,6.80769231 Z M0.544615385,6.80769231 C0.544615385,3.34869044 3.34869044,0.544615385 6.80769231,0.544615385 C10.2666942,0.544615385 13.0707692,3.34869044 13.0707692,6.80769231 C13.0707692,10.2666942 10.2666942,13.0707692 6.80769231,13.0707692 C3.34869044,13.0707692 0.544615385,10.2666942 0.544615385,6.80769231 Z" id="Oval" fill-rule="nonzero"></path>
                        <path d="M6.87722515,3.31900452 C6.22825195,3.31900452 5.71834444,3.52296753 5.34750261,3.94943563 C5.01374497,4.33881955 4.8375951,4.83945602 4.8375951,5.46988713 L5.39385784,5.46988713 C5.39385784,4.98779275 5.50511039,4.59840883 5.72761548,4.32027746 C5.97793372,3.98651982 6.34877555,3.81964099 6.84941201,3.81964099 C7.28515116,3.81964099 7.62817985,3.93089354 7.86922704,4.17194073 C8.09173214,4.40371687 8.21225573,4.71893243 8.21225573,5.11758739 C8.21225573,5.39571876 8.11027423,5.65530804 7.91558227,5.90562627 C7.8414139,5.99833673 7.69307717,6.14667346 7.48911417,6.35063647 C7.04410397,6.74002039 6.7659726,7.08304908 6.63617796,7.36118045 C6.52492541,7.58368555 6.46929914,7.83400378 6.46929914,8.1028641 L6.46929914,8.37172443 L7.03483293,8.37172443 L7.03483293,8.1028641 C7.03483293,7.84327482 7.09973025,7.61149868 7.22952489,7.38899359 C7.32223534,7.23138581 7.47057207,7.05523594 7.69307717,6.86054398 C8.08246109,6.50824424 8.32350828,6.2764681 8.42548978,6.14667346 C8.65726592,5.84072895 8.77778952,5.48842922 8.77778952,5.0990453 C8.77778952,4.56132465 8.6109107,4.13485655 8.27715305,3.81964099 C7.92485331,3.48588335 7.46130103,3.31900452 6.87722515,3.31900452 L6.87722515,3.31900452 Z M6.75670156,9.14122122 C6.62690692,9.14122122 6.50638332,9.1783054 6.41367287,9.27101586 C6.32096241,9.35445527 6.28387823,9.46570782 6.28387823,9.60477351 C6.28387823,9.73456815 6.32096241,9.83654965 6.41367287,9.92926011 C6.50638332,10.0219706 6.62690692,10.0683258 6.75670156,10.0683258 C6.8864962,10.0683258 6.99774874,10.0219706 7.0904592,9.93853115 C7.18316966,9.8458207 7.22952489,9.73456815 7.22952489,9.60477351 C7.22952489,9.46570782 7.18316966,9.35445527 7.0904592,9.27101586 C6.99774874,9.1783054 6.8864962,9.14122122 6.75670156,9.14122122 L6.75670156,9.14122122 Z" id="？"></path>
                    </g>
                </g>
            </g>
        </g>
    </g>
</svg>