<?xml version="1.0" encoding="UTF-8" standalone="no"?>
<svg width="266px" height="175px" viewBox="0 0 266 175" version="1.1" xmlns="http://www.w3.org/2000/svg" xmlns:xlink="http://www.w3.org/1999/xlink">
    <!-- Generator: Sketch 41.2 (35397) - http://www.bohemiancoding.com/sketch -->
    <title>Drag </title>
    <desc>Created with Sketch.</desc>
    <defs></defs>
    <g id="YCH-WORKS" stroke="none" stroke-width="1" fill="none" fill-rule="evenodd">
        <g id="YCH-Blocky界面(弹窗设计）" transform="translate(-3137.000000, -659.000000)">
            <g id="Popout_Trigger-Command" transform="translate(3070.000000, 557.000000)">
                <rect id="Popout_500x380" fill="#FFFFFF" x="0" y="0" width="612" height="380"></rect>
                <g id="Drag-" transform="translate(41.000000, 78.000000)">
                    <g id="Group-30" transform="translate(146.000000, 100.000000) scale(-1, 1) translate(-146.000000, -100.000000) ">
                        <g id="Group" transform="translate(0.052459, 0.773555)">
                            <path d="M209.619814,169.03883 C209.969463,169.094499 210.382221,169.156463 210.855983,169.223142 C212.207753,169.413396 213.778228,169.603551 215.550559,169.780966 C220.611428,170.287572 226.27725,170.591471 232.413257,170.591471 C238.547819,170.591471 244.212266,170.316631 249.271817,169.858476 C251.043598,169.698036 252.61354,169.526081 253.964788,169.354044 C254.438312,169.293757 254.850835,169.237736 255.200252,169.187412 C255.410732,169.157097 255.553888,169.135337 255.627613,169.12356 L255.998807,168.687251 L255.998807,155.882466 L255.407076,155.467526 C255.335192,155.493889 253.933059,154.184445 253.500315,154.261663 C252.753925,154.394847 252.118563,153.735579 250.692544,153.861116 C246.597766,154.221593 212.219224,154.394415 211.481734,154.261663 C211.054878,154.184826 209.571102,155.49749 209.50236,155.471743 L208.907815,155.882831 L208.827715,168.530214 L209.191803,168.968136 C209.265742,168.981193 209.409114,169.005284 209.619814,169.03883 Z" id="Path-12" fill="#666666"></path>
                            <rect id="Rectangle-12" fill="#383838" x="208.412569" y="153.061994" width="47.8714441" height="17.4863388"></rect>
                            <path d="M232.721369,198.190078 L265.740553,198.190078 L265.740553,167.588985 L200.461311,167.588985 L200.461311,193.818493 L188.822312,193.818493 L188.822312,198.190078 L232.721369,198.190078 Z" id="Combined-Shape" fill="#484848"></path>
                            <path d="M10.4155146,76.5592614 L25.5001609,80.4974489 C26.5693302,80.7765797 28.3137616,80.8447098 29.4124902,80.646733 L49.1468763,77.0908494 C50.7762263,76.7972614 53.4022081,76.8416719 55.034681,77.1949139 L82.9220923,83.2293198 C84.0002656,83.4626199 85.7169697,83.9479439 86.7693032,84.3178364 L116.829297,94.883846 C118.393378,95.4336162 119.370864,97.1813882 119.009033,98.8034777 L117.983065,103.402898 C117.622819,105.017881 116.039169,105.928703 114.462367,105.44236 L79.1679462,94.5562844 L62.2478611,95.879293 C62.2478611,95.879293 77.0103929,98.3763325 84.8742978,100.496509 C92.7382027,102.616685 116.819298,110.524828 116.819298,110.524828 C118.388901,111.038029 119.420508,112.774999 119.122838,114.407853 L118.467934,118.000296 C118.170541,119.631631 116.633655,120.581676 115.053853,120.127642 L85.827926,111.728132 C85.3012517,111.576767 84.4326814,111.386513 83.8883344,111.303253 L67.0090045,108.721482 C67.0090045,108.721482 80.3267584,112.811252 86.097488,114.874942 C91.8682176,116.938632 108.831185,121.874291 108.831185,121.874291 C110.419897,122.339818 111.165757,123.955748 110.508545,125.457443 L108.565269,129.897726 C108.01095,131.164315 106.498668,131.847924 105.186505,131.424289 L75.6150711,121.877082 L62.8496096,118.902127 L94.6725006,132.007366 C95.9537638,132.535013 96.5749227,134.002869 96.0588248,135.288587 L94.9233583,138.117293 C94.4077408,139.401814 92.9321173,140.078745 91.6325086,139.630032 C91.6325086,139.630032 76.3188773,134.367046 70.639404,132.191089 C64.9599306,130.015132 58.7212945,127.471497 58.7212945,127.471497 L43.8423881,125.539038 C42.7466698,125.396727 41.0487279,124.882449 40.0600791,124.395367 L16.4836959,112.77988 C14.9974615,112.04765 12.4701351,111.192049 10.8506827,110.871205 L0,108.721482" id="Path-2" stroke="#686868" stroke-linejoin="round" fill="#FFF5F5"></path>
                            <path d="M169.855358,136.237046 L186.202454,140.138742 L232.673197,75.8115308 L232.591774,69.6234291 L238.901489,60.1151233 C239.818988,58.7325155 239.452033,56.853195 238.082464,55.9179478 L234.546832,53.5035462 C233.176997,52.568118 231.26861,52.8926628 230.288355,54.2229744 L169.855358,136.237046 Z" id="Combined-Shape" fill="#474747" transform="translate(204.631021, 96.553818) rotate(-57.000000) translate(-204.631021, -96.553818) "></path>
                            <polygon id="Rectangle-14" fill="#585858" points="196.180806 26.5070593 214.39744 26.5070593 214.39744 31.4250921 196.180806 31.4250921"></polygon>
                            <path d="M262.871734,38.9768489 C263.348237,38.3139856 263.348237,38.3139856 263.448531,38.1745171 L263.110602,38.357442 C263.731374,38.3301242 264.617642,38.0349675 265.492638,37.237769 C265.882459,36.8826084 266.233371,36.4493981 266.536253,35.9325971 C267.769686,33.8280169 267.135716,31.3481099 265.43603,29.996057 C263.702228,28.6168663 260.829501,28.6085755 259.247657,30.4536582 C258.099953,31.7923541 257.769327,33.1561465 257.892566,34.2706803 C257.900542,34.3428126 250.057678,45.2977781 250.057678,45.2977781 C250.02335,45.3406748 248.217889,45.7521576 248.217889,45.7521576 L242.764375,52.4284884 C242.764375,52.4284884 243.176927,54.5706032 243.106672,54.944218 C243.041922,55.2885609 200.424528,117.283402 200.424528,117.283402 C199.803042,118.187592 200.047654,119.410623 200.968603,120.013624 L203.094853,121.405808 C204.016823,122.009477 205.280192,121.757026 205.902872,120.86178 C205.902872,120.86178 262.401494,39.6310667 262.871734,38.9768489 Z" id="Path-19" fill="#474747" transform="translate(233.630238, 75.372471) rotate(-58.000000) translate(-233.630238, -75.372471) "></path>
                            <polygon id="Path-152" fill="#484848" transform="translate(234.276202, 78.974481) scale(-1, 1) translate(-234.276202, -78.974481) " points="255.148445 38.0174821 218.785682 122.426676 213.403959 118.664728 250.206344 35.5222864"></polygon>
                            <rect id="Rectangle-13" fill="#484848" transform="translate(247.475453, 127.797838) rotate(-39.000000) translate(-247.475453, -127.797838) " x="239.286916" y="124.51915" width="16.377073" height="6.55737705"></rect>
                            <path d="M216.281147,28.6423848 C216.281147,27.1783627 215.097913,25.9915382 213.638321,25.9915382 C212.178728,25.9915382 210.995494,27.1783627 210.995494,28.6423848 C210.995494,30.106407 212.178728,31.2932314 213.638321,31.2932314 C215.097913,31.2932314 216.281147,30.106407 216.281147,28.6423848 Z M211.876436,28.6423848 C211.876436,27.6663701 212.665259,26.8751538 213.638321,26.8751538 C214.611382,26.8751538 215.400205,27.6663701 215.400205,28.6423848 C215.400205,29.6183996 214.611382,30.4096159 213.638321,30.4096159 C212.665259,30.4096159 211.876436,29.6183996 211.876436,28.6423848 Z" id="Oval-2" fill="#FFFFFF"></path>
                            <g id="Group-8" transform="translate(127.378754, 60.084644) rotate(12.000000) translate(-127.378754, -60.084644) translate(87.378754, 19.084644)">
                                <path d="M69.9386619,4.98948034 L5.02347258,72.5440253 L5.41497349,72.4094203 C4.45182414,72.3234473 3.40167075,72.5825793 2.40175538,73.4500969 C2.15355662,73.6654319 1.91769259,73.9134577 1.69582844,74.1955986 C0.212134734,76.0823868 0.419347084,78.9820038 2.18790737,80.6160975 C4.04733868,82.334153 7.02648189,82.4299073 9.01941452,80.3864007 C9.37220961,80.0246528 9.64705427,79.5952543 9.85287242,79.1141377 C10.2084661,78.2829086 10.318979,77.4419321 10.3036078,76.7881223 C10.3029231,76.7635148 10.1842728,77.0764703 10.1842728,77.0764703 L74.8939195,9.78378554 L74.5829453,9.92372827 C74.7615591,9.91934464 75.0532184,9.88512274 75.4214979,9.79634576 C76.0294773,9.64978702 76.637342,9.39796588 77.20634,9.01440933 C77.6325616,8.72709711 78.0198352,8.37591581 78.3583022,7.95584941 C79.9771324,5.94674313 79.3704607,3.1665885 77.8357387,1.67726567 C76.2522094,0.140579283 73.6892944,-0.0469206539 71.8208978,1.24954557 C71.2824029,1.6232031 70.8564784,2.06007264 70.5347857,2.54705207 C69.9222156,3.47436275 69.7484569,4.43791311 69.8126571,5.24171729 C69.8167493,5.29295294 69.9386619,4.98948034 69.9386619,4.98948034 Z" id="Path-23" fill="#474747"></path>
                                <path d="M77.1983561,5.02859243 C77.1983561,3.56457027 76.0151225,2.37774582 74.5555298,2.37774582 C73.0959372,2.37774582 71.9127036,3.56457027 71.9127036,5.02859243 C71.9127036,6.49261459 73.0959372,7.67943904 74.5555298,7.67943904 C76.0151225,7.67943904 77.1983561,6.49261459 77.1983561,5.02859243 Z M72.7936457,5.02859243 C72.7936457,4.05257766 73.5824681,3.26136136 74.5555298,3.26136136 C75.5285916,3.26136136 76.317414,4.05257766 76.317414,5.02859243 C76.317414,6.0046072 75.5285916,6.7958235 74.5555298,6.7958235 C73.5824681,6.7958235 72.7936457,6.0046072 72.7936457,5.02859243 Z" id="Oval-2-Copy-2" fill="#FFFFFF"></path>
                                <path d="M8.16951489,77.2174559 C8.16951489,75.7534337 6.98628128,74.5666093 5.52668865,74.5666093 C4.06709603,74.5666093 2.88386242,75.7534337 2.88386242,77.2174559 C2.88386242,78.681478 4.06709603,79.8683025 5.52668865,79.8683025 C6.98628128,79.8683025 8.16951489,78.681478 8.16951489,77.2174559 Z M3.76480449,77.2174559 C3.76480449,76.2414411 4.5536269,75.4502248 5.52668865,75.4502248 C6.4997504,75.4502248 7.28857281,76.2414411 7.28857281,77.2174559 C7.28857281,78.1934707 6.4997504,78.984687 5.52668865,78.984687 C4.5536269,78.984687 3.76480449,78.1934707 3.76480449,77.2174559 Z" id="Oval-2-Copy-2" fill="#FFFFFF"></path>
                            </g>
                            <g id="Group-7" transform="translate(193.042796, 41.355071) rotate(-2.000000) translate(-193.042796, -41.355071) translate(168.542796, 27.355071)">
                                <path d="M24.7898091,19.8925698 L23.1285805,19.8925698 L21.0256333,18.8973525 L18.565592,19.2668866 L8.43975154,9.25752196 L4.52938893,5.09888668 L0.16978087,8.0436398 L15.7590837,24.0916656 L15.6388609,23.8401991 C15.7053776,24.3667532 15.949412,25.1233946 16.4918177,25.8820884 C17.1468672,26.7983435 18.0959579,27.4596978 19.3729511,27.7483048 C20.9759509,28.1105909 22.3449402,27.5847558 23.4465826,26.5046346 C23.7425818,26.2144178 23.9966164,25.904503 24.209629,25.5940808 C24.3390524,25.4054727 24.4275739,25.2556531 24.4753998,25.1635635 L24.2669373,25.3616967 L34.5037982,20.6970606 L47.214123,14.4325031 L39.5737732,12.3924702 L24.7898091,19.8925698 Z" id="Path-20" fill="#474747"></path>
                                <path d="M2.22836011,0.204457425 L3.84774583,4.45773748 L6.80870751,9.1557309 L9.06015196,6.76824309 L36.7474747,12.1593795 L36.6628941,14.5838718 C36.6628941,14.5838718 45.4282581,15.3627627 47.3886522,14.3679004 C49.0653908,13.5169879 47.5742924,9.04654762 47.5742924,9.04654762 L42.2972002,7.90727551 L2.22836011,0.204457425 Z" id="Path-21" fill="#474747"></path>
                                <path d="M35.2226535,12.1213194 C35.4337597,12.146706 35.7221307,12.2090302 36.0018106,12.3262797 C36.3979213,12.4923401 36.5982422,12.6983768 36.5982422,12.9425012 C36.5982422,13.6384457 36.358904,13.8653845 35.1544189,14.4198992 C34.8711235,14.5503821 34.8711235,14.5503821 34.5876243,14.6811942 C34.2840609,14.8213903 34.2840609,14.8213903 33.9807692,14.9617124 C31.6123874,16.0579502 29.1103502,17.2323707 26.6318497,18.4067756 C25.7643983,18.8178059 24.9618345,19.1994823 24.2438183,19.542025 C23.9924876,19.6619269 23.8439579,19.7328858 23.5778192,19.8601526 C23.3834569,19.9531772 23.3834569,19.9531772 23.342479,19.9728269 L23.8857794,20.1076059 C23.7121822,19.8737046 23.3902139,19.5429887 22.9199889,19.2155989 C22.4245953,18.8706857 21.862839,18.6091302 21.2362619,18.4652606 C20.3454818,18.2607267 19.4810857,18.3249199 18.6988118,18.5553474 C18.4258913,18.6357392 18.2233693,18.7179944 18.104682,18.7774648 L18.616639,18.8640031 L8.95656558,8.94320746 C8.86882157,8.86681974 8.77262011,8.76899103 8.67603662,8.63590548 C8.40470294,8.26202593 8.34959625,7.91525554 8.59524581,7.57123992 C8.70608518,7.41601686 8.85066499,7.32063263 9.03208075,7.27022934 C9.23273991,7.2144796 9.4623523,7.2180974 9.67951369,7.2601245 C9.73755768,7.27135771 9.77707075,7.28173332 9.79208569,7.28653224 L35.2226535,12.1213194 Z M9.84640787,6.39251085 C9.50713657,6.3268519 9.14780611,6.32119025 8.79692105,6.41867771 C8.42912727,6.52086298 8.11256047,6.72971289 7.87905369,7.05672337 C7.37429512,7.76360365 7.49230967,8.50623485 7.96380878,9.1559289 C8.10837237,9.3551278 8.25331798,9.50252518 8.3593612,9.59122038 L17.9864121,19.4813977 L18.2109217,19.7119668 L18.4983691,19.5679361 C18.5727158,19.5306832 18.72741,19.4678535 18.9470356,19.4031603 C19.5947888,19.2123574 20.3106303,19.1591965 21.0396839,19.3265959 C21.5507302,19.4439383 22.0105287,19.6580219 22.4176548,19.9414796 C22.6426595,20.0981371 22.8368765,20.2657615 22.9990282,20.4323188 C23.0932292,20.5290792 23.1536192,20.6008576 23.1791423,20.6352469 L23.3955214,20.9267916 L23.7224428,20.7700259 C23.7630659,20.7505463 23.7630659,20.7505463 23.9570423,20.6577064 C24.2227782,20.5306323 24.3711533,20.4597472 24.622198,20.3399817 C25.3395404,19.9977605 26.1414101,19.6164142 27.0081354,19.2057279 C29.484425,18.0323706 31.9841636,16.8590291 34.3498855,15.7640224 C34.652778,15.623885 34.652778,15.623885 34.9559225,15.4838824 C35.239021,15.3532552 35.239021,15.3532552 35.5218967,15.2229656 C37.0105264,14.5376378 37.4791843,14.0932598 37.4791843,12.9425012 C37.4791843,12.2621095 37.0292226,11.7993089 36.3415292,11.5110091 C35.9709267,11.3556424 35.6090152,11.2774242 35.3546155,11.2482766 L10.0077871,6.43148891 C10.0131374,6.42979307 9.94051405,6.41072316 9.84640787,6.39251085 Z" id="Path-22" fill="#474747"></path>
                                <path d="M22.8122091,24.8185792 C22.8122091,23.354557 21.6289755,22.1677326 20.1693829,22.1677326 C18.7097903,22.1677326 17.5265566,23.354557 17.5265566,24.8185792 C17.5265566,26.2826013 18.7097903,27.4694258 20.1693829,27.4694258 C21.6289755,27.4694258 22.8122091,26.2826013 22.8122091,24.8185792 Z M18.4074987,24.8185792 C18.4074987,23.8425644 19.1963211,23.0513481 20.1693829,23.0513481 C21.1424446,23.0513481 21.931267,23.8425644 21.931267,24.8185792 C21.931267,25.794594 21.1424446,26.5858103 20.1693829,26.5858103 C19.1963211,26.5858103 18.4074987,25.794594 18.4074987,24.8185792 Z" id="Oval-2-Copy" fill="#FFFFFF"></path>
                            </g>
                            <path d="M114.609766,119.782511 L126.457856,122.157698 L139.968975,98.8307226 L181.988321,26.2482193 L180.839966,19.0765865 L185.0129,11.0505833 C185.522548,10.0703536 185.094533,9.59884024 184.069177,9.9927136 L177.761961,12.4155247 C177.242196,12.6151839 176.595577,13.1645046 176.320078,13.6383742 L114.609766,119.782511 Z" id="Combined-Shape" fill="#474747" transform="translate(149.918908, 66.005715) rotate(21.000000) translate(-149.918908, -66.005715) "></path>
                            <polygon id="Path-36" fill="#474747" points="75.9263116 92.5306978 74.8669239 92.5306978 74.8669239 93.0199933 74.8669239 103.796234 76.9856994 103.796234 82.7403735 104.252734 93.4749592 104.252734 93.4749592 93.5092888 93.4749592 92.5306978"></polygon>
                            <path d="M252.388575,153.119001 C252.388575,152.320483 252.388575,154.072774 252.388575,150.878702 L252.388575,142.095005 L252.388575,130.307629 C252.388575,128.096511 251.500939,126.554103 250.031128,125.602689 C249.519995,125.271832 248.975031,125.037915 248.430106,124.883237 C248.100559,124.789695 247.839921,124.742777 247.68109,124.726557 C247.615001,124.715875 247.444244,124.689634 247.196405,124.651412 C246.783253,124.587695 246.303973,124.513497 245.764075,124.429575 C244.221425,124.189785 242.502438,123.92017 240.651208,123.626777 C235.362089,122.78853 230.073019,121.927744 225.136885,121.092834 C224.798957,121.035676 224.463599,120.978791 224.130885,120.922189 C218.323519,119.934228 214.889221,121.08778 213.353968,123.671255 C212.988932,124.285524 212.762137,124.940333 212.646605,125.603135 C212.568994,126.048391 212.550326,126.437932 212.565169,126.741785 C212.568501,126.799554 212.568338,153.119001 212.568338,153.119001 L252.388575,153.119001 Z" id="Path-17" fill="#383838"></path>
                            <path d="M221.398551,145.714957 C221.398551,145.95896 221.595757,146.156765 221.839022,146.156765 L242.729675,146.156765 C242.97294,146.156765 243.170146,145.95896 243.170146,145.714957 L243.170146,134.126955 C243.170146,133.882951 242.97294,133.685147 242.729675,133.685147 L221.839022,133.685147 C221.595757,133.685147 221.398551,133.882951 221.398551,134.126955 L221.398551,145.714957 Z" id="Path-18" fill="#585858"></path>
                            <path d="M221.398551,145.714957 C221.398551,145.95896 221.595757,146.156765 221.839022,146.156765 L242.729675,146.156765 C242.97294,146.156765 243.170146,145.95896 243.170146,145.714957 L243.170146,134.126955 C243.170146,133.882951 242.97294,133.685147 242.729675,133.685147 L221.839022,133.685147 C221.595757,133.685147 221.398551,133.882951 221.398551,134.126955 L221.398551,145.714957 Z" id="Path-18" fill="#585858"></path>
                            <path d="M225.827186,140.37754 C225.827186,140.441686 225.938443,140.493688 226.075685,140.493688 L237.861492,140.493688 C237.998734,140.493688 238.109991,140.441686 238.109991,140.37754 L238.109991,137.331147 C238.109991,137.267 237.998734,137.214999 237.861492,137.214999 L226.075685,137.214999 C225.938443,137.214999 225.827186,137.267 225.827186,137.331147 L225.827186,140.37754 Z" id="Path-18" fill="#FF7439"></path>
                            <path d="M96.8321625,112.367204 L70.9484458,112.367204 L70.5079748,112.367204 L70.5079748,111.925396 L70.5079748,106.767701 L70.5079748,106.622155 L70.5942196,106.505108 L83.0623004,89.5839956 L83.7707528,90.1091819 L71.302672,107.030294 L71.3889169,106.767701 L71.3889169,111.925396 L70.9484458,111.483589 L103.474236,111.483589 L103.033765,111.925396 L70.9484458,111.483589 L71.302672,106.538319 L83.0623004,90.1091819 C83.0623004,90.1091819 85.3312146,91.3294908 86.4477324,91.2461811 C87.6773983,91.1544287 90.1008517,89.5839956 90.1008517,89.5839956 C90.1008517,89.5839956 90.4372135,98.9783895 90.4371775,98.9796671 C90.429771,99.3212867 90.5375456,99.8178185 90.8690596,100.304353 C91.4595855,101.171017 92.5908787,101.702523 94.4665969,101.702523 L97.0794103,101.702523 L102.524967,101.702523 C104.505169,101.702523 104.505169,101.702523 105.002232,101.702528 C105.158561,101.703244 105.415505,101.723299 105.740886,101.78057 C106.280526,101.875552 106.820842,102.044752 107.329117,102.308477 C108.80037,103.071855 109.693729,104.454256 109.693729,106.538319 C109.693729,108.631973 108.774296,109.967577 107.264738,110.6364 C106.794383,110.844796 106.295751,110.97401 105.792164,111.040433 C105.45754,111.08457 105.166862,111.095803 104.92027,111.087145 L103.474236,111.087145 L103.914707,110.645338 L103.914707,111.925396 L103.914707,112.367204 L103.474236,112.367204 L103.11366,112.367204 L103.11366,113.636527 L103.11366,113.903435 L102.878112,114.02761 L102.287845,114.338784 L102.191624,114.389509 L102.082922,114.389509 L97.2726335,114.389509 L96.8321625,114.389509 L96.8321625,113.947702 L96.8321625,112.367204 Z" id="Combined-Shape" fill="#474747"></path>
                            <path d="M89.3616685,124.9473 L89.3616685,124.614282 L90.7168046,124.614282 L91.1572756,124.614282 L91.1572756,124.172474 L91.1572756,124.065336 L91.9658827,124.065336 L92.3969168,124.065336 L92.4062505,123.633095 L92.4392433,122.105206 L92.0004463,122.537444 L95.7144712,122.524159 L96.1533714,122.522589 L96.1533714,122.082354 L96.1533714,117.146929 L96.1533714,116.705121 L95.7129004,116.705121 L91.1572756,116.705121 L91.1572756,115.264283 L94.2778247,115.264283 L94.7182957,115.264283 L94.7182957,114.822475 L94.7182957,113.271569 L94.7182957,112.829762 L94.2778247,112.829762 L89.3616685,112.829762 L89.3616685,112.229209 L83.8166153,111.955218 L83.8166153,112.829762 L74.4807742,112.829762 L74.0403032,112.829762 L74.0403032,113.271569 L74.0403032,114.822475 L74.0403032,115.264283 L74.4807742,115.264283 L81.9870171,115.264283 L81.9870171,124.172474 L81.9870171,124.614282 L82.4274881,124.614282 L84.1336152,124.614282 L84.1336152,124.9473 L80.6573272,124.9473 L80.2168562,124.9473 L80.2168562,125.389107 L80.2168562,130.740632 L80.2168562,131.18244 L80.6573272,131.18244 L92.654321,131.18244 L93.0953095,131.18244 L93.0947918,130.740113 L93.0885275,125.388589 L93.0880109,124.9473 L92.6480567,124.9473 L89.3616685,124.9473 Z" id="Combined-Shape" fill="#474747"></path>
                            <path d="M80.8559696,136.191783 C80.8559696,136.329818 80.9202885,136.45992 81.0298336,136.543469 L82.0370377,137.311655 L82.0366815,136.608556 L80.4801213,137.798237 C80.2442841,137.978488 80.2497738,138.336253 80.4910297,138.509139 L82.2161982,139.745405 L82.1381186,139.098046 L80.2080145,141.351953 C79.9830321,141.61468 80.1332058,142.023091 80.4743853,142.076372 C80.5854363,142.093715 80.7889894,142.123758 81.0690085,142.162265 C81.5347233,142.22631 82.0447215,142.290327 82.5830223,142.350081 C83.572822,142.459953 84.5439634,142.542751 85.4557086,142.587462 C85.9435083,142.611383 86.4061822,142.623892 86.8399717,142.623892 C88.090369,142.623892 89.2874857,142.563085 90.3903312,142.461691 C90.776889,142.426152 91.1243353,142.388033 91.4275241,142.349848 C91.6107373,142.326774 91.7393374,142.308664 91.8081693,142.298028 C92.0174362,142.265693 92.1741562,142.088584 92.1813241,141.876328 L92.2394173,140.156071 C92.243856,140.024632 92.1896842,139.898041 92.0916338,139.810727 L91.3155762,139.119642 L91.3746895,139.716218 L92.5969457,138.092206 C92.754963,137.882248 92.6961834,137.581161 92.4708862,137.446491 L91.007367,136.57168 L90.9812997,137.345139 L92.2835682,136.681882 C92.4314515,136.606563 92.5246176,136.454307 92.5246176,136.287948 L92.5246176,130.698062 L81.7369117,130.864581 L80.8559696,130.864581 L80.8559696,136.191783 Z" id="Path-51" fill="#DDDDDD"></path>
                            <polygon id="Path-54" fill="#575757" points="263.385717 167.948498 264.266659 167.948498 264.266659 165.89206 264.266659 165.70689 264.135034 165.577055 263.220718 164.675168 263.092168 164.548366 262.911872 164.548366 258.882036 164.548366 258.706502 164.548366 258.579081 164.669465 257.63011 165.571351 257.492594 165.702044 257.492594 168.192933"></polygon>
                            <path d="M108.019605,106.558288 C108.019605,105.094266 106.836371,103.907442 105.376778,103.907442 C103.917186,103.907442 102.733952,105.094266 102.733952,106.558288 C102.733952,108.02231 103.917186,109.209135 105.376778,109.209135 C106.836371,109.209135 108.019605,108.02231 108.019605,106.558288 Z M103.614894,106.558288 C103.614894,105.582273 104.403717,104.791057 105.376778,104.791057 C106.34984,104.791057 107.138663,105.582273 107.138663,106.558288 C107.138663,107.534303 106.34984,108.325519 105.376778,108.325519 C104.403717,108.325519 103.614894,107.534303 103.614894,106.558288 Z" id="Oval-2-Copy-3" fill="#FFFFFF"></path>
                            <path d="M61.0504923,78.6050929 L73.9402525,84.8987796 C74.9351537,85.3845602 76.398765,86.38759 77.2040704,87.1342422 L90.2801769,99.2579698 C91.0878325,100.006801 90.9321035,101.005963 89.9477289,101.482219 L87.6111907,102.612671 C86.120076,103.334095 83.6509398,103.432446 82.1097927,102.837583 L65.6946406,96.5015419 C65.1802577,96.3029966 64.3355525,96.2616538 63.7989827,96.4117048 L50.7013262,100.074445 C49.6360435,100.372349 47.8793622,100.529295 46.7907011,100.426226 L39.0948582,99.6976238" id="Path-3" stroke="#686868" stroke-linecap="round" fill="#FFF5F5"></path>
                        </g>
                    </g>
                </g>
            </g>
        </g>
    </g>
</svg>