<?xml version="1.0" encoding="UTF-8" standalone="no"?>
<svg width="255px" height="167px" viewBox="0 0 255 167" version="1.1" xmlns="http://www.w3.org/2000/svg" xmlns:xlink="http://www.w3.org/1999/xlink">
    <!-- Generator: Sketch 41.2 (35397) - http://www.bohemiancoding.com/sketch -->
    <title>Drag 示意图</title>
    <desc>Created with Sketch.</desc>
    <defs></defs>
    <g id="YCH-WORKS" stroke="none" stroke-width="1" fill="none" fill-rule="evenodd">
        <g id="YCH-Blocky界面(弹窗设计）" transform="translate(-1652.000000, -645.000000)">
            <g id="Popout_Motion" transform="translate(1602.000000, 558.000000)">
                <g id="Drag-示意图" transform="translate(50.000000, 64.000000)">
                    <path d="M200.575532,161.305849 C200.910095,161.358927 201.305045,161.418007 201.758366,161.481583 C203.051812,161.662982 204.554528,161.844286 206.250389,162.013444 C211.092901,162.496472 216.514265,162.786227 222.385527,162.786227 C228.255406,162.786227 233.675455,162.524179 238.516706,162.087347 C240.212042,161.934374 241.714246,161.770422 243.007193,161.606392 C243.460286,161.54891 243.855011,161.495497 244.189352,161.447515 C244.390751,161.418612 244.52773,161.397864 244.598274,161.386635 L244.953452,160.970633 L244.953452,148.761802 L244.387252,148.366174 C244.31847,148.39131 242.976833,147.142809 242.56276,147.216433 C241.848574,147.343418 241.240625,146.714834 239.876134,146.834528 C235.95803,147.178228 203.062788,147.343006 202.357118,147.216433 C201.948679,147.143173 200.528922,148.394743 200.463147,148.370194 L199.894253,148.762149 L199.81761,160.820904 L200.165989,161.238445 C200.236737,161.250894 200.373924,161.273864 200.575532,161.305849 Z" id="Path-12" fill="#666666"></path>
                    <rect id="Rectangle-12" fill="#383838" x="199.420376" y="146.072598" width="45.8059771" height="16.6724983"></rect>
                    <path d="M222.680345,189.100353 L254.27488,189.100353 L254.27488,159.923481 L191.812184,159.923481 L191.812184,184.932229 L180.675362,184.932229 L180.675362,189.100353 L222.680345,189.100353 Z" id="Combined-Shape" fill="#484848"></path>
                    <path d="M9.9661256,73.130418 L24.3201103,76.8645521 C25.3872311,77.1421595 27.1342666,77.2088503 28.2235824,77.013266 L46.896526,73.6605801 C48.5272919,73.3677797 51.1569888,73.41238 52.7857491,73.763568 L79.2504044,79.4697909 C80.3339301,79.7034172 82.0517559,80.1868278 83.0972774,80.5530218 L111.660441,90.5572728 C113.227799,91.1062403 114.206863,92.853563 113.841388,94.4861767 L112.925421,98.5778902 C112.562567,100.198796 110.990193,101.11995 109.403045,100.632153 L75.7521566,90.2898326 L59.5621075,91.5512664 C59.5621075,91.5512664 73.6876934,93.9320899 81.2123013,95.9535898 C88.7369092,97.9750898 111.653011,105.47423 111.653011,105.47423 C113.224473,105.98616 114.257432,107.718255 113.958079,109.354517 L113.381574,112.505687 C113.083166,114.136781 111.542399,115.087077 109.950552,114.631205 L82.1761631,106.677191 C81.6438369,106.524744 80.7725603,106.334139 80.2193415,106.249822 L64.1178261,103.795761 C64.1178261,103.795761 76.8609705,107.695186 82.3827156,109.662829 C87.9044606,111.630472 104.008513,116.299183 104.008513,116.299183 C105.598834,116.763608 106.344724,118.377153 105.681558,119.887075 L103.926973,123.881983 C103.371235,125.147308 101.850708,125.828827 100.547526,125.409584 L72.3525743,116.339079 L60.1378929,113.502583 L90.4973002,125.960768 C91.7732357,126.484357 92.3898083,127.945895 91.8747634,129.224437 L90.8672799,131.725402 C90.3520962,133.004288 88.8837264,133.680297 87.5691375,133.22797 C87.5691375,133.22797 73.026014,128.247742 67.5915879,126.173057 C62.1571618,124.098372 56.1876986,121.673122 56.1876986,121.673122 L42.0308924,119.840973 C40.9381937,119.699558 39.248674,119.190355 38.2486641,118.699423 L15.8954349,107.725632 C14.4054243,106.994147 11.8838529,106.14182 10.2521748,105.819701 L0,103.795761" id="Path-2" stroke="#686868" stroke-linejoin="round" fill="#FFF5F5"></path>
                    <path d="M162.560849,130.039983 L178.202632,133.760088 L222.668343,72.4267621 L222.590432,66.5266639 L228.55314,57.5731599 C229.472346,56.1928952 229.104161,54.3163874 227.734169,53.3841714 L224.571189,51.2319096 C223.199678,50.2986598 221.29137,50.619183 220.306324,51.9512528 L162.560849,130.039983 Z" id="Combined-Shape" fill="#474747" transform="translate(195.810031, 92.228892) rotate(-57.000000) translate(-195.810031, -92.228892) "></path>
                    <polygon id="Rectangle-14" fill="#585858" points="187.716366 25.4077207 205.147022 25.4077207 205.147022 30.0968608 187.716366 30.0968608"></polygon>
                    <path d="M251.505582,37.2904825 C251.961525,36.6584699 251.961525,36.6584699 252.057492,36.5254924 L251.734143,36.6999038 C252.328131,36.6738573 253.17616,36.3924377 254.013404,35.632342 C254.386405,35.2937111 254.722177,34.880663 255.011991,34.3879147 C256.192206,32.3812849 255.585589,30.0167965 253.959238,28.7276702 C252.300243,27.412669 249.551463,27.4047642 248.037869,29.1639739 C246.939684,30.4403649 246.623324,31.7406844 246.741246,32.803346 C246.748877,32.8721213 239.244402,43.3172262 239.244402,43.3172262 C239.211555,43.3581264 237.483993,43.7504582 237.483993,43.7504582 L232.265776,50.1160625 C232.265776,50.1160625 232.660528,52.1584801 232.593305,52.5147062 C232.531348,52.8430229 191.8064,111.874719 191.8064,111.874719 C191.182087,112.779801 191.4252,114.002333 192.35932,114.611787 L194.221851,115.826971 C195.151533,116.43353 196.416022,116.193404 197.044706,115.292733 C197.044706,115.292733 251.05563,37.914252 251.505582,37.2904825 Z" id="Path-19" fill="#474747" transform="translate(223.544202, 71.974676) rotate(-58.000000) translate(-223.544202, -71.974676) "></path>
                    <polygon id="Path-152" fill="#484848" transform="translate(224.168093, 75.433230) scale(-1, 1) translate(-224.168093, -75.433230) " points="244.13978 36.3824311 209.345929 116.863095 204.196407 113.276233 239.410911 34.0033655"></polygon>
                    <rect id="Rectangle-13" fill="#484848" transform="translate(236.797848, 121.984275) rotate(-39.000000) translate(-236.797848, -121.984275) " x="228.962615" y="118.858181" width="15.6704658" height="6.25218687"></rect>
                    <path d="M206.949455,27.4436649 C206.949455,26.0477806 205.817273,24.9161927 204.420656,24.9161927 C203.024039,24.9161927 201.891858,26.0477806 201.891858,27.4436649 C201.891858,28.8395493 203.024039,29.9711372 204.420656,29.9711372 C205.817273,29.9711372 206.949455,28.8395493 206.949455,27.4436649 Z M202.734791,27.4436649 C202.734791,26.5130753 203.489578,25.7586834 204.420656,25.7586834 C205.351734,25.7586834 206.106522,26.5130753 206.106522,27.4436649 C206.106522,28.3742545 205.351734,29.1286464 204.420656,29.1286464 C203.489578,29.1286464 202.734791,28.3742545 202.734791,27.4436649 Z" id="Oval-2" fill="#FFFFFF"></path>
                    <g id="Group-8" transform="translate(121.529845, 57.764734) rotate(12.000000) translate(-121.529845, -57.764734) translate(83.529845, 18.264734)">
                        <path d="M66.9210801,4.75726243 L4.80672924,69.1677173 L5.1813384,69.0393771 C4.25974521,68.9574054 3.25490186,69.204477 2.29812896,70.031619 C2.06063901,70.236932 1.8349516,70.4734143 1.62266002,70.7424239 C0.202981944,72.5413983 0.401253885,75.3060627 2.09350766,76.8641032 C3.87271172,78.5021979 6.72331647,78.5934956 8.6302618,76.6450968 C8.96783514,76.3001852 9.23082132,75.8907716 9.42775922,75.4320469 C9.76801041,74.6395044 9.87375509,73.8376682 9.85904714,73.2142877 C9.85839193,73.1908255 9.74486093,73.4892155 9.74486093,73.4892155 L71.6625376,9.32843346 L71.3649807,9.46186304 C71.535888,9.45768344 71.8149634,9.42505428 72.167353,9.34040911 C72.7491005,9.20067143 73.3307382,8.96057042 73.8751861,8.59486517 C74.2830179,8.3209249 74.6535822,7.9860881 74.9774456,7.58557223 C76.5264296,5.66997277 75.9459334,3.01921071 74.4774287,1.59920321 C72.9622226,0.134036512 70.5098873,-0.0447368962 68.7221048,1.19138984 C68.2068439,1.54765679 67.7992964,1.96419376 67.4914835,2.42850844 C66.9053434,3.31266069 66.7390817,4.23136597 66.8005119,4.99775989 C66.8044276,5.04661096 66.9210801,4.75726243 66.9210801,4.75726243 Z" id="Path-23" fill="#474747"></path>
                        <path d="M73.8675466,4.79455418 C73.8675466,3.39866982 72.735365,2.26708196 71.3387481,2.26708196 C69.9421312,2.26708196 68.8099496,3.39866982 68.8099496,4.79455418 C68.8099496,6.19043855 69.9421312,7.32202641 71.3387481,7.32202641 C72.735365,7.32202641 73.8675466,6.19043855 73.8675466,4.79455418 Z M69.6528824,4.79455418 C69.6528824,3.86396461 70.4076702,3.1095727 71.3387481,3.1095727 C72.269826,3.1095727 73.0246138,3.86396461 73.0246138,4.79455418 C73.0246138,5.72514376 72.269826,6.47953567 71.3387481,6.47953567 C70.4076702,6.47953567 69.6528824,5.72514376 69.6528824,4.79455418 Z" id="Oval-2-Copy-2" fill="#FFFFFF"></path>
                        <path d="M7.81703203,73.6236395 C7.81703203,72.2277551 6.68485036,71.0961672 5.28823349,71.0961672 C3.89161662,71.0961672 2.75943495,72.2277551 2.75943495,73.6236395 C2.75943495,75.0195238 3.89161662,76.1511117 5.28823349,76.1511117 C6.68485036,76.1511117 7.81703203,75.0195238 7.81703203,73.6236395 Z M3.60236779,73.6236395 C3.60236779,72.6930499 4.35715558,71.938658 5.28823349,71.938658 C6.2193114,71.938658 6.97409918,72.6930499 6.97409918,73.6236395 C6.97409918,74.5542291 6.2193114,75.308621 5.28823349,75.308621 C4.35715558,75.308621 3.60236779,74.5542291 3.60236779,73.6236395 Z" id="Oval-2-Copy-2" fill="#FFFFFF"></path>
                    </g>
                    <g id="Group-7" transform="translate(184.776074, 39.714191) rotate(-2.000000) translate(-184.776074, -39.714191) translate(161.276074, 26.214191)">
                        <path d="M23.720225,18.9667398 L22.130672,18.9667398 L20.1184588,18.0178413 L17.7645587,18.3701767 L8.07560902,8.82666298 L4.33396338,4.86157683 L0.162455484,7.66927672 L15.0791404,22.9704033 L14.9641048,22.7306404 C15.0277515,23.2326879 15.2612568,23.9541141 15.7802598,24.6774971 C16.4070465,25.5511083 17.3151875,26.1816822 18.5370835,26.456857 C20.07092,26.8022817 21.3808427,26.3009199 22.4349535,25.2710691 C22.7181816,24.9943594 22.9612555,24.6988685 23.1650775,24.4028938 C23.2889168,24.2230638 23.3736189,24.080217 23.4193813,23.9924135 L23.2199132,24.1813252 L33.0150932,19.7337883 L45.1770169,13.7607927 L37.8663185,11.815706 L23.720225,18.9667398 Z" id="Path-20" fill="#474747"></path>
                        <path d="M2.13221502,0.194941669 L3.68173053,4.25026768 L6.51493821,8.72960943 L8.66924157,6.45323889 L35.1619638,11.5934637 L35.0810325,13.9051165 C35.0810325,13.9051165 43.4682051,14.6477566 45.3440158,13.6991968 C46.9484097,12.887887 45.5216463,8.6255077 45.5216463,8.6255077 L40.4722402,7.53925903 L2.13221502,0.194941669 Z" id="Path-21" fill="#474747"></path>
                        <path d="M33.7029327,11.557175 C33.9049305,11.5813801 34.1808594,11.6408036 34.4484722,11.7525961 C34.8274923,11.9109278 35.0191701,12.1073753 35.0191701,12.3401378 C35.0191701,13.0036919 34.7901584,13.2200686 33.6376422,13.7487754 C33.3665699,13.8731855 33.3665699,13.8731855 33.0953026,13.9979093 C32.8048367,14.1315805 32.8048367,14.1315805 32.5146309,14.2653718 C30.2484356,15.3105891 27.8543516,16.4303503 25.4827887,17.5500966 C24.6527645,17.941997 23.8848282,18.3059096 23.1977917,18.6325098 C22.9573048,18.7468313 22.8151837,18.8144877 22.5605278,18.9358312 C22.3745515,19.0245263 22.3745515,19.0245263 22.3353416,19.0432615 L22.8552008,19.1717677 C22.6890936,18.9487525 22.381017,18.6334286 21.9310804,18.321276 C21.457061,17.9924156 20.9195424,17.7430333 20.3199997,17.6058596 C19.4676532,17.4108451 18.6405525,17.4720506 17.8920306,17.6917536 C17.6308856,17.7684039 17.4371017,17.8468308 17.3235353,17.9035334 L17.8134033,17.9860441 L8.57012454,8.52697715 C8.48616634,8.45414463 8.3941156,8.36086901 8.30169931,8.23397746 C8.04207264,7.87749883 7.98934358,7.54686765 8.22439431,7.21886304 C8.3304514,7.0708643 8.46879315,6.97991939 8.64238153,6.93186194 C8.83438302,6.87870688 9.05408852,6.8821563 9.26188024,6.92222739 C9.31741986,6.9329378 9.3552281,6.94283051 9.3695952,6.94740608 L33.7029327,11.557175 Z M9.42157359,6.09499379 C9.09694053,6.03239071 8.75311378,6.02699256 8.41736805,6.11994281 C8.06544314,6.21737222 7.76253498,6.41650194 7.5391031,6.72829287 C7.05612291,7.40227387 7.16904559,8.1103419 7.62020134,8.72979822 C7.75852757,8.9197261 7.89721934,9.06026338 7.99868721,9.14483058 L17.2103682,18.5747042 L17.4251911,18.7945423 L17.7002362,18.6572149 C17.7713752,18.6216959 17.919395,18.5617903 18.1295446,18.5001081 C18.7493497,18.3181854 19.4343055,18.2674987 20.1319032,18.4271071 C20.6208999,18.5389882 21.0608598,18.743108 21.45042,19.0133732 C21.6657167,19.1627396 21.8515539,19.3225625 22.0067094,19.481368 C22.096846,19.573625 22.1546304,19.6420627 22.1790523,19.6748515 L22.3860955,19.9528272 L22.6989115,19.8033577 C22.7377818,19.7847847 22.7377818,19.7847847 22.9233889,19.6962657 C23.1776593,19.5751058 23.3196327,19.5075198 23.5598458,19.3933284 C24.2462376,19.0670347 25.0135098,18.7034368 25.8428392,18.3118644 C28.2122865,17.193117 30.604171,16.0743846 32.8678213,15.0303411 C33.1576451,14.896726 33.1576451,14.896726 33.4477101,14.7632392 C33.7185941,14.6386916 33.7185941,14.6386916 33.9892648,14.5144659 C35.4136659,13.8610343 35.8621029,13.4373383 35.8621029,12.3401378 C35.8621029,11.6914125 35.4315554,11.2501514 34.7735333,10.9752694 C34.4189208,10.8271338 34.0726244,10.752556 33.829201,10.7247649 L9.57598991,6.13215776 C9.58110935,6.13054084 9.51161945,6.11235847 9.42157359,6.09499379 Z" id="Path-22" fill="#474747"></path>
                        <path d="M21.8279508,23.6634852 C21.8279508,22.2676009 20.6957692,21.136013 19.2991523,21.136013 C17.9025354,21.136013 16.7703538,22.2676009 16.7703538,23.6634852 C16.7703538,25.0593696 17.9025354,26.1909575 19.2991523,26.1909575 C20.6957692,26.1909575 21.8279508,25.0593696 21.8279508,23.6634852 Z M17.6132866,23.6634852 C17.6132866,22.7328956 18.3680744,21.9785037 19.2991523,21.9785037 C20.2302302,21.9785037 20.985018,22.7328956 20.985018,23.6634852 C20.985018,24.5940748 20.2302302,25.3484667 19.2991523,25.3484667 C18.3680744,25.3484667 17.6132866,24.5940748 17.6132866,23.6634852 Z" id="Oval-2-Copy" fill="#FFFFFF"></path>
                    </g>
                    <path d="M109.641908,114.35308 L120.977226,116.612977 L133.914292,94.3649477 L174.148357,25.1396253 L173.052552,18.3018809 L177.002884,10.7347333 C177.516127,9.75157894 177.095836,9.27504696 176.060984,9.67157834 L170.143096,11.9391748 C169.627556,12.1367175 168.981937,12.6869565 168.703646,13.1637476 L109.641908,114.35308 Z" id="Combined-Shape" fill="#474747" transform="translate(143.431782, 63.072425) rotate(21.000000) translate(-143.431782, -63.072425) "></path>
                    <polygon id="Path-36" fill="#474747" points="72.650386 88.3585198 71.6367067 88.3585198 71.6367067 88.8250428 71.6367067 99.0997412 73.6640653 99.0997412 79.1704475 99.5349953 89.4418775 99.5349953 89.4418775 89.2915657 89.4418775 88.3585198"></polygon>
                    <path d="M241.498987,146.126952 C241.498987,145.365598 241.498987,147.036335 241.498987,143.99092 L241.498987,135.616029 L241.498987,124.377256 C241.498987,122.269047 240.64965,120.798425 239.243255,119.891291 C238.754176,119.575832 238.232724,119.352802 237.711311,119.205323 C237.395983,119.116134 237.14659,119.071401 236.994612,119.055935 C236.931375,119.04575 236.767985,119.020731 236.530839,118.984288 C236.135514,118.923536 235.676912,118.852792 235.160309,118.772776 C233.684219,118.544146 232.039399,118.287078 230.268042,118.007341 C225.207128,117.208107 220.146262,116.387383 215.423102,115.591331 C215.099755,115.536834 214.778866,115.482596 214.460507,115.428628 C208.903706,114.486648 205.617585,115.586513 204.148572,118.049748 C203.799287,118.635429 203.582277,119.259762 203.47173,119.891716 C203.397467,120.316249 203.379604,120.68766 203.393807,120.977372 C203.396995,121.032452 203.396839,146.126952 203.396839,146.126952 L241.498987,146.126952 Z" id="Path-17" fill="#383838"></path>
                    <path d="M211.846063,139.067503 C211.846063,139.300151 212.03476,139.488749 212.26753,139.488749 L232.256831,139.488749 C232.489601,139.488749 232.678298,139.300151 232.678298,139.067503 L232.678298,128.018824 C232.678298,127.786177 232.489601,127.597579 232.256831,127.597579 L212.26753,127.597579 C212.03476,127.597579 211.846063,127.786177 211.846063,128.018824 L211.846063,139.067503 Z" id="Path-18" fill="#585858"></path>
                    <path d="M211.846063,139.067503 C211.846063,139.300151 212.03476,139.488749 212.26753,139.488749 L232.256831,139.488749 C232.489601,139.488749 232.678298,139.300151 232.678298,139.067503 L232.678298,128.018824 C232.678298,127.786177 232.489601,127.597579 232.256831,127.597579 L212.26753,127.597579 C212.03476,127.597579 211.846063,127.786177 211.846063,128.018824 L211.846063,139.067503 Z" id="Path-18" fill="#585858"></path>
                    <path d="M216.08362,133.978498 C216.08362,134.039659 216.190076,134.08924 216.321397,134.08924 L227.598692,134.08924 C227.730013,134.08924 227.836469,134.039659 227.836469,133.978498 L227.836469,131.073889 C227.836469,131.012727 227.730013,130.963147 227.598692,130.963147 L216.321397,130.963147 C216.190076,130.963147 216.08362,131.012727 216.08362,131.073889 L216.08362,133.978498 Z" id="Path-18" fill="#FF7439"></path>
                    <path d="M92.6542305,107.271805 L67.8872958,107.271805 L67.4658294,107.271805 L67.4658294,106.85056 L67.4658294,101.932911 L67.4658294,101.79414 L67.5483531,101.68254 L79.4784845,85.5489616 L80.15637,86.0497049 L68.2262385,102.183283 L68.3087622,101.932911 L68.3087622,106.85056 L67.8872958,106.429315 L99.0097247,106.429315 L98.5882582,106.85056 L67.8872958,106.429315 L68.2262385,101.714206 L79.4784845,86.0497049 C79.4784845,86.0497049 81.6495039,87.2132188 82.7178483,87.1337865 C83.8944589,87.0463044 86.2133496,85.5489616 86.2133496,85.5489616 C86.2133496,85.5489616 86.5351988,94.5061262 86.5351643,94.5073444 C86.5280774,94.8330645 86.6312019,95.306487 86.9484123,95.7703775 C87.5134594,96.5967058 88.5959417,97.1034746 90.3907299,97.1034746 L92.8908106,97.1034746 L98.1014122,97.1034746 C99.9961764,97.1034746 99.9961764,97.1034746 100.471794,97.103479 C100.621377,97.1041622 100.867235,97.1232839 101.178577,97.1778887 C101.694934,97.2684501 102.211937,97.4297759 102.698282,97.6812263 C104.106056,98.4090754 104.96087,99.7271376 104.96087,101.714206 C104.96087,103.710417 104.081107,104.98386 102.636681,105.621556 C102.18662,105.820252 101.709502,105.943452 101.227643,106.006784 C100.907456,106.048867 100.62932,106.059577 100.393367,106.051322 L99.0097247,106.051322 L99.4311911,105.630077 L99.4311911,106.85056 L99.4311911,107.271805 L99.0097247,107.271805 L98.6647059,107.271805 L98.6647059,108.482052 L98.6647059,108.736537 L98.4393211,108.854933 L97.874522,109.151625 L97.7824522,109.19999 L97.6784403,109.19999 L93.075697,109.19999 L92.6542305,109.19999 L92.6542305,108.778744 L92.6542305,107.271805 Z" id="Combined-Shape" fill="#474747"></path>
                    <path d="M85.5060594,119.266404 L85.5060594,118.948886 L86.8027266,118.948886 L87.224193,118.948886 L87.224193,118.52764 L87.224193,118.425488 L87.9979118,118.425488 L88.4103485,118.425488 L88.4192794,118.013365 L88.4508487,116.556586 L88.0309841,116.968707 L91.5847633,116.95604 L92.0047267,116.954543 L92.0047267,116.534797 L92.0047267,111.829075 L92.0047267,111.407829 L91.5832602,111.407829 L87.224193,111.407829 L87.224193,110.034049 L90.2101025,110.034049 L90.6315689,110.034049 L90.6315689,109.612804 L90.6315689,108.13408 L90.6315689,107.712835 L90.2101025,107.712835 L85.5060594,107.712835 L85.5060594,107.140233 L80.2002537,106.878994 L80.2002537,107.712835 L71.2672179,107.712835 L70.8457515,107.712835 L70.8457515,108.13408 L70.8457515,109.612804 L70.8457515,110.034049 L71.2672179,110.034049 L78.4495955,110.034049 L78.4495955,118.52764 L78.4495955,118.948886 L78.871062,118.948886 L80.5035762,118.948886 L80.5035762,119.266404 L77.1772766,119.266404 L76.7558102,119.266404 L76.7558102,119.68765 L76.7558102,124.790106 L76.7558102,125.211352 L77.1772766,125.211352 L88.6566467,125.211352 L89.0786083,125.211352 L89.0781128,124.789612 L89.0721188,119.687155 L89.0716245,119.266404 L88.6506527,119.266404 L85.5060594,119.266404 Z" id="Combined-Shape" fill="#474747"></path>
                    <path d="M77.3673483,129.987553 C77.3673483,130.119163 77.4288922,130.24321 77.5337108,130.32287 L78.4974579,131.055304 L78.4971171,130.384928 L77.0077164,131.51924 C76.7820547,131.691102 76.7873076,132.032216 77.0181542,132.197055 L78.6688883,133.375784 L78.5941776,132.758554 L76.74735,134.907561 C76.5320747,135.158059 76.675769,135.547462 77.002228,135.598264 C77.1084876,135.6148 77.3032581,135.643444 77.5711954,135.68016 C78.0168165,135.741223 78.5048103,135.802261 79.0198854,135.859234 C79.9669791,135.963992 80.8962195,136.042937 81.7686264,136.085567 C82.2353795,136.108374 82.6780908,136.120301 83.093164,136.120301 C84.2896115,136.120301 85.4350773,136.062324 86.4903393,135.96565 C86.8602186,135.931764 87.1926739,135.89542 87.4827813,135.859012 C87.6580896,135.837012 87.7811411,135.819745 87.8470031,135.809604 C88.047241,135.778773 88.1971991,135.609908 88.2040577,135.40753 L88.2596444,133.767337 C88.2638916,133.642015 88.2120571,133.521316 88.1182373,133.438065 L87.3756636,132.779144 L87.4322264,133.347955 L88.6017469,131.799527 C88.7529464,131.599341 88.6967029,131.312267 88.4811264,131.183865 L87.0807524,130.349769 L87.0558098,131.08723 L88.3018904,130.454841 C88.4433931,130.383028 88.5325395,130.237859 88.5325395,130.079242 L88.5325395,124.749518 L78.2102812,124.908287 L77.3673483,124.908287 L77.3673483,129.987553 Z" id="Path-51" fill="#DDDDDD"></path>
                    <polygon id="Path-54" fill="#575757" points="252.021645 160.266262 252.864578 160.266262 252.864578 158.305534 252.864578 158.128983 252.738632 158.00519 251.863766 157.145278 251.740762 157.024378 251.568245 157.024378 247.712281 157.024378 247.544321 157.024378 247.422398 157.13984 246.514371 157.999751 246.382788 158.124362 246.382788 160.499321"></polygon>
                    <path d="M103.358978,101.733245 C103.358978,100.337361 102.226796,99.2057728 100.830179,99.2057728 C99.4335625,99.2057728 98.3013809,100.337361 98.3013809,101.733245 C98.3013809,103.129129 99.4335625,104.260717 100.830179,104.260717 C102.226796,104.260717 103.358978,103.129129 103.358978,101.733245 Z M99.1443137,101.733245 C99.1443137,100.802655 99.8991015,100.048264 100.830179,100.048264 C101.761257,100.048264 102.516045,100.802655 102.516045,101.733245 C102.516045,102.663835 101.761257,103.418227 100.830179,103.418227 C99.8991015,103.418227 99.1443137,102.663835 99.1443137,101.733245 Z" id="Oval-2-Copy-3" fill="#FFFFFF"></path>
                    <path d="M58.4164005,75.0810335 L70.6790732,81.0472854 C71.6702298,81.5295204 73.1315945,82.5282429 73.9417571,83.2767331 L86.316195,94.7091848 C87.126969,95.4582397 86.9827236,96.4518742 85.9807911,96.9349044 L83.9440934,97.9167931 C82.4549143,98.634724 79.9976204,98.7359208 78.4444059,98.138527 L62.8988367,92.1594261 C62.3852934,91.9619083 61.543782,91.9202737 61.0118467,92.0685007 L48.5904911,95.5297879 C47.5287943,95.8256362 45.7802262,95.981706 44.6816054,95.8780634 L37.4080668,95.1918863" id="Path-3" stroke="#686868" stroke-linecap="round" fill="#FFF5F5"></path>
                </g>
            </g>
        </g>
    </g>
</svg>